<svg width="100" height="45" viewBox="0 0 100 45" fill="none" xmlns="http://www.w3.org/2000/svg">
<path d="M2.88408 18.3373V25.5936H12.5347V28.2936H1.55297C0.72102 28.2936 0 27.5623 0 26.6623V17.1561C0 16.2561 0.72102 15.5811 1.55297 15.5811H12.5347V18.3936H2.88408V18.3373Z" fill="#F7142E"/>
<path d="M70.1608 15.5811H60.7876C59.9001 15.5811 59.2346 16.3123 59.2346 17.1561V26.6623C59.2346 27.5623 59.9556 28.2373 60.7876 28.2373H70.1608C71.0482 28.2373 71.7138 27.5061 71.7138 26.6623V17.1561C71.7138 16.2561 71.0482 15.5811 70.1608 15.5811ZM68.8297 25.5936H62.1187V18.3373H68.8852V25.5936H68.8297Z" fill="#F7142E"/>
<path d="M17.1935 18.3373V20.4748H24.071V23.2873H17.1935V25.5936H26.7886V28.2936H14.3094V15.5811H26.7886V18.3373H17.1935Z" fill="#F7142E"/>
<path d="M41.1536 15.5811V28.2936H38.2696V20.6998L31.3921 26.5498L29.3955 28.2936H28.5081V15.5811H31.3921V23.2873L38.2696 17.1561L40.0444 15.5811H41.1536Z" fill="#F7142E"/>
<path d="M32.3904 14.8501H37.9368V12.0376L32.3904 14.8501Z" fill="#F7142E"/>
<path d="M55.7404 15.5811H44.5369C43.6494 15.5811 42.9839 16.3123 42.9839 17.1561V23.9061C42.9839 24.8061 43.7049 25.4811 44.5369 25.4811H48.5857V28.2373H51.4697V25.4811H55.7404C56.6278 25.4811 57.2934 24.7498 57.2934 23.9061V17.1561C57.2934 16.2561 56.6278 15.5811 55.7404 15.5811ZM45.2024 23.2873V17.7748H48.6411V23.2873H45.2024ZM55.1303 23.2873H51.5252V17.7748H55.1303V23.2873Z" fill="#F7142E"/>
<path d="M84.5813 15.5811H73.4332V28.2936H76.3173V24.4686H84.5813C85.4687 24.4686 86.1342 23.7373 86.1342 22.8936V17.1561C86.1342 16.2561 85.4687 15.5811 84.5813 15.5811ZM83.7493 21.9936H76.3173V17.9998H83.7493V21.9936Z" fill="#F7142E"/>
<path d="M100 15.5811V18.5061H95.3411V28.2936H92.457V18.5061H87.7981V15.5811H100Z" fill="#F7142E"/>
<path d="M66.0011 6.83412V11.25L50.1666 4.36332L34.3871 11.25V6.83412L50.1666 0L66.0011 6.83412Z" fill="#F7142E"/>
<path d="M64.8918 41.625H34.3871V45H64.8918V41.625Z" fill="#F7142E"/>
<path d="M4.7144 32.9061H4.65894L1.44208 37.6873H0.499207V31.3311H1.44208V36.1686H1.49754L4.7144 31.3311H5.65727V37.7436H4.7144V32.9061Z" fill="#F7142E"/>
<path d="M15.2523 37.7436V34.9311H12.0355V37.7436H11.0371V31.3311H12.0355V34.0311H15.2523V31.3311H16.2507V37.7436H15.2523Z" fill="#F7142E"/>
<path d="M28.4526 37.743H27.177L24.6811 34.7617H24.6256V37.743H23.6828V34.7617H23.6273L21.076 37.743H19.8558L22.6844 34.4242L20.0777 31.3867H21.2424L23.6273 34.2555H23.6828V31.3867H24.6256V34.2555H24.6811L27.066 31.3867H28.2308L25.624 34.4242L28.4526 37.743Z" fill="#F7142E"/>
<path d="M36.3839 32.9061H36.3284L33.1115 37.6873H32.1687V31.3311H33.1115V36.1686H33.167L36.3839 31.3311H37.3267V37.7436H36.3839V32.9061Z" fill="#F7142E"/>
<path d="M46.9218 37.7436V34.9311H43.7049V37.7436H42.7066V31.3311H43.7049V34.0311H46.9218V31.3311H47.9201V37.7436H46.9218Z" fill="#F7142E"/>
<path d="M57.5153 32.9061H57.4598L54.243 37.6873H53.2446V31.3311H54.1875V36.1686H54.243L57.4598 31.3311H58.4027V37.7436H57.4598V32.9061H57.5153Z" fill="#F7142E"/>
<path d="M66.6112 31.3311C67.2213 31.3311 67.7205 31.4998 68.1087 31.8936C68.4969 32.2873 68.6633 32.7936 68.6633 33.4123C68.6633 34.0311 68.4415 34.5373 68.0532 34.9311C67.665 35.3248 67.1658 35.4936 66.5557 35.4936H65.1137V37.6873H64.1154V31.3311H66.6112ZM65.1137 34.7061H66.3339C66.7776 34.7061 67.1104 34.5936 67.3322 34.3686C67.5541 34.1436 67.665 33.8061 67.665 33.4123C67.665 33.0186 67.5541 32.6811 67.3322 32.4561C67.1104 32.2311 66.7776 32.1186 66.3339 32.1186H65.1137V34.7061Z" fill="#F7142E"/>
<path d="M78.5912 32.9061H78.5358L75.3189 37.6873H74.376V31.3311H75.3189V36.1686H75.3744L78.5912 31.3311H79.5341V37.7436H78.5912V32.9061Z" fill="#F7142E"/>
<path d="M89.1292 37.7436V34.9311H85.9123V37.7436H84.914V31.3311H85.9123V34.0311H89.1292V31.3311H90.1275V37.7436H89.1292Z" fill="#F7142E"/>
<path d="M96.173 37.7436V31.3311H100V32.1748H97.1159V37.6873H96.173V37.7436Z" fill="#F7142E"/>
</svg>
