<svg width="101" height="45" viewBox="0 0 101 45" fill="none" xmlns="http://www.w3.org/2000/svg">
<path d="M2.88542 18.3375V25.5937H12.536V28.2937H1.55431C0.722363 28.2937 0.00134277 27.5625 0.00134277 26.6625V17.1562C0.00134277 16.2562 0.722363 15.5812 1.55431 15.5812H12.536V18.3937H2.88542V18.3375Z" fill="white"/>
<path d="M70.1622 15.5812H60.7889C59.9015 15.5812 59.2359 16.3125 59.2359 17.1562V26.6625C59.2359 27.5625 59.9569 28.2375 60.7889 28.2375H70.1622C71.0496 28.2375 71.7151 27.5062 71.7151 26.6625V17.1562C71.7151 16.2562 71.0496 15.5812 70.1622 15.5812ZM68.831 25.5937H62.12V18.3375H68.8865V25.5937H68.831Z" fill="white"/>
<path d="M17.1949 18.3375V20.475H24.0723V23.2875H17.1949V25.5937H26.79V28.2937H14.3108V15.5812H26.79V18.3375H17.1949Z" fill="white"/>
<path d="M41.155 15.5812V28.2937H38.2709V20.7L31.3935 26.55L29.3968 28.2937H28.5094V15.5812H31.3935V23.2875L38.2709 17.1562L40.0457 15.5812H41.155Z" fill="white"/>
<path d="M32.3918 14.85H37.9381V12.0375L32.3918 14.85Z" fill="white"/>
<path d="M55.7417 15.5812H44.5382C43.6508 15.5812 42.9852 16.3125 42.9852 17.1562V23.9062C42.9852 24.8062 43.7063 25.4812 44.5382 25.4812H48.587V28.2375H51.4711V25.4812H55.7417C56.6292 25.4812 57.2947 24.75 57.2947 23.9062V17.1562C57.2947 16.2562 56.6292 15.5812 55.7417 15.5812ZM45.2038 23.2875V17.775H48.6425V23.2875H45.2038ZM55.1316 23.2875H51.5265V17.775H55.1316V23.2875Z" fill="white"/>
<path d="M84.5826 15.5812H73.4345V28.2937H76.3186V24.4687H84.5826C85.47 24.4687 86.1356 23.7375 86.1356 22.8937V17.1562C86.1356 16.2562 85.47 15.5812 84.5826 15.5812ZM83.7506 21.9937H76.3186V18H83.7506V21.9937Z" fill="white"/>
<path d="M100.001 15.5812V18.5062H95.3424V28.2937H92.4583V18.5062H87.7994V15.5812H100.001Z" fill="white"/>
<path d="M66.0025 6.83412V11.25L50.168 4.36332L34.3885 11.25V6.83412L50.168 0L66.0025 6.83412Z" fill="#F7142E"/>
<path d="M64.8932 41.625H34.3885V45H64.8932V41.625Z" fill="#F7142E"/>
<path d="M4.71574 32.9062H4.66028L1.44342 37.6875H0.500549V31.3312H1.44342V36.1687H1.49889L4.71574 31.3312H5.65862V37.7437H4.71574V32.9062Z" fill="white"/>
<path d="M15.2537 37.7437V34.9312H12.0368V37.7437H11.0385V31.3312H12.0368V34.0312H15.2537V31.3312H16.252V37.7437H15.2537Z" fill="white"/>
<path d="M28.454 37.743H27.1783L24.6825 34.7617H24.627V37.743H23.6841V34.7617H23.6287L21.0774 37.743H19.8572L22.6858 34.4242L20.079 31.3867H21.2438L23.6287 34.2555H23.6841V31.3867H24.627V34.2555H24.6825L27.0674 31.3867H28.2321L25.6253 34.4242L28.454 37.743Z" fill="white"/>
<path d="M36.3852 32.9062H36.3297L33.1129 37.6875H32.17V31.3312H33.1129V36.1687H33.1683L36.3852 31.3312H37.3281V37.7437H36.3852V32.9062Z" fill="white"/>
<path d="M46.9231 37.7437V34.9312H43.7063V37.7437H42.7079V31.3312H43.7063V34.0312H46.9231V31.3312H47.9215V37.7437H46.9231Z" fill="white"/>
<path d="M57.5166 32.9062H57.4612L54.2443 37.6875H53.246V31.3312H54.1888V36.1687H54.2443L57.4612 31.3312H58.404V37.7437H57.4612V32.9062H57.5166Z" fill="white"/>
<path d="M66.6125 31.3312C67.2226 31.3312 67.7218 31.5 68.11 31.8937C68.4983 32.2875 68.6647 32.7937 68.6647 33.4125C68.6647 34.0312 68.4428 34.5375 68.0546 34.9312C67.6663 35.325 67.1672 35.4937 66.5571 35.4937H65.115V37.6875H64.1167V31.3312H66.6125ZM65.115 34.7062H66.3352C66.7789 34.7062 67.1117 34.5937 67.3336 34.3687C67.5554 34.1437 67.6663 33.8062 67.6663 33.4125C67.6663 33.0187 67.5554 32.6812 67.3336 32.4562C67.1117 32.2312 66.7789 32.1187 66.3352 32.1187H65.115V34.7062Z" fill="white"/>
<path d="M78.5926 32.9062H78.5371L75.3203 37.6875H74.3774V31.3312H75.3203V36.1687H75.3757L78.5926 31.3312H79.5354V37.7437H78.5926V32.9062Z" fill="white"/>
<path d="M89.1305 37.7437V34.9312H85.9137V37.7437H84.9153V31.3312H85.9137V34.0312H89.1305V31.3312H90.1289V37.7437H89.1305Z" fill="white"/>
<path d="M96.1744 37.7437V31.3312H100.001V32.175H97.1173V37.6875H96.1744V37.7437Z" fill="white"/>
</svg>
