<svg width="15" height="14" viewBox="0 0 15 14" fill="none" xmlns="http://www.w3.org/2000/svg">
<path d="M12.3735 0.121338H2.12834C1.08466 0.121338 0.238525 0.948474 0.238525 1.96883V11.9845C0.238525 13.0049 1.08461 13.832 2.12834 13.832H7.18113L7.18989 8.93273H5.88774C5.71852 8.93273 5.58118 8.79893 5.5806 8.6335L5.57424 7.05413C5.57357 6.88791 5.71144 6.75266 5.88147 6.75266H7.18133V5.22666C7.18133 3.4558 8.28765 2.49154 9.90355 2.49154H11.2296C11.3992 2.49154 11.5369 2.626 11.5369 2.7919V4.1235C11.5369 4.2894 11.3993 4.42385 11.2298 4.42385L10.416 4.42432C9.53721 4.42432 9.36694 4.83251 9.36694 5.43172V6.75284H11.298C11.4821 6.75284 11.6248 6.90994 11.603 7.08842L11.4116 8.6678C11.3933 8.819 11.2622 8.93283 11.1065 8.93283H9.37565L9.36689 13.8323H12.3735C13.4172 13.8323 14.2633 13.0051 14.2633 11.9848V1.96883C14.2633 0.948521 13.4172 0.121338 12.3735 0.121338Z" fill="white"/>
<path d="M7.18114 13.8317L7.1899 8.93237H7.16846V13.8317H7.18114Z" fill="white"/>
</svg>
