<svg width="15" height="14" viewBox="0 0 15 14" fill="none" xmlns="http://www.w3.org/2000/svg">
<path d="M10.0855 0.168457H4.41676C2.11299 0.168457 0.23877 2.0007 0.23877 4.25287V9.79464C0.23877 12.0467 2.11299 13.8791 4.41681 13.8791H10.0855C12.3892 13.8791 14.2636 12.0468 14.2636 9.79464V4.25287C14.2635 2.0007 12.3893 0.168457 10.0855 0.168457ZM12.8527 9.79468C12.8527 11.2887 11.6138 12.4998 10.0855 12.4998H4.41681C2.88858 12.4998 1.6497 11.2887 1.6497 9.79468V4.25291C1.6497 2.75892 2.88858 1.54774 4.41681 1.54774H10.0855C11.6138 1.54774 12.8527 2.75897 12.8527 4.25291V9.79468Z" fill="white"/>
<path d="M7.25114 3.47754C5.25106 3.47754 3.62378 5.06837 3.62378 7.02365C3.62378 8.9788 5.25106 10.5696 7.25114 10.5696C9.25122 10.5696 10.8784 8.97894 10.8784 7.02365C10.8784 5.06837 9.25122 3.47754 7.25114 3.47754ZM7.25114 9.19035C6.02704 9.19035 5.03466 8.22038 5.03466 7.02365C5.03466 5.82693 6.02704 4.85682 7.25114 4.85682C8.47524 4.85682 9.46748 5.82688 9.46748 7.02365C9.46748 8.22034 8.47524 9.19035 7.25114 9.19035Z" fill="white"/>
</svg>
