<svg width="15" height="12" viewBox="0 0 15 12" fill="none" xmlns="http://www.w3.org/2000/svg">
<path d="M13.363 0.293507C13.8515 0.107214 14.3563 0.524993 14.2491 1.02661L12.0587 11.262C11.9564 11.7419 11.3798 11.958 10.9755 11.6677L7.66899 9.29494L5.98357 10.9773C5.68739 11.2725 5.17672 11.1523 5.04966 10.7588L3.83365 6.98508L0.574107 6.04389C0.145943 5.92047 0.121201 5.3382 0.536158 5.17932L13.363 0.293507ZM11.7551 2.56462C11.8979 2.44121 11.732 2.22348 11.5703 2.32186L4.53483 6.58747C4.41108 6.66246 4.35418 6.81006 4.39787 6.94634L5.35733 11.0652C5.37632 11.1281 5.46869 11.1192 5.47696 11.0539L5.69145 7.915C5.69969 7.83757 5.73764 7.7666 5.79707 7.715L11.7551 2.56462Z" fill="white"/>
</svg>
