<svg width="15" height="12" viewBox="0 0 15 12" fill="none" xmlns="http://www.w3.org/2000/svg">
<path d="M14.0404 1.64769C13.7287 1.78285 13.4053 1.88942 13.0733 1.96652C13.4391 1.62683 13.7141 1.2018 13.8692 0.727502C13.9135 0.592157 13.763 0.474963 13.638 0.547478C13.1762 0.815315 12.6788 1.01606 12.1595 1.14453C12.1295 1.15202 12.0985 1.15576 12.0672 1.15576C11.9725 1.15576 11.8808 1.12147 11.8083 1.05915C11.2559 0.583175 10.5454 0.321045 9.80766 0.321045C9.48837 0.321045 9.16616 0.3697 8.84979 0.465654C7.86937 0.762871 7.11287 1.55356 6.87541 2.52896C6.7864 2.89471 6.76237 3.26103 6.80381 3.61734C6.80846 3.65832 6.78879 3.68686 6.77658 3.70024C6.75505 3.72372 6.72471 3.73724 6.69308 3.73724C6.68963 3.73724 6.6859 3.7371 6.68236 3.73677C4.53622 3.54178 2.60089 2.53106 1.23308 0.89059C1.16345 0.806894 1.02955 0.817187 0.973945 0.910334C0.706145 1.35974 0.564588 1.87356 0.564588 2.39647C0.564588 3.19773 0.894026 3.95296 1.46604 4.50356C1.22547 4.44775 0.992609 4.35993 0.776253 4.24241C0.671545 4.18562 0.542861 4.25879 0.541378 4.37579C0.526542 5.56621 1.2395 6.62549 2.30749 7.10245C2.28596 7.10291 2.26442 7.1031 2.24288 7.1031C2.07362 7.1031 1.9021 7.08729 1.73346 7.05562C1.61559 7.03377 1.51658 7.14296 1.55314 7.25459C1.8999 8.31274 2.8317 9.09263 3.94693 9.26956C3.02145 9.87696 1.94355 10.1973 0.821859 10.1973L0.472226 10.1971C0.364312 10.1971 0.273147 10.2659 0.245869 10.3679C0.218831 10.4683 0.268553 10.5744 0.360531 10.6266C1.62449 11.3458 3.06634 11.7258 4.53058 11.7258C5.81234 11.7258 7.01132 11.4772 8.09419 10.9867C9.08696 10.5372 9.9642 9.89455 10.7017 9.07667C11.3887 8.31475 11.9259 7.43526 12.2984 6.46244C12.6534 5.53538 12.841 4.54585 12.841 3.60143V3.55633C12.841 3.4047 12.9112 3.26201 13.0336 3.16475C13.4981 2.796 13.9027 2.36203 14.2358 1.87483C14.3239 1.74627 14.1851 1.58495 14.0404 1.64769Z" fill="white"/>
</svg>
