<svg width="15" height="14" viewBox="0 0 15 14" fill="none" xmlns="http://www.w3.org/2000/svg">
<path d="M7.58442 0.120546C3.85029 0.294207 0.903581 3.3344 0.914827 6.98892C0.918273 8.102 1.19316 9.15262 1.67812 10.0811L0.933634 13.6139C0.893388 13.8051 1.06969 13.9724 1.26389 13.9274L4.80496 13.1073C5.71475 13.5504 6.73661 13.8062 7.81805 13.8223C11.6347 13.8794 14.817 10.9168 14.9361 7.18705C15.0635 3.189 11.6882 -0.0705659 7.58442 0.120546ZM11.8097 10.7633C10.7728 11.7771 9.39384 12.3355 7.92721 12.3355C7.06849 12.3355 6.24623 12.1471 5.48341 11.7756L4.9904 11.5355L2.81919 12.0382L3.27617 9.86953L3.0333 9.40436C2.63725 8.64618 2.43644 7.82644 2.43644 6.96768C2.43644 5.53385 3.0076 4.18596 4.04459 3.17211C5.07233 2.16729 6.47369 1.59999 7.92731 1.59999C9.39379 1.59999 10.7727 2.15835 11.8097 3.17211C12.8467 4.18587 13.4178 5.5339 13.4178 6.96754C13.4179 8.38864 12.8375 9.75856 11.8097 10.7633Z" fill="white"/>
<path d="M11.3303 8.4543L9.97201 8.07306C9.79356 8.02304 9.60118 8.07259 9.47106 8.20218L9.13884 8.53294C8.99882 8.67254 8.78634 8.71731 8.60095 8.644C7.95839 8.38978 6.60671 7.21485 6.26171 6.62734C6.16198 6.4578 6.17849 6.24596 6.30081 6.09111L6.59072 5.72437C6.70433 5.58074 6.72826 5.38767 6.65317 5.22158L6.08173 3.95805C5.94486 3.65545 5.54929 3.56731 5.29082 3.78102C4.91176 4.09452 4.46196 4.57073 4.40736 5.09845C4.31093 6.02884 4.71914 7.20157 6.26234 8.60981C8.04529 10.2369 9.47316 10.4516 10.403 10.2315C10.9303 10.1067 11.3517 9.60625 11.6175 9.19638C11.7989 8.91675 11.6555 8.54566 11.3303 8.4543Z" fill="white"/>
</svg>
