<svg width="14" height="14" viewBox="0 0 14 14" fill="none" xmlns="http://www.w3.org/2000/svg">
<path d="M8.54105 5.45688C8.37521 5.29006 8.19133 5.14218 7.99282 5.01596C7.46704 4.67928 6.8558 4.50037 6.23146 4.50037C5.3649 4.49876 4.53355 4.84306 3.92187 5.45688L0.954401 8.42667C0.34376 9.03849 0.000547454 9.86743 6.76206e-07 10.7318C-0.00114756 12.5356 1.46017 13.9989 3.26399 14C4.12921 14.003 4.95979 13.6603 5.57125 13.0482L8.02081 10.5986C8.06532 10.5545 8.09017 10.4943 8.08982 10.4316C8.08908 10.3028 7.98402 10.1989 7.85517 10.1997H7.76186C7.25008 10.2015 6.74286 10.1032 6.2688 9.91041C6.18146 9.87446 6.08107 9.89474 6.01452 9.96172L4.25316 11.7254C3.70622 12.2723 2.81946 12.2723 2.27252 11.7254C1.72558 11.1785 1.72558 10.2917 2.27252 9.74476L5.25166 6.76797C5.79816 6.22215 6.68348 6.22215 7.22998 6.76797C7.59829 7.1146 8.17279 7.1146 8.54107 6.76797C8.69953 6.60937 8.7956 6.39903 8.8117 6.1754C8.82873 5.90816 8.73018 5.64644 8.54105 5.45688Z" fill="white"/>
<path d="M13.0412 0.956662C11.7657 -0.318887 9.69761 -0.318887 8.42206 0.956662L5.97482 3.40155C5.90762 3.46908 5.88824 3.57064 5.92583 3.65818C5.96299 3.74597 6.04981 3.80231 6.14512 3.80048H6.23143C6.74261 3.79955 7.24901 3.8986 7.72216 4.0921C7.80951 4.12805 7.90989 4.10777 7.97644 4.04079L9.73312 2.28642C10.2801 1.73948 11.1668 1.73948 11.7138 2.28642C12.2607 2.83337 12.2607 3.72013 11.7138 4.26707L9.52549 6.453L9.50681 6.474L8.74163 7.23454C8.19512 7.78036 7.30981 7.78036 6.7633 7.23454C6.39499 6.88791 5.82049 6.88791 5.45221 7.23454C5.29275 7.39434 5.19659 7.60651 5.18159 7.83176C5.16453 8.099 5.26308 8.36071 5.45221 8.55031C5.72224 8.82148 6.03817 9.04262 6.38537 9.20351C6.43436 9.22683 6.48335 9.24551 6.53234 9.2665C6.58134 9.2875 6.63265 9.30382 6.68164 9.32249C6.73063 9.34116 6.78195 9.35749 6.83094 9.37148L6.96859 9.4088C7.0619 9.43212 7.15523 9.45079 7.25086 9.46712C7.36607 9.48423 7.4821 9.49514 7.59848 9.49979H7.76177H7.77577L7.91575 9.48346C7.96706 9.48114 8.02073 9.46947 8.08139 9.46947H8.1607L8.32167 9.44615L8.39634 9.43215L8.53164 9.40415H8.55731C9.13036 9.26021 9.65362 8.96351 10.0714 8.54563L13.0412 5.57584C14.3168 4.30029 14.3168 2.23221 13.0412 0.956662Z" fill="white"/>
</svg>
