<svg width="28" height="32" viewBox="0 0 28 32" fill="none" xmlns="http://www.w3.org/2000/svg">
<path d="M24.3129 18.4213C23.8864 18.0011 22.9406 17.7785 21.5013 17.7596C20.527 17.7489 19.3544 17.8347 18.121 18.0074C17.5687 17.6887 16.9995 17.3419 16.5526 16.9243C15.3506 15.8019 14.3473 14.2439 13.7221 12.5308C13.7629 12.3707 13.7975 12.2301 13.8298 12.0866C13.8298 12.0866 14.5069 8.241 14.3277 6.9408C14.303 6.76248 14.2878 6.71076 14.2399 6.57216L14.1811 6.42108C13.9969 5.99634 13.6358 5.54628 13.0697 5.57082L12.7378 5.56026L12.7286 5.56008C12.0974 5.56008 11.5829 5.88294 11.4478 6.36552C11.0373 7.87909 11.4609 10.1434 12.2285 13.076L12.032 13.5537C11.4824 14.8936 10.7936 16.2431 10.1858 17.4336L10.1068 17.5885C9.46747 18.8397 8.88733 19.9019 8.36143 20.8017L7.81843 21.0888C7.77889 21.1097 6.84828 21.6019 6.63 21.7339C4.77828 22.8396 3.55122 24.0947 3.34764 25.0907C3.28284 25.4085 3.33108 25.8152 3.66054 26.0035L4.18572 26.2678C4.41354 26.382 4.65378 26.4398 4.8999 26.4398C6.21876 26.4398 7.74991 24.7969 9.85915 21.1159C12.2944 20.323 15.0671 19.6641 17.4971 19.3006C19.3489 20.3433 21.6265 21.0675 23.0641 21.0675C23.3193 21.0675 23.5393 21.0432 23.7181 20.9959C23.9938 20.9229 24.2262 20.7656 24.3679 20.5522C24.6468 20.1325 24.7033 19.5544 24.6276 18.9624C24.6051 18.7868 24.4647 18.5696 24.3129 18.4213ZM4.614 25.439C4.85448 24.7814 5.8065 23.4814 7.2141 22.3279C7.3026 22.2561 7.52059 22.0518 7.72021 21.8622C6.24822 24.2098 5.26248 25.1455 4.614 25.439ZM12.9511 6.24018C13.3751 6.24018 13.6162 7.30878 13.6363 8.31061C13.6562 9.31249 13.4219 10.0156 13.1313 10.5359C12.8906 9.76561 12.7742 8.55151 12.7742 7.75765C12.7742 7.75765 12.7565 6.24018 12.9511 6.24018ZM10.4641 19.9217C10.7594 19.393 11.0667 18.8355 11.3807 18.2443C12.146 16.7969 12.6294 15.6643 12.9894 14.7334C13.7054 16.036 14.597 17.1434 15.6453 18.0307C15.776 18.1414 15.9145 18.2526 16.06 18.3636C13.9285 18.7853 12.0862 19.2982 10.4641 19.9217ZM23.9034 19.8016C23.7735 19.8828 23.4016 19.9297 23.1624 19.9297C22.3904 19.9297 21.4352 19.5768 20.0961 19.0027C20.6106 18.9646 21.0824 18.9453 21.5055 18.9453C22.2798 18.9453 22.5092 18.9419 23.2664 19.135C24.0236 19.3282 24.0331 19.7205 23.9034 19.8016ZM26.2323 6.2322L21.7678 1.76778C20.7955 0.79548 18.8751 0 17.5 0H2.50002C1.125 0 0 1.125 0 2.50002V29.5C0 30.875 1.125 32 2.50002 32H25.5C26.875 32 28 30.875 28 29.5V10.5C28 9.12499 27.2046 7.20444 26.2323 6.2322ZM24.8181 7.6464C24.916 7.74426 25.0134 7.86438 25.1081 7.99998H20.0001V2.892C20.1357 2.98668 20.2558 3.08418 20.3536 3.18198L24.8181 7.6464ZM26.0001 29.5C26.0001 29.7711 25.7711 30 25.5001 30H2.50002C2.229 30 2.00004 29.7711 2.00004 29.5V2.50002C2.00004 2.229 2.22906 2.00004 2.50002 2.00004H17.5C17.6511 2.00004 17.8205 2.01912 18.0001 2.05326V10H25.9468C25.981 10.1796 26.0001 10.349 26.0001 10.5V29.5Z" fill="#FF6B00"/>
</svg>
