<svg width="24" height="24" viewBox="0 0 24 24" fill="none" xmlns="http://www.w3.org/2000/svg">
<path fill-rule="evenodd" clip-rule="evenodd" d="M8.97731 15.9597C12.8336 15.9597 15.9597 12.8336 15.9597 8.97731C15.9597 5.12106 12.8336 1.99496 8.97731 1.99496C5.12106 1.99496 1.99496 5.12106 1.99496 8.97731C1.99496 12.8336 5.12106 15.9597 8.97731 15.9597ZM8.97731 17.9546C13.9353 17.9546 17.9546 13.9353 17.9546 8.97731C17.9546 4.01928 13.9353 0 8.97731 0C4.01928 0 0 4.01928 0 8.97731C0 13.9353 4.01928 17.9546 8.97731 17.9546Z" fill="black"/>
<path fill-rule="evenodd" clip-rule="evenodd" d="M21.884 24L13.9042 16.0202L16.0201 13.9042L24 21.884L21.884 24Z" fill="black"/>
</svg>
