<svg width="335" height="48" viewBox="0 0 335 48" fill="none" xmlns="http://www.w3.org/2000/svg">
<path d="M7.55085 23.7454C5.08184 23.7454 2.56489 23.4851 0 22.9645V18.7762C2.99637 19.4624 5.32155 19.8056 6.97555 19.8056C10.8349 19.8056 12.7645 18.7644 12.7645 16.6821V13.5231H3.16417V9.58333H12.7645V6.8858C12.7645 5.98663 12.5009 5.32407 11.9735 4.89815C11.4461 4.47222 10.8229 4.21193 10.1038 4.11728C9.38463 3.99897 8.47373 3.93982 7.37107 3.93982C5.6931 3.93982 3.35593 4.28292 0.359564 4.96913V0.816358C3.30799 0.272119 5.82494 0 7.91042 0C10.3075 0 12.2372 0.165638 13.6994 0.496913C15.1616 0.804527 16.3003 1.46708 17.1153 2.48457C17.9543 3.47839 18.3737 4.96914 18.3737 6.95679V17.0725C18.3737 18.161 18.134 19.1312 17.6546 19.983C17.1752 20.8112 16.552 21.4738 15.7849 21.9707C14.7781 22.6096 13.5436 23.071 12.0814 23.3549C10.6191 23.6152 9.10896 23.7454 7.55085 23.7454Z" fill="#F2F2F2"/>
<path d="M33.6797 0.354938H39.2889V9.44136C40.3436 9.44136 41.1946 9.25206 41.8418 8.87346C42.489 8.47119 43.1961 7.71399 43.9632 6.60185L48.3499 0.354938H54.6423L49.6084 7.27623C48.8413 8.34105 48.1342 9.15741 47.4869 9.72531C46.8637 10.2695 46.0846 10.7191 45.1498 11.0741V11.1451C46.3483 11.429 47.3431 11.9378 48.1342 12.6713C48.9492 13.4048 49.7402 14.4696 50.5073 15.8657L54.6423 23.3904H48.3499L44.5385 16.6111C44.0351 15.7119 43.5437 15.0376 43.0643 14.588C42.6089 14.1147 42.0935 13.7953 41.5182 13.6296C40.9429 13.464 40.1998 13.3812 39.2889 13.3812V23.3904H33.6797V0.354938Z" fill="#F2F2F2"/>
<path d="M78.3474 23.7454C77.2927 23.7454 76.3458 23.698 75.5068 23.6034C74.6918 23.5087 73.7929 23.3313 72.8101 23.071C71.7074 22.787 70.7965 22.4203 70.0774 21.9707C69.3583 21.4974 68.759 20.8467 68.2796 20.0185C67.7762 19.1903 67.5245 18.2083 67.5245 17.0725V6.95679C67.5245 2.31893 71.1321 0 78.3474 0C80.1932 0 82.6622 0.260288 85.7544 0.780865V4.93364C82.9738 4.27109 80.5288 3.93982 78.4193 3.93982C77.5324 3.93982 76.8372 3.96348 76.3338 4.0108C75.8544 4.05813 75.351 4.17644 74.8237 4.36574C73.697 4.74434 73.1337 5.58436 73.1337 6.8858V16.6821C73.1337 18.7644 75.0634 19.8056 78.9227 19.8056C80.5767 19.8056 82.9019 19.4624 85.8983 18.7762V22.9645C83.3334 23.4851 80.8164 23.7454 78.3474 23.7454Z" fill="#F2F2F2"/>
<path d="M100.269 0.354938H120.836V23.3904H115.227V4.25926H105.879V23.3904H100.269V0.354938Z" fill="#F2F2F2"/>
<path d="M147.189 23.7454C145.895 23.7454 144.696 23.6626 143.594 23.4969C142.515 23.3313 141.388 23.0473 140.214 22.6451C138.943 22.2191 137.949 21.5329 137.229 20.5864C136.51 19.6163 136.151 18.445 136.151 17.0725V6.99228C136.151 5.85648 136.402 4.83899 136.906 3.93982C137.433 3.04064 138.104 2.33076 138.919 1.81018C139.639 1.3606 140.525 0.981996 141.58 0.674382C142.635 0.366769 143.618 0.177469 144.529 0.106482C145.368 0.0354941 146.255 0 147.189 0C148.292 0 149.251 0.0473252 150.066 0.141976C150.881 0.212964 151.792 0.378602 152.799 0.638889C153.949 0.970165 154.896 1.37243 155.639 1.84568C156.382 2.31893 157.005 2.98148 157.509 3.83333C158.036 4.70885 158.3 5.76183 158.3 6.99228V17.0725C158.3 18.3503 157.952 19.4506 157.257 20.3735C156.586 21.2963 155.651 21.9943 154.453 22.4676C152.295 23.3194 149.874 23.7454 147.189 23.7454ZM147.261 19.8056C148.052 19.8056 148.712 19.7819 149.239 19.7346C149.79 19.6636 150.354 19.5453 150.929 19.3796C151.504 19.214 151.936 18.9419 152.223 18.5633C152.535 18.161 152.691 17.6641 152.691 17.0725V6.95679C152.691 5.86831 152.247 5.09928 151.36 4.64969C150.473 4.17644 149.095 3.93982 147.225 3.93982C145.356 3.93982 143.977 4.16461 143.09 4.6142C142.203 5.06379 141.76 5.84465 141.76 6.95679V17.0725C141.76 17.6641 141.916 18.161 142.227 18.5633C142.539 18.9419 142.994 19.214 143.594 19.3796C144.169 19.5453 144.72 19.6636 145.248 19.7346C145.799 19.7819 146.47 19.8056 147.261 19.8056Z" fill="#F2F2F2"/>
<path d="M180.684 23.7454C177.472 23.7454 174.632 23.4851 172.163 22.9645V18.7762C173.84 19.1548 175.219 19.427 176.298 19.5926C177.376 19.7346 178.551 19.8056 179.821 19.8056C181.643 19.8056 182.902 19.6281 183.597 19.2731C184.292 18.8945 184.639 18.303 184.639 17.4985V15.2623C184.639 14.5288 184.268 14.0556 183.525 13.8426C182.806 13.6296 181.655 13.5231 180.073 13.5231H175.435V9.58333H180.073C181.128 9.58333 181.919 9.51234 182.446 9.37037C182.973 9.22839 183.333 9.02726 183.525 8.76697C183.717 8.48302 183.812 8.08076 183.812 7.56019V5.75C183.812 5.01646 183.525 4.53138 182.949 4.29475C182.374 4.05813 181.331 3.93982 179.821 3.93982C177.832 3.93982 175.435 4.28292 172.63 4.96913V0.816358C175.554 0.272119 178.299 0 180.864 0C183.884 0 186.066 0.343107 187.408 1.02932C188.75 1.69187 189.422 2.85134 189.422 4.50772V8.19907C189.422 8.88529 189.182 9.48868 188.703 10.0093C188.223 10.5062 187.648 10.8374 186.977 11.0031V11.1096C189.158 11.7248 190.249 12.8724 190.249 14.5525V18.2793C190.249 20.1013 189.434 21.4738 187.804 22.3966C186.198 23.2958 183.824 23.7454 180.684 23.7454Z" fill="#F2F2F2"/>
<path d="M204.894 0.354938H210.503V16.1142L220.571 0.354938H226.18V23.3904H220.571V7.38271L210.503 23.3904H204.894V0.354938Z" fill="#F2F2F2"/>
<path d="M259.779 23.3904H242.016V0.354938H247.626V19.4861H255.752V0.354938H261.361V19.4506H264.813V28.75H259.779V23.3904Z" fill="#F2F2F2"/>
<path d="M278.893 0.354938H284.502V16.1142L294.57 0.354938H300.179V23.3904H294.57V7.38271L284.502 23.3904H278.893V0.354938Z" fill="#F2F2F2"/>
<path d="M320.33 14.446C318.82 14.2567 317.693 13.7835 316.95 13.0263C316.207 12.2691 315.835 11.1924 315.835 9.79634V5.21764C315.835 3.46661 316.53 2.22432 317.921 1.49078C319.311 0.733581 321.564 0.35498 324.681 0.35498H335V23.3905H329.391V14.872H326.083L320.617 23.3905H314.217L320.33 14.446ZM329.391 11.2161V4.2948H324.752C323.506 4.2948 322.619 4.46043 322.092 4.79171C321.588 5.09932 321.337 5.67905 321.337 6.53091V8.69603C321.337 9.68986 321.576 10.3642 322.056 10.7192C322.535 11.0505 323.434 11.2161 324.752 11.2161H329.391Z" fill="#F2F2F2"/>
<path d="M0 34.9562H1.83377V40.3108H8.35593V34.9562H10.1897V47.3675H8.35593V41.6113H1.83377V47.3675H0V34.9562Z" fill="#F2F2F2"/>
<path d="M19.0378 34.9562H27.2803V36.2566H20.8715V40.3108H26.6564V41.6113H20.8715V46.0671H27.4693V47.3675H19.0378V34.9562Z" fill="#F2F2F2"/>
<path d="M42.3867 35.396C45.8778 35.396 47.6044 36.5817 47.5666 38.9531L47.5288 42.7204C47.5666 43.8424 47.1507 44.6838 46.2811 45.2448C45.4241 45.8057 44.1259 46.0862 42.3867 46.0862V47.75H40.5529V46.0862C37.0744 46.0862 35.3352 44.9643 35.3352 42.7204V38.9531C35.3352 36.5817 37.0744 35.396 40.5529 35.396V34H42.3867V35.396ZM37.0933 42.7013C37.0933 44.1292 38.2465 44.8432 40.5529 44.8432V36.6008C39.4438 36.6008 38.5868 36.7729 37.9819 37.1172C37.3895 37.4614 37.0933 38.0542 37.0933 38.8957V42.7013ZM42.3867 44.8432C44.6931 44.8432 45.8463 44.1292 45.8463 42.7013L45.8274 38.8957C45.84 38.0542 45.5438 37.4614 44.9389 37.1172C44.3465 36.7729 43.4958 36.6008 42.3867 36.6008V44.8432Z" fill="#F2F2F2"/>
<path d="M59.1042 36.2566H54.9451V34.9562H65.097V36.2566H60.938V47.3675H59.1042V36.2566Z" fill="#F2F2F2"/>
<path d="M72.8094 34.9562H74.6432V39.5459H76.477C77.4978 39.5459 78.3297 39.6033 78.9724 39.718C79.6278 39.82 80.1508 40.0559 80.5415 40.4256C80.9448 40.7953 81.1465 41.3435 81.1465 42.0702V44.6711C81.1465 46.4687 79.7034 47.3675 76.8173 47.3675H72.8094V34.9562ZM76.6849 46.1054C77.5672 46.1054 78.2288 45.997 78.6699 45.7803C79.1237 45.5635 79.3505 45.1683 79.3505 44.5946V42.2806C79.3505 41.8726 79.2686 41.5666 79.1048 41.3627C78.9409 41.1587 78.6699 41.0184 78.2918 40.9419C77.9263 40.8527 77.4033 40.8081 76.7227 40.8081H74.6243V46.1054H76.6849Z" fill="#F2F2F2"/>
<path d="M121.323 34.9562H128.81V36.2566H123.157V47.3675H121.323V34.9562Z" fill="#F2F2F2"/>
<path d="M140.205 34.9562H142.322L147.086 47.3675H145.177L143.778 43.6001H138.522L137.142 47.3675H135.327L140.205 34.9562ZM143.324 42.3188L141.244 36.7156H141.074L138.995 42.3188H143.324Z" fill="#F2F2F2"/>
<path d="M158.02 47.5588C156.709 47.5588 155.392 47.4376 154.068 47.1954V45.7803C155.568 46.099 156.822 46.2583 157.831 46.2583C158.776 46.2583 159.494 46.1627 159.986 45.9715C160.477 45.7675 160.723 45.385 160.723 44.8241V42.7396C160.723 41.9491 159.879 41.5539 158.19 41.5539H155.638V40.3682H157.868C159.57 40.3682 160.42 39.9602 160.42 39.1443V37.0598C160.42 36.3968 159.601 36.0654 157.963 36.0654C157.522 36.0654 156.784 36.0972 155.751 36.161L154.314 36.2757V34.9753C155.953 34.8733 157.163 34.8223 157.944 34.8223C159.368 34.8223 160.42 34.9817 161.101 35.3004C161.794 35.6191 162.141 36.1546 162.141 36.9068V39.2208C162.141 39.616 161.983 39.9475 161.668 40.2152C161.353 40.4702 160.95 40.636 160.458 40.7124V40.7889C160.761 40.8399 161.007 40.8973 161.196 40.9611C161.397 41.0121 161.611 41.0949 161.838 41.2097C162.279 41.4392 162.5 41.8408 162.5 42.4145V44.9006C162.5 45.895 162.103 46.5898 161.309 46.985C160.515 47.3675 159.419 47.5588 158.02 47.5588Z" fill="#F2F2F2"/>
<path d="M100.35 34.7651H101.6V47.5589H100.35V34.7651Z" fill="#FF6B00"/>
</svg>
