<svg width="255" height="42" viewBox="0 0 255 42" fill="none" xmlns="http://www.w3.org/2000/svg">
<path d="M5.74766 18.0748C3.86827 18.0748 1.95238 17.8767 0 17.4804V14.2924C2.28082 14.8147 4.05073 15.0759 5.30975 15.0759C8.24744 15.0759 9.71629 14.2834 9.71629 12.6983V10.2937H2.40855V7.29478H9.71629V5.24143C9.71629 4.55698 9.51558 4.05265 9.11415 3.72844C8.71273 3.40423 8.23832 3.2061 7.69092 3.13405C7.14353 3.04399 6.45016 2.99896 5.61082 2.99896C4.33356 2.99896 2.55452 3.26013 0.273698 3.78248V0.621407C2.51802 0.207136 4.43391 0 6.02136 0C7.84602 0 9.31486 0.126083 10.4279 0.378248C11.5409 0.612401 12.4077 1.11673 13.028 1.89124C13.6667 2.64773 13.986 3.78248 13.986 5.29547V12.9955C13.986 13.8241 13.8035 14.5625 13.4386 15.211C13.0737 15.8414 12.5992 16.3457 12.0154 16.7239C11.249 17.2103 10.3093 17.5615 9.19626 17.7776C8.08322 17.9758 6.93369 18.0748 5.74766 18.0748Z" fill="black"/>
<path d="M25.6368 0.270177H29.9065V7.18671C30.7093 7.18671 31.3571 7.04261 31.8497 6.75442C32.3424 6.44822 32.8806 5.87184 33.4645 5.02529L36.8036 0.270177H41.5934L37.7616 5.53863C37.1777 6.34916 36.6394 6.97056 36.1468 7.40285C35.6724 7.81712 35.0794 8.15934 34.3677 8.42952V8.48355C35.2801 8.6997 36.0373 9.08695 36.6394 9.64531C37.2598 10.2037 37.862 11.0142 38.4458 12.0769L41.5934 17.8047H36.8036L33.9025 12.6443C33.5193 11.9598 33.1452 11.4465 32.7803 11.1043C32.4336 10.744 32.0413 10.5009 31.6034 10.3748C31.1655 10.2487 30.5998 10.1857 29.9065 10.1857V17.8047H25.6368V0.270177Z" fill="black"/>
<path d="M59.6376 18.0748C58.8347 18.0748 58.114 18.0388 57.4754 17.9668C56.855 17.8947 56.1707 17.7596 55.4226 17.5615C54.5833 17.3454 53.8899 17.0662 53.3425 16.7239C52.7951 16.3637 52.3389 15.8684 51.974 15.238C51.5908 14.6076 51.3993 13.8601 51.3993 12.9955V5.29547C51.3993 1.76516 54.1454 0 59.6376 0C61.0426 0 62.922 0.19813 65.2758 0.594389V3.75546C63.1592 3.25113 61.298 2.99896 59.6923 2.99896C59.0172 2.99896 58.488 3.01698 58.1049 3.053C57.7399 3.08902 57.3568 3.17908 56.9553 3.32318C56.0977 3.61136 55.6689 4.25078 55.6689 5.24143V12.6983C55.6689 14.2834 57.1378 15.0759 60.0755 15.0759C61.3345 15.0759 63.1044 14.8147 65.3852 14.2924V17.4804C63.4329 17.8767 61.517 18.0748 59.6376 18.0748Z" fill="black"/>
<path d="M76.3244 0.270177H91.9799V17.8047H87.7103V3.24212H80.5941V17.8047H76.3244V0.270177Z" fill="black"/>
<path d="M112.04 18.0748C111.054 18.0748 110.142 18.0118 109.303 17.8857C108.482 17.7596 107.624 17.5435 106.73 17.2373C105.763 16.9131 105.006 16.3907 104.458 15.6703C103.911 14.9318 103.637 14.0402 103.637 12.9955V5.32248C103.637 4.45792 103.829 3.68341 104.212 2.99896C104.613 2.31452 105.124 1.77416 105.745 1.3779C106.292 1.03568 106.967 0.747489 107.77 0.513336C108.573 0.279182 109.321 0.135088 110.014 0.0810536C110.653 0.0270179 111.328 0 112.04 0C112.879 0 113.609 0.0360237 114.229 0.108071C114.85 0.162107 115.543 0.288189 116.309 0.486319C117.185 0.738484 117.906 1.04468 118.472 1.40492C119.037 1.76516 119.512 2.26949 119.895 2.91791C120.296 3.58435 120.497 4.38587 120.497 5.32248V12.9955C120.497 13.9681 120.232 14.8057 119.703 15.5082C119.192 16.2106 118.481 16.742 117.568 17.1022C115.926 17.7506 114.083 18.0748 112.04 18.0748ZM112.094 15.0759C112.697 15.0759 113.198 15.0579 113.6 15.0218C114.019 14.9678 114.448 14.8777 114.886 14.7517C115.324 14.6256 115.652 14.4184 115.871 14.1303C116.109 13.824 116.227 13.4458 116.227 12.9955V5.29547C116.227 4.46693 115.89 3.88154 115.215 3.53932C114.539 3.17908 113.49 2.99896 112.067 2.99896C110.644 2.99896 109.595 3.17008 108.92 3.5123C108.244 3.85452 107.907 4.44891 107.907 5.29547V12.9955C107.907 13.4458 108.025 13.824 108.263 14.1303C108.5 14.4184 108.847 14.6256 109.303 14.7517C109.741 14.8777 110.16 14.9678 110.562 15.0218C110.981 15.0579 111.492 15.0759 112.094 15.0759Z" fill="black"/>
<path d="M137.536 18.0748C135.091 18.0748 132.928 17.8767 131.049 17.4804V14.2924C132.326 14.5805 133.376 14.7877 134.197 14.9138C135.018 15.0218 135.912 15.0759 136.879 15.0759C138.266 15.0759 139.224 14.9408 139.753 14.6706C140.282 14.3824 140.546 13.9321 140.546 13.3197V11.6176C140.546 11.0592 140.264 10.699 139.698 10.5369C139.151 10.3748 138.275 10.2937 137.07 10.2937H133.54V7.29478H137.07C137.873 7.29478 138.475 7.24074 138.877 7.13267C139.278 7.0246 139.552 6.8715 139.698 6.67337C139.844 6.45723 139.917 6.15103 139.917 5.75477V4.37687C139.917 3.8185 139.698 3.44926 139.26 3.26914C138.822 3.08902 138.028 2.99896 136.879 2.99896C135.364 2.99896 133.54 3.26013 131.405 3.78248V0.621407C133.631 0.207136 135.72 0 137.673 0C139.972 0 141.632 0.261171 142.654 0.783512C143.676 1.28784 144.187 2.17042 144.187 3.43125V6.24109C144.187 6.76343 144.004 7.22273 143.639 7.61899C143.274 7.99724 142.836 8.2494 142.325 8.37548V8.45654C143.986 8.92484 144.816 9.79842 144.816 11.0773V13.9141C144.816 15.301 144.196 16.3457 142.955 17.0482C141.732 17.7326 139.926 18.0748 137.536 18.0748Z" fill="black"/>
<path d="M155.964 0.270177H160.234V12.266L167.897 0.270177H172.167V17.8047H167.897V5.61968L160.234 17.8047H155.964V0.270177Z" fill="black"/>
<path d="M197.742 17.8047H184.221V0.270177H188.491V14.8327H194.677V0.270177H198.946V14.8057H201.574V21.8843H197.742V17.8047Z" fill="black"/>
<path d="M212.292 0.270177H216.561V12.266L224.225 0.270177H228.494V17.8047H224.225V5.61968L216.561 17.8047H212.292V0.270177Z" fill="black"/>
<path d="M243.833 10.9962C242.684 10.8521 241.826 10.4919 241.26 9.91549C240.695 9.33911 240.412 8.51957 240.412 7.45688V3.9716C240.412 2.63872 240.941 1.6931 241.999 1.13474C243.058 0.558361 244.773 0.270172 247.145 0.270172H255V17.8047H250.73V11.3204H248.212L244.052 17.8047H239.18L243.833 10.9962ZM250.73 8.53759V3.26914H247.2C246.251 3.26914 245.576 3.39522 245.174 3.64738C244.791 3.88154 244.599 4.32282 244.599 4.97125V6.61933C244.599 7.37582 244.782 7.88916 245.147 8.15934C245.512 8.4115 246.196 8.53759 247.2 8.53759H250.73Z" fill="black"/>
<path d="M0 31.7278H1.39585V35.8038H6.36049V31.7278H7.75634V41.1753H6.36049V36.7936H1.39585V41.1753H0V31.7278Z" fill="black"/>
<path d="M14.4914 31.7278H20.7656V32.7177H15.8873V35.8038H20.2907V36.7936H15.8873V40.1854H20.9095V41.1753H14.4914V31.7278Z" fill="black"/>
<path d="M32.2645 32.0627C34.9219 32.0627 36.2362 32.9652 36.2074 34.7702L36.1786 37.638C36.2074 38.492 35.8908 39.1325 35.2289 39.5595C34.5765 39.9865 33.5884 40.2 32.2645 40.2V41.4664H30.8687V40.2C28.2208 40.2 26.8969 39.346 26.8969 37.638V34.7702C26.8969 32.9652 28.2208 32.0627 30.8687 32.0627V31H32.2645V32.0627ZM28.2352 37.6234C28.2352 38.7103 29.113 39.2538 30.8687 39.2538V32.9797C30.0244 32.9797 29.3721 33.1108 28.9116 33.3728C28.4607 33.6348 28.2352 34.0861 28.2352 34.7266V37.6234ZM32.2645 39.2538C34.0201 39.2538 34.8979 38.7103 34.8979 37.6234L34.8835 34.7266C34.8931 34.0861 34.6677 33.6348 34.2072 33.3728C33.7563 33.1108 33.1087 32.9797 32.2645 32.9797V39.2538Z" fill="black"/>
<path d="M44.9898 32.7177H41.8239V31.7278H49.5515V32.7177H46.3856V41.1753H44.9898V32.7177Z" fill="black"/>
<path d="M55.4221 31.7278H56.818V35.2215H58.2138C58.9909 35.2215 59.6241 35.2652 60.1133 35.3525C60.6122 35.4302 61.0103 35.6097 61.3077 35.8911C61.6147 36.1726 61.7682 36.5899 61.7682 37.143V39.1228C61.7682 40.4911 60.6698 41.1753 58.4728 41.1753H55.4221V31.7278ZM58.3721 40.2145C59.0437 40.2145 59.5473 40.132 59.8831 39.9671C60.2285 39.8021 60.4011 39.5012 60.4011 39.0645V37.3031C60.4011 36.9926 60.3388 36.7597 60.2141 36.6044C60.0894 36.4491 59.8831 36.3424 59.5953 36.2842C59.3171 36.2162 58.9189 36.1823 58.4009 36.1823H56.8036V40.2145H58.3721Z" fill="black"/>
<path d="M92.3505 31.7278H98.0491V32.7177H93.7464V41.1753H92.3505V31.7278Z" fill="black"/>
<path d="M106.723 31.7278H108.335L111.961 41.1753H110.508L109.443 38.3076H105.442L104.392 41.1753H103.01L106.723 31.7278ZM109.097 37.3323L107.514 33.0671H107.385L105.802 37.3323H109.097Z" fill="black"/>
<path d="M120.284 41.3208C119.286 41.3208 118.283 41.2287 117.276 41.0443V39.9671C118.418 40.2097 119.372 40.331 120.14 40.331C120.859 40.331 121.406 40.2582 121.78 40.1126C122.154 39.9574 122.341 39.6662 122.341 39.2392V37.6525C122.341 37.0508 121.699 36.75 120.413 36.75H118.47V35.8475H120.168C121.464 35.8475 122.111 35.5369 122.111 34.9158V33.3291C122.111 32.8245 121.488 32.5721 120.24 32.5721C119.905 32.5721 119.343 32.5964 118.557 32.6449L117.463 32.7323V31.7424C118.71 31.6648 119.631 31.6259 120.226 31.6259C121.31 31.6259 122.111 31.7473 122.629 31.9899C123.157 32.2325 123.421 32.6401 123.421 33.2127V34.974C123.421 35.2749 123.301 35.5272 123.061 35.731C122.821 35.9251 122.514 36.0512 122.14 36.1095V36.1677C122.37 36.2065 122.557 36.2502 122.701 36.2987C122.855 36.3375 123.018 36.4006 123.19 36.488C123.526 36.6626 123.694 36.9683 123.694 37.405V39.2974C123.694 40.0544 123.392 40.5833 122.787 40.8841C122.183 41.1753 121.348 41.3208 120.284 41.3208Z" fill="black"/>
<path d="M76.1194 31.5823H77.0709V41.3209H76.1194V31.5823Z" fill="#FF6B00"/>
</svg>
