<svg width="237" height="54" viewBox="0 0 237 54" fill="none" xmlns="http://www.w3.org/2000/svg">
<path d="M70.0693 6.62649C69.9877 7.84976 69.7573 8.68207 69.378 9.12341V9.18097H73.6196V2.38101H70.343L70.0693 6.62649ZM68.2906 13.0307H66.3174V9.18097H67.0448C67.3904 8.94591 67.6401 8.60771 67.7937 8.16638C67.9281 7.77781 68.0194 7.20934 68.0674 6.46099L68.4274 0.596474H75.7944V9.18097H77.0906V13.0307H75.1247V10.9799H68.2906V13.0307Z" fill="white"/>
<path d="M85.2224 0.416581C86.7635 0.416581 87.9829 0.898695 88.8807 1.86292C89.7832 2.82715 90.2345 4.13677 90.2345 5.79179C90.2345 7.44201 89.7832 8.74923 88.8807 9.71346C87.9781 10.6777 86.7587 11.1598 85.2224 11.1598C83.6813 11.1598 82.4619 10.6777 81.5641 9.71346C80.6615 8.74923 80.2103 7.44201 80.2103 5.79179C80.2103 4.13677 80.6615 2.82715 81.5641 1.86292C82.4619 0.898695 83.6813 0.416581 85.2224 0.416581ZM85.2224 2.2299C84.3726 2.2299 83.6957 2.55131 83.1916 3.19413C82.6827 3.83695 82.4283 4.70283 82.4283 5.79179C82.4283 6.87594 82.6803 7.73943 83.1844 8.38225C83.6885 9.02027 84.3678 9.33928 85.2224 9.33928C86.0721 9.33928 86.7491 9.02027 87.2532 8.38225C87.7573 7.73943 88.0093 6.87594 88.0093 5.79179C88.0093 4.70283 87.7573 3.83695 87.2532 3.19413C86.7491 2.55131 86.0721 2.2299 85.2224 2.2299Z" fill="white"/>
<path d="M98.6327 11.2102C97.1204 11.2102 95.9226 10.7257 95.0393 9.75663C94.1559 8.78281 93.7142 7.4588 93.7142 5.78459C93.7142 4.11518 94.1583 2.79357 95.0465 1.81975C95.9298 0.850723 97.1252 0.366211 98.6327 0.366211C99.8473 0.366211 100.875 0.711606 101.715 1.4024C102.555 2.09798 103.045 2.99745 103.184 4.10079H101.045C100.906 3.52993 100.62 3.0718 100.188 2.72641C99.7465 2.38581 99.228 2.21551 98.6327 2.21551C97.8118 2.21551 97.1588 2.53452 96.674 3.17254C96.1843 3.81536 95.9394 4.68365 95.9394 5.7774C95.9394 6.88554 96.1819 7.75862 96.6668 8.39664C97.1516 9.03946 97.8094 9.36087 98.6399 9.36087C99.2496 9.36087 99.7681 9.20256 100.195 8.88595C100.618 8.57413 100.904 8.13999 101.052 7.58352H103.191C103.023 8.69646 102.531 9.57674 101.715 10.2244C100.894 10.8816 99.8665 11.2102 98.6327 11.2102Z" fill="white"/>
<path d="M109.054 10.9799V2.38821H106.016V0.596474H114.275V2.38821H111.229V10.9799H109.054Z" fill="white"/>
<path d="M119.39 11.0734C118.905 11.0734 118.605 11.0375 118.49 10.9655V9.19536C118.634 9.23854 118.845 9.26013 119.123 9.26013C119.776 9.26013 120.266 9.00828 120.592 8.50457L117.143 0.596474H119.447L121.73 6.36744H121.788L123.963 0.596474H126.253L123.07 8.00807C122.599 9.10182 122.105 9.87656 121.586 10.3323C121.02 10.8264 120.288 11.0734 119.39 11.0734Z" fill="white"/>
<path d="M136.473 10.9799V2.39541H131.9V10.9799H129.718V0.596474H138.64V10.9799H136.473Z" fill="white"/>
<path d="M149.667 10.9799V6.6049H144.986V10.9799H142.811V0.596474H144.986V4.81317H149.667V0.596474H151.842V10.9799H149.667Z" fill="white"/>
<path d="M160.773 0.416581C162.314 0.416581 163.534 0.898695 164.431 1.86292C165.334 2.82715 165.785 4.13677 165.785 5.79179C165.785 7.44201 165.334 8.74923 164.431 9.71346C163.529 10.6777 162.309 11.1598 160.773 11.1598C159.232 11.1598 158.013 10.6777 157.115 9.71346C156.212 8.74923 155.761 7.44201 155.761 5.79179C155.761 4.13677 156.212 2.82715 157.115 1.86292C158.013 0.898695 159.232 0.416581 160.773 0.416581ZM160.773 2.2299C159.923 2.2299 159.246 2.55131 158.742 3.19413C158.233 3.83695 157.979 4.70283 157.979 5.79179C157.979 6.87594 158.231 7.73943 158.735 8.38225C159.239 9.02027 159.918 9.33928 160.773 9.33928C161.623 9.33928 162.3 9.02027 162.804 8.38225C163.308 7.73943 163.56 6.87594 163.56 5.79179C163.56 4.70283 163.308 3.83695 162.804 3.19413C162.3 2.55131 161.623 2.2299 160.773 2.2299Z" fill="white"/>
<path d="M174.955 10.9799V0.596474H179.543C180.517 0.596474 181.29 0.829136 181.861 1.29446C182.433 1.75978 182.718 2.39061 182.718 3.18693C182.718 3.753 182.531 4.2495 182.157 4.67645C181.787 5.1034 181.324 5.35764 180.767 5.4392V5.49676C181.477 5.54953 182.063 5.80858 182.524 6.2739C182.985 6.74882 183.215 7.32687 183.215 8.00807C183.215 8.92432 182.894 9.64869 182.25 10.1812C181.607 10.7137 180.731 10.9799 179.622 10.9799H174.955ZM177.13 4.91391H178.758C179.339 4.91391 179.787 4.79158 180.104 4.54693C180.421 4.30707 180.58 3.96647 180.58 3.52513C180.58 3.10778 180.44 2.78397 180.162 2.55371C179.883 2.32825 179.49 2.21551 178.981 2.21551H177.13V4.91391ZM179.067 9.36087C180.354 9.36087 180.997 8.85237 180.997 7.83537C180.997 6.84236 180.337 6.34586 179.017 6.34586H177.13V9.36087H179.067Z" fill="white"/>
<path d="M118.822 29.2226C114.024 29.2226 110.104 32.7976 110.104 37.7301C110.104 42.6226 114.024 46.2351 118.822 46.2351C123.63 46.2351 127.55 42.6226 127.55 37.7301C127.55 32.7976 123.63 29.2226 118.822 29.2226ZM118.822 42.8851C116.189 42.8851 113.924 40.7576 113.924 37.7301C113.924 34.6626 116.189 32.5726 118.822 32.5726C121.455 32.5726 123.73 34.6626 123.73 37.7301C123.73 40.7576 121.455 42.8851 118.822 42.8851ZM99.8 29.2226C94.9916 29.2226 91.082 32.7976 91.082 37.7301C91.082 42.6226 94.9916 46.2351 99.8 46.2351C104.606 46.2351 108.518 42.6226 108.518 37.7301C108.518 32.7976 104.606 29.2226 99.8 29.2226ZM99.8 42.8851C97.1647 42.8851 94.892 40.7576 94.892 37.7301C94.892 34.6626 97.1647 32.5726 99.8 32.5726C102.433 32.5726 104.698 34.6626 104.698 37.7301C104.698 40.7576 102.433 42.8851 99.8 42.8851ZM77.1649 31.8301V35.4451H85.9825C85.7246 37.4651 85.0351 38.9501 83.9779 39.9851C82.6909 41.2351 80.6863 42.6226 77.1649 42.6226C71.7385 42.6226 67.4892 38.3351 67.4892 33.0226C67.4892 27.7101 71.7385 23.4226 77.1649 23.4226C80.099 23.4226 82.2338 24.5451 83.8094 26.0001L86.4115 23.4526C84.2077 21.3926 81.2762 19.8101 77.1649 19.8101C69.7237 19.8101 63.4699 25.7376 63.4699 33.0226C63.4699 40.3076 69.7237 46.2351 77.1649 46.2351C81.1868 46.2351 84.2077 44.9451 86.5826 42.5251C89.0162 40.1426 89.7746 36.7926 89.7746 34.0876C89.7746 33.2476 89.7031 32.4751 89.5754 31.8301H77.1649ZM169.723 34.6326C169.005 32.7301 166.791 29.2226 162.282 29.2226C157.813 29.2226 154.092 32.6701 154.092 37.7301C154.092 42.4951 157.775 46.2351 162.711 46.2351C166.702 46.2351 169.005 43.8526 169.953 42.4651L166.991 40.5326C166.002 41.9476 164.657 42.8851 162.711 42.8851C160.778 42.8851 159.391 42.0176 158.502 40.3076L170.124 35.6001L169.723 34.6326ZM157.874 37.4651C157.775 34.1851 160.476 32.5051 162.412 32.5051C163.929 32.5051 165.216 33.2476 165.645 34.3101L157.874 37.4651ZM148.428 45.7176H152.249V20.7176H148.428V45.7176ZM142.172 31.1176H142.044C141.186 30.1226 139.549 29.2226 137.476 29.2226C133.125 29.2226 129.146 32.9626 129.146 37.7576C129.146 42.5251 133.125 46.2351 137.476 46.2351C139.549 46.2351 141.186 45.3276 142.044 44.3026H142.172V45.5226C142.172 48.7751 140.397 50.5226 137.535 50.5226C135.201 50.5226 133.753 48.8726 133.155 47.4851L129.833 48.8426C130.791 51.0976 133.326 53.8726 137.535 53.8726C142.014 53.8726 145.793 51.2926 145.793 45.0151V29.7401H142.172V31.1176ZM137.803 42.8851C135.17 42.8851 132.966 40.7276 132.966 37.7576C132.966 34.7601 135.17 32.5726 137.803 32.5726C140.397 32.5726 142.443 34.7601 142.443 37.7576C142.443 40.7276 140.397 42.8851 137.803 42.8851ZM187.608 20.7176H178.472V45.7176H182.282V36.2451H187.608C191.84 36.2451 195.989 33.2476 195.989 28.4801C195.989 23.7151 191.829 20.7176 187.608 20.7176ZM187.708 32.7676H182.282V24.1951H187.708C190.553 24.1951 192.177 26.5076 192.177 28.4801C192.177 30.4151 190.553 32.7676 187.708 32.7676ZM211.26 29.1751C208.507 29.1751 205.644 30.3651 204.467 33.0026L207.848 34.3901C208.576 33.0026 209.914 32.5526 211.329 32.5526C213.305 32.5526 215.31 33.7151 215.341 35.7676V36.0301C214.651 35.6401 213.175 35.0626 211.359 35.0626C207.718 35.0626 204.008 37.0251 204.008 40.6876C204.008 44.0376 206.99 46.1951 210.343 46.1951C212.907 46.1951 214.322 45.0626 215.21 43.7451H215.341V45.6776H219.02V36.0876C219.02 31.6551 215.639 29.1751 211.26 29.1751ZM210.8 42.8751C209.554 42.8751 207.818 42.2701 207.818 40.7576C207.818 38.8226 209.983 38.0801 211.857 38.0801C213.535 38.0801 214.322 38.4426 215.341 38.9201C215.042 41.2351 213.007 42.8751 210.8 42.8751ZM232.427 29.7226L228.047 40.5601H227.917L223.389 29.7226H219.281L226.084 44.8676L222.202 53.2951H226.183L236.666 29.7226H232.427ZM198.083 45.7176H201.903V20.7176H198.083V45.7176Z" fill="white"/>
<path d="M0.947386 0.794409C0.347289 1.40941 0 2.36691 0 3.60691V47.8369C0 49.0769 0.347289 50.0344 0.947386 50.6494L1.0955 50.7844L26.4119 26.0094V25.4244L1.0955 0.649414L0.947386 0.794409Z" fill="url(#paint0_linear)"/>
<path d="M34.8413 34.2725L26.4118 26.01V25.425L34.8515 17.1625L35.0405 17.27L45.0353 22.8375C47.8877 24.4175 47.8877 27.0175 45.0353 28.6075L35.0405 34.165L34.8413 34.2725Z" fill="url(#paint1_linear)"/>
<path d="M35.0406 34.1647L26.412 25.7172L0.947388 50.6497C1.89478 51.6247 3.43971 51.7422 5.19659 50.7672L35.0406 34.1647Z" fill="url(#paint2_linear)"/>
<path d="M35.0406 17.2691L5.19659 0.666553C3.43971 -0.298447 1.89478 -0.18095 0.947388 0.794049L26.412 25.7166L35.0406 17.2691Z" fill="url(#paint3_linear)"/>
<defs>
<linearGradient id="paint0_linear" x1="24.1642" y1="48.2975" x2="-9.39309" y2="14.0207" gradientUnits="userSpaceOnUse">
<stop stop-color="#00A0FF"/>
<stop offset="0.0066" stop-color="#00A1FF"/>
<stop offset="0.2601" stop-color="#00BEFF"/>
<stop offset="0.5122" stop-color="#00D2FF"/>
<stop offset="0.7604" stop-color="#00DFFF"/>
<stop offset="1" stop-color="#00E3FF"/>
</linearGradient>
<linearGradient id="paint1_linear" x1="48.7496" y1="25.7147" x2="-0.681924" y2="25.7147" gradientUnits="userSpaceOnUse">
<stop stop-color="#FFE000"/>
<stop offset="0.4087" stop-color="#FFBD00"/>
<stop offset="0.7754" stop-color="#FFA500"/>
<stop offset="1" stop-color="#FF9C00"/>
</linearGradient>
<linearGradient id="paint2_linear" x1="30.3486" y1="21.125" x2="-15.1578" y2="-25.3571" gradientUnits="userSpaceOnUse">
<stop stop-color="#FF3A44"/>
<stop offset="1" stop-color="#C31162"/>
</linearGradient>
<linearGradient id="paint3_linear" x1="-5.46257" y1="65.3642" x2="14.8581" y2="44.608" gradientUnits="userSpaceOnUse">
<stop stop-color="#32A071"/>
<stop offset="0.0685" stop-color="#2DA771"/>
<stop offset="0.4762" stop-color="#15CF74"/>
<stop offset="0.8009" stop-color="#06E775"/>
<stop offset="1" stop-color="#00F076"/>
</linearGradient>
</defs>
</svg>
