<svg width="31" height="17" viewBox="0 0 31 17" fill="none" xmlns="http://www.w3.org/2000/svg">
<path fill-rule="evenodd" clip-rule="evenodd" d="M26.6799 10.8094C27.7082 11.7823 28.7936 12.6976 29.7159 13.7686C30.1233 14.2445 30.509 14.7356 30.8041 15.288C31.2222 16.0731 30.8435 16.9371 30.117 16.984L25.6008 16.982C24.436 17.0757 23.5068 16.6213 22.7255 15.8496C22.1002 15.2324 21.5212 14.5756 20.9199 13.9376C20.6734 13.6768 20.4154 13.4314 20.1072 13.2375C19.4907 12.8497 18.9556 12.9684 18.6033 13.5915C18.2444 14.2253 18.1631 14.927 18.1278 15.6333C18.0794 16.6638 17.758 16.9348 16.6898 16.9819C14.4068 17.0863 12.2402 16.7516 10.2275 15.6356C8.453 14.6517 7.07697 13.2628 5.87928 11.6905C3.54735 8.62871 1.76156 5.26434 0.156561 1.80571C-0.204712 1.02647 0.0594945 0.608187 0.946737 0.593382C2.42004 0.565647 3.89314 0.567621 5.36818 0.591408C5.96697 0.599896 6.36339 0.93271 6.59459 1.48089C7.3917 3.38016 8.36704 5.18715 9.59131 6.86208C9.91735 7.30801 10.2498 7.75393 10.7232 8.0678C11.2469 8.41532 11.6457 8.30014 11.8921 7.73479C12.0484 7.37631 12.1169 6.9902 12.1521 6.60625C12.2688 5.28536 12.2842 3.96673 12.0795 2.65048C11.9538 1.829 11.4763 1.29721 10.6304 1.14176C10.1988 1.0625 10.263 0.906852 10.472 0.668097C10.835 0.256323 11.1765 0 11.857 0H16.961C17.7645 0.153675 17.943 0.503466 18.053 1.28694L18.0573 6.78085C18.0486 7.08416 18.2137 7.9842 18.7774 8.18495C19.2287 8.32787 19.5261 7.97808 19.7968 7.70083C21.0188 6.44399 21.891 4.95866 22.6702 3.42063C23.016 2.74434 23.3133 2.04199 23.6014 1.34024C23.8149 0.819502 24.1499 0.563278 24.7552 0.574628L29.6675 0.578872C29.8131 0.578872 29.9605 0.580945 30.1016 0.604337C30.9293 0.741036 31.1562 1.08609 30.9005 1.86937C30.4977 3.09828 29.7139 4.12238 28.9476 5.15123C28.1284 6.24965 27.2522 7.31048 26.4399 8.41542C25.6935 9.42442 25.7528 9.93302 26.6799 10.8094Z" fill="#F2F2F2"/>
</svg>
