<svg width="114" height="27" viewBox="0 0 114 27" fill="none" xmlns="http://www.w3.org/2000/svg">
<path d="M33.9588 3.93213C33.92 4.51318 33.8106 4.90853 33.6304 5.11816V5.14551H35.6452V1.91553H34.0888L33.9588 3.93213ZM33.1139 6.97412H32.1766V5.14551H32.5221C32.6863 5.03385 32.8049 4.87321 32.8779 4.66357C32.9417 4.479 32.985 4.20898 33.0078 3.85352L33.1789 1.06787H36.6782V5.14551H37.2939V6.97412H36.3601V6H33.1139V6.97412Z" fill="white"/>
<path d="M41.1565 0.982422C41.8885 0.982422 42.4677 1.21143 42.8942 1.66943C43.3229 2.12744 43.5372 2.74951 43.5372 3.53564C43.5372 4.3195 43.3229 4.94043 42.8942 5.39844C42.4654 5.85645 41.8862 6.08545 41.1565 6.08545C40.4245 6.08545 39.8452 5.85645 39.4188 5.39844C38.9901 4.94043 38.7757 4.3195 38.7757 3.53564C38.7757 2.74951 38.9901 2.12744 39.4188 1.66943C39.8452 1.21143 40.4245 0.982422 41.1565 0.982422ZM41.1565 1.84375C40.7529 1.84375 40.4313 1.99642 40.1919 2.30176C39.9501 2.6071 39.8293 3.01839 39.8293 3.53564C39.8293 4.05062 39.949 4.46077 40.1884 4.76611C40.4279 5.06917 40.7506 5.2207 41.1565 5.2207C41.5601 5.2207 41.8817 5.06917 42.1211 4.76611C42.3605 4.46077 42.4803 4.05062 42.4803 3.53564C42.4803 3.01839 42.3605 2.6071 42.1211 2.30176C41.8817 1.99642 41.5601 1.84375 41.1565 1.84375Z" fill="white"/>
<path d="M47.5264 6.10938C46.8081 6.10938 46.2391 5.87923 45.8195 5.41895C45.3999 4.95638 45.1901 4.32747 45.1901 3.53223C45.1901 2.73926 45.401 2.11149 45.8229 1.64893C46.2425 1.18864 46.8103 0.958496 47.5264 0.958496C48.1033 0.958496 48.5913 1.12256 48.9904 1.45068C49.3895 1.78109 49.6221 2.20833 49.6882 2.73242H48.6723C48.6062 2.46126 48.4705 2.24365 48.2652 2.07959C48.0554 1.91781 47.8092 1.83691 47.5264 1.83691C47.1364 1.83691 46.8263 1.98844 46.596 2.2915C46.3634 2.59684 46.2471 3.00928 46.2471 3.52881C46.2471 4.05518 46.3622 4.46989 46.5926 4.77295C46.8229 5.07829 47.1353 5.23096 47.5298 5.23096C47.8194 5.23096 48.0657 5.15576 48.2687 5.00537C48.4693 4.85726 48.605 4.65104 48.6757 4.38672H49.6917C49.6118 4.91536 49.3781 5.3335 48.9904 5.64111C48.6005 5.95329 48.1125 6.10938 47.5264 6.10938Z" fill="white"/>
<path d="M52.4767 6V1.91895H51.0332V1.06787H54.9567V1.91895H53.5098V6H52.4767Z" fill="white"/>
<path d="M57.386 6.04443C57.1557 6.04443 57.0132 6.02734 56.9584 5.99316V5.15234C57.0269 5.17285 57.1272 5.18311 57.2595 5.18311C57.5696 5.18311 57.8022 5.06348 57.9573 4.82422L56.3188 1.06787H57.4134L58.4977 3.80908H58.5251L59.5581 1.06787H60.6459L59.134 4.58838C58.9105 5.10791 58.6756 5.47591 58.4293 5.69238C58.1602 5.92708 57.8125 6.04443 57.386 6.04443Z" fill="white"/>
<path d="M65.5005 6V1.92236H63.3284V6H62.2919V1.06787H66.5301V6H65.5005Z" fill="white"/>
<path d="M71.7677 6V3.92188H69.5443V6H68.5113V1.06787H69.5443V3.0708H71.7677V1.06787H72.8008V6H71.7677Z" fill="white"/>
<path d="M77.043 0.982422C77.7751 0.982422 78.3543 1.21143 78.7807 1.66943C79.2094 2.12744 79.4238 2.74951 79.4238 3.53564C79.4238 4.3195 79.2094 4.94043 78.7807 5.39844C78.352 5.85645 77.7728 6.08545 77.043 6.08545C76.311 6.08545 75.7318 5.85645 75.3054 5.39844C74.8766 4.94043 74.6623 4.3195 74.6623 3.53564C74.6623 2.74951 74.8766 2.12744 75.3054 1.66943C75.7318 1.21143 76.311 0.982422 77.043 0.982422ZM77.043 1.84375C76.6394 1.84375 76.3179 1.99642 76.0784 2.30176C75.8367 2.6071 75.7158 3.01839 75.7158 3.53564C75.7158 4.05062 75.8356 4.46077 76.075 4.76611C76.3144 5.06917 76.6371 5.2207 77.043 5.2207C77.4467 5.2207 77.7682 5.06917 78.0077 4.76611C78.2471 4.46077 78.3668 4.05062 78.3668 3.53564C78.3668 3.01839 78.2471 2.6071 78.0077 2.30176C77.7682 1.99642 77.4467 1.84375 77.043 1.84375Z" fill="white"/>
<path d="M83.7796 6V1.06787H85.9586C86.4215 1.06787 86.7887 1.17839 87.06 1.39941C87.3314 1.62044 87.4671 1.92008 87.4671 2.29834C87.4671 2.56722 87.3781 2.80306 87.2003 3.00586C87.0247 3.20866 86.8046 3.32943 86.5401 3.36816V3.39551C86.8776 3.42057 87.1558 3.54362 87.3747 3.76465C87.5936 3.99023 87.7031 4.26481 87.7031 4.58838C87.7031 5.0236 87.5503 5.36768 87.2447 5.62061C86.9392 5.87354 86.523 6 85.9962 6H83.7796ZM84.8127 3.11865H85.5857C85.8617 3.11865 86.0749 3.06055 86.2254 2.94434C86.3759 2.8304 86.4512 2.66862 86.4512 2.45898C86.4512 2.26074 86.385 2.10693 86.2528 1.99756C86.1205 1.89046 85.9335 1.83691 85.6918 1.83691H84.8127V3.11865ZM85.7328 5.23096C86.344 5.23096 86.6496 4.98942 86.6496 4.50635C86.6496 4.03467 86.336 3.79883 85.7089 3.79883H84.8127V5.23096H85.7328Z" fill="white"/>
<path d="M57.1162 14.6653C54.837 14.6653 52.9751 16.3634 52.9751 18.7063C52.9751 21.0303 54.837 22.7462 57.1162 22.7462C59.4002 22.7462 61.2621 21.0303 61.2621 18.7063C61.2621 16.3634 59.4002 14.6653 57.1162 14.6653ZM57.1162 21.155C55.8656 21.155 54.7897 20.1444 54.7897 18.7063C54.7897 17.2493 55.8656 16.2565 57.1162 16.2565C58.3667 16.2565 59.4475 17.2493 59.4475 18.7063C59.4475 20.1444 58.3667 21.155 57.1162 21.155ZM48.0808 14.6653C45.7968 14.6653 43.9397 16.3634 43.9397 18.7063C43.9397 21.0303 45.7968 22.7462 48.0808 22.7462C50.3636 22.7462 52.2219 21.0303 52.2219 18.7063C52.2219 16.3634 50.3636 14.6653 48.0808 14.6653ZM48.0808 21.155C46.829 21.155 45.7495 20.1444 45.7495 18.7063C45.7495 17.2493 46.829 16.2565 48.0808 16.2565C49.3314 16.2565 50.4073 17.2493 50.4073 18.7063C50.4073 20.1444 49.3314 21.155 48.0808 21.155ZM37.3291 15.9038V17.621H41.5175C41.3949 18.5805 41.0674 19.2858 40.5653 19.7775C39.9539 20.3712 39.0018 21.0303 37.3291 21.0303C34.7515 21.0303 32.7332 18.9937 32.7332 16.4703C32.7332 13.9468 34.7515 11.9103 37.3291 11.9103C38.7228 11.9103 39.7368 12.4435 40.4852 13.1346L41.7212 11.9245C40.6744 10.946 39.282 10.1943 37.3291 10.1943C33.7945 10.1943 30.824 13.0099 30.824 16.4703C30.824 19.9306 33.7945 22.7462 37.3291 22.7462C39.2395 22.7462 40.6744 22.1335 41.8025 20.984C42.9585 19.8523 43.3187 18.261 43.3187 16.9761C43.3187 16.5771 43.2847 16.2102 43.2241 15.9038H37.3291ZM81.2942 17.235C80.9533 16.3313 79.9017 14.6653 77.7596 14.6653C75.6369 14.6653 73.8696 16.3028 73.8696 18.7063C73.8696 20.9697 75.6187 22.7462 77.9633 22.7462C79.8592 22.7462 80.9533 21.6145 81.4033 20.9555L79.9963 20.0375C79.5269 20.7096 78.8876 21.155 77.9633 21.155C77.0451 21.155 76.3865 20.7429 75.9644 19.9306L81.4846 17.6946L81.2942 17.235ZM75.666 18.5805C75.6187 17.0225 76.902 16.2245 77.8214 16.2245C78.5419 16.2245 79.1533 16.5771 79.357 17.0818L75.666 18.5805ZM71.1792 22.5004H72.9938V10.6254H71.1792V22.5004ZM68.2075 15.5654H68.1468C67.7393 15.0928 66.9618 14.6653 65.9769 14.6653C63.91 14.6653 62.0202 16.4418 62.0202 18.7194C62.0202 20.984 63.91 22.7462 65.9769 22.7462C66.9618 22.7462 67.7393 22.3151 68.1468 21.8283H68.2075V22.4078C68.2075 23.9527 67.3645 24.7828 66.0047 24.7828C64.8961 24.7828 64.2084 23.999 63.9245 23.34L62.3465 23.9848C62.8013 25.0559 64.0058 26.374 66.0047 26.374C68.1323 26.374 69.9275 25.1485 69.9275 22.1667V14.9111H68.2075V15.5654ZM66.1321 21.155C64.8815 21.155 63.8348 20.1301 63.8348 18.7194C63.8348 17.2956 64.8815 16.2565 66.1321 16.2565C67.3645 16.2565 68.3361 17.2956 68.3361 18.7194C68.3361 20.1301 67.3645 21.155 66.1321 21.155ZM89.7897 10.6254H85.4498V22.5004H87.2595V18.001H89.7897C91.7996 18.001 93.7707 16.5771 93.7707 14.3126C93.7707 12.0492 91.7948 10.6254 89.7897 10.6254ZM89.837 16.3491H87.2595V12.2772H89.837C91.1883 12.2772 91.9597 13.3756 91.9597 14.3126C91.9597 15.2317 91.1883 16.3491 89.837 16.3491ZM101.024 14.6427C99.7166 14.6427 98.3569 15.208 97.7977 16.4608L99.4037 17.1198C99.7494 16.4608 100.385 16.247 101.057 16.247C101.996 16.247 102.948 16.7992 102.963 17.7741V17.8988C102.635 17.7136 101.934 17.4393 101.072 17.4393C99.3418 17.4393 97.5794 18.3715 97.5794 20.1111C97.5794 21.7024 98.9961 22.7272 100.589 22.7272C101.807 22.7272 102.479 22.1893 102.901 21.5635H102.963V22.4814H104.71V17.9261C104.71 15.8207 103.104 14.6427 101.024 14.6427ZM100.806 21.1502C100.214 21.1502 99.3891 20.8628 99.3891 20.1444C99.3891 19.2253 100.418 18.8726 101.308 18.8726C102.105 18.8726 102.479 19.0448 102.963 19.2716C102.821 20.3712 101.854 21.1502 100.806 21.1502ZM111.078 14.9028L108.998 20.0506H108.936L106.786 14.9028H104.834L108.065 22.0966L106.222 26.0997H108.113L113.092 14.9028H111.078ZM94.7653 22.5004H96.5799V10.6254H94.7653V22.5004Z" fill="white"/>
<path d="M1.12579 1.16197C0.840743 1.4541 0.675781 1.90891 0.675781 2.49791V23.5072C0.675781 24.0962 0.840743 24.551 1.12579 24.8431L1.19614 24.9072L13.2215 13.1391V12.8612L1.19614 1.0931L1.12579 1.16197Z" fill="url(#paint0_linear)"/>
<path d="M17.2254 17.064L13.2214 13.1393V12.8614L17.2303 8.93671L17.32 8.98778L22.0676 11.6323C23.4225 12.3828 23.4225 13.6178 22.0676 14.3731L17.32 17.0129L17.2254 17.064Z" fill="url(#paint1_linear)"/>
<path d="M17.3201 17.0128L13.2215 13.0003L1.12585 24.8432C1.57586 25.3063 2.30971 25.3622 3.14422 24.899L17.3201 17.0128Z" fill="url(#paint2_linear)"/>
<path d="M17.3201 8.98744L3.14422 1.10125C2.30971 0.642875 1.57586 0.698686 1.12585 1.16181L13.2215 13L17.3201 8.98744Z" fill="url(#paint3_linear)"/>
<defs>
<linearGradient id="paint0_linear" x1="12.1538" y1="23.7259" x2="-3.78594" y2="7.44447" gradientUnits="userSpaceOnUse">
<stop stop-color="#00A0FF"/>
<stop offset="0.0066" stop-color="#00A1FF"/>
<stop offset="0.2601" stop-color="#00BEFF"/>
<stop offset="0.5122" stop-color="#00D2FF"/>
<stop offset="0.7604" stop-color="#00DFFF"/>
<stop offset="1" stop-color="#00E3FF"/>
</linearGradient>
<linearGradient id="paint1_linear" x1="23.8319" y1="12.999" x2="0.3519" y2="12.999" gradientUnits="userSpaceOnUse">
<stop stop-color="#FFE000"/>
<stop offset="0.4087" stop-color="#FFBD00"/>
<stop offset="0.7754" stop-color="#FFA500"/>
<stop offset="1" stop-color="#FF9C00"/>
</linearGradient>
<linearGradient id="paint2_linear" x1="15.0914" y1="10.819" x2="-6.5241" y2="-11.26" gradientUnits="userSpaceOnUse">
<stop stop-color="#FF3A44"/>
<stop offset="1" stop-color="#C31162"/>
</linearGradient>
<linearGradient id="paint3_linear" x1="-1.91888" y1="31.8326" x2="7.73342" y2="21.9734" gradientUnits="userSpaceOnUse">
<stop stop-color="#32A071"/>
<stop offset="0.0685" stop-color="#2DA771"/>
<stop offset="0.4762" stop-color="#15CF74"/>
<stop offset="0.8009" stop-color="#06E775"/>
<stop offset="1" stop-color="#00F076"/>
</linearGradient>
</defs>
</svg>
