<svg width="111" height="30" viewBox="0 0 111 30" fill="none" xmlns="http://www.w3.org/2000/svg">
<path d="M31.9525 4.038H32.6053C32.8514 4.038 33.052 3.97561 33.2069 3.85084C33.3596 3.72606 33.4359 3.56272 33.4359 3.36081C33.4359 3.1589 33.363 3.00009 33.2172 2.88439C33.0713 2.76869 32.8719 2.71084 32.619 2.71084C32.3638 2.71084 32.1576 2.77436 32.0004 2.9014C31.8431 3.02845 31.7577 3.19973 31.744 3.41525H30.7904C30.8064 2.95245 30.9818 2.58606 31.3168 2.31609C31.6495 2.04612 32.0927 1.91113 32.6464 1.91113C33.175 1.91113 33.6023 2.03364 33.9281 2.27866C34.2562 2.52594 34.4203 2.84696 34.4203 3.2417C34.4203 3.51848 34.3348 3.76009 34.1639 3.96654C33.993 4.17299 33.7686 4.3057 33.4906 4.36469V4.39191C33.8233 4.42821 34.0876 4.55526 34.2836 4.77305C34.4795 4.98857 34.5775 5.26081 34.5775 5.58977C34.5775 6.02081 34.3941 6.37586 34.0272 6.6549C33.6581 6.93395 33.1898 7.07347 32.6224 7.07347C32.0573 7.07347 31.5982 6.93508 31.245 6.65831C30.8918 6.37926 30.7038 6.0106 30.681 5.55233H31.6688C31.6848 5.76332 31.7793 5.9312 31.9525 6.05598C32.1257 6.18075 32.3524 6.24314 32.6327 6.24314C32.897 6.24314 33.1112 6.17621 33.2753 6.04236C33.4371 5.91078 33.5179 5.73723 33.5179 5.52171C33.5179 5.30845 33.4382 5.14057 33.2787 5.01806C33.1192 4.89782 32.8982 4.83771 32.6156 4.83771H31.9525V4.038Z" fill="white"/>
<path d="M39.1207 5.75651H37.3878L37.0118 6.94756H35.9522L37.6646 2.03704H38.878L40.5938 6.94756H39.4967L39.1207 5.75651ZM37.6099 4.98744H38.8985L38.2662 2.97627H38.2423L37.6099 4.98744Z" fill="white"/>
<path d="M42.2556 6.94756V2.03704H45.4344V2.88779H43.2913V6.94756H42.2556Z" fill="white"/>
<path d="M49.2016 2.03704C49.7098 2.03704 50.1211 2.19131 50.4355 2.49985C50.7523 2.80839 50.9106 3.21448 50.9106 3.71812C50.9106 4.2195 50.7477 4.62559 50.4219 4.93639C50.096 5.24493 49.6722 5.3992 49.1504 5.3992H48.1762V6.94756H47.144V2.03704H49.2016ZM48.1762 4.59609H48.9248C49.221 4.59609 49.4511 4.52009 49.6152 4.36809C49.7793 4.21609 49.8613 4.00057 49.8613 3.72152C49.8613 3.44248 49.7793 3.22696 49.6152 3.07496C49.4534 2.92522 49.2244 2.85036 48.9282 2.85036H48.1762V4.59609Z" fill="white"/>
<path d="M53.321 6.9918C53.0908 6.9918 52.9484 6.97478 52.8937 6.94075V6.10362C52.9621 6.12404 53.0623 6.13424 53.1945 6.13424C53.5044 6.13424 53.7368 6.01514 53.8918 5.77693L52.2546 2.03704H53.3483L54.4318 4.76624H54.4592L55.4914 2.03704H56.5783L55.0676 5.54212C54.8442 6.05938 54.6095 6.42577 54.3635 6.64129C54.0946 6.87496 53.7471 6.9918 53.321 6.9918Z" fill="white"/>
<path d="M59.1595 4.038H59.8124C60.0585 4.038 60.259 3.97561 60.4139 3.85084C60.5666 3.72606 60.6429 3.56272 60.6429 3.36081C60.6429 3.1589 60.57 3.00009 60.4242 2.88439C60.2784 2.76869 60.079 2.71084 59.826 2.71084C59.5708 2.71084 59.3646 2.77436 59.2074 2.9014C59.0502 3.02845 58.9647 3.19973 58.951 3.41525H57.9974C58.0134 2.95245 58.1888 2.58606 58.5238 2.31609C58.8565 2.04612 59.2997 1.91113 59.8534 1.91113C60.382 1.91113 60.8093 2.03364 61.1351 2.27866C61.4633 2.52594 61.6273 2.84696 61.6273 3.2417C61.6273 3.51848 61.5419 3.76009 61.371 3.96654C61.2001 4.17299 60.9756 4.3057 60.6976 4.36469V4.39191C61.0303 4.42821 61.2946 4.55526 61.4906 4.77305C61.6866 4.98857 61.7845 5.26081 61.7845 5.58977C61.7845 6.02081 61.6011 6.37586 61.2343 6.6549C60.8651 6.93395 60.3969 7.07347 59.8295 7.07347C59.2644 7.07347 58.8052 6.93508 58.452 6.65831C58.0988 6.37926 57.9108 6.0106 57.8881 5.55233H58.8759C58.8918 5.76332 58.9864 5.9312 59.1595 6.05598C59.3327 6.18075 59.5594 6.24314 59.8397 6.24314C60.104 6.24314 60.3182 6.17621 60.4823 6.04236C60.6441 5.91078 60.725 5.73723 60.725 5.52171C60.725 5.30845 60.6452 5.14057 60.4857 5.01806C60.3262 4.89782 60.1052 4.83771 59.8226 4.83771H59.1595V4.038Z" fill="white"/>
<path d="M66.8404 3.62624H66.7994L64.5606 6.94756H63.566V2.03704H64.5948V5.36177H64.6358L66.8746 2.03704H67.8692V6.94756H66.8404V3.62624Z" fill="white"/>
<path d="M71.0452 6.94756V2.88439H69.6028V2.03704H73.5232V2.88439H72.0774V6.94756H71.0452Z" fill="white"/>
<path d="M75.3047 2.03704H76.3369V3.68409H77.2939C77.8157 3.68409 78.2396 3.83382 78.5654 4.13329C78.8913 4.43502 79.0542 4.82863 79.0542 5.31412C79.0542 5.80189 78.8958 6.19663 78.5791 6.49836C78.2646 6.79783 77.8533 6.94756 77.3452 6.94756H75.3047V2.03704ZM77.0718 6.12744C77.368 6.12744 77.5958 6.05824 77.7553 5.91986C77.9171 5.7792 77.998 5.57729 77.998 5.31412C77.998 5.05096 77.9171 4.84791 77.7553 4.70499C77.5936 4.56433 77.3646 4.494 77.0683 4.494H76.3369V6.12744H77.0718Z" fill="white"/>
<path d="M83.3348 6.94756V2.03704H85.5121C85.9747 2.03704 86.3415 2.14707 86.6127 2.36713C86.8838 2.58719 87.0194 2.88552 87.0194 3.26212C87.0194 3.52982 86.9305 3.76463 86.7528 3.96654C86.5774 4.16845 86.3575 4.28869 86.0931 4.32726V4.35448C86.4304 4.37944 86.7084 4.50194 86.9271 4.722C87.1459 4.9466 87.2552 5.21997 87.2552 5.54212C87.2552 5.97544 87.1026 6.31801 86.7972 6.56983C86.4919 6.82165 86.076 6.94756 85.5497 6.94756H83.3348ZM84.3671 4.07884H85.1395C85.4152 4.07884 85.6283 4.02099 85.7787 3.90529C85.9291 3.79185 86.0043 3.63078 86.0043 3.42206C86.0043 3.22469 85.9382 3.07155 85.806 2.96266C85.6739 2.85603 85.487 2.80272 85.2455 2.80272H84.3671V4.07884ZM85.2865 6.18189C85.8972 6.18189 86.2025 5.94141 86.2025 5.46045C86.2025 4.99084 85.8892 4.75603 85.2626 4.75603H84.3671V6.18189H85.2865Z" fill="white"/>
<path d="M18.2068 13.7917C18.1779 10.5862 20.843 9.02677 20.9649 8.95417C19.4555 6.76316 17.116 6.4638 16.2939 6.43993C14.329 6.23406 12.423 7.61053 11.4221 7.61053C10.4012 7.61053 8.85981 6.45982 7.19858 6.49364C5.06086 6.52646 3.061 7.75872 1.96417 9.67224C-0.299414 13.5739 1.38878 19.3075 3.55747 22.4612C4.64231 24.0058 5.90996 25.7303 7.56918 25.6697C9.19245 25.603 9.79881 24.6393 11.7577 24.6393C13.6986 24.6393 14.268 25.6697 15.9602 25.6309C17.7024 25.603 18.7992 24.0794 19.8461 22.5209C21.0997 20.7506 21.6032 19.0071 21.6232 18.9176C21.5822 18.9037 18.2398 17.6337 18.2068 13.7917Z" fill="white"/>
<path d="M15.0103 4.36508C15.8833 3.27803 16.4807 1.79912 16.3149 0.29834C15.0512 0.354035 13.4709 1.16858 12.5609 2.23176C11.7557 3.16863 11.0365 4.70422 11.2223 6.14832C12.6418 6.25374 14.0992 5.43522 15.0103 4.36508Z" fill="white"/>
<path d="M41.6987 25.4484H39.4301L38.1875 21.5607H33.8681L32.6843 25.4484H30.4757L34.7551 12.2129H37.3983L41.6987 25.4484ZM37.8129 19.9297L36.6891 16.4736C36.5702 16.1205 36.3474 15.2891 36.0188 13.9802H35.9788C35.848 14.5431 35.6372 15.3746 35.3475 16.4736L34.2437 19.9297H37.8129Z" fill="white"/>
<path d="M52.704 20.5575C52.704 22.1806 52.2635 23.4636 51.3824 24.4054C50.5932 25.2438 49.6133 25.6625 48.4435 25.6625C47.1809 25.6625 46.2738 25.211 45.7214 24.308H45.6815V29.3354H43.5518V19.0448C43.5518 18.0243 43.5248 16.9771 43.4728 15.903H45.3458L45.4647 17.4157H45.5047C46.2149 16.2759 47.2928 15.707 48.7392 15.707C49.87 15.707 50.814 16.1516 51.5692 17.0417C52.3264 17.9328 52.704 19.1044 52.704 20.5575ZM50.5343 20.6351C50.5343 19.7061 50.3245 18.9403 49.903 18.3376C49.4425 17.7091 48.8241 17.3948 48.049 17.3948C47.5235 17.3948 47.046 17.5698 46.6195 17.9149C46.1919 18.263 45.9122 18.7176 45.7814 19.2805C45.7154 19.543 45.6825 19.7579 45.6825 19.9269V21.5182C45.6825 22.2124 45.8963 22.7982 46.3238 23.2766C46.7513 23.755 47.3067 23.9937 47.99 23.9937C48.7922 23.9937 49.4165 23.6854 49.863 23.0707C50.3105 22.4551 50.5343 21.6435 50.5343 20.6351Z" fill="white"/>
<path d="M63.7292 20.5575C63.7292 22.1806 63.2886 23.4636 62.4066 24.4054C61.6184 25.2438 60.6385 25.6625 59.4687 25.6625C58.2061 25.6625 57.299 25.211 56.7476 24.308H56.7077V29.3354H54.5779V19.0448C54.5779 18.0243 54.551 16.9771 54.499 15.903H56.372L56.4909 17.4157H56.5309C57.2401 16.2759 58.3179 15.707 59.7654 15.707C60.8952 15.707 61.8392 16.1516 62.5964 17.0417C63.3506 17.9328 63.7292 19.1044 63.7292 20.5575ZM61.5595 20.6351C61.5595 19.7061 61.3487 18.9403 60.9272 18.3376C60.4666 17.7091 59.8503 17.3948 59.0741 17.3948C58.5477 17.3948 58.0712 17.5698 57.6437 17.9149C57.2161 18.263 56.9374 18.7176 56.8066 19.2805C56.7416 19.543 56.7077 19.7579 56.7077 19.9269V21.5182C56.7077 22.2124 56.9214 22.7982 57.347 23.2766C57.7745 23.754 58.3299 23.9937 59.0152 23.9937C59.8173 23.9937 60.4417 23.6854 60.8882 23.0707C61.3357 22.4551 61.5595 21.6435 61.5595 20.6351Z" fill="white"/>
<path d="M76.056 21.7354C76.056 22.8612 75.6635 23.7772 74.8753 24.4843C74.0092 25.2571 72.8035 25.643 71.2542 25.643C69.8237 25.643 68.6769 25.3685 67.8088 24.8185L68.3023 23.0512C69.2373 23.6141 70.2632 23.8966 71.381 23.8966C72.1832 23.8966 72.8075 23.7155 73.256 23.3555C73.7025 22.9955 73.9253 22.5121 73.9253 21.9094C73.9253 21.3724 73.7415 20.9199 73.3729 20.5529C73.0063 20.1859 72.3939 19.8447 71.5389 19.5295C69.2113 18.6652 68.0486 17.3991 68.0486 15.7342C68.0486 14.6462 68.4562 13.7541 69.2723 13.0599C70.0854 12.3647 71.1702 12.0176 72.5268 12.0176C73.7365 12.0176 74.7414 12.2274 75.5436 12.6461L75.0111 14.3747C74.2619 13.9689 73.4149 13.766 72.4669 13.766C71.7177 13.766 71.1323 13.95 70.7127 14.316C70.3581 14.6432 70.1803 15.042 70.1803 15.5144C70.1803 16.0376 70.3831 16.4702 70.7907 16.8103C71.1453 17.1246 71.7896 17.4648 72.7246 17.8318C73.8684 18.2902 74.7085 18.8263 75.2489 19.4409C75.7873 20.0536 76.056 20.8204 76.056 21.7354Z" fill="white"/>
<path d="M83.0975 17.4947H80.75V22.1283C80.75 23.3068 81.1636 23.8956 81.9927 23.8956C82.3733 23.8956 82.689 23.8628 82.9387 23.7972L82.9976 25.4074C82.5781 25.5635 82.0257 25.6421 81.3414 25.6421C80.5003 25.6421 79.843 25.3865 79.3685 24.8763C78.896 24.3651 78.6583 23.5078 78.6583 22.3033V17.4927H77.2598V15.9014H78.6583V14.154L80.75 13.5254V15.9014H83.0975V17.4947Z" fill="white"/>
<path d="M93.6892 20.5963C93.6892 22.0632 93.2677 23.2676 92.4266 24.2095C91.5445 25.1792 90.3738 25.6625 88.9143 25.6625C87.5078 25.6625 86.388 25.1981 85.5529 24.2691C84.7178 23.3402 84.3002 22.1676 84.3002 20.7544C84.3002 19.2755 84.7298 18.0641 85.5919 17.1223C86.4519 16.1794 87.6127 15.708 89.0721 15.708C90.4786 15.708 91.6104 16.1725 92.4645 17.1024C93.2816 18.0044 93.6892 19.1691 93.6892 20.5963ZM91.4796 20.6649C91.4796 19.7847 91.2908 19.0298 90.9082 18.4003C90.4617 17.6384 89.8233 17.2585 88.9962 17.2585C88.1401 17.2585 87.4898 17.6394 87.0433 18.4003C86.6607 19.0308 86.4719 19.7976 86.4719 20.7047C86.4719 21.5848 86.6607 22.3397 87.0433 22.9683C87.5038 23.7301 88.1471 24.11 88.9772 24.11C89.7904 24.11 90.4287 23.7221 90.8892 22.9484C91.2818 22.3069 91.4796 21.5441 91.4796 20.6649Z" fill="white"/>
<path d="M100.612 17.7678C100.401 17.729 100.176 17.7091 99.9405 17.7091C99.1913 17.7091 98.6119 17.9905 98.2044 18.5544C97.8497 19.0517 97.6719 19.6803 97.6719 20.4391V25.4467H95.5432L95.5632 18.9085C95.5632 17.8085 95.5362 16.807 95.4833 15.904H97.3383L97.4162 17.73H97.4752C97.6999 17.1024 98.0545 16.5972 98.54 16.2182C99.0145 15.8771 99.527 15.707 100.079 15.707C100.276 15.707 100.454 15.721 100.612 15.7458V17.7678Z" fill="white"/>
<path d="M110.137 20.2236C110.137 20.6036 110.112 20.9238 110.059 21.1854H103.669C103.694 22.1282 104.003 22.8493 104.596 23.3465C105.135 23.7911 105.831 24.0139 106.686 24.0139C107.632 24.0139 108.495 23.8637 109.272 23.5624L109.605 25.0343C108.698 25.4281 107.627 25.6241 106.392 25.6241C104.905 25.6241 103.738 25.1885 102.889 24.3182C102.042 23.448 101.618 22.2794 101.618 20.8134C101.618 19.3743 102.012 18.1758 102.802 17.2201C103.63 16.1997 104.747 15.6895 106.154 15.6895C107.535 15.6895 108.581 16.1997 109.291 17.2201C109.854 18.0306 110.137 19.0332 110.137 20.2236ZM108.106 19.6736C108.12 19.0451 107.981 18.5021 107.692 18.0436C107.324 17.4538 106.757 17.1594 105.995 17.1594C105.299 17.1594 104.732 17.4468 104.3 18.0237C103.945 18.4822 103.734 19.0322 103.669 19.6726H108.106V19.6736Z" fill="white"/>
</svg>
