<svg width="15" height="14" viewBox="0 0 15 14" fill="none" xmlns="http://www.w3.org/2000/svg">
<path d="M12.9418 0.121338H2.69658C1.6529 0.121338 0.806763 0.948474 0.806763 1.96883V11.9845C0.806763 13.0049 1.65285 13.832 2.69658 13.832H7.74937L7.75813 8.93273H6.45598C6.28676 8.93273 6.14941 8.79893 6.14884 8.6335L6.14248 7.05413C6.14181 6.88791 6.27968 6.75266 6.44971 6.75266H7.74956V5.22666C7.74956 3.4558 8.85589 2.49154 10.4718 2.49154H11.7979C11.9674 2.49154 12.1051 2.626 12.1051 2.7919V4.1235C12.1051 4.2894 11.9676 4.42385 11.7981 4.42385L10.9842 4.42432C10.1054 4.42432 9.93518 4.83251 9.93518 5.43172V6.75284H11.8662C12.0503 6.75284 12.1931 6.90994 12.1713 7.08842L11.9798 8.6678C11.9616 8.819 11.8304 8.93283 11.6747 8.93283H9.94389L9.93513 13.8323H12.9417C13.9854 13.8323 14.8315 13.0051 14.8315 11.9848V1.96883C14.8316 0.948521 13.9854 0.121338 12.9418 0.121338Z" fill="white"/>
<path d="M7.74938 13.8317L7.75813 8.93237H7.73669V13.8317H7.74938Z" fill="white"/>
</svg>
