<svg width="15" height="10" viewBox="0 0 15 10" fill="none" xmlns="http://www.w3.org/2000/svg">
<path d="M5.83552 5.92868H8.02679C7.64217 6.99166 6.6004 7.75381 5.38099 7.74511C3.9013 7.73444 2.67758 6.5772 2.62025 5.13163C2.55871 3.58215 3.83028 2.30224 5.40176 2.30224C6.12041 2.30224 6.77617 2.56998 7.27052 3.00858C7.38767 3.11244 7.56579 3.11319 7.68103 3.00713L8.48586 2.26678C8.61177 2.15094 8.61216 1.95529 8.48663 1.83917C7.70266 1.1129 6.65094 0.660317 5.49111 0.638282C3.01745 0.590937 0.932332 2.57373 0.915152 4.99245C0.897684 7.42941 2.91312 9.41019 5.40176 9.41019C7.79521 9.41019 9.75035 7.57819 9.88129 5.27053C9.88473 5.24157 9.88708 4.26374 9.88708 4.26374H5.83557C5.66951 4.26374 5.53494 4.39535 5.53494 4.55764V5.63479C5.5349 5.79708 5.66951 5.92868 5.83552 5.92868Z" fill="white"/>
<path d="M13.5997 4.36175V3.30926C13.5997 3.16699 13.4818 3.05176 13.3363 3.05176H12.4302C12.2847 3.05176 12.1667 3.16699 12.1667 3.30926V4.36175H11.0903C10.9448 4.36175 10.8267 4.47698 10.8267 4.61934V5.50505C10.8267 5.64723 10.9447 5.76264 11.0903 5.76264H12.1667V6.815C12.1667 6.95727 12.2846 7.07259 12.4302 7.07259H13.3363C13.4818 7.07259 13.5997 6.95727 13.5997 6.815V5.76264H14.6763C14.8217 5.76264 14.9398 5.64723 14.9398 5.50505V4.61934C14.9398 4.47707 14.8217 4.36175 14.6763 4.36175H13.5997Z" fill="white"/>
</svg>
