<svg width="15" height="14" viewBox="0 0 15 14" fill="none" xmlns="http://www.w3.org/2000/svg">
<path d="M10.3298 0.168457H4.66102C2.35725 0.168457 0.483032 2.0007 0.483032 4.25287V9.79464C0.483032 12.0467 2.35725 13.8791 4.66107 13.8791H10.3298C12.6335 13.8791 14.5078 12.0468 14.5078 9.79464V4.25287C14.5078 2.0007 12.6335 0.168457 10.3298 0.168457ZM13.0969 9.79468C13.0969 11.2887 11.858 12.4998 10.3298 12.4998H4.66107C3.13285 12.4998 1.89396 11.2887 1.89396 9.79468V4.25291C1.89396 2.75892 3.13285 1.54774 4.66107 1.54774H10.3298C11.858 1.54774 13.0969 2.75897 13.0969 4.25291V9.79468Z" fill="white"/>
<path d="M7.4954 3.47754C5.49533 3.47754 3.86804 5.06837 3.86804 7.02365C3.86804 8.9788 5.49533 10.5696 7.4954 10.5696C9.49548 10.5696 11.1226 8.97894 11.1226 7.02365C11.1226 5.06837 9.49548 3.47754 7.4954 3.47754ZM7.4954 9.19035C6.2713 9.19035 5.27892 8.22038 5.27892 7.02365C5.27892 5.82693 6.2713 4.85682 7.4954 4.85682C8.7195 4.85682 9.71174 5.82688 9.71174 7.02365C9.71174 8.22034 8.7195 9.19035 7.4954 9.19035Z" fill="white"/>
</svg>
