<svg width="15" height="12" viewBox="0 0 15 12" fill="none" xmlns="http://www.w3.org/2000/svg">
<path d="M14.1486 1.64769C13.8369 1.78285 13.5135 1.88942 13.1815 1.96652C13.5473 1.62683 13.8223 1.2018 13.9774 0.727502C14.0217 0.592157 13.8712 0.474963 13.7461 0.547478C13.2843 0.815315 12.7869 1.01606 12.2677 1.14453C12.2376 1.15202 12.2066 1.15576 12.1754 1.15576C12.0807 1.15576 11.9889 1.12147 11.9164 1.05915C11.3641 0.583175 10.6535 0.321045 9.91582 0.321045C9.59653 0.321045 9.27431 0.3697 8.95794 0.465654C7.97752 0.762871 7.22102 1.55356 6.98356 2.52896C6.89455 2.89471 6.87053 3.26103 6.91197 3.61734C6.91661 3.65832 6.89694 3.68686 6.88474 3.70024C6.8632 3.72372 6.83286 3.73724 6.80123 3.73724C6.79779 3.73724 6.79405 3.7371 6.79051 3.73677C4.64438 3.54178 2.70905 2.53106 1.34124 0.89059C1.27161 0.806894 1.13771 0.817187 1.0821 0.910334C0.814299 1.35974 0.672742 1.87356 0.672742 2.39647C0.672742 3.19773 1.00218 3.95296 1.5742 4.50356C1.33363 4.44775 1.10076 4.35993 0.884408 4.24241C0.779699 4.18562 0.651015 4.25879 0.649532 4.37579C0.634697 5.56621 1.34765 6.62549 2.41564 7.10245C2.39411 7.10291 2.37257 7.1031 2.35104 7.1031C2.18177 7.1031 2.01026 7.08729 1.84162 7.05561C1.72375 7.03377 1.62473 7.14296 1.6613 7.25459C2.00806 8.31274 2.93985 9.09263 4.05508 9.26956C3.1296 9.87696 2.0517 10.1973 0.930014 10.1973L0.58038 10.1971C0.472466 10.1971 0.381301 10.2659 0.354023 10.3679C0.326985 10.4683 0.376707 10.5744 0.468685 10.6266C1.73265 11.3458 3.17449 11.7258 4.63873 11.7258C5.9205 11.7258 7.11947 11.4772 8.20235 10.9867C9.19511 10.5372 10.0724 9.89455 10.8098 9.07667C11.4969 8.31475 12.034 7.43526 12.4065 6.46244C12.7615 5.53538 12.9492 4.54585 12.9492 3.60143V3.55633C12.9492 3.4047 13.0193 3.26201 13.1418 3.16475C13.6063 2.796 14.0108 2.36203 14.344 1.87483C14.4321 1.74627 14.2933 1.58495 14.1486 1.64769Z" fill="white"/>
</svg>
