<svg width="15" height="14" viewBox="0 0 15 14" fill="none" xmlns="http://www.w3.org/2000/svg">
<path d="M7.58454 0.120546C3.85041 0.294207 0.903703 3.3344 0.914949 6.98892C0.918395 8.102 1.19328 9.15262 1.67825 10.0811L0.933756 13.6139C0.89351 13.8051 1.06981 13.9724 1.26401 13.9274L4.80509 13.1073C5.71487 13.5504 6.73673 13.8062 7.81817 13.8223C11.6348 13.8794 14.8171 10.9168 14.9362 7.18705C15.0636 3.189 11.6884 -0.0705659 7.58454 0.120546ZM11.8099 10.7633C10.7729 11.7771 9.39396 12.3355 7.92733 12.3355C7.06861 12.3355 6.24635 12.1471 5.48354 11.7756L4.99053 11.5355L2.81932 12.0382L3.27629 9.86953L3.03342 9.40436C2.63737 8.64618 2.43657 7.82644 2.43657 6.96768C2.43657 5.53385 3.00772 4.18596 4.04471 3.17211C5.07245 2.16729 6.47381 1.59999 7.92743 1.59999C9.39392 1.59999 10.7728 2.15835 11.8098 3.17211C12.8468 4.18587 13.418 5.5339 13.418 6.96754C13.418 8.38864 12.8377 9.75856 11.8099 10.7633Z" fill="white"/>
<path d="M11.3306 8.4543L9.97225 8.07306C9.7938 8.02304 9.60142 8.07259 9.4713 8.20218L9.13909 8.53294C8.99906 8.67254 8.78658 8.71731 8.60119 8.644C7.95863 8.38978 6.60695 7.21485 6.26196 6.62734C6.16223 6.4578 6.17874 6.24596 6.30106 6.09111L6.59097 5.72437C6.70458 5.58074 6.7285 5.38767 6.65342 5.22158L6.08197 3.95805C5.94511 3.65545 5.54953 3.56731 5.29106 3.78102C4.912 4.09452 4.4622 4.57073 4.4076 5.09845C4.31117 6.02884 4.71938 7.20157 6.26258 8.60981C8.04554 10.2369 9.47341 10.4516 10.4032 10.2315C10.9305 10.1067 11.3519 9.60625 11.6177 9.19638C11.7991 8.91675 11.6558 8.54566 11.3306 8.4543Z" fill="white"/>
</svg>
