<svg width="100" height="111" viewBox="0 0 100 111" fill="none" xmlns="http://www.w3.org/2000/svg">
<path d="M19.5117 42.4922C18.315 42.4922 17.3438 43.4634 17.3438 44.6602C17.3438 45.8569 18.315 46.8281 19.5117 46.8281C20.7084 46.8281 21.6797 45.8569 21.6797 44.6602C21.6797 43.4634 20.7084 42.4922 19.5117 42.4922Z" fill="#F05023"/>
<path d="M19.5117 71.3262H10.8398C9.64247 71.3262 8.67188 72.297 8.67188 73.4941V82.166C8.67188 83.3632 9.64247 84.334 10.8398 84.334H19.5117C20.7091 84.334 21.6797 83.3632 21.6797 82.166V73.4941C21.6797 72.297 20.7091 71.3262 19.5117 71.3262ZM17.3438 79.998H13.0078V75.6621H17.3438V79.998Z" fill="#F05023"/>
<path d="M19.5117 88.6699H10.8398C9.64247 88.6699 8.67188 89.6407 8.67188 90.8379V99.5098C8.67188 100.707 9.64247 101.678 10.8398 101.678H19.5117C20.7091 101.678 21.6797 100.707 21.6797 99.5098V90.8379C21.6797 89.6407 20.7091 88.6699 19.5117 88.6699ZM17.3438 97.3418H13.0078V93.0059H17.3438V97.3418Z" fill="#F05023"/>
<path d="M36.8555 71.3262H28.1836C26.9862 71.3262 26.0156 72.297 26.0156 73.4941V82.166C26.0156 83.3632 26.9862 84.334 28.1836 84.334H36.8555C38.0528 84.334 39.0234 83.3632 39.0234 82.166V73.4941C39.0234 72.297 38.0528 71.3262 36.8555 71.3262ZM34.6875 79.998H30.3516V75.6621H34.6875V79.998Z" fill="#F05023"/>
<path d="M36.8555 88.6699H28.1836C26.9862 88.6699 26.0156 89.6407 26.0156 90.8379V99.5098C26.0156 100.707 26.9862 101.678 28.1836 101.678H36.8555C38.0528 101.678 39.0234 100.707 39.0234 99.5098V90.8379C39.0234 89.6407 38.0528 88.6699 36.8555 88.6699ZM34.6875 97.3418H30.3516V93.0059H34.6875V97.3418Z" fill="#F05023"/>
<path d="M54.1992 71.3262H45.5273C44.33 71.3262 43.3594 72.297 43.3594 73.4941V82.166C43.3594 83.3632 44.33 84.334 45.5273 84.334H54.1992C55.3964 84.334 56.3672 83.3632 56.3672 82.166V73.4941C56.3672 72.297 55.3964 71.3262 54.1992 71.3262ZM52.0312 79.998H47.6953V75.6621H52.0312V79.998Z" fill="#F05023"/>
<path d="M54.1992 88.6699H45.5273C44.33 88.6699 43.3594 89.6407 43.3594 90.8379V99.5098C43.3594 100.707 44.33 101.678 45.5273 101.678H54.1992C55.3964 101.678 56.3672 100.707 56.3672 99.5098V90.8379C56.3672 89.6407 55.3964 88.6699 54.1992 88.6699ZM52.0312 97.3418H47.6953V93.0059H52.0312V97.3418Z" fill="#F05023"/>
<path d="M54.1992 31.6523H10.8398C9.64247 31.6523 8.67188 32.6232 8.67188 33.8203V55.5C8.67188 56.6972 9.64247 57.668 10.8398 57.668H54.1992C55.3964 57.668 56.3672 56.6972 56.3672 55.5V33.8203C56.3672 32.6232 55.3964 31.6523 54.1992 31.6523ZM52.0312 53.332H13.0078V35.9883H52.0312V53.332Z" fill="#F05023"/>
<path d="M45.5273 42.4922H28.1836C26.9862 42.4922 26.0156 43.463 26.0156 44.6602C26.0156 45.8573 26.9862 46.8281 28.1836 46.8281H45.5273C46.7245 46.8281 47.6953 45.8573 47.6953 44.6602C47.6953 43.463 46.7245 42.4922 45.5273 42.4922Z" fill="#F05023"/>
<path d="M41.1914 9.32227H23.8477C22.6503 9.32227 21.6797 10.2931 21.6797 11.4902C21.6797 12.6874 22.6503 13.6582 23.8477 13.6582H41.1914C42.3888 13.6582 43.3594 12.6874 43.3594 11.4902C43.3594 10.2931 42.3888 9.32227 41.1914 9.32227Z" fill="#F05023"/>
<path d="M93.2227 31.6523H65.0391V20.1621C65.0391 14.185 60.1763 9.32227 54.1992 9.32227H52.0312V2.16797C52.0312 0.970816 51.0604 0 49.8633 0H15.1758C13.9784 0 13.0078 0.970816 13.0078 2.16797V9.32227H10.8398C4.86275 9.32227 0 14.185 0 20.1621V100.16C0 106.137 4.86275 111 10.8398 111H54.1992C60.1763 111 65.0391 106.137 65.0391 100.16V79.998H93.2227C96.8089 79.998 99.7266 77.0804 99.7266 73.4941V38.1562C99.7266 34.57 96.8089 31.6523 93.2227 31.6523ZM17.3438 4.33594H47.6953V22.9805H17.3438V4.33594ZM60.7031 100.16C60.7031 103.746 57.7855 106.664 54.1992 106.664H10.8398C7.25359 106.664 4.33594 103.746 4.33594 100.16V66.1599H60.7031V100.16ZM60.7031 61.824H4.33594V20.1621C4.33594 16.5759 7.25359 13.6582 10.8398 13.6582H13.0078V22.9805H10.8398C9.64248 22.9805 8.67188 23.9513 8.67188 25.1484C8.67188 26.3456 9.64248 27.3164 10.8398 27.3164H15.1758H49.8633H54.1992C55.3964 27.3164 56.3672 26.3456 56.3672 25.1484C56.3672 23.9513 55.3964 22.9805 54.1992 22.9805H52.0312V13.6582H54.1992C57.7855 13.6582 60.7031 16.5759 60.7031 20.1621V61.824ZM95.3906 73.4941C95.3906 74.6896 94.4181 75.6621 93.2227 75.6621H65.0391V53.332H95.3906V73.4941ZM95.3906 48.9961H65.0391V44.6602H95.3906V48.9961ZM95.3906 40.3242H65.0391V35.9883H93.2227C94.4181 35.9883 95.3906 36.9608 95.3906 38.1562V40.3242Z" fill="#F05023"/>
<path d="M84.5508 57.668C82.8862 57.668 81.3665 58.2971 80.2148 59.3295C79.0632 58.2973 77.5435 57.668 75.8789 57.668C72.2927 57.668 69.375 60.5856 69.375 64.1719C69.375 67.7581 72.2927 70.6758 75.8789 70.6758C77.5435 70.6758 79.0632 70.0466 80.2148 69.0142C81.3665 70.0464 82.8862 70.6758 84.5508 70.6758C88.137 70.6758 91.0547 67.7581 91.0547 64.1719C91.0547 60.5856 88.137 57.668 84.5508 57.668ZM75.8789 66.3398C74.6835 66.3398 73.7109 65.3673 73.7109 64.1719C73.7109 62.9765 74.6835 62.0039 75.8789 62.0039C77.0743 62.0039 78.0469 62.9765 78.0469 64.1719C78.0469 65.3673 77.0743 66.3398 75.8789 66.3398ZM84.5508 66.3398C83.3554 66.3398 82.3828 65.3673 82.3828 64.1719C82.3828 62.9765 83.3554 62.0039 84.5508 62.0039C85.7462 62.0039 86.7188 62.9765 86.7188 64.1719C86.7188 65.3673 85.7462 66.3398 84.5508 66.3398Z" fill="#F05023"/>
</svg>
