<svg width="121" height="110" viewBox="0 0 121 110" fill="none" xmlns="http://www.w3.org/2000/svg">
<path d="M109.785 31.9848H104.73V28.7339L107.884 25.2598C109.522 23.4565 110.423 21.1219 110.423 18.6859V10.4474C110.423 4.68665 105.736 0 99.9757 0H95.1701C89.4094 0 84.7228 4.68689 84.7228 10.4474V18.6859C84.7228 21.1219 85.6247 23.4567 87.2618 25.2598L90.4166 28.7343V31.9848H85.3611C80.4496 31.9848 76.3332 35.4471 75.3192 40.059C74.8031 39.9867 74.2768 39.9469 73.7412 39.9469H67.8194V35.9701L71.4318 31.9921C73.2377 30.003 74.2325 27.4279 74.2325 24.7411V15.4618C74.2325 9.09916 69.0562 3.92333 62.6937 3.92333C61.6966 3.92333 60.8887 4.73121 60.8887 5.72834C60.8887 6.72547 61.6966 7.53335 62.6937 7.53335C67.0657 7.53335 70.6225 11.0899 70.6225 15.4618V24.7409C70.6225 26.5285 69.9607 28.2416 68.7593 29.565L65.0395 33.6616C64.5405 33.9826 64.2098 34.5429 64.2098 35.1807V41.7521C64.2098 42.7493 65.0177 43.5571 66.0148 43.5571H73.7417C78.0114 43.5571 81.4854 47.0309 81.4854 51.3008V62.6271H38.4899V51.3008C38.4899 47.9718 40.6019 45.1272 43.5557 44.0348C43.6946 44.0058 43.8268 43.9596 43.9518 43.9005C44.6734 43.6777 45.4398 43.5569 46.2334 43.5569H53.9602C54.9571 43.5569 55.7652 42.749 55.7652 41.7519V35.1805C55.7652 34.5429 55.4345 33.9824 54.9355 33.6614L51.2157 29.5647C50.0141 28.2414 49.3521 26.5281 49.3521 24.7406V15.4618C49.3521 11.0901 52.9086 7.53335 57.2808 7.53335C58.2777 7.53335 59.0858 6.72547 59.0858 5.72834C59.0858 4.73121 58.2777 3.92333 57.2808 3.92333C50.9181 3.92333 45.7421 9.0994 45.7421 15.4618V24.7409C45.7421 27.4274 46.7368 30.0026 48.5428 31.9919L52.1547 35.9696V39.9466H46.2329C45.7285 39.9466 45.2327 39.983 44.7456 40.0473C43.7274 35.4413 39.6143 31.9848 34.7068 31.9848H29.6513V28.7339L32.8056 25.2598C34.4432 23.4565 35.3449 21.1219 35.3449 18.6859V10.4474C35.3449 4.68665 30.658 0 24.8973 0H20.0922C14.3315 0 9.64487 4.68689 9.64487 10.4474V18.6859C9.64487 21.1219 10.5466 23.4567 12.1841 25.2598L15.3387 28.7341V31.9848H10.2832C4.61302 31.9848 0 36.5979 0 42.268V53.9269C0 54.924 0.808116 55.7319 1.80501 55.7319H29.8893C30.8862 55.7319 31.6943 54.924 31.6943 53.9269C31.6943 52.9297 30.8862 52.1219 29.8893 52.1219H3.61002V42.268C3.61002 38.5886 6.60352 35.5949 10.2832 35.5949H17.1437C18.1406 35.5949 18.9488 34.787 18.9488 33.7899V27.9553C18.9488 27.3275 18.6282 26.7745 18.1418 26.4512L14.8566 22.8332C13.8236 21.6956 13.2547 20.2228 13.2547 18.6861V10.4474C13.2547 6.67716 16.3218 3.61002 20.092 3.61002H24.8975C28.6677 3.61002 31.7351 6.67716 31.7351 10.4474V18.6859C31.7351 20.2226 31.1662 21.6956 30.1332 22.8329L26.8477 26.4512C26.3616 26.7745 26.0412 27.3275 26.0412 27.9551V33.7896C26.0412 34.7868 26.8493 35.5946 27.8462 35.5946H34.7068C37.984 35.5946 40.7151 37.97 41.2735 41.0892C37.4916 42.9333 34.8796 46.8168 34.8796 51.3001V64.4314C34.8796 65.4286 35.6877 66.2365 36.6846 66.2365H83.2899C84.287 66.2365 85.0949 65.4286 85.0949 64.4314V51.3001C85.0949 46.8513 82.5217 42.9941 78.7864 41.133C79.327 37.9925 82.0684 35.5946 85.3611 35.5946H92.2216C93.2188 35.5946 94.0267 34.7868 94.0267 33.7896V27.9551C94.0267 27.327 93.7061 26.7741 93.2195 26.4507L89.9345 22.8329C88.9015 21.6956 88.3328 20.2226 88.3328 18.6859V10.4474C88.3328 6.67716 91.3999 3.61002 95.1701 3.61002H99.9757C103.746 3.61002 106.813 6.67716 106.813 10.4474V18.6859C106.813 20.2226 106.244 21.6956 105.211 22.8329L101.926 26.4512C101.44 26.7745 101.119 27.3275 101.119 27.9551V33.7896C101.119 34.7868 101.927 35.5946 102.924 35.5946H109.785C113.464 35.5946 116.458 38.5881 116.458 42.2678V52.1216H90.4893C89.4922 52.1216 88.6843 52.9295 88.6843 53.9266C88.6843 54.9238 89.4922 55.7316 90.4893 55.7316H118.263C119.26 55.7316 120.068 54.9238 120.068 53.9266V42.2678C120.068 36.5979 115.455 31.9848 109.785 31.9848Z" fill="#F05023"/>
<path d="M78.1867 89.113C77.9784 88.4709 77.429 87.9989 76.7625 87.8894L66.9023 86.2708L62.3161 77.3932C62.0063 76.7936 61.3876 76.4165 60.7125 76.4165C60.0373 76.4165 59.4187 76.7931 59.1089 77.3932L54.5226 86.2708L44.6625 87.8894C43.9963 87.9989 43.4468 88.4707 43.2381 89.113C43.0294 89.7551 43.1966 90.4598 43.6712 90.9401L50.6966 98.045L49.189 107.922C49.0872 108.59 49.366 109.258 49.9124 109.655C50.2267 109.883 50.5991 110 50.9736 110C51.2498 110 51.5275 109.936 51.7836 109.808L60.712 105.322L69.6405 109.808C70.2439 110.111 70.9659 110.052 71.5116 109.655C72.058 109.258 72.3368 108.59 72.2351 107.922L70.7272 98.045L77.7526 90.9401C78.2284 90.4598 78.3954 89.7551 78.1867 89.113ZM67.5236 96.1513C67.1223 96.5573 66.9368 97.129 67.0226 97.6928L68.1401 105.013L61.5232 101.688C61.0131 101.432 60.4123 101.432 59.9025 101.688L53.2856 105.013L54.4028 97.6928C54.4889 97.1285 54.3031 96.5568 53.9019 96.1513L48.6949 90.8857L56.0022 89.6864C56.5652 89.5938 57.0516 89.2404 57.3133 88.7336L60.7123 82.1545L64.111 88.7336C64.3729 89.2404 64.8591 89.5938 65.4221 89.6864L72.7294 90.8857L67.5236 96.1513Z" fill="#F05023"/>
<path d="M117.699 75.8406C117.49 75.1985 116.941 74.7264 116.275 74.6169L106.415 72.9983L101.828 64.1208C101.519 63.5211 100.9 63.144 100.225 63.144C99.5494 63.144 98.931 63.5207 98.6212 64.1208L94.0349 72.9983L84.1745 74.6169C83.5083 74.7264 82.9588 75.1982 82.7501 75.8406C82.5414 76.4827 82.7084 77.1876 83.1832 77.6676L90.2089 84.7725L88.701 94.6503C88.5992 95.3177 88.878 95.9863 89.4244 96.3828C89.9708 96.7796 90.6927 96.8389 91.2956 96.5355L100.224 92.0493L109.152 96.5355C109.409 96.6642 109.686 96.7278 109.962 96.7278C110.337 96.7278 110.71 96.6115 111.024 96.3828C111.57 95.9863 111.849 95.3177 111.747 94.6503L110.239 84.7725L117.265 77.6676C117.74 77.1876 117.907 76.4827 117.699 75.8406ZM107.036 82.8791C106.634 83.2848 106.449 83.8568 106.535 84.4205L107.652 91.7407L101.035 88.4163C100.78 88.2883 100.503 88.224 100.225 88.224C99.9468 88.224 99.6692 88.2883 99.4143 88.4163L92.7974 91.7407L93.9148 84.4205C94.0006 83.8563 93.8151 83.2846 93.4139 82.8791L88.2071 77.6137L95.5144 76.4144C96.0777 76.3218 96.5638 75.9684 96.8255 75.4616L100.224 68.8825L103.623 75.4616C103.885 75.9684 104.371 76.3218 104.934 76.4144L112.241 77.6137L107.036 82.8791Z" fill="#F05023"/>
<path d="M38.6751 75.8408C38.4666 75.1985 37.9169 74.7264 37.2507 74.6169L27.3905 72.9983L22.8042 64.1208C22.4942 63.5211 21.8758 63.144 21.2004 63.144C20.525 63.144 19.9066 63.5207 19.5966 64.1208L15.0108 72.9986L5.15065 74.6171C4.48442 74.7267 3.93496 75.1985 3.72625 75.8408C3.51754 76.4829 3.68474 77.1878 4.15939 77.6679L11.185 84.7728L9.67737 94.6505C9.5756 95.3179 9.85443 95.9865 10.4008 96.383C10.947 96.7798 11.6688 96.8392 12.272 96.5357L21.2004 92.0496L30.1286 96.5357C30.3847 96.6645 30.6624 96.728 30.9386 96.728C31.3131 96.728 31.6858 96.6117 31.9998 96.383C32.5462 95.9865 32.825 95.3179 32.7232 94.6505L31.2156 84.7728L38.241 77.6679C38.7163 77.1876 38.8838 76.4829 38.6751 75.8408ZM28.0115 82.8791C27.6102 83.2848 27.4245 83.8568 27.5106 84.4205L28.6278 91.7407L22.0111 88.4163C21.7562 88.288 21.4785 88.224 21.2007 88.224C20.9228 88.224 20.6451 88.2883 20.3902 88.4163L13.7733 91.7407L14.8907 84.4205C14.9768 83.8563 14.7911 83.2846 14.3898 82.8791L9.18373 77.6137L16.491 76.4144C17.0541 76.3218 17.5404 75.9684 17.8024 75.4616L21.2011 68.8825L24.5999 75.4616C24.8618 75.9684 25.3482 76.3218 25.9112 76.4144L33.2185 77.6137L28.0115 82.8791Z" fill="#F05023"/>
</svg>
