<svg width="130" height="110" viewBox="0 0 130 110" fill="none" xmlns="http://www.w3.org/2000/svg">
<path d="M27.3854 63.9773C26.9134 63.5034 26.2613 63.2307 25.5914 63.2307C24.9241 63.2307 24.2692 63.5034 23.7975 63.9773C23.3255 64.4509 23.0541 65.1081 23.0541 65.778C23.0541 66.4507 23.3257 67.1053 23.7975 67.5815C24.2695 68.0553 24.9241 68.3252 25.5914 68.3252C26.2588 68.3252 26.9136 68.0553 27.3854 67.5815C27.8574 67.1051 28.1288 66.4507 28.1288 65.778C28.1288 65.1081 27.8574 64.4509 27.3854 63.9773Z" fill="#F05023"/>
<path d="M51.3146 63.9773C50.8428 63.5034 50.1882 63.2307 49.5206 63.2307C48.8533 63.2307 48.1984 63.5034 47.7267 63.9773C47.2547 64.4509 46.9833 65.1081 46.9833 65.778C46.9833 66.4507 47.2547 67.1053 47.7267 67.5815C48.1987 68.0553 48.8533 68.3252 49.5206 68.3252C50.188 68.3252 50.8428 68.0553 51.3146 67.5815C51.7866 67.1051 52.058 66.4479 52.058 65.778C52.058 65.1081 51.7866 64.4509 51.3146 63.9773Z" fill="#F05023"/>
<path d="M46.6603 77.9657C45.3063 77.6015 43.9157 78.4102 43.5537 79.7692C42.8286 82.4941 40.3625 84.3977 37.5563 84.3977C34.7503 84.3977 32.2842 82.4941 31.5588 79.7692C31.1971 78.4097 29.8065 77.601 28.4523 77.9657C27.0984 78.329 26.2941 79.7248 26.6558 81.0843C27.9732 86.0349 32.4557 89.4927 37.5565 89.4927C42.6571 89.4927 47.1396 86.0349 48.457 81.0843C48.8184 79.7251 48.0139 78.3287 46.6603 77.9657Z" fill="#F05023"/>
<path d="M64.9613 0C63.5597 0 62.4237 1.14046 62.4237 2.54751V18.7197C62.4237 20.1267 63.5597 21.2672 64.9613 21.2672C66.3629 21.2672 67.4989 20.1267 67.4989 18.7197V2.54751C67.4989 1.14046 66.3629 0 64.9613 0Z" fill="#F05023"/>
<path d="M66.7561 25.9206C66.2839 25.4442 65.6292 25.1743 64.9622 25.1743C64.2923 25.1743 63.64 25.4445 63.1657 25.9206C62.6937 26.3945 62.4248 27.0517 62.4248 27.7216C62.4248 28.3915 62.6939 29.0489 63.1657 29.5225C63.6402 29.9964 64.2923 30.2688 64.9622 30.2688C65.6295 30.2688 66.2844 29.9964 66.7561 29.5225C67.2279 29.0487 67.4995 28.3915 67.4995 27.7216C67.4995 27.0517 67.2279 26.3945 66.7561 25.9206Z" fill="#F05023"/>
<path d="M49.4973 23.1594L43.019 16.6614C42.0278 15.6671 40.4208 15.6676 39.4303 16.6629C38.4399 17.6582 38.4404 19.271 39.4318 20.2656L45.9102 26.7638C46.4055 27.2608 47.0546 27.5091 47.7036 27.5091C48.3534 27.5091 49.0035 27.2598 49.4989 26.7623C50.4893 25.7667 50.4888 24.1539 49.4973 23.1594Z" fill="#F05023"/>
<path d="M90.4972 16.6678C89.5057 15.6733 87.8989 15.674 86.9085 16.6691L80.021 23.589C79.0303 24.5843 79.0311 26.1974 80.0223 27.1917C80.5176 27.689 81.1667 27.9372 81.8157 27.9372C82.4656 27.9372 83.1154 27.6882 83.6107 27.1904L90.4982 20.2705C91.4891 19.2752 91.4884 17.6621 90.4972 16.6678Z" fill="#F05023"/>
<path d="M128.577 62.5216C123.217 42.4402 102.583 30.4807 82.5802 35.862C75.7148 37.7087 69.6497 41.3807 64.9123 46.4653C57.8242 38.8866 48.0146 34.5944 37.5562 34.5944C16.8477 34.5944 0 51.5081 0 72.2974C0 93.0866 16.8477 110 37.5562 110C48.0245 110 57.8498 105.695 64.9404 98.0976C71.9615 105.571 81.8632 109.987 92.3091 109.987C95.5174 109.987 98.7781 109.57 102.021 108.698C122.024 103.317 133.937 82.6022 128.577 62.5216ZM37.5562 104.905C19.6458 104.905 5.07498 90.2771 5.07498 72.2971C5.07498 54.3171 19.6458 39.6892 37.5562 39.6892C46.8278 39.6892 55.5113 43.5898 61.6739 50.4552C61.0007 51.4111 60.3661 52.4018 59.7757 53.4282C54.7598 62.1498 53.4274 72.3103 56.0239 82.0377C57.2152 86.502 59.1616 90.5643 61.6881 94.1245C55.5242 100.999 46.8311 104.905 37.5562 104.905ZM100.707 103.777C83.4076 108.429 65.5616 98.0867 60.9261 80.7195C58.6807 72.3065 59.833 63.5189 64.1709 55.9762C64.9714 54.5844 65.8629 53.2665 66.8366 52.0273C66.8787 51.9786 66.9178 51.9282 66.9558 51.877C71.2498 46.4782 77.122 42.6049 83.8935 40.7833C86.699 40.0289 89.5174 39.6686 92.2929 39.6686C106.632 39.6686 119.791 49.2895 123.674 63.8403C128.31 81.2076 118.007 99.123 100.707 103.777Z" fill="#F05023"/>
<path d="M84.8674 67.2852C84.0822 64.3423 81.0594 62.589 78.1266 63.378C75.1951 64.1669 73.4493 67.2022 74.2348 70.1452C74.5387 71.2833 75.5639 72.0342 76.6844 72.0342C76.9015 72.0342 77.123 72.006 77.3426 71.9466C78.6965 71.5823 79.4998 70.1859 79.1368 68.8267C79.0757 68.5976 79.2116 68.3608 79.4399 68.2994C79.5814 68.2617 79.6951 68.302 79.7653 68.3424C79.8353 68.3832 79.9271 68.4616 79.9652 68.6037C80.3279 69.9626 81.7188 70.7695 83.073 70.4049C84.4271 70.041 85.2301 68.6444 84.8674 67.2852Z" fill="#F05023"/>
<path d="M107.838 61.1062C107.457 59.6806 106.546 58.4892 105.273 57.751C104 57.0134 102.517 56.8171 101.097 57.1993C99.6767 57.5812 98.4897 58.4953 97.7549 59.7735C97.0198 61.0517 96.8243 62.5405 97.205 63.9664C97.5089 65.1046 98.534 65.8552 99.6546 65.8552C99.8717 65.855 100.093 65.8269 100.313 65.7676C101.667 65.4033 102.47 64.0066 102.107 62.6475C102.069 62.5054 102.11 62.3916 102.15 62.321C102.191 62.2505 102.269 62.1586 102.41 62.1206C102.552 62.0827 102.666 62.1232 102.736 62.1637C102.806 62.2042 102.897 62.2826 102.935 62.4249C103.298 63.7838 104.689 64.5905 106.043 64.2261C107.397 63.862 108.2 62.4654 107.838 61.1062Z" fill="#F05023"/>
<path d="M105.615 77.0911C105.252 75.7322 103.86 74.9253 102.506 75.2896C101.153 75.654 100.35 77.0504 100.712 78.4095C101.576 81.6445 99.6564 84.9819 96.434 85.8486C94.8726 86.2688 93.2422 86.0528 91.8429 85.2419C90.4431 84.4304 89.442 83.1209 89.024 81.5536C88.6611 80.1947 87.2699 79.3873 85.916 79.7524C84.5623 80.1168 83.7591 81.5134 84.1218 82.8723C84.891 85.7542 86.7319 88.1627 89.3055 89.6542C91.0196 90.6478 92.9224 91.1555 94.8503 91.1555C95.8169 91.1555 96.7896 91.0282 97.748 90.77C103.673 89.1761 107.202 83.0394 105.615 77.0911Z" fill="#F05023"/>
</svg>
