<svg width="111" height="111" viewBox="0 0 111 111" fill="none" xmlns="http://www.w3.org/2000/svg">
<path d="M101.483 28.1887L86.6426 3.59152C86.2496 2.94112 85.5459 2.54395 84.7862 2.54395C84.0266 2.54395 83.322 2.94112 82.9299 3.59152L68.0895 28.1887C67.6855 28.8577 67.6737 29.6935 68.0573 30.3744C68.4418 31.0553 69.1633 31.477 69.9458 31.477H73.7889V43.1875H57.181C55.9836 43.1875 55.0131 44.158 55.0131 45.3554V52.9433H38.4146C37.2171 52.9433 36.2466 53.9138 36.2466 55.1113V62.6992H19.6472C18.4498 62.6992 17.4792 63.6697 17.4792 64.8671V94.2228C17.4792 95.4203 18.4498 96.3908 19.6472 96.3908H93.6148C94.8123 96.3908 95.7828 95.4203 95.7828 94.2228V31.477H99.6267C100.408 31.477 101.13 31.0553 101.514 30.3744C101.899 29.6935 101.887 28.8585 101.483 28.1887ZM21.8152 67.0351H36.2466V92.0548H21.8152V67.0351ZM40.5825 57.2793H55.0131V92.0548H40.5825V57.2793ZM59.349 47.5234H73.7897V92.0548H59.349V47.5234ZM93.6148 27.1411C92.4182 27.1411 91.4468 28.1116 91.4468 29.3091V92.0548H78.1257V31.477H82.0365C83.2339 31.477 84.2044 30.5057 84.2044 29.3091C84.2044 28.1116 83.2339 27.1411 82.0365 27.1411H73.7855L84.7862 8.90897L95.787 27.1411H93.6148Z" fill="#F05023"/>
<path d="M58.0999 101.629H9.37136V8.64393L10.5087 10.1513C10.9347 10.7162 11.5842 11.0143 12.2414 11.0143C12.6953 11.0143 13.1534 10.872 13.5447 10.5773C14.5008 9.85664 14.6914 8.49658 13.9707 7.54047L8.93437 0.862954C8.52534 0.319267 7.88426 0 7.20339 0C6.52336 0 5.88228 0.319267 5.4724 0.862954L0.436949 7.54132C-0.283731 8.49743 -0.0931873 9.85664 0.862921 10.5773C1.81903 11.298 3.17825 11.1075 3.89893 10.1513L5.03542 8.64393V101.629H2.52023C1.32277 101.629 0.352263 102.599 0.352263 103.797C0.352263 104.994 1.32277 105.965 2.52023 105.965H5.03542V108.48C5.03542 109.677 6.00592 110.648 7.20339 110.648C8.40085 110.648 9.37136 109.677 9.37136 108.48V105.965H58.0999C59.2965 105.965 60.2678 104.994 60.2678 103.797C60.2678 102.599 59.2965 101.629 58.0999 101.629Z" fill="#F05023"/>
<path d="M68.5705 102.967C68.5163 102.835 68.4494 102.709 68.3715 102.592C68.2936 102.473 68.2021 102.363 68.1022 102.263C68.0031 102.163 67.8921 102.072 67.7727 101.994C67.6559 101.916 67.5305 101.849 67.3976 101.794C67.268 101.74 67.1317 101.699 66.9928 101.671C66.7125 101.615 66.4245 101.615 66.1451 101.671C66.0079 101.699 65.8715 101.74 65.7394 101.794C65.609 101.849 65.4837 101.916 65.3668 101.994C65.2474 102.072 65.1364 102.163 65.0374 102.263C64.9374 102.363 64.846 102.473 64.7664 102.592C64.6876 102.709 64.6207 102.835 64.5665 102.967C64.5123 103.098 64.4708 103.234 64.4429 103.373C64.4149 103.512 64.4014 103.654 64.4014 103.796C64.4014 103.936 64.4149 104.079 64.4429 104.221C64.4708 104.357 64.5123 104.493 64.5665 104.626C64.6207 104.756 64.6876 104.881 64.7664 104.999C64.846 105.118 64.9374 105.228 65.0374 105.328C65.1364 105.428 65.2474 105.519 65.3668 105.599C65.4837 105.677 65.609 105.744 65.7394 105.798C65.8715 105.853 66.0079 105.894 66.1451 105.922C66.2856 105.951 66.4288 105.964 66.5693 105.964C66.7108 105.964 66.8539 105.951 66.9928 105.922C67.1317 105.894 67.268 105.853 67.3976 105.798C67.5305 105.744 67.6559 105.677 67.7727 105.599C67.8921 105.519 68.0022 105.428 68.1022 105.328C68.2021 105.228 68.2936 105.118 68.3715 104.999C68.4494 104.881 68.5163 104.756 68.5705 104.626C68.6247 104.493 68.6662 104.357 68.6941 104.221C68.7229 104.079 68.7373 103.936 68.7373 103.796C68.7373 103.654 68.7229 103.512 68.6941 103.373C68.6662 103.234 68.6247 103.098 68.5705 102.967Z" fill="#F05023"/>
<path d="M110.137 102.066L103.459 97.0292C102.503 96.3086 101.143 96.4991 100.423 97.4552C99.702 98.4113 99.8926 99.7705 100.849 100.491L102.356 101.628H74.9321C73.7355 101.628 72.7642 102.599 72.7642 103.796C72.7642 104.993 73.7355 105.964 74.9321 105.964H102.356L100.849 107.101C99.8926 107.822 99.702 109.181 100.423 110.137C100.849 110.702 101.498 111 102.155 111C102.609 111 103.068 110.858 103.459 110.563L110.137 105.527C110.681 105.117 111 104.477 111 103.796C111 103.116 110.681 102.475 110.137 102.066Z" fill="#F05023"/>
<path d="M61.4686 18.2556C61.3238 17.5917 60.8749 17.0328 60.2567 16.7491C59.6394 16.4645 58.9238 16.4865 58.3233 16.8083L51.5891 20.4312C50.5347 20.9978 50.1401 22.3129 50.7066 23.3673C51.274 24.4216 52.5884 24.8171 53.6436 24.2497L54.996 23.5214C51.3333 31.3922 42.0432 39.6609 30.2396 45.4467C26.2475 47.403 22.1716 48.9756 18.1261 50.1197C16.9744 50.4457 16.3045 51.6432 16.6297 52.7958C16.8999 53.7502 17.7696 54.3743 18.7147 54.3743C18.9103 54.3743 19.1093 54.3472 19.3066 54.2914C23.6019 53.077 27.9226 51.4112 32.1485 49.3397C44.5491 43.2618 54.4422 34.4451 58.6866 25.8435L58.8628 26.6514C59.0838 27.6651 59.9815 28.3579 60.9791 28.3579C61.1324 28.3579 61.2873 28.3409 61.4432 28.307C62.6127 28.0521 63.3545 26.897 63.0996 25.7267L61.4686 18.2556Z" fill="#F05023"/>
</svg>
