<svg width="111" height="111" viewBox="0 0 111 111" fill="none" xmlns="http://www.w3.org/2000/svg">
<path d="M27.8575 73.0223C26.8821 72.198 25.4233 72.3205 24.5983 73.2959C24.2801 73.6727 23.9651 74.059 23.6624 74.4447C22.8737 75.4493 23.0487 76.903 24.0533 77.6915C24.4767 78.0242 24.9801 78.1851 25.4796 78.1851C26.1654 78.1851 26.8437 77.8814 27.3001 77.3006C27.5685 76.9585 27.8481 76.6157 28.1306 76.2814C28.9551 75.3058 28.8328 73.8468 27.8575 73.0223Z" fill="#F05023"/>
<path d="M70.5236 27.7033C70.9622 28.0868 71.5044 28.2747 72.0447 28.2747C72.6888 28.2747 73.3298 28.0072 73.7866 27.4841C74.1051 27.1199 74.396 26.7552 74.6517 26.3999C75.3979 25.3636 75.1631 23.9184 74.1268 23.1718C73.0901 22.4253 71.6449 22.6606 70.8987 23.6966C70.7274 23.9347 70.5271 24.1846 70.3042 24.44C69.4637 25.4022 69.5621 26.863 70.5236 27.7033Z" fill="#F05023"/>
<path d="M108.687 97.1241H105.164C104.771 88.6159 102.215 80.3726 97.7105 73.1533C93.3271 66.1282 87.2672 60.3173 80.1025 56.2305C80.3999 55.4496 80.6787 54.5807 80.946 53.6049H85.7134C90.0509 53.6049 93.5795 50.0761 93.5795 45.7386V38.4514C93.5795 34.1141 90.0509 30.5853 85.7134 30.5853H84.8928C85.0936 27.4444 84.983 24.4185 84.2565 21.9874C82.2512 15.2732 78.4459 9.67068 73.2515 5.78545C68.1916 2.00082 62.053 0.000216797 55.4999 0C48.947 0 42.8084 2.00061 37.7479 5.78589C32.5541 9.67111 28.7482 15.2732 26.7424 21.9876C26.0161 24.4187 25.9058 27.4446 26.1065 30.5858H25.2866C20.9491 30.5858 17.4205 34.1144 17.4205 38.4518V45.739C17.4205 50.0765 20.9491 53.6053 25.2866 53.6053H30.0535C30.3208 54.5813 30.5999 55.45 30.8969 56.2309C23.7326 60.3176 17.6724 66.1284 13.289 73.1539C8.78441 80.3737 6.22924 88.6163 5.83597 97.1245H2.31258C1.03542 97.1245 0 98.1602 0 99.4371C0 100.714 1.03542 101.75 2.31258 101.75H8.09391H23.2543L25.535 109.352C25.8286 110.33 26.7287 111 27.7501 111H73.2614C73.2651 111 73.2684 111.001 73.2719 111.001C73.2773 111.001 73.2827 111 73.2881 111H83.2497C84.2708 111 85.1714 110.33 85.4648 109.352L87.7455 101.75H102.906H108.687C109.965 101.75 111 100.714 111 99.4371C111 98.1598 109.965 97.1241 108.687 97.1241ZM82.549 45.8145C82.6704 45.0765 82.8536 44.1222 83.0655 43.0169C83.5027 40.7379 84.0235 38.0217 84.412 35.2107H85.7136V35.2105C87.5007 35.2105 88.9545 36.6643 88.9545 38.4514V45.7386C88.9545 47.5259 87.5007 48.9799 85.7136 48.9799H81.9901C82.1766 48.003 82.3617 46.952 82.549 45.8145ZM25.2866 48.9797V48.9799C23.4995 48.9799 22.0457 47.5261 22.0457 45.7386V38.4514C22.0457 36.6643 23.4995 35.2105 25.2866 35.2105H26.5878C26.9763 38.02 27.4968 40.7356 27.9337 43.0135C28.1457 44.1198 28.3291 45.0752 28.4505 45.814C28.6378 46.9518 28.8232 48.0028 29.0094 48.9797H25.2866ZM30.7239 30.3C30.5489 27.6443 30.622 25.1593 31.1742 23.3113C34.6175 11.7853 43.9383 4.62494 55.4997 4.62494C67.0619 4.62537 76.3829 11.7858 79.825 23.3116C80.5174 25.6287 80.4578 28.9455 80.099 32.3466C80.0554 32.5237 80.0301 32.7078 80.0301 32.8981C80.0301 32.9148 80.0325 32.9313 80.0327 32.9476C79.6502 36.2667 79.0087 39.6143 78.5233 42.1454C78.3052 43.2825 78.1168 44.2646 77.9855 45.0628C77.6631 47.021 77.3606 48.6736 77.0565 50.0865C73.6456 53.1865 67.8404 55.3085 61.9466 55.8112C61.7794 54.6982 60.822 53.844 59.6624 53.844H55.4997C54.2227 53.844 53.1871 54.8796 53.1871 56.1566V58.0065C53.1871 58.0314 53.1901 58.0557 53.191 58.0802C53.1923 58.1264 53.1938 58.1728 53.1977 58.2185C53.2008 58.2506 53.2055 58.2818 53.2101 58.3137C53.2159 58.3577 53.2218 58.4015 53.23 58.4447C53.2367 58.4791 53.2452 58.5132 53.2537 58.5472C53.2632 58.5858 53.2721 58.6244 53.2836 58.6625C53.2944 58.6996 53.3072 58.7354 53.3202 58.7716C53.3319 58.8054 53.3436 58.8397 53.3573 58.8728C53.372 58.9103 53.3894 58.9465 53.4065 58.9834C53.421 59.0142 53.4349 59.0452 53.4505 59.0749C53.4692 59.1107 53.49 59.1458 53.5106 59.1805C53.5279 59.2095 53.5448 59.239 53.5632 59.2674C53.5849 59.3001 53.6079 59.332 53.6311 59.3637C53.6519 59.3923 53.6727 59.4209 53.6946 59.4489C53.7178 59.4777 53.7421 59.5052 53.7666 59.5328C53.7915 59.5612 53.8167 59.5896 53.8431 59.6169C53.867 59.6416 53.8921 59.665 53.9171 59.6886C53.9463 59.7164 53.9758 59.7439 54.0066 59.7699C54.0315 59.7912 54.058 59.8111 54.0836 59.8315C54.1167 59.8569 54.1492 59.8825 54.1835 59.9061C54.2106 59.9247 54.2386 59.9421 54.2665 59.9596C54.3012 59.9817 54.3361 60.0039 54.3721 60.0236C54.4027 60.0407 54.4341 60.0563 54.4656 60.0719C54.5002 60.0895 54.5351 60.1071 54.5711 60.1231C54.6067 60.1385 54.6435 60.1524 54.6806 60.1667C54.7138 60.1792 54.7465 60.192 54.7808 60.2033C54.8222 60.217 54.8642 60.2278 54.9065 60.2391C54.9382 60.2473 54.9692 60.2562 55.0013 60.2634C55.0455 60.2731 55.0908 60.2801 55.1359 60.2874C55.1608 60.2913 55.1847 60.2974 55.2096 60.3007C55.2241 60.3024 55.2389 60.3037 55.2536 60.3052C55.2595 60.3059 55.2649 60.3065 55.2707 60.3074C56.588 60.4713 57.9315 60.5515 59.2845 60.5515C64.5024 60.5515 69.8491 59.3706 74.2578 57.3188C73.1561 58.6938 71.7239 59.6056 69.663 60.9164C68.8024 61.4638 67.8289 62.0827 66.7456 62.8159C63.0106 64.959 59.2271 66.0451 55.4988 66.0451C51.7712 66.0451 47.9883 64.9592 44.2544 62.8172C43.1711 62.0842 42.1979 61.4651 41.3372 60.9174C37.2315 58.3057 35.6183 57.2794 34.151 51.0135C34.1315 50.8524 34.0955 50.6965 34.0443 50.5467C33.7059 49.0365 33.3723 47.2373 33.0143 45.0628C32.8829 44.2639 32.6943 43.2805 32.476 42.1421C32.0867 40.1103 31.596 37.5517 31.2199 34.9044C35.4657 34.3116 44.5688 32.7746 50.702 29.8322L52.2206 33.4759C52.3758 33.8486 52.5044 34.1764 52.6165 34.4621C53.1275 35.7629 53.6101 36.9915 55.0559 37.4788C55.4023 37.5957 55.7353 37.6475 56.0759 37.6473C56.8846 37.6473 57.7377 37.3559 58.9201 36.9522C59.2451 36.841 59.6115 36.7159 60.0251 36.5796C61.6287 36.0508 64.8473 34.4547 67.8959 32.4281C68.9595 31.7209 69.2483 30.2855 68.5411 29.2221C67.8337 28.1583 66.3983 27.8699 65.3351 28.5769C62.491 30.4678 59.6709 31.8267 58.5756 32.1877C58.1444 32.3301 57.7633 32.4604 57.4251 32.5757C57.2564 32.6334 57.0812 32.6932 56.9125 32.7498C56.7922 32.4439 56.655 32.0945 56.4896 31.6977L53.9778 25.6708C53.7135 25.0366 53.1808 24.5527 52.5244 24.3502C51.8672 24.148 51.1551 24.2481 50.5799 24.6234C45.5777 27.8858 35.318 29.6475 30.7239 30.3ZM83.8182 98.746C83.8175 98.7488 83.8169 98.7514 83.8158 98.754L81.5294 106.374H76.2838L77.2466 102.781C77.5772 101.547 76.8451 100.279 75.6115 99.9485C74.3771 99.6177 73.1097 100.35 72.7793 101.584L71.4958 106.374H29.4708L27.1892 98.7694C27.1857 98.7579 27.1827 98.7464 27.179 98.7351L23.9203 87.8742H29.0177L30.3011 92.6646C30.578 93.6978 31.5121 94.3792 32.5335 94.3792C32.7314 94.3792 32.933 94.3537 33.1333 94.2997C34.3671 93.9693 35.0993 92.7012 34.7684 91.4674L33.8056 87.874H87.0797L83.8182 98.746ZM89.1336 97.1241L92.4031 86.2266C92.6132 85.5263 92.4799 84.7678 92.0435 84.1813C91.6068 83.5949 90.9192 83.2493 90.1881 83.2493H20.8125C20.0815 83.2493 19.3936 83.5949 18.9572 84.1813C18.5208 84.7678 18.3877 85.5261 18.5975 86.2266L21.867 97.1241H10.4646C11.2405 81.7313 19.7368 67.9228 33.1444 60.2714C34.1458 61.5004 35.3482 62.4788 36.8558 63.5114C34.6019 64.6832 32.4517 66.0685 30.4635 67.6343C29.4602 68.4247 29.2874 69.8785 30.0776 70.8819C30.5342 71.4612 31.2114 71.7636 31.8959 71.7636C32.3965 71.7636 32.9012 71.6016 33.3252 71.2678C35.1415 69.8373 37.1094 68.5752 39.1759 67.5159L41.3174 66.4174C41.4547 66.5091 41.5889 66.5977 41.7291 66.6927L41.8709 66.7818C46.3402 69.3617 50.9248 70.6701 55.4986 70.6701C55.4988 70.6701 55.4988 70.6701 55.499 70.6701C60.0728 70.6701 64.6585 69.3615 69.1284 66.7807L69.27 66.6918C70.3256 65.976 71.2921 65.3611 72.1449 64.8189C74.6392 63.2328 76.4464 62.0001 77.8547 60.2712C91.2628 67.9228 99.7593 81.7313 100.535 97.1239H89.1336V97.1241Z" fill="#F05023"/>
<path d="M33.8206 96.8662C32.5868 97.197 31.8551 98.4653 32.186 99.6989L32.4561 100.706C32.7332 101.739 33.6673 102.42 34.6885 102.42C34.8866 102.42 35.0882 102.395 35.2888 102.341C36.5226 102.01 37.2542 100.741 36.9234 99.5079L36.6533 98.5008C36.3225 97.2677 35.0557 96.5358 33.8206 96.8662Z" fill="#F05023"/>
<path d="M76.2981 97.3804C76.4987 97.4344 76.7003 97.4602 76.8987 97.4602C77.9193 97.4602 78.8537 96.7792 79.1308 95.7462L79.4009 94.7394C79.7322 93.506 79.0005 92.2378 77.7667 91.9067C76.5336 91.575 75.2653 92.3076 74.9341 93.5409L74.6639 94.5477C74.3327 95.7813 75.0643 97.0496 76.2981 97.3804Z" fill="#F05023"/>
</svg>
