<svg width="80" height="80" viewBox="0 0 80 80" fill="none" xmlns="http://www.w3.org/2000/svg">
<path d="M21.2359 72.1947C20.6945 69.06 17.9545 66.6667 14.6666 66.6667C12.0412 66.6667 9.76656 68.192 8.67984 70.4027C8.46516 70.2494 8.23578 70.1133 7.99984 69.9906V48C7.99984 47.2641 7.4025 46.6667 6.66656 46.6667C5.93062 46.6667 5.33328 47.2641 5.33328 48V69.3333C2.39203 69.3333 0 71.7253 0 74.6667C0 77.6081 2.39203 80 5.33328 80H20C22.2053 80 24 78.2053 24 76C24 74.2253 22.8386 72.7173 21.2359 72.1947ZM20 77.3333H5.33328C3.86266 77.3333 2.66656 76.1373 2.66656 74.6666C2.66656 73.1958 3.86266 72 5.33328 72C6.57734 72 7.68266 72.7227 8.08391 73.8C8.30922 74.4041 8.93328 74.76 9.57063 74.6453C10.2053 74.5306 10.6666 73.9786 10.6666 73.3333C10.6666 71.128 12.4612 69.3333 14.6666 69.3333C16.8719 69.3333 18.6666 71.128 18.6666 73.3333C18.6666 74.0692 19.2639 74.6666 19.9998 74.6666C20.7345 74.6666 21.3331 75.2652 21.3331 75.9998C21.3331 76.7345 20.7347 77.3333 20 77.3333Z" fill="#61AE56"/>
<path d="M78.6667 10.6667H53.3333C52.5973 10.6667 52 11.2641 52 12C52 12.7359 52.5973 13.3333 53.3333 13.3333H77.3333V42.1147L40.9427 5.72406C40.6812 5.46266 40.3386 5.33344 39.9959 5.33344C39.6533 5.33344 39.3106 5.46281 39.0492 5.72406L2.66672 42.1133V13.3333H17.3334C18.0694 13.3333 18.6667 12.7359 18.6667 12V6.66672C18.6667 5.93078 18.0694 5.33344 17.3334 5.33344H16V2.66672H24V5.33344H22.6667C21.9308 5.33344 21.3334 5.93078 21.3334 6.66672V12C21.3334 12.7359 21.9308 13.3333 22.6667 13.3333H26.6667C27.4027 13.3333 28 12.7359 28 12C28 11.2641 27.4027 10.6667 26.6667 10.6667H24V8H25.3333C26.0692 8 26.6666 7.40266 26.6666 6.66672V1.33328C26.6666 0.597344 26.0692 0 25.3333 0H14.6667C13.9308 0 13.3334 0.597344 13.3334 1.33328V6.66656C13.3334 7.4025 13.9308 7.99984 14.6667 7.99984H16V10.6666H1.33328C0.98 10.6666 0.64 10.8066 0.390625 11.0572C0.14 11.3067 0 11.6467 0 12L0.0053125 45.3333C0.0053125 45.8733 0.330625 46.3586 0.829375 46.5653C0.994687 46.6333 1.16672 46.6667 1.33875 46.6667C1.68672 46.6667 2.02813 46.5308 2.28141 46.2761L39.9959 8.54797L77.7239 46.2759C77.9786 46.5306 78.3198 46.6666 78.6666 46.6666C78.8386 46.6666 79.0119 46.6333 79.1772 46.5652C79.6745 46.3584 79.9998 45.8719 79.9998 45.3331V12C80 11.2641 79.4027 10.6667 78.6667 10.6667Z" fill="#61AE56"/>
<path d="M74.6667 69.3333V48C74.6667 47.2641 74.0694 46.6667 73.3334 46.6667C72.5975 46.6667 72.0002 47.2641 72.0002 48V69.9906C71.7642 70.1133 71.5348 70.2492 71.3202 70.4027C70.2334 68.192 67.9588 66.6667 65.3334 66.6667C62.0455 66.6667 59.3055 69.06 58.7641 72.1947C57.1614 72.7173 56 74.2253 56 76C56 76.4706 56.0959 76.9147 56.2467 77.3333H33.3333C32.5973 77.3333 32 77.9306 32 78.6666C32 79.4025 32.5973 79.9998 33.3333 79.9998H60H65.3333H74.6666C77.608 80 80 77.608 80 74.6667C80 71.7255 77.608 69.3333 74.6667 69.3333ZM74.6667 77.3333H65.3334H60C59.2653 77.3333 58.6667 76.7347 58.6667 76C58.6667 75.2653 59.2653 74.6667 60 74.6667C60.7359 74.6667 61.3333 74.0694 61.3333 73.3334C61.3333 71.1281 63.128 69.3334 65.3333 69.3334C67.5386 69.3334 69.3333 71.1281 69.3333 73.3334C69.3333 73.9788 69.7947 74.5308 70.4292 74.6455C71.0625 74.7614 71.6906 74.4041 71.9159 73.8002C72.3172 72.7228 73.4227 72.0002 74.6666 72.0002C76.1372 72.0002 77.3333 73.1961 77.3333 74.6669C77.3333 76.1377 76.1373 77.3333 74.6667 77.3333Z" fill="#61AE56"/>
<path d="M45.3336 26.6668C45.3336 23.7254 42.9415 21.3335 40.0003 21.3335C37.0589 21.3335 34.667 23.7255 34.667 26.6668C34.667 29.608 37.0589 32.0001 40.0003 32.0001C42.9417 32.0001 45.3336 29.608 45.3336 26.6668ZM37.3336 26.6668C37.3336 25.1961 38.5295 24.0001 40.0003 24.0001C41.4709 24.0001 42.667 25.196 42.667 26.6668C42.667 28.1374 41.4711 29.3335 40.0003 29.3335C38.5296 29.3333 37.3336 28.1374 37.3336 26.6668Z" fill="#61AE56"/>
<path d="M65.3331 45.3332H54.6663C53.9304 45.3332 53.3331 45.9306 53.3331 46.6665V61.3332H51.9998C51.2638 61.3332 50.6665 61.9306 50.6665 62.6665C50.6665 63.4025 51.2638 63.9998 51.9998 63.9998H67.9998C68.7357 63.9998 69.3331 63.4025 69.3331 62.6665C69.3331 61.9306 68.7357 61.3332 67.9998 61.3332H66.6665V46.6665C66.6665 45.9306 66.0692 45.3332 65.3331 45.3332ZM63.9998 61.3332H55.9998V55.9999H63.9998V61.3332ZM63.9998 53.3332H55.9998V48H63.9998V53.3332Z" fill="#61AE56"/>
<path d="M53.3334 73.3333C53.3334 72.5973 52.7361 72 52.0001 72H48.0001V46.6667C48.0001 45.9308 47.4028 45.3334 46.6668 45.3334H33.3336C32.5976 45.3334 32.0003 45.9308 32.0003 46.6667V72H28.0003C27.2643 72 26.667 72.5973 26.667 73.3333V78.6665C26.667 79.4025 27.2643 79.9998 28.0003 79.9998C28.7362 79.9998 29.3336 79.4025 29.3336 78.6665V74.6665H52.0001C52.7361 74.6667 53.3334 74.0694 53.3334 73.3333ZM45.3334 58.6667H44.0001C43.2642 58.6667 42.6668 59.264 42.6668 60C42.6668 60.7359 43.2642 61.3333 44.0001 61.3333H45.3334V72H34.6667V48H45.3334V58.6667Z" fill="#61AE56"/>
<path d="M25.3331 45.3332H14.6665C13.9306 45.3332 13.3332 45.9306 13.3332 46.6665V61.3332H11.9998C11.2638 61.3332 10.6665 61.9306 10.6665 62.6665C10.6665 63.4024 11.2638 63.9999 11.9998 63.9999H27.9998C28.7357 63.9999 29.3331 63.4026 29.3331 62.6667C29.3331 61.9307 28.7357 61.3334 27.9998 61.3334H26.6665V46.6667C26.6665 45.9306 26.0692 45.3332 25.3331 45.3332ZM23.9998 61.3332H15.9998V55.9999H23.9998V61.3332ZM23.9998 53.3332H15.9998V47.9999H23.9998V53.3332Z" fill="#61AE56"/>
</svg>
