<svg width="84" height="78" viewBox="0 0 84 78" fill="none" xmlns="http://www.w3.org/2000/svg">
<path d="M27.0297 66.6428H72.8108C73.4842 66.6428 74.0299 66.097 74.0299 65.4237C74.0299 64.7504 73.4842 64.2046 72.8108 64.2046H27.0297C26.3562 64.2046 25.8105 64.7504 25.8105 65.4237C25.8105 66.0971 26.3564 66.6428 27.0297 66.6428Z" fill="#61AE56"/>
<path d="M27.0297 25.7526H31.0412C31.7147 25.7526 32.2603 25.2068 32.2603 24.5335C32.2603 23.8602 31.7147 23.3144 31.0412 23.3144H27.0297C26.3562 23.3144 25.8105 23.8602 25.8105 24.5335C25.8105 25.2069 26.3564 25.7526 27.0297 25.7526Z" fill="#61AE56"/>
<path d="M27.0297 35.9752H31.0412C31.7147 35.9752 32.2603 35.4294 32.2603 34.7561C32.2603 34.0828 31.7147 33.537 31.0412 33.537H27.0297C26.3562 33.537 25.8105 34.0828 25.8105 34.7561C25.8105 35.4296 26.3564 35.9752 27.0297 35.9752Z" fill="#61AE56"/>
<path d="M27.0297 46.198H31.0412C31.7147 46.198 32.2603 45.6521 32.2603 44.9788C32.2603 44.3056 31.7147 43.7597 31.0412 43.7597H27.0297C26.3562 43.7597 25.8105 44.3056 25.8105 44.9788C25.8105 45.652 26.3564 46.198 27.0297 46.198Z" fill="#61AE56"/>
<path d="M27.0297 56.4206H31.0412C31.7147 56.4206 32.2603 55.8748 32.2603 55.2015C32.2603 54.5282 31.7147 53.9824 31.0412 53.9824H27.0297C26.3562 53.9824 25.8105 54.5282 25.8105 55.2015C25.8105 55.8748 26.3564 56.4206 27.0297 56.4206Z" fill="#61AE56"/>
<path d="M41.4557 56.4204H66.9632C68.2288 56.4204 69.2584 55.3909 69.2584 54.1251V35.0324H70.7816C71.4742 35.0324 72.0786 34.588 72.2852 33.9266C72.492 33.2648 72.2481 32.555 71.6786 32.1603L55.1062 20.6774C54.5769 20.3105 53.8422 20.3105 53.3126 20.6774L36.7403 32.1603C36.1707 32.5552 35.9269 33.265 36.134 33.9267C36.3406 34.588 36.9448 35.0322 37.6374 35.0322H39.1606V54.1251C39.1605 55.3909 40.19 56.4204 41.4557 56.4204ZM57.1837 53.9822H51.2351V43.6756H57.1837V53.9822ZM66.8203 53.9822H66.8201H59.622V43.4783C59.622 42.2428 58.6168 41.2376 57.3812 41.2376H51.0378C49.8021 41.2376 48.797 42.2428 48.797 43.4783V53.9824H41.5989V35.0324H66.8203V53.9822ZM54.2094 23.0223L68.0235 32.5942H40.3953L54.2094 23.0223Z" fill="#61AE56"/>
<path d="M82.0062 19.7977C82.6796 19.7977 83.2253 19.2518 83.2253 18.5785V14.1273C83.2253 11.6983 81.2528 9.72222 78.8284 9.72222H19.2928V9.66793C19.2928 4.33714 14.9656 0 9.64648 0C4.32738 0 0.000162549 4.33714 0.000162549 9.66793V47.8057C0.000162549 48.479 0.54584 49.0248 1.21928 49.0248C1.89272 49.0248 2.4384 48.479 2.4384 47.8057V9.66793C2.4384 5.68158 5.67199 2.43824 9.64648 2.43824C13.621 2.43824 16.8546 5.68142 16.8546 9.66793V10.9413V61.9076C16.687 61.7196 16.5113 61.5369 16.3276 61.36C14.6483 59.7433 12.5 58.8112 10.2037 58.6822C10.1564 58.6794 10.1084 58.6789 10.061 58.677C9.94069 58.6719 9.82041 58.6677 9.69947 58.6671C9.68175 58.6669 9.66436 58.6656 9.64648 58.6656C9.59511 58.6656 9.54456 58.669 9.49319 58.6698C9.4194 58.671 9.34592 58.67 9.2718 58.6727C9.24205 58.6739 9.21296 58.6768 9.18321 58.6783C9.11787 58.6814 9.05301 58.6861 8.98783 58.6905C8.88558 58.6975 8.78367 58.7054 8.68223 58.7157C8.61429 58.7225 8.54667 58.7301 8.47905 58.7384C8.38461 58.75 8.29082 58.763 8.19719 58.7773C8.12323 58.7885 8.04943 58.8 7.97612 58.8129C7.89534 58.8272 7.81504 58.8433 7.7349 58.8595C7.65037 58.8766 7.56601 58.8935 7.4823 58.9128C7.42638 58.9258 7.37128 58.9406 7.31569 58.9544C5.40134 59.4325 3.71018 60.4818 2.43824 61.9151V52.7499C2.43824 52.0767 1.89256 51.5308 1.21912 51.5308C0.545677 51.5308 0 52.0767 0 52.7499V68.3327C0 68.3478 0.00162549 68.3625 0.00227569 68.3774C0.0121912 70.881 0.961966 73.235 2.70482 75.045C4.53951 76.9506 7.00473 78 9.64631 78H78.8284C81.2528 78 83.2253 76.0239 83.2253 73.5949V23.6566C83.2253 22.9833 82.6796 22.4375 82.0062 22.4375C81.3327 22.4375 80.7871 22.9833 80.7871 23.6566V73.5947C80.7871 74.6793 79.9085 75.5616 78.8284 75.5616H9.64648C7.67362 75.5616 5.83226 74.7775 4.46132 73.3537C3.10696 71.947 2.39337 70.0995 2.44328 68.143C2.44441 68.1017 2.44458 68.0603 2.44636 68.019C2.44929 67.9481 2.45449 67.8777 2.45953 67.8074C2.46311 67.7575 2.46636 67.7072 2.47091 67.6576C2.47709 67.5904 2.48521 67.5235 2.49318 67.4567C2.49919 67.4065 2.50521 67.3563 2.51236 67.3064C2.52211 67.2376 2.53349 67.1692 2.54519 67.1009C2.553 67.0557 2.5608 67.0104 2.56941 66.9653C2.58356 66.8916 2.59916 66.8182 2.61558 66.7453C2.62387 66.7085 2.63216 66.6718 2.64094 66.6352C2.6606 66.5539 2.68157 66.4733 2.704 66.393C2.71116 66.3675 2.71831 66.3421 2.72562 66.3166C2.75196 66.2262 2.77975 66.1364 2.8095 66.0474C2.81373 66.0349 2.81795 66.0224 2.82218 66.0099C3.50716 64 5.05674 62.38 7.01871 61.6032C7.02814 61.5994 7.03756 61.5957 7.04715 61.592C7.13444 61.5578 7.22287 61.5258 7.31178 61.4951C7.33682 61.4865 7.36185 61.4779 7.38704 61.4694C7.46344 61.4439 7.54049 61.42 7.61786 61.3971C7.65688 61.3855 7.69605 61.3743 7.73539 61.3634C7.80171 61.3451 7.86851 61.3275 7.93565 61.3109C7.98718 61.2982 8.03903 61.2864 8.09104 61.2748C8.14875 61.262 8.20662 61.2496 8.26481 61.2381C8.32658 61.2261 8.38867 61.2152 8.45093 61.2046C8.50213 61.196 8.5535 61.1874 8.60502 61.1797C8.67362 61.1698 8.74254 61.1614 8.81162 61.1534C8.85958 61.1479 8.90753 61.1419 8.95581 61.1373C9.02635 61.1305 9.09739 61.1258 9.16842 61.1211C9.21783 61.1178 9.26692 61.1141 9.31666 61.1118C9.38185 61.1089 9.44735 61.1081 9.51302 61.1068C9.57122 61.1058 9.62957 61.1042 9.6876 61.1043C9.75912 61.1048 9.83016 61.1072 9.90103 61.1097C9.95012 61.1113 9.99921 61.1124 10.0481 61.115C10.1362 61.1199 10.2239 61.1271 10.3111 61.1352C10.3406 61.1378 10.3703 61.1399 10.3996 61.1428C10.5135 61.1547 10.6268 61.169 10.7391 61.1862C10.7406 61.1864 10.7419 61.1866 10.7434 61.1869C13.9584 61.6814 16.4804 64.314 16.8162 67.5871C16.8411 67.8332 16.8537 68.0819 16.8537 68.333C16.8537 68.3423 16.8555 68.3511 16.8559 68.3602C16.8568 68.4033 16.8601 68.4457 16.8654 68.4876C16.8679 68.5065 16.8708 68.5252 16.8741 68.5437C16.8814 68.5853 16.8906 68.6261 16.902 68.6661C16.9053 68.6773 16.9077 68.6889 16.9113 68.7001C16.9258 68.7461 16.9436 68.7905 16.9633 68.8339C16.9703 68.8495 16.9779 68.8647 16.9856 68.88C17.0043 68.9171 17.0246 68.9532 17.0469 68.9879C17.0538 68.9988 17.0603 69.0099 17.0675 69.0206C17.0935 69.0587 17.1223 69.0946 17.1523 69.1294C17.1642 69.143 17.1762 69.1562 17.1888 69.1693C17.218 69.2002 17.2486 69.2297 17.2808 69.2573C17.291 69.2661 17.3012 69.2748 17.3118 69.2833C17.3474 69.3119 17.385 69.3381 17.4238 69.3626C17.437 69.3709 17.45 69.3789 17.4635 69.3867C17.5085 69.4128 17.5548 69.4369 17.6033 69.4572C17.6046 69.4577 17.6057 69.4585 17.607 69.4592C17.6115 69.4611 17.6163 69.4619 17.6208 69.4637C17.6655 69.4816 17.7117 69.4964 17.759 69.5091C17.7721 69.5125 17.7851 69.5161 17.7983 69.5192C17.8489 69.5309 17.9002 69.5403 17.9531 69.5455C17.9612 69.5463 17.9692 69.5461 17.9773 69.5466C18.0091 69.5492 18.0412 69.5515 18.0738 69.5515C18.087 69.5515 18.0997 69.5499 18.1127 69.5496C18.128 69.5491 18.1431 69.5483 18.1584 69.5473C18.2079 69.5439 18.257 69.5382 18.3048 69.5291C18.3076 69.5286 18.3105 69.5284 18.3133 69.5278C18.3667 69.517 18.4186 69.5021 18.4693 69.4847C18.4792 69.4813 18.4888 69.4777 18.4986 69.474C18.5464 69.4563 18.593 69.4361 18.6377 69.4127C18.641 69.4111 18.6444 69.4096 18.6476 69.408C18.6951 69.3826 18.7401 69.3537 18.7835 69.3225C18.7933 69.3155 18.8029 69.3082 18.8125 69.3009C18.8555 69.2679 18.8973 69.2332 18.9355 69.1949C18.9357 69.1947 18.9358 69.1945 18.936 69.1944C18.9389 69.1915 18.9414 69.1882 18.9443 69.1851C18.9692 69.1598 18.9932 69.1336 19.0158 69.1061C19.0231 69.0972 19.0293 69.0878 19.0363 69.0787C19.0537 69.0562 19.0711 69.034 19.0868 69.0104C19.0924 69.0021 19.0969 68.9933 19.1023 68.985C19.1184 68.9597 19.1343 68.9343 19.1484 68.9078C19.1515 68.902 19.1541 68.8958 19.1571 68.8898C19.1723 68.8603 19.1868 68.8304 19.1996 68.7997C19.2013 68.7958 19.2024 68.7917 19.204 68.7877C19.2172 68.7549 19.2296 68.7217 19.24 68.6876C19.2413 68.6832 19.2421 68.6788 19.2434 68.6744C19.2531 68.6409 19.2621 68.6069 19.2691 68.5723C19.2712 68.5621 19.272 68.5515 19.2738 68.5411C19.2788 68.5123 19.2839 68.4836 19.2868 68.454C19.2908 68.4137 19.293 68.373 19.293 68.3322V12.1603H78.8284C79.9085 12.1603 80.7871 13.0426 80.7871 14.1271V18.5784C80.7871 19.252 81.3327 19.7977 82.0062 19.7977Z" fill="#61AE56"/>
</svg>
