<svg width="791" height="44" viewBox="0 0 791 44" fill="none" xmlns="http://www.w3.org/2000/svg">
<path d="M12.4091 9.8V35H5.28108V15.308H0.601078V9.8H12.4091Z" fill="#141415"/>
<path d="M399.105 29.348V35H379.485V30.536L388.917 21.716C389.829 20.852 390.441 20.12 390.753 19.52C391.065 18.896 391.221 18.272 391.221 17.648C391.221 16.832 390.945 16.196 390.393 15.74C389.841 15.284 389.037 15.056 387.981 15.056C387.045 15.056 386.181 15.272 385.389 15.704C384.621 16.112 383.985 16.712 383.481 17.504L378.189 14.552C379.173 12.92 380.553 11.636 382.329 10.7C384.105 9.764 386.205 9.296 388.629 9.296C390.549 9.296 392.241 9.608 393.705 10.232C395.193 10.856 396.345 11.756 397.161 12.932C398.001 14.084 398.421 15.428 398.421 16.964C398.421 18.332 398.121 19.628 397.521 20.852C396.945 22.052 395.817 23.42 394.137 24.956L389.385 29.348H399.105Z" fill="#141415"/>
<path d="M774.482 19.88C776.57 20.312 778.166 21.176 779.27 22.472C780.398 23.744 780.962 25.292 780.962 27.116C780.962 28.604 780.554 29.984 779.738 31.256C778.946 32.528 777.722 33.56 776.066 34.352C774.434 35.12 772.406 35.504 769.982 35.504C768.206 35.504 766.442 35.288 764.69 34.856C762.962 34.424 761.462 33.812 760.19 33.02L762.782 27.656C763.766 28.328 764.87 28.844 766.094 29.204C767.342 29.564 768.566 29.744 769.766 29.744C770.99 29.744 771.962 29.516 772.682 29.06C773.402 28.604 773.762 27.956 773.762 27.116C773.762 25.484 772.478 24.668 769.91 24.668H766.922V20.168L771.422 15.308H761.486V9.8H779.702V14.264L774.482 19.88Z" fill="#141415"/>
<path d="M351.707 21.7071C352.098 21.3166 352.098 20.6834 351.707 20.2929L345.343 13.9289C344.953 13.5384 344.319 13.5384 343.929 13.9289C343.538 14.3195 343.538 14.9526 343.929 15.3431L349.586 21L343.929 26.6569C343.538 27.0474 343.538 27.6805 343.929 28.0711C344.319 28.4616 344.953 28.4616 345.343 28.0711L351.707 21.7071ZM57 22H351V20H57V22Z" fill="#61AE56"/>
<path d="M728.707 21.7071C729.098 21.3166 729.098 20.6834 728.707 20.2929L722.343 13.9289C721.953 13.5384 721.319 13.5384 720.929 13.9289C720.538 14.3195 720.538 14.9526 720.929 15.3431L726.586 21L720.929 26.6569C720.538 27.0474 720.538 27.6805 720.929 28.0711C721.319 28.4616 721.953 28.4616 722.343 28.0711L728.707 21.7071ZM434 22H728V20H434V22Z" fill="#61AE56"/>
</svg>
