<svg width="80" height="78" viewBox="0 0 80 78" fill="none" xmlns="http://www.w3.org/2000/svg">
<path d="M26.0213 53.6351C29.2878 58.2407 32.5491 62.3598 34.7104 65.0129C35.025 65.3989 35.3198 65.7571 35.6054 66.1021H29.083C28.3529 66.1021 27.7612 66.6938 27.7612 67.424C27.7612 68.1541 28.3529 68.7458 29.083 68.7458H50.2336C50.9637 68.7458 51.5555 68.1541 51.5555 67.424C51.5555 66.6938 50.9637 66.1021 50.2336 66.1021H43.7113C43.9968 65.7571 44.2916 65.3988 44.6077 65.0129C46.7676 62.369 50.0276 58.2407 53.2953 53.6351C56.5375 49.1574 59.4558 44.4539 62.0279 39.5607C64.7273 34.2597 66.0969 29.8591 66.0969 26.4803C66.1059 19.4595 63.3199 12.7238 58.3543 7.76042C58.0227 7.41652 57.5313 7.27833 57.069 7.39901C56.6068 7.51969 56.2455 7.88033 56.1242 8.34243C56.0029 8.80454 56.1403 9.29608 56.4838 9.62821C60.9533 14.0965 63.4609 20.16 63.453 26.4801C63.453 29.4386 62.1813 33.436 59.6723 38.3602C57.1583 43.1401 54.3061 47.7345 51.138 52.1083C47.9152 56.6544 44.6936 60.7272 42.5588 63.3446C41.849 64.2145 41.2104 64.9838 40.6657 65.6342C40.4115 65.9245 40.0444 66.0909 39.6585 66.0909C39.2726 66.0909 38.9055 65.9244 38.6513 65.6342C38.1066 64.9839 37.4682 64.2145 36.7582 63.3446C34.6234 60.7286 31.4018 56.6556 28.179 52.1083C25.0108 47.7345 22.1587 43.1401 19.6447 38.3602C17.1331 33.436 15.864 29.4386 15.864 26.4801C15.8632 16.9051 21.5894 8.25816 30.4052 4.52166C36.3288 2.03778 43.0018 2.03778 48.9254 4.52166C49.3604 4.706 49.8606 4.6445 50.2378 4.35993C50.615 4.07551 50.8118 3.61139 50.754 3.14247C50.6962 2.67354 50.3927 2.27108 49.9577 2.08673C36.4961 -3.59114 20.9803 2.71599 15.2983 16.1758C13.9203 19.4361 13.2136 22.9407 13.2203 26.4801C13.2203 29.8589 14.5898 34.2597 17.2892 39.5672C19.8611 44.4582 22.7795 49.1595 26.0213 53.6351Z" fill="#61AE56"/>
<path d="M39.6581 14.5472C40.3882 14.5472 40.9799 13.9554 40.9799 13.2253C40.9799 12.4952 40.3882 11.9035 39.6581 11.9035C33.3515 11.9033 27.9231 16.3583 26.6926 22.5437C25.4621 28.729 28.7725 34.9221 34.5989 37.3357C40.4253 39.7492 47.1453 37.7107 50.6491 32.4671C54.153 27.2234 53.4647 20.2348 49.0054 15.7754C48.6734 15.4318 48.182 15.2939 47.7197 15.4149C47.2576 15.5359 46.8967 15.8968 46.7757 16.3589C46.6547 16.8212 46.7926 17.3126 47.1362 17.6445C50.7038 21.212 51.2545 26.8027 48.4517 30.9977C45.6489 35.1928 40.2729 36.8237 35.6117 34.8932C30.9506 32.9627 28.3022 28.0082 29.2862 23.0598C30.2702 18.1114 34.6128 14.5474 39.6581 14.5472Z" fill="#61AE56"/>
<path d="M78.8176 72.1448L70.6877 57.6036C69.9526 56.3116 68.5772 55.5175 67.0908 55.5268H57.6694C56.9393 55.5268 56.3476 56.1186 56.3476 56.8487C56.3476 57.5788 56.9393 58.1705 57.6694 58.1705H67.0908C67.62 58.1603 68.1137 58.4362 68.3823 58.8923L76.5095 73.4335C76.7309 73.8118 76.7262 74.281 76.4976 74.655C76.2276 75.1011 75.7393 75.3684 75.218 75.3557H4.09848C3.57766 75.3681 3.09 75.1007 2.82014 74.655C2.59149 74.281 2.587 73.8118 2.80821 73.4335L10.9354 58.8923C11.2036 58.4364 11.6968 58.1605 12.2255 58.1705H21.6469C22.377 58.1705 22.9688 57.5788 22.9688 56.8487C22.9688 56.1186 22.377 55.5268 21.6469 55.5268H12.2257C10.7385 55.517 9.36196 56.3111 8.62613 57.6036L0.497528 72.1448C-0.180217 73.342 -0.164571 74.8105 0.53858 75.993C1.27937 77.2521 2.63781 78.0179 4.09848 77.9997H75.218C76.6782 78.0174 78.0362 77.2518 78.7766 75.993C79.4798 74.8104 79.4955 73.342 78.8176 72.1448Z" fill="#61AE56"/>
<path d="M64.7749 62.1365H59.4872C59.2262 62.1369 58.971 62.2141 58.7535 62.3586L54.7878 65.0025C54.1804 65.4078 54.0165 66.2286 54.4215 66.836C54.8268 67.4435 55.6477 67.6074 56.2551 67.2023L59.8838 64.7805H64.7749C65.505 64.7805 66.0967 64.1886 66.0967 63.4586C66.0967 62.7282 65.505 62.1365 64.7749 62.1365Z" fill="#61AE56"/>
<path d="M56.8433 71.3897C56.8433 72.1199 57.435 72.7116 58.1651 72.7116H68.7406C69.4707 72.7116 70.0625 72.1199 70.0625 71.3897C70.0625 70.6596 69.4707 70.0679 68.7406 70.0679H58.1651C57.435 70.0679 56.8433 70.6596 56.8433 71.3897Z" fill="#61AE56"/>
<path d="M23.795 67.4241C24.3778 67.4249 24.8923 67.0438 25.0616 66.4861C25.2309 65.9285 25.015 65.3257 24.5301 65.0024L20.5643 62.3585C20.3465 62.2138 20.0907 62.1365 19.8292 62.1363H14.5416C13.8115 62.1363 13.2197 62.7283 13.2197 63.4582C13.2197 64.1883 13.8117 64.7801 14.5416 64.7801H19.4327L23.0654 67.2018C23.2815 67.3462 23.5354 67.4235 23.795 67.4241Z" fill="#61AE56"/>
<path d="M10.576 70.0679C9.84592 70.0679 9.25415 70.6596 9.25415 71.3897C9.25415 72.1199 9.84592 72.7116 10.576 72.7116H21.1515C21.8816 72.7116 22.4733 72.1199 22.4733 71.3897C22.4733 70.6596 21.8816 70.0679 21.1515 70.0679H10.576Z" fill="#61AE56"/>
</svg>
