<svg width="54" height="55" viewBox="0 0 54 55" fill="none" xmlns="http://www.w3.org/2000/svg">
<path d="M38.2896 12.4612H15.7104C13.4102 12.4612 11.5454 14.3295 11.5454 16.6343V39.258C11.5454 41.5629 13.4101 43.4311 15.7104 43.4311H26.8462L26.8655 32.3645H23.9957C23.6227 32.3645 23.32 32.0623 23.3188 31.6886L23.3048 28.1211C23.3033 27.7456 23.6071 27.4401 23.9819 27.4401H26.8466V23.9932C26.8466 19.9931 29.2848 17.815 32.8461 17.815H35.7686C36.1423 17.815 36.4457 18.1188 36.4457 18.4935V21.5013C36.4457 21.8761 36.1426 22.1798 35.7691 22.1798L33.9755 22.1808C32.0387 22.1808 31.6635 23.1029 31.6635 24.4564V27.4406H35.9192C36.3251 27.4406 36.6396 27.7954 36.5916 28.1986L36.1696 31.7661C36.1294 32.1076 35.8403 32.3647 35.4973 32.3647H31.6827L31.6634 43.4318H38.2895C40.5897 43.4318 42.4545 41.5632 42.4545 39.2585V16.6343C42.4546 14.3296 40.5898 12.4612 38.2896 12.4612Z" fill="white"/>
<path d="M26.8464 43.4311L26.8661 32.3645H26.8179V43.4311H26.8464Z" fill="white"/>
</svg>
