<svg width="54" height="55" viewBox="0 0 54 55" fill="none" xmlns="http://www.w3.org/2000/svg">
<path d="M33.2465 12.4622H20.7533C15.676 12.4622 11.5454 16.6009 11.5454 21.6881V34.206C11.5454 39.293 15.676 43.432 20.7534 43.432H33.2467C38.3237 43.432 42.4546 39.2932 42.4546 34.206V21.6881C42.4545 16.6009 38.3238 12.4622 33.2465 12.4622ZM39.3451 34.2061C39.3451 37.5807 36.6147 40.3165 33.2467 40.3165H20.7534C17.3853 40.3165 14.6549 37.5807 14.6549 34.2061V21.6882C14.6549 18.3135 17.3853 15.5777 20.7534 15.5777H33.2467C36.6147 15.5777 39.3451 18.3137 39.3451 21.6882V34.2061Z" fill="white"/>
<path d="M26.9997 19.9377C22.5917 19.9377 19.0054 23.5312 19.0054 27.9478C19.0054 32.3641 22.5917 35.9575 26.9997 35.9575C31.4077 35.9575 34.9937 32.3644 34.9937 27.9478C34.9937 23.5312 31.4077 19.9377 26.9997 19.9377ZM26.9997 32.842C24.3019 32.842 22.1148 30.651 22.1148 27.9478C22.1148 25.2446 24.3019 23.0533 26.9997 23.0533C29.6975 23.0533 31.8843 25.2445 31.8843 27.9478C31.8843 30.6509 29.6975 32.842 26.9997 32.842Z" fill="white"/>
</svg>
