<svg width="257" height="40" viewBox="0 0 257 40" fill="none" xmlns="http://www.w3.org/2000/svg">
<rect width="39.5443" height="40" fill="white"/>
<path d="M37.705 1.86047H1.83929V38.1395H37.705V1.86047Z" fill="#61AE56"/>
<path fill-rule="evenodd" clip-rule="evenodd" d="M33.7675 5.75679H5.69122V34.1566H33.7675V5.75679ZM1.83929 1.86047H37.705V38.1395H1.83929V1.86047Z" fill="#20201F"/>
<path d="M37.705 10.2325H11.0356V38.1395H37.705V10.2325Z" fill="white"/>
<path fill-rule="evenodd" clip-rule="evenodd" d="M33.8228 14.2066H14.9179V34.0771H33.9072V14.2066H33.8228ZM11.0356 10.2325H37.705V38.1395H11.0356V10.2325Z" fill="#20201F"/>
<path d="M37.705 19.5349H19.3123V38.1395H37.705V19.5349Z" fill="#C13323"/>
<path fill-rule="evenodd" clip-rule="evenodd" d="M33.8009 23.5717H23.3032V34.2782H33.8877V23.5717H33.8009ZM19.3123 19.5349H37.705V38.1395H19.3123V19.5349Z" fill="#20201F"/>
<path d="M243.325 12.8372L245.229 7.93434L247.133 12.8372H243.325ZM250.249 21.067H257L248.518 1.36799H242.113L233.544 21.067H240.209L241.507 17.6525H248.864L250.249 21.067ZM228.178 21.067H235.794L227.658 10.0356L235.448 1.36799H228.351L221.946 8.5472V1.36799H215.541V21.067H221.946V16.1642L223.417 14.5007L228.178 21.067ZM205.674 1.36799V8.3721H199.615V1.36799H193.037V21.067H199.615V13.8003H205.674V21.067H212.252V1.36799H205.674ZM182.044 21.5048C188.103 21.5048 191.133 18.4405 191.133 14.8509C191.133 7.58414 180.4 9.59782 180.4 7.23393C180.4 6.53352 181.006 6.00821 182.91 6.00821C184.641 6.00821 186.372 6.44597 188.363 7.49658L190.354 2.68126C188.363 1.5431 185.593 0.930237 182.996 0.930237C176.938 0.930237 173.908 3.90698 173.908 7.58414C173.908 14.9384 184.641 12.9248 184.641 15.3762C184.641 16.0766 183.949 16.4268 182.131 16.4268C179.967 16.4268 177.544 15.7264 175.726 14.5882L173.649 19.4036C175.553 20.7168 178.842 21.5048 182.044 21.5048ZM161.445 16.1642C159.021 16.1642 157.117 14.3256 157.117 11.2613C157.117 8.197 159.021 6.35842 161.445 6.35842C163.868 6.35842 165.772 8.197 165.772 11.2613C165.859 14.238 163.868 16.1642 161.445 16.1642ZM161.445 21.5048C167.763 21.5048 172.437 17.2148 172.437 11.2613C172.437 5.3078 167.763 1.01779 161.445 1.01779C155.126 1.01779 150.452 5.3078 150.452 11.2613C150.452 17.2148 155.126 21.5048 161.445 21.5048ZM151.231 1.36799H144.913L140.931 8.197L136.95 1.36799H130.026L137.383 13.8003V21.067H143.961V13.8878L151.231 1.36799ZM123.534 8.80985C123.534 10.2107 122.668 11.0862 120.851 11.0862H118.427V6.53352H120.851C122.755 6.53352 123.534 7.32148 123.534 8.80985ZM123.621 21.067H130.631L126.563 15.026C128.9 13.8003 130.199 11.699 130.199 8.80985C130.199 4.25719 126.736 1.36799 121.37 1.36799H112.022V21.067H118.6V16.1642H120.418L123.621 21.067ZM98.0006 21.067H104.579V6.53352H110.291V1.36799H92.3746V6.53352H98.0872V21.067H98.0006ZM80.084 12.8372L81.9016 7.93434L83.8058 12.8372H80.084ZM86.9217 21.067H93.6729L85.1906 1.36799H78.7857L70.3034 21.067H76.968L78.2663 17.6525H85.6234L86.9217 21.067ZM69.1782 21.067V1.36799H63.8118L57.6665 11.8741L51.3481 1.36799H45.9818V21.067H51.954V12.3995L56.1951 19.316H58.9648L63.206 12.1368V21.067H69.1782Z" fill="white"/>
<path d="M95.3175 36.6512V33.0616H100.77V31.7483H95.3175V28.3338H101.463V26.933H93.7595V37.9644H101.722V36.5636H95.3175V36.6512ZM87.2679 38.1395C90.1242 38.1395 91.5091 36.6512 91.5091 34.9877C91.5091 30.9603 84.8444 32.6238 84.8444 29.9097C84.8444 28.9467 85.6234 28.1587 87.5276 28.1587C88.4797 28.1587 89.6049 28.4213 90.557 29.0342L91.0763 27.8085C90.2108 27.1956 88.8259 26.8454 87.5276 26.8454C84.6713 26.8454 83.373 28.3338 83.373 29.9973C83.373 34.1122 90.0377 32.4487 90.0377 35.0752C90.0377 36.0383 89.2587 36.7387 87.3545 36.7387C85.9696 36.7387 84.5848 36.2134 83.7192 35.4255L83.0268 36.8263C83.9789 37.6142 85.6234 38.1395 87.2679 38.1395ZM76.2756 38.1395C79.1319 38.1395 80.863 36.4761 80.863 33.2367V26.933H79.305V33.1491C79.305 35.6006 78.1798 36.7387 76.1891 36.7387C74.1983 36.7387 73.0731 35.6006 73.0731 33.1491V26.933H71.5152V33.2367C71.6017 36.4761 73.3328 38.1395 76.2756 38.1395ZM63.5522 36.7387C61.1287 36.7387 59.3111 34.9001 59.3111 32.4487C59.3111 29.9973 61.1287 28.1587 63.5522 28.1587C65.9757 28.1587 67.7933 29.9973 67.7933 32.4487C67.7068 34.9877 65.9757 36.7387 63.5522 36.7387ZM63.5522 38.1395C66.8412 38.1395 69.3513 35.7757 69.3513 32.4487C69.3513 29.2093 66.8412 26.7579 63.5522 26.7579C60.1766 26.7579 57.7531 29.2093 57.7531 32.4487C57.6665 35.7757 60.1766 38.1395 63.5522 38.1395ZM53.6851 27.0205V31.7483H47.3666V27.0205H45.8087V38.052H47.3666V33.1491H53.6851V38.052H55.243V27.0205H53.6851Z" fill="white"/>
</svg>
