<svg width="40" height="40" viewBox="0 0 40 40" fill="none" xmlns="http://www.w3.org/2000/svg">
<rect width="39.5443" height="40" fill="white"/>
<path d="M37.705 1.86047H1.83929V38.1395H37.705V1.86047Z" fill="#61AE56"/>
<path fill-rule="evenodd" clip-rule="evenodd" d="M33.7675 5.75679H5.69122V34.1566H33.7675V5.75679ZM1.83929 1.86047H37.705V38.1395H1.83929V1.86047Z" fill="#20201F"/>
<path d="M37.705 10.2325H11.0356V38.1395H37.705V10.2325Z" fill="white"/>
<path fill-rule="evenodd" clip-rule="evenodd" d="M33.8228 14.2066H14.9179V34.0771H33.9072V14.2066H33.8228ZM11.0356 10.2325H37.705V38.1395H11.0356V10.2325Z" fill="#20201F"/>
<path d="M37.705 19.5349H19.3123V38.1395H37.705V19.5349Z" fill="#C13323"/>
<path fill-rule="evenodd" clip-rule="evenodd" d="M33.8009 23.5717H23.3032V34.2782H33.8877V23.5717H33.8009ZM19.3123 19.5349H37.705V38.1395H19.3123V19.5349Z" fill="#20201F"/>
</svg>
