<svg width="257" height="37" viewBox="0 0 257 37" fill="none" xmlns="http://www.w3.org/2000/svg">
<g clip-path="url(#clip0)">
<path d="M36.1243 0.924988H0V37H36.1243V0.924988Z" fill="#61AE56"/>
<path fill-rule="evenodd" clip-rule="evenodd" d="M32.1584 4.79939H3.8797V33.0395H32.1584V4.79939ZM0 0.924988H36.1243V37H0V0.924988Z" fill="#20201F"/>
<path d="M36.1243 9.25H9.2627V37H36.1243V9.25Z" fill="white"/>
<path fill-rule="evenodd" clip-rule="evenodd" d="M32.2141 13.2017H13.1729V32.9604H32.2991V13.2017H32.2141ZM9.2627 9.25H36.1243V37H9.2627V9.25Z" fill="#20201F"/>
<path d="M36.1244 18.5H17.5991V37H36.1244V18.5Z" fill="#C13323"/>
<path fill-rule="evenodd" clip-rule="evenodd" d="M32.1921 22.5141H21.6188V33.1604H32.2795V22.5141H32.1921ZM17.5991 18.5H36.1244V37H17.5991V18.5Z" fill="#20201F"/>
<path d="M243.226 11.84L245.144 6.96471L247.062 11.84H243.226ZM250.2 20.0235H257L248.457 0.435294H242.005L233.375 20.0235H240.088L241.395 16.6282H248.805L250.2 20.0235ZM227.97 20.0235H235.641L227.447 9.05412L235.293 0.435294H228.144L221.693 7.57412V0.435294H215.242V20.0235H221.693V15.1482L223.175 13.4941L227.97 20.0235ZM205.304 0.435294V7.4H199.201V0.435294H192.576V20.0235H199.201V12.7976H205.304V20.0235H211.929V0.435294H205.304ZM181.504 20.4588C187.607 20.4588 190.658 17.4118 190.658 13.8424C190.658 6.61647 179.848 8.61882 179.848 6.26823C179.848 5.57176 180.458 5.04941 182.376 5.04941C184.119 5.04941 185.863 5.48471 187.868 6.52941L189.873 1.74118C187.868 0.609412 185.078 0 182.463 0C176.361 0 173.309 2.96 173.309 6.61647C173.309 13.9294 184.119 11.9271 184.119 14.3647C184.119 15.0612 183.422 15.4094 181.591 15.4094C179.412 15.4094 176.971 14.7129 175.14 13.5812L173.048 18.3694C174.966 19.6753 178.279 20.4588 181.504 20.4588ZM160.756 15.1482C158.315 15.1482 156.397 13.32 156.397 10.2729C156.397 7.22588 158.315 5.39765 160.756 5.39765C163.197 5.39765 165.115 7.22588 165.115 10.2729C165.202 13.2329 163.197 15.1482 160.756 15.1482ZM160.756 20.4588C167.12 20.4588 171.827 16.1929 171.827 10.2729C171.827 4.35294 167.12 0.0870588 160.756 0.0870588C154.392 0.0870588 149.684 4.35294 149.684 10.2729C149.684 16.1929 154.392 20.4588 160.756 20.4588ZM150.469 0.435294H144.105L140.095 7.22588L136.085 0.435294H129.11L136.52 12.7976V20.0235H143.146V12.8847L150.469 0.435294ZM122.572 7.83529C122.572 9.22823 121.7 10.0988 119.869 10.0988H117.428V5.57176H119.869C121.787 5.57176 122.572 6.35529 122.572 7.83529ZM122.659 20.0235H129.721L125.623 14.0165C127.977 12.7976 129.285 10.7082 129.285 7.83529C129.285 3.30824 125.798 0.435294 120.393 0.435294H110.977V20.0235H117.603V15.1482H119.434L122.659 20.0235ZM96.8545 20.0235H103.48V5.57176H109.234V0.435294H91.188V5.57176H96.9417V20.0235H96.8545ZM78.8087 11.84L80.6395 6.96471L82.5574 11.84H78.8087ZM85.6958 20.0235H92.4956L83.9522 0.435294H77.5011L68.9576 20.0235H75.6703L76.978 16.6282H84.3881L85.6958 20.0235ZM67.8243 20.0235V0.435294H62.4193L56.2297 10.8824L49.8657 0.435294H44.4607V20.0235H50.476V11.4047L54.7477 18.2824H57.5374L61.8091 11.1435V20.0235H67.8243Z" fill="#20201F"/>
<path d="M94.1521 35.52V31.9506H99.6443V30.6447H94.1521V27.2494H100.342V25.8565H92.5829V36.8259H100.603V35.433H94.1521V35.52ZM86.0445 37C88.9214 37 90.3162 35.52 90.3162 33.8659C90.3162 29.8612 83.6035 31.5153 83.6035 28.8165C83.6035 27.8588 84.3881 27.0753 86.3061 27.0753C87.265 27.0753 88.3983 27.3365 89.3573 27.9459L89.8803 26.7271C89.0086 26.1177 87.6137 25.7694 86.3061 25.7694C83.4292 25.7694 82.1215 27.2494 82.1215 28.9036C82.1215 32.9953 88.8342 31.3412 88.8342 33.953C88.8342 34.9106 88.0496 35.6071 86.1317 35.6071C84.7369 35.6071 83.342 35.0847 82.4702 34.3012L81.7728 35.6941C82.7318 36.4777 84.3881 37 86.0445 37ZM74.9729 37C77.8498 37 79.5934 35.3459 79.5934 32.1247V25.8565H78.0242V32.0377C78.0242 34.4753 76.8909 35.6071 74.8858 35.6071C72.8807 35.6071 71.7474 34.4753 71.7474 32.0377V25.8565H70.1782V32.1247C70.2653 35.3459 72.0089 37 74.9729 37ZM62.1578 35.6071C59.7168 35.6071 57.8861 33.7788 57.8861 31.3412C57.8861 28.9035 59.7168 27.0753 62.1578 27.0753C64.5988 27.0753 66.4295 28.9035 66.4295 31.3412C66.3423 33.8659 64.5988 35.6071 62.1578 35.6071ZM62.1578 37C65.4706 37 67.9987 34.6494 67.9987 31.3412C67.9987 28.12 65.4706 25.6824 62.1578 25.6824C58.7579 25.6824 56.3169 28.12 56.3169 31.3412C56.2297 34.6494 58.7579 37 62.1578 37ZM52.2196 25.9435V30.6447H45.8556V25.9435H44.2864V36.913H45.8556V32.0377H52.2196V36.913H53.7888V25.9435H52.2196Z" fill="#20201F"/>
</g>
<defs>
<clipPath id="clip0">
<rect width="257" height="37" fill="white"/>
</clipPath>
</defs>
</svg>
