<svg width="30" height="300" viewBox="0 0 30 300" fill="none" xmlns="http://www.w3.org/2000/svg">
<path d="M20.2098 94.7765C19.0443 94.2588 18.1352 93.4824 17.4825 92.4471C16.8298 91.4118 16.5035 90.1882 16.5035 88.7765C16.5035 86.7529 17.1329 85.1059 18.3916 83.8353C19.6504 82.6118 21.2587 82 23.2168 82C25.1748 82 26.8065 82.6353 28.1119 83.9059C29.3706 85.1765 30 86.8 30 88.7765C30 89.7176 29.8835 90.6588 29.6504 91.6C29.4173 92.5412 28.9044 93.9529 28.1119 95.8353L24.0559 106L17.1329 106L20.2098 94.7765ZM3.7063 94.7765C2.54079 94.2588 1.6317 93.4823 0.979023 92.4471C0.326343 91.4118 3.9799e-06 90.1882 4.10217e-06 88.7765C4.27743e-06 86.7529 0.629375 85.1059 1.88812 83.8353C3.14686 82.6118 4.75525 82 6.71329 82C8.67133 82 10.303 82.6353 11.6084 83.9059C12.8671 85.1765 13.4965 86.8 13.4965 88.7765C13.4965 89.7176 13.38 90.6588 13.1469 91.6C12.9138 92.5412 12.4009 93.9529 11.6084 95.8353L7.55245 106L0.629371 106L3.7063 94.7765Z" fill="#61AE56"/>
<path fill-rule="evenodd" clip-rule="evenodd" d="M14.3647 54V0H15.3554V54H14.3647Z" fill="#141415"/>
<path fill-rule="evenodd" clip-rule="evenodd" d="M14.3648 300L14.3647 130L15.3554 130L15.3554 300L14.3648 300Z" fill="#141415"/>
</svg>
