<svg width="54" height="55" viewBox="0 0 54 55" fill="none" xmlns="http://www.w3.org/2000/svg">
<path d="M38.0017 30.8208C39.1296 31.9644 40.3065 33.0561 41.2872 34.3556C41.7285 34.9274 42.1699 35.4992 42.4641 36.175C42.9054 37.1107 42.5131 38.1504 41.7285 38.2023H36.8249C35.5499 38.3063 34.5692 37.7865 33.6865 36.8508C33 36.123 32.3625 35.3433 31.725 34.5636C31.4799 34.2517 31.1856 33.9398 30.8424 33.7318C30.1559 33.264 29.5674 33.42 29.2242 34.1477C28.8319 34.9274 28.7338 35.7592 28.6848 36.5909C28.6357 37.8385 28.2925 38.1504 27.1156 38.2023C24.6147 38.3063 22.2609 37.9424 20.1033 36.5909C18.1909 35.3953 16.6708 33.7838 15.3958 31.9125C12.8459 28.2737 10.9334 24.2711 9.16813 20.1644C8.77583 19.2288 9.07005 18.7609 10.0508 18.7089C11.669 18.657 13.2382 18.657 14.8564 18.7089C15.4939 18.7089 15.9352 19.1248 16.1804 19.7486C17.063 21.9838 18.0928 24.1671 19.4168 26.1424C19.7601 26.6622 20.1524 27.1821 20.6427 27.5979C21.2312 28.0138 21.6235 27.8578 21.9177 27.1821C22.0648 26.7662 22.1629 26.2984 22.2119 25.8305C22.359 24.271 22.359 22.7116 22.1138 21.1521C21.9667 20.1125 21.4764 19.4887 20.5447 19.2807C20.0543 19.1768 20.1524 19.0208 20.3485 18.7089C20.7408 18.2411 21.1331 17.9292 21.8686 17.9292H27.4098C28.2925 18.1371 28.4886 18.501 28.5867 19.4367V25.9865C28.5867 26.3503 28.7338 27.442 29.3713 27.6499C29.8616 27.8059 30.2049 27.39 30.4991 27.0781C31.8231 25.5706 32.7548 23.8032 33.6375 21.9838C34.0298 21.1521 34.324 20.3204 34.6672 19.4887C34.9124 18.8649 35.2557 18.553 35.9422 18.553H41.2872C41.4343 18.553 41.5814 18.553 41.7776 18.605C42.6602 18.7609 42.9054 19.1768 42.6602 20.1125C42.2189 21.568 41.3853 22.8155 40.5517 24.0111C39.669 25.3107 38.6883 26.5583 37.8056 27.9098C36.9229 29.1574 36.972 29.7812 38.0017 30.8208Z" fill="white"/>
</svg>
