<svg width="166" height="54" viewBox="0 0 166 54" fill="none" xmlns="http://www.w3.org/2000/svg">
<path fill-rule="evenodd" clip-rule="evenodd" d="M80.1565 39.3862C79.0765 39.3862 78.199 38.5087 78.199 37.4287C78.199 36.3487 79.0765 35.4712 80.1565 35.4712H92.5427C93.6227 35.4712 94.5002 36.3487 94.5002 37.4287C94.5002 38.5087 93.6227 39.3862 92.5427 39.3862H80.1565Z" fill="#00929F"/>
<path fill-rule="evenodd" clip-rule="evenodd" d="M120.791 32.0291C119.408 30.6454 117.484 29.8016 115.391 29.8016H112.354V28.1816C112.354 27.1016 111.476 26.2241 110.396 26.2241C109.316 26.2241 108.439 27.1016 108.439 28.1816V29.8016H105.401C103.309 29.8016 101.385 30.6454 100.001 32.0291C98.6175 33.4129 97.74 35.3366 97.74 37.4291C97.74 39.5216 98.5837 41.4454 100.001 42.8291C101.385 44.2129 103.309 45.0566 105.401 45.0566H108.439V46.6766C108.439 47.7566 109.316 48.6342 110.396 48.6342C111.476 48.6342 112.354 47.7566 112.354 46.6766V45.0566H115.391C117.484 45.0566 119.408 44.2129 120.791 42.8291C122.175 41.4454 123.053 39.5216 123.053 37.4291C123.019 35.3029 122.175 33.4129 120.791 32.0291ZM108.405 41.1079H105.367C104.355 41.1079 103.41 40.7029 102.735 40.0279C102.06 39.3529 101.655 38.4416 101.655 37.3954C101.655 36.3829 102.06 35.4379 102.735 34.7629C103.41 34.0879 104.321 33.6829 105.367 33.6829H108.405V41.1079ZM117.99 40.0279C117.315 40.7029 116.404 41.1079 115.358 41.1079H112.32V33.6829H115.358C116.37 33.6829 117.315 34.0879 117.99 34.7629C118.665 35.4379 119.07 36.3491 119.07 37.3954C119.104 38.4416 118.665 39.3529 117.99 40.0279Z" fill="#00929F"/>
<path fill-rule="evenodd" clip-rule="evenodd" d="M163.013 42.7612H162.237V29.6999V29.6662V29.6324V29.5987V29.5649V29.5312V29.4974V29.4637V29.4299V29.3962V29.3624C162.034 28.5187 161.258 27.8774 160.347 27.8774H148.737C148.365 27.8774 148.028 27.9787 147.758 28.1474L147.724 28.1812L147.69 28.2149L147.657 28.2487L147.623 28.2824L147.589 28.3162L147.555 28.3499L147.522 28.3837L147.488 28.4174L147.454 28.4512L147.42 28.4849L147.387 28.5187L147.353 28.5524L147.319 28.5862C147.015 28.9237 146.813 29.3962 146.813 29.9024V39.015C146.813 39.8925 146.543 40.77 146.104 41.4787C145.699 42.1537 145.193 42.6937 144.687 43.0312C144.552 42.9975 144.417 42.9975 144.282 42.9975C143.202 42.9975 142.324 43.875 142.324 44.955V48.735C142.324 49.815 143.202 50.6925 144.282 50.6925C145.362 50.6925 146.239 49.815 146.239 48.735V46.9125H160.38H161.157V48.735C161.157 49.815 162.034 50.6925 163.114 50.6925C164.194 50.6925 165.072 49.815 165.072 48.735V44.955C164.971 43.6387 164.093 42.7612 163.013 42.7612ZM158.322 42.7612H149.648C150.255 41.58 150.627 40.23 150.627 38.7787V31.6237H158.322V42.7612Z" fill="#00929F"/>
<path fill-rule="evenodd" clip-rule="evenodd" d="M72.0901 30.4089C70.3014 28.6201 67.8376 27.5063 65.1039 27.5063C62.3701 27.5063 59.9063 28.6201 58.1176 30.4089C56.3288 32.1976 55.2151 34.6614 55.2151 37.3951C55.2151 40.1289 56.3288 42.5926 58.1176 44.3814C59.9063 46.1701 62.3701 47.2839 65.1039 47.2839C67.8376 47.2839 70.3014 46.1701 72.0901 44.3814C73.8789 42.5926 74.9926 40.1289 74.9926 37.3951C74.9926 34.6951 73.9126 32.1976 72.0901 30.4089ZM69.3226 41.6139C68.2426 42.6939 66.7576 43.3689 65.1039 43.3689C63.4501 43.3689 61.9651 42.6939 60.8851 41.6139C59.8051 40.5339 59.1301 39.0489 59.1301 37.3951C59.1301 35.7414 59.8051 34.2564 60.8851 33.1764C61.9651 32.0963 63.4501 31.4214 65.1039 31.4214C66.7576 31.4214 68.2426 32.0963 69.3226 33.1764C70.4026 34.2564 71.0776 35.7414 71.0776 37.3951C71.0776 39.0489 70.4026 40.5339 69.3226 41.6139Z" fill="#00929F"/>
<path d="M128.115 35.4375C127.035 35.4375 126.157 36.315 126.157 37.395C126.157 38.475 127.035 39.3525 128.115 39.3525H140.501C141.581 39.3525 142.459 38.475 142.459 37.395C142.459 36.315 141.581 35.4375 140.501 35.4375H128.115Z" fill="#00929F"/>
<path d="M60.8852 41.6139C59.8052 40.5339 59.1302 39.0489 59.1302 37.3951C59.1302 35.7414 59.8052 34.2564 60.8852 33.1764C61.9652 32.0963 63.4502 31.4214 65.1039 31.4214C66.7577 31.4214 68.2427 32.0963 69.3227 33.1764C70.4027 34.2564 71.0777 35.7414 71.0777 37.3951C71.0777 39.0489 70.4027 40.5339 69.3227 41.6139C68.2427 42.6939 66.7577 43.3689 65.1039 43.3689C63.4502 43.3689 61.9652 42.6939 60.8852 41.6139ZM58.0839 30.4089C56.2951 32.1976 55.1814 34.6614 55.1814 37.3951C55.1814 40.1289 56.2951 42.5926 58.0839 44.3814C59.8726 46.1701 62.3364 47.2839 65.0702 47.2839C67.8039 47.2839 70.2677 46.1701 72.0564 44.3814C73.8452 42.5926 74.9589 40.1289 74.9589 37.3951C74.9589 34.6614 73.8452 32.1976 72.0564 30.4089C70.2677 28.6201 67.8039 27.5063 65.0702 27.5063C62.3702 27.5063 59.9064 28.6201 58.0839 30.4089Z" fill="#00929F"/>
<path fill-rule="evenodd" clip-rule="evenodd" d="M0 28.4172L45.3263 53.9998L45.2251 2.69971L0 28.4172Z" fill="#00929F"/>
<path d="M0 28.4172L45.3263 53.9998L45.2251 2.69971L0 28.4172Z" fill="#00929F"/>
<path fill-rule="evenodd" clip-rule="evenodd" d="M160.144 17.7189L159.131 14.7151L158.119 17.7189H160.144ZM163.451 20.5201C163.485 20.5876 163.485 20.6551 163.485 20.7226C163.485 20.7901 163.451 20.8576 163.418 20.9251C163.35 20.9926 163.316 20.9926 163.215 20.9926H161.629C161.494 20.9926 161.393 20.9589 161.291 20.8914C161.224 20.8239 161.156 20.7564 161.123 20.6889L160.785 19.6426H157.478L157.14 20.6889C157.106 20.7564 157.073 20.8576 156.971 20.8914C156.904 20.9589 156.769 20.9926 156.634 20.9926H155.048C154.98 20.9926 154.913 20.9589 154.845 20.9251C154.778 20.8576 154.778 20.7901 154.778 20.7226C154.778 20.6889 154.778 20.6214 154.811 20.5201L157.545 12.6564C157.579 12.5551 157.646 12.4539 157.748 12.3526C157.849 12.2851 157.95 12.2514 158.119 12.2514H160.144C160.279 12.2514 160.414 12.2851 160.515 12.3526C160.616 12.4201 160.684 12.5214 160.718 12.6564L163.451 20.5201ZM144.518 16.5039V20.6214C144.518 20.7226 144.484 20.7901 144.416 20.8576C144.349 20.9251 144.281 20.9589 144.18 20.9589H142.56C142.459 20.9589 142.391 20.9251 142.324 20.8576C142.256 20.7901 142.223 20.7226 142.223 20.6214V12.5551C142.223 12.4539 142.256 12.3864 142.324 12.3189C142.391 12.2514 142.459 12.2176 142.56 12.2176H144.011C144.248 12.2176 144.416 12.3189 144.551 12.5551L146.576 15.9976L148.601 12.5551C148.736 12.3189 148.905 12.2176 149.141 12.2176H150.593C150.694 12.2176 150.761 12.2514 150.829 12.3189C150.896 12.3864 150.93 12.4539 150.93 12.5551V20.6214C150.93 20.7226 150.896 20.7901 150.829 20.8576C150.761 20.9251 150.694 20.9589 150.593 20.9589H148.973C148.871 20.9589 148.804 20.9251 148.736 20.8576C148.669 20.7901 148.635 20.7226 148.635 20.6214V16.5039L147.454 18.5626C147.386 18.6639 147.319 18.7314 147.251 18.7989C147.184 18.8664 147.083 18.9001 146.981 18.9001H146.171C146.07 18.9001 145.969 18.8664 145.901 18.7989C145.834 18.7314 145.766 18.6639 145.699 18.5626L144.518 16.5039ZM134.595 16.1664C134.966 16.1664 135.27 16.0989 135.473 15.9301C135.709 15.7614 135.81 15.5251 135.81 15.1876C135.81 14.8501 135.709 14.6139 135.473 14.4451C135.236 14.2764 134.966 14.2089 134.595 14.2089H133.076V16.1664H134.595ZM134.663 12.2514C135.743 12.2514 136.586 12.4876 137.194 12.9939C137.801 13.5001 138.105 14.2089 138.105 15.1539C138.105 16.0989 137.801 16.8414 137.194 17.3476C136.586 17.8539 135.743 18.0901 134.663 18.0901H133.076V20.6214C133.076 20.7226 133.043 20.7901 132.975 20.8576C132.908 20.9251 132.84 20.9589 132.739 20.9589H131.085C130.984 20.9589 130.916 20.9251 130.849 20.8576C130.781 20.7901 130.748 20.7226 130.748 20.6214V12.5551C130.748 12.4539 130.781 12.3864 130.849 12.3189C130.916 12.2514 130.984 12.2176 131.085 12.2176H134.663V12.2514ZM124.335 15.5589C124.301 15.1201 124.133 14.7826 123.863 14.5126C123.593 14.2426 123.221 14.1076 122.749 14.1076C122.243 14.1076 121.871 14.2426 121.635 14.5126C121.365 14.7826 121.23 15.1201 121.196 15.5589C121.163 15.8289 121.163 16.1664 121.163 16.6051C121.163 17.0101 121.163 17.3814 121.196 17.6514C121.23 18.0901 121.399 18.4276 121.635 18.6976C121.905 18.9676 122.276 19.1026 122.749 19.1026C123.255 19.1026 123.626 18.9676 123.863 18.6976C124.133 18.4276 124.268 18.0901 124.335 17.6514C124.369 17.3476 124.369 17.0101 124.369 16.6051C124.369 16.2001 124.335 15.8289 124.335 15.5589ZM122.749 12.1164C123.525 12.1164 124.234 12.2514 124.808 12.5551C125.381 12.8589 125.82 13.2639 126.124 13.7701C126.428 14.2764 126.596 14.8501 126.63 15.4914C126.63 15.7276 126.664 16.0989 126.664 16.6051C126.664 17.1114 126.664 17.4826 126.63 17.7189C126.596 18.3601 126.428 18.9339 126.124 19.4401C125.82 19.9464 125.381 20.3514 124.808 20.6551C124.234 20.9589 123.559 21.0939 122.749 21.0939C121.973 21.0939 121.264 20.9589 120.69 20.6551C120.116 20.3514 119.678 19.9464 119.374 19.4401C119.07 18.9339 118.901 18.3601 118.868 17.7189C118.868 17.2801 118.834 16.9089 118.834 16.6051C118.834 16.3351 118.834 15.9639 118.868 15.4914C118.901 14.8501 119.07 14.2764 119.374 13.7701C119.678 13.2639 120.116 12.8589 120.69 12.5551C121.264 12.2851 121.939 12.1164 122.749 12.1164ZM111.544 17.9889C112.354 17.8201 112.759 17.3814 112.759 16.6389C112.759 15.8964 112.354 15.4239 111.544 15.2889V17.9889ZM109.249 15.2551C108.439 15.4239 108.034 15.8626 108.034 16.6051C108.034 17.3476 108.439 17.8201 109.249 17.9551V15.2551ZM111.544 13.2639C112.59 13.3989 113.434 13.7701 114.075 14.3101C114.716 14.8501 115.054 15.6264 115.054 16.6051C115.054 17.5839 114.716 18.3601 114.075 18.9001C113.434 19.4401 112.59 19.8114 111.544 19.9464V20.8576C111.544 20.9589 111.51 21.0264 111.443 21.0939C111.375 21.1614 111.308 21.1951 111.206 21.1951H109.586C109.485 21.1951 109.418 21.1614 109.35 21.0939C109.283 21.0264 109.249 20.9589 109.249 20.8576V19.9464C108.203 19.8114 107.359 19.4401 106.718 18.9001C106.076 18.3601 105.739 17.5839 105.739 16.6051C105.739 15.6264 106.076 14.8501 106.718 14.3101C107.359 13.7701 108.203 13.3989 109.249 13.2639V12.3526C109.249 12.2514 109.283 12.1839 109.35 12.1164C109.418 12.0489 109.485 12.0151 109.586 12.0151H111.206C111.308 12.0151 111.375 12.0489 111.443 12.1164C111.51 12.1839 111.544 12.2514 111.544 12.3526V13.2639ZM102.026 12.2514C102.128 12.2514 102.195 12.2851 102.263 12.3526C102.33 12.4201 102.364 12.4876 102.364 12.5889V13.9051C102.364 14.0064 102.33 14.0739 102.263 14.1414C102.195 14.2089 102.128 14.2426 102.026 14.2426H99.8326V20.6551C99.8326 20.7564 99.7988 20.8239 99.7313 20.8914C99.6638 20.9589 99.5963 20.9926 99.4951 20.9926H97.8751C97.7738 20.9926 97.7063 20.9589 97.6388 20.8914C97.5713 20.8239 97.5376 20.7564 97.5376 20.6551V14.2426H95.3438C95.2426 14.2426 95.1751 14.2089 95.1076 14.1414C95.0401 14.0739 95.0063 14.0064 95.0063 13.9051V12.5889C95.0063 12.4876 95.0401 12.4201 95.1076 12.3526C95.1751 12.2851 95.2426 12.2514 95.3438 12.2514H102.026ZM88.9988 17.7189L87.9863 14.7151L86.9738 17.7189H88.9988ZM92.2726 20.5201C92.3063 20.5876 92.3063 20.6551 92.3063 20.7226C92.3063 20.7901 92.2726 20.8576 92.2388 20.9251C92.1713 20.9926 92.1038 20.9926 92.0363 20.9926H90.4501C90.3151 20.9926 90.2138 20.9589 90.1126 20.8914C90.0451 20.8239 89.9776 20.7564 89.9438 20.6889L89.6063 19.6426H86.2988L85.9613 20.6889C85.9276 20.7564 85.8938 20.8576 85.7926 20.8914C85.725 20.9589 85.59 20.9926 85.455 20.9926H83.8688C83.8013 20.9926 83.7338 20.9589 83.6663 20.9251C83.5988 20.8576 83.5988 20.7901 83.5988 20.7226C83.5988 20.6889 83.5988 20.6214 83.6325 20.5201L86.3663 12.6564C86.4001 12.5551 86.4676 12.4539 86.5688 12.3526C86.6701 12.2851 86.7713 12.2514 86.9401 12.2514H88.9651C89.1001 12.2514 89.2351 12.2851 89.3363 12.3526C89.4376 12.4201 89.5051 12.5214 89.5388 12.6564L92.2726 20.5201ZM74.8575 17.9889C74.8575 18.9676 74.5875 19.7439 74.0138 20.2839C73.44 20.8239 72.6638 21.0939 71.685 21.0939H71.4825C71.3813 21.0939 71.3138 21.0601 71.2463 20.9926C71.1788 20.9251 71.145 20.8576 71.145 20.7564V19.4401C71.145 19.3389 71.1788 19.2714 71.2463 19.2039C71.3138 19.1364 71.3813 19.1026 71.4825 19.1026C71.8538 19.1026 72.1238 19.0014 72.2925 18.8326C72.4613 18.6639 72.5288 18.3601 72.5288 17.9889V12.5889C72.5288 12.4876 72.5625 12.4201 72.63 12.3526C72.6975 12.2851 72.765 12.2514 72.8663 12.2514H79.1438C79.245 12.2514 79.3125 12.2851 79.38 12.3526C79.4475 12.4201 79.4813 12.4876 79.4813 12.5889V20.6551C79.4813 20.7564 79.4475 20.8239 79.38 20.8914C79.3125 20.9589 79.245 20.9926 79.1438 20.9926H77.5238C77.4225 20.9926 77.355 20.9589 77.2875 20.8914C77.22 20.8239 77.1863 20.7564 77.1863 20.6551V14.2426H74.8575V17.9889ZM66.9263 20.6551C66.9263 20.7564 66.8925 20.8239 66.825 20.8914C66.7575 20.9589 66.69 20.9926 66.5888 20.9926H64.9688C64.8675 20.9926 64.8 20.9589 64.7325 20.8914C64.665 20.8239 64.6313 20.7564 64.6313 20.6551V14.2426H61.6275V20.6551C61.6275 20.7564 61.5938 20.8239 61.5263 20.8914C61.4588 20.9589 61.3913 20.9926 61.29 20.9926H59.67C59.5688 20.9926 59.5013 20.9589 59.4338 20.8914C59.3663 20.8239 59.3325 20.7564 59.3325 20.6551V12.5889C59.3325 12.4876 59.3663 12.4201 59.4338 12.3526C59.5013 12.2851 59.5688 12.2514 59.67 12.2514H66.6225C66.7238 12.2514 66.7913 12.2851 66.8588 12.3526C66.9263 12.4201 66.96 12.4876 66.96 12.5889V20.6551H66.9263Z" fill="#00434D"/>
<path fill-rule="evenodd" clip-rule="evenodd" d="M23.6926 32.805L52.7852 16.4025L23.6926 0V32.805Z" fill="#00434D"/>
</svg>
