<svg width="144" height="38" viewBox="0 0 144 38" fill="none" xmlns="http://www.w3.org/2000/svg">
<path d="M0.0611502 34.7375C0.122297 34.2551 0.183441 33.7123 0.183441 33.2298C0.428027 29.6716 1.03949 26.1738 2.14013 22.7362C3.66879 17.9718 5.99235 13.6296 9.4777 9.89052C12.2293 6.99572 15.4701 4.76431 19.2 3.25661C22.7465 1.7489 26.4764 0.904587 30.3287 0.603046C31.7962 0.482429 33.2637 0.422125 34.7312 0.361816C34.8535 0.361816 35.0369 0.361816 35.1592 0.361816C35.1592 12.7853 35.1592 25.2088 35.1592 37.6323C32.5911 37.6323 29.9618 37.6323 27.3325 37.6323C27.3325 33.2298 27.3325 28.8876 27.3325 24.4851C27.149 24.4851 27.0267 24.4851 26.9044 24.4851C22.0127 24.4851 17.121 24.4851 12.1682 24.4851C11.8624 24.4851 11.679 24.5454 11.679 24.9073C11.4344 26.8974 11.0675 28.8876 10.9452 30.8778C10.7618 33.0489 10.7618 35.22 10.6395 37.3911C10.6395 37.6323 10.5783 37.6926 10.3338 37.6926C6.9707 37.6926 3.66879 37.6926 0.305732 37.6926C0.183439 37.6926 0.122293 37.6926 0 37.6323C0.0611465 36.6674 0.0611502 35.7025 0.0611502 34.7375ZM12.7185 20.5651C12.9631 20.5651 13.0853 20.5651 13.1465 20.5651C17.7325 20.5651 22.3796 20.5651 26.9656 20.5651C27.3325 20.5651 27.3936 20.4445 27.3936 20.1429C27.3936 14.7152 27.3936 9.34775 27.3936 3.92C27.3936 3.79938 27.3936 3.67876 27.3936 3.55815C27.3325 3.55815 27.2713 3.55815 27.2102 3.55815C27.0879 3.55815 27.0267 3.61846 26.9044 3.61846C23.4802 4.70401 20.6675 6.63387 18.3439 9.28743C15.8981 12.1219 14.2471 15.4389 13.0854 18.9971C13.0854 19.4795 12.9019 20.0223 12.7185 20.5651Z" fill="#ED1B2F"/>
<path d="M144 37.6323C143.878 37.6323 143.755 37.6926 143.633 37.6926C140.331 37.6926 137.09 37.6926 133.788 37.6926C133.483 37.6926 133.36 37.6323 133.36 37.3308C133.36 34.1344 133.177 30.9984 132.749 27.8021C132.26 23.9424 131.404 20.1429 129.936 16.5244C128.652 13.3281 126.879 10.4333 124.372 8.02097C122.293 5.97048 119.847 4.52308 117.034 3.61846C116.912 3.55815 116.79 3.55815 116.667 3.49784C116.667 14.8961 116.667 26.2341 116.667 37.6323C114.038 37.6323 111.47 37.6323 108.841 37.6323C108.841 25.2088 108.841 12.7853 108.841 0.361816C109.085 0.361816 109.269 0.361816 109.513 0.361816C113.182 0.422125 116.728 0.783967 120.275 1.7489C125.472 3.13599 130.058 5.54832 133.849 9.28743C136.479 11.8807 138.558 14.8961 140.086 18.2734C141.799 21.8919 142.838 25.7516 143.388 29.7319C143.572 31.1793 143.694 32.6871 143.816 34.1345C143.816 34.2551 143.877 34.3757 143.877 34.4963C144 35.4612 144 36.5468 144 37.6323Z" fill="#ED1B2F"/>
<path d="M87.2558 0C87.8062 0.0603083 88.4176 0.120613 88.9679 0.241229C93.2482 0.844312 96.8558 2.71387 99.9132 5.72929C99.9743 5.78959 99.9743 5.7896 100.035 5.91021C99.3628 6.5736 98.6291 7.17668 97.9565 7.84008C94.2877 2.83449 87.1947 1.80924 82.303 5.06589C79.6737 6.81483 77.9616 9.22716 77.289 12.3029C76.6164 15.3786 77.2278 18.2131 78.9399 20.927C75.8826 23.7012 72.8864 26.4753 69.8291 29.3098C69.7679 29.1892 69.6457 29.0686 69.5845 28.948C68.0558 26.415 67.1386 23.6408 66.9552 20.6857C66.5272 14.1121 68.8508 8.62409 73.9259 4.40251C76.7998 1.99018 80.224 0.603085 84.0151 0.180927C84.382 0.120618 84.7488 0.060312 85.1157 0.060312C85.8495 3.68003e-06 86.5832 0 87.2558 0Z" fill="#ED1B2F"/>
<path d="M38.2163 14.1729C38.2163 13.9317 38.2163 13.8111 38.2163 13.6905C38.2163 10.2529 38.2163 6.75501 38.2163 3.31744C38.2163 3.01589 38.3386 2.89528 38.6443 2.77466C42.1297 1.68911 45.7373 1.08603 49.345 0.663874C52.9526 0.241716 56.5603 0.121094 60.229 0.121094C63.5921 0.121094 66.894 0.362332 70.2571 0.663874C70.3794 0.663874 70.4405 0.724177 70.5628 0.724177C70.6239 1.87003 70.6851 3.01589 70.6851 4.16175C70.6851 4.40298 70.5628 4.40299 70.3794 4.40299C69.2787 4.46329 68.1781 4.58391 67.0774 4.64422C64.0201 4.82514 60.9628 5.18699 57.9666 5.66945C57.5997 5.72976 57.5386 5.85038 57.5386 6.15192C57.5386 16.4646 57.5386 26.7774 57.5386 37.0298C57.5386 37.2107 57.5386 37.3313 57.5386 37.5725C57.3552 37.5725 57.2329 37.5725 57.1106 37.5725C54.8482 37.5725 52.5246 37.5725 50.2622 37.5725C49.773 37.5725 49.773 37.5725 49.773 37.0901C49.773 27.4408 49.773 17.8517 49.773 8.20241C49.773 8.02149 49.773 7.84056 49.773 7.59933C45.4927 9.16734 41.6405 11.0972 38.2163 14.1729Z" fill="#ED1B2F"/>
<path d="M72.5195 32.0842C73.1921 31.4811 73.8647 30.8177 74.5985 30.2146C77.1667 33.4713 80.5297 35.0996 84.7488 34.8583C87.4393 34.7377 89.7628 33.6522 91.7195 31.9032C95.694 28.3451 96.8558 22.2539 93.6151 17.1277C96.6112 14.3535 99.6686 11.5794 102.726 8.80518C107.128 15.2582 107.19 26.3549 99.0571 33.3506C90.68 40.5273 78.8176 38.8387 72.5195 32.0842Z" fill="#ED1B2F"/>
</svg>
