<svg width="162" height="44" viewBox="0 0 162 44" fill="none" xmlns="http://www.w3.org/2000/svg">
<path d="M11.4059 0C6.66804 0.0877373 2.54438 2.2373 0 5.96613L4.73781 9.5195C6.31709 7.10672 8.77373 5.79066 11.4497 5.79066C15.1347 5.79066 17.9862 8.15957 19.0829 11.2742H8.29118L9.69497 16.9772H19.1267C17.9862 20.2235 14.9592 22.4608 11.4936 22.4608C8.686 22.4608 6.18548 21.1008 4.78169 18.7758L0 22.2853C2.71986 26.1457 6.88738 28.2514 11.4497 28.2514C19.9164 28.2514 25.4438 21.8466 25.4438 14.0818C25.4438 6.01 18.9513 0 11.4059 0Z" fill="#FF7800"/>
<path d="M49.8348 13.9066C51.4141 12.3274 52.2037 10.3972 52.2037 8.33532C52.2037 3.59751 48.2117 0.438965 43.7809 0.438965H28.7778L30.1816 6.14189V27.813H43.6932C48.4749 27.813 52.2914 24.479 52.3353 19.6534C52.3353 17.2845 51.5457 15.3543 49.8348 13.9066ZM36.0162 6.01028H43.7371C45.2725 6.01028 46.413 7.23861 46.413 8.73014C46.413 10.3094 45.1408 11.4061 43.7371 11.4061H36.0162V6.01028ZM43.9125 22.2417H36.0162V16.8458H43.9125C45.4918 16.8458 46.6324 18.0742 46.6324 19.5657C46.5008 21.145 45.4041 22.2417 43.9125 22.2417Z" fill="#FF7800"/>
<path d="M84.7983 6.14189H91.1593V27.813H97.0377V6.14189H103.443L104.846 0.438965H83.3945L84.7983 6.14189Z" fill="#FF7800"/>
<path d="M150.996 0.438965H137.879L139.151 5.65933V27.8569H145.03V20.3992H150.996C156.918 20.3992 161.261 16.4949 161.261 10.5726C161.261 4.47488 156.83 0.526702 150.996 0.438965ZM151.127 14.6524H145.03V6.14189H151.127C153.584 6.14189 155.383 7.98437 155.383 10.3972C155.207 12.9415 153.584 14.6524 151.127 14.6524Z" fill="#FF7800"/>
<path d="M70.9794 7.28223C62.9076 7.4577 56.8098 13.3361 56.8098 21.4079C56.8098 23.7768 57.3801 25.9264 58.3014 27.8128H65.5397C63.7411 26.2335 62.6443 23.9085 62.6443 21.4518C62.6443 16.714 66.3732 13.1168 70.9794 13.1168C75.6733 13.1168 79.3144 16.8895 79.3144 21.4518C79.3144 24.0401 78.13 26.3212 76.3314 27.8128H83.6136C84.5787 25.8825 85.149 23.6891 85.149 21.4518C85.1051 13.4677 78.6564 7.28223 70.9794 7.28223Z" fill="#FF7800"/>
<path d="M126.21 0.438965C128.404 1.9305 129.807 4.47488 129.807 7.32634C129.807 11.9764 125.991 15.7053 121.428 15.7053C116.603 15.7053 113.137 11.7571 113.137 7.32634C113.137 4.43101 114.541 1.9305 116.691 0.438965H108.97C107.917 2.41305 107.303 4.73809 107.303 7.28247C107.303 15.442 113.927 21.4521 121.472 21.4521C129.588 21.4521 135.598 14.9156 135.598 7.32634C135.598 4.82583 134.94 2.50079 133.843 0.438965H126.21Z" fill="#FF7800"/>
<path d="M17.2844 41.0603C17.6792 41.4113 18.2495 41.6745 18.8637 41.6745C19.7411 41.6745 20.2236 41.1481 20.3991 40.5339H18.0302V39.3933H20.3991C20.2675 38.7353 19.6972 38.2527 18.8637 38.2527C18.2934 38.2527 17.8108 38.4721 17.3283 38.9108L16.6703 37.8579C17.2406 37.2876 18.0741 37.0244 18.9076 37.0244C20.7939 37.0244 21.8906 38.3405 21.8906 39.9636C21.8906 41.6745 20.6184 42.9467 18.8637 42.9467C17.8108 42.9467 17.1089 42.508 16.5825 42.0693L17.2844 41.0603Z" fill="#FF7800"/>
<path d="M24.8298 37.1123H26.9355C28.0761 37.1123 28.9096 37.6387 28.9096 38.6038C28.9096 39.0864 28.6903 39.5689 28.2516 39.8322C28.9096 40.0515 29.1728 40.6218 29.1728 41.1482C29.1728 42.4204 28.12 42.8591 26.9794 42.8591H24.8298V37.1123ZM26.9355 39.3496C27.2865 39.3496 27.462 39.0864 27.462 38.8232C27.462 38.56 27.3303 38.3406 26.9355 38.3406H26.2336V39.3496H26.9355ZM27.0671 41.6308C27.462 41.6308 27.6813 41.3676 27.6813 41.0166C27.6813 40.7095 27.5058 40.4463 27.0671 40.4463H26.2336V41.6308H27.0671Z" fill="#FF7800"/>
<path d="M34.744 37.0244C36.4987 37.0244 37.7709 38.2966 37.7709 39.9636C37.7709 41.6745 36.4987 42.9906 34.744 42.9906C32.9892 42.9906 31.717 41.6745 31.717 39.9636C31.717 38.2966 32.9892 37.0244 34.744 37.0244ZM34.744 41.6745C35.6214 41.6745 36.2794 40.9287 36.2794 39.9636C36.2794 39.0424 35.5775 38.2966 34.744 38.2966C33.8666 38.2966 33.2086 38.9985 33.2086 39.9636C33.1647 40.9287 33.8666 41.6745 34.744 41.6745Z" fill="#FF7800"/>
<path d="M41.2805 38.9987V37.1123H45.1409V42.8591H43.7371V38.2968H42.6404V38.9987C42.6404 41.8501 41.763 42.903 40.1399 42.903V41.6308C40.7979 41.543 41.2805 41.0605 41.2805 38.9987Z" fill="#FF7800"/>
<path d="M48.3433 37.1126H49.7471V39.3937H50.4928C50.7122 37.9899 51.8528 36.981 53.3882 36.981C55.099 36.981 56.3274 38.2532 56.3274 39.9202C56.3274 41.631 55.099 42.9471 53.3882 42.9471C51.8966 42.9471 50.7999 41.9381 50.5367 40.5782H49.7471V42.8155H48.3433V37.1126ZM53.432 41.6749C54.2655 41.6749 54.9236 40.9291 54.9236 39.964C54.9236 39.0428 54.2655 38.297 53.432 38.297C52.5985 38.297 51.9405 38.9989 51.9405 39.964C51.8966 40.9291 52.5546 41.6749 53.432 41.6749Z" fill="#FF7800"/>
<path d="M59.2666 37.1123H60.6704V41.6746H62.6445V37.1123H64.0483V41.6746H64.7502V43.9997H63.5219V42.8591H59.2666V37.1123Z" fill="#FF7800"/>
<path d="M67.6894 37.1123H69.0932V39.7883C69.0932 40.1392 69.0493 40.7534 69.0493 40.7534C69.0493 40.7534 69.3125 40.1392 69.5319 39.7883L71.1111 37.1123H72.5149V42.8591H71.1111V40.1831C71.1111 39.8322 71.155 39.218 71.155 39.218C71.155 39.218 70.8918 39.8322 70.6724 40.1831L69.0493 42.8591H67.6455V37.1123H67.6894Z" fill="#FF7800"/>
<path d="M76.3317 41.0166C76.5072 40.7534 76.5511 40.6657 76.5511 40.6657C75.8931 40.3147 75.6298 39.6567 75.6298 38.9548C75.6298 38.0774 76.0685 37.5071 76.6827 37.2439C76.9459 37.1562 77.2091 37.1123 77.7794 37.1123H79.7974V42.8591H78.3936V40.9289H77.8671L76.7704 42.8591H75.1912L76.3317 41.0166ZM78.3936 39.7444V38.2968H77.911C77.5601 38.2968 77.3846 38.3406 77.253 38.4722C77.1214 38.6038 77.0775 38.8232 77.0775 38.9987C77.0775 39.5251 77.3407 39.7444 77.8233 39.7444H78.3936Z" fill="#FF7800"/>
<path d="M88.4393 38.2972H86.6846V37.0688H91.5979V38.2972H89.8431V42.8595H88.4393V38.2972Z" fill="#FF7800"/>
<path d="M96.9935 37.0244C98.7482 37.0244 100.02 38.2966 100.02 39.9636C100.02 41.6745 98.7482 42.9906 96.9935 42.9906C95.2387 42.9906 93.9666 41.6745 93.9666 39.9636C93.9666 38.2966 95.2387 37.0244 96.9935 37.0244ZM96.9935 41.6745C97.8709 41.6745 98.5289 40.9287 98.5289 39.9636C98.5289 39.0424 97.827 38.2966 96.9935 38.2966C96.1161 38.2966 95.4581 38.9985 95.4581 39.9636C95.4142 40.9287 96.1161 41.6745 96.9935 41.6745Z" fill="#FF7800"/>
<path d="M102.872 37.1123H105.241C106.338 37.1123 107.127 37.9458 107.127 39.0864C107.127 40.227 106.382 41.0605 105.241 41.0605H104.276V42.8591H102.872V37.1123ZM104.978 39.876C105.46 39.876 105.724 39.5251 105.724 39.0864C105.724 38.6477 105.46 38.2968 105.022 38.2968H104.32V39.876H104.978Z" fill="#FF7800"/>
<path d="M109.891 37.1123H113.4V38.3406H111.295V42.903H109.891V37.1123Z" fill="#FF7800"/>
<path d="M118.796 37.0244C120.551 37.0244 121.823 38.2966 121.823 39.9636C121.823 41.6745 120.551 42.9906 118.796 42.9906C117.042 42.9906 115.77 41.6745 115.77 39.9636C115.77 38.2966 117.042 37.0244 118.796 37.0244ZM118.796 41.6745C119.674 41.6745 120.332 40.9287 120.332 39.9636C120.332 39.0424 119.63 38.2966 118.796 38.2966C117.919 38.2966 117.261 38.9985 117.261 39.9636C117.217 40.9287 117.919 41.6745 118.796 41.6745Z" fill="#FF7800"/>
<path d="M124.675 37.1123H126.78C127.921 37.1123 128.754 37.6387 128.754 38.6038C128.754 39.0864 128.535 39.5689 128.096 39.8322C128.754 40.0515 129.018 40.6218 129.018 41.1482C129.018 42.4204 127.965 42.8591 126.824 42.8591H124.718V37.1123H124.675ZM126.824 39.3496C127.175 39.3496 127.351 39.0864 127.351 38.8232C127.351 38.56 127.219 38.3406 126.824 38.3406H126.122V39.3496H126.824ZM126.912 41.6308C127.307 41.6308 127.526 41.3676 127.526 41.0166C127.526 40.7095 127.351 40.4463 126.912 40.4463H126.078V41.6308H126.912Z" fill="#FF7800"/>
<path d="M132.703 38.9987V37.1123H136.563V42.8591H135.159V38.2968H134.063V38.9987C134.063 41.8501 133.185 42.903 131.562 42.903V41.6308C132.22 41.543 132.703 41.0605 132.703 38.9987Z" fill="#FF7800"/>
<path d="M139.766 37.1123H141.17V39.7883C141.17 40.1392 141.126 40.7534 141.126 40.7534C141.126 40.7534 141.389 40.1392 141.608 39.7883L143.188 37.1123H144.591V42.8591H143.188V40.1831C143.188 39.8322 143.231 39.218 143.231 39.218C143.231 39.218 142.968 39.8322 142.749 40.1831L141.126 42.8591H139.766V37.1123Z" fill="#FF7800"/>
</svg>
