<svg xmlns="http://www.w3.org/2000/svg" viewBox="0 0 18 19" width="18" height="19">
	<style>
		tspan { white-space:pre }
		.shp0 { fill: #e1e8ee } 
	</style>
	<path id="Icon" class="shp0" d="M5.26,9.45c0.3,0.11 0.63,0.08 0.9,-0.1l8.97,-5.77l-7.4,7.11c-0.2,0.19 -0.31,0.46 -0.31,0.74l-0.03,6.16c0,0.55 0.75,0.72 0.97,0.21l1.98,-4.49c0.12,-0.27 0.45,-0.39 0.71,-0.24l5.24,2.94c0.33,0.19 0.74,-0.04 0.75,-0.42l0.68,-14.6c0.02,-0.37 -0.36,-0.64 -0.7,-0.5l-15.82,6.49c-0.43,0.18 -0.42,0.79 0.01,0.95z" />
</svg>