<svg width="240" height="237" viewBox="0 0 240 237" fill="none" xmlns="http://www.w3.org/2000/svg">
<path d="M240 118.5C240 183.946 186.274 237 120 237C53.7258 237 0 183.946 0 118.5C0 53.0543 53.7258 0 120 0C186.274 0 240 53.0543 240 118.5ZM39.6 118.5C39.6 162.349 75.5963 197.895 120 197.895C164.404 197.895 200.4 162.349 200.4 118.5C200.4 74.6514 164.404 39.105 120 39.105C75.5963 39.105 39.6 74.6514 39.6 118.5Z" fill="#E5E5E5"/>
<path d="M240 118.5C240 139.406 234.399 159.941 223.766 178.018C213.132 196.096 197.845 211.075 179.455 221.433C161.065 231.791 140.228 237.161 119.058 236.996C97.8873 236.832 77.1378 231.14 58.915 220.498C40.6923 209.856 25.6451 194.642 15.3005 176.402C4.95591 158.161 -0.317732 137.542 0.0148038 116.639C0.347339 95.735 6.27422 75.2902 17.1939 57.3794C28.1136 39.4686 43.6373 24.7294 62.1895 14.6577L81.267 48.9256C68.837 55.6737 58.4361 65.549 51.1199 77.5492C43.8037 89.5494 39.8327 103.247 39.6099 117.253C39.3871 131.258 42.9205 145.073 49.8513 157.294C56.7822 169.515 66.8639 179.708 79.0731 186.839C91.2823 193.969 105.184 197.783 119.369 197.893C133.553 198.003 147.514 194.405 159.835 187.465C172.156 180.525 182.399 170.49 189.523 158.377C196.647 146.265 200.4 132.507 200.4 118.5H240Z" fill="#6FCF73"/>
</svg>
