<svg width="41" height="41" viewBox="0 0 41 41" fill="none" xmlns="http://www.w3.org/2000/svg">
<path fill-rule="evenodd" clip-rule="evenodd" d="M0 7.32143C0 3.27792 3.27792 0 7.32143 0H30.75C34.5575 0 37.6862 2.90647 38.0384 6.62179C39.8073 7.62973 41 9.53272 41 11.7143V35.1429C41 38.3777 38.3777 41 35.1429 41H11.7143C9.53272 41 7.62973 39.8073 6.62179 38.0384C2.90647 37.6862 0 34.5575 0 30.75V7.32143ZM30.75 2.92857C32.6627 2.92857 34.2898 4.15097 34.8929 5.85714H11.7143C8.47948 5.85714 5.85714 8.47948 5.85714 11.7143V34.8929C4.15097 34.2898 2.92857 32.6627 2.92857 30.75V7.32143C2.92857 4.89532 4.89532 2.92857 7.32143 2.92857H30.75ZM35.1429 8.78571H11.7143C10.0969 8.78571 8.78571 10.0969 8.78571 11.7143V35.1429C8.78571 36.7603 10.0969 38.0714 11.7143 38.0714H35.1429C36.7603 38.0714 38.0714 36.7603 38.0714 35.1429V11.7143C38.0714 10.0969 36.7603 8.78571 35.1429 8.78571ZM25.625 14.1786V22.2321H33.6786V25.625H25.625V33.6786H22.2321V25.625H14.1786V22.2321H22.2321V14.1786H25.625Z" fill="#6916A9"/>
</svg>
