<svg width="14" height="16" viewBox="0 0 14 16" fill="none" xmlns="http://www.w3.org/2000/svg">
<path d="M5.0923 15.375C5.0923 15.7188 4.8177 16 4.48207 16H2.44089C1.09535 16 0 14.8781 0 13.5V2.5C0 1.12188 1.09535 0 2.44089 0H9.94355C11.2891 0 12.3844 1.12188 12.3844 2.5V6.34375C12.3844 6.6875 12.1098 6.96875 11.7742 6.96875C11.4386 6.96875 11.164 6.6875 11.164 6.34375V2.5C11.164 1.80938 10.6178 1.25 9.94355 1.25H2.44089C1.76659 1.25 1.22044 1.80938 1.22044 2.5V13.5C1.22044 14.1906 1.76659 14.75 2.44089 14.75H4.48207C4.8177 14.75 5.0923 15.0312 5.0923 15.375ZM9.33333 3.75H3.04806C2.71243 3.75 2.43783 4.03125 2.43783 4.375C2.43783 4.71875 2.71243 5 3.04806 5H9.33333C9.66896 5 9.94355 4.71875 9.94355 4.375C9.94355 4.03125 9.66896 3.75 9.33333 3.75ZM9.94355 6.875C9.94355 6.53125 9.66896 6.25 9.33333 6.25H3.04806C2.71243 6.25 2.43783 6.53125 2.43783 6.875C2.43783 7.21875 2.71243 7.5 3.04806 7.5H9.33333C9.66896 7.5 9.94355 7.21875 9.94355 6.875ZM3.04806 8.75C2.71243 8.75 2.43783 9.03125 2.43783 9.375C2.43783 9.71875 2.71243 10 3.04806 10H6.86499C7.20061 10 7.47521 9.71875 7.47521 9.375C7.47521 9.03125 7.20061 8.75 6.86499 8.75H3.04806ZM13.4645 11.7L10.1205 15.1187C10.0473 15.1937 9.95271 15.25 9.85202 15.2781L7.38978 15.9781C7.33486 15.9937 7.27994 16 7.22807 16C7.06636 16 6.9077 15.9344 6.79176 15.8125C6.63616 15.65 6.58124 15.4125 6.64531 15.1938L7.37452 12.7344C7.40504 12.6344 7.4569 12.5469 7.52708 12.475L10.8772 9.05C11.5912 8.31875 12.7506 8.31875 13.4645 9.05C14.1785 9.78125 14.1785 10.9688 13.4645 11.7ZM11.6217 11.8219L10.7582 10.9375L8.49733 13.2469L8.13425 14.4688L9.373 14.1156L11.6217 11.8219ZM12.6011 9.93437C12.3631 9.69063 11.9756 9.69063 11.7376 9.93437L11.6186 10.0562L12.4821 10.9406L12.6011 10.8188C12.8391 10.5719 12.8391 10.1781 12.6011 9.93437Z" fill="#6FCF97"/>
</svg>
