<svg width="15" height="20" viewBox="0 0 15 20" fill="none" xmlns="http://www.w3.org/2000/svg">
<g clip-path="url(#clip0)">
<path d="M7.50354 9.77831C9.69471 9.77831 11.4772 7.58546 11.4772 4.88546C11.4772 2.18546 10.8925 -0.00740051 7.50354 -0.00740051C4.11463 -0.000257656 3.52985 2.1926 3.52985 4.8926C3.52985 7.5926 5.30533 9.77831 7.50354 9.77831Z" fill="white"/>
<path d="M14.9927 17.05C14.9222 12.3429 14.3163 11.0071 9.67328 10.1571C9.67328 10.1571 9.01804 11 7.4962 11C5.97436 11 5.31912 10.1571 5.31912 10.1571C0.73246 11 0.0913136 12.3143 0.0067669 16.9C-0.000278658 17.2714 -0.000278658 17.2929 -0.00732422 17.25C-0.00732422 17.3286 -0.00732422 17.4857 -0.00732422 17.7429C-0.00732422 17.7429 1.09883 20 7.4962 20C13.8936 20 14.9997 17.7429 14.9997 17.7429C14.9997 17.5714 14.9997 17.4571 14.9997 17.3786C14.9997 17.4071 14.9997 17.35 14.9927 17.05Z" fill="white"/>
</g>
<defs>
<clipPath id="clip0">
<rect width="15" height="20" fill="white"/>
</clipPath>
</defs>
</svg>
