<svg width="16" height="20" viewBox="0 0 16 20" fill="none" xmlns="http://www.w3.org/2000/svg">
<path d="M14.582 7.5H13.332V5.83203C13.332 2.61719 10.7148 0 7.49998 0C4.28515 0 1.66797 2.61719 1.66797 5.83203V7.5H0.417968C0.1875 7.5 0 7.6875 0 7.91797V18.3359C0 19.2539 0.746092 20 1.66797 20H13.3359C14.2539 20 15.0039 19.2539 15.0039 18.332V7.91797C15 7.6875 14.8125 7.5 14.582 7.5ZM8.48436 13.8398L8.74608 16.2031C8.75779 16.3203 8.72264 16.4375 8.64061 16.5273C8.56248 16.6172 8.4492 16.668 8.33202 16.668H6.66405C6.54686 16.668 6.43358 16.6172 6.35546 16.5273C6.27733 16.4375 6.23827 16.3203 6.24999 16.2031L6.51171 13.8398C6.08593 13.5312 5.82811 13.0391 5.82811 12.5C5.82811 11.582 6.57421 10.832 7.49608 10.832C8.41795 10.832 9.16404 11.5781 9.16404 12.5C9.16795 13.0391 8.91014 13.5312 8.48436 13.8398ZM10.832 7.5H4.16796V5.83203C4.16796 3.99219 5.66405 2.5 7.49998 2.5C9.33592 2.5 10.832 3.99609 10.832 5.83203V7.5Z" fill="white"/>
</svg>
