<svg width="137" height="161" viewBox="0 0 137 161" fill="none" xmlns="http://www.w3.org/2000/svg">
<path d="M7.5298 141.059C6.73911 141.059 5.94841 141.031 5.15772 140.975C4.38089 140.933 3.56939 140.821 2.72321 140.639V126.545C3.38906 126.419 4.11733 126.329 4.90802 126.273C5.69872 126.203 6.43393 126.168 7.11365 126.168C8.02919 126.168 8.86843 126.238 9.63138 126.378C10.4082 126.503 11.0741 126.727 11.6289 127.049C12.1838 127.37 12.6138 127.797 12.919 128.328C13.2381 128.845 13.3976 129.489 13.3976 130.258C13.3976 131.418 12.8427 132.334 11.733 133.005C12.6485 133.355 13.2727 133.83 13.6057 134.431C13.9386 135.032 14.1051 135.711 14.1051 136.466C14.1051 137.99 13.5502 139.136 12.4404 139.905C11.3446 140.674 9.70768 141.059 7.5298 141.059ZM5.88599 134.536V138.29C6.12181 138.318 6.37844 138.339 6.65588 138.353C6.93331 138.367 7.23849 138.374 7.57142 138.374C8.54245 138.374 9.3262 138.234 9.92269 137.955C10.5192 137.675 10.8174 137.158 10.8174 136.403C10.8174 135.732 10.5677 135.256 10.0683 134.977C9.56896 134.683 8.85456 134.536 7.92515 134.536H5.88599ZM5.88599 132.04H7.46738C8.46615 132.04 9.18055 131.914 9.61058 131.663C10.0406 131.397 10.2556 130.978 10.2556 130.404C10.2556 129.817 10.0337 129.405 9.58977 129.167C9.14587 128.929 8.49389 128.81 7.63384 128.81C7.3564 128.81 7.05816 128.817 6.73911 128.831C6.42005 128.831 6.13568 128.845 5.88599 128.873V132.04Z" fill="white"/>
<path d="M24.3191 141.164C21.9747 141.164 20.1852 140.506 18.9507 139.192C17.7299 137.878 17.1196 136.011 17.1196 133.592C17.1196 132.39 17.3068 131.32 17.6814 130.383C18.0559 129.433 18.5692 128.636 19.2212 127.992C19.8731 127.335 20.65 126.839 21.5516 126.503C22.4533 126.168 23.4313 126 24.4855 126C25.0959 126 25.6508 126.049 26.1501 126.147C26.6495 126.231 27.0865 126.336 27.461 126.461C27.8356 126.573 28.1477 126.692 28.3974 126.818C28.6471 126.944 28.8274 127.042 28.9384 127.112L28.002 129.754C27.5581 129.516 27.0379 129.314 26.4414 129.146C25.8588 128.978 25.193 128.894 24.4439 128.894C23.9445 128.894 23.4521 128.978 22.9666 129.146C22.4949 129.314 22.0718 129.586 21.6973 129.964C21.3366 130.327 21.0453 130.803 20.8234 131.39C20.6014 131.977 20.4904 132.69 20.4904 133.529C20.4904 134.201 20.5598 134.83 20.6985 135.417C20.8511 135.99 21.0869 136.487 21.406 136.906C21.7389 137.326 22.1689 137.661 22.6961 137.913C23.2232 138.15 23.8613 138.269 24.6104 138.269C25.082 138.269 25.5051 138.241 25.8796 138.185C26.2542 138.129 26.5871 138.067 26.8784 137.997C27.1697 137.913 27.4263 137.822 27.6483 137.724C27.8702 137.626 28.0714 137.535 28.2517 137.451L29.1465 140.073C28.6887 140.353 28.0436 140.604 27.2113 140.828C26.379 141.052 25.4149 141.164 24.3191 141.164Z" fill="white"/>
<path d="M32.2767 140.87V126.336H42.0147V129.083H35.5227V131.935H41.2865V134.62H35.5227V138.122H42.4933V140.87H32.2767Z" fill="white"/>
<path d="M49.7645 126.336C50.0142 126.797 50.2986 127.37 50.6176 128.055C50.9505 128.727 51.2904 129.461 51.6372 130.258C51.9979 131.041 52.3516 131.845 52.6984 132.669C53.0452 133.494 53.3712 134.27 53.6764 134.997C53.9815 134.27 54.3075 133.494 54.6543 132.669C55.0011 131.845 55.3479 131.041 55.6947 130.258C56.0554 129.461 56.3952 128.727 56.7143 128.055C57.0472 127.37 57.3385 126.797 57.5882 126.336H60.5429C60.6816 127.3 60.8065 128.384 60.9174 129.586C61.0423 130.775 61.1463 132.019 61.2296 133.32C61.3267 134.606 61.4099 135.899 61.4793 137.2C61.5625 138.5 61.6319 139.723 61.6873 140.87H58.5246C58.4829 139.458 58.4275 137.92 58.3581 136.256C58.2887 134.592 58.1847 132.914 58.046 131.222C57.7963 131.81 57.5189 132.46 57.2137 133.173C56.9085 133.886 56.6033 134.599 56.2981 135.312C56.0068 136.025 55.7225 136.71 55.445 137.367C55.1676 138.011 54.9318 138.563 54.7375 139.024H52.4695C52.2753 138.563 52.0395 138.011 51.762 137.367C51.4846 136.71 51.1933 136.025 50.8881 135.312C50.5968 134.599 50.2986 133.886 49.9934 133.173C49.6882 132.46 49.4108 131.81 49.1611 131.222C49.0224 132.914 48.9183 134.592 48.849 136.256C48.7796 137.92 48.7241 139.458 48.6825 140.87H45.5197C45.5752 139.723 45.6376 138.5 45.707 137.2C45.7902 135.899 45.8734 134.606 45.9567 133.32C46.0538 132.019 46.1578 130.775 46.2688 129.586C46.3936 128.384 46.5254 127.3 46.6641 126.336H49.7645Z" fill="white"/>
<path d="M71.6895 140.87V126.336H81.4275V129.083H74.9355V131.935H80.6993V134.62H74.9355V138.122H81.9061V140.87H71.6895Z" fill="white"/>
<path d="M84.1002 138.102H86.181C86.6942 137.207 87.0965 136.319 87.3878 135.438C87.6791 134.557 87.8941 133.662 88.0329 132.753C88.1855 131.845 88.2756 130.908 88.3034 129.943C88.345 128.978 88.3658 127.964 88.3658 126.902V126.336H97.8958V138.102H100.372V144.75H97.2507V140.87H87.2214V144.75H84.1002V138.102ZM91.4245 129.104C91.3968 129.859 91.3482 130.635 91.2789 131.432C91.2095 132.229 91.1055 133.019 90.9668 133.802C90.828 134.571 90.6408 135.326 90.405 136.067C90.183 136.794 89.8986 137.472 89.5518 138.102H94.733V129.104H91.4245Z" fill="white"/>
<path d="M114.402 136.109C114.402 136.92 114.242 137.633 113.923 138.248C113.618 138.864 113.174 139.381 112.592 139.8C112.023 140.22 111.322 140.534 110.49 140.744C109.672 140.954 108.756 141.059 107.743 141.059C107.161 141.059 106.495 141.017 105.746 140.933C105.011 140.849 104.262 140.716 103.499 140.534V126.336H106.745V131.159C106.897 131.145 107.036 131.138 107.161 131.138C107.299 131.138 107.445 131.138 107.598 131.138C109.859 131.138 111.558 131.544 112.696 132.355C113.833 133.166 114.402 134.417 114.402 136.109ZM116.212 126.336H119.458V140.87H116.212V126.336ZM107.39 133.907C107.32 133.907 107.223 133.907 107.098 133.907C106.973 133.907 106.856 133.914 106.745 133.928V138.269C106.897 138.283 107.071 138.29 107.265 138.29C107.459 138.29 107.695 138.29 107.972 138.29C108.402 138.29 108.805 138.255 109.179 138.185C109.554 138.115 109.88 137.997 110.157 137.829C110.448 137.661 110.67 137.437 110.823 137.158C110.989 136.878 111.073 136.529 111.073 136.109C111.073 135.256 110.754 134.676 110.115 134.368C109.491 134.061 108.583 133.907 107.39 133.907Z" fill="white"/>
<path d="M2.17025 152.558V154.232H2.91308C3.66078 154.232 4.32593 154.291 4.90855 154.408C5.50088 154.526 5.9961 154.716 6.39422 154.981C6.80205 155.245 7.11278 155.588 7.32641 156.008C7.54004 156.429 7.64685 156.943 7.64685 157.55C7.64685 158.675 7.23902 159.517 6.42335 160.075C5.6174 160.623 4.46188 160.897 2.95678 160.897C2.54895 160.897 2.08286 160.873 1.5585 160.824C1.04386 160.775 0.524355 160.687 0 160.56V150.62H6.7001V152.558H2.17025ZM3.0733 158.945C3.37432 158.945 3.66078 158.925 3.93267 158.886C4.20455 158.847 4.44246 158.778 4.64637 158.68C4.86 158.573 5.02993 158.431 5.15616 158.255C5.28239 158.078 5.34551 157.848 5.34551 157.565C5.34551 157.271 5.28725 157.031 5.17073 156.845C5.0542 156.659 4.88913 156.512 4.6755 156.405C4.46188 156.297 4.1997 156.224 3.88897 156.185C3.57824 156.145 3.22867 156.126 2.84026 156.126H2.17025V158.915C2.27706 158.925 2.4033 158.935 2.54895 158.945C2.70431 158.945 2.8791 158.945 3.0733 158.945Z" fill="white"/>
<path d="M13.2311 150.503C14.7362 150.503 15.8917 150.772 16.6977 151.31C17.5036 151.839 17.9066 152.71 17.9066 153.924C17.9066 155.147 17.4988 156.033 16.6831 156.581C15.8674 157.119 14.7022 157.388 13.1874 157.388H12.4737V160.794H10.2015V150.767C10.6967 150.669 11.2211 150.601 11.7746 150.562C12.328 150.523 12.8136 150.503 13.2311 150.503ZM13.3767 152.456C13.2117 152.456 13.0466 152.46 12.8815 152.47C12.7262 152.48 12.5902 152.49 12.4737 152.5V155.436H13.1874C13.9739 155.436 14.5663 155.328 14.9644 155.113C15.3625 154.898 15.5616 154.496 15.5616 153.909C15.5616 153.625 15.5082 153.39 15.4013 153.204C15.3042 153.018 15.1586 152.872 14.9644 152.764C14.7799 152.646 14.5517 152.568 14.2798 152.529C14.0079 152.48 13.7069 152.456 13.3767 152.456Z" fill="white"/>
<path d="M22.2115 155.7C22.2115 156.199 22.2697 156.649 22.3863 157.051C22.5125 157.452 22.6873 157.8 22.9106 158.093C23.1437 158.377 23.4253 158.597 23.7554 158.754C24.0856 158.91 24.4643 158.989 24.8915 158.989C25.3091 158.989 25.6829 158.91 26.0131 158.754C26.3529 158.597 26.6345 158.377 26.8578 158.093C27.0909 157.8 27.2657 157.452 27.3822 157.051C27.5084 156.649 27.5716 156.199 27.5716 155.7C27.5716 155.201 27.5084 154.751 27.3822 154.349C27.2657 153.938 27.0909 153.591 26.8578 153.307C26.6345 153.013 26.3529 152.788 26.0131 152.632C25.6829 152.475 25.3091 152.397 24.8915 152.397C24.4643 152.397 24.0856 152.48 23.7554 152.646C23.4253 152.803 23.1437 153.028 22.9106 153.322C22.6873 153.606 22.5125 153.953 22.3863 154.364C22.2697 154.765 22.2115 155.211 22.2115 155.7ZM29.9166 155.7C29.9166 156.571 29.7855 157.339 29.5233 158.005C29.2709 158.661 28.9213 159.214 28.4746 159.664C28.0279 160.104 27.4939 160.437 26.8724 160.662C26.2607 160.887 25.6004 161 24.8915 161C24.2021 161 23.5515 160.887 22.9397 160.662C22.328 160.437 21.7939 160.104 21.3376 159.664C20.8812 159.214 20.5219 158.661 20.2597 158.005C19.9975 157.339 19.8664 156.571 19.8664 155.7C19.8664 154.829 20.0024 154.066 20.2743 153.41C20.5462 152.744 20.9103 152.186 21.3667 151.736C21.8328 151.286 22.3668 150.948 22.9689 150.723C23.5806 150.498 24.2215 150.385 24.8915 150.385C25.5809 150.385 26.2315 150.498 26.8433 150.723C27.455 150.948 27.9891 151.286 28.4455 151.736C28.9019 152.186 29.2611 152.744 29.5233 153.41C29.7855 154.066 29.9166 154.829 29.9166 155.7Z" fill="white"/>
<path d="M38.6273 150.62H40.8995V160.794H38.6273V156.478H34.8111V160.794H32.5389V150.62H34.8111V154.511H38.6273V150.62Z" fill="white"/>
<path d="M51.7416 157.462C51.7416 158.597 51.3241 159.458 50.489 160.046C49.6539 160.633 48.4887 160.927 46.9933 160.927C46.5758 160.927 46.0951 160.897 45.5513 160.839C45.0173 160.78 44.488 160.687 43.9637 160.56V150.62H46.2359V153.997C46.3621 153.987 46.4738 153.982 46.5709 153.982C46.6777 153.982 46.7845 153.982 46.8913 153.982C48.5324 153.982 49.751 154.266 50.5473 154.834C51.3435 155.402 51.7416 156.278 51.7416 157.462ZM46.6874 155.92C46.6389 155.92 46.5709 155.92 46.4835 155.92C46.3961 155.92 46.3136 155.925 46.2359 155.935V158.974C46.3427 158.984 46.4641 158.989 46.6 158.989C46.736 158.989 46.9011 158.989 47.0953 158.989C47.3963 158.989 47.6876 158.964 47.9692 158.915C48.2508 158.866 48.4984 158.783 48.712 158.666C48.9256 158.548 49.0956 158.392 49.2218 158.196C49.348 158 49.4112 157.755 49.4112 157.462C49.4112 157.158 49.348 156.909 49.2218 156.713C49.0956 156.517 48.9111 156.361 48.6683 156.243C48.4353 156.126 48.1488 156.043 47.809 155.994C47.4788 155.945 47.105 155.92 46.6874 155.92Z" fill="white"/>
<path d="M63.1232 161C61.4822 161 60.2296 160.54 59.3654 159.62C58.5109 158.7 58.0836 157.393 58.0836 155.7C58.0836 154.858 58.2147 154.11 58.4769 153.454C58.7391 152.788 59.0983 152.23 59.5547 151.78C60.0111 151.32 60.5549 150.973 61.186 150.738C61.8172 150.503 62.5018 150.385 63.2398 150.385C63.667 150.385 64.0554 150.42 64.405 150.488C64.7546 150.547 65.0604 150.62 65.3226 150.708C65.5848 150.787 65.8033 150.87 65.9781 150.958C66.1529 151.046 66.2791 151.115 66.3568 151.164L65.7013 153.013C65.3906 152.847 65.0265 152.705 64.6089 152.588C64.2011 152.47 63.735 152.411 63.2106 152.411C62.8611 152.411 62.5164 152.47 62.1765 152.588C61.8463 152.705 61.5502 152.896 61.288 153.16C61.0355 153.415 60.8316 153.747 60.6763 154.159C60.5209 154.57 60.4432 155.069 60.4432 155.656C60.4432 156.126 60.4918 156.566 60.5889 156.977C60.6957 157.379 60.8608 157.726 61.0841 158.02C61.3171 158.313 61.6182 158.548 61.9871 158.724C62.3561 158.891 62.8028 158.974 63.3272 158.974C63.6573 158.974 63.9535 158.954 64.2157 158.915C64.4778 158.876 64.7109 158.832 64.9148 158.783C65.1187 158.724 65.2984 158.661 65.4537 158.592C65.6091 158.524 65.7499 158.46 65.8761 158.401L66.5024 160.237C66.182 160.432 65.7305 160.609 65.1479 160.765C64.5652 160.922 63.8904 161 63.1232 161Z" fill="white"/>
<path d="M76.4932 150.62V152.573H73.449V160.794H71.1768V152.573H68.1326V150.62H76.4932Z" fill="white"/>
<path d="M80.2484 155.7C80.2484 156.199 80.3067 156.649 80.4232 157.051C80.5495 157.452 80.7242 157.8 80.9476 158.093C81.1806 158.377 81.4622 158.597 81.7924 158.754C82.1225 158.91 82.5012 158.989 82.9285 158.989C83.346 158.989 83.7199 158.91 84.05 158.754C84.3899 158.597 84.6715 158.377 84.8948 158.093C85.1278 157.8 85.3026 157.452 85.4192 157.051C85.5454 156.649 85.6085 156.199 85.6085 155.7C85.6085 155.201 85.5454 154.751 85.4192 154.349C85.3026 153.938 85.1278 153.591 84.8948 153.307C84.6715 153.013 84.3899 152.788 84.05 152.632C83.7199 152.475 83.346 152.397 82.9285 152.397C82.5012 152.397 82.1225 152.48 81.7924 152.646C81.4622 152.803 81.1806 153.028 80.9476 153.322C80.7242 153.606 80.5495 153.953 80.4232 154.364C80.3067 154.765 80.2484 155.211 80.2484 155.7ZM87.9535 155.7C87.9535 156.571 87.8225 157.339 87.5603 158.005C87.3078 158.661 86.9582 159.214 86.5116 159.664C86.0649 160.104 85.5308 160.437 84.9094 160.662C84.2976 160.887 83.6373 161 82.9285 161C82.239 161 81.5884 160.887 80.9767 160.662C80.365 160.437 79.8309 160.104 79.3745 159.664C78.9181 159.214 78.5588 158.661 78.2967 158.005C78.0345 157.339 77.9034 156.571 77.9034 155.7C77.9034 154.829 78.0393 154.066 78.3112 153.41C78.5831 152.744 78.9472 152.186 79.4036 151.736C79.8697 151.286 80.4038 150.948 81.0058 150.723C81.6176 150.498 82.2585 150.385 82.9285 150.385C83.6179 150.385 84.2685 150.498 84.8802 150.723C85.492 150.948 86.0261 151.286 86.4824 151.736C86.9388 152.186 87.2981 152.744 87.5603 153.41C87.8225 154.066 87.9535 154.829 87.9535 155.7Z" fill="white"/>
<path d="M94.9892 152.558C94.9601 153.214 94.9212 153.875 94.8727 154.54C94.8338 155.196 94.7562 155.832 94.6396 156.449C94.5328 157.065 94.3726 157.643 94.159 158.181C93.9551 158.72 93.6686 159.194 93.2996 159.605C92.9403 160.016 92.4888 160.344 91.945 160.589C91.4013 160.834 90.7361 160.971 89.9496 161L89.702 159.003C90.4011 158.925 90.94 158.749 91.3187 158.475C91.6974 158.191 91.9839 157.76 92.1781 157.183C92.4208 156.468 92.5908 155.548 92.6879 154.423C92.7947 153.287 92.8481 152.02 92.8481 150.62H99.7375V160.794H97.4653V152.558H94.9892Z" fill="white"/>
<path d="M104.705 155.7C104.705 156.199 104.764 156.649 104.88 157.051C105.006 157.452 105.181 157.8 105.404 158.093C105.637 158.377 105.919 158.597 106.249 158.754C106.579 158.91 106.958 158.989 107.385 158.989C107.803 158.989 108.177 158.91 108.507 158.754C108.847 158.597 109.128 158.377 109.352 158.093C109.585 157.8 109.759 157.452 109.876 157.051C110.002 156.649 110.065 156.199 110.065 155.7C110.065 155.201 110.002 154.751 109.876 154.349C109.759 153.938 109.585 153.591 109.352 153.307C109.128 153.013 108.847 152.788 108.507 152.632C108.177 152.475 107.803 152.397 107.385 152.397C106.958 152.397 106.579 152.48 106.249 152.646C105.919 152.803 105.637 153.028 105.404 153.322C105.181 153.606 105.006 153.953 104.88 154.364C104.764 154.765 104.705 155.211 104.705 155.7ZM112.41 155.7C112.41 156.571 112.279 157.339 112.017 158.005C111.765 158.661 111.415 159.214 110.968 159.664C110.522 160.104 109.988 160.437 109.366 160.662C108.754 160.887 108.094 161 107.385 161C106.696 161 106.045 160.887 105.434 160.662C104.822 160.437 104.288 160.104 103.831 159.664C103.375 159.214 103.016 158.661 102.754 158.005C102.491 157.339 102.36 156.571 102.36 155.7C102.36 154.829 102.496 154.066 102.768 153.41C103.04 152.744 103.404 152.186 103.86 151.736C104.327 151.286 104.861 150.948 105.463 150.723C106.074 150.498 106.715 150.385 107.385 150.385C108.075 150.385 108.725 150.498 109.337 150.723C109.949 150.948 110.483 151.286 110.939 151.736C111.396 152.186 111.755 152.744 112.017 153.41C112.279 154.066 112.41 154.829 112.41 155.7Z" fill="white"/>
<path d="M118.397 160.927C117.844 160.927 117.29 160.907 116.737 160.868C116.193 160.839 115.625 160.76 115.033 160.633V150.767C115.499 150.679 116.009 150.615 116.562 150.576C117.116 150.527 117.63 150.503 118.106 150.503C118.747 150.503 119.334 150.552 119.868 150.65C120.412 150.738 120.878 150.894 121.267 151.12C121.655 151.345 121.956 151.643 122.17 152.015C122.393 152.377 122.505 152.827 122.505 153.366C122.505 154.178 122.116 154.819 121.34 155.289C121.98 155.534 122.417 155.866 122.65 156.287C122.883 156.708 123 157.183 123 157.711C123 158.778 122.612 159.581 121.835 160.119C121.068 160.657 119.922 160.927 118.397 160.927ZM117.247 156.361V158.989C117.412 159.008 117.591 159.023 117.786 159.033C117.98 159.043 118.193 159.047 118.426 159.047C119.106 159.047 119.655 158.95 120.072 158.754C120.49 158.558 120.699 158.196 120.699 157.667C120.699 157.198 120.524 156.865 120.174 156.669C119.825 156.464 119.325 156.361 118.674 156.361H117.247ZM117.247 154.614H118.354C119.053 154.614 119.553 154.526 119.854 154.349C120.155 154.163 120.305 153.87 120.305 153.469C120.305 153.057 120.15 152.769 119.839 152.602C119.529 152.436 119.072 152.353 118.47 152.353C118.276 152.353 118.067 152.358 117.844 152.367C117.621 152.367 117.421 152.377 117.247 152.397V154.614Z" fill="white"/>
<path d="M96.0234 83.8391L89.8604 77.6782C87.6221 75.4406 84.004 75.4406 81.7657 77.6782C79.5274 79.9157 79.5274 83.5326 81.7657 85.7701L83.4214 87.4253L72.4292 98.4138L70.7734 96.7586C68.5351 94.5211 64.917 94.5211 62.6787 96.7586C60.4404 98.9962 60.4404 102.613 62.6787 104.851L68.8417 111.011C70.8348 113.004 73.4563 114 76.0626 114C78.3162 114 80.5699 113.264 82.4249 111.778C84.2799 113.249 86.5336 114 88.7872 114C91.4088 114 94.015 113.004 96.0081 111.011C99.7181 107.303 99.9788 101.433 96.7746 97.4329C99.9788 93.4176 99.7181 87.5479 96.0234 83.8391ZM70.5741 109.28L64.4111 103.119C63.1387 101.847 63.1387 99.7624 64.4111 98.4904C65.055 97.8467 65.8829 97.5402 66.7261 97.5402C67.5693 97.5402 68.3972 97.8621 69.041 98.4904L71.5706 101.019C72.0459 101.494 72.8278 101.494 73.303 101.019L86.0277 88.2988C86.5029 87.8238 86.5029 87.0421 86.0277 86.567L83.4981 84.0536C82.2256 82.7816 82.2256 80.6973 83.4981 79.4253C84.7705 78.1533 86.8555 78.1533 88.128 79.4253L94.291 85.5862C97.0506 88.3448 97.2959 92.6667 95.0422 95.7011C95.0116 95.6705 94.9656 95.6552 94.9349 95.6245C94.8736 95.5785 94.8123 95.5326 94.7663 95.5019C94.6896 95.4406 94.613 95.3946 94.5363 95.3333C94.475 95.2874 94.4137 95.2567 94.3677 95.2107C94.291 95.1647 94.199 95.1034 94.1224 95.0575C94.061 95.0268 94.0151 94.9808 93.9537 94.9502C93.8617 94.9042 93.7851 94.8582 93.6931 94.8123C93.6318 94.7816 93.5858 94.751 93.5245 94.7203C93.4325 94.6743 93.3252 94.6283 93.2332 94.5824C93.1872 94.5517 93.1412 94.5364 93.0952 94.5057C92.9726 94.4444 92.8499 94.3985 92.7273 94.3525C92.6966 94.3372 92.6813 94.3372 92.6506 94.3218C92.4973 94.2605 92.344 94.1992 92.1907 94.1533C92.1753 94.1533 92.16 94.1379 92.1447 94.1379C92.0067 94.092 91.8687 94.046 91.7308 94C91.6848 93.9847 91.6388 93.9693 91.5928 93.9693C91.4855 93.9387 91.3781 93.908 91.2708 93.8774C91.2095 93.8621 91.1635 93.8467 91.1022 93.8467C90.9949 93.8161 90.9029 93.8008 90.7956 93.7854C90.7342 93.7701 90.6729 93.7701 90.6116 93.7548C90.5196 93.7395 90.4123 93.7241 90.3203 93.7088C90.259 93.6935 90.1977 93.6935 90.1363 93.6782C90.0443 93.6628 89.9524 93.6475 89.845 93.6475C89.7837 93.6475 89.7224 93.6322 89.6611 93.6322C89.5691 93.6169 89.4771 93.6169 89.3698 93.6169C89.3085 93.6169 89.2471 93.6169 89.1858 93.6015C89.0938 93.6015 88.9865 93.6015 88.8945 93.6015C88.8332 93.6015 88.7719 93.6015 88.7106 93.6015C88.6186 93.6015 88.5113 93.6015 88.4193 93.6015C88.358 93.6015 88.2966 93.6015 88.2353 93.6015C88.128 93.6015 88.036 93.6169 87.9287 93.6169C87.8674 93.6169 87.8214 93.6322 87.76 93.6322C87.6527 93.6475 87.5301 93.6628 87.4228 93.6782C87.3768 93.6782 87.3308 93.6935 87.2848 93.6935C87.1315 93.7088 86.9935 93.7395 86.8402 93.7701C86.8249 93.7701 86.8249 93.7701 86.8095 93.7701C86.6562 93.8008 86.5029 93.8314 86.3343 93.8774C86.3036 93.8927 86.273 93.8927 86.2423 93.908C86.1196 93.9387 85.997 93.9693 85.8744 94C85.8284 94.0153 85.767 94.0306 85.721 94.046C85.6291 94.0766 85.5217 94.1073 85.4298 94.1379C85.3684 94.1533 85.3071 94.1839 85.2611 94.1992C85.1691 94.2299 85.0771 94.2605 84.9852 94.3065C84.9238 94.3372 84.8625 94.3525 84.8012 94.3831C84.7092 94.4138 84.6325 94.4598 84.5406 94.4904C84.4792 94.5211 84.4179 94.5517 84.3566 94.5824C84.2799 94.6283 84.188 94.659 84.1113 94.705C84.05 94.7356 83.9887 94.7663 83.9273 94.7969C83.8507 94.8429 83.7587 94.8889 83.682 94.9349C83.6207 94.9655 83.5594 95.0115 83.4981 95.0421C83.4214 95.0881 83.3448 95.1341 83.2528 95.1954C83.1914 95.2261 83.1301 95.272 83.0841 95.3027C83.0075 95.3487 82.9308 95.41 82.8542 95.4713C82.7928 95.5172 82.7469 95.5479 82.6855 95.5939C82.6089 95.6552 82.5322 95.7165 82.4402 95.7778C82.3942 95.8237 82.3329 95.8544 82.2869 95.9004C82.1949 95.977 82.1183 96.0383 82.0263 96.1149C81.9803 96.1456 81.9343 96.1916 81.9037 96.2222C81.781 96.3295 81.6584 96.4521 81.5357 96.5747C79.604 98.5057 78.5462 101.065 78.5462 103.793C78.5462 103.946 78.5462 104.115 78.5615 104.268C78.5615 104.314 78.5615 104.375 78.5769 104.421C78.5769 104.529 78.5922 104.636 78.6075 104.743C78.6075 104.805 78.6228 104.866 78.6228 104.912C78.6382 105.019 78.6382 105.111 78.6535 105.203C78.6688 105.264 78.6688 105.326 78.6842 105.372C78.6995 105.479 78.7148 105.571 78.7302 105.678C78.7455 105.724 78.7455 105.785 78.7608 105.831C78.7915 105.969 78.8221 106.092 78.8528 106.23C78.8528 106.245 78.8681 106.261 78.8681 106.291C78.8988 106.444 78.9448 106.582 78.9908 106.736C79.0061 106.782 79.0214 106.828 79.0368 106.858C79.0674 106.966 79.0981 107.073 79.1441 107.165C79.1594 107.211 79.1748 107.272 79.2054 107.318C79.2361 107.41 79.2821 107.502 79.3127 107.594C79.3281 107.64 79.3587 107.701 79.3741 107.747C79.4201 107.839 79.4507 107.931 79.4967 108.023C79.512 108.069 79.5427 108.115 79.558 108.161C79.6194 108.268 79.6653 108.391 79.7267 108.498C79.742 108.529 79.7573 108.544 79.7727 108.575C79.8493 108.713 79.926 108.851 80.0026 108.973C80.018 109.004 80.0486 109.034 80.0639 109.08C80.1253 109.172 80.1866 109.28 80.2479 109.372C80.2786 109.418 80.3092 109.464 80.3399 109.51C80.4012 109.586 80.4626 109.678 80.5239 109.755C80.5545 109.801 80.5852 109.847 80.6312 109.893C80.6618 109.923 80.6772 109.954 80.7078 109.985C77.657 112.284 73.3337 112.038 70.5741 109.28ZM94.2757 109.28C91.2402 112.314 86.3189 112.314 83.2834 109.28C81.8117 107.808 81.0145 105.862 81.0145 103.793C81.0145 101.724 81.827 99.7624 83.2834 98.3065C83.4061 98.1839 83.5287 98.0613 83.6667 97.954C83.8047 97.8467 83.9273 97.7241 84.0653 97.6322C84.2646 97.4789 84.4792 97.3257 84.6939 97.2031C84.7399 97.1724 84.7859 97.1418 84.8319 97.1264C85.0158 97.0192 85.1998 96.9272 85.3991 96.8352C85.4298 96.8199 85.4757 96.8046 85.5064 96.7739C85.5984 96.728 85.675 96.6973 85.767 96.6667C85.7977 96.6513 85.8284 96.636 85.859 96.6207C85.951 96.5747 86.0583 96.5441 86.1503 96.5134C86.1656 96.5134 86.1963 96.4981 86.2116 96.4981C87.0395 96.2069 87.9134 96.069 88.7872 96.069C90.397 96.069 92.022 96.5747 93.3712 97.5709C93.6778 97.8008 93.9844 98.0613 94.2757 98.3372C97.3112 101.326 97.3112 106.245 94.2757 109.28Z" fill="white"/>
<path d="M51.2415 96.767L49.5857 98.4228L38.593 87.4299L40.2488 85.7741C42.4872 83.5356 42.4872 79.9173 40.2488 77.6788C38.0104 75.4404 34.3922 75.4404 32.1538 77.6788L25.9905 83.8422C22.2803 87.5525 22.0197 93.4247 25.224 97.4263C22.035 101.428 22.2956 107.3 25.9905 111.01C27.9836 113.003 30.6053 114 33.2117 114C35.4654 114 37.7191 113.264 39.5742 111.777C41.4293 113.249 43.6831 114 45.9368 114C48.5585 114 51.1648 113.003 53.1579 111.01L59.3212 104.847C61.5596 102.608 61.5596 98.9901 59.3212 96.7517C57.1135 94.5439 53.4799 94.5439 51.2415 96.767ZM27.7383 109.293C24.7027 106.257 24.7027 101.336 27.7383 98.3155C29.4248 96.629 31.7092 95.8777 33.9169 96.0771C33.9322 96.0771 33.9629 96.0771 33.9782 96.0771C34.0242 96.0771 34.0856 96.0924 34.1316 96.0924C34.2082 96.1077 34.2695 96.1077 34.3462 96.1231C35.9407 96.353 37.4892 97.089 38.7157 98.3155C41.7513 101.351 41.7513 106.273 38.7157 109.308C35.6954 112.313 30.774 112.313 27.7383 109.293ZM57.6041 103.13L51.4408 109.293C48.6811 112.053 44.3577 112.298 41.322 110.044C41.3527 110.014 41.368 109.968 41.3987 109.937C41.4447 109.876 41.4907 109.814 41.5213 109.768C41.5827 109.692 41.6287 109.615 41.6747 109.538C41.7206 109.477 41.7513 109.416 41.7973 109.354C41.8433 109.278 41.9046 109.201 41.9506 109.109C41.9813 109.048 42.0273 108.986 42.0579 108.94C42.1039 108.848 42.1499 108.772 42.1959 108.68C42.2266 108.619 42.2572 108.573 42.2879 108.511C42.3339 108.419 42.3799 108.327 42.4259 108.235C42.4566 108.189 42.4719 108.128 42.5026 108.082C42.5485 107.975 42.6099 107.852 42.6559 107.729C42.6712 107.699 42.6865 107.668 42.7019 107.637C42.7632 107.484 42.8245 107.331 42.8705 107.177C42.8705 107.162 42.8858 107.131 42.8858 107.116C42.9318 106.978 42.9778 106.855 43.0085 106.717C43.0238 106.671 43.0392 106.625 43.0545 106.579C43.0851 106.472 43.1158 106.365 43.1465 106.257C43.1618 106.196 43.1771 106.15 43.1925 106.089C43.2078 105.997 43.2385 105.889 43.2538 105.797C43.2691 105.736 43.2691 105.675 43.2845 105.613C43.2998 105.521 43.3151 105.429 43.3305 105.338C43.3458 105.276 43.3458 105.215 43.3611 105.154C43.3764 105.062 43.3918 104.97 43.3918 104.878C43.3918 104.816 43.4071 104.755 43.4071 104.678C43.4224 104.586 43.4224 104.494 43.4224 104.402C43.4224 104.341 43.4224 104.28 43.4378 104.203C43.4378 104.111 43.4378 104.019 43.4378 103.927C43.4378 103.866 43.4378 103.804 43.4378 103.728C43.4378 103.636 43.4378 103.528 43.4378 103.436C43.4378 103.375 43.4378 103.314 43.4378 103.252C43.4378 103.16 43.4224 103.053 43.4224 102.961C43.4224 102.9 43.4071 102.838 43.4071 102.792C43.3918 102.685 43.3764 102.578 43.3611 102.47C43.3611 102.424 43.3458 102.378 43.3458 102.317C43.3305 102.179 43.2998 102.041 43.2691 101.903C43.2691 101.888 43.2691 101.872 43.2538 101.857C43.2231 101.704 43.1925 101.551 43.1465 101.382C43.1311 101.351 43.1311 101.305 43.1158 101.275C43.0851 101.152 43.0545 101.045 43.0238 100.922C43.0085 100.861 42.9932 100.815 42.9778 100.753C42.9472 100.661 42.9165 100.554 42.8858 100.462C42.8705 100.401 42.8398 100.339 42.8245 100.278C42.7938 100.186 42.7632 100.094 42.7172 100.002C42.6865 99.9407 42.6712 99.8794 42.6405 99.818C42.6099 99.726 42.5639 99.6494 42.5332 99.5574C42.5026 99.4961 42.4719 99.4347 42.4412 99.3734C42.3952 99.2968 42.3646 99.2048 42.3186 99.1281C42.2879 99.0668 42.2572 99.0054 42.2266 98.9441C42.1806 98.8675 42.1346 98.7755 42.0886 98.6988C42.0579 98.6375 42.0119 98.5762 41.9813 98.5148C41.9353 98.4382 41.8893 98.3615 41.828 98.2848C41.7973 98.2235 41.7513 98.1622 41.7206 98.1009C41.6747 98.0242 41.6133 97.9475 41.552 97.8709C41.506 97.8096 41.4753 97.7636 41.4293 97.7022C41.368 97.6256 41.3067 97.5489 41.2454 97.4723C41.1994 97.4263 41.1687 97.3649 41.1227 97.3189C41.0461 97.2269 40.9847 97.1503 40.9081 97.0583C40.8774 97.0123 40.8314 96.9816 40.8008 96.9356C40.6934 96.813 40.5708 96.6903 40.4481 96.5677C40.3255 96.445 40.2028 96.3377 40.0802 96.215C40.0342 96.1844 40.0035 96.1384 39.9575 96.1077C39.8655 96.0311 39.7889 95.9544 39.6969 95.8931C39.6509 95.8471 39.5896 95.8164 39.5436 95.7704C39.4669 95.7091 39.3903 95.6478 39.2983 95.5864C39.2369 95.5404 39.1909 95.5098 39.1296 95.4638C39.053 95.4025 38.9763 95.3565 38.8996 95.2951C38.8383 95.2491 38.777 95.2185 38.731 95.1878C38.6543 95.1418 38.5777 95.0805 38.4857 95.0345C38.4244 95.0038 38.363 94.9578 38.3017 94.9272C38.2251 94.8812 38.1331 94.8352 38.0564 94.7892C37.9951 94.7585 37.9338 94.7279 37.8724 94.6972C37.7958 94.6512 37.7038 94.6205 37.6271 94.5745C37.5658 94.5439 37.5045 94.5132 37.4432 94.4825C37.3512 94.4366 37.2745 94.4059 37.1825 94.3752C37.1212 94.3446 37.0599 94.3292 36.9985 94.2986C36.9066 94.2679 36.8146 94.2219 36.7226 94.1912C36.6613 94.1759 36.5999 94.1452 36.5386 94.1299C36.4466 94.0993 36.3393 94.0686 36.2473 94.0379C36.2013 94.0226 36.14 94.0073 36.094 93.9919C35.9713 93.9613 35.864 93.9306 35.7414 93.8999C35.7107 93.8846 35.6647 93.8846 35.634 93.8693C35.4807 93.8386 35.3274 93.7926 35.1588 93.762C35.1434 93.762 35.1281 93.762 35.1128 93.762C34.9748 93.7313 34.8368 93.716 34.6835 93.6853C34.6375 93.6853 34.5915 93.67 34.5455 93.67C34.4382 93.6546 34.3309 93.6393 34.2235 93.624C34.1622 93.624 34.1009 93.6086 34.0549 93.6086C33.9629 93.5933 33.8556 93.5933 33.7636 93.5933C33.7023 93.5933 33.6409 93.5933 33.5796 93.5933C33.4876 93.5933 33.3956 93.5933 33.2883 93.5933C33.227 93.5933 33.1657 93.5933 33.089 93.5933C32.997 93.5933 32.905 93.5933 32.813 93.5933C32.7517 93.5933 32.6751 93.5933 32.6137 93.6086C32.5217 93.6086 32.4298 93.624 32.3378 93.624C32.2764 93.624 32.1998 93.6393 32.1385 93.6393C32.0465 93.6546 31.9545 93.6546 31.8625 93.67C31.8012 93.6853 31.7398 93.6853 31.6632 93.7006C31.5712 93.716 31.4792 93.7313 31.3872 93.7466C31.3259 93.7619 31.2646 93.762 31.2032 93.7773C31.1113 93.7926 31.0039 93.8233 30.9119 93.8386C30.8506 93.8539 30.7893 93.8693 30.728 93.8846C30.6206 93.9153 30.5287 93.9459 30.4213 93.9613C30.3753 93.9766 30.314 93.9919 30.268 94.0073C30.1454 94.0379 30.0227 94.0839 29.9001 94.1299C29.8694 94.1452 29.8541 94.1452 29.8234 94.1606C29.6701 94.2066 29.5168 94.2679 29.3788 94.3292C29.3481 94.3446 29.3021 94.3599 29.2715 94.3752C29.1642 94.4212 29.0568 94.4672 28.9495 94.5132C28.8882 94.5439 28.8422 94.5592 28.7809 94.5899C28.6889 94.6359 28.5969 94.6819 28.5049 94.7279C28.4436 94.7585 28.3822 94.7892 28.3209 94.8198C28.2443 94.8658 28.1523 94.9118 28.0756 94.9578C28.0143 94.9885 27.953 95.0345 27.8916 95.0652C27.815 95.1112 27.7383 95.1571 27.6617 95.2031C27.6003 95.2491 27.539 95.2798 27.4777 95.3258C27.401 95.3718 27.3244 95.4331 27.263 95.4791C27.2017 95.5251 27.1404 95.5711 27.0791 95.6171C27.0484 95.6478 27.0024 95.6631 26.9717 95.6938C24.718 92.6581 24.9633 88.3345 27.723 85.5747L33.9016 79.4267C35.1741 78.1541 37.2592 78.1541 38.5317 79.4267C39.8042 80.6992 39.8042 82.7843 38.5317 84.0569L36.002 86.5866C35.5267 87.0619 35.5267 87.8439 36.002 88.3191L48.7271 101.045C49.2024 101.52 49.9843 101.52 50.4596 101.045L52.9893 98.5148C54.2618 97.2423 56.3469 97.2423 57.6194 98.5148C58.8766 99.772 58.8766 101.857 57.6041 103.13Z" fill="white"/>
<path d="M25.9893 68.1672L32.1501 74.3292C33.2688 75.4482 34.7248 76 36.196 76C37.6672 76 39.1231 75.4482 40.2419 74.3292C41.33 73.2409 41.9123 71.8153 41.9123 70.2825C41.9123 68.7497 41.3146 67.3241 40.2419 66.2358L38.5867 64.5803L49.575 53.5899L51.2301 55.2453C52.3182 56.3337 53.7435 56.9161 55.276 56.9161C56.8085 56.9161 58.2338 56.3183 59.3219 55.2453C61.5594 53.0074 61.5594 49.3899 59.3219 47.1519L53.1611 40.9899C49.4524 37.2805 43.5828 37.0199 39.5829 40.2235C37.7745 38.7826 35.5523 38.0009 33.2075 38.0009C30.4796 38.0009 27.9203 39.0586 25.9893 40.9899C22.2806 44.6994 22.0201 50.5702 25.2231 54.5709C22.0201 58.5869 22.2806 64.4577 25.9893 68.1672ZM51.414 42.722L57.5748 48.8841C58.8468 50.1563 58.8468 52.241 57.5748 53.5132C56.3028 54.7855 54.2185 54.7855 52.9465 53.5132L50.4179 50.984C49.9428 50.5089 49.1612 50.5089 48.6861 50.984L35.9661 63.7066C35.491 64.1818 35.491 64.9636 35.9661 65.4387L38.4948 67.9679C39.7668 69.2402 39.7668 71.3248 38.4948 72.5971C37.2228 73.8694 35.1385 73.8694 33.8665 72.5971L27.7058 66.4351C24.9472 63.676 24.702 59.3534 26.9548 56.3183C26.9855 56.349 27.0314 56.3643 27.0621 56.395C27.1234 56.441 27.1847 56.4869 27.246 56.5329C27.3226 56.5942 27.3993 56.6402 27.4759 56.6862C27.5372 56.7322 27.5985 56.7629 27.6598 56.8088C27.7364 56.8548 27.813 56.9161 27.905 56.9621C27.9663 56.9928 28.0276 57.0388 28.0889 57.0694C28.1655 57.1154 28.2575 57.1614 28.3494 57.2074C28.4107 57.238 28.4567 57.2687 28.518 57.2993C28.61 57.3453 28.7019 57.3913 28.7939 57.4373C28.8398 57.468 28.9011 57.4833 28.9471 57.5139C29.0544 57.5599 29.177 57.6212 29.2843 57.6672C29.3149 57.6826 29.3456 57.6979 29.3762 57.7132C29.5295 57.7745 29.6827 57.8358 29.8207 57.8818C29.836 57.8818 29.8666 57.8972 29.882 57.8972C30.0046 57.9431 30.1425 57.9891 30.2651 58.0198C30.3111 58.0351 30.357 58.0504 30.4183 58.0658C30.5256 58.0964 30.6329 58.1271 30.7248 58.1577C30.7861 58.1731 30.8321 58.1884 30.8934 58.2037C30.9854 58.2191 31.0927 58.2497 31.1846 58.265C31.2459 58.2804 31.3072 58.2804 31.3685 58.2957C31.4605 58.311 31.5524 58.3264 31.6597 58.3417C31.721 58.357 31.7823 58.357 31.8436 58.3723C31.9355 58.3877 32.0275 58.403 32.1195 58.403C32.1808 58.403 32.2421 58.4183 32.3187 58.4183C32.4106 58.4337 32.5026 58.4337 32.5945 58.4337C32.6558 58.4337 32.7171 58.4337 32.7784 58.449C32.8704 58.449 32.9623 58.449 33.0696 58.449C33.1156 58.449 33.1462 58.449 33.1922 58.449C33.2229 58.449 33.2382 58.449 33.2688 58.449C33.3608 58.449 33.4681 58.449 33.56 58.449C33.6213 58.449 33.6826 58.449 33.7439 58.449C33.8512 58.449 33.9432 58.4337 34.0504 58.4337C34.1117 58.4337 34.1577 58.4183 34.219 58.4183C34.3263 58.403 34.4489 58.3877 34.5562 58.3723C34.6021 58.3723 34.6481 58.357 34.6941 58.357C34.8474 58.3417 35.0006 58.311 35.1385 58.2804H35.1539C35.3071 58.2497 35.4757 58.2191 35.6289 58.1731C35.6596 58.1731 35.6902 58.1577 35.7209 58.1424C35.8435 58.1118 35.9661 58.0811 36.0887 58.0504C36.1347 58.0351 36.196 58.0198 36.242 58.0045C36.3492 57.9738 36.4412 57.9431 36.5485 57.9125C36.6098 57.8972 36.6557 57.8665 36.717 57.8512C36.809 57.8205 36.9009 57.7899 36.9929 57.7439C37.0542 57.7132 37.1155 57.6979 37.1768 57.6672C37.2688 57.6366 37.3454 57.5906 37.4373 57.5599C37.4986 57.5293 37.5599 57.4986 37.6212 57.468C37.6979 57.422 37.7898 57.3913 37.8664 57.3453C37.9277 57.3147 37.989 57.284 38.0503 57.2534C38.127 57.2074 38.2189 57.1614 38.2956 57.1154C38.3569 57.0848 38.4182 57.0388 38.4795 57.0081C38.5561 56.9621 38.6327 56.9161 38.7247 56.8548C38.786 56.8242 38.8473 56.7782 38.8932 56.7475C38.9699 56.7015 39.0465 56.6402 39.1231 56.5789C39.1844 56.5329 39.2304 56.5023 39.2917 56.4563C39.3683 56.395 39.4449 56.3337 39.5216 56.2723C39.5676 56.2264 39.6289 56.1957 39.6748 56.1497C39.7668 56.0731 39.8434 56.0118 39.9354 55.9351C39.9813 55.9045 40.0273 55.8585 40.058 55.8278C40.1806 55.7205 40.3032 55.5979 40.4258 55.4753C40.5484 55.3526 40.6556 55.23 40.7782 55.1074C40.8089 55.0614 40.8549 55.0154 40.8855 54.9848C40.9622 54.9081 41.0388 54.8161 41.1001 54.7242C41.1461 54.6782 41.1767 54.6169 41.2227 54.5709C41.284 54.4943 41.3453 54.4176 41.4066 54.341C41.4526 54.2797 41.4832 54.2337 41.5292 54.1724C41.5905 54.0957 41.6365 54.0191 41.6978 53.9424C41.7437 53.8811 41.7744 53.8198 41.8204 53.7585C41.8663 53.6818 41.9123 53.6052 41.9736 53.5286C42.0043 53.4672 42.0503 53.4059 42.0809 53.3446C42.1269 53.268 42.1729 53.1913 42.2188 53.0994C42.2495 53.0381 42.2801 52.9767 42.3108 52.9154C42.3568 52.8388 42.3874 52.7468 42.4334 52.6702C42.464 52.6089 42.4947 52.5475 42.5253 52.4862C42.556 52.4096 42.602 52.3176 42.6326 52.2256C42.6633 52.1643 42.6786 52.103 42.7092 52.0417C42.7399 51.9497 42.7705 51.8578 42.8165 51.7811C42.8318 51.7198 42.8625 51.6585 42.8778 51.5972C42.9085 51.5052 42.9391 51.4132 42.9698 51.3059C42.9851 51.2446 43.0004 51.1986 43.0157 51.1373C43.0464 51.03 43.077 50.9074 43.1077 50.8001C43.123 50.7541 43.123 50.7235 43.1383 50.6775C43.169 50.5242 43.215 50.3709 43.2456 50.2176C43.2456 50.2023 43.2456 50.1716 43.261 50.141C43.2916 50.003 43.3069 49.8804 43.3223 49.7424C43.3376 49.6965 43.3376 49.6351 43.3376 49.5892C43.3529 49.4819 43.3682 49.3746 43.3682 49.2826C43.3682 49.2213 43.3836 49.16 43.3836 49.0987C43.3989 49.0067 43.3989 48.8994 43.3989 48.8074C43.3989 48.7461 43.3989 48.6848 43.3989 48.6081C43.3989 48.5162 43.3989 48.4242 43.3989 48.3322C43.3989 48.2709 43.3989 48.1943 43.3989 48.133C43.3989 48.041 43.3989 47.949 43.3989 47.8571C43.3989 47.7957 43.3989 47.7191 43.3836 47.6578C43.3836 47.5658 43.3682 47.4738 43.3682 47.3819C43.3682 47.3206 43.3529 47.2439 43.3529 47.1826C43.3376 47.0906 43.3376 46.9987 43.3223 46.9067C43.3069 46.8454 43.3069 46.7687 43.2916 46.7074C43.2763 46.6155 43.261 46.5235 43.2456 46.4315C43.2303 46.3702 43.2303 46.3089 43.215 46.2322C43.1996 46.1403 43.169 46.0483 43.1537 45.9563C43.1383 45.895 43.123 45.8337 43.1077 45.7724C43.077 45.6804 43.0617 45.5731 43.0311 45.4812C43.0157 45.4198 43.0004 45.3739 42.9851 45.3125C42.9544 45.1899 42.9085 45.0673 42.8625 44.96C42.8472 44.9293 42.8472 44.8987 42.8318 44.868C42.7859 44.7147 42.7246 44.5614 42.6633 44.4235C42.6479 44.3775 42.6326 44.3468 42.6173 44.3009C42.5713 44.1936 42.5253 44.0863 42.4794 43.979C42.4487 43.9177 42.4181 43.8717 42.4027 43.8104C42.3568 43.7184 42.3108 43.6264 42.2648 43.5498C42.2342 43.4885 42.2035 43.4271 42.1729 43.3658C42.1269 43.2892 42.0809 43.1972 42.0349 43.1206C42.0043 43.0593 41.9583 42.998 41.9276 42.9366C41.8817 42.86 41.8357 42.7834 41.7897 42.7067C41.7437 42.6454 41.7131 42.5841 41.6671 42.5228C41.6211 42.4461 41.5598 42.3695 41.5139 42.3082C41.4679 42.2469 41.4219 42.1855 41.3759 42.1242C41.3453 42.0936 41.33 42.0476 41.2993 42.0169C44.3337 39.7177 48.6708 39.9783 51.414 42.722ZM27.7211 42.722C29.1923 41.2658 31.1386 40.4534 33.2075 40.4534C35.2765 40.4534 37.2381 41.2658 38.694 42.722C41.7284 45.7571 41.7284 50.6775 38.694 53.7125C35.6596 56.7475 30.7402 56.7322 27.7058 53.7125C24.6867 50.6775 24.6867 45.7571 27.7211 42.722Z" fill="white"/>
<path d="M70.7585 55.237L72.4143 53.5808L83.407 64.5757L81.7512 66.2319C79.5128 68.4707 79.5128 72.0897 81.7512 74.3285C82.8704 75.448 84.3269 76 85.7987 76C87.2705 76 88.727 75.448 89.8462 74.3285L96.0095 68.164C99.7197 64.4531 99.9803 58.5799 96.776 54.5776C99.965 50.5753 99.7044 44.7021 96.0095 40.9911C92.2992 37.2802 86.4273 37.0195 82.4258 40.2244C78.4089 37.0348 72.5523 37.2802 68.8421 40.9911L62.6788 47.1556C60.4404 49.3945 60.4404 53.0135 62.6788 55.2523C64.9019 57.4758 68.5354 57.4758 70.7585 55.237ZM94.2617 42.7086C97.2973 45.7449 97.2973 50.6673 94.2617 53.6882C94.1544 53.7955 94.0317 53.9182 93.909 54.0102C92.5905 55.1756 90.9654 55.8197 89.3096 55.927C89.1256 55.9424 88.957 55.9424 88.773 55.9424C86.7799 55.9424 84.8021 55.191 83.2843 53.6728C81.8125 52.2007 81.0153 50.2532 81.0153 48.1831C81.0153 46.1129 81.8278 44.1501 83.2843 42.6933C84.8021 41.2058 86.7799 40.4391 88.773 40.4391C90.7661 40.4391 92.7592 41.2058 94.2617 42.7086ZM64.3959 48.8731L70.5592 42.7086C73.3189 39.9484 77.6423 39.703 80.678 41.9572C80.6473 41.9879 80.632 42.0186 80.6013 42.0492C80.5707 42.0952 80.5247 42.1412 80.494 42.1872C80.4327 42.2639 80.3713 42.3559 80.3253 42.4326C80.2947 42.4786 80.264 42.5246 80.2334 42.5706C80.172 42.6626 80.1107 42.7699 80.0494 42.862C80.0341 42.8926 80.0034 42.9233 79.9881 42.9693C79.9114 43.1073 79.8347 43.23 79.7581 43.368C79.7428 43.3987 79.7274 43.414 79.7121 43.4447C79.6508 43.552 79.6048 43.6594 79.5434 43.782C79.5281 43.828 79.4974 43.874 79.4821 43.92C79.4361 44.012 79.3901 44.1041 79.3595 44.1961C79.3441 44.2421 79.3135 44.3034 79.2981 44.3494C79.2675 44.4414 79.2215 44.5334 79.1908 44.6254C79.1755 44.6714 79.1448 44.7328 79.1295 44.7788C79.0988 44.8861 79.0528 44.9781 79.0222 45.0855C79.0068 45.1315 78.9915 45.1775 78.9762 45.2235C78.9302 45.3768 78.8842 45.5148 78.8535 45.6682C78.8535 45.6835 78.8382 45.6989 78.8382 45.7295C78.8075 45.8675 78.7769 45.9902 78.7462 46.1282C78.7309 46.1742 78.7309 46.2356 78.7155 46.2816C78.7002 46.3889 78.6849 46.4809 78.6695 46.5883C78.6542 46.6496 78.6542 46.7109 78.6389 46.7569C78.6236 46.8489 78.6082 46.9563 78.6082 47.0483C78.6082 47.1096 78.5929 47.171 78.5929 47.217C78.5776 47.3243 78.5776 47.4317 78.5622 47.539C78.5622 47.585 78.5622 47.6463 78.5469 47.6924C78.5469 47.8457 78.5316 48.0144 78.5316 48.1677C78.5316 50.8973 79.5894 53.4735 81.5212 55.3903C83.5143 57.3838 86.136 58.3806 88.7423 58.3806C88.8957 58.3806 89.049 58.3806 89.2023 58.3652C89.2483 58.3652 89.2943 58.3652 89.3403 58.3499C89.4476 58.3499 89.5549 58.3346 89.6469 58.3346C89.7082 58.3346 89.7542 58.3192 89.8155 58.3192C89.9075 58.3039 90.0149 58.3039 90.1068 58.2885C90.1682 58.2885 90.2142 58.2732 90.2755 58.2579C90.3828 58.2425 90.4748 58.2272 90.5821 58.2119C90.6281 58.1965 90.6894 58.1965 90.7354 58.1812C90.8581 58.1505 90.9807 58.1352 91.1034 58.1045C91.1341 58.1045 91.1494 58.0892 91.18 58.0892C91.3334 58.0585 91.4713 58.0125 91.6247 57.9665C91.6553 57.9512 91.7013 57.9512 91.732 57.9359C91.8393 57.9052 91.962 57.8592 92.0693 57.8285C92.1153 57.8132 92.1613 57.7978 92.2226 57.7825C92.3146 57.7518 92.4219 57.7058 92.5139 57.6752C92.5599 57.6598 92.6212 57.6292 92.6672 57.6138C92.7592 57.5678 92.8512 57.5372 92.9585 57.4912C93.0045 57.4758 93.0505 57.4451 93.0965 57.4298C93.2038 57.3838 93.3111 57.3225 93.4184 57.2765C93.4491 57.2611 93.4951 57.2458 93.5258 57.2305C93.6637 57.1538 93.8017 57.0771 93.9397 57.0004C93.955 56.9851 93.9857 56.9698 94.001 56.9698C94.1084 56.9084 94.231 56.8318 94.3383 56.7551C94.3843 56.7244 94.4303 56.6938 94.4763 56.6631C94.5683 56.6017 94.645 56.5404 94.7369 56.4791C94.7829 56.4484 94.8289 56.4024 94.8749 56.3717C94.9209 56.3411 94.9516 56.3104 94.9976 56.2797C97.2513 59.316 97.006 63.6403 94.2463 66.4005L88.0831 72.5651C86.8106 73.8378 84.7255 73.8378 83.453 72.5651C82.8397 71.9517 82.5024 71.1236 82.5024 70.2495C82.5024 69.3755 82.8397 68.5474 83.453 67.934L85.9827 65.4038C86.4579 64.9284 86.4579 64.1464 85.9827 63.671L73.2575 50.9433C73.0122 50.6979 72.7056 50.5906 72.3836 50.5906C72.077 50.5906 71.755 50.7133 71.5097 50.9433L68.98 53.4735C67.7075 54.7463 65.6224 54.7463 64.3499 53.4735C63.1234 52.2314 63.1234 50.1459 64.3959 48.8731Z" fill="white"/>
<path d="M108.758 17.237L110.414 15.5808L121.407 26.5757L119.751 28.2319C117.513 30.4707 117.513 34.0897 119.751 36.3285C120.87 37.448 122.327 38 123.799 38C125.271 38 126.727 37.448 127.846 36.3285L134.009 30.164C137.72 26.4531 137.98 20.5799 134.776 16.5776C137.965 12.5753 137.704 6.70211 134.009 2.99114C130.299 -0.719835 124.427 -0.980523 120.426 2.22441C116.409 -0.965188 110.552 -0.719835 106.842 2.99114L100.679 9.15564C98.4404 11.3945 98.4404 15.0135 100.679 17.2523C102.902 19.4758 106.535 19.4758 108.758 17.237ZM132.262 4.70861C135.297 7.74486 135.297 12.6673 132.262 15.6882C132.154 15.7955 132.032 15.9182 131.909 16.0102C130.591 17.1756 128.965 17.8197 127.31 17.927C127.126 17.9424 126.957 17.9424 126.773 17.9424C124.78 17.9424 122.802 17.191 121.284 15.6728C119.813 14.2007 119.015 12.2532 119.015 10.1831C119.015 8.11289 119.828 6.15006 121.284 4.69327C122.802 3.20582 124.78 2.43909 126.773 2.43909C128.766 2.43909 130.759 3.20582 132.262 4.70861ZM102.396 10.8731L108.559 4.70861C111.319 1.94838 115.642 1.70303 118.678 3.95721C118.647 3.98788 118.632 4.01855 118.601 4.04922C118.571 4.09523 118.525 4.14123 118.494 4.18723C118.433 4.26391 118.371 4.35591 118.325 4.43259C118.295 4.47859 118.264 4.52459 118.233 4.5706C118.172 4.66261 118.111 4.76995 118.049 4.86195C118.034 4.89262 118.003 4.92329 117.988 4.9693C117.911 5.10731 117.835 5.22998 117.758 5.368C117.743 5.39867 117.727 5.414 117.712 5.44467C117.651 5.55201 117.605 5.65935 117.543 5.78203C117.528 5.82803 117.497 5.87404 117.482 5.92004C117.436 6.01205 117.39 6.10406 117.359 6.19606C117.344 6.24207 117.313 6.30341 117.298 6.34941C117.267 6.44142 117.221 6.53342 117.191 6.62543C117.175 6.67144 117.145 6.73277 117.129 6.77878C117.099 6.88612 117.053 6.97813 117.022 7.08547C117.007 7.13147 116.992 7.17748 116.976 7.22348C116.93 7.37683 116.884 7.51484 116.854 7.66818C116.854 7.68352 116.838 7.69885 116.838 7.72952C116.808 7.86753 116.777 7.99021 116.746 8.12822C116.731 8.17423 116.731 8.23556 116.716 8.28157C116.7 8.38891 116.685 8.48092 116.67 8.58826C116.654 8.6496 116.654 8.71094 116.639 8.75694C116.624 8.84895 116.608 8.95629 116.608 9.0483C116.608 9.10964 116.593 9.17097 116.593 9.21698C116.578 9.32432 116.578 9.43166 116.562 9.539C116.562 9.58501 116.562 9.64635 116.547 9.69235C116.547 9.8457 116.532 10.0144 116.532 10.1677C116.532 12.8973 117.589 15.4735 119.521 17.3903C121.514 19.3838 124.136 20.3806 126.742 20.3806C126.896 20.3806 127.049 20.3806 127.202 20.3652C127.248 20.3652 127.294 20.3652 127.34 20.3499C127.448 20.3499 127.555 20.3346 127.647 20.3346C127.708 20.3346 127.754 20.3192 127.816 20.3192C127.908 20.3039 128.015 20.3039 128.107 20.2885C128.168 20.2885 128.214 20.2732 128.275 20.2579C128.383 20.2425 128.475 20.2272 128.582 20.2119C128.628 20.1965 128.689 20.1965 128.735 20.1812C128.858 20.1505 128.981 20.1352 129.103 20.1045C129.134 20.1045 129.149 20.0892 129.18 20.0892C129.333 20.0585 129.471 20.0125 129.625 19.9665C129.655 19.9512 129.701 19.9512 129.732 19.9359C129.839 19.9052 129.962 19.8592 130.069 19.8285C130.115 19.8132 130.161 19.7978 130.223 19.7825C130.315 19.7518 130.422 19.7058 130.514 19.6752C130.56 19.6598 130.621 19.6292 130.667 19.6138C130.759 19.5678 130.851 19.5372 130.958 19.4912C131.004 19.4758 131.05 19.4451 131.096 19.4298C131.204 19.3838 131.311 19.3225 131.418 19.2765C131.449 19.2611 131.495 19.2458 131.526 19.2305C131.664 19.1538 131.802 19.0771 131.94 19.0004C131.955 18.9851 131.986 18.9698 132.001 18.9698C132.108 18.9084 132.231 18.8318 132.338 18.7551C132.384 18.7244 132.43 18.6938 132.476 18.6631C132.568 18.6017 132.645 18.5404 132.737 18.4791C132.783 18.4484 132.829 18.4024 132.875 18.3717C132.921 18.3411 132.952 18.3104 132.998 18.2797C135.251 21.316 135.006 25.6403 132.246 28.4005L126.083 34.5651C124.811 35.8378 122.725 35.8378 121.453 34.5651C120.84 33.9517 120.502 33.1236 120.502 32.2495C120.502 31.3755 120.84 30.5474 121.453 29.934L123.983 27.4038C124.458 26.9284 124.458 26.1464 123.983 25.671L111.258 12.9433C111.012 12.6979 110.706 12.5906 110.384 12.5906C110.077 12.5906 109.755 12.7133 109.51 12.9433L106.98 15.4735C105.708 16.7463 103.622 16.7463 102.35 15.4735C101.123 14.2314 101.123 12.1459 102.396 10.8731Z" fill="white"/>
<path d="M79 76C79 66.075 70.9217 58 60.9927 58C51.0636 58 43 66.075 43 76C43 85.925 51.0783 94 61.0073 94C70.9364 94 79 85.925 79 76ZM61.0073 91.6509C52.3709 91.6509 45.3501 84.633 45.3501 76C45.3501 67.367 52.3709 60.3491 61.0073 60.3491C69.6438 60.3491 76.6646 67.367 76.6646 76C76.6646 84.633 69.6291 91.6509 61.0073 91.6509Z" fill="white"/>
</svg>
