<svg width="73" height="81" viewBox="0 0 73 81" fill="none" xmlns="http://www.w3.org/2000/svg">
<path d="M50 62.3089C46.0281 65.6991 41.018 67.974 35.692 68.7324C33.029 69.0892 30.3659 69.0892 27.7029 68.7324C26.394 68.5539 25.0399 68.2863 23.7761 67.8848C23.4602 67.7956 23.1442 67.7064 22.8283 67.5726C22.5123 67.4834 22.1964 67.3495 21.8804 67.2603L20.9326 66.9035L19.9847 66.502C15.0649 64.3162 10.8222 60.7031 7.79807 56.2423C6.30859 54.012 5.13506 51.5586 4.32262 49.016C3.91639 47.7223 3.60044 46.4287 3.37477 45.0905C3.14909 43.7523 3.01368 42.4141 3.01368 41.0759C2.92341 38.3994 3.28449 35.723 3.96153 33.1358C4.32262 31.8422 4.72884 30.5932 5.27047 29.3442C5.40587 29.0319 5.54128 28.7197 5.67669 28.4074L5.90237 27.9613L6.12805 27.5153C6.26345 27.203 6.444 26.9354 6.5794 26.6231L7.0759 25.7756C9.87431 21.181 13.9817 17.3894 18.7661 15.0252C21.1583 13.8208 23.731 12.9733 26.394 12.4826C29.057 12.0365 31.72 11.8581 34.383 12.1258C37.046 12.3934 39.6639 13.0179 42.1012 13.9993C43.3199 14.4899 44.5386 15.0698 45.667 15.7389C46.7954 16.408 47.9238 17.1218 48.9167 17.9247C47.8335 17.211 46.7051 16.5419 45.5316 15.962C44.358 15.3821 43.1394 14.8914 41.9207 14.4453C39.4382 13.5978 36.8655 13.1071 34.2928 12.9733C31.72 12.8395 29.1021 13.0625 26.5745 13.5978C25.3107 13.91 24.0921 14.2223 22.8734 14.6684C21.6547 15.1144 20.4812 15.6051 19.3528 16.2296L18.9466 16.4527L18.5404 16.6757C18.2696 16.8541 17.9987 16.9879 17.7279 17.1664C17.1863 17.5232 16.6447 17.8355 16.1482 18.2369C15.6066 18.5938 15.1552 18.9953 14.6136 19.3967C14.1171 19.7982 13.6206 20.1997 13.1692 20.6903C12.2214 21.5379 11.4089 22.5192 10.5965 23.5006C9.78404 24.482 9.10701 25.5525 8.42997 26.6231C7.79807 27.6937 7.2113 28.8535 6.71481 30.0133C6.21832 31.173 5.8121 32.3774 5.49615 33.5818C4.86425 36.0352 4.5483 38.5332 4.63857 41.0759C4.63857 42.3249 4.77397 43.5739 4.95452 44.8229C5.13506 46.0719 5.45101 47.2763 5.8121 48.5253C6.21832 49.7297 6.62454 50.8895 7.2113 52.0492C7.75293 53.1644 8.38483 54.2796 9.06187 55.3502C9.73891 56.4208 10.5062 57.4467 11.3638 58.3835C11.5895 58.6065 11.77 58.8742 11.9957 59.0972C12.2214 59.3202 12.4471 59.5433 12.6727 59.7663C13.1241 60.2124 13.5754 60.6584 14.0719 61.0599C14.5233 61.506 15.0649 61.8628 15.5614 62.2643C15.8322 62.4427 16.0579 62.6212 16.3287 62.8442C16.5995 63.0226 16.8704 63.2011 17.1412 63.3795C18.1793 64.0932 19.3077 64.7177 20.4812 65.253L21.3388 65.6545L22.2415 66.0113C22.5575 66.1451 22.8283 66.2343 23.1442 66.3682C23.4602 66.4574 23.731 66.5912 24.0469 66.6804C25.2656 67.0819 26.5294 67.3495 27.7932 67.5726C30.3208 68.0186 32.9387 68.1079 35.5114 67.8402C40.7472 67.4387 45.7572 65.4314 50 62.3089Z" fill="#FFD244"/>
<path d="M3.39678 12.2009C4.7823 10.7363 6.30191 9.40485 7.91091 8.16218C8.71541 7.54085 9.5646 6.96389 10.4138 6.43132L11.0395 6.03189L11.7099 5.63246C12.1569 5.36617 12.6038 5.09988 13.0508 4.87798C16.6263 2.92521 20.5147 1.5494 24.5372 0.750536C32.5822 -0.847184 41.1636 0.1292 48.7169 3.45778C56.2703 6.74199 62.751 12.4671 67.0863 19.4794C68.159 21.2546 69.0976 23.0742 69.9021 24.9826C70.6619 26.891 71.3323 28.8438 71.8239 30.8409C72.3156 32.8381 72.6284 34.8796 72.8519 36.9211C73.0307 38.9627 73.0307 41.0486 72.9413 43.0901C72.8072 45.1316 72.4943 47.1732 72.0921 49.2147C71.8686 50.2355 71.6005 51.2119 71.3323 52.1882L70.8407 53.6528C70.7066 54.141 70.4831 54.6292 70.3043 55.1174C69.5445 57.0258 68.6953 58.8898 67.6227 60.7094C67.3992 61.1532 67.0863 61.597 66.8182 62.0409C66.55 62.4847 66.2818 62.9285 65.969 63.3279L65.0751 64.5706L64.1365 65.7689C62.8404 67.3666 61.4548 68.8755 59.8905 70.2957C58.3709 71.6716 56.7619 73.003 55.0188 74.1125C51.6221 76.4203 47.823 78.1956 43.8452 79.3495C41.8787 79.9264 39.8227 80.3703 37.8115 80.6365C35.7555 80.9028 33.6996 81.036 31.6437 80.9916C27.5318 80.9028 23.4199 80.2371 19.5315 78.9501C11.7546 76.3759 4.827 71.4053 0 64.8812C1.29614 66.4346 2.68166 67.9435 4.15658 69.275C4.87169 69.9851 5.67619 70.6064 6.436 71.2277C6.83824 71.5384 7.2405 71.8491 7.64274 72.1154C7.86622 72.2485 8.045 72.426 8.26847 72.5592L8.89419 72.9586C9.69869 73.5356 10.5926 74.0238 11.4418 74.5563C12.3357 75.0445 13.1849 75.5327 14.1234 75.9321C15.0173 76.376 15.9559 76.731 16.8945 77.1304L18.3247 77.6186C18.8163 77.7961 19.2633 77.9293 19.7549 78.0624C27.4424 80.3702 35.8002 80.3703 43.3983 77.9737C45.3201 77.3967 47.1526 76.6422 48.9404 75.7546C50.7282 74.9114 52.4712 73.8906 54.0802 72.7367C55.7339 71.6272 57.2536 70.3401 58.7285 69.0087C60.2034 67.6773 61.4995 66.1683 62.751 64.615C64.0024 63.0616 65.0751 61.4195 66.0583 59.6887C67.0416 58.0022 67.8908 56.1825 68.6059 54.3185C68.7847 53.8747 68.9635 53.3865 69.0976 52.9427L69.5445 51.5225C69.8127 50.5905 70.0808 49.6141 70.2596 48.6378C70.6619 46.7294 70.9747 44.7322 71.0641 42.7794C71.1982 40.8267 71.1982 38.8295 71.0194 36.8768C70.8407 34.924 70.5278 32.9712 70.0808 31.0185C69.5892 29.1101 69.0082 27.2017 68.2484 25.3821C67.4886 23.5624 66.5947 21.7872 65.5667 20.1007C61.6336 13.5323 55.4211 7.98466 48.1806 4.65607C44.5603 2.96959 40.6719 1.90444 36.6941 1.37187C34.7276 1.10558 32.7163 0.972441 30.7051 1.01682C28.6938 1.0612 26.6826 1.23873 24.716 1.59378C20.7829 2.21511 16.8945 3.45778 13.2742 5.27741C9.69869 7.09703 6.34661 9.40485 3.39678 12.2009Z" fill="#FFD244"/>
</svg>
