<svg width="16" height="53" viewBox="0 0 16 53" fill="none" xmlns="http://www.w3.org/2000/svg">
<path d="M15.5483 5.15316C15.3741 4.48627 14.5468 4.48627 14.2856 5.15316C13.2842 7.55397 12.4569 9.99924 11.7603 12.489C11.4555 13.6005 10.6717 14.4896 9.67032 14.7119H9.62678C9.01722 14.8453 8.49473 14.2229 8.6689 13.5115C9.5397 9.68803 10.8459 5.90897 12.5004 2.2633C12.8923 1.46303 12.6746 0.484919 11.978 0.129244C11.3249 -0.226432 10.4105 0.173703 10.0186 1.06289C8.27703 4.88641 6.88374 8.8433 5.9694 12.8446C5.79524 13.6005 5.09859 13.9561 4.61965 13.556C4.61965 13.556 4.57611 13.5115 4.53257 13.5115C3.74884 12.8446 3.44406 11.5109 3.79238 10.266C4.35841 7.99857 5.70816 4.04168 6.70958 1.77424C7.01436 1.01843 6.49188 0.351541 5.88232 0.751676C4.27133 1.77424 2.74742 3.50816 1.65891 5.68667C1.22351 6.57586 0.831645 7.50951 0.570403 8.53208C-1.12767 14.6675 1.17997 20.1805 4.66319 21.3364C4.66319 21.5587 4.61965 21.8255 4.61965 22.0478C4.31487 26.138 3.7053 30.1394 2.8345 34.1852C2.35556 36.4971 2.3991 39.6092 3.2699 42.8548C5.09859 49.8349 9.80094 54.0586 12.0215 52.7692C14.3291 51.4799 14.8081 46.7227 13.3277 40.9875C12.5875 38.231 10.7153 35.1188 9.71386 33.2515C7.88517 29.9171 6.97083 25.9602 7.27561 21.9144C7.27561 21.781 7.27561 21.6921 7.31915 21.5587C11.0201 20.9363 14.1114 17.2906 15.4176 12.7557C15.6353 11.9999 15.766 11.2441 15.8966 10.4883C16.1143 8.66546 15.9837 6.79816 15.5483 5.15316ZM4.53257 19.2913C4.09717 19.069 3.7053 18.8022 3.35698 18.491C3.00866 18.1798 2.70388 17.7796 2.3991 17.3795C1.87661 16.5792 1.57183 15.6456 1.44121 14.7119C1.31059 13.7783 1.35413 12.8002 1.65891 11.9555C1.78953 12.8891 1.92015 13.7338 2.18139 14.5786C2.44264 15.4233 2.74742 16.1791 3.22636 16.8905C3.66176 17.5574 4.27133 18.1798 4.92443 18.6688C5.62108 19.1579 6.36126 19.558 7.18853 19.9137C6.31772 19.9137 5.40337 19.6914 4.53257 19.2913Z" fill="#FFD244"/>
</svg>
