<svg width="53" height="46" viewBox="0 0 53 46" fill="none" xmlns="http://www.w3.org/2000/svg">
<path fill-rule="evenodd" clip-rule="evenodd" d="M50.9724 25.8197C51.0248 26.4636 51.0304 27.1208 50.9893 27.7874C50.5822 35.0265 44.5665 40.8441 37.1939 41.155C35.9274 41.1994 34.7061 41.1106 33.5301 40.8441C30.9972 40.2669 28.3286 40.9773 26.3384 42.6649C23.8055 44.7968 20.4584 46.0845 16.8399 45.9957C9.42201 45.8625 3.31582 39.9116 3.08966 32.6282C3.04443 31.429 3.18013 30.2745 3.40628 29.1642C3.76813 27.4322 3.40628 25.5669 2.36597 24.1014C0.737651 21.7475 -0.121739 18.9054 0.0139494 15.841C0.330569 8.86835 6.12014 3.27271 13.2214 3.00629C14.6236 2.96188 15.9805 3.0951 17.247 3.45033C18.2243 3.69528 19.2302 3.72432 20.2034 3.55914C20.0693 4.52896 20 5.51975 20 6.5264C20 8.10568 20.1705 9.64493 20.4941 11.1273C20.0232 11.3296 19.573 11.6009 19.1467 11.9327C17.654 13.1319 17.1565 14.7751 17.1565 16.5515C17.1565 17.3066 17.247 18.017 17.4731 18.7278C18.2421 21.259 21.2273 22.7246 23.7602 21.8807C24.4995 21.6245 24.9461 21.1219 25.0598 20.3731C26.9312 22.5897 29.2433 24.4227 31.8611 25.737C31.2934 25.9427 31.0424 26.354 31.0424 27.1213V30.763H31.0877V32.5838C31.1027 32.8651 31.1078 33.1464 31.1128 33.4277C31.1228 33.9903 31.1329 34.5527 31.2233 35.1153C31.359 36.0922 31.9471 36.5362 32.9421 36.3586C33.1683 36.3586 33.3944 36.3142 33.5754 36.2254C33.9372 36.0478 34.3443 36.0478 34.7062 36.181C35.2037 36.3586 35.7012 36.403 36.244 36.403C38.1437 36.403 40.2243 35.2041 40.4505 32.8502C40.6766 30.7185 39.9077 29.1198 37.5557 28.4535C36.6963 28.187 35.8369 28.2314 34.9775 28.4091C34.7062 28.4535 34.6157 28.4091 34.6157 28.1426C34.6157 27.7208 34.6157 27.2989 34.5866 26.8771C36.722 27.6015 39.0082 27.9994 41.3857 28.0119C41.3551 29.6187 41.3551 31.2516 41.3551 32.8502C41.3551 33.0183 41.3522 33.1835 41.3494 33.3472C41.3409 33.8327 41.3327 34.306 41.4003 34.8042C41.5813 36.181 42.3954 36.8029 43.7976 36.5362C44.7474 36.3586 45.1093 35.959 45.1545 34.9821C45.1997 33.6497 45.1997 32.3173 45.1545 31.2958V27.703C47.2079 27.3516 49.1619 26.709 50.9724 25.8197ZM23.8565 18.808C23.6431 18.7722 23.418 18.7722 23.2175 18.7722C21.6796 18.6831 20.5036 17.9726 20.6845 16.063C20.7674 15.3848 21.0528 14.8392 21.52 14.4769C22.1339 16.0162 22.9207 17.4678 23.8565 18.808ZM25.0267 29.2086C25.0267 28.9865 24.9362 28.8977 24.7101 28.8977C23.9411 28.8977 23.4888 29.253 23.3984 30.0078C23.3488 30.3809 23.3234 30.76 23.2979 31.1406C23.2535 31.8021 23.2088 32.4684 23.0365 33.1166C22.998 33.3059 23.091 33.3015 23.2034 33.2962C23.2228 33.2952 23.2428 33.2942 23.2627 33.2942H24.8006C25.0267 33.2942 25.1172 33.2498 25.1172 32.9834C25.0267 32.3617 25.0267 31.7401 25.0267 31.1182V29.2086ZM36.7415 31.3402C36.4787 30.953 36.1204 30.8705 35.7186 30.8715C35.5632 30.8708 35.4043 30.8835 35.2489 30.8962C35.2037 30.8962 35.1698 30.9071 35.1358 30.9184C35.1187 30.924 35.1015 30.9296 35.0829 30.9337C35.0647 30.9379 35.0451 30.9406 35.0228 30.9406C34.7966 30.9406 34.7514 31.0294 34.7514 31.2514C34.7966 31.6066 34.7966 31.9177 34.7966 32.2729H34.8418V33.4277C34.8418 33.5165 34.8418 33.6497 34.9775 33.6941C35.5203 33.9605 36.5154 33.7385 36.7868 33.2054C37.1486 32.5838 37.1034 31.9177 36.7415 31.3402ZM7.83892 22.0585C7.38661 22.0141 6.97953 21.9251 6.57245 21.7919C5.93921 21.5699 5.66783 21.0814 5.53214 20.5042C5.39644 19.9711 5.35121 19.4826 5.30598 18.9498C5.29103 18.4801 5.26621 18.0105 5.24129 17.5391C5.19082 16.5844 5.14 15.6231 5.17029 14.6418L5.44168 9.44585C5.44168 9.16991 5.513 8.92861 5.59233 8.66048L5.6226 8.55752C5.84876 7.75825 6.34629 7.26956 7.20568 7.13635C9.15061 6.82552 11.0956 6.73671 12.9953 7.31397C14.8045 7.84706 15.7091 9.31264 15.4377 11.1778C15.302 12.2438 14.9402 13.1319 14.0356 13.7535C13.968 13.8033 13.8879 13.8345 13.814 13.8633C13.6899 13.9119 13.5833 13.9533 13.5833 14.0646C13.5833 14.2127 13.7441 14.2422 13.9049 14.2717C13.9288 14.2761 13.9527 14.2805 13.9761 14.2854C14.0313 14.2966 14.0837 14.3103 14.126 14.331C14.8045 14.6418 15.302 15.1303 15.5734 15.7966C16.1162 17.1734 16.1162 18.5055 15.3925 19.7934C14.6236 21.259 13.3119 21.9251 11.6836 22.0141C10.4171 22.1029 9.10539 22.1918 7.83892 22.0585ZM12.6334 31.8733C12.7691 32.5394 13.3119 32.9834 14.0808 33.0722C14.2979 33.0988 14.515 33.0776 14.7321 33.0561C14.8769 33.042 15.0216 33.0278 15.1663 33.0278C15.6187 32.9834 16.1162 32.939 16.3876 33.3833C16.659 33.8717 16.6137 34.449 16.3423 34.9374C15.9805 35.5593 15.3473 35.7813 14.6688 35.8701C11.5479 36.3142 9.64816 34.227 9.28631 31.6954C9.10539 30.3189 9.19585 28.9421 9.69339 27.6542C10.9146 24.4566 14.8497 23.8794 16.9304 25.2561C18.3777 26.233 19.011 28.187 18.3777 29.8302C17.9707 30.8962 17.066 31.1626 16.0257 31.2514C15.7359 31.2799 15.4274 31.2719 15.0647 31.2624C14.9731 31.2599 14.878 31.2575 14.779 31.2555C14.6581 31.2531 14.5313 31.2514 14.3974 31.2514C14.126 31.2514 13.6737 31.207 13.2214 31.207C12.7239 31.1626 12.5429 31.3846 12.6334 31.8733ZM30.183 37.7354C30.0926 38.4905 29.776 38.7569 29.007 38.8901L28.9844 38.893C28.3145 38.9809 27.6888 39.0628 27.1073 38.6237C26.7907 38.3573 26.5646 38.0462 26.6098 37.6021V36.4474C26.6098 36.2698 26.5646 36.181 26.3384 36.181H21.8153C21.6344 36.181 21.5891 36.2254 21.5891 36.403V37.691C21.5891 38.5349 21.1368 38.9345 20.3227 39.0233C19.9156 39.0677 19.5085 39.0677 19.1467 39.0233C18.5134 38.9345 18.1064 38.4461 18.0159 37.7798C17.9254 36.6253 17.8802 35.4705 18.0159 34.3158C18.0611 33.7385 18.423 33.4277 19.011 33.3386C19.3728 33.2942 19.5085 33.1166 19.6442 32.8502C19.9397 32.27 19.9637 31.6303 19.9872 31.004C19.9901 30.9291 19.9929 30.8542 19.9961 30.7798C19.999 30.7146 20.0022 30.6497 20.0061 30.5853C20.0135 30.4607 20.0198 30.336 20.026 30.2113C20.0575 29.5821 20.0887 28.958 20.2775 28.3646C20.6845 26.8993 21.9962 25.9222 23.5793 25.8334H24.3935C25.1172 25.8778 25.7956 25.8334 26.5193 25.6114C27.7406 25.2561 28.5547 25.8778 28.6904 27.1213C28.7716 27.7591 28.7556 28.3971 28.7394 29.0446C28.7285 29.4789 28.7175 29.9176 28.7356 30.3633V33.0278C28.7356 33.2498 28.8261 33.2942 29.0523 33.3386C29.7307 33.4277 30.1378 33.7829 30.2283 34.449C30.3187 35.5593 30.2735 36.6253 30.183 37.7354ZM13.1762 28.7645C13.4928 28.8089 13.8094 28.8089 14.0808 28.8089C14.3974 28.8089 14.6688 28.8089 14.9854 28.7645C15.302 28.7201 15.4377 28.5425 15.4377 28.2314C15.4377 27.6986 15.1211 27.3878 14.5331 27.2101C13.6737 27.0325 12.9048 27.4766 12.8143 28.2314C12.7691 28.5425 12.8596 28.6757 13.1762 28.7645ZM10 10.3376C10.0412 10.7143 10.0412 11.1383 10 11.5621C10 11.7051 10.0047 11.8483 10.0093 11.9896C10.0184 12.2667 10.0273 12.5371 10 12.7866C10 12.9279 10 13.0221 10.1647 13.0221C10.6588 12.975 11.1941 12.8808 11.6059 12.457C12.2647 11.7505 12.0588 10.3847 11.2765 10.1021C10.947 10.008 10.5765 10.008 10.2059 10.0551C10.0824 10.1021 10 10.1492 10 10.3376ZM10.1333 19.0181C10.5999 19.0181 11.0332 18.9766 11.4331 18.6865C12.1664 18.189 12.1997 16.9043 11.4665 16.3238C11.0998 16.0337 10.6666 15.9923 10.2333 16.0337C10.0667 16.0337 10.0333 16.1579 10.0333 16.3238V17.5674C10.0333 17.7748 10.025 17.9819 10.0167 18.189C10.0083 18.3964 10 18.6038 10 18.8109C10 18.9351 10 19.0181 10.1333 19.0181Z" fill="#FFD244"/>
</svg>
