<svg width="53" height="46" viewBox="0 0 53 46" fill="none" xmlns="http://www.w3.org/2000/svg">
<path fill-rule="evenodd" clip-rule="evenodd" d="M26.3527 21.7743C24.2499 23.216 22.4164 25.0212 20.9432 27.0996C20.8023 27.2668 20.6774 27.4483 20.5708 27.6425C18.3143 31.0418 17 35.1197 17 39.5045C17 41.7603 17.3479 43.9346 17.9929 45.9774C17.6121 45.9989 17.2276 46.0053 16.8399 45.9957C9.42201 45.8625 3.31583 39.9117 3.08966 32.6282C3.04444 31.429 3.18013 30.2745 3.40628 29.1642C3.76813 27.4322 3.40628 25.567 2.36597 24.1014C0.737657 21.7475 -0.121733 18.9054 0.0139479 15.841C0.330568 8.86835 6.12015 3.27271 13.2214 3.00629C14.6236 2.96188 15.9805 3.0951 17.247 3.45033C18.2243 3.69528 19.2302 3.72432 20.2034 3.55914C20.0693 4.52896 20 5.51975 20 6.52641C20 8.10568 20.1705 9.64494 20.4941 11.1273C20.0232 11.3296 19.573 11.6009 19.1467 11.9327C17.6541 13.1319 17.1565 14.7751 17.1565 16.5515C17.1565 17.3066 17.247 18.017 17.4731 18.7278C18.2421 21.259 21.2273 22.7246 23.7602 21.8807C24.4995 21.6245 24.9461 21.1219 25.0598 20.3731C25.4701 20.8592 25.9015 21.3266 26.3527 21.7743ZM23.6044 18.7805C23.6888 18.7856 23.7736 18.7941 23.8565 18.808C22.9207 17.4679 22.1339 16.0162 21.52 14.4769C21.0528 14.8392 20.7674 15.3848 20.6845 16.063C20.5036 17.9726 21.6796 18.6831 23.2175 18.7722C23.34 18.7722 23.4718 18.7722 23.6044 18.7805ZM6.57245 21.7919C6.97952 21.9251 7.38661 22.0141 7.83891 22.0585C9.10539 22.1918 10.4171 22.103 11.6836 22.0141C13.3119 21.9251 14.6236 21.259 15.3925 19.7935C16.1162 18.5055 16.1162 17.1734 15.5734 15.7966C15.302 15.1303 14.8045 14.6419 14.126 14.331C14.0836 14.3103 14.0313 14.2966 13.9761 14.2854L13.9421 14.2786L13.9049 14.2717C13.7441 14.2422 13.5833 14.2127 13.5833 14.0646C13.5833 13.9533 13.6899 13.9119 13.814 13.8633C13.8879 13.8345 13.968 13.8033 14.0356 13.7535C14.9402 13.1319 15.302 12.2438 15.4377 11.1779C15.7091 9.31264 14.8045 7.84706 12.9953 7.31397C11.0956 6.73672 9.15062 6.82552 7.20569 7.13635C6.3463 7.26956 5.84876 7.75825 5.62261 8.55752L5.59233 8.66048C5.513 8.92862 5.44168 9.16991 5.44168 9.44585L5.17029 14.6419C5.14 15.6231 5.19083 16.5844 5.24129 17.5391C5.26621 18.0105 5.29103 18.4801 5.30599 18.9498C5.35121 19.4826 5.39644 19.9711 5.53214 20.5042C5.66783 21.0814 5.93921 21.5699 6.57245 21.7919ZM14.0808 33.0722C13.3119 32.9834 12.7691 32.5394 12.6334 31.8733C12.5429 31.3846 12.7239 31.1626 13.2214 31.207C13.6737 31.207 14.126 31.2514 14.3974 31.2514C14.5313 31.2514 14.6581 31.2531 14.779 31.2556C14.878 31.2575 14.9731 31.2599 15.0647 31.2624C15.4274 31.2719 15.7359 31.28 16.0257 31.2514C17.066 31.1626 17.9707 30.8962 18.3777 29.8302C19.011 28.187 18.3777 26.233 16.9304 25.2561C14.8497 23.8794 10.9146 24.4566 9.69339 27.6542C9.19585 28.9422 9.10539 30.3189 9.28632 31.6954C9.64816 34.227 11.5479 36.3142 14.6688 35.8702C15.3473 35.7813 15.9805 35.5593 16.3423 34.9374C16.6137 34.449 16.659 33.8717 16.3876 33.3833C16.1162 32.939 15.6187 32.9834 15.1663 33.0278C15.0216 33.0278 14.8769 33.042 14.7321 33.0561C14.515 33.0776 14.2979 33.0988 14.0808 33.0722ZM14.0808 28.8089C13.8094 28.8089 13.4928 28.8089 13.1762 28.7645C12.8596 28.6757 12.7691 28.5425 12.8143 28.2314C12.9048 27.4766 13.6737 27.0325 14.5331 27.2102C15.1211 27.3878 15.4377 27.6986 15.4377 28.2314C15.4377 28.5425 15.302 28.7201 14.9854 28.7645C14.6688 28.8089 14.3974 28.8089 14.0808 28.8089ZM10 11.5621C10.0412 11.1383 10.0412 10.7143 10 10.3376C10 10.1492 10.0824 10.1022 10.2059 10.0551C10.5765 10.008 10.9471 10.008 11.2765 10.1022C12.0588 10.3847 12.2647 11.7505 11.6059 12.457C11.1941 12.8808 10.6588 12.975 10.1647 13.0221C10 13.0221 10 12.9279 10 12.7866C10.0273 12.5371 10.0184 12.2667 10.0093 11.9896C10.0047 11.8483 10 11.7051 10 11.5621ZM11.4331 18.6865C11.0332 18.9766 10.5999 19.0181 10.1333 19.0181C10 19.0181 10 18.9351 10 18.811C10 18.6631 10.0042 18.5153 10.0097 18.3674L10.0167 18.1891C10.025 17.9819 10.0333 17.7748 10.0333 17.5674V16.3238C10.0333 16.1579 10.0667 16.0337 10.2333 16.0337C10.6666 15.9923 11.0999 16.0337 11.4665 16.3238C12.1997 16.9043 12.1664 18.1891 11.4331 18.6865Z" fill="#FFD244"/>
</svg>
