<svg width="73" height="73" viewBox="0 0 73 73" fill="none" xmlns="http://www.w3.org/2000/svg">
<path d="M69.35 65.7C69.1395 65.7 68.9302 65.7182 68.7246 65.7547C67.8851 64.2424 66.2877 63.2666 64.4834 63.2666C62.679 63.2666 61.0816 64.2424 60.2421 65.7547C60.0365 65.7182 59.8272 65.7 59.6167 65.7C57.6044 65.7 55.9667 67.3376 55.9667 69.35C55.9667 69.7783 56.0543 70.1834 56.1919 70.5666H51.1V63.2666H57.1834C57.8549 63.2666 58.4 62.7215 58.4 62.05V13.3834C58.4 12.7118 57.8549 12.1667 57.1834 12.1667H20.6834C20.0118 12.1667 19.4667 12.7118 19.4667 13.3834V71.7834C19.4667 72.4549 20.0118 73 20.6834 73H69.35C71.3623 73 73 71.3623 73 69.35C73 67.3376 71.3623 65.7 69.35 65.7ZM51.1 14.6H55.9666V21.9H51.1V14.6ZM51.1 24.3334H55.9666V31.6334H51.1V24.3334ZM51.1 34.0666H55.9666V41.3666H51.1V34.0666ZM51.1 43.8H55.9666V51.1H51.1V43.8ZM51.1 53.5334H55.9666V60.8334H51.1V53.5334ZM26.7666 70.5666H21.9V63.2666H26.7666V70.5666ZM26.7666 60.8334H21.9V53.5334H26.7666V60.8334ZM26.7666 51.1H21.9V43.8H26.7666V51.1ZM26.7666 41.3666H21.9V34.0666H26.7666V41.3666ZM26.7666 31.6334H21.9V24.3334H26.7666V31.6334ZM26.7666 21.9H21.9V14.6H26.7666V21.9ZM34.0666 70.5666H29.2V63.2666H34.0666V70.5666ZM34.0666 60.8334H29.2V53.5334H34.0666V60.8334ZM34.0666 51.1H29.2V43.8H34.0666V51.1ZM34.0666 41.3666H29.2V34.0666H34.0666V41.3666ZM34.0666 31.6334H29.2V24.3334H34.0666V31.6334ZM34.0666 21.9H29.2V14.6H34.0666V21.9ZM41.3666 70.5666H36.5V63.2666H41.3666V70.5666ZM41.3666 60.8334H36.5V53.5334H41.3666V60.8334ZM41.3666 51.1H36.5V43.8H41.3666V51.1ZM41.3666 41.3666H36.5V34.0666H41.3666V41.3666ZM41.3666 31.6334H36.5V24.3334H41.3666V31.6334ZM41.3666 21.9H36.5V14.6H41.3666V21.9ZM48.6666 70.5666H43.8V63.2666H48.6666V70.5666ZM48.6666 60.8334H43.8V53.5334H48.6666V60.8334ZM48.6666 51.1H43.8V43.8H48.6666V51.1ZM48.6666 41.3666H43.8V34.0666H48.6666V41.3666ZM48.6666 31.6334H43.8V24.3334H48.6666V31.6334ZM48.6666 21.9H43.8V14.6H48.6666V21.9ZM69.35 70.5666H59.6166C58.9462 70.5666 58.4 70.0204 58.4 69.35C58.4 68.6796 58.9462 68.1334 59.6166 68.1334C59.8501 68.1334 60.0716 68.2002 60.276 68.3317C60.6094 68.5458 61.0256 68.5848 61.393 68.4363C61.7604 68.2879 62.0317 67.9691 62.1206 67.5834C62.3773 66.475 63.3494 65.7 64.4834 65.7C65.6173 65.7 66.5894 66.475 66.8462 67.5834C66.935 67.9691 67.2063 68.2879 67.5737 68.4363C67.9412 68.5848 68.3572 68.5458 68.6907 68.3317C69.4816 67.8207 70.568 68.446 70.5667 69.35C70.5666 70.0204 70.0204 70.5666 69.35 70.5666Z" fill="white"/>
<path d="M26.7666 8.51662V4.86662H35.2832C35.9548 4.86662 36.4999 4.32154 36.4999 3.65V2.43338H41.3665V3.65C41.3665 4.32154 41.9116 4.86662 42.5831 4.86662H51.1V7.3H30.4166C29.7451 7.3 29.2 7.84508 29.2 8.51662C29.2 9.18816 29.7451 9.73324 30.4166 9.73324H60.8332V60.1993C60.8332 60.8709 61.3783 61.416 62.0499 61.416C62.7214 61.416 63.2665 60.8709 63.2665 60.1993V8.51662C63.2665 7.84508 62.7214 7.3 62.0499 7.3H53.5332V3.65C53.5332 2.97846 52.9882 2.43338 52.3166 2.43338H43.8V1.21662C43.8 0.545076 43.2549 0 42.5834 0H35.2834C34.6118 0 34.0668 0.545076 34.0668 1.21662V2.43324H25.55C24.8785 2.43324 24.3334 2.97831 24.3334 3.64986V7.29986H15.8168C15.1452 7.29986 14.6001 7.84493 14.6001 8.51648V70.5665H7.3V65.577C10.0727 65.0112 12.1666 62.5547 12.1666 59.6165C12.1666 59.4584 12.0973 43.7999 6.08324 43.7999C0.069293 43.8 0 59.4585 0 59.6166C0 62.5549 2.0939 65.0113 4.86662 65.5771V70.5666H1.21662C0.545076 70.5666 0 71.1117 0 71.7832C0 72.4548 0.545076 73 1.21662 73H15.8166C16.4882 73 17.0332 72.4549 17.0332 71.7834V9.73338H25.55C26.2215 9.73338 26.7666 9.1883 26.7666 8.51662ZM2.43338 59.6166C2.43338 53.5552 4.06134 46.2332 6.08338 46.2332C8.10542 46.2332 9.73338 53.5552 9.73338 59.6166C9.73338 61.629 8.09573 63.2666 6.08338 63.2666C4.07103 63.2666 2.43338 61.629 2.43338 59.6166Z" fill="white"/>
</svg>
