<svg width="79" height="72" viewBox="0 0 79 72" fill="none" xmlns="http://www.w3.org/2000/svg">
<path d="M71.8594 20.9355H68.5503V18.8076L70.615 16.5337C71.6868 15.3533 72.277 13.8253 72.277 12.2308V6.83827C72.277 3.06763 69.2093 0 65.4386 0H62.2932C58.5225 0 55.4549 3.06778 55.4549 6.83827V12.2308C55.4549 13.8253 56.0452 15.3535 57.1168 16.5337L59.1818 18.8079V20.9355H55.8727C52.6579 20.9355 49.9636 23.2018 49.2998 26.2204C48.962 26.1731 48.6176 26.1471 48.267 26.1471H44.3909V23.5441L46.7553 20.9403C47.9374 19.6383 48.5885 17.9528 48.5885 16.1942V10.1205C48.5885 5.95582 45.2004 2.568 41.0359 2.568C40.3832 2.568 39.8544 3.09679 39.8544 3.74946C39.8544 4.40213 40.3832 4.93092 41.0359 4.93092C43.8975 4.93092 46.2256 7.25885 46.2256 10.1205V16.194C46.2256 17.3641 45.7924 18.4854 45.0061 19.3516L42.5713 22.033C42.2447 22.2432 42.0283 22.6099 42.0283 23.0274V27.3287C42.0283 27.9813 42.557 28.5101 43.2097 28.5101H48.2673C51.062 28.5101 53.3359 30.7839 53.3359 33.5787V40.9923H25.1934V33.5787C25.1934 31.3997 26.5758 29.5378 28.5092 28.8228C28.6001 28.8038 28.6866 28.7735 28.7685 28.7349C29.2408 28.589 29.7424 28.51 30.2618 28.51H35.3194C35.9719 28.51 36.5008 27.9812 36.5008 27.3285V23.0272C36.5008 22.6099 36.2844 22.243 35.9578 22.0329L33.523 19.3515C32.7365 18.4853 32.3032 17.3638 32.3032 16.1939V10.1205C32.3032 7.259 34.6311 4.93092 37.4929 4.93092C38.1454 4.93092 38.6744 4.40213 38.6744 3.74946C38.6744 3.09679 38.1454 2.568 37.4929 2.568C33.3282 2.568 29.9403 5.95597 29.9403 10.1205V16.194C29.9403 17.9525 30.5914 19.638 31.7735 20.9401L34.1376 23.5438V26.1469H30.2615C29.9314 26.1469 29.6069 26.1707 29.288 26.2128C28.6216 23.1979 25.9294 20.9355 22.7172 20.9355H19.4081V18.8076L21.4728 16.5337C22.5446 15.3533 23.1348 13.8253 23.1348 12.2308V6.83827C23.1348 3.06763 20.0671 0 16.2964 0H13.1513C9.38063 0 6.313 3.06778 6.313 6.83827V12.2308C6.313 13.8253 6.9032 15.3535 7.97506 16.5337L10.0399 18.8078V20.9355H6.73082C3.01943 20.9355 0 23.955 0 27.6664V35.2976C0 35.9503 0.528949 36.4791 1.18146 36.4791H19.5639C20.2164 36.4791 20.7454 35.9503 20.7454 35.2976C20.7454 34.6449 20.2164 34.1161 19.5639 34.1161H2.36292V27.6664C2.36292 25.258 4.32231 23.2985 6.73082 23.2985H11.2214C11.8739 23.2985 12.4028 22.7697 12.4028 22.117V18.298C12.4028 17.8871 12.193 17.5252 11.8746 17.3135L9.72431 14.9453C9.04816 14.2007 8.67577 13.2368 8.67577 12.2309V6.83827C8.67577 4.37051 10.6834 2.36293 13.1511 2.36293H16.2966C18.7643 2.36293 20.7721 4.37051 20.7721 6.83827V12.2308C20.7721 13.2366 20.3997 14.2007 19.7235 14.9452L17.573 17.3135C17.2548 17.5252 17.0452 17.8871 17.0452 18.2979V22.1168C17.0452 22.7695 17.5741 23.2983 18.2266 23.2983H22.7172C24.8623 23.2983 26.6499 24.8531 27.0154 26.8947C24.5399 28.1018 22.8303 30.6437 22.8303 33.5783V42.1733C22.8303 42.826 23.3592 43.3548 24.0118 43.3548H54.517C55.1697 43.3548 55.6985 42.826 55.6985 42.1733V33.5783C55.6985 30.6663 54.0142 28.1416 51.5693 26.9234C51.9231 24.8678 53.7175 23.2983 55.8727 23.2983H60.3633C61.0159 23.2983 61.5447 22.7695 61.5447 22.1168V18.2979C61.5447 17.8868 61.3349 17.5248 61.0164 17.3132L58.8662 14.9452C58.1901 14.2007 57.8178 13.2366 57.8178 12.2308V6.83827C57.8178 4.37051 59.8254 2.36293 62.2932 2.36293H65.4386C67.9064 2.36293 69.9141 4.37051 69.9141 6.83827V12.2308C69.9141 13.2366 69.5417 14.2007 68.8656 14.9452L66.7152 17.3135C66.3969 17.5252 66.1872 17.8871 66.1872 18.2979V22.1168C66.1872 22.7695 66.716 23.2983 67.3687 23.2983H71.8592C74.2676 23.2983 76.2271 25.2577 76.2271 27.6662V34.116H59.2294C58.5767 34.116 58.0479 34.6448 58.0479 35.2974C58.0479 35.9501 58.5767 36.4789 59.2294 36.4789H77.4086C78.0612 36.4789 78.59 35.9501 78.59 35.2974V27.6662C78.5902 23.955 75.5708 20.9355 71.8594 20.9355Z" fill="white"/>
<path d="M51.1767 58.3285C51.0404 57.9082 50.6807 57.5993 50.2445 57.5276L43.7906 56.4681L40.7886 50.6574C40.5859 50.2649 40.1809 50.0181 39.739 50.0181C39.2971 50.0181 38.8922 50.2646 38.6894 50.6574L35.6875 56.4681L29.2336 57.5276C28.7975 57.5993 28.4378 57.9081 28.3012 58.3285C28.1646 58.7488 28.2741 59.21 28.5847 59.5244L33.1832 64.1749L32.1964 70.6402C32.1297 71.077 32.3122 71.5146 32.6699 71.7742C32.8756 71.9237 33.1193 72 33.3645 72C33.5453 72 33.727 71.9584 33.8946 71.8741L39.7387 68.9377L45.5828 71.8741C45.9777 72.0726 46.4503 72.0342 46.8075 71.7742C47.1652 71.5146 47.3477 71.077 47.2811 70.6402L46.2941 64.1749L50.8925 59.5244C51.204 59.21 51.3133 58.7488 51.1767 58.3285ZM44.1972 62.9354C43.9345 63.2011 43.8131 63.5753 43.8693 63.9443L44.6007 68.7356L40.2697 66.5596C39.9358 66.392 39.5425 66.392 39.2088 66.5596L34.8778 68.7356L35.609 63.9443C35.6654 63.575 35.5438 63.2008 35.2812 62.9354L31.8729 59.4888L36.6559 58.7038C37.0244 58.6432 37.3428 58.4119 37.5141 58.0802L39.7389 53.7738L41.9635 58.0802C42.1349 58.4119 42.4531 58.6432 42.8217 58.7038L47.6046 59.4888L44.1972 62.9354Z" fill="white"/>
<path d="M77.039 49.641C76.9024 49.2207 76.543 48.9118 76.1071 48.8401L69.6532 47.7806L66.6511 41.9699C66.4483 41.5774 66.0434 41.3306 65.6015 41.3306C65.1594 41.3306 64.7546 41.5771 64.5519 41.9699L61.5499 47.7806L55.0959 48.8401C54.6598 48.9118 54.3001 49.2206 54.1635 49.641C54.0269 50.0613 54.1362 50.5227 54.447 50.8369L59.0456 55.4874L58.0587 61.9528C57.992 62.3897 58.1745 62.8273 58.5322 63.0869C58.8898 63.3466 59.3623 63.3854 59.7569 63.1868L65.601 60.2504L71.4451 63.1868C71.6127 63.2711 71.7944 63.3126 71.9753 63.3126C72.2206 63.3126 72.4643 63.2365 72.6698 63.0869C73.0275 62.8273 73.21 62.3897 73.1434 61.9528L72.1564 55.4874L76.755 50.8369C77.0663 50.5227 77.1756 50.0613 77.039 49.641ZM70.0595 54.2481C69.7968 54.5136 69.6754 54.888 69.7316 55.257L70.463 60.0484L66.132 57.8724C65.965 57.7886 65.7834 57.7466 65.6015 57.7466C65.4196 57.7466 65.2378 57.7886 65.071 57.8724L60.7399 60.0484L61.4713 55.257C61.5275 54.8877 61.4061 54.5135 61.1435 54.2481L57.7354 50.8016L62.5183 50.0166C62.887 49.956 63.2052 49.7247 63.3765 49.393L65.6012 45.0866L67.8259 49.393C67.9974 49.7247 68.3156 49.956 68.6841 50.0166L73.4669 50.8016L70.0595 54.2481Z" fill="white"/>
<path d="M25.3145 49.6412C25.178 49.2207 24.8182 48.9118 24.3822 48.8401L17.9282 47.7806L14.9263 41.9699C14.7234 41.5774 14.3186 41.3306 13.8765 41.3306C13.4345 41.3306 13.0297 41.5771 12.8268 41.9699L9.82516 47.7808L3.37125 48.8402C2.93516 48.9119 2.57552 49.2207 2.43891 49.6412C2.3023 50.0614 2.41174 50.5229 2.72242 50.8371L7.32102 55.4875L6.33419 61.953C6.26757 62.3898 6.45008 62.8274 6.80773 63.087C7.16522 63.3467 7.63768 63.3856 8.03248 63.1869L13.8765 60.2505L19.7205 63.1869C19.8881 63.2712 20.0698 63.3128 20.2506 63.3128C20.4958 63.3128 20.7397 63.2367 20.9452 63.087C21.3029 62.8274 21.4854 62.3898 21.4188 61.953L20.4319 55.4875L25.0304 50.8371C25.3415 50.5227 25.4511 50.0614 25.3145 49.6412ZM18.3347 54.2481C18.0721 54.5136 17.9505 54.888 18.0068 55.257L18.7381 60.0484L14.4072 57.8724C14.2403 57.7885 14.0586 57.7466 13.8767 57.7466C13.6948 57.7466 13.5131 57.7886 13.3462 57.8724L9.01516 60.0484L9.74657 55.257C9.8029 54.8877 9.68134 54.5135 9.4187 54.2481L6.01108 50.8016L10.794 50.0166C11.1626 49.956 11.4809 49.7247 11.6524 49.393L13.877 45.0866L16.1016 49.393C16.2731 49.7247 16.5914 49.956 16.96 50.0166L21.7429 50.8016L18.3347 54.2481Z" fill="white"/>
</svg>
