<svg width="85" height="72" viewBox="0 0 85 72" fill="none" xmlns="http://www.w3.org/2000/svg">
<path d="M17.925 41.8761C17.6161 41.5659 17.1892 41.3875 16.7508 41.3875C16.314 41.3875 15.8853 41.5659 15.5766 41.8761C15.2676 42.1861 15.09 42.6163 15.09 43.0547C15.09 43.4951 15.2678 43.9236 15.5766 44.2352C15.8855 44.5454 16.314 44.722 16.7508 44.722C17.1876 44.722 17.6162 44.5454 17.925 44.2352C18.234 43.9234 18.4116 43.4951 18.4116 43.0547C18.4116 42.6163 18.234 42.1861 17.925 41.8761Z" fill="white"/>
<path d="M33.5878 41.8761C33.279 41.5659 32.8505 41.3875 32.4135 41.3875C31.9767 41.3875 31.5481 41.5659 31.2393 41.8761C30.9304 42.1861 30.7527 42.6163 30.7527 43.0547C30.7527 43.4951 30.9304 43.9236 31.2393 44.2352C31.5483 44.5454 31.9767 44.722 32.4135 44.722C32.8503 44.722 33.279 44.5454 33.5878 44.2352C33.8967 43.9234 34.0744 43.4932 34.0744 43.0547C34.0744 42.6163 33.8967 42.1861 33.5878 41.8761Z" fill="white"/>
<path d="M30.5412 51.0321C29.6551 50.7938 28.7448 51.3231 28.5079 52.2126C28.0332 53.9962 26.4191 55.2422 24.5823 55.2422C22.7457 55.2422 21.1315 53.9962 20.6567 52.2126C20.4199 51.3228 19.5097 50.7934 18.6233 51.0321C17.7371 51.2699 17.2107 52.1836 17.4474 53.0734C18.3097 56.3138 21.2437 58.5771 24.5824 58.5771C27.921 58.5771 30.855 56.3138 31.7173 53.0734C31.9539 52.1837 31.4273 51.2698 30.5412 51.0321Z" fill="white"/>
<path d="M42.5201 0C41.6027 0 40.8591 0.746483 40.8591 1.66746V12.2529C40.8591 13.1739 41.6027 13.9203 42.5201 13.9203C43.4375 13.9203 44.1811 13.1739 44.1811 12.2529V1.66746C44.1811 0.746483 43.4375 0 42.5201 0Z" fill="white"/>
<path d="M43.695 16.9663C43.3859 16.6544 42.9574 16.4778 42.5207 16.4778C42.0823 16.4778 41.6553 16.6546 41.3449 16.9663C41.0359 17.2764 40.8599 17.7066 40.8599 18.1451C40.8599 18.5836 41.0361 19.0139 41.3449 19.3239C41.6555 19.634 42.0823 19.8124 42.5207 19.8124C42.9575 19.8124 43.3862 19.634 43.695 19.3239C44.0038 19.0137 44.1816 18.5836 44.1816 18.1451C44.1816 17.7066 44.0038 17.2764 43.695 16.9663Z" fill="white"/>
<path d="M32.3983 15.1588L28.1579 10.9056C27.5091 10.2548 26.4573 10.2551 25.809 10.9066C25.1607 11.5581 25.161 12.6137 25.81 13.2647L30.0503 17.5181C30.3746 17.8434 30.7994 18.0059 31.2242 18.0059C31.6496 18.0059 32.0751 17.8428 32.3993 17.5171C33.0476 16.8655 33.0472 15.8098 32.3983 15.1588Z" fill="white"/>
<path d="M59.2345 10.9098C58.5856 10.2588 57.5339 10.2593 56.8856 10.9107L52.3774 15.4401C51.729 16.0915 51.7295 17.1473 52.3782 17.7982C52.7025 18.1237 53.1273 18.2862 53.5521 18.2862C53.9775 18.2862 54.4028 18.1232 54.727 17.7973L59.2352 13.2679C59.8838 12.6164 59.8833 11.5606 59.2345 10.9098Z" fill="white"/>
<path d="M84.1596 40.9232C80.6514 27.779 67.1453 19.951 54.0525 23.4732C49.5588 24.682 45.5889 27.0855 42.488 30.4136C37.8486 25.453 31.4277 22.6436 24.5823 22.6436C11.0276 22.6436 0 33.7143 0 47.3219C0 60.9294 11.0276 72 24.5823 72C31.4342 72 37.8653 69.1819 42.5065 64.2093C47.1021 69.101 53.5832 71.9915 60.4205 71.9915C62.5205 71.9915 64.6548 71.7186 66.7773 71.1478C79.8701 67.6257 87.6678 54.0669 84.1596 40.9232ZM24.5823 68.665C12.8591 68.665 3.32181 59.0904 3.32181 47.3217C3.32181 35.553 12.8591 25.9783 24.5823 25.9783C30.651 25.9783 36.3347 28.5315 40.3683 33.0252C39.9277 33.6508 39.5124 34.2993 39.1259 34.9711C35.8428 40.6798 34.9707 47.3304 36.6702 53.6974C37.45 56.6195 38.724 59.2784 40.3776 61.6087C36.3431 66.1083 30.6531 68.665 24.5823 68.665ZM65.9175 67.9265C54.594 70.9716 42.913 64.2021 39.8789 52.8346C38.4092 47.3279 39.1634 41.576 42.0028 36.6389C42.5267 35.728 43.1103 34.8653 43.7476 34.0542C43.7752 34.0223 43.8007 33.9893 43.8256 33.9558C46.6363 30.4221 50.4799 27.8868 54.9121 26.6945C56.7484 26.2007 58.5932 25.9648 60.4099 25.9648C69.7958 25.9648 78.4085 32.2622 80.9505 41.7863C83.9849 53.1541 77.2409 64.8804 65.9175 67.9265Z" fill="white"/>
<path d="M55.5497 44.0413C55.0357 42.115 53.0571 40.9674 51.1375 41.4839C49.2187 42.0002 48.076 43.987 48.5901 45.9133C48.789 46.6582 49.46 47.1497 50.1935 47.1497C50.3356 47.1497 50.4805 47.1312 50.6243 47.0924C51.5105 46.8539 52.0363 45.9399 51.7987 45.0503C51.7587 44.9003 51.8477 44.7453 51.9971 44.7051C52.0897 44.6805 52.1641 44.7068 52.2101 44.7333C52.2559 44.76 52.316 44.8113 52.3409 44.9043C52.5783 45.7938 53.4887 46.3219 54.3751 46.0833C55.2615 45.8451 55.7871 44.931 55.5497 44.0413Z" fill="white"/>
<path d="M70.5847 39.9968C70.3355 39.0637 69.7395 38.2839 68.9061 37.8007C68.0727 37.3179 67.1018 37.1894 66.1725 37.4395C65.2429 37.6895 64.466 38.2879 63.985 39.1245C63.5039 39.9611 63.3759 40.9356 63.6251 41.8689C63.824 42.6139 64.495 43.1052 65.2285 43.1052C65.3706 43.1051 65.5155 43.0867 65.6595 43.0479C66.5455 42.8094 67.0713 41.8953 66.8339 41.0056C66.8091 40.9126 66.8354 40.8381 66.8619 40.792C66.8885 40.7458 66.9395 40.6856 67.0323 40.6608C67.1249 40.636 67.1994 40.6625 67.2452 40.689C67.2911 40.7155 67.351 40.7668 67.3759 40.86C67.6133 41.7494 68.5237 42.2774 69.4101 42.0389C70.2963 41.8006 70.8221 40.8865 70.5847 39.9968Z" fill="white"/>
<path d="M69.1295 50.4596C68.892 49.5701 67.9812 49.0419 67.0952 49.2804C66.209 49.5189 65.6834 50.4329 65.9208 51.3225C66.4859 53.44 65.2297 55.6244 63.1204 56.1918C62.0985 56.4667 61.0313 56.3254 60.1154 55.7946C59.1992 55.2634 58.5439 54.4063 58.2703 53.3805C58.0327 52.491 57.1221 51.9625 56.2359 52.2015C55.3499 52.44 54.8241 53.3542 55.0616 54.2436C55.5651 56.1299 56.77 57.7064 58.4546 58.6827C59.5765 59.333 60.822 59.6653 62.0838 59.6653C62.7165 59.6653 63.3532 59.582 63.9806 59.413C67.8589 58.3697 70.1686 54.353 69.1295 50.4596Z" fill="white"/>
</svg>
