<svg width="53" height="46" viewBox="0 0 53 46" fill="none" xmlns="http://www.w3.org/2000/svg">
<path fill-rule="evenodd" clip-rule="evenodd" d="M30.3866 12.2991C30.7107 12.2952 31.037 12.373 31.2686 12.5322C31.5852 12.7544 31.7209 13.0654 31.7209 13.4209C31.6757 13.6875 31.5852 13.821 31.3138 13.8655C30.9972 13.9099 30.6806 13.9099 30.3187 13.9099C30.0021 13.9543 29.6855 13.9543 29.3689 13.8655C29.1892 13.8359 29.0888 13.7676 29.0546 13.6472C29.0219 13.5864 29.007 13.511 29.007 13.4209C29.007 13.0654 29.188 12.7544 29.5046 12.5322C29.7361 12.373 30.0625 12.2952 30.3866 12.2991ZM24.7101 28.8862C24.9362 28.8862 25.0267 28.9751 25.0267 29.1973V31.1082C25.0267 31.7305 25.0267 32.3525 25.1172 32.9746C25.1172 33.2412 25.0267 33.2856 24.8005 33.2856H23.2627C23.2427 33.2856 23.2228 33.2866 23.2034 33.2876C23.091 33.293 22.998 33.2974 23.0365 33.1079C23.2088 32.4592 23.2535 31.7925 23.2979 31.1306C23.3234 30.7498 23.3488 30.3704 23.3984 29.9971C23.4888 29.2417 23.9412 28.8862 24.7101 28.8862ZM35.7186 30.8613C36.1204 30.8604 36.4787 30.9429 36.7415 31.3303C37.1034 31.9082 37.1486 32.5747 36.7868 33.1968C36.5154 33.7302 35.5203 33.9524 34.9775 33.6858C34.8418 33.6414 34.8418 33.5081 34.8418 33.4192V32.2637H34.7966C34.7966 31.9082 34.7966 31.5969 34.7514 31.2415C34.7514 31.0193 34.7966 30.9304 35.0228 30.9304C35.068 30.9304 35.1019 30.9194 35.1358 30.9082C35.1698 30.897 35.2037 30.886 35.2489 30.886C35.4043 30.8733 35.5632 30.8606 35.7186 30.8613ZM44.7474 4.35522C49.1348 4.66626 52.7081 8.177 52.9795 12.4878C53.1152 14.4875 52.5724 16.3096 51.5321 17.865C50.4013 19.5537 50.0847 21.5979 50.5822 23.5532C50.9441 24.8865 51.0798 26.3086 50.9893 27.7751C50.5822 35.019 44.5665 40.8406 37.1938 41.1516C35.9274 41.196 34.7061 41.1072 33.5301 40.8406C30.9972 40.2629 28.3286 40.9739 26.3384 42.6626C23.8055 44.7959 20.4584 46.0845 16.8399 45.9956C9.422 45.8623 3.31581 39.9075 3.08966 32.6191C3.04443 31.4192 3.18012 30.2639 3.40628 29.1528C3.76812 27.4197 3.40628 25.5532 2.36596 24.0867C0.737646 21.7312 -0.121742 18.8872 0.0139502 15.8208C0.330566 8.84351 6.12014 3.24414 13.2214 2.97754C14.6236 2.93311 15.9805 3.06641 17.247 3.42188C19.3728 3.95508 21.6344 3.46631 23.3984 2.17749C25.2076 0.799805 27.4692 0 29.9569 0C32.6255 0 35.068 0.93335 36.9677 2.48877C38.6865 3.95508 40.9028 4.66626 43.1643 4.39966C43.6619 4.31079 44.2047 4.31079 44.7474 4.35522ZM23.6698 10.7991C21.9962 10.4434 20.4584 10.8879 19.1467 11.9099C17.654 13.1099 17.1565 14.7542 17.1565 16.5317C17.1565 17.2874 17.247 17.9983 17.4731 18.7095C18.242 21.2424 21.2273 22.709 23.7602 21.8645C24.5292 21.5979 24.9815 21.0647 25.0719 20.2646C25.1624 19.5093 24.8005 19.0205 24.0769 18.8428C23.8055 18.7539 23.4888 18.7539 23.2175 18.7539C21.6796 18.6648 20.5036 17.9539 20.6845 16.043C20.8202 14.9319 21.4987 14.1765 22.6295 13.9988C22.7256 13.98 22.8237 13.9631 22.9226 13.946C23.2891 13.8828 23.6658 13.8181 23.9864 13.6431C24.6649 13.2876 24.9362 12.7544 24.8458 11.9988C24.7553 11.3767 24.3935 10.9324 23.6698 10.7991ZM6.57245 21.7756C6.97953 21.9089 7.38661 21.998 7.83892 22.0425C9.10538 22.1758 10.4171 22.0869 11.6836 21.998C13.3119 21.9089 14.6236 21.2424 15.3925 19.7759C16.1162 18.4871 16.1162 17.1541 15.5734 15.7764C15.302 15.1096 14.8045 14.6208 14.126 14.3098C14.0657 14.2803 13.9853 14.2654 13.9049 14.2505C13.7441 14.2209 13.5833 14.1914 13.5833 14.0432C13.5833 13.9319 13.6899 13.8904 13.814 13.8418C13.8879 13.813 13.968 13.7817 14.0356 13.7319C14.9402 13.1099 15.302 12.2212 15.4377 11.1545C15.7091 9.28809 14.8045 7.82153 12.9953 7.28809C11.0956 6.71045 9.15062 6.79932 7.20568 7.11035C6.34629 7.24365 5.84875 7.73267 5.6226 8.53247L5.59232 8.6355C5.513 8.90381 5.44167 9.14526 5.44167 9.42139L5.17029 14.6208C5.14 15.6028 5.19082 16.5647 5.24129 17.52C5.2662 17.9917 5.29103 18.4617 5.30598 18.9316C5.35121 19.4648 5.39644 19.9536 5.53214 20.4871C5.66783 21.0647 5.93921 21.5535 6.57245 21.7756ZM14.0808 33.0635C13.3119 32.9746 12.7691 32.5303 12.6334 31.8638C12.5429 31.3748 12.7239 31.1526 13.2214 31.197C13.4763 31.197 13.7312 31.2112 13.9537 31.2236C14.126 31.2332 14.279 31.2415 14.3974 31.2415C14.6411 31.2415 14.8614 31.2471 15.0647 31.2524C15.4274 31.262 15.7359 31.27 16.0257 31.2415C17.066 31.1526 17.9707 30.886 18.3777 29.8193C19.011 28.175 18.3777 26.2197 16.9303 25.2422C14.8497 23.8645 10.9146 24.4421 9.69339 27.6418C9.19585 28.9307 9.10538 30.3083 9.28631 31.6858C9.64816 34.219 11.5479 36.3076 14.6688 35.8633C15.3473 35.7744 15.9805 35.5522 16.3423 34.9299C16.6137 34.4412 16.659 33.8635 16.3876 33.3748C16.1162 32.9302 15.6186 32.9746 15.1663 33.019C15.0216 33.019 14.8769 33.0332 14.7321 33.0474C14.515 33.0688 14.2979 33.0901 14.0808 33.0635ZM29.007 38.8853C29.776 38.752 30.0926 38.4854 30.183 37.7297C30.2735 36.6189 30.3187 35.5522 30.2283 34.4412C30.1378 33.7747 29.7307 33.4192 29.0523 33.3301C28.8261 33.2856 28.7356 33.2412 28.7356 33.019V30.3528C28.7175 29.9067 28.7285 29.4678 28.7394 29.0332C28.7556 28.3853 28.7716 27.7468 28.6904 27.1086C28.5547 25.8643 27.7406 25.2422 26.5193 25.5977C25.7956 25.8198 25.1172 25.8643 24.3935 25.8198H23.5793C21.9962 25.9087 20.6845 26.8865 20.2774 28.3528C20.0887 28.9465 20.0575 29.571 20.026 30.2004C20.0198 30.3252 20.0135 30.45 20.0061 30.575C19.9978 30.7134 19.9925 30.8533 19.9872 30.9939C19.9637 31.6208 19.9397 32.2607 19.6442 32.8413C19.5085 33.1079 19.3728 33.2856 19.011 33.3301C18.423 33.4192 18.0611 33.7302 18.0159 34.3079C17.8802 35.4634 17.9254 36.6189 18.0159 37.7742C18.1064 38.4409 18.5134 38.9297 19.1467 39.0186C19.5085 39.063 19.9156 39.063 20.3227 39.0186C21.1368 38.9297 21.5891 38.5298 21.5891 37.6853V36.3965C21.5891 36.2188 21.6344 36.1743 21.8153 36.1743H26.3384C26.5646 36.1743 26.6098 36.2632 26.6098 36.4409V37.5964C26.5646 38.0408 26.7907 38.3521 27.1073 38.6187C27.6888 39.0581 28.3145 38.9761 28.9844 38.8882L29.007 38.8853ZM25.4338 15.7319C25.4338 16.7539 25.6147 17.7761 26.1122 18.7095C27.1073 20.4871 29.007 21.3757 31.0424 20.9758C31.6304 20.887 32.128 20.6648 32.4446 20.1758C32.7612 19.687 32.8064 19.1094 32.535 18.5759C32.3226 18.1167 31.8307 18.1675 31.3969 18.2119L31.3138 18.2205L31.2535 18.2278C30.9164 18.2695 30.6151 18.3069 30.2735 18.2649C29.5046 18.176 28.9618 17.7317 28.8261 17.0205C28.7809 16.5762 28.9166 16.354 29.4141 16.354C29.669 16.354 29.9382 16.3682 30.1733 16.3806C30.3553 16.3901 30.5169 16.3984 30.6353 16.3984C30.8813 16.3984 31.0976 16.4043 31.2949 16.4097C31.6418 16.4189 31.9301 16.4268 32.2184 16.3984C33.2587 16.3096 34.1634 16.043 34.5704 14.9763C35.1584 13.5098 34.6609 11.6877 33.4397 10.6658C31.359 8.97705 27.831 9.59912 26.3836 11.9099C25.6599 13.0654 25.4338 14.3542 25.4338 15.7319ZM36.244 36.3965C38.1437 36.3965 40.2243 35.1968 40.4505 32.8413C40.6766 30.7083 39.9077 29.1084 37.5557 28.4417C36.6963 28.175 35.8369 28.2195 34.9775 28.3972C34.7061 28.4417 34.6157 28.3972 34.6157 28.1306C34.6157 27.6418 34.6157 27.1531 34.5704 26.6641C34.5252 25.9976 34.2086 25.731 33.5754 25.5977C33.2135 25.5532 32.8064 25.5532 32.3994 25.5977C31.4495 25.731 31.0424 26.1309 31.0424 27.1086V30.7527H31.0877V32.5747C31.1027 32.8562 31.1078 33.1377 31.1128 33.4192C31.1228 33.9822 31.1329 34.5449 31.2234 35.1079C31.359 36.0854 31.947 36.5298 32.9421 36.3521C33.1683 36.3521 33.3944 36.3076 33.5754 36.2188C33.9372 36.041 34.3443 36.041 34.7061 36.1743C35.2037 36.3521 35.7012 36.3965 36.244 36.3965ZM43.7976 36.5298C44.7474 36.3521 45.1093 35.9521 45.1545 34.9746C45.1997 33.6414 45.1997 32.3081 45.1545 31.2859V26.9309C45.1545 26.4419 44.9736 26.042 44.5213 25.8198C43.7071 25.4199 42.893 25.4644 42.124 25.8643C41.4908 26.1753 41.4003 26.7529 41.4003 27.3308C41.3551 29.1528 41.3551 31.0193 41.3551 32.8413C41.3551 33.0095 41.3522 33.1748 41.3494 33.3386C41.3409 33.8245 41.3327 34.2981 41.4003 34.7966C41.5813 36.1743 42.3954 36.7966 43.7976 36.5298ZM44.7022 21.2869C45.9687 22.0869 47.5517 21.3757 47.6422 19.9092C47.7779 17.5095 47.8231 15.0652 47.5065 12.71C47.4613 11.7766 46.9637 11.0657 46.1948 10.9324C44.657 10.6213 43.888 10.8435 43.1191 12.0432C42.6668 12.7544 42.2597 13.5098 41.8526 14.2654C41.7622 14.4431 41.6265 14.6653 41.4908 14.8875C41.3551 14.6653 41.2646 14.4875 41.1742 14.3098C40.7219 13.4209 40.2243 12.5767 39.5459 11.821C39.184 11.4211 38.7317 11.1545 38.1889 11.1101C36.832 10.9768 35.9274 11.4656 35.6108 12.7544C35.4751 13.2432 35.3846 13.7319 35.3846 14.2654V18.6204C35.3846 18.7637 35.3828 18.9053 35.3809 19.0457C35.3737 19.6021 35.3667 20.1414 35.4751 20.7092C35.6108 21.3757 36.0178 21.8645 36.7415 21.9536C38.2342 22.1313 38.7769 21.6868 38.8674 20.3091V20.1758L38.8714 20.0469C38.9152 18.626 38.9579 17.2456 38.9579 15.8652C38.9758 15.8123 38.9795 15.7664 38.9831 15.7219C38.9886 15.6545 38.9937 15.5901 39.0483 15.5098C39.1388 15.6875 39.2405 15.8765 39.3423 16.0652C39.4441 16.2539 39.5459 16.4429 39.6363 16.6206C39.9982 17.3762 40.36 18.0872 40.8123 18.7539C41.1742 19.1982 41.7622 19.2427 42.124 18.7983C42.2024 18.7212 42.2656 18.6147 42.3312 18.5042C42.3793 18.4231 42.4285 18.3401 42.4859 18.2649C42.6751 17.9551 42.8478 17.6345 43.0212 17.3125C43.3454 16.7109 43.6722 16.1042 44.1142 15.5542V15.9985C44.1142 16.6431 44.1029 17.2874 44.0916 17.9316C44.0803 18.5759 44.069 19.2202 44.069 19.8647C44.069 20.3982 44.2047 20.9314 44.7022 21.2869ZM46.5114 14.9319H46.3757C46.421 14.8875 46.4662 14.8875 46.5114 14.9319ZM14.0808 28.7974C13.8094 28.7974 13.4928 28.7974 13.1762 28.7529C12.8596 28.6641 12.7691 28.5308 12.8143 28.2195C12.9048 27.4641 13.6737 27.0198 14.5331 27.1975C15.1211 27.3752 15.4377 27.6863 15.4377 28.2195C15.4377 28.5308 15.302 28.7085 14.9854 28.7529C14.6688 28.7974 14.3974 28.7974 14.0808 28.7974ZM10 11.5391C10.0412 11.115 10.0412 10.6907 10 10.3137C10 10.1252 10.0824 10.0781 10.2059 10.031C10.5765 9.98389 10.947 9.98389 11.2765 10.0781C12.0588 10.3608 12.2647 11.7275 11.6059 12.4346C11.1941 12.8586 10.6588 12.9529 10.1647 13C10 13 10 12.9058 10 12.7644C10.0273 12.5146 10.0184 12.2441 10.0093 11.9668C10.0047 11.8254 10 11.6821 10 11.5391ZM11.4331 18.6682C11.0332 18.9585 10.5999 19 10.1333 19C10 19 10 18.917 10 18.7927C10 18.5854 10.0083 18.3779 10.0167 18.1704C10.025 17.9631 10.0333 17.7559 10.0333 17.5483V16.304C10.0333 16.1379 10.0667 16.0137 10.2333 16.0137C10.6666 15.9722 11.0998 16.0137 11.4665 16.304C12.1997 16.8848 12.1664 18.1704 11.4331 18.6682Z" fill="#FFD244"/>
</svg>
