<svg width="16" height="53" viewBox="0 0 16 53" fill="none" xmlns="http://www.w3.org/2000/svg">
<path d="M14.3097 32.3234C14.3097 32.2793 14.2665 32.2352 14.2665 32.2352L14.2232 32.1911C13.4008 30.9124 12.3187 30.0306 11.1067 29.6338C11.1067 29.4133 11.15 29.1928 11.15 28.9724C11.3231 25.1364 11.7992 21.3445 12.5351 17.5526C12.9679 15.3921 12.8814 12.482 12.0589 9.43964C10.2843 2.95813 5.91256 -1.01015 3.79162 0.224425C1.6274 1.459 1.15128 6.17684 2.57967 11.6001C3.3155 14.2016 5.13344 16.8471 6.12899 18.5667C7.90365 21.6531 8.8559 25.4009 8.68276 29.1487C8.68276 29.281 8.68276 29.3692 8.68276 29.5015C7.34095 29.7219 6.12899 30.4274 5.04688 31.4415C3.05579 33.2493 1.49756 35.983 0.631868 39.1576C-0.753233 44.5368 0.069165 50.3129 3.79162 52.4293C7.4708 54.5457 13.4873 50.6215 15.4351 43.2141C16.5605 38.8931 15.9113 34.8366 14.3097 32.3234ZM13.2276 43.8314C13.0978 44.4927 12.8814 45.11 12.6216 45.7273C12.3619 46.3446 12.0157 46.9178 11.6261 47.4469C11.2365 47.976 10.7604 48.461 10.2843 48.9019C9.28874 49.7397 8.12007 50.357 6.90811 50.6656C7.94693 49.9601 8.94247 49.2106 9.76487 48.3287C10.5873 47.4469 11.2798 46.4328 11.756 45.3305C12.2321 44.2282 12.5351 43.0377 12.7082 41.8472C12.8381 40.6127 12.8813 39.3781 12.7948 38.0994C13.2709 39.2899 13.4873 40.6127 13.444 41.8913C13.444 42.5527 13.3575 43.2141 13.2276 43.8314Z" fill="#FFD244"/>
</svg>
