<svg width="568" height="192" viewBox="0 0 568 192" fill="none" xmlns="http://www.w3.org/2000/svg">
<g filter="url(#filter0_d)">
<path d="M45.656 109.184C67.16 107.264 77.912 100.4 77.912 88.592C77.912 84.752 75.896 81.776 71.864 79.664C67.928 77.456 62.888 76.352 56.744 76.352L46.376 77.216C45.896 80.672 45.656 91.328 45.656 109.184ZM47.096 158.864C46.04 159.92 43.928 160.736 40.76 161.312C37.688 161.984 35.048 162.32 32.84 162.32C30.632 162.32 28.856 162.032 27.512 161.456L28.376 78.368C27.032 76.832 25.736 74.288 24.488 70.736C23.336 67.184 22.76 65.024 22.76 64.256C22.76 63.392 22.856 62.864 23.048 62.672C23.336 62.384 26.408 62.096 32.264 61.808C38.216 61.424 44.168 61.232 50.12 61.232C56.168 61.232 61.544 61.568 66.248 62.24C70.952 62.912 75.752 64.16 80.648 65.984C85.64 67.712 89.576 70.448 92.456 74.192C95.432 77.84 96.92 82.544 96.92 88.304C96.92 94.064 95.144 99.344 91.592 104.144C88.136 108.944 83.912 112.592 78.92 115.088C68.552 120.368 59.24 123.536 50.984 124.592L45.656 125.168C46.04 144.752 46.52 155.984 47.096 158.864ZM138.773 141.44C138.773 146.624 136.325 151.28 131.429 155.408C126.629 159.44 121.397 162.32 115.733 164.048C110.165 165.872 105.269 166.784 101.045 166.784C100.565 166.784 99.8934 166.208 99.0294 165.056C96.6294 161.888 95.4294 158.192 95.4294 153.968V152.96C102.917 152.96 108.629 151.664 112.565 149.072C116.501 146.48 118.469 143.792 118.469 141.008C118.469 139.184 117.269 137.264 114.869 135.248C112.469 133.232 109.829 131.456 106.949 129.92C104.069 128.384 101.429 126.368 99.0294 123.872C96.6294 121.28 95.4294 118.592 95.4294 115.808C95.4294 109.952 99.0774 104.576 106.373 99.68C113.669 94.784 121.445 92.336 129.701 92.336C130.661 92.336 131.909 93.68 133.445 96.368C134.981 98.96 135.797 101.648 135.893 104.432C133.973 104.432 131.093 105.008 127.253 106.16C119.669 108.56 115.877 111.536 115.877 115.088C115.877 117.584 119.621 120.992 127.109 125.312C129.989 126.944 132.629 129.2 135.029 132.08C137.429 134.96 138.677 138.08 138.773 141.44ZM204.438 111.4C183.904 144.333 173.171 161.4 172.238 162.6C171.304 163.933 170.504 164.6 169.838 164.6C164.504 164.6 159.638 163.867 155.238 162.4C150.838 160.933 147.771 159.533 146.038 158.2C144.304 156.867 143.438 156 143.438 155.6C143.438 155.067 143.971 154.333 145.038 153.4C155.171 143.133 170.771 121.6 191.838 88.8C176.638 61.4667 167.571 46.5333 164.638 44C163.571 43.0667 161.704 42.0667 159.038 41C156.371 39.9333 153.971 39.4 151.838 39.4C151.704 39.1333 151.638 38.4 151.638 37.2C151.638 35.8667 152.038 33.9333 152.838 31.4C153.771 28.7333 154.438 27.2 154.838 26.8C155.238 26.4 156.504 26 158.638 25.6C164.371 24.5333 170.171 24 176.038 24C182.038 24 185.171 24.1333 185.438 24.4C185.838 24.6667 186.838 26.4 188.438 29.6C195.904 44.1333 202.038 56 206.838 65.2C224.704 37.0667 234.504 23 236.238 23C239.971 23 243.838 23.8 247.838 25.4C251.838 27 254.971 28.7333 257.238 30.6C259.504 32.3333 260.638 33.6 260.638 34.4C251.304 42.2667 237.504 60.1333 219.238 88C240.438 125.733 256.238 148.4 266.638 156C266.638 157.733 263.438 160.267 257.038 163.6C250.771 167.067 245.238 168.8 240.438 168.8H239.638C234.704 164 222.971 144.867 204.438 111.4ZM285.201 162.752L280.737 162.32C280.545 161.36 280.449 154.832 280.449 142.736C280.449 130.544 280.497 122 280.593 117.104C278.961 115.568 277.329 113.216 275.697 110.048C274.161 106.784 273.393 104 273.393 101.696C273.393 101.6 275.889 101.456 280.881 101.264C280.977 97.232 281.025 92.576 281.025 87.296C281.025 82.016 280.977 79.328 280.881 79.232C279.825 78.176 278.433 75.68 276.705 71.744C275.073 67.712 274.257 65.12 274.257 63.968C275.313 62.912 291.969 62.384 324.225 62.384C332.289 62.384 336.321 62.576 336.321 62.96C336.321 64.976 335.841 67.184 334.881 69.584C334.017 71.984 333.057 73.904 332.001 75.344C331.041 76.688 330.417 77.312 330.129 77.216C329.841 77.12 328.113 77.072 324.945 77.072C321.777 77.072 316.881 77.312 310.257 77.792C303.633 78.176 300.033 78.656 299.457 79.232C298.881 79.712 298.593 84.896 298.593 94.784L298.737 100.832C307.761 100.64 314.673 100.544 319.473 100.544C324.273 100.544 326.673 100.688 326.673 100.976C326.673 104.72 325.521 108.656 323.217 112.784C322.449 114.224 321.969 114.944 321.777 114.944H320.337C317.265 114.944 312.993 115.184 307.521 115.664C302.049 116.144 299.169 116.528 298.881 116.816C298.593 117.104 298.449 123.104 298.449 134.816C298.449 146.528 299.073 154.496 300.321 158.72C300.321 159.968 298.449 160.928 294.705 161.6C291.057 162.368 287.889 162.752 285.201 162.752ZM405.993 128.048C405.993 137.168 403.209 145.088 397.641 151.808C392.169 158.432 384.681 161.744 375.177 161.744C365.769 161.744 358.377 158.816 353.001 152.96C347.625 147.104 344.937 139.52 344.937 130.208C344.937 120.8 348.249 112.496 354.873 105.296C361.593 98 370.617 94.352 381.945 94.352C386.553 94.544 389.049 94.832 389.433 95.216C389.817 95.6 390.009 96.512 390.009 97.952C390.009 99.392 389.865 100.976 389.577 102.704C391.017 102.704 392.841 103.568 395.049 105.296C397.353 106.928 399.225 108.608 400.665 110.336C402.105 112.064 403.353 114.512 404.409 117.68C405.465 120.752 405.993 124.208 405.993 128.048ZM384.969 117.968C382.761 116.528 380.601 115.808 378.489 115.808H377.337C377.145 115.424 377.049 114.608 377.049 113.36C377.049 112.112 377.193 110.912 377.481 109.76C373.545 109.76 369.849 111.536 366.393 115.088C363.033 118.64 361.353 123.584 361.353 129.92C361.353 137.408 363.753 142.592 368.553 145.472C370.377 146.624 372.873 147.2 376.041 147.2C379.305 147.2 382.329 145.712 385.113 142.736C387.993 139.76 389.433 135.344 389.433 129.488C389.433 123.632 387.945 119.792 384.969 117.968ZM475.743 128.048C475.743 137.168 472.959 145.088 467.391 151.808C461.919 158.432 454.431 161.744 444.927 161.744C435.519 161.744 428.127 158.816 422.751 152.96C417.375 147.104 414.687 139.52 414.687 130.208C414.687 120.8 417.999 112.496 424.623 105.296C431.343 98 440.367 94.352 451.695 94.352C456.303 94.544 458.799 94.832 459.183 95.216C459.567 95.6 459.759 96.512 459.759 97.952C459.759 99.392 459.615 100.976 459.327 102.704C460.767 102.704 462.591 103.568 464.799 105.296C467.103 106.928 468.975 108.608 470.415 110.336C471.855 112.064 473.103 114.512 474.159 117.68C475.215 120.752 475.743 124.208 475.743 128.048ZM454.719 117.968C452.511 116.528 450.351 115.808 448.239 115.808H447.087C446.895 115.424 446.799 114.608 446.799 113.36C446.799 112.112 446.943 110.912 447.231 109.76C443.295 109.76 439.599 111.536 436.143 115.088C432.783 118.64 431.103 123.584 431.103 129.92C431.103 137.408 433.503 142.592 438.303 145.472C440.127 146.624 442.623 147.2 445.791 147.2C449.055 147.2 452.079 145.712 454.863 142.736C457.743 139.76 459.183 135.344 459.183 129.488C459.183 123.632 457.695 119.792 454.719 117.968ZM523.317 96.224L523.029 74.912C523.029 68.96 523.173 65.84 523.461 65.552C524.613 64.4 526.485 63.296 529.077 62.24C531.765 61.088 534.309 60.512 536.709 60.512C539.109 60.512 540.309 60.704 540.309 61.088C539.541 77.024 539.157 93.968 539.157 111.92C539.157 129.872 539.445 140.576 540.021 144.032C540.693 149.216 542.277 153.056 544.773 155.552C544.773 156.512 542.757 158 538.725 160.016C534.789 162.128 531.429 163.184 528.645 163.184C528.357 163.184 527.925 162.8 527.349 162.032C525.525 159.632 524.421 156.368 524.037 152.24C524.037 151.952 523.941 151.808 523.749 151.808L523.317 152.096C519.285 157.856 513.285 160.736 505.317 160.736C498.885 160.736 493.797 158.192 490.053 153.104C486.309 148.016 484.437 142.304 484.437 135.968C484.437 125.12 487.797 115.904 494.517 108.32C501.237 100.64 510.837 96.608 523.317 96.224ZM523.605 111.344C523.605 111.152 523.077 111.056 522.021 111.056H521.445C515.301 111.056 510.453 113.024 506.901 116.96C503.445 120.896 501.717 125.888 501.717 131.936C501.717 135.488 502.533 138.416 504.165 140.72C505.893 142.928 508.437 144.032 511.797 144.032C515.253 144.032 517.989 142.544 520.005 139.568C522.117 136.592 523.173 134.24 523.173 132.512C523.173 121.856 523.317 114.8 523.605 111.344Z" fill="white"/>
<path d="M45.656 109.184H43.156V111.917L45.8783 111.674L45.656 109.184ZM71.864 79.664L70.6409 81.8444L70.6722 81.8619L70.704 81.8786L71.864 79.664ZM56.744 76.352V73.852H56.64L56.5364 73.8606L56.744 76.352ZM46.376 77.216L46.1684 74.7246L44.175 74.8907L43.8998 76.8721L46.376 77.216ZM47.096 158.864L48.8638 160.632L49.8098 159.686L49.5475 158.374L47.096 158.864ZM40.76 161.312L40.3128 158.852L40.2691 158.86L40.2258 158.87L40.76 161.312ZM27.512 161.456L25.0121 161.43L24.9948 163.097L26.5272 163.754L27.512 161.456ZM28.376 78.368L30.8759 78.394L30.8858 77.4398L30.2574 76.7217L28.376 78.368ZM24.488 70.736L22.1099 71.5073L22.1193 71.5361L22.1293 71.5647L24.488 70.736ZM23.048 62.672L21.2802 60.9042L21.2802 60.9042L23.048 62.672ZM32.264 61.808L32.3868 64.305L32.4059 64.304L32.425 64.3028L32.264 61.808ZM66.248 62.24L65.8944 64.7149L65.8944 64.7149L66.248 62.24ZM80.648 65.984L79.7752 68.3267L79.8026 68.3369L79.8302 68.3465L80.648 65.984ZM92.456 74.192L90.4744 75.7163L90.4962 75.7446L90.5188 75.7723L92.456 74.192ZM91.592 104.144L89.5824 102.657L89.5727 102.67L89.5632 102.683L91.592 104.144ZM78.92 115.088L77.802 112.852L77.7937 112.856L77.7855 112.86L78.92 115.088ZM50.984 124.592L51.2527 127.078L51.277 127.075L51.3012 127.072L50.984 124.592ZM45.656 125.168L45.3873 122.682L43.1116 122.929L43.1565 125.217L45.656 125.168ZM45.8783 111.674C56.7881 110.7 65.321 108.452 71.1932 104.703C77.2195 100.856 80.412 95.4283 80.412 88.592H75.412C75.412 93.5637 73.2285 97.4719 68.5028 100.489C63.623 103.604 56.0279 105.748 45.4337 106.694L45.8783 111.674ZM80.412 88.592C80.412 83.6308 77.6955 79.8964 73.024 77.4494L70.704 81.8786C74.0965 83.6556 75.412 85.8732 75.412 88.592H80.412ZM73.0871 77.4836C68.6666 75.0039 63.1681 73.852 56.744 73.852V78.852C62.6079 78.852 67.1894 79.9081 70.6409 81.8444L73.0871 77.4836ZM56.5364 73.8606L46.1684 74.7246L46.5836 79.7074L56.9516 78.8434L56.5364 73.8606ZM43.8998 76.8721C43.3898 80.5441 43.156 91.4204 43.156 109.184H48.156C48.156 91.2356 48.4022 80.7999 48.8522 77.5599L43.8998 76.8721ZM45.3282 157.096C44.8613 157.563 43.4424 158.283 40.3128 158.852L41.2072 163.772C44.4136 163.189 47.2187 162.277 48.8638 160.632L45.3282 157.096ZM40.2258 158.87C37.2619 159.518 34.8105 159.82 32.84 159.82V164.82C35.2855 164.82 38.1141 164.45 41.2942 163.754L40.2258 158.87ZM32.84 159.82C30.8144 159.82 29.4125 159.551 28.4968 159.158L26.5272 163.754C28.2995 164.513 30.4496 164.82 32.84 164.82V159.82ZM30.0119 161.482L30.8759 78.394L25.8761 78.342L25.0121 161.43L30.0119 161.482ZM30.2574 76.7217C29.2319 75.5497 28.063 73.3691 26.8467 69.9073L22.1293 71.5647C23.409 75.2069 24.8321 78.1143 26.4946 80.0143L30.2574 76.7217ZM26.8661 69.9647C26.296 68.207 25.8792 66.8264 25.6076 65.8078C25.4716 65.2978 25.3785 64.9027 25.321 64.6104C25.2569 64.2845 25.26 64.1983 25.26 64.256H20.26C20.26 65.0199 20.5012 66.0642 20.7764 67.0962C21.0808 68.2376 21.528 69.713 22.1099 71.5073L26.8661 69.9647ZM25.26 64.256C25.26 64.0845 25.2648 63.9482 25.2721 63.843C25.2795 63.7356 25.2883 63.6779 25.2917 63.6592C25.2962 63.6341 25.2879 63.6957 25.2432 63.8075C25.2195 63.8666 25.1797 63.955 25.116 64.0596C25.0524 64.164 24.9562 64.2994 24.8158 64.4397L21.2802 60.9042C20.6141 61.5704 20.4372 62.408 20.3723 62.7648C20.2864 63.2376 20.26 63.7528 20.26 64.256H25.26ZM24.8158 64.4398C24.5214 64.7342 24.2332 64.8649 24.1659 64.8954C24.0622 64.9423 23.9928 64.9622 23.9887 64.9633C23.9796 64.966 24.0399 64.9489 24.2084 64.92C24.5348 64.8641 25.0549 64.7991 25.8014 64.7291C27.2813 64.5903 29.4692 64.4485 32.3868 64.305L32.1412 59.311C29.2028 59.4555 26.9267 59.6017 25.3346 59.7509C24.5451 59.8249 23.8772 59.9039 23.3636 59.9919C23.1121 60.035 22.8394 60.09 22.5843 60.1646C22.4572 60.2018 22.2866 60.2576 22.1034 60.3406C21.9566 60.4071 21.6106 60.5738 21.2802 60.9042L24.8158 64.4398ZM32.425 64.3028C38.3235 63.9223 44.2218 63.732 50.12 63.732V58.732C44.1142 58.732 38.1085 58.9257 32.103 59.3132L32.425 64.3028ZM50.12 63.732C56.0799 63.732 61.3341 64.0634 65.8944 64.7149L66.6016 59.7651C61.7539 59.0726 56.2561 58.732 50.12 58.732V63.732ZM65.8944 64.7149C70.4046 65.3592 75.0306 66.5591 79.7752 68.3267L81.5208 63.6413C76.4734 61.7609 71.4994 60.4648 66.6016 59.7651L65.8944 64.7149ZM79.8302 68.3465C84.4173 69.9343 87.9267 72.4042 90.4744 75.7163L94.4376 72.6677C91.2253 68.4918 86.8627 65.4897 81.4658 63.6215L79.8302 68.3465ZM90.5188 75.7723C93.0548 78.8809 94.42 82.9869 94.42 88.304H99.42C99.42 82.1011 97.8092 76.7991 94.3932 72.6117L90.5188 75.7723ZM94.42 88.304C94.42 93.5079 92.8284 98.2704 89.5824 102.657L93.6016 105.631C97.4596 100.418 99.42 94.6201 99.42 88.304H94.42ZM89.5632 102.683C86.329 107.175 82.4105 110.548 77.802 112.852L80.038 117.324C85.4135 114.636 89.943 110.713 93.6208 105.605L89.5632 102.683ZM77.7855 112.86C67.5794 118.058 58.5493 121.104 50.6668 122.112L51.3012 127.072C59.9307 125.968 69.5246 122.678 80.0545 117.316L77.7855 112.86ZM50.7153 122.106L45.3873 122.682L45.9247 127.654L51.2527 127.078L50.7153 122.106ZM43.1565 125.217C43.3486 135.016 43.5651 142.742 43.8063 148.387C44.0434 153.936 44.3102 157.683 44.6445 159.354L49.5475 158.374C49.3058 157.165 49.0446 153.856 48.8017 148.173C48.5629 142.586 48.3474 134.904 48.1555 125.119L43.1565 125.217ZM138.773 141.44H141.273V141.404L141.272 141.369L138.773 141.44ZM131.429 155.408L133.037 157.322L133.041 157.319L131.429 155.408ZM115.733 164.048L115.004 161.657L114.979 161.664L114.955 161.672L115.733 164.048ZM99.0294 165.056L101.029 163.556L101.022 163.546L99.0294 165.056ZM95.4294 152.96V150.46H92.9294V152.96H95.4294ZM112.565 149.072L111.19 146.984L111.19 146.984L112.565 149.072ZM106.949 129.92L108.126 127.714L108.126 127.714L106.949 129.92ZM99.0294 123.872L97.195 125.571L97.211 125.588L97.2273 125.605L99.0294 123.872ZM106.373 99.68L104.98 97.6041L104.98 97.6041L106.373 99.68ZM133.445 96.368L131.275 97.6083L131.285 97.6255L131.295 97.6425L133.445 96.368ZM135.893 104.432V106.932H138.481L138.392 104.346L135.893 104.432ZM127.253 106.16L126.535 103.765L126.517 103.771L126.499 103.776L127.253 106.16ZM127.109 125.312L125.86 127.477L125.868 127.482L125.877 127.487L127.109 125.312ZM136.273 141.44C136.273 145.717 134.295 149.722 129.818 153.497L133.041 157.319C138.356 152.838 141.273 147.531 141.273 141.44H136.273ZM129.821 153.494C125.264 157.322 120.327 160.033 115.004 161.657L116.463 166.439C122.467 164.607 127.995 161.558 133.037 157.322L129.821 153.494ZM114.955 161.672C109.549 163.443 104.925 164.284 101.045 164.284V169.284C105.614 169.284 110.782 168.301 116.512 166.424L114.955 161.672ZM101.045 164.284C101.423 164.284 101.677 164.395 101.767 164.44C101.86 164.486 101.875 164.511 101.808 164.454C101.747 164.402 101.648 164.307 101.51 164.151C101.373 163.998 101.213 163.801 101.029 163.556L97.0294 166.556C97.5118 167.199 98.0212 167.793 98.5544 168.25C99.0055 168.637 99.8782 169.284 101.045 169.284V164.284ZM101.022 163.546C98.9726 160.841 97.9294 157.683 97.9294 153.968H92.9294C92.9294 158.701 94.2861 162.935 97.0366 166.566L101.022 163.546ZM97.9294 153.968V152.96H92.9294V153.968H97.9294ZM95.4294 155.46C103.143 155.46 109.421 154.136 113.94 151.16L111.19 146.984C107.838 149.192 102.692 150.46 95.4294 150.46V155.46ZM113.94 151.16C118.089 148.428 120.969 145.086 120.969 141.008H115.969C115.969 142.498 114.914 144.532 111.19 146.984L113.94 151.16ZM120.969 141.008C120.969 138.055 119.053 135.498 116.477 133.334L113.261 137.162C115.485 139.03 115.969 140.313 115.969 141.008H120.969ZM116.477 133.334C113.939 131.201 111.153 129.329 108.126 127.714L105.773 132.126C108.506 133.583 111 135.263 113.261 137.162L116.477 133.334ZM108.126 127.714C105.492 126.309 103.06 124.457 100.831 122.139L97.2273 125.605C99.7985 128.279 102.647 130.459 105.773 132.126L108.126 127.714ZM100.864 122.173C98.7722 119.915 97.9294 117.806 97.9294 115.808H92.9294C92.9294 119.378 94.4866 122.645 97.195 125.571L100.864 122.173ZM97.9294 115.808C97.9294 111.146 100.796 106.433 107.766 101.756L104.98 97.6041C97.3586 102.719 92.9294 108.758 92.9294 115.808H97.9294ZM107.766 101.756C114.678 97.1177 121.974 94.836 129.701 94.836V89.836C120.917 89.836 112.66 92.4503 104.98 97.6041L107.766 101.756ZM129.701 94.836C129.35 94.836 129.16 94.714 129.176 94.7235C129.192 94.7335 129.31 94.8133 129.525 95.0451C129.961 95.5138 130.546 96.3336 131.275 97.6083L135.616 95.1276C134.808 93.7144 134.002 92.5182 133.189 91.6429C132.479 90.8777 131.292 89.836 129.701 89.836V94.836ZM131.295 97.6425C132.635 99.904 133.314 102.187 133.395 104.518L138.392 104.346C138.28 101.109 137.328 98.0159 135.596 95.0935L131.295 97.6425ZM135.893 101.932C133.587 101.932 130.412 102.602 126.535 103.765L127.972 108.555C131.775 107.414 134.36 106.932 135.893 106.932V101.932ZM126.499 103.776C122.582 105.016 119.414 106.471 117.178 108.225C114.909 110.006 113.377 112.293 113.377 115.088H118.377C118.377 114.331 118.742 113.354 120.265 112.159C121.821 110.937 124.34 109.704 128.008 108.543L126.499 103.776ZM113.377 115.088C113.377 117.489 115.078 119.613 117.003 121.365C119.068 123.245 122.053 125.281 125.86 127.477L128.359 123.147C124.678 121.023 122.047 119.195 120.368 117.667C119.53 116.905 118.999 116.278 118.691 115.792C118.379 115.301 118.377 115.084 118.377 115.088H113.377ZM125.877 127.487C128.462 128.952 130.876 131.001 133.109 133.68L136.95 130.48C134.382 127.399 131.516 124.936 128.342 123.137L125.877 127.487ZM133.109 133.68C135.194 136.182 136.196 138.776 136.274 141.511L141.272 141.369C141.159 137.384 139.665 133.738 136.95 130.48L133.109 133.68ZM204.438 111.4L206.625 110.189L204.565 106.47L202.316 110.077L204.438 111.4ZM172.238 162.6L170.264 161.065L170.225 161.115L170.189 161.166L172.238 162.6ZM155.238 162.4L154.447 164.772L154.447 164.772L155.238 162.4ZM146.038 158.2L147.562 156.218L147.562 156.218L146.038 158.2ZM145.038 153.4L146.684 155.281L146.753 155.221L146.817 155.156L145.038 153.4ZM191.838 88.8L193.941 90.151L194.749 88.8924L194.022 87.585L191.838 88.8ZM164.638 44L162.991 45.8814L162.997 45.8868L163.003 45.892L164.638 44ZM151.838 39.4L149.601 40.518L150.292 41.9H151.838V39.4ZM152.838 31.4L150.478 30.5741L150.465 30.6105L150.454 30.6472L152.838 31.4ZM154.838 26.8L156.605 28.5678L156.605 28.5678L154.838 26.8ZM158.638 25.6L158.18 23.1422L158.177 23.1428L158.638 25.6ZM185.438 24.4L183.67 26.1678L183.845 26.3428L184.051 26.4801L185.438 24.4ZM188.438 29.6L186.201 30.718L186.208 30.7303L186.214 30.7424L188.438 29.6ZM206.838 65.2L204.621 66.3564L206.625 70.1977L208.948 66.5402L206.838 65.2ZM247.838 25.4L248.766 23.0788L248.766 23.0788L247.838 25.4ZM257.238 30.6L255.648 32.5298L255.683 32.5585L255.719 32.5859L257.238 30.6ZM260.638 34.4L262.249 36.3116L263.138 35.5624V34.4H260.638ZM219.238 88L217.147 86.6294L216.314 87.9L217.058 89.2246L219.238 88ZM266.638 156H269.138V154.731L268.113 153.982L266.638 156ZM257.038 163.6L255.883 161.383L255.855 161.397L255.827 161.412L257.038 163.6ZM239.638 168.8L237.894 170.592L238.622 171.3H239.638V168.8ZM202.316 110.077C192.05 126.543 184.235 139.04 178.871 147.569C176.189 151.834 174.122 155.103 172.668 157.379C171.941 158.518 171.371 159.403 170.955 160.037C170.747 160.354 170.582 160.603 170.458 160.786C170.396 160.878 170.347 160.948 170.311 161C170.271 161.057 170.258 161.073 170.264 161.065L174.211 164.135C174.536 163.717 175.468 162.284 176.882 160.071C178.345 157.78 180.419 154.499 183.104 150.231C188.473 141.693 196.292 129.19 206.559 112.723L202.316 110.077ZM170.189 161.166C169.787 161.741 169.5 162.044 169.337 162.179C169.262 162.242 169.258 162.231 169.328 162.199C169.403 162.165 169.581 162.1 169.838 162.1V167.1C171.006 167.1 171.928 166.529 172.538 166.021C173.175 165.489 173.755 164.792 174.286 164.034L170.189 161.166ZM169.838 162.1C164.733 162.1 160.138 161.398 156.028 160.028L154.447 164.772C159.137 166.335 164.275 167.1 169.838 167.1V162.1ZM156.028 160.028C151.664 158.574 148.941 157.28 147.562 156.218L144.513 160.182C146.6 161.787 150.011 163.293 154.447 164.772L156.028 160.028ZM147.562 156.218C146.726 155.575 146.175 155.102 145.855 154.782C145.692 154.618 145.649 154.554 145.663 154.576C145.672 154.589 145.726 154.668 145.784 154.805C145.837 154.933 145.938 155.213 145.938 155.6H140.938C140.938 156.489 141.365 157.148 141.537 157.399C141.768 157.737 142.05 158.048 142.32 158.318C142.867 158.865 143.616 159.491 144.513 160.182L147.562 156.218ZM145.938 155.6C145.938 155.881 145.869 156.069 145.842 156.133C145.814 156.197 145.805 156.195 145.859 156.12C145.973 155.964 146.222 155.686 146.684 155.281L143.391 151.519C142.787 152.047 142.235 152.603 141.816 153.18C141.434 153.705 140.938 154.549 140.938 155.6H145.938ZM146.817 155.156C157.159 144.678 172.887 122.931 193.941 90.151L189.734 87.449C168.654 120.269 153.183 141.589 143.258 151.644L146.817 155.156ZM194.022 87.585C186.417 73.9085 180.332 63.3096 175.774 55.8026C173.497 52.0512 171.586 49.048 170.048 46.8093C168.567 44.6536 167.284 42.982 166.272 42.1079L163.003 45.892C163.458 46.2846 164.408 47.4297 165.927 49.6406C167.389 51.7687 169.245 54.6822 171.501 58.3974C176.009 65.8237 182.058 76.3582 189.653 90.015L194.022 87.585ZM166.284 42.1185C164.882 40.8922 162.683 39.7655 159.966 38.6788L158.109 43.3212C160.726 44.3678 162.259 45.2412 162.991 45.8814L166.284 42.1185ZM159.966 38.6788C157.1 37.5325 154.378 36.9 151.838 36.9V41.9C153.563 41.9 155.642 42.3342 158.109 43.3212L159.966 38.6788ZM154.074 38.2819C154.137 38.4084 154.169 38.5064 154.182 38.5502C154.19 38.5754 154.195 38.5942 154.198 38.6052C154.199 38.6109 154.2 38.6152 154.201 38.618C154.201 38.6207 154.201 38.6221 154.201 38.6222C154.201 38.6223 154.201 38.6211 154.201 38.6187C154.2 38.6164 154.2 38.6129 154.199 38.6082C154.197 38.5989 154.195 38.5857 154.193 38.5683C154.188 38.5331 154.183 38.4854 154.177 38.4237C154.154 38.164 154.138 37.765 154.138 37.2H149.138C149.138 37.835 149.155 38.4026 149.198 38.8763C149.23 39.2274 149.3 39.9153 149.601 40.518L154.074 38.2819ZM154.138 37.2C154.138 36.2657 154.438 34.634 155.221 32.1528L150.454 30.6472C149.637 33.2326 149.138 35.4676 149.138 37.2H154.138ZM155.197 32.2259C155.655 30.9168 156.032 29.9322 156.33 29.2468C156.48 28.9029 156.595 28.668 156.676 28.5202C156.782 28.328 156.762 28.4107 156.605 28.5678L153.07 25.0322C152.713 25.3893 152.459 25.8136 152.299 26.1048C152.113 26.4403 151.929 26.8304 151.745 27.2532C151.376 28.1011 150.953 29.2165 150.478 30.5741L155.197 32.2259ZM156.605 28.5678C156.419 28.7536 156.288 28.7989 156.382 28.7538C156.449 28.7216 156.592 28.6623 156.84 28.5839C157.337 28.427 158.077 28.2487 159.098 28.0572L158.177 23.1428C157.065 23.3513 156.104 23.5729 155.335 23.816C154.703 24.0154 153.744 24.3584 153.07 25.0322L156.605 28.5678ZM159.095 28.0578C164.676 27.0194 170.323 26.5 176.038 26.5V21.5C170.018 21.5 164.065 22.0473 158.18 23.1422L159.095 28.0578ZM176.038 26.5C179.028 26.5 181.269 26.5334 182.781 26.5977C183.544 26.6302 184.076 26.6688 184.408 26.7079C184.58 26.7282 184.639 26.7419 184.626 26.7387C184.621 26.7375 184.542 26.7193 184.425 26.6727C184.358 26.6459 184.012 26.5099 183.67 26.1678L187.205 22.6322C186.83 22.2567 186.428 22.0885 186.282 22.0304C186.088 21.9525 185.908 21.9042 185.78 21.8738C185.521 21.8123 185.245 21.7718 184.992 21.7421C184.474 21.6812 183.797 21.6364 182.994 21.6023C181.373 21.5333 179.047 21.5 176.038 21.5V26.5ZM184.051 26.4801C183.712 26.2541 183.612 26.0375 183.802 26.3086C183.917 26.4735 184.089 26.7448 184.322 27.1493C184.785 27.952 185.409 29.1338 186.201 30.718L190.674 28.482C189.866 26.8662 189.19 25.5813 188.653 24.6507C188.386 24.1886 188.133 23.7765 187.898 23.4413C187.738 23.2125 187.363 22.6792 186.824 22.3199L184.051 26.4801ZM186.214 30.7424C193.682 45.2781 199.818 57.1499 204.621 66.3564L209.054 64.0436C204.257 54.8501 198.127 42.9885 190.661 28.4575L186.214 30.7424ZM208.948 66.5402C217.876 52.4813 224.77 41.9675 229.639 34.9791C232.078 31.478 233.979 28.9043 235.358 27.2226C236.054 26.3742 236.568 25.8122 236.92 25.483C237.098 25.3152 237.176 25.2637 237.168 25.2692C237.161 25.2737 237.09 25.319 236.966 25.368C236.849 25.4138 236.592 25.5 236.238 25.5V20.5C235.388 20.5 234.742 20.8849 234.468 21.0604C234.117 21.2858 233.789 21.564 233.499 21.8358C232.913 22.3857 232.238 23.1424 231.492 24.0524C229.987 25.8874 227.997 28.5886 225.536 32.1209C220.605 39.1992 213.665 49.7854 204.727 63.8598L208.948 66.5402ZM236.238 25.5C239.608 25.5 243.159 26.2213 246.909 27.7212L248.766 23.0788C244.516 21.3787 240.334 20.5 236.238 20.5V25.5ZM246.909 27.7212C250.771 29.2659 253.65 30.884 255.648 32.5298L258.827 28.6702C256.292 26.5827 252.904 24.7341 248.766 23.0788L246.909 27.7212ZM255.719 32.5859C256.799 33.412 257.509 34.0526 257.924 34.517C258.131 34.7483 258.213 34.8788 258.233 34.9146C258.261 34.9663 258.138 34.7726 258.138 34.4H263.138C263.138 33.6274 262.872 32.9754 262.617 32.5104C262.353 32.0296 262.01 31.585 261.651 31.183C260.933 30.3807 259.942 29.5213 258.756 28.6141L255.719 32.5859ZM259.026 32.4884C249.374 40.624 235.392 58.7948 217.147 86.6294L221.328 89.3705C239.616 61.4719 253.234 43.9093 262.249 36.3116L259.026 32.4884ZM217.058 89.2246C227.678 108.127 236.972 123.304 244.937 134.73C252.856 146.091 259.604 153.956 265.162 158.018L268.113 153.982C263.271 150.444 256.919 143.176 249.038 131.87C241.203 120.629 231.997 105.606 221.417 86.7754L217.058 89.2246ZM264.138 156C264.138 155.671 264.277 155.63 264.038 155.95C263.816 156.246 263.396 156.677 262.686 157.24C261.269 158.361 259.032 159.743 255.883 161.383L258.192 165.817C261.443 164.124 264.006 162.572 265.789 161.16C266.679 160.456 267.459 159.721 268.038 158.95C268.598 158.203 269.138 157.196 269.138 156H264.138ZM255.827 161.412C249.763 164.767 244.656 166.3 240.438 166.3V171.3C245.819 171.3 251.779 169.366 258.248 165.788L255.827 161.412ZM240.438 166.3H239.638V171.3H240.438V166.3ZM241.381 167.008C239.18 164.867 235.174 159.173 229.269 149.543C223.43 140.022 215.884 126.909 206.625 110.189L202.25 112.611C211.524 129.358 219.112 142.544 225.006 152.157C230.834 161.661 235.161 167.933 237.894 170.592L241.381 167.008ZM285.201 162.752L284.96 165.24L285.08 165.252H285.201V162.752ZM280.737 162.32L278.285 162.81L278.649 164.63L280.496 164.808L280.737 162.32ZM280.593 117.104L283.092 117.153L283.114 116.044L282.306 115.283L280.593 117.104ZM275.697 110.048L273.435 111.112L273.454 111.153L273.474 111.193L275.697 110.048ZM280.881 101.264L280.977 103.762L283.324 103.672L283.38 101.324L280.881 101.264ZM280.881 79.232L282.649 77.4643L282.649 77.4642L280.881 79.232ZM276.705 71.744L274.387 72.682L274.401 72.7157L274.416 72.749L276.705 71.744ZM274.257 63.968L272.489 62.2002L271.757 62.9325V63.968H274.257ZM334.881 69.584L332.56 68.6555L332.543 68.6961L332.529 68.7372L334.881 69.584ZM332.001 75.344L329.985 73.8656L329.976 73.8782L329.966 73.8909L332.001 75.344ZM330.129 77.216L330.919 74.8443L330.919 74.8443L330.129 77.216ZM310.257 77.792L310.401 80.2878L310.42 80.2868L310.437 80.2855L310.257 77.792ZM299.457 79.232L301.057 81.1525L301.144 81.0799L301.225 80.9998L299.457 79.232ZM298.593 94.784H296.093V94.8138L296.094 94.8435L298.593 94.784ZM298.737 100.832L296.238 100.892L296.297 103.384L298.79 103.331L298.737 100.832ZM323.217 112.784L321.034 111.566L321.022 111.586L321.011 111.608L323.217 112.784ZM307.521 115.664L307.739 118.154L307.739 118.154L307.521 115.664ZM298.881 116.816L297.113 115.048L297.113 115.048L298.881 116.816ZM300.321 158.72H302.821V158.358L302.718 158.012L300.321 158.72ZM294.705 161.6L294.263 159.139L294.226 159.146L294.19 159.154L294.705 161.6ZM285.442 160.264L280.978 159.832L280.496 164.808L284.96 165.24L285.442 160.264ZM283.188 161.83C283.198 161.881 283.184 161.815 283.163 161.521C283.145 161.265 283.126 160.914 283.109 160.46C283.074 159.553 283.044 158.292 283.021 156.667C282.973 153.422 282.949 148.78 282.949 142.736H277.949C277.949 148.788 277.973 153.458 278.021 156.741C278.045 158.38 278.076 159.687 278.113 160.652C278.146 161.519 278.19 162.332 278.285 162.81L283.188 161.83ZM282.949 142.736C282.949 130.543 282.997 122.022 283.092 117.153L278.093 117.055C277.997 121.978 277.949 130.545 277.949 142.736H282.949ZM282.306 115.283C280.966 114.022 279.489 111.949 277.919 108.903L273.474 111.193C275.169 114.483 276.955 117.114 278.879 118.924L282.306 115.283ZM277.959 108.984C276.5 105.884 275.893 103.482 275.893 101.696H270.893C270.893 104.518 271.822 107.684 273.435 111.112L277.959 108.984ZM275.893 101.696C275.893 103.098 274.821 103.746 274.74 103.798C274.483 103.96 274.259 104.034 274.199 104.054C274.108 104.084 274.037 104.1 274.006 104.107C273.97 104.115 273.945 104.12 273.936 104.121C273.918 104.124 273.959 104.117 274.1 104.104C274.363 104.078 274.792 104.047 275.409 104.012C276.632 103.941 278.484 103.858 280.977 103.762L280.785 98.7658C278.285 98.862 276.394 98.9467 275.121 99.0201C274.49 99.0566 273.983 99.0917 273.622 99.1265C273.451 99.1429 273.258 99.1642 273.083 99.1944C273.013 99.2065 272.841 99.2373 272.645 99.3012C272.565 99.3274 272.327 99.4071 272.061 99.576C271.969 99.6339 270.893 100.288 270.893 101.696H275.893ZM283.38 101.324C283.477 97.2667 283.525 92.5902 283.525 87.296H278.525C278.525 92.5618 278.477 97.1973 278.382 101.204L283.38 101.324ZM283.525 87.296C283.525 84.6524 283.513 82.6423 283.488 81.2754C283.476 80.5959 283.461 80.052 283.44 79.6609C283.431 79.4714 283.418 79.2781 283.399 79.109C283.39 79.0312 283.374 78.9009 283.343 78.7566C283.328 78.6875 283.298 78.5563 283.242 78.4008C283.216 78.3293 283.063 77.8783 282.649 77.4643L279.113 80.9997C278.705 80.5917 278.558 80.1517 278.538 80.0963C278.488 79.957 278.463 79.847 278.454 79.8042C278.442 79.7515 278.436 79.713 278.434 79.6969C278.433 79.6874 278.432 79.6804 278.431 79.6763C278.431 79.6741 278.431 79.6726 278.431 79.6715C278.43 79.6705 278.43 79.67 278.43 79.67C278.43 79.6699 278.43 79.6704 278.43 79.6712C278.431 79.6721 278.431 79.6733 278.431 79.675C278.431 79.6784 278.432 79.6832 278.432 79.6895C278.433 79.7022 278.435 79.7193 278.436 79.7415C278.44 79.7863 278.443 79.8449 278.447 79.9191C278.463 80.224 278.477 80.7001 278.489 81.3646C278.513 82.6857 278.525 84.6596 278.525 87.296H283.525ZM282.649 77.4642C282.371 77.187 281.894 76.5449 281.228 75.3503C280.585 74.1966 279.84 72.6667 278.994 70.739L274.416 72.749C275.297 74.7573 276.113 76.4434 276.861 77.7857C277.587 79.0871 278.334 80.2209 279.113 80.9998L282.649 77.4642ZM279.022 70.806C278.218 68.8198 277.633 67.2321 277.253 66.0253C277.064 65.4221 276.933 64.9407 276.852 64.5696C276.812 64.3854 276.787 64.2415 276.773 64.1332C276.765 64.0798 276.761 64.0392 276.759 64.01C276.757 63.9805 276.757 63.9672 276.757 63.968H271.757C271.757 64.9656 272.075 66.2278 272.484 67.5267C272.92 68.9119 273.559 70.6362 274.387 72.682L279.022 70.806ZM276.025 65.7358C275.645 66.1156 275.277 66.1978 275.42 66.1507C275.459 66.1379 275.586 66.1022 275.842 66.0544C276.347 65.9604 277.119 65.8614 278.197 65.7651C280.338 65.5735 283.47 65.4103 287.62 65.2787C295.907 65.016 308.104 64.884 324.225 64.884V59.884C308.09 59.884 295.83 60.016 287.462 60.2812C283.283 60.4137 280.037 60.5805 277.751 60.7849C276.615 60.8865 275.66 61.0021 274.926 61.1391C274.563 61.2068 274.192 61.2907 273.856 61.4016C273.623 61.4784 273.001 61.6884 272.489 62.2002L276.025 65.7358ZM324.225 64.884C328.248 64.884 331.223 64.9321 333.178 65.0252C334.168 65.0723 334.828 65.1281 335.211 65.1829C335.423 65.2132 335.433 65.2274 335.341 65.1967C335.311 65.1867 335.086 65.1143 334.82 64.9246C334.603 64.7695 333.821 64.1402 333.821 62.96H338.821C338.821 61.7318 338.007 61.056 337.727 60.8559C337.398 60.6212 337.079 60.5053 336.922 60.4533C336.578 60.3386 336.21 60.2748 335.918 60.2331C335.294 60.1439 334.442 60.0797 333.416 60.0308C331.338 59.9319 328.266 59.884 324.225 59.884V64.884ZM333.821 62.96C333.821 64.5821 333.433 66.4711 332.56 68.6555L337.202 70.5125C338.248 67.8968 338.821 65.3699 338.821 62.96H333.821ZM332.529 68.7372C331.714 70.9996 330.853 72.6821 329.985 73.8656L334.017 76.8224C335.261 75.1259 336.319 72.9684 337.233 70.4308L332.529 68.7372ZM329.966 73.8909C329.51 74.5296 329.209 74.888 329.045 75.0522C328.954 75.1429 328.997 75.081 329.155 74.9894C329.24 74.9404 329.428 74.8415 329.702 74.7796C329.987 74.7152 330.425 74.6794 330.919 74.8443L329.338 79.5877C330.451 79.9586 331.358 79.4916 331.66 79.3166C332.047 79.093 332.359 78.8091 332.581 78.5878C333.04 78.128 333.531 77.5024 334.035 76.7971L329.966 73.8909ZM330.919 74.8443C330.492 74.7017 329.994 74.6717 329.821 74.6593C329.516 74.6376 329.133 74.6214 328.686 74.609C327.787 74.584 326.536 74.572 324.945 74.572V79.572C326.521 79.572 327.718 79.584 328.547 79.607C328.965 79.6186 329.265 79.6324 329.465 79.6466C329.566 79.6538 329.617 79.6595 329.632 79.6615C329.692 79.6693 329.547 79.6571 329.338 79.5877L330.919 74.8443ZM324.945 74.572C321.681 74.572 316.71 74.8178 310.076 75.2985L310.437 80.2855C317.052 79.8062 321.872 79.572 324.945 79.572V74.572ZM310.112 75.2962C306.78 75.4894 304.151 75.7096 302.258 75.9619C301.318 76.0873 300.5 76.2282 299.843 76.3943C299.516 76.477 299.176 76.579 298.857 76.711C298.585 76.8238 298.107 77.046 297.689 77.4642L301.225 80.9998C300.95 81.274 300.711 81.3552 300.772 81.33C300.786 81.324 300.874 81.291 301.069 81.2417C301.456 81.1437 302.059 81.0327 302.919 80.9181C304.627 80.6904 307.11 80.4786 310.401 80.2878L310.112 75.2962ZM297.856 77.3114C297.448 77.6513 297.228 78.0385 297.121 78.2491C297.001 78.4872 296.919 78.7185 296.863 78.9046C296.749 79.2764 296.669 79.6903 296.607 80.097C296.481 80.9231 296.386 82.0184 296.313 83.3413C296.165 86.0038 296.093 89.8271 296.093 94.784H301.093C301.093 89.8529 301.165 86.1402 301.305 83.6187C301.375 82.3496 301.46 81.4409 301.55 80.851C301.596 80.5497 301.633 80.4026 301.646 80.3604C301.652 80.3395 301.636 80.4006 301.583 80.5052C301.544 80.5822 301.393 80.8726 301.057 81.1525L297.856 77.3114ZM296.094 94.8435L296.238 100.892L301.236 100.772L301.092 94.7245L296.094 94.8435ZM298.79 103.331C307.809 103.14 314.7 103.044 319.473 103.044V98.044C314.646 98.044 307.713 98.1405 298.684 98.3326L298.79 103.331ZM319.473 103.044C321.862 103.044 323.601 103.08 324.723 103.148C325.3 103.182 325.63 103.22 325.78 103.247C325.877 103.265 325.774 103.256 325.592 103.18C325.51 103.145 325.25 103.031 324.972 102.782C324.682 102.521 324.173 101.915 324.173 100.976H329.173C329.173 100.001 328.644 99.3601 328.317 99.0654C328.002 98.7822 327.686 98.636 327.528 98.5698C327.197 98.4305 326.869 98.3631 326.666 98.3265C326.216 98.2455 325.646 98.1939 325.023 98.1565C323.745 98.0798 321.884 98.044 319.473 98.044V103.044ZM324.173 100.976C324.173 104.196 323.184 107.714 321.034 111.566L325.4 114.002C327.858 109.598 329.173 105.244 329.173 100.976H324.173ZM321.011 111.608C320.638 112.307 320.372 112.761 320.201 113.017C320.109 113.155 320.094 113.16 320.147 113.103C320.171 113.077 320.276 112.966 320.454 112.845C320.547 112.781 320.697 112.69 320.898 112.61C321.099 112.531 321.401 112.444 321.777 112.444V117.444C322.537 117.444 323.071 117.112 323.271 116.976C323.515 116.809 323.694 116.631 323.802 116.515C324.023 116.278 324.213 116.013 324.361 115.791C324.67 115.327 325.028 114.701 325.423 113.96L321.011 111.608ZM321.777 112.444H320.337V117.444H321.777V112.444ZM320.337 112.444C317.156 112.444 312.8 112.691 307.302 113.174L307.739 118.154C313.186 117.677 317.373 117.444 320.337 117.444V112.444ZM307.302 113.174C304.556 113.415 302.423 113.634 300.926 113.834C300.184 113.933 299.553 114.033 299.064 114.136C298.824 114.187 298.564 114.25 298.32 114.332C298.198 114.372 298.037 114.432 297.865 114.516C297.722 114.586 297.413 114.748 297.113 115.048L300.649 118.584C300.384 118.848 300.132 118.973 300.066 119.006C299.97 119.052 299.906 119.074 299.901 119.075C299.891 119.079 299.945 119.061 300.102 119.028C300.405 118.963 300.889 118.883 301.587 118.79C302.971 118.606 305.014 118.393 307.739 118.154L307.302 113.174ZM297.113 115.048C296.776 115.386 296.616 115.737 296.56 115.867C296.486 116.037 296.441 116.188 296.415 116.286C296.361 116.485 296.328 116.679 296.306 116.829C296.261 117.138 296.226 117.517 296.198 117.932C296.14 118.774 296.094 119.962 296.058 121.472C295.985 124.503 295.949 128.955 295.949 134.816H300.949C300.949 128.965 300.985 124.561 301.056 121.592C301.092 120.102 301.136 119.004 301.186 118.274C301.211 117.903 301.236 117.674 301.253 117.555C301.263 117.49 301.262 117.514 301.242 117.587C301.233 117.623 301.205 117.723 301.149 117.852C301.11 117.942 300.968 118.264 300.649 118.584L297.113 115.048ZM295.949 134.816C295.949 146.497 296.559 154.811 297.923 159.428L302.718 158.012C301.587 154.181 300.949 146.559 300.949 134.816H295.949ZM297.821 158.72C297.821 157.881 298.481 157.79 297.776 158.151C297.17 158.462 296.054 158.818 294.263 159.139L295.146 164.061C297.099 163.71 298.791 163.25 300.058 162.601C301.224 162.002 302.821 160.807 302.821 158.72H297.821ZM294.19 159.154C290.651 159.899 287.664 160.252 285.201 160.252V165.252C288.114 165.252 291.462 164.837 295.22 164.046L294.19 159.154ZM397.641 151.808L395.716 150.213L395.714 150.216L397.641 151.808ZM354.873 105.296L353.034 103.602L353.033 103.603L354.873 105.296ZM381.945 94.352L382.049 91.8542L381.997 91.852H381.945V94.352ZM389.577 102.704L387.111 102.293L386.626 105.204H389.577V102.704ZM395.049 105.296L393.508 107.265L393.555 107.302L393.604 107.336L395.049 105.296ZM400.665 110.336L402.586 108.736L402.586 108.736L400.665 110.336ZM404.409 117.68L402.037 118.471L402.041 118.482L402.045 118.493L404.409 117.68ZM384.969 117.968L383.604 120.062L383.633 120.081L383.663 120.099L384.969 117.968ZM377.337 115.808L375.101 116.926L375.792 118.308H377.337V115.808ZM377.481 109.76L379.907 110.366L380.683 107.26H377.481V109.76ZM366.393 115.088L364.601 113.345L364.589 113.357L364.577 113.37L366.393 115.088ZM368.553 145.472L369.888 143.358L369.864 143.343L369.839 143.328L368.553 145.472ZM385.113 142.736L383.317 140.997L383.302 141.013L383.288 141.028L385.113 142.736ZM403.493 128.048C403.493 136.614 400.895 143.963 395.716 150.213L399.566 153.403C405.524 146.213 408.493 137.722 408.493 128.048H403.493ZM395.714 150.216C390.771 156.199 384.025 159.244 375.177 159.244V164.244C385.337 164.244 393.567 160.665 399.569 153.4L395.714 150.216ZM375.177 159.244C366.329 159.244 359.658 156.515 354.843 151.269L351.16 154.651C357.096 161.117 365.209 164.244 375.177 164.244V159.244ZM354.843 151.269C349.962 145.952 347.437 139.008 347.437 130.208H342.437C342.437 140.032 345.289 148.256 351.16 154.651L354.843 151.269ZM347.437 130.208C347.437 121.454 350.495 113.747 356.713 106.989L353.033 103.603C346.003 111.245 342.437 120.146 342.437 130.208H347.437ZM356.712 106.99C362.889 100.283 371.207 96.852 381.945 96.852V91.852C370.028 91.852 360.297 95.7172 353.034 103.602L356.712 106.99ZM381.841 96.8498C384.125 96.945 385.83 97.062 386.987 97.1955C387.571 97.263 387.956 97.3281 388.181 97.3806C388.295 97.4073 388.314 97.4182 388.272 97.4019C388.249 97.3928 388.183 97.3655 388.092 97.3133C388.007 97.2647 387.843 97.1617 387.665 96.9838L391.201 93.4482C390.788 93.0354 390.325 92.8368 390.108 92.7511C389.839 92.6448 389.563 92.5687 389.317 92.5114C388.822 92.3959 388.223 92.305 387.56 92.2285C386.221 92.074 384.373 91.951 382.049 91.8542L381.841 96.8498ZM387.665 96.9838C387.489 96.8077 387.417 96.6554 387.401 96.6183C387.383 96.5787 387.396 96.5967 387.419 96.703C387.465 96.9244 387.509 97.3224 387.509 97.952H392.509C392.509 97.1416 392.457 96.3636 392.312 95.673C392.179 95.0433 391.903 94.15 391.201 93.4482L387.665 96.9838ZM387.509 97.952C387.509 99.2286 387.381 100.673 387.111 102.293L392.043 103.115C392.349 101.279 392.509 99.5554 392.509 97.952H387.509ZM389.577 105.204C390.133 105.204 391.385 105.603 393.508 107.265L396.59 103.327C394.297 101.533 391.902 100.204 389.577 100.204V105.204ZM393.604 107.336C395.774 108.873 397.473 110.411 398.745 111.936L402.586 108.736C400.977 106.805 398.932 104.983 396.494 103.256L393.604 107.336ZM398.745 111.936C399.913 113.338 401.037 115.468 402.037 118.471L406.781 116.889C405.67 113.556 404.297 110.79 402.586 108.736L398.745 111.936ZM402.045 118.493C402.996 121.26 403.493 124.435 403.493 128.048H408.493C408.493 123.981 407.934 120.244 406.773 116.867L402.045 118.493ZM386.335 115.874C383.821 114.235 381.194 113.308 378.489 113.308V118.308C380.008 118.308 381.701 118.821 383.604 120.062L386.335 115.874ZM378.489 113.308H377.337V118.308H378.489V113.308ZM379.573 114.69C379.638 114.82 379.651 114.894 379.642 114.856C379.635 114.827 379.62 114.752 379.604 114.616C379.572 114.341 379.549 113.931 379.549 113.36H374.549C374.549 114.037 374.575 114.659 374.638 115.2C374.695 115.683 374.806 116.335 375.101 116.926L379.573 114.69ZM379.549 113.36C379.549 112.306 379.671 111.31 379.907 110.366L375.056 109.154C374.716 110.514 374.549 111.918 374.549 113.36H379.549ZM377.481 107.26C372.705 107.26 368.399 109.442 364.601 113.345L368.185 116.831C371.299 113.63 374.385 112.26 377.481 112.26V107.26ZM364.577 113.37C360.66 117.511 358.853 123.141 358.853 129.92H363.853C363.853 124.027 365.407 119.769 368.209 116.806L364.577 113.37ZM358.853 129.92C358.853 137.951 361.465 144.135 367.267 147.616L369.839 143.328C366.041 141.049 363.853 136.865 363.853 129.92H358.853ZM367.218 147.586C369.587 149.082 372.609 149.7 376.041 149.7V144.7C373.137 144.7 371.167 144.166 369.888 143.358L367.218 147.586ZM376.041 149.7C380.162 149.7 383.808 147.791 386.939 144.444L383.288 141.028C380.851 143.633 378.449 144.7 376.041 144.7V149.7ZM386.91 144.475C390.399 140.869 391.933 135.723 391.933 129.488H386.933C386.933 134.965 385.587 138.651 383.317 140.997L386.91 144.475ZM391.933 129.488C391.933 123.366 390.393 118.36 386.276 115.836L383.663 120.099C385.498 121.224 386.933 123.898 386.933 129.488H391.933ZM467.391 151.808L465.466 150.213L465.464 150.216L467.391 151.808ZM424.623 105.296L422.784 103.602L422.783 103.603L424.623 105.296ZM451.695 94.352L451.799 91.8542L451.747 91.852H451.695V94.352ZM459.327 102.704L456.861 102.293L456.376 105.204H459.327V102.704ZM464.799 105.296L463.258 107.265L463.305 107.302L463.354 107.336L464.799 105.296ZM470.415 110.336L472.336 108.736L472.336 108.736L470.415 110.336ZM474.159 117.68L471.787 118.471L471.791 118.482L471.795 118.493L474.159 117.68ZM454.719 117.968L453.354 120.062L453.383 120.081L453.413 120.099L454.719 117.968ZM447.087 115.808L444.851 116.926L445.542 118.308H447.087V115.808ZM447.231 109.76L449.657 110.366L450.433 107.26H447.231V109.76ZM436.143 115.088L434.351 113.345L434.339 113.357L434.327 113.37L436.143 115.088ZM438.303 145.472L439.638 143.358L439.614 143.343L439.589 143.328L438.303 145.472ZM454.863 142.736L453.067 140.997L453.052 141.013L453.038 141.028L454.863 142.736ZM473.243 128.048C473.243 136.614 470.645 143.963 465.466 150.213L469.316 153.403C475.274 146.213 478.243 137.722 478.243 128.048H473.243ZM465.464 150.216C460.521 156.199 453.775 159.244 444.927 159.244V164.244C455.087 164.244 463.317 160.665 469.319 153.4L465.464 150.216ZM444.927 159.244C436.079 159.244 429.408 156.515 424.593 151.269L420.91 154.651C426.846 161.117 434.959 164.244 444.927 164.244V159.244ZM424.593 151.269C419.712 145.952 417.187 139.008 417.187 130.208H412.187C412.187 140.032 415.039 148.256 420.91 154.651L424.593 151.269ZM417.187 130.208C417.187 121.454 420.245 113.747 426.463 106.989L422.783 103.603C415.753 111.245 412.187 120.146 412.187 130.208H417.187ZM426.462 106.99C432.639 100.283 440.957 96.852 451.695 96.852V91.852C439.778 91.852 430.047 95.7172 422.784 103.602L426.462 106.99ZM451.591 96.8498C453.875 96.945 455.58 97.062 456.737 97.1955C457.321 97.263 457.706 97.3281 457.931 97.3806C458.045 97.4073 458.064 97.4182 458.022 97.4019C457.999 97.3928 457.933 97.3655 457.842 97.3133C457.757 97.2647 457.593 97.1617 457.415 96.9838L460.951 93.4482C460.538 93.0354 460.075 92.8368 459.858 92.7511C459.589 92.6448 459.313 92.5687 459.067 92.5114C458.572 92.3959 457.973 92.305 457.31 92.2285C455.971 92.074 454.123 91.951 451.799 91.8542L451.591 96.8498ZM457.415 96.9838C457.239 96.8077 457.167 96.6554 457.151 96.6183C457.133 96.5787 457.146 96.5967 457.169 96.703C457.215 96.9244 457.259 97.3224 457.259 97.952H462.259C462.259 97.1416 462.207 96.3636 462.062 95.673C461.929 95.0433 461.653 94.15 460.951 93.4482L457.415 96.9838ZM457.259 97.952C457.259 99.2286 457.131 100.673 456.861 102.293L461.793 103.115C462.099 101.279 462.259 99.5554 462.259 97.952H457.259ZM459.327 105.204C459.883 105.204 461.135 105.603 463.258 107.265L466.34 103.327C464.047 101.533 461.652 100.204 459.327 100.204V105.204ZM463.354 107.336C465.524 108.873 467.223 110.411 468.495 111.936L472.336 108.736C470.727 106.805 468.682 104.983 466.244 103.256L463.354 107.336ZM468.495 111.936C469.663 113.338 470.787 115.468 471.787 118.471L476.531 116.889C475.42 113.556 474.047 110.79 472.336 108.736L468.495 111.936ZM471.795 118.493C472.746 121.26 473.243 124.435 473.243 128.048H478.243C478.243 123.981 477.684 120.244 476.523 116.867L471.795 118.493ZM456.085 115.874C453.571 114.235 450.944 113.308 448.239 113.308V118.308C449.758 118.308 451.451 118.821 453.354 120.062L456.085 115.874ZM448.239 113.308H447.087V118.308H448.239V113.308ZM449.323 114.69C449.388 114.82 449.401 114.894 449.392 114.856C449.385 114.827 449.37 114.752 449.354 114.616C449.322 114.341 449.299 113.931 449.299 113.36H444.299C444.299 114.037 444.325 114.659 444.388 115.2C444.445 115.683 444.556 116.335 444.851 116.926L449.323 114.69ZM449.299 113.36C449.299 112.306 449.421 111.31 449.657 110.366L444.806 109.154C444.466 110.514 444.299 111.918 444.299 113.36H449.299ZM447.231 107.26C442.455 107.26 438.149 109.442 434.351 113.345L437.935 116.831C441.049 113.63 444.135 112.26 447.231 112.26V107.26ZM434.327 113.37C430.41 117.511 428.603 123.141 428.603 129.92H433.603C433.603 124.027 435.157 119.769 437.959 116.806L434.327 113.37ZM428.603 129.92C428.603 137.951 431.215 144.135 437.017 147.616L439.589 143.328C435.791 141.049 433.603 136.865 433.603 129.92H428.603ZM436.968 147.586C439.337 149.082 442.359 149.7 445.791 149.7V144.7C442.887 144.7 440.917 144.166 439.638 143.358L436.968 147.586ZM445.791 149.7C449.912 149.7 453.558 147.791 456.689 144.444L453.038 141.028C450.601 143.633 448.199 144.7 445.791 144.7V149.7ZM456.66 144.475C460.149 140.869 461.683 135.723 461.683 129.488H456.683C456.683 134.965 455.337 138.651 453.067 140.997L456.66 144.475ZM461.683 129.488C461.683 123.366 460.143 118.36 456.026 115.836L453.413 120.099C455.248 121.224 456.683 123.898 456.683 129.488H461.683ZM523.317 96.224L523.394 98.7228L525.85 98.6472L525.817 96.1902L523.317 96.224ZM523.029 74.912H520.529V74.9289L520.529 74.9458L523.029 74.912ZM523.461 65.552L525.229 67.3198L525.229 67.3198L523.461 65.552ZM529.077 62.24L530.02 64.5552L530.041 64.5467L530.062 64.5379L529.077 62.24ZM540.309 61.088L542.806 61.2083L542.809 61.1482V61.088H540.309ZM540.021 144.032L542.5 143.711L542.495 143.666L542.487 143.621L540.021 144.032ZM544.773 155.552H547.273V154.516L546.541 153.784L544.773 155.552ZM538.725 160.016L537.607 157.78L537.575 157.796L537.543 157.813L538.725 160.016ZM527.349 162.032L529.349 160.532L529.344 160.526L529.34 160.519L527.349 162.032ZM524.037 152.24H521.537V152.356L521.548 152.472L524.037 152.24ZM523.749 151.808V149.308H522.992L522.362 149.728L523.749 151.808ZM523.317 152.096L521.93 150.016L521.539 150.277L521.269 150.662L523.317 152.096ZM490.053 153.104L492.067 151.622L492.067 151.622L490.053 153.104ZM494.517 108.32L496.388 109.978L496.393 109.972L496.399 109.966L494.517 108.32ZM523.605 111.344L526.097 111.552L526.105 111.448V111.344H523.605ZM506.901 116.96L505.045 115.285L505.034 115.298L505.023 115.31L506.901 116.96ZM504.165 140.72L502.125 142.165L502.16 142.214L502.196 142.261L504.165 140.72ZM520.005 139.568L517.966 138.121L517.951 138.143L517.935 138.166L520.005 139.568ZM525.817 96.1902L525.529 74.8782L520.529 74.9458L520.817 96.2578L525.817 96.1902ZM525.529 74.912C525.529 71.9467 525.565 69.7246 525.635 68.2233C525.67 67.4655 525.711 66.9404 525.752 66.6134C525.774 66.4439 525.788 66.3887 525.784 66.406C525.782 66.4139 525.762 66.4927 525.713 66.6084C525.681 66.685 525.547 67.0017 525.229 67.3198L521.693 63.7842C521.339 64.1383 521.17 64.5131 521.104 64.67C521.022 64.8659 520.97 65.0471 520.936 65.1795C520.869 65.4458 520.825 65.7281 520.792 65.9846C520.725 66.5096 520.677 67.1905 520.64 67.9927C520.565 69.6113 520.529 71.9253 520.529 74.912H525.529ZM525.229 67.3198C526.034 66.5146 527.547 65.5629 530.02 64.5552L528.134 59.9248C525.423 61.0291 523.192 62.2854 521.693 63.7842L525.229 67.3198ZM530.062 64.5379C532.505 63.4908 534.713 63.012 536.709 63.012V58.012C533.905 58.012 531.025 58.6852 528.092 59.9421L530.062 64.5379ZM536.709 63.012C537.878 63.012 538.617 63.061 539.014 63.1246C539.238 63.1604 539.18 63.175 539.002 63.0898C538.909 63.0452 538.649 62.9102 538.388 62.618C538.092 62.2859 537.809 61.7582 537.809 61.088H542.809C542.809 59.4623 541.513 58.7488 541.166 58.5822C540.688 58.353 540.18 58.2476 539.804 58.1874C539.002 58.059 537.94 58.012 536.709 58.012V63.012ZM537.812 60.9677C537.042 76.9483 536.657 93.9327 536.657 111.92H541.657C541.657 94.0033 542.04 77.0997 542.806 61.2083L537.812 60.9677ZM536.657 111.92C536.657 120.906 536.729 128.095 536.874 133.479C537.017 138.8 537.234 142.515 537.555 144.443L542.487 143.621C542.233 142.093 542.017 138.728 541.872 133.345C541.729 128.025 541.657 120.886 541.657 111.92H536.657ZM537.542 144.353C538.252 149.833 539.971 154.285 543.005 157.32L546.541 153.784C544.583 151.827 543.134 148.599 542.5 143.711L537.542 144.353ZM542.273 155.552C542.273 154.939 542.571 154.654 542.465 154.782C542.397 154.865 542.199 155.065 541.777 155.377C540.941 155.993 539.579 156.794 537.607 157.78L539.843 162.252C541.903 161.222 543.565 160.271 544.746 159.399C545.331 158.967 545.89 158.489 546.325 157.96C546.724 157.476 547.273 156.645 547.273 155.552H542.273ZM537.543 157.813C533.774 159.836 530.84 160.684 528.645 160.684V165.684C532.019 165.684 535.805 164.42 539.907 162.219L537.543 157.813ZM528.645 160.684C529.119 160.684 529.448 160.837 529.579 160.906C529.718 160.981 529.782 161.042 529.766 161.027C529.757 161.019 529.713 160.979 529.636 160.89C529.56 160.803 529.465 160.686 529.349 160.532L525.349 163.532C525.681 163.975 526.048 164.413 526.444 164.765C526.725 165.014 527.514 165.684 528.645 165.684V160.684ZM529.34 160.519C527.886 158.606 526.883 155.839 526.526 152.008L521.548 152.472C521.96 156.897 523.165 160.658 525.359 163.545L529.34 160.519ZM526.537 152.24C526.537 151.897 526.494 151.203 526.045 150.529C525.477 149.677 524.573 149.308 523.749 149.308V154.308C523.483 154.308 523.129 154.257 522.757 154.071C522.375 153.88 522.084 153.601 521.885 153.303C521.532 152.773 521.537 152.295 521.537 152.24H526.537ZM522.362 149.728L521.93 150.016L524.704 154.176L525.136 153.888L522.362 149.728ZM521.269 150.662C517.773 155.657 512.595 158.236 505.317 158.236V163.236C513.975 163.236 520.798 160.055 525.365 153.53L521.269 150.662ZM505.317 158.236C499.663 158.236 495.33 156.056 492.067 151.622L488.04 154.586C492.265 160.328 498.107 163.236 505.317 163.236V158.236ZM492.067 151.622C488.64 146.965 486.937 141.773 486.937 135.968H481.937C481.937 142.835 483.979 149.067 488.04 154.586L492.067 151.622ZM486.937 135.968C486.937 125.684 490.104 117.071 496.388 109.978L492.646 106.662C485.491 114.737 481.937 124.556 481.937 135.968H486.937ZM496.399 109.966C502.562 102.922 511.441 99.0906 523.394 98.7228L523.24 93.7252C510.233 94.1254 499.912 98.3577 492.636 106.674L496.399 109.966ZM526.105 111.344C526.105 109.933 525.082 109.23 524.703 109.023C524.288 108.797 523.879 108.709 523.656 108.668C523.164 108.579 522.585 108.556 522.021 108.556V113.556C522.25 113.556 522.429 113.561 522.563 113.569C522.704 113.578 522.762 113.588 522.762 113.588C522.76 113.587 522.721 113.58 522.657 113.561C522.6 113.544 522.47 113.501 522.309 113.413C522.157 113.33 521.875 113.152 521.615 112.821C521.326 112.454 521.105 111.944 521.105 111.344H526.105ZM522.021 108.556H521.445V113.556H522.021V108.556ZM521.445 108.556C514.717 108.556 509.148 110.739 505.045 115.285L508.757 118.635C511.758 115.309 515.885 113.556 521.445 113.556V108.556ZM505.023 115.31C501.105 119.772 499.217 125.381 499.217 131.936H504.217C504.217 126.395 505.786 122.02 508.78 118.609L505.023 115.31ZM499.217 131.936C499.217 135.871 500.125 139.341 502.125 142.165L506.205 139.275C504.942 137.491 504.217 135.105 504.217 131.936H499.217ZM502.196 142.261C504.494 145.197 507.839 146.532 511.797 146.532V141.532C509.036 141.532 507.292 140.659 506.134 139.179L502.196 142.261ZM511.797 146.532C516.121 146.532 519.616 144.6 522.075 140.97L517.935 138.166C516.362 140.488 514.385 141.532 511.797 141.532V146.532ZM522.044 141.015C524.186 137.996 525.673 135.084 525.673 132.512H520.673C520.673 133.396 520.048 135.188 517.966 138.121L522.044 141.015ZM525.673 132.512C525.673 121.837 525.819 114.886 526.097 111.552L521.114 111.136C520.816 114.714 520.673 121.875 520.673 132.512H525.673Z" fill="black"/>
</g>
<defs>
<filter id="filter0_d" x="0.259995" y="0.5" width="567.013" height="190.8" filterUnits="userSpaceOnUse" color-interpolation-filters="sRGB">
<feFlood flood-opacity="0" result="BackgroundImageFix"/>
<feColorMatrix in="SourceAlpha" type="matrix" values="0 0 0 0 0 0 0 0 0 0 0 0 0 0 0 0 0 0 127 0"/>
<feOffset/>
<feGaussianBlur stdDeviation="10"/>
<feColorMatrix type="matrix" values="0 0 0 0 0.330394 0 0 0 0 0.0728247 0 0 0 0 0.877729 0 0 0 1 0"/>
<feBlend mode="normal" in2="BackgroundImageFix" result="effect1_dropShadow"/>
<feBlend mode="normal" in="SourceGraphic" in2="effect1_dropShadow" result="shape"/>
</filter>
</defs>
</svg>
