<svg width="195" height="96" viewBox="0 0 195 96" fill="none" xmlns="http://www.w3.org/2000/svg">
<rect x="1" y="1" width="72" height="72" stroke="#61AE56" stroke-width="2"/>
<path d="M41.2291 24.8V50H34.1011V30.308H29.4211V24.8H41.2291Z" fill="#61AE56"/>
<path d="M69.5 52V66H66.28V54.64H59.96V66H56.74V52H69.5ZM83.0505 55.24V66H79.9305V57.8H76.5305L76.4305 59.7C76.3771 61.1133 76.2438 62.2867 76.0305 63.22C75.8171 64.1533 75.4705 64.8867 74.9905 65.42C74.5105 65.9533 73.8438 66.22 72.9905 66.22C72.5371 66.22 71.9971 66.14 71.3705 65.98L71.5305 63.42C71.7438 63.4467 71.8971 63.46 71.9905 63.46C72.4571 63.46 72.8038 63.2933 73.0305 62.96C73.2705 62.6133 73.4305 62.18 73.5105 61.66C73.5905 61.1267 73.6505 60.4267 73.6905 59.56L73.8505 55.24H83.0505ZM90.2308 55.08C91.8974 55.08 93.1774 55.48 94.0708 56.28C94.9641 57.0667 95.4108 58.26 95.4108 59.86V66H92.4908V64.66C91.9041 65.66 90.8108 66.16 89.2108 66.16C88.3841 66.16 87.6641 66.02 87.0508 65.74C86.4508 65.46 85.9908 65.0733 85.6708 64.58C85.3508 64.0867 85.1908 63.5267 85.1908 62.9C85.1908 61.9 85.5641 61.1133 86.3108 60.54C87.0708 59.9667 88.2374 59.68 89.8108 59.68H92.2908C92.2908 59 92.0841 58.48 91.6708 58.12C91.2574 57.7467 90.6374 57.56 89.8108 57.56C89.2374 57.56 88.6708 57.6533 88.1108 57.84C87.5641 58.0133 87.0974 58.2533 86.7108 58.56L85.5908 56.38C86.1774 55.9667 86.8774 55.6467 87.6908 55.42C88.5174 55.1933 89.3641 55.08 90.2308 55.08ZM89.9908 64.06C90.5241 64.06 90.9974 63.94 91.4108 63.7C91.8241 63.4467 92.1174 63.08 92.2908 62.6V61.5H90.1508C88.8708 61.5 88.2308 61.92 88.2308 62.76C88.2308 63.16 88.3841 63.48 88.6908 63.72C89.0108 63.9467 89.4441 64.06 89.9908 64.06ZM98.1211 55.24H101.221V59.44H105.901V55.24H109.021V66H105.901V61.98H101.221V66H98.1211V55.24ZM112.008 55.24H115.108V61.64L120.348 55.24H123.208V66H120.108V59.6L114.888 66H112.008V55.24ZM132.547 55.08C133.547 55.08 134.454 55.3133 135.267 55.78C136.094 56.2333 136.74 56.88 137.207 57.72C137.674 58.5467 137.907 59.5133 137.907 60.62C137.907 61.7267 137.674 62.7 137.207 63.54C136.74 64.3667 136.094 65.0133 135.267 65.48C134.454 65.9333 133.547 66.16 132.547 66.16C131.174 66.16 130.094 65.7267 129.307 64.86V69.88H126.187V55.24H129.167V56.48C129.94 55.5467 131.067 55.08 132.547 55.08ZM132.007 63.6C132.807 63.6 133.46 63.3333 133.967 62.8C134.487 62.2533 134.747 61.5267 134.747 60.62C134.747 59.7133 134.487 58.9933 133.967 58.46C133.46 57.9133 132.807 57.64 132.007 57.64C131.207 57.64 130.547 57.9133 130.027 58.46C129.52 58.9933 129.267 59.7133 129.267 60.62C129.267 61.5267 129.52 62.2533 130.027 62.8C130.547 63.3333 131.207 63.6 132.007 63.6ZM145.134 66.16C144 66.16 142.98 65.9267 142.074 65.46C141.18 64.98 140.48 64.32 139.974 63.48C139.467 62.64 139.214 61.6867 139.214 60.62C139.214 59.5533 139.467 58.6 139.974 57.76C140.48 56.92 141.18 56.2667 142.074 55.8C142.98 55.32 144 55.08 145.134 55.08C146.267 55.08 147.28 55.32 148.174 55.8C149.067 56.2667 149.767 56.92 150.274 57.76C150.78 58.6 151.034 59.5533 151.034 60.62C151.034 61.6867 150.78 62.64 150.274 63.48C149.767 64.32 149.067 64.98 148.174 65.46C147.28 65.9267 146.267 66.16 145.134 66.16ZM145.134 63.6C145.934 63.6 146.587 63.3333 147.094 62.8C147.614 62.2533 147.874 61.5267 147.874 60.62C147.874 59.7133 147.614 58.9933 147.094 58.46C146.587 57.9133 145.934 57.64 145.134 57.64C144.334 57.64 143.674 57.9133 143.154 58.46C142.634 58.9933 142.374 59.7133 142.374 60.62C142.374 61.5267 142.634 62.2533 143.154 62.8C143.674 63.3333 144.334 63.6 145.134 63.6ZM161.4 60.38C162.666 60.8067 163.3 61.66 163.3 62.94C163.3 63.9133 162.933 64.6667 162.2 65.2C161.466 65.7333 160.373 66 158.92 66H153.18V55.24H158.68C160.026 55.24 161.08 55.4867 161.84 55.98C162.6 56.46 162.98 57.14 162.98 58.02C162.98 58.5533 162.84 59.0267 162.56 59.44C162.293 59.84 161.906 60.1533 161.4 60.38ZM156.04 59.66H158.4C159.493 59.66 160.04 59.2733 160.04 58.5C160.04 57.74 159.493 57.36 158.4 57.36H156.04V59.66ZM158.66 63.88C159.806 63.88 160.38 63.4867 160.38 62.7C160.38 62.2867 160.246 61.9867 159.98 61.8C159.713 61.6 159.293 61.5 158.72 61.5H156.04V63.88H158.66ZM170.361 61.92H168.741V66H165.621V55.24H168.741V59.42H170.421L173.341 55.24H176.661L172.901 60.4L176.921 66H173.241L170.361 61.92ZM182.438 55.08C184.104 55.08 185.384 55.48 186.278 56.28C187.171 57.0667 187.618 58.26 187.618 59.86V66H184.698V64.66C184.111 65.66 183.018 66.16 181.418 66.16C180.591 66.16 179.871 66.02 179.258 65.74C178.658 65.46 178.198 65.0733 177.878 64.58C177.558 64.0867 177.398 63.5267 177.398 62.9C177.398 61.9 177.771 61.1133 178.518 60.54C179.278 59.9667 180.444 59.68 182.018 59.68H184.498C184.498 59 184.291 58.48 183.878 58.12C183.464 57.7467 182.844 57.56 182.018 57.56C181.444 57.56 180.878 57.6533 180.318 57.84C179.771 58.0133 179.304 58.2533 178.918 58.56L177.798 56.38C178.384 55.9667 179.084 55.6467 179.898 55.42C180.724 55.1933 181.571 55.08 182.438 55.08ZM182.198 64.06C182.731 64.06 183.204 63.94 183.618 63.7C184.031 63.4467 184.324 63.08 184.498 62.6V61.5H182.358C181.078 61.5 180.438 61.92 180.438 62.76C180.438 63.16 180.591 63.48 180.898 63.72C181.218 63.9467 181.651 64.06 182.198 64.06ZM67.28 80.24L62.42 91.66C61.9267 92.9 61.3133 93.7733 60.58 94.28C59.86 94.7867 58.9867 95.04 57.96 95.04C57.4 95.04 56.8467 94.9533 56.3 94.78C55.7533 94.6067 55.3067 94.3667 54.96 94.06L56.1 91.84C56.34 92.0533 56.6133 92.22 56.92 92.34C57.24 92.46 57.5533 92.52 57.86 92.52C58.2867 92.52 58.6333 92.4133 58.9 92.2C59.1667 92 59.4067 91.66 59.62 91.18L59.66 91.08L55 80.24H58.22L61.24 87.54L64.28 80.24H67.28ZM78.4652 80.24V91H75.3452V87C74.4385 87.4533 73.4385 87.68 72.3452 87.68C70.8918 87.68 69.7918 87.3533 69.0452 86.7C68.3118 86.0333 67.9452 85.0067 67.9452 83.62V80.24H71.0652V83.42C71.0652 84.0733 71.2318 84.5467 71.5652 84.84C71.9118 85.1333 72.4052 85.28 73.0452 85.28C73.8585 85.28 74.6252 85.1067 75.3452 84.76V80.24H78.4652ZM85.6409 80.08C87.3076 80.08 88.5876 80.48 89.4809 81.28C90.3743 82.0667 90.8209 83.26 90.8209 84.86V91H87.9009V89.66C87.3143 90.66 86.2209 91.16 84.6209 91.16C83.7943 91.16 83.0743 91.02 82.4609 90.74C81.8609 90.46 81.4009 90.0733 81.0809 89.58C80.7609 89.0867 80.6009 88.5267 80.6009 87.9C80.6009 86.9 80.9743 86.1133 81.7209 85.54C82.4809 84.9667 83.6476 84.68 85.2209 84.68H87.7009C87.7009 84 87.4943 83.48 87.0809 83.12C86.6676 82.7467 86.0476 82.56 85.2209 82.56C84.6476 82.56 84.0809 82.6533 83.5209 82.84C82.9743 83.0133 82.5076 83.2533 82.1209 83.56L81.0009 81.38C81.5876 80.9667 82.2876 80.6467 83.1009 80.42C83.9276 80.1933 84.7743 80.08 85.6409 80.08ZM85.4009 89.06C85.9343 89.06 86.4076 88.94 86.8209 88.7C87.2343 88.4467 87.5276 88.08 87.7009 87.6V86.5H85.5609C84.2809 86.5 83.6409 86.92 83.6409 87.76C83.6409 88.16 83.7943 88.48 84.1009 88.72C84.4209 88.9467 84.8543 89.06 85.4009 89.06ZM98.6513 91.16C97.5046 91.16 96.4713 90.9267 95.5513 90.46C94.6446 89.98 93.9313 89.32 93.4113 88.48C92.9046 87.64 92.6513 86.6867 92.6513 85.62C92.6513 84.5533 92.9046 83.6 93.4113 82.76C93.9313 81.92 94.6446 81.2667 95.5513 80.8C96.4713 80.32 97.5046 80.08 98.6513 80.08C99.7846 80.08 100.771 80.32 101.611 80.8C102.465 81.2667 103.085 81.94 103.471 82.82L101.051 84.12C100.491 83.1333 99.6846 82.64 98.6313 82.64C97.8179 82.64 97.1446 82.9067 96.6113 83.44C96.0779 83.9733 95.8113 84.7 95.8113 85.62C95.8113 86.54 96.0779 87.2667 96.6113 87.8C97.1446 88.3333 97.8179 88.6 98.6313 88.6C99.6979 88.6 100.505 88.1067 101.051 87.12L103.471 88.44C103.085 89.2933 102.465 89.96 101.611 90.44C100.771 90.92 99.7846 91.16 98.6513 91.16ZM114.368 82.8H110.728V91H107.628V82.8H103.988V80.24H114.368V82.8ZM120.771 86.92H119.151V91H116.031V80.24H119.151V84.42H120.831L123.751 80.24H127.071L123.311 85.4L127.331 91H123.651L120.771 86.92ZM132.848 80.08C134.515 80.08 135.795 80.48 136.688 81.28C137.581 82.0667 138.028 83.26 138.028 84.86V91H135.108V89.66C134.521 90.66 133.428 91.16 131.828 91.16C131.001 91.16 130.281 91.02 129.668 90.74C129.068 90.46 128.608 90.0733 128.288 89.58C127.968 89.0867 127.808 88.5267 127.808 87.9C127.808 86.9 128.181 86.1133 128.928 85.54C129.688 84.9667 130.855 84.68 132.428 84.68H134.908C134.908 84 134.701 83.48 134.288 83.12C133.875 82.7467 133.255 82.56 132.428 82.56C131.855 82.56 131.288 82.6533 130.728 82.84C130.181 83.0133 129.715 83.2533 129.328 83.56L128.208 81.38C128.795 80.9667 129.495 80.6467 130.308 80.42C131.135 80.1933 131.981 80.08 132.848 80.08ZM132.608 89.06C133.141 89.06 133.615 88.94 134.028 88.7C134.441 88.4467 134.735 88.08 134.908 87.6V86.5H132.768C131.488 86.5 130.848 86.92 130.848 87.76C130.848 88.16 131.001 88.48 131.308 88.72C131.628 88.9467 132.061 89.06 132.608 89.06Z" fill="#141415"/>
</svg>
