<svg width="226" height="98" viewBox="0 0 226 98" fill="none" xmlns="http://www.w3.org/2000/svg">
<rect x="1" y="1" width="72" height="72" stroke="#61AE56" stroke-width="2"/>
<path d="M29.4068 24.8V50H22.2788V30.308H17.5988V24.8H29.4068ZM44.3207 50.504C42.1607 50.504 40.2407 49.988 38.5607 48.956C36.8807 47.924 35.5607 46.424 34.6007 44.456C33.6647 42.464 33.1967 40.112 33.1967 37.4C33.1967 34.688 33.6647 32.348 34.6007 30.38C35.5607 28.388 36.8807 26.876 38.5607 25.844C40.2407 24.812 42.1607 24.296 44.3207 24.296C46.4567 24.296 48.3647 24.812 50.0447 25.844C51.7247 26.876 53.0327 28.388 53.9687 30.38C54.9287 32.348 55.4087 34.688 55.4087 37.4C55.4087 40.112 54.9287 42.464 53.9687 44.456C53.0327 46.424 51.7247 47.924 50.0447 48.956C48.3647 49.988 46.4567 50.504 44.3207 50.504ZM44.3207 44.672C45.5207 44.672 46.4687 44.096 47.1647 42.944C47.8847 41.768 48.2447 39.92 48.2447 37.4C48.2447 34.88 47.8847 33.044 47.1647 31.892C46.4687 30.716 45.5207 30.128 44.3207 30.128C43.0967 30.128 42.1247 30.716 41.4047 31.892C40.7087 33.044 40.3607 34.88 40.3607 37.4C40.3607 39.92 40.7087 41.768 41.4047 42.944C42.1247 44.096 43.0967 44.672 44.3207 44.672Z" fill="#61AE56"/>
<path d="M60.22 53.76C61.6067 53.76 62.8467 54.0733 63.94 54.7C65.0467 55.3133 65.9133 56.1733 66.54 57.28C67.1667 58.3733 67.48 59.6133 67.48 61C67.48 62.3867 67.1667 63.6333 66.54 64.74C65.9133 65.8333 65.0467 66.6933 63.94 67.32C62.8467 67.9333 61.6067 68.24 60.22 68.24C58.98 68.24 57.86 68.0267 56.86 67.6C55.8733 67.1733 55.0467 66.5533 54.38 65.74L56.44 63.82C57.4267 64.9267 58.6333 65.48 60.06 65.48C61.0867 65.48 61.9533 65.18 62.66 64.58C63.38 63.98 63.8467 63.1733 64.06 62.16H58.38V59.68H64.02C63.7933 58.72 63.3267 57.9533 62.62 57.38C61.9133 56.8067 61.06 56.52 60.06 56.52C58.6333 56.52 57.4267 57.0733 56.44 58.18L54.38 56.26C55.0467 55.4467 55.8733 54.8267 56.86 54.4C57.86 53.9733 58.98 53.76 60.22 53.76ZM79.7458 57.24V68H76.6258V59.8H73.2258L73.1258 61.7C73.0724 63.1133 72.9391 64.2867 72.7258 65.22C72.5124 66.1533 72.1658 66.8867 71.6858 67.42C71.2058 67.9533 70.5391 68.22 69.6858 68.22C69.2324 68.22 68.6924 68.14 68.0658 67.98L68.2258 65.42C68.4391 65.4467 68.5924 65.46 68.6858 65.46C69.1524 65.46 69.4991 65.2933 69.7258 64.96C69.9658 64.6133 70.1258 64.18 70.2058 63.66C70.2858 63.1267 70.3458 62.4267 70.3858 61.56L70.5458 57.24H79.7458ZM93.2061 62.66C93.2061 62.7 93.1861 62.98 93.1461 63.5H85.0061C85.1528 64.1667 85.4994 64.6933 86.0461 65.08C86.5928 65.4667 87.2728 65.66 88.0861 65.66C88.6461 65.66 89.1394 65.58 89.5661 65.42C90.0061 65.2467 90.4128 64.98 90.7861 64.62L92.4461 66.42C91.4328 67.58 89.9528 68.16 88.0061 68.16C86.7928 68.16 85.7194 67.9267 84.7861 67.46C83.8528 66.98 83.1328 66.32 82.6261 65.48C82.1194 64.64 81.8661 63.6867 81.8661 62.62C81.8661 61.5667 82.1128 60.62 82.6061 59.78C83.1128 58.9267 83.7994 58.2667 84.6661 57.8C85.5461 57.32 86.5261 57.08 87.6061 57.08C88.6594 57.08 89.6128 57.3067 90.4661 57.76C91.3194 58.2133 91.9861 58.8667 92.4661 59.72C92.9594 60.56 93.2061 61.54 93.2061 62.66ZM87.6261 59.44C86.9194 59.44 86.3261 59.64 85.8461 60.04C85.3661 60.44 85.0728 60.9867 84.9661 61.68H90.2661C90.1594 61 89.8661 60.46 89.3861 60.06C88.9061 59.6467 88.3194 59.44 87.6261 59.44ZM100.338 63.92H98.7177V68H95.5977V57.24H98.7177V61.42H100.398L103.318 57.24H106.638L102.878 62.4L106.898 68H103.218L100.338 63.92ZM117.372 59.8H113.732V68H110.632V59.8H106.992V57.24H117.372V59.8ZM125.375 57.08C126.375 57.08 127.282 57.3133 128.095 57.78C128.922 58.2333 129.568 58.88 130.035 59.72C130.502 60.5467 130.735 61.5133 130.735 62.62C130.735 63.7267 130.502 64.7 130.035 65.54C129.568 66.3667 128.922 67.0133 128.095 67.48C127.282 67.9333 126.375 68.16 125.375 68.16C124.002 68.16 122.922 67.7267 122.135 66.86V71.88H119.015V57.24H121.995V58.48C122.768 57.5467 123.895 57.08 125.375 57.08ZM124.835 65.6C125.635 65.6 126.288 65.3333 126.795 64.8C127.315 64.2533 127.575 63.5267 127.575 62.62C127.575 61.7133 127.315 60.9933 126.795 60.46C126.288 59.9133 125.635 59.64 124.835 59.64C124.035 59.64 123.375 59.9133 122.855 60.46C122.348 60.9933 122.095 61.7133 122.095 62.62C122.095 63.5267 122.348 64.2533 122.855 64.8C123.375 65.3333 124.035 65.6 124.835 65.6ZM132.922 57.24H136.022V63.64L141.262 57.24H144.122V68H141.022V61.6L135.802 68H132.922V57.24ZM156.801 57.24V68H153.681V64C152.774 64.4533 151.774 64.68 150.681 64.68C149.228 64.68 148.128 64.3533 147.381 63.7C146.648 63.0333 146.281 62.0067 146.281 60.62V57.24H149.401V60.42C149.401 61.0733 149.568 61.5467 149.901 61.84C150.248 62.1333 150.741 62.28 151.381 62.28C152.194 62.28 152.961 62.1067 153.681 61.76V57.24H156.801ZM170.257 62.66C170.257 62.7 170.237 62.98 170.197 63.5H162.057C162.204 64.1667 162.55 64.6933 163.097 65.08C163.644 65.4667 164.324 65.66 165.137 65.66C165.697 65.66 166.19 65.58 166.617 65.42C167.057 65.2467 167.464 64.98 167.837 64.62L169.497 66.42C168.484 67.58 167.004 68.16 165.057 68.16C163.844 68.16 162.77 67.9267 161.837 67.46C160.904 66.98 160.184 66.32 159.677 65.48C159.17 64.64 158.917 63.6867 158.917 62.62C158.917 61.5667 159.164 60.62 159.657 59.78C160.164 58.9267 160.85 58.2667 161.717 57.8C162.597 57.32 163.577 57.08 164.657 57.08C165.71 57.08 166.664 57.3067 167.517 57.76C168.37 58.2133 169.037 58.8667 169.517 59.72C170.01 60.56 170.257 61.54 170.257 62.66ZM164.677 59.44C163.97 59.44 163.377 59.64 162.897 60.04C162.417 60.44 162.124 60.9867 162.017 61.68H167.317C167.21 61 166.917 60.46 166.437 60.06C165.957 59.6467 165.37 59.44 164.677 59.44ZM177.768 68.16C176.622 68.16 175.588 67.9267 174.668 67.46C173.762 66.98 173.048 66.32 172.528 65.48C172.022 64.64 171.768 63.6867 171.768 62.62C171.768 61.5533 172.022 60.6 172.528 59.76C173.048 58.92 173.762 58.2667 174.668 57.8C175.588 57.32 176.622 57.08 177.768 57.08C178.902 57.08 179.888 57.32 180.728 57.8C181.582 58.2667 182.202 58.94 182.588 59.82L180.168 61.12C179.608 60.1333 178.802 59.64 177.748 59.64C176.935 59.64 176.262 59.9067 175.728 60.44C175.195 60.9733 174.928 61.7 174.928 62.62C174.928 63.54 175.195 64.2667 175.728 64.8C176.262 65.3333 176.935 65.6 177.748 65.6C178.815 65.6 179.622 65.1067 180.168 64.12L182.588 65.44C182.202 66.2933 181.582 66.96 180.728 67.44C179.888 67.92 178.902 68.16 177.768 68.16ZM189.224 63.92H187.604V68H184.484V57.24H187.604V61.42H189.284L192.204 57.24H195.524L191.764 62.4L195.784 68H192.104L189.224 63.92ZM201.301 57.08C202.968 57.08 204.248 57.48 205.141 58.28C206.034 59.0667 206.481 60.26 206.481 61.86V68H203.561V66.66C202.974 67.66 201.881 68.16 200.281 68.16C199.454 68.16 198.734 68.02 198.121 67.74C197.521 67.46 197.061 67.0733 196.741 66.58C196.421 66.0867 196.261 65.5267 196.261 64.9C196.261 63.9 196.634 63.1133 197.381 62.54C198.141 61.9667 199.308 61.68 200.881 61.68H203.361C203.361 61 203.154 60.48 202.741 60.12C202.328 59.7467 201.708 59.56 200.881 59.56C200.308 59.56 199.741 59.6533 199.181 59.84C198.634 60.0133 198.168 60.2533 197.781 60.56L196.661 58.38C197.248 57.9667 197.948 57.6467 198.761 57.42C199.588 57.1933 200.434 57.08 201.301 57.08ZM201.061 66.06C201.594 66.06 202.068 65.94 202.481 65.7C202.894 65.4467 203.188 65.08 203.361 64.6V63.5H201.221C199.941 63.5 199.301 63.92 199.301 64.76C199.301 65.16 199.454 65.48 199.761 65.72C200.081 65.9467 200.514 66.06 201.061 66.06ZM218.751 57.24V68H215.971V64.92H213.671L211.631 68H208.311L210.771 64.48C210.025 64.1867 209.451 63.7667 209.051 63.22C208.665 62.66 208.471 61.9867 208.471 61.2C208.471 59.9333 208.925 58.96 209.831 58.28C210.751 57.5867 212.011 57.24 213.611 57.24H218.751ZM213.671 59.78C213.005 59.78 212.498 59.9 212.151 60.14C211.818 60.38 211.651 60.7667 211.651 61.3C211.651 61.8333 211.811 62.2267 212.131 62.48C212.465 62.72 212.965 62.84 213.631 62.84H215.971V59.78H213.671ZM61.84 82.08C62.84 82.08 63.7467 82.3133 64.56 82.78C65.3867 83.2333 66.0333 83.88 66.5 84.72C66.9667 85.5467 67.2 86.5133 67.2 87.62C67.2 88.7267 66.9667 89.7 66.5 90.54C66.0333 91.3667 65.3867 92.0133 64.56 92.48C63.7467 92.9333 62.84 93.16 61.84 93.16C60.4667 93.16 59.3867 92.7267 58.6 91.86V96.88H55.48V82.24H58.46V83.48C59.2333 82.5467 60.36 82.08 61.84 82.08ZM61.3 90.6C62.1 90.6 62.7533 90.3333 63.26 89.8C63.78 89.2533 64.04 88.5267 64.04 87.62C64.04 86.7133 63.78 85.9933 63.26 85.46C62.7533 84.9133 62.1 84.64 61.3 84.64C60.5 84.64 59.84 84.9133 59.32 85.46C58.8133 85.9933 58.56 86.7133 58.56 87.62C58.56 88.5267 58.8133 89.2533 59.32 89.8C59.84 90.3333 60.5 90.6 61.3 90.6ZM73.3909 82.08C75.0576 82.08 76.3376 82.48 77.2309 83.28C78.1243 84.0667 78.5709 85.26 78.5709 86.86V93H75.6509V91.66C75.0643 92.66 73.9709 93.16 72.3709 93.16C71.5443 93.16 70.8243 93.02 70.2109 92.74C69.6109 92.46 69.1509 92.0733 68.8309 91.58C68.5109 91.0867 68.3509 90.5267 68.3509 89.9C68.3509 88.9 68.7243 88.1133 69.4709 87.54C70.2309 86.9667 71.3976 86.68 72.9709 86.68H75.4509C75.4509 86 75.2443 85.48 74.8309 85.12C74.4176 84.7467 73.7976 84.56 72.9709 84.56C72.3976 84.56 71.8309 84.6533 71.2709 84.84C70.7243 85.0133 70.2576 85.2533 69.8709 85.56L68.7509 83.38C69.3376 82.9667 70.0376 82.6467 70.8509 82.42C71.6776 82.1933 72.5243 82.08 73.3909 82.08ZM73.1509 91.06C73.6843 91.06 74.1576 90.94 74.5709 90.7C74.9843 90.4467 75.2776 90.08 75.4509 89.6V88.5H73.3109C72.0309 88.5 71.3909 88.92 71.3909 89.76C71.3909 90.16 71.5443 90.48 71.8509 90.72C72.1709 90.9467 72.6043 91.06 73.1509 91.06ZM88.1636 87.4C88.8036 87.6 89.2969 87.9067 89.6436 88.32C90.0036 88.7333 90.1836 89.2267 90.1836 89.8C90.1836 90.48 89.9503 91.08 89.4836 91.6C89.0169 92.1067 88.3769 92.5 87.5636 92.78C86.7503 93.06 85.8303 93.2 84.8036 93.2C83.9636 93.2 83.1369 93.1133 82.3236 92.94C81.5103 92.7667 80.7569 92.5067 80.0636 92.16L80.9036 89.98C82.0369 90.5267 83.2903 90.8 84.6636 90.8C85.3969 90.8 85.9703 90.6933 86.3836 90.48C86.8103 90.2533 87.0236 89.94 87.0236 89.54C87.0236 89.1933 86.8769 88.9333 86.5836 88.76C86.2903 88.5733 85.8636 88.48 85.3036 88.48H83.1036V86.54H85.0236C85.5703 86.54 85.9903 86.4533 86.2836 86.28C86.5769 86.1067 86.7236 85.8533 86.7236 85.52C86.7236 85.1733 86.5369 84.9067 86.1636 84.72C85.8036 84.5333 85.2836 84.44 84.6036 84.44C83.5636 84.44 82.4303 84.6867 81.2036 85.18L80.4436 83.02C81.9369 82.3667 83.3903 82.04 84.8036 82.04C85.7769 82.04 86.6436 82.16 87.4036 82.4C88.1769 82.64 88.7836 82.9933 89.2236 83.46C89.6636 83.9133 89.8836 84.4467 89.8836 85.06C89.8836 85.5667 89.7303 86.0267 89.4236 86.44C89.1169 86.84 88.6969 87.16 88.1636 87.4ZM100.673 87.38C101.94 87.8067 102.573 88.66 102.573 89.94C102.573 90.9133 102.206 91.6667 101.473 92.2C100.74 92.7333 99.6465 93 98.1931 93H92.4531V82.24H97.9531C99.2998 82.24 100.353 82.4867 101.113 82.98C101.873 83.46 102.253 84.14 102.253 85.02C102.253 85.5533 102.113 86.0267 101.833 86.44C101.566 86.84 101.18 87.1533 100.673 87.38ZM95.3131 86.66H97.6731C98.7665 86.66 99.3131 86.2733 99.3131 85.5C99.3131 84.74 98.7665 84.36 97.6731 84.36H95.3131V86.66ZM97.9331 90.88C99.0798 90.88 99.6531 90.4867 99.6531 89.7C99.6531 89.2867 99.5198 88.9867 99.2531 88.8C98.9865 88.6 98.5665 88.5 97.9931 88.5H95.3131V90.88H97.9331ZM109.935 93.16C108.801 93.16 107.781 92.9267 106.875 92.46C105.981 91.98 105.281 91.32 104.775 90.48C104.268 89.64 104.015 88.6867 104.015 87.62C104.015 86.5533 104.268 85.6 104.775 84.76C105.281 83.92 105.981 83.2667 106.875 82.8C107.781 82.32 108.801 82.08 109.935 82.08C111.068 82.08 112.081 82.32 112.975 82.8C113.868 83.2667 114.568 83.92 115.075 84.76C115.581 85.6 115.835 86.5533 115.835 87.62C115.835 88.6867 115.581 89.64 115.075 90.48C114.568 91.32 113.868 91.98 112.975 92.46C112.081 92.9267 111.068 93.16 109.935 93.16ZM109.935 90.6C110.735 90.6 111.388 90.3333 111.895 89.8C112.415 89.2533 112.675 88.5267 112.675 87.62C112.675 86.7133 112.415 85.9933 111.895 85.46C111.388 84.9133 110.735 84.64 109.935 84.64C109.135 84.64 108.475 84.9133 107.955 85.46C107.435 85.9933 107.175 86.7133 107.175 87.62C107.175 88.5267 107.435 89.2533 107.955 89.8C108.475 90.3333 109.135 90.6 109.935 90.6ZM129.884 90.44V95.32H126.984V93H119.424V95.32H116.524V90.44H116.964C117.631 90.4267 118.091 90.0333 118.344 89.26C118.598 88.4867 118.758 87.3867 118.824 85.96L118.964 82.24H128.344V90.44H129.884ZM121.644 86.18C121.604 87.2733 121.518 88.1667 121.384 88.86C121.264 89.5533 121.031 90.08 120.684 90.44H125.224V84.8H121.704L121.644 86.18ZM136.588 88.92H134.968V93H131.848V82.24H134.968V86.42H136.648L139.568 82.24H142.888L139.128 87.4L143.148 93H139.468L136.588 88.92ZM148.664 82.08C150.331 82.08 151.611 82.48 152.504 83.28C153.398 84.0667 153.844 85.26 153.844 86.86V93H150.924V91.66C150.338 92.66 149.244 93.16 147.644 93.16C146.818 93.16 146.098 93.02 145.484 92.74C144.884 92.46 144.424 92.0733 144.104 91.58C143.784 91.0867 143.624 90.5267 143.624 89.9C143.624 88.9 143.998 88.1133 144.744 87.54C145.504 86.9667 146.671 86.68 148.244 86.68H150.724C150.724 86 150.518 85.48 150.104 85.12C149.691 84.7467 149.071 84.56 148.244 84.56C147.671 84.56 147.104 84.6533 146.544 84.84C145.998 85.0133 145.531 85.2533 145.144 85.56L144.024 83.38C144.611 82.9667 145.311 82.6467 146.124 82.42C146.951 82.1933 147.798 82.08 148.664 82.08ZM148.424 91.06C148.958 91.06 149.431 90.94 149.844 90.7C150.258 90.4467 150.551 90.08 150.724 89.6V88.5H148.584C147.304 88.5 146.664 88.92 146.664 89.76C146.664 90.16 146.818 90.48 147.124 90.72C147.444 90.9467 147.878 91.06 148.424 91.06Z" fill="#141415"/>
</svg>
