<svg width="188" height="98" viewBox="0 0 188 98" fill="none" xmlns="http://www.w3.org/2000/svg">
<rect x="1" y="1" width="72" height="72" stroke="#61AE56" stroke-width="2"/>
<path d="M34.4342 24.8V50H27.3062V30.308H22.6262V24.8H34.4342ZM49.024 24.8V50H41.896V30.308H37.216V24.8H49.024Z" fill="#61AE56"/>
<path d="M67.44 60.7C68.2933 60.9533 68.9467 61.3667 69.4 61.94C69.8533 62.5133 70.08 63.22 70.08 64.06C70.08 65.3 69.6067 66.2667 68.66 66.96C67.7267 67.6533 66.3867 68 64.64 68H57.74V54H64.26C65.8867 54 67.1533 54.3133 68.06 54.94C68.9667 55.5667 69.42 56.46 69.42 57.62C69.42 58.3133 69.2467 58.9267 68.9 59.46C68.5533 59.98 68.0667 60.3933 67.44 60.7ZM60.96 59.8H63.98C64.6867 59.8 65.22 59.66 65.58 59.38C65.94 59.0867 66.12 58.66 66.12 58.1C66.12 57.5533 65.9333 57.1333 65.56 56.84C65.2 56.5467 64.6733 56.4 63.98 56.4H60.96V59.8ZM64.52 65.6C66.04 65.6 66.8 65 66.8 63.8C66.8 62.64 66.04 62.06 64.52 62.06H60.96V65.6H64.52ZM72.4023 57.24H75.5023V61.44H80.1823V57.24H83.3023V68H80.1823V63.98H75.5023V68H72.4023V57.24ZM97.0691 57.24L92.2091 68.66C91.7157 69.9 91.1024 70.7733 90.3691 71.28C89.6491 71.7867 88.7757 72.04 87.7491 72.04C87.1891 72.04 86.6357 71.9533 86.0891 71.78C85.5424 71.6067 85.0957 71.3667 84.7491 71.06L85.8891 68.84C86.1291 69.0533 86.4024 69.22 86.7091 69.34C87.0291 69.46 87.3424 69.52 87.6491 69.52C88.0757 69.52 88.4224 69.4133 88.6891 69.2C88.9557 69 89.1957 68.66 89.4091 68.18L89.4491 68.08L84.7891 57.24H88.0091L91.0291 64.54L94.0691 57.24H97.0691ZM107.712 59.8H104.072V68H100.972V59.8H97.3319V57.24H107.712V59.8ZM115.715 57.08C116.715 57.08 117.622 57.3133 118.435 57.78C119.262 58.2333 119.908 58.88 120.375 59.72C120.842 60.5467 121.075 61.5133 121.075 62.62C121.075 63.7267 120.842 64.7 120.375 65.54C119.908 66.3667 119.262 67.0133 118.435 67.48C117.622 67.9333 116.715 68.16 115.715 68.16C114.342 68.16 113.262 67.7267 112.475 66.86V71.88H109.355V57.24H112.335V58.48C113.108 57.5467 114.235 57.08 115.715 57.08ZM115.175 65.6C115.975 65.6 116.628 65.3333 117.135 64.8C117.655 64.2533 117.915 63.5267 117.915 62.62C117.915 61.7133 117.655 60.9933 117.135 60.46C116.628 59.9133 115.975 59.64 115.175 59.64C114.375 59.64 113.715 59.9133 113.195 60.46C112.688 60.9933 112.435 61.7133 112.435 62.62C112.435 63.5267 112.688 64.2533 113.195 64.8C113.715 65.3333 114.375 65.6 115.175 65.6ZM133.722 62.66C133.722 62.7 133.702 62.98 133.662 63.5H125.522C125.668 64.1667 126.015 64.6933 126.562 65.08C127.108 65.4667 127.788 65.66 128.602 65.66C129.162 65.66 129.655 65.58 130.082 65.42C130.522 65.2467 130.928 64.98 131.302 64.62L132.962 66.42C131.948 67.58 130.468 68.16 128.522 68.16C127.308 68.16 126.235 67.9267 125.302 67.46C124.368 66.98 123.648 66.32 123.142 65.48C122.635 64.64 122.382 63.6867 122.382 62.62C122.382 61.5667 122.628 60.62 123.122 59.78C123.628 58.9267 124.315 58.2667 125.182 57.8C126.062 57.32 127.042 57.08 128.122 57.08C129.175 57.08 130.128 57.3067 130.982 57.76C131.835 58.2133 132.502 58.8667 132.982 59.72C133.475 60.56 133.722 61.54 133.722 62.66ZM128.142 59.44C127.435 59.44 126.842 59.64 126.362 60.04C125.882 60.44 125.588 60.9867 125.482 61.68H130.782C130.675 61 130.382 60.46 129.902 60.06C129.422 59.6467 128.835 59.44 128.142 59.44ZM136.113 57.24H139.213V61.44H143.893V57.24H147.013V68H143.893V63.98H139.213V68H136.113V57.24ZM150 57.24H153.1V61.44H157.78V57.24H160.9V68H157.78V63.98H153.1V68H150V57.24ZM173.447 57.24V68H170.667V64.92H168.367L166.327 68H163.007L165.467 64.48C164.72 64.1867 164.147 63.7667 163.747 63.22C163.36 62.66 163.167 61.9867 163.167 61.2C163.167 59.9333 163.62 58.96 164.527 58.28C165.447 57.5867 166.707 57.24 168.307 57.24H173.447ZM168.367 59.78C167.7 59.78 167.193 59.9 166.847 60.14C166.513 60.38 166.347 60.7667 166.347 61.3C166.347 61.8333 166.507 62.2267 166.827 62.48C167.16 62.72 167.66 62.84 168.327 62.84H170.667V59.78H168.367ZM186.005 57.24V68H183.225V64.92H180.925L178.885 68H175.565L178.025 64.48C177.279 64.1867 176.705 63.7667 176.305 63.22C175.919 62.66 175.725 61.9867 175.725 61.2C175.725 59.9333 176.179 58.96 177.085 58.28C178.005 57.5867 179.265 57.24 180.865 57.24H186.005ZM180.925 59.78C180.259 59.78 179.752 59.9 179.405 60.14C179.072 60.38 178.905 60.7667 178.905 61.3C178.905 61.8333 179.065 62.2267 179.385 62.48C179.719 62.72 180.219 62.84 180.885 62.84H183.225V59.78H180.925ZM62.54 93.16C61.4067 93.16 60.3867 92.9267 59.48 92.46C58.5867 91.98 57.8867 91.32 57.38 90.48C56.8733 89.64 56.62 88.6867 56.62 87.62C56.62 86.5533 56.8733 85.6 57.38 84.76C57.8867 83.92 58.5867 83.2667 59.48 82.8C60.3867 82.32 61.4067 82.08 62.54 82.08C63.6733 82.08 64.6867 82.32 65.58 82.8C66.4733 83.2667 67.1733 83.92 67.68 84.76C68.1867 85.6 68.44 86.5533 68.44 87.62C68.44 88.6867 68.1867 89.64 67.68 90.48C67.1733 91.32 66.4733 91.98 65.58 92.46C64.6867 92.9267 63.6733 93.16 62.54 93.16ZM62.54 90.6C63.34 90.6 63.9933 90.3333 64.5 89.8C65.02 89.2533 65.28 88.5267 65.28 87.62C65.28 86.7133 65.02 85.9933 64.5 85.46C63.9933 84.9133 63.34 84.64 62.54 84.64C61.74 84.64 61.08 84.9133 60.56 85.46C60.04 85.9933 59.78 86.7133 59.78 87.62C59.78 88.5267 60.04 89.2533 60.56 89.8C61.08 90.3333 61.74 90.6 62.54 90.6ZM79.2353 84.8H75.5953V93H72.4953V84.8H68.8553V82.24H79.2353V84.8ZM92.1772 90.44V95.32H89.2772V93H81.7172V95.32H78.8172V90.44H79.2572C79.9239 90.4267 80.3839 90.0333 80.6372 89.26C80.8905 88.4867 81.0505 87.3867 81.1172 85.96L81.2572 82.24H90.6372V90.44H92.1772ZM83.9372 86.18C83.8972 87.2733 83.8105 88.1667 83.6772 88.86C83.5572 89.5533 83.3239 90.08 82.9772 90.44H87.5172V84.8H83.9972L83.9372 86.18ZM104.601 87.66C104.601 87.7 104.581 87.98 104.541 88.5H96.4006C96.5473 89.1667 96.894 89.6933 97.4406 90.08C97.9873 90.4667 98.6673 90.66 99.4806 90.66C100.041 90.66 100.534 90.58 100.961 90.42C101.401 90.2467 101.807 89.98 102.181 89.62L103.841 91.42C102.827 92.58 101.347 93.16 99.4006 93.16C98.1873 93.16 97.114 92.9267 96.1806 92.46C95.2473 91.98 94.5273 91.32 94.0206 90.48C93.514 89.64 93.2606 88.6867 93.2606 87.62C93.2606 86.5667 93.5073 85.62 94.0006 84.78C94.5073 83.9267 95.194 83.2667 96.0606 82.8C96.9406 82.32 97.9206 82.08 99.0006 82.08C100.054 82.08 101.007 82.3067 101.861 82.76C102.714 83.2133 103.381 83.8667 103.861 84.72C104.354 85.56 104.601 86.54 104.601 87.66ZM99.0206 84.44C98.314 84.44 97.7206 84.64 97.2406 85.04C96.7606 85.44 96.4673 85.9867 96.3606 86.68H101.661C101.554 86 101.261 85.46 100.781 85.06C100.301 84.6467 99.714 84.44 99.0206 84.44ZM117.215 82.24V93H114.095V84.8H110.695L110.595 86.7C110.541 88.1133 110.408 89.2867 110.195 90.22C109.981 91.1533 109.635 91.8867 109.155 92.42C108.675 92.9533 108.008 93.22 107.155 93.22C106.701 93.22 106.161 93.14 105.535 92.98L105.695 90.42C105.908 90.4467 106.061 90.46 106.155 90.46C106.621 90.46 106.968 90.2933 107.195 89.96C107.435 89.6133 107.595 89.18 107.675 88.66C107.755 88.1267 107.815 87.4267 107.855 86.56L108.015 82.24H117.215ZM124.955 88.92H123.335V93H120.215V82.24H123.335V86.42H125.015L127.935 82.24H131.255L127.495 87.4L131.515 93H127.835L124.955 88.92ZM137.032 82.08C138.698 82.08 139.978 82.48 140.872 83.28C141.765 84.0667 142.212 85.26 142.212 86.86V93H139.292V91.66C138.705 92.66 137.612 93.16 136.012 93.16C135.185 93.16 134.465 93.02 133.852 92.74C133.252 92.46 132.792 92.0733 132.472 91.58C132.152 91.0867 131.992 90.5267 131.992 89.9C131.992 88.9 132.365 88.1133 133.112 87.54C133.872 86.9667 135.038 86.68 136.612 86.68H139.092C139.092 86 138.885 85.48 138.472 85.12C138.058 84.7467 137.438 84.56 136.612 84.56C136.038 84.56 135.472 84.6533 134.912 84.84C134.365 85.0133 133.898 85.2533 133.512 85.56L132.392 83.38C132.978 82.9667 133.678 82.6467 134.492 82.42C135.318 82.1933 136.165 82.08 137.032 82.08ZM136.792 91.06C137.325 91.06 137.798 90.94 138.212 90.7C138.625 90.4467 138.918 90.08 139.092 89.6V88.5H136.952C135.672 88.5 135.032 88.92 135.032 89.76C135.032 90.16 135.185 90.48 135.492 90.72C135.812 90.9467 136.245 91.06 136.792 91.06Z" fill="#141415"/>
</svg>
