<svg width="169" height="98" viewBox="0 0 169 98" fill="none" xmlns="http://www.w3.org/2000/svg">
<rect x="1" y="1" width="72" height="72" stroke="#61AE56" stroke-width="2"/>
<path d="M31.4537 24.8V50H24.3257V30.308H19.6457V24.8H31.4537ZM54.7195 44.348V50H35.0995V45.536L44.5315 36.716C45.4435 35.852 46.0555 35.12 46.3675 34.52C46.6795 33.896 46.8355 33.272 46.8355 32.648C46.8355 31.832 46.5595 31.196 46.0075 30.74C45.4555 30.284 44.6515 30.056 43.5955 30.056C42.6595 30.056 41.7955 30.272 41.0035 30.704C40.2355 31.112 39.5995 31.712 39.0955 32.504L33.8035 29.552C34.7875 27.92 36.1675 26.636 37.9435 25.7C39.7195 24.764 41.8195 24.296 44.2435 24.296C46.1635 24.296 47.8555 24.608 49.3195 25.232C50.8075 25.856 51.9595 26.756 52.7755 27.932C53.6155 29.084 54.0355 30.428 54.0355 31.964C54.0355 33.332 53.7355 34.628 53.1355 35.852C52.5595 37.052 51.4315 38.42 49.7515 39.956L44.9995 44.348H54.7195Z" fill="#61AE56"/>
<path d="M70.38 54L64.42 65.08C63.8467 66.1467 63.1533 66.9533 62.34 67.5C61.54 68.0467 60.6667 68.32 59.72 68.32C58.9867 68.32 58.2267 68.16 57.44 67.84L58.22 65.38C58.78 65.5533 59.2467 65.64 59.62 65.64C60.02 65.64 60.38 65.5467 60.7 65.36C61.02 65.16 61.3133 64.8533 61.58 64.44L61.7 64.28L56.18 54H59.64L63.36 61.52L67.2 54H70.38ZM75.9989 68.16C74.8522 68.16 73.8189 67.9267 72.8989 67.46C71.9922 66.98 71.2789 66.32 70.7589 65.48C70.2522 64.64 69.9989 63.6867 69.9989 62.62C69.9989 61.5533 70.2522 60.6 70.7589 59.76C71.2789 58.92 71.9922 58.2667 72.8989 57.8C73.8189 57.32 74.8522 57.08 75.9989 57.08C77.1322 57.08 78.1189 57.32 78.9589 57.8C79.8122 58.2667 80.4322 58.94 80.8189 59.82L78.3989 61.12C77.8389 60.1333 77.0322 59.64 75.9789 59.64C75.1656 59.64 74.4922 59.9067 73.9589 60.44C73.4256 60.9733 73.1589 61.7 73.1589 62.62C73.1589 63.54 73.4256 64.2667 73.9589 64.8C74.4922 65.3333 75.1656 65.6 75.9789 65.6C77.0456 65.6 77.8522 65.1067 78.3989 64.12L80.8189 65.44C80.4322 66.2933 79.8122 66.96 78.9589 67.44C78.1189 67.92 77.1322 68.16 75.9989 68.16ZM91.7158 59.8H88.0758V68H84.9758V59.8H81.3358V57.24H91.7158V59.8ZM97.5589 57.08C99.2256 57.08 100.506 57.48 101.399 58.28C102.292 59.0667 102.739 60.26 102.739 61.86V68H99.8189V66.66C99.2322 67.66 98.1389 68.16 96.5389 68.16C95.7122 68.16 94.9922 68.02 94.3789 67.74C93.7789 67.46 93.3189 67.0733 92.9989 66.58C92.6789 66.0867 92.5189 65.5267 92.5189 64.9C92.5189 63.9 92.8922 63.1133 93.6389 62.54C94.3989 61.9667 95.5656 61.68 97.1389 61.68H99.6189C99.6189 61 99.4122 60.48 98.9989 60.12C98.5856 59.7467 97.9656 59.56 97.1389 59.56C96.5656 59.56 95.9989 59.6533 95.4389 59.84C94.8922 60.0133 94.4256 60.2533 94.0389 60.56L92.9189 58.38C93.5056 57.9667 94.2056 57.6467 95.0189 57.42C95.8456 57.1933 96.6922 57.08 97.5589 57.08ZM97.3189 66.06C97.8522 66.06 98.3256 65.94 98.7389 65.7C99.1522 65.4467 99.4456 65.08 99.6189 64.6V63.5H97.4789C96.1989 63.5 95.5589 63.92 95.5589 64.76C95.5589 65.16 95.7122 65.48 96.0189 65.72C96.3389 65.9467 96.7722 66.06 97.3189 66.06ZM105.449 57.24H108.549V61.44H113.229V57.24H116.349V68H113.229V63.98H108.549V68H105.449V57.24ZM124.376 68.16C123.243 68.16 122.223 67.9267 121.316 67.46C120.423 66.98 119.723 66.32 119.216 65.48C118.709 64.64 118.456 63.6867 118.456 62.62C118.456 61.5533 118.709 60.6 119.216 59.76C119.723 58.92 120.423 58.2667 121.316 57.8C122.223 57.32 123.243 57.08 124.376 57.08C125.509 57.08 126.523 57.32 127.416 57.8C128.309 58.2667 129.009 58.92 129.516 59.76C130.023 60.6 130.276 61.5533 130.276 62.62C130.276 63.6867 130.023 64.64 129.516 65.48C129.009 66.32 128.309 66.98 127.416 67.46C126.523 67.9267 125.509 68.16 124.376 68.16ZM124.376 65.6C125.176 65.6 125.829 65.3333 126.336 64.8C126.856 64.2533 127.116 63.5267 127.116 62.62C127.116 61.7133 126.856 60.9933 126.336 60.46C125.829 59.9133 125.176 59.64 124.376 59.64C123.576 59.64 122.916 59.9133 122.396 60.46C121.876 60.9933 121.616 61.7133 121.616 62.62C121.616 63.5267 121.876 64.2533 122.396 64.8C122.916 65.3333 123.576 65.6 124.376 65.6ZM140.642 62.38C141.909 62.8067 142.542 63.66 142.542 64.94C142.542 65.9133 142.175 66.6667 141.442 67.2C140.709 67.7333 139.615 68 138.162 68H132.422V57.24H137.922C139.269 57.24 140.322 57.4867 141.082 57.98C141.842 58.46 142.222 59.14 142.222 60.02C142.222 60.5533 142.082 61.0267 141.802 61.44C141.535 61.84 141.149 62.1533 140.642 62.38ZM135.282 61.66H137.642C138.735 61.66 139.282 61.2733 139.282 60.5C139.282 59.74 138.735 59.36 137.642 59.36H135.282V61.66ZM137.902 65.88C139.049 65.88 139.622 65.4867 139.622 64.7C139.622 64.2867 139.489 63.9867 139.222 63.8C138.955 63.6 138.535 63.5 137.962 63.5H135.282V65.88H137.902ZM149.603 63.92H147.983V68H144.863V57.24H147.983V61.42H149.663L152.583 57.24H155.903L152.143 62.4L156.163 68H152.483L149.603 63.92ZM161.68 57.08C163.347 57.08 164.627 57.48 165.52 58.28C166.413 59.0667 166.86 60.26 166.86 61.86V68H163.94V66.66C163.353 67.66 162.26 68.16 160.66 68.16C159.833 68.16 159.113 68.02 158.5 67.74C157.9 67.46 157.44 67.0733 157.12 66.58C156.8 66.0867 156.64 65.5267 156.64 64.9C156.64 63.9 157.013 63.1133 157.76 62.54C158.52 61.9667 159.687 61.68 161.26 61.68H163.74C163.74 61 163.533 60.48 163.12 60.12C162.707 59.7467 162.087 59.56 161.26 59.56C160.687 59.56 160.12 59.6533 159.56 59.84C159.013 60.0133 158.547 60.2533 158.16 60.56L157.04 58.38C157.627 57.9667 158.327 57.6467 159.14 57.42C159.967 57.1933 160.813 57.08 161.68 57.08ZM161.44 66.06C161.973 66.06 162.447 65.94 162.86 65.7C163.273 65.4467 163.567 65.08 163.74 64.6V63.5H161.6C160.32 63.5 159.68 63.92 159.68 64.76C159.68 65.16 159.833 65.48 160.14 65.72C160.46 65.9467 160.893 66.06 161.44 66.06ZM64.48 87.4C65.12 87.6 65.6133 87.9067 65.96 88.32C66.32 88.7333 66.5 89.2267 66.5 89.8C66.5 90.48 66.2667 91.08 65.8 91.6C65.3333 92.1067 64.6933 92.5 63.88 92.78C63.0667 93.06 62.1467 93.2 61.12 93.2C60.28 93.2 59.4533 93.1133 58.64 92.94C57.8267 92.7667 57.0733 92.5067 56.38 92.16L57.22 89.98C58.3533 90.5267 59.6067 90.8 60.98 90.8C61.7133 90.8 62.2867 90.6933 62.7 90.48C63.1267 90.2533 63.34 89.94 63.34 89.54C63.34 89.1933 63.1933 88.9333 62.9 88.76C62.6067 88.5733 62.18 88.48 61.62 88.48H59.42V86.54H61.34C61.8867 86.54 62.3067 86.4533 62.6 86.28C62.8933 86.1067 63.04 85.8533 63.04 85.52C63.04 85.1733 62.8533 84.9067 62.48 84.72C62.12 84.5333 61.6 84.44 60.92 84.44C59.88 84.44 58.7467 84.6867 57.52 85.18L56.76 83.02C58.2533 82.3667 59.7067 82.04 61.12 82.04C62.0933 82.04 62.96 82.16 63.72 82.4C64.4933 82.64 65.1 82.9933 65.54 83.46C65.98 83.9133 66.2 84.4467 66.2 85.06C66.2 85.5667 66.0467 86.0267 65.74 86.44C65.4333 86.84 65.0133 87.16 64.48 87.4ZM72.9495 82.08C74.6162 82.08 75.8962 82.48 76.7895 83.28C77.6829 84.0667 78.1295 85.26 78.1295 86.86V93H75.2095V91.66C74.6229 92.66 73.5295 93.16 71.9295 93.16C71.1029 93.16 70.3829 93.02 69.7695 92.74C69.1695 92.46 68.7095 92.0733 68.3895 91.58C68.0695 91.0867 67.9095 90.5267 67.9095 89.9C67.9095 88.9 68.2829 88.1133 69.0295 87.54C69.7895 86.9667 70.9562 86.68 72.5295 86.68H75.0095C75.0095 86 74.8029 85.48 74.3895 85.12C73.9762 84.7467 73.3562 84.56 72.5295 84.56C71.9562 84.56 71.3895 84.6533 70.8295 84.84C70.2829 85.0133 69.8162 85.2533 69.4295 85.56L68.3095 83.38C68.8962 82.9667 69.5962 82.6467 70.4095 82.42C71.2362 82.1933 72.0829 82.08 72.9495 82.08ZM72.7095 91.06C73.2429 91.06 73.7162 90.94 74.1295 90.7C74.5429 90.4467 74.8362 90.08 75.0095 89.6V88.5H72.8695C71.5895 88.5 70.9495 88.92 70.9495 89.76C70.9495 90.16 71.1029 90.48 71.4095 90.72C71.7295 90.9467 72.1629 91.06 72.7095 91.06ZM87.0598 82.98C88.0865 82.98 88.9865 83.1933 89.7598 83.62C90.5332 84.0333 91.1265 84.62 91.5398 85.38C91.9665 86.14 92.1798 87.02 92.1798 88.02C92.1798 89.0467 91.9265 89.96 91.4198 90.76C90.9265 91.5467 90.2332 92.16 89.3398 92.6C88.4465 93.0267 87.4332 93.24 86.2998 93.24C84.4198 93.24 82.9398 92.64 81.8598 91.44C80.7932 90.2267 80.2598 88.4533 80.2598 86.12C80.2598 83.96 80.7265 82.24 81.6598 80.96C82.6065 79.6667 84.0532 78.82 85.9998 78.42L91.1198 77.4L91.5398 80.08L87.0198 80.98C85.7932 81.22 84.8798 81.62 84.2798 82.18C83.6932 82.74 83.3465 83.5333 83.2398 84.56C83.7065 84.0533 84.2665 83.6667 84.9198 83.4C85.5732 83.12 86.2865 82.98 87.0598 82.98ZM86.3198 90.82C87.1198 90.82 87.7598 90.56 88.2398 90.04C88.7332 89.52 88.9798 88.86 88.9798 88.06C88.9798 87.2467 88.7332 86.6 88.2398 86.12C87.7598 85.64 87.1198 85.4 86.3198 85.4C85.5065 85.4 84.8532 85.64 84.3598 86.12C83.8665 86.6 83.6198 87.2467 83.6198 88.06C83.6198 88.8733 83.8732 89.54 84.3798 90.06C84.8865 90.5667 85.5332 90.82 86.3198 90.82ZM99.3369 93.16C98.2035 93.16 97.1835 92.9267 96.2769 92.46C95.3835 91.98 94.6835 91.32 94.1769 90.48C93.6702 89.64 93.4169 88.6867 93.4169 87.62C93.4169 86.5533 93.6702 85.6 94.1769 84.76C94.6835 83.92 95.3835 83.2667 96.2769 82.8C97.1835 82.32 98.2035 82.08 99.3369 82.08C100.47 82.08 101.484 82.32 102.377 82.8C103.27 83.2667 103.97 83.92 104.477 84.76C104.984 85.6 105.237 86.5533 105.237 87.62C105.237 88.6867 104.984 89.64 104.477 90.48C103.97 91.32 103.27 91.98 102.377 92.46C101.484 92.9267 100.47 93.16 99.3369 93.16ZM99.3369 90.6C100.137 90.6 100.79 90.3333 101.297 89.8C101.817 89.2533 102.077 88.5267 102.077 87.62C102.077 86.7133 101.817 85.9933 101.297 85.46C100.79 84.9133 100.137 84.64 99.3369 84.64C98.5369 84.64 97.8769 84.9133 97.3569 85.46C96.8369 85.9933 96.5769 86.7133 96.5769 87.62C96.5769 88.5267 96.8369 89.2533 97.3569 89.8C97.8769 90.3333 98.5369 90.6 99.3369 90.6ZM113.723 82.08C114.723 82.08 115.629 82.3133 116.443 82.78C117.269 83.2333 117.916 83.88 118.383 84.72C118.849 85.5467 119.083 86.5133 119.083 87.62C119.083 88.7267 118.849 89.7 118.383 90.54C117.916 91.3667 117.269 92.0133 116.443 92.48C115.629 92.9333 114.723 93.16 113.723 93.16C112.349 93.16 111.269 92.7267 110.483 91.86V96.88H107.363V82.24H110.343V83.48C111.116 82.5467 112.243 82.08 113.723 82.08ZM113.183 90.6C113.983 90.6 114.636 90.3333 115.143 89.8C115.663 89.2533 115.923 88.5267 115.923 87.62C115.923 86.7133 115.663 85.9933 115.143 85.46C114.636 84.9133 113.983 84.64 113.183 84.64C112.383 84.64 111.723 84.9133 111.203 85.46C110.696 85.9933 110.443 86.7133 110.443 87.62C110.443 88.5267 110.696 89.2533 111.203 89.8C111.723 90.3333 112.383 90.6 113.183 90.6ZM125.274 82.08C126.94 82.08 128.22 82.48 129.114 83.28C130.007 84.0667 130.454 85.26 130.454 86.86V93H127.534V91.66C126.947 92.66 125.854 93.16 124.254 93.16C123.427 93.16 122.707 93.02 122.094 92.74C121.494 92.46 121.034 92.0733 120.714 91.58C120.394 91.0867 120.234 90.5267 120.234 89.9C120.234 88.9 120.607 88.1133 121.354 87.54C122.114 86.9667 123.28 86.68 124.854 86.68H127.334C127.334 86 127.127 85.48 126.714 85.12C126.3 84.7467 125.68 84.56 124.854 84.56C124.28 84.56 123.714 84.6533 123.154 84.84C122.607 85.0133 122.14 85.2533 121.754 85.56L120.634 83.38C121.22 82.9667 121.92 82.6467 122.734 82.42C123.56 82.1933 124.407 82.08 125.274 82.08ZM125.034 91.06C125.567 91.06 126.04 90.94 126.454 90.7C126.867 90.4467 127.16 90.08 127.334 89.6V88.5H125.194C123.914 88.5 123.274 88.92 123.274 89.76C123.274 90.16 123.427 90.48 123.734 90.72C124.054 90.9467 124.487 91.06 125.034 91.06Z" fill="#141415"/>
</svg>
