<svg width="261" height="98" viewBox="0 0 261 98" fill="none" xmlns="http://www.w3.org/2000/svg">
<rect x="1" y="1" width="72" height="72" stroke="#61AE56" stroke-width="2"/>
<path d="M31.3834 24.8V50H24.2554V30.308H19.5754V24.8H31.3834ZM48.0972 34.88C50.1852 35.312 51.7812 36.176 52.8852 37.472C54.0132 38.744 54.5772 40.292 54.5772 42.116C54.5772 43.604 54.1692 44.984 53.3532 46.256C52.5612 47.528 51.3372 48.56 49.6812 49.352C48.0492 50.12 46.0212 50.504 43.5972 50.504C41.8212 50.504 40.0572 50.288 38.3052 49.856C36.5772 49.424 35.0772 48.812 33.8052 48.02L36.3972 42.656C37.3812 43.328 38.4852 43.844 39.7092 44.204C40.9572 44.564 42.1812 44.744 43.3812 44.744C44.6052 44.744 45.5772 44.516 46.2972 44.06C47.0172 43.604 47.3772 42.956 47.3772 42.116C47.3772 40.484 46.0932 39.668 43.5252 39.668H40.5372V35.168L45.0372 30.308H35.1012V24.8H53.3172V29.264L48.0972 34.88Z" fill="#61AE56"/>
<path d="M70.22 54V68H67.02V56.64H62.22L62.12 59.56C62.0533 61.5467 61.8933 63.16 61.64 64.4C61.3867 65.6267 60.96 66.5733 60.36 67.24C59.7733 67.8933 58.9467 68.22 57.88 68.22C57.44 68.22 56.9067 68.1467 56.28 68L56.48 65.26C56.6533 65.3133 56.8467 65.34 57.06 65.34C57.8333 65.34 58.3733 64.8867 58.68 63.98C58.9867 63.06 59.18 61.6267 59.26 59.68L59.46 54H70.22ZM77.6566 57.08C79.3232 57.08 80.6032 57.48 81.4966 58.28C82.3899 59.0667 82.8366 60.26 82.8366 61.86V68H79.9166V66.66C79.3299 67.66 78.2366 68.16 76.6366 68.16C75.8099 68.16 75.0899 68.02 74.4766 67.74C73.8766 67.46 73.4166 67.0733 73.0966 66.58C72.7766 66.0867 72.6166 65.5267 72.6166 64.9C72.6166 63.9 72.9899 63.1133 73.7366 62.54C74.4966 61.9667 75.6632 61.68 77.2366 61.68H79.7166C79.7166 61 79.5099 60.48 79.0966 60.12C78.6832 59.7467 78.0632 59.56 77.2366 59.56C76.6632 59.56 76.0966 59.6533 75.5366 59.84C74.9899 60.0133 74.5232 60.2533 74.1366 60.56L73.0166 58.38C73.6032 57.9667 74.3032 57.6467 75.1166 57.42C75.9432 57.1933 76.7899 57.08 77.6566 57.08ZM77.4166 66.06C77.9499 66.06 78.4232 65.94 78.8366 65.7C79.2499 65.4467 79.5432 65.08 79.7166 64.6V63.5H77.5766C76.2966 63.5 75.6566 63.92 75.6566 64.76C75.6566 65.16 75.8099 65.48 76.1166 65.72C76.4366 65.9467 76.8699 66.06 77.4166 66.06ZM85.5469 57.24H88.6469V61.44H93.3269V57.24H96.4469V68H93.3269V63.98H88.6469V68H85.5469V57.24ZM111.494 65.44V70.32H108.594V68H101.034V70.32H98.1336V65.44H98.5736C99.2403 65.4267 99.7003 65.0333 99.9536 64.26C100.207 63.4867 100.367 62.3867 100.434 60.96L100.574 57.24H109.954V65.44H111.494ZM103.254 61.18C103.214 62.2733 103.127 63.1667 102.994 63.86C102.874 64.5533 102.64 65.08 102.294 65.44H106.834V59.8H103.314L103.254 61.18ZM129.877 57.24V68H113.457V57.24H116.557V65.44H120.137V57.24H123.237V65.44H126.777V57.24H129.877ZM137.051 57.08C138.718 57.08 139.998 57.48 140.891 58.28C141.784 59.0667 142.231 60.26 142.231 61.86V68H139.311V66.66C138.724 67.66 137.631 68.16 136.031 68.16C135.204 68.16 134.484 68.02 133.871 67.74C133.271 67.46 132.811 67.0733 132.491 66.58C132.171 66.0867 132.011 65.5267 132.011 64.9C132.011 63.9 132.384 63.1133 133.131 62.54C133.891 61.9667 135.058 61.68 136.631 61.68H139.111C139.111 61 138.904 60.48 138.491 60.12C138.078 59.7467 137.458 59.56 136.631 59.56C136.058 59.56 135.491 59.6533 134.931 59.84C134.384 60.0133 133.918 60.2533 133.531 60.56L132.411 58.38C132.998 57.9667 133.698 57.6467 134.511 57.42C135.338 57.1933 136.184 57.08 137.051 57.08ZM136.811 66.06C137.344 66.06 137.818 65.94 138.231 65.7C138.644 65.4467 138.938 65.08 139.111 64.6V63.5H136.971C135.691 63.5 135.051 63.92 135.051 64.76C135.051 65.16 135.204 65.48 135.511 65.72C135.831 65.9467 136.264 66.06 136.811 66.06ZM159.801 62.58C159.801 64.2467 159.241 65.5667 158.121 66.54C157.015 67.5 155.428 68.0533 153.361 68.2V71.88H150.501V68.2C148.435 68.0533 146.841 67.5067 145.721 66.56C144.615 65.6 144.061 64.2733 144.061 62.58C144.061 60.9133 144.608 59.62 145.701 58.7C146.808 57.78 148.408 57.2467 150.501 57.1V53.16H153.361V57.1C155.428 57.2467 157.015 57.7867 158.121 58.72C159.241 59.6533 159.801 60.94 159.801 62.58ZM147.081 62.58C147.081 63.54 147.355 64.28 147.901 64.8C148.448 65.32 149.315 65.6467 150.501 65.78V59.52C149.315 59.64 148.448 59.9533 147.901 60.46C147.355 60.9533 147.081 61.66 147.081 62.58ZM153.361 65.78C154.548 65.6467 155.415 65.32 155.961 64.8C156.521 64.28 156.801 63.54 156.801 62.58C156.801 61.66 156.521 60.9533 155.961 60.46C155.415 59.9533 154.548 59.64 153.361 59.52V65.78ZM170.563 59.8H166.923V68H163.823V59.8H160.183V57.24H170.563V59.8ZM57.5 82.24H60.6V88.64L65.84 82.24H68.7V93H65.6V86.6L60.38 93H57.5V82.24ZM83.5833 82.98C84.6099 82.98 85.5099 83.1933 86.2833 83.62C87.0566 84.0333 87.6499 84.62 88.0633 85.38C88.4899 86.14 88.7033 87.02 88.7033 88.02C88.7033 89.0467 88.4499 89.96 87.9433 90.76C87.4499 91.5467 86.7566 92.16 85.8633 92.6C84.9699 93.0267 83.9566 93.24 82.8233 93.24C80.9433 93.24 79.4633 92.64 78.3833 91.44C77.3166 90.2267 76.7833 88.4533 76.7833 86.12C76.7833 83.96 77.2499 82.24 78.1833 80.96C79.1299 79.6667 80.5766 78.82 82.5233 78.42L87.6433 77.4L88.0633 80.08L83.5433 80.98C82.3166 81.22 81.4033 81.62 80.8033 82.18C80.2166 82.74 79.8699 83.5333 79.7633 84.56C80.2299 84.0533 80.7899 83.6667 81.4433 83.4C82.0966 83.12 82.8099 82.98 83.5833 82.98ZM82.8433 90.82C83.6433 90.82 84.2833 90.56 84.7633 90.04C85.2566 89.52 85.5033 88.86 85.5033 88.06C85.5033 87.2467 85.2566 86.6 84.7633 86.12C84.2833 85.64 83.6433 85.4 82.8433 85.4C82.0299 85.4 81.3766 85.64 80.8833 86.12C80.3899 86.6 80.1433 87.2467 80.1433 88.06C80.1433 88.8733 80.3966 89.54 80.9033 90.06C81.4099 90.5667 82.0566 90.82 82.8433 90.82ZM100.984 82.24V93H97.8641V84.8H94.4641L94.3641 86.7C94.3107 88.1133 94.1774 89.2867 93.9641 90.22C93.7507 91.1533 93.4041 91.8867 92.9241 92.42C92.4441 92.9533 91.7774 93.22 90.9241 93.22C90.4707 93.22 89.9307 93.14 89.3041 92.98L89.4641 90.42C89.6774 90.4467 89.8307 90.46 89.9241 90.46C90.3907 90.46 90.7374 90.2933 90.9641 89.96C91.2041 89.6133 91.3641 89.18 91.4441 88.66C91.5241 88.1267 91.5841 87.4267 91.6241 86.56L91.7841 82.24H100.984ZM108.164 82.08C109.831 82.08 111.111 82.48 112.004 83.28C112.898 84.0667 113.344 85.26 113.344 86.86V93H110.424V91.66C109.838 92.66 108.744 93.16 107.144 93.16C106.318 93.16 105.598 93.02 104.984 92.74C104.384 92.46 103.924 92.0733 103.604 91.58C103.284 91.0867 103.124 90.5267 103.124 89.9C103.124 88.9 103.498 88.1133 104.244 87.54C105.004 86.9667 106.171 86.68 107.744 86.68H110.224C110.224 86 110.018 85.48 109.604 85.12C109.191 84.7467 108.571 84.56 107.744 84.56C107.171 84.56 106.604 84.6533 106.044 84.84C105.498 85.0133 105.031 85.2533 104.644 85.56L103.524 83.38C104.111 82.9667 104.811 82.6467 105.624 82.42C106.451 82.1933 107.298 82.08 108.164 82.08ZM107.924 91.06C108.458 91.06 108.931 90.94 109.344 90.7C109.758 90.4467 110.051 90.08 110.224 89.6V88.5H108.084C106.804 88.5 106.164 88.92 106.164 89.76C106.164 90.16 106.318 90.48 106.624 90.72C106.944 90.9467 107.378 91.06 107.924 91.06ZM124.675 84.8H119.155V93H116.055V82.24H124.675V84.8ZM130.919 93.16C129.786 93.16 128.766 92.9267 127.859 92.46C126.966 91.98 126.266 91.32 125.759 90.48C125.252 89.64 124.999 88.6867 124.999 87.62C124.999 86.5533 125.252 85.6 125.759 84.76C126.266 83.92 126.966 83.2667 127.859 82.8C128.766 82.32 129.786 82.08 130.919 82.08C132.052 82.08 133.066 82.32 133.959 82.8C134.852 83.2667 135.552 83.92 136.059 84.76C136.566 85.6 136.819 86.5533 136.819 87.62C136.819 88.6867 136.566 89.64 136.059 90.48C135.552 91.32 134.852 91.98 133.959 92.46C133.066 92.9267 132.052 93.16 130.919 93.16ZM130.919 90.6C131.719 90.6 132.372 90.3333 132.879 89.8C133.399 89.2533 133.659 88.5267 133.659 87.62C133.659 86.7133 133.399 85.9933 132.879 85.46C132.372 84.9133 131.719 84.64 130.919 84.64C130.119 84.64 129.459 84.9133 128.939 85.46C128.419 85.9933 128.159 86.7133 128.159 87.62C128.159 88.5267 128.419 89.2533 128.939 89.8C129.459 90.3333 130.119 90.6 130.919 90.6ZM149.452 82.24L144.592 93.66C144.099 94.9 143.485 95.7733 142.752 96.28C142.032 96.7867 141.159 97.04 140.132 97.04C139.572 97.04 139.019 96.9533 138.472 96.78C137.925 96.6067 137.479 96.3667 137.132 96.06L138.272 93.84C138.512 94.0533 138.785 94.22 139.092 94.34C139.412 94.46 139.725 94.52 140.032 94.52C140.459 94.52 140.805 94.4133 141.072 94.2C141.339 94 141.579 93.66 141.792 93.18L141.832 93.08L137.172 82.24H140.392L143.412 89.54L146.452 82.24H149.452ZM155.784 93.16C154.637 93.16 153.604 92.9267 152.684 92.46C151.777 91.98 151.064 91.32 150.544 90.48C150.037 89.64 149.784 88.6867 149.784 87.62C149.784 86.5533 150.037 85.6 150.544 84.76C151.064 83.92 151.777 83.2667 152.684 82.8C153.604 82.32 154.637 82.08 155.784 82.08C156.917 82.08 157.904 82.32 158.744 82.8C159.597 83.2667 160.217 83.94 160.604 84.82L158.184 86.12C157.624 85.1333 156.817 84.64 155.764 84.64C154.951 84.64 154.277 84.9067 153.744 85.44C153.211 85.9733 152.944 86.7 152.944 87.62C152.944 88.54 153.211 89.2667 153.744 89.8C154.277 90.3333 154.951 90.6 155.764 90.6C156.831 90.6 157.637 90.1067 158.184 89.12L160.604 90.44C160.217 91.2933 159.597 91.96 158.744 92.44C157.904 92.92 156.917 93.16 155.784 93.16ZM171.501 84.8H167.861V93H164.761V84.8H161.121V82.24H171.501V84.8ZM179.504 82.08C180.504 82.08 181.411 82.3133 182.224 82.78C183.051 83.2333 183.697 83.88 184.164 84.72C184.631 85.5467 184.864 86.5133 184.864 87.62C184.864 88.7267 184.631 89.7 184.164 90.54C183.697 91.3667 183.051 92.0133 182.224 92.48C181.411 92.9333 180.504 93.16 179.504 93.16C178.131 93.16 177.051 92.7267 176.264 91.86V96.88H173.144V82.24H176.124V83.48C176.897 82.5467 178.024 82.08 179.504 82.08ZM178.964 90.6C179.764 90.6 180.417 90.3333 180.924 89.8C181.444 89.2533 181.704 88.5267 181.704 87.62C181.704 86.7133 181.444 85.9933 180.924 85.46C180.417 84.9133 179.764 84.64 178.964 84.64C178.164 84.64 177.504 84.9133 176.984 85.46C176.477 85.9933 176.224 86.7133 176.224 87.62C176.224 88.5267 176.477 89.2533 176.984 89.8C177.504 90.3333 178.164 90.6 178.964 90.6ZM192.091 93.16C190.957 93.16 189.937 92.9267 189.031 92.46C188.137 91.98 187.437 91.32 186.931 90.48C186.424 89.64 186.171 88.6867 186.171 87.62C186.171 86.5533 186.424 85.6 186.931 84.76C187.437 83.92 188.137 83.2667 189.031 82.8C189.937 82.32 190.957 82.08 192.091 82.08C193.224 82.08 194.237 82.32 195.131 82.8C196.024 83.2667 196.724 83.92 197.231 84.76C197.737 85.6 197.991 86.5533 197.991 87.62C197.991 88.6867 197.737 89.64 197.231 90.48C196.724 91.32 196.024 91.98 195.131 92.46C194.237 92.9267 193.224 93.16 192.091 93.16ZM192.091 90.6C192.891 90.6 193.544 90.3333 194.051 89.8C194.571 89.2533 194.831 88.5267 194.831 87.62C194.831 86.7133 194.571 85.9933 194.051 85.46C193.544 84.9133 192.891 84.64 192.091 84.64C191.291 84.64 190.631 84.9133 190.111 85.46C189.591 85.9933 189.331 86.7133 189.331 87.62C189.331 88.5267 189.591 89.2533 190.111 89.8C190.631 90.3333 191.291 90.6 192.091 90.6ZM200.137 82.24H203.237V88.64L208.477 82.24H211.337V93H208.237V86.6L203.017 93H200.137V82.24ZM205.537 81.08C203.19 81.08 202.01 80.0467 201.997 77.98H204.037C204.05 78.4467 204.177 78.8133 204.417 79.08C204.67 79.3333 205.037 79.46 205.517 79.46C205.997 79.46 206.363 79.3333 206.617 79.08C206.883 78.8133 207.017 78.4467 207.017 77.98H209.097C209.083 80.0467 207.897 81.08 205.537 81.08ZM219.456 93.16C218.309 93.16 217.276 92.9267 216.356 92.46C215.449 91.98 214.736 91.32 214.216 90.48C213.709 89.64 213.456 88.6867 213.456 87.62C213.456 86.5533 213.709 85.6 214.216 84.76C214.736 83.92 215.449 83.2667 216.356 82.8C217.276 82.32 218.309 82.08 219.456 82.08C220.589 82.08 221.576 82.32 222.416 82.8C223.269 83.2667 223.889 83.94 224.276 84.82L221.856 86.12C221.296 85.1333 220.489 84.64 219.436 84.64C218.623 84.64 217.949 84.9067 217.416 85.44C216.883 85.9733 216.616 86.7 216.616 87.62C216.616 88.54 216.883 89.2667 217.416 89.8C217.949 90.3333 218.623 90.6 219.436 90.6C220.503 90.6 221.309 90.1067 221.856 89.12L224.276 90.44C223.889 91.2933 223.269 91.96 222.416 92.44C221.576 92.92 220.589 93.16 219.456 93.16ZM235.173 84.8H231.533V93H228.433V84.8H224.793V82.24H235.173V84.8ZM245.056 87.38C246.323 87.8067 246.956 88.66 246.956 89.94C246.956 90.9133 246.589 91.6667 245.856 92.2C245.123 92.7333 244.029 93 242.576 93H236.836V82.24H242.336C243.683 82.24 244.736 82.4867 245.496 82.98C246.256 83.46 246.636 84.14 246.636 85.02C246.636 85.5533 246.496 86.0267 246.216 86.44C245.949 86.84 245.563 87.1533 245.056 87.38ZM239.696 86.66H242.056C243.149 86.66 243.696 86.2733 243.696 85.5C243.696 84.74 243.149 84.36 242.056 84.36H239.696V86.66ZM242.316 90.88C243.463 90.88 244.036 90.4867 244.036 89.7C244.036 89.2867 243.903 88.9867 243.636 88.8C243.369 88.6 242.949 88.5 242.376 88.5H239.696V90.88H242.316ZM254.317 93.16C253.184 93.16 252.164 92.9267 251.257 92.46C250.364 91.98 249.664 91.32 249.157 90.48C248.651 89.64 248.397 88.6867 248.397 87.62C248.397 86.5533 248.651 85.6 249.157 84.76C249.664 83.92 250.364 83.2667 251.257 82.8C252.164 82.32 253.184 82.08 254.317 82.08C255.451 82.08 256.464 82.32 257.357 82.8C258.251 83.2667 258.951 83.92 259.457 84.76C259.964 85.6 260.217 86.5533 260.217 87.62C260.217 88.6867 259.964 89.64 259.457 90.48C258.951 91.32 258.251 91.98 257.357 92.46C256.464 92.9267 255.451 93.16 254.317 93.16ZM254.317 90.6C255.117 90.6 255.771 90.3333 256.277 89.8C256.797 89.2533 257.057 88.5267 257.057 87.62C257.057 86.7133 256.797 85.9933 256.277 85.46C255.771 84.9133 255.117 84.64 254.317 84.64C253.517 84.64 252.857 84.9133 252.337 85.46C251.817 85.9933 251.557 86.7133 251.557 87.62C251.557 88.5267 251.817 89.2533 252.337 89.8C252.857 90.3333 253.517 90.6 254.317 90.6Z" fill="#141415"/>
</svg>
