<svg width="145" height="98" viewBox="0 0 145 98" fill="none" xmlns="http://www.w3.org/2000/svg">
<rect x="1" y="1" width="72" height="72" stroke="#61AE56" stroke-width="2"/>
<path d="M29.1256 24.8V50H21.9976V30.308H17.3176V24.8H29.1256ZM56.6754 45.176H52.9314V50H45.9834V45.176H32.6634V40.532L43.9674 24.8H51.3474L41.0874 39.524H46.1994V35.24H52.9314V39.524H56.6754V45.176Z" fill="#61AE56"/>
<path d="M64.36 68.24C62.9333 68.24 61.64 67.9333 60.48 67.32C59.3333 66.6933 58.4267 65.8333 57.76 64.74C57.1067 63.6333 56.78 62.3867 56.78 61C56.78 59.6133 57.1067 58.3733 57.76 57.28C58.4267 56.1733 59.3333 55.3133 60.48 54.7C61.64 54.0733 62.94 53.76 64.38 53.76C65.5933 53.76 66.6867 53.9733 67.66 54.4C68.6467 54.8267 69.4733 55.44 70.14 56.24L68.06 58.16C67.1133 57.0667 65.94 56.52 64.54 56.52C63.6733 56.52 62.9 56.7133 62.22 57.1C61.54 57.4733 61.0067 58 60.62 58.68C60.2467 59.36 60.06 60.1333 60.06 61C60.06 61.8667 60.2467 62.64 60.62 63.32C61.0067 64 61.54 64.5333 62.22 64.92C62.9 65.2933 63.6733 65.48 64.54 65.48C65.94 65.48 67.1133 64.9267 68.06 63.82L70.14 65.74C69.4733 66.5533 68.6467 67.1733 67.66 67.6C66.6733 68.0267 65.5733 68.24 64.36 68.24ZM83.7202 65.44V70.32H80.8202V68H73.2602V70.32H70.3602V65.44H70.8002C71.4668 65.4267 71.9268 65.0333 72.1802 64.26C72.4335 63.4867 72.5935 62.3867 72.6602 60.96L72.8002 57.24H82.1802V65.44H83.7202ZM75.4802 61.18C75.4402 62.2733 75.3535 63.1667 75.2202 63.86C75.1002 64.5533 74.8668 65.08 74.5202 65.44H79.0602V59.8H75.5402L75.4802 61.18ZM89.8636 57.08C91.5303 57.08 92.8103 57.48 93.7036 58.28C94.5969 59.0667 95.0436 60.26 95.0436 61.86V68H92.1236V66.66C91.5369 67.66 90.4436 68.16 88.8436 68.16C88.0169 68.16 87.2969 68.02 86.6836 67.74C86.0836 67.46 85.6236 67.0733 85.3036 66.58C84.9836 66.0867 84.8236 65.5267 84.8236 64.9C84.8236 63.9 85.1969 63.1133 85.9436 62.54C86.7036 61.9667 87.8703 61.68 89.4436 61.68H91.9236C91.9236 61 91.7169 60.48 91.3036 60.12C90.8903 59.7467 90.2703 59.56 89.4436 59.56C88.8703 59.56 88.3036 59.6533 87.7436 59.84C87.1969 60.0133 86.7303 60.2533 86.3436 60.56L85.2236 58.38C85.8103 57.9667 86.5103 57.6467 87.3236 57.42C88.1503 57.1933 88.9969 57.08 89.8636 57.08ZM89.6236 66.06C90.1569 66.06 90.6303 65.94 91.0436 65.7C91.4569 65.4467 91.7503 65.08 91.9236 64.6V63.5H89.7836C88.5036 63.5 87.8636 63.92 87.8636 64.76C87.8636 65.16 88.0169 65.48 88.3236 65.72C88.6436 65.9467 89.0769 66.06 89.6236 66.06ZM107.434 57.24V68H104.314V64C103.407 64.4533 102.407 64.68 101.314 64.68C99.8606 64.68 98.7606 64.3533 98.0139 63.7C97.2806 63.0333 96.9139 62.0067 96.9139 60.62V57.24H100.034V60.42C100.034 61.0733 100.201 61.5467 100.534 61.84C100.881 62.1333 101.374 62.28 102.014 62.28C102.827 62.28 103.594 62.1067 104.314 61.76V57.24H107.434ZM114.61 57.08C116.276 57.08 117.556 57.48 118.45 58.28C119.343 59.0667 119.79 60.26 119.79 61.86V68H116.87V66.66C116.283 67.66 115.19 68.16 113.59 68.16C112.763 68.16 112.043 68.02 111.43 67.74C110.83 67.46 110.37 67.0733 110.05 66.58C109.73 66.0867 109.57 65.5267 109.57 64.9C109.57 63.9 109.943 63.1133 110.69 62.54C111.45 61.9667 112.616 61.68 114.19 61.68H116.67C116.67 61 116.463 60.48 116.05 60.12C115.636 59.7467 115.016 59.56 114.19 59.56C113.616 59.56 113.05 59.6533 112.49 59.84C111.943 60.0133 111.476 60.2533 111.09 60.56L109.97 58.38C110.556 57.9667 111.256 57.6467 112.07 57.42C112.896 57.1933 113.743 57.08 114.61 57.08ZM114.37 66.06C114.903 66.06 115.376 65.94 115.79 65.7C116.203 65.4467 116.496 65.08 116.67 64.6V63.5H114.53C113.25 63.5 112.61 63.92 112.61 64.76C112.61 65.16 112.763 65.48 113.07 65.72C113.39 65.9467 113.823 66.06 114.37 66.06ZM62.54 93.16C61.4067 93.16 60.3867 92.9267 59.48 92.46C58.5867 91.98 57.8867 91.32 57.38 90.48C56.8733 89.64 56.62 88.6867 56.62 87.62C56.62 86.5533 56.8733 85.6 57.38 84.76C57.8867 83.92 58.5867 83.2667 59.48 82.8C60.3867 82.32 61.4067 82.08 62.54 82.08C63.6733 82.08 64.6867 82.32 65.58 82.8C66.4733 83.2667 67.1733 83.92 67.68 84.76C68.1867 85.6 68.44 86.5533 68.44 87.62C68.44 88.6867 68.1867 89.64 67.68 90.48C67.1733 91.32 66.4733 91.98 65.58 92.46C64.6867 92.9267 63.6733 93.16 62.54 93.16ZM62.54 90.6C63.34 90.6 63.9933 90.3333 64.5 89.8C65.02 89.2533 65.28 88.5267 65.28 87.62C65.28 86.7133 65.02 85.9933 64.5 85.46C63.9933 84.9133 63.34 84.64 62.54 84.64C61.74 84.64 61.08 84.9133 60.56 85.46C60.04 85.9933 59.78 86.7133 59.78 87.62C59.78 88.5267 60.04 89.2533 60.56 89.8C61.08 90.3333 61.74 90.6 62.54 90.6ZM76.8059 82.98C77.8326 82.98 78.7326 83.1933 79.5059 83.62C80.2793 84.0333 80.8726 84.62 81.2859 85.38C81.7126 86.14 81.9259 87.02 81.9259 88.02C81.9259 89.0467 81.6726 89.96 81.1659 90.76C80.6726 91.5467 79.9793 92.16 79.0859 92.6C78.1926 93.0267 77.1793 93.24 76.0459 93.24C74.1659 93.24 72.6859 92.64 71.6059 91.44C70.5393 90.2267 70.0059 88.4533 70.0059 86.12C70.0059 83.96 70.4726 82.24 71.4059 80.96C72.3526 79.6667 73.7993 78.82 75.7459 78.42L80.8659 77.4L81.2859 80.08L76.7659 80.98C75.5393 81.22 74.6259 81.62 74.0259 82.18C73.4393 82.74 73.0926 83.5333 72.9859 84.56C73.4526 84.0533 74.0126 83.6667 74.6659 83.4C75.3193 83.12 76.0326 82.98 76.8059 82.98ZM76.0659 90.82C76.8659 90.82 77.5059 90.56 77.9859 90.04C78.4793 89.52 78.7259 88.86 78.7259 88.06C78.7259 87.2467 78.4793 86.6 77.9859 86.12C77.5059 85.64 76.8659 85.4 76.0659 85.4C75.2526 85.4 74.5993 85.64 74.1059 86.12C73.6126 86.6 73.3659 87.2467 73.3659 88.06C73.3659 88.8733 73.6193 89.54 74.1259 90.06C74.6326 90.5667 75.2793 90.82 76.0659 90.82ZM91.0523 85.68C92.439 85.68 93.499 85.9933 94.2323 86.62C94.979 87.2333 95.3523 88.1067 95.3523 89.24C95.3523 90.4267 94.9323 91.3533 94.0923 92.02C93.2657 92.6733 92.1057 93 90.6123 93H85.4123V84.8H82.3123V82.24H88.5323V85.68H91.0523ZM90.4323 90.8C91.0057 90.8 91.439 90.66 91.7323 90.38C92.0257 90.1 92.1723 89.7 92.1723 89.18C92.1723 88.1933 91.5923 87.7 90.4323 87.7H88.5323V90.8H90.4323ZM107.745 87.66C107.745 87.7 107.725 87.98 107.685 88.5H99.5452C99.6918 89.1667 100.038 89.6933 100.585 90.08C101.132 90.4667 101.812 90.66 102.625 90.66C103.185 90.66 103.678 90.58 104.105 90.42C104.545 90.2467 104.952 89.98 105.325 89.62L106.985 91.42C105.972 92.58 104.492 93.16 102.545 93.16C101.332 93.16 100.258 92.9267 99.3252 92.46C98.3918 91.98 97.6718 91.32 97.1652 90.48C96.6585 89.64 96.4052 88.6867 96.4052 87.62C96.4052 86.5667 96.6518 85.62 97.1452 84.78C97.6518 83.9267 98.3385 83.2667 99.2052 82.8C100.085 82.32 101.065 82.08 102.145 82.08C103.198 82.08 104.152 82.3067 105.005 82.76C105.858 83.2133 106.525 83.8667 107.005 84.72C107.498 85.56 107.745 86.54 107.745 87.66ZM102.165 84.44C101.458 84.44 100.865 84.64 100.385 85.04C99.9052 85.44 99.6118 85.9867 99.5052 86.68H104.805C104.698 86 104.405 85.46 103.925 85.06C103.445 84.6467 102.858 84.44 102.165 84.44ZM114.877 88.92H113.257V93H110.137V82.24H113.257V86.42H114.937L117.857 82.24H121.177L117.417 87.4L121.437 93H117.757L114.877 88.92ZM131.911 84.8H128.271V93H125.171V84.8H121.531V82.24H131.911V84.8ZM137.754 82.08C139.421 82.08 140.701 82.48 141.594 83.28C142.488 84.0667 142.934 85.26 142.934 86.86V93H140.014V91.66C139.428 92.66 138.334 93.16 136.734 93.16C135.908 93.16 135.188 93.02 134.574 92.74C133.974 92.46 133.514 92.0733 133.194 91.58C132.874 91.0867 132.714 90.5267 132.714 89.9C132.714 88.9 133.088 88.1133 133.834 87.54C134.594 86.9667 135.761 86.68 137.334 86.68H139.814C139.814 86 139.608 85.48 139.194 85.12C138.781 84.7467 138.161 84.56 137.334 84.56C136.761 84.56 136.194 84.6533 135.634 84.84C135.088 85.0133 134.621 85.2533 134.234 85.56L133.114 83.38C133.701 82.9667 134.401 82.6467 135.214 82.42C136.041 82.1933 136.888 82.08 137.754 82.08ZM137.514 91.06C138.048 91.06 138.521 90.94 138.934 90.7C139.348 90.4467 139.641 90.08 139.814 89.6V88.5H137.674C136.394 88.5 135.754 88.92 135.754 89.76C135.754 90.16 135.908 90.48 136.214 90.72C136.534 90.9467 136.968 91.06 137.514 91.06Z" fill="#141415"/>
</svg>
