<svg width="147" height="96" viewBox="0 0 147 96" fill="none" xmlns="http://www.w3.org/2000/svg">
<rect x="1" y="1" width="72" height="72" stroke="#61AE56" stroke-width="2"/>
<path d="M68.48 66L68.46 57.62L64.34 64.52H62.9L58.78 57.78V66H55.74V52H58.42L63.66 60.7L68.82 52H71.5L71.52 66H68.48ZM79.7978 66.16C78.6645 66.16 77.6445 65.9267 76.7378 65.46C75.8445 64.98 75.1445 64.32 74.6378 63.48C74.1311 62.64 73.8778 61.6867 73.8778 60.62C73.8778 59.5533 74.1311 58.6 74.6378 57.76C75.1445 56.92 75.8445 56.2667 76.7378 55.8C77.6445 55.32 78.6645 55.08 79.7978 55.08C80.9311 55.08 81.9445 55.32 82.8378 55.8C83.7311 56.2667 84.4311 56.92 84.9378 57.76C85.4445 58.6 85.6978 59.5533 85.6978 60.62C85.6978 61.6867 85.4445 62.64 84.9378 63.48C84.4311 64.32 83.7311 64.98 82.8378 65.46C81.9445 65.9267 80.9311 66.16 79.7978 66.16ZM79.7978 63.6C80.5978 63.6 81.2511 63.3333 81.7578 62.8C82.2778 62.2533 82.5378 61.5267 82.5378 60.62C82.5378 59.7133 82.2778 58.9933 81.7578 58.46C81.2511 57.9133 80.5978 57.64 79.7978 57.64C78.9978 57.64 78.3378 57.9133 77.8178 58.46C77.2978 58.9933 77.0378 59.7133 77.0378 60.62C77.0378 61.5267 77.2978 62.2533 77.8178 62.8C78.3378 63.3333 78.9978 63.6 79.7978 63.6ZM87.8438 55.24H90.9438V59.44H95.6238V55.24H98.7438V66H95.6238V61.98H90.9438V66H87.8438V55.24ZM110.77 57.8H107.13V66H104.03V57.8H100.39V55.24H110.77V57.8ZM116.614 55.08C118.28 55.08 119.56 55.48 120.454 56.28C121.347 57.0667 121.794 58.26 121.794 59.86V66H118.874V64.66C118.287 65.66 117.194 66.16 115.594 66.16C114.767 66.16 114.047 66.02 113.434 65.74C112.834 65.46 112.374 65.0733 112.054 64.58C111.734 64.0867 111.574 63.5267 111.574 62.9C111.574 61.9 111.947 61.1133 112.694 60.54C113.454 59.9667 114.62 59.68 116.194 59.68H118.674C118.674 59 118.467 58.48 118.054 58.12C117.64 57.7467 117.02 57.56 116.194 57.56C115.62 57.56 115.054 57.6533 114.494 57.84C113.947 58.0133 113.48 58.2533 113.094 58.56L111.974 56.38C112.56 55.9667 113.26 55.6467 114.074 55.42C114.9 55.1933 115.747 55.08 116.614 55.08ZM116.374 64.06C116.907 64.06 117.38 63.94 117.794 63.7C118.207 63.4467 118.5 63.08 118.674 62.6V61.5H116.534C115.254 61.5 114.614 61.92 114.614 62.76C114.614 63.16 114.767 63.48 115.074 63.72C115.394 63.9467 115.827 64.06 116.374 64.06ZM135.164 61.92H133.664V66H130.584V61.92H129.084L126.804 66H123.124L126.504 60.44L123.364 55.24H126.664L129.044 59.42H130.584V55.24H133.664V59.42H135.184L137.584 55.24H140.884L137.744 60.44L141.144 66H137.444L135.164 61.92ZM60.62 91.16C59.4733 91.16 58.44 90.9267 57.52 90.46C56.6133 89.98 55.9 89.32 55.38 88.48C54.8733 87.64 54.62 86.6867 54.62 85.62C54.62 84.5533 54.8733 83.6 55.38 82.76C55.9 81.92 56.6133 81.2667 57.52 80.8C58.44 80.32 59.4733 80.08 60.62 80.08C61.7533 80.08 62.74 80.32 63.58 80.8C64.4333 81.2667 65.0533 81.94 65.44 82.82L63.02 84.12C62.46 83.1333 61.6533 82.64 60.6 82.64C59.7867 82.64 59.1133 82.9067 58.58 83.44C58.0467 83.9733 57.78 84.7 57.78 85.62C57.78 86.54 58.0467 87.2667 58.58 87.8C59.1133 88.3333 59.7867 88.6 60.6 88.6C61.6667 88.6 62.4733 88.1067 63.02 87.12L65.44 88.44C65.0533 89.2933 64.4333 89.96 63.58 90.44C62.74 90.92 61.7533 91.16 60.62 91.16ZM77.6592 85.66C77.6592 85.7 77.6392 85.98 77.5992 86.5H69.4592C69.6059 87.1667 69.9526 87.6933 70.4992 88.08C71.0459 88.4667 71.7259 88.66 72.5392 88.66C73.0992 88.66 73.5926 88.58 74.0192 88.42C74.4592 88.2467 74.8659 87.98 75.2392 87.62L76.8992 89.42C75.8859 90.58 74.4059 91.16 72.4592 91.16C71.2459 91.16 70.1726 90.9267 69.2392 90.46C68.3059 89.98 67.5859 89.32 67.0792 88.48C66.5726 87.64 66.3192 86.6867 66.3192 85.62C66.3192 84.5667 66.5659 83.62 67.0592 82.78C67.5659 81.9267 68.2526 81.2667 69.1192 80.8C69.9992 80.32 70.9792 80.08 72.0592 80.08C73.1126 80.08 74.0659 80.3067 74.9192 80.76C75.7726 81.2133 76.4392 81.8667 76.9192 82.72C77.4126 83.56 77.6592 84.54 77.6592 85.66ZM72.0792 82.44C71.3726 82.44 70.7792 82.64 70.2992 83.04C69.8192 83.44 69.5259 83.9867 69.4192 84.68H74.7192C74.6126 84 74.3192 83.46 73.8392 83.06C73.3592 82.6467 72.7726 82.44 72.0792 82.44ZM90.7508 80.24V91H87.6308V82.8H83.1508V91H80.0508V80.24H90.7508ZM102.782 82.8H99.1422V91H96.0422V82.8H92.4022V80.24H102.782V82.8ZM104.445 80.24H107.545V86.64L112.785 80.24H115.645V91H112.545V84.6L107.325 91H104.445V80.24ZM123.385 86.92H121.765V91H118.645V80.24H121.765V84.42H123.445L126.365 80.24H129.685L125.925 85.4L129.945 91H126.265L123.385 86.92ZM135.461 80.08C137.128 80.08 138.408 80.48 139.301 81.28C140.195 82.0667 140.641 83.26 140.641 84.86V91H137.721V89.66C137.135 90.66 136.041 91.16 134.441 91.16C133.615 91.16 132.895 91.02 132.281 90.74C131.681 90.46 131.221 90.0733 130.901 89.58C130.581 89.0867 130.421 88.5267 130.421 87.9C130.421 86.9 130.795 86.1133 131.541 85.54C132.301 84.9667 133.468 84.68 135.041 84.68H137.521C137.521 84 137.315 83.48 136.901 83.12C136.488 82.7467 135.868 82.56 135.041 82.56C134.468 82.56 133.901 82.6533 133.341 82.84C132.795 83.0133 132.328 83.2533 131.941 83.56L130.821 81.38C131.408 80.9667 132.108 80.6467 132.921 80.42C133.748 80.1933 134.595 80.08 135.461 80.08ZM135.221 89.06C135.755 89.06 136.228 88.94 136.641 88.7C137.055 88.4467 137.348 88.08 137.521 87.6V86.5H135.381C134.101 86.5 133.461 86.92 133.461 87.76C133.461 88.16 133.615 88.48 133.921 88.72C134.241 88.9467 134.675 89.06 135.221 89.06Z" fill="#141415"/>
<path d="M46.9246 44.348V50H27.3046V45.536L36.7366 36.716C37.6486 35.852 38.2606 35.12 38.5726 34.52C38.8846 33.896 39.0406 33.272 39.0406 32.648C39.0406 31.832 38.7646 31.196 38.2126 30.74C37.6606 30.284 36.8566 30.056 35.8006 30.056C34.8646 30.056 34.0006 30.272 33.2086 30.704C32.4406 31.112 31.8046 31.712 31.3006 32.504L26.0086 29.552C26.9926 27.92 28.3726 26.636 30.1486 25.7C31.9246 24.764 34.0246 24.296 36.4486 24.296C38.3686 24.296 40.0606 24.608 41.5246 25.232C43.0126 25.856 44.1646 26.756 44.9806 27.932C45.8206 29.084 46.2406 30.428 46.2406 31.964C46.2406 33.332 45.9406 34.628 45.3406 35.852C44.7646 37.052 43.6366 38.42 41.9566 39.956L37.2046 44.348H46.9246Z" fill="#61AE56"/>
</svg>
