<svg width="208" height="96" viewBox="0 0 208 96" fill="none" xmlns="http://www.w3.org/2000/svg">
<rect x="1" y="1" width="72" height="72" stroke="#61AE56" stroke-width="2"/>
<path d="M66.22 63H59.72L58.48 66H55.16L61.4 52H64.6L70.86 66H67.46L66.22 63ZM65.2 60.54L62.98 55.18L60.76 60.54H65.2ZM78.8166 55.08C79.8166 55.08 80.7232 55.3133 81.5366 55.78C82.3632 56.2333 83.0099 56.88 83.4766 57.72C83.9432 58.5467 84.1766 59.5133 84.1766 60.62C84.1766 61.7267 83.9432 62.7 83.4766 63.54C83.0099 64.3667 82.3632 65.0133 81.5366 65.48C80.7232 65.9333 79.8166 66.16 78.8166 66.16C77.4432 66.16 76.3632 65.7267 75.5766 64.86V69.88H72.4566V55.24H75.4366V56.48C76.2099 55.5467 77.3366 55.08 78.8166 55.08ZM78.2766 63.6C79.0766 63.6 79.7299 63.3333 80.2366 62.8C80.7566 62.2533 81.0166 61.5267 81.0166 60.62C81.0166 59.7133 80.7566 58.9933 80.2366 58.46C79.7299 57.9133 79.0766 57.64 78.2766 57.64C77.4766 57.64 76.8166 57.9133 76.2966 58.46C75.7899 58.9933 75.5366 59.7133 75.5366 60.62C75.5366 61.5267 75.7899 62.2533 76.2966 62.8C76.8166 63.3333 77.4766 63.6 78.2766 63.6ZM95.0127 57.8H91.3727V66H88.2727V57.8H84.6327V55.24H95.0127V57.8ZM106.687 60.66C106.687 60.7 106.667 60.98 106.627 61.5H98.4866C98.6332 62.1667 98.9799 62.6933 99.5266 63.08C100.073 63.4667 100.753 63.66 101.567 63.66C102.127 63.66 102.62 63.58 103.047 63.42C103.487 63.2467 103.893 62.98 104.267 62.62L105.927 64.42C104.913 65.58 103.433 66.16 101.487 66.16C100.273 66.16 99.1999 65.9267 98.2666 65.46C97.3332 64.98 96.6132 64.32 96.1066 63.48C95.5999 62.64 95.3466 61.6867 95.3466 60.62C95.3466 59.5667 95.5932 58.62 96.0866 57.78C96.5932 56.9267 97.2799 56.2667 98.1466 55.8C99.0266 55.32 100.007 55.08 101.087 55.08C102.14 55.08 103.093 55.3067 103.947 55.76C104.8 56.2133 105.467 56.8667 105.947 57.72C106.44 58.56 106.687 59.54 106.687 60.66ZM101.107 57.44C100.4 57.44 99.8066 57.64 99.3266 58.04C98.8466 58.44 98.5532 58.9867 98.4466 59.68H103.747C103.64 59 103.347 58.46 102.867 58.06C102.387 57.6467 101.8 57.44 101.107 57.44ZM115.921 60.4C116.561 60.6 117.055 60.9067 117.401 61.32C117.761 61.7333 117.941 62.2267 117.941 62.8C117.941 63.48 117.708 64.08 117.241 64.6C116.775 65.1067 116.135 65.5 115.321 65.78C114.508 66.06 113.588 66.2 112.561 66.2C111.721 66.2 110.895 66.1133 110.081 65.94C109.268 65.7667 108.515 65.5067 107.821 65.16L108.661 62.98C109.795 63.5267 111.048 63.8 112.421 63.8C113.155 63.8 113.728 63.6933 114.141 63.48C114.568 63.2533 114.781 62.94 114.781 62.54C114.781 62.1933 114.635 61.9333 114.341 61.76C114.048 61.5733 113.621 61.48 113.061 61.48H110.861V59.54H112.781C113.328 59.54 113.748 59.4533 114.041 59.28C114.335 59.1067 114.481 58.8533 114.481 58.52C114.481 58.1733 114.295 57.9067 113.921 57.72C113.561 57.5333 113.041 57.44 112.361 57.44C111.321 57.44 110.188 57.6867 108.961 58.18L108.201 56.02C109.695 55.3667 111.148 55.04 112.561 55.04C113.535 55.04 114.401 55.16 115.161 55.4C115.935 55.64 116.541 55.9933 116.981 56.46C117.421 56.9133 117.641 57.4467 117.641 58.06C117.641 58.5667 117.488 59.0267 117.181 59.44C116.875 59.84 116.455 60.16 115.921 60.4ZM120.211 55.24H123.311V61.64L128.551 55.24H131.411V66H128.311V59.6L123.091 66H120.211V55.24ZM138.59 55.08C140.257 55.08 141.537 55.48 142.43 56.28C143.323 57.0667 143.77 58.26 143.77 59.86V66H140.85V64.66C140.263 65.66 139.17 66.16 137.57 66.16C136.743 66.16 136.023 66.02 135.41 65.74C134.81 65.46 134.35 65.0733 134.03 64.58C133.71 64.0867 133.55 63.5267 133.55 62.9C133.55 61.9 133.923 61.1133 134.67 60.54C135.43 59.9667 136.597 59.68 138.17 59.68H140.65C140.65 59 140.443 58.48 140.03 58.12C139.617 57.7467 138.997 57.56 138.17 57.56C137.597 57.56 137.03 57.6533 136.47 57.84C135.923 58.0133 135.457 58.2533 135.07 58.56L133.95 56.38C134.537 55.9667 135.237 55.6467 136.05 55.42C136.877 55.1933 137.723 55.08 138.59 55.08ZM138.35 64.06C138.883 64.06 139.357 63.94 139.77 63.7C140.183 63.4467 140.477 63.08 140.65 62.6V61.5H138.51C137.23 61.5 136.59 61.92 136.59 62.76C136.59 63.16 136.743 63.48 137.05 63.72C137.37 63.9467 137.803 64.06 138.35 64.06ZM146.48 55.24H149.58V59.44H154.26V55.24H157.38V66H154.26V61.98H149.58V66H146.48V55.24ZM165.487 66.16C164.341 66.16 163.307 65.9267 162.387 65.46C161.481 64.98 160.767 64.32 160.247 63.48C159.741 62.64 159.487 61.6867 159.487 60.62C159.487 59.5533 159.741 58.6 160.247 57.76C160.767 56.92 161.481 56.2667 162.387 55.8C163.307 55.32 164.341 55.08 165.487 55.08C166.621 55.08 167.607 55.32 168.447 55.8C169.301 56.2667 169.921 56.94 170.307 57.82L167.887 59.12C167.327 58.1333 166.521 57.64 165.467 57.64C164.654 57.64 163.981 57.9067 163.447 58.44C162.914 58.9733 162.647 59.7 162.647 60.62C162.647 61.54 162.914 62.2667 163.447 62.8C163.981 63.3333 164.654 63.6 165.467 63.6C166.534 63.6 167.341 63.1067 167.887 62.12L170.307 63.44C169.921 64.2933 169.301 64.96 168.447 65.44C167.607 65.92 166.621 66.16 165.487 66.16ZM176.943 61.92H175.323V66H172.203V55.24H175.323V59.42H177.003L179.923 55.24H183.243L179.483 60.4L183.503 66H179.823L176.943 61.92ZM189.02 55.08C190.687 55.08 191.967 55.48 192.86 56.28C193.753 57.0667 194.2 58.26 194.2 59.86V66H191.28V64.66C190.693 65.66 189.6 66.16 188 66.16C187.173 66.16 186.453 66.02 185.84 65.74C185.24 65.46 184.78 65.0733 184.46 64.58C184.14 64.0867 183.98 63.5267 183.98 62.9C183.98 61.9 184.353 61.1133 185.1 60.54C185.86 59.9667 187.027 59.68 188.6 59.68H191.08C191.08 59 190.873 58.48 190.46 58.12C190.047 57.7467 189.427 57.56 188.6 57.56C188.027 57.56 187.46 57.6533 186.9 57.84C186.353 58.0133 185.887 58.2533 185.5 58.56L184.38 56.38C184.967 55.9667 185.667 55.6467 186.48 55.42C187.307 55.1933 188.153 55.08 189.02 55.08ZM188.78 64.06C189.313 64.06 189.787 63.94 190.2 63.7C190.613 63.4467 190.907 63.08 191.08 62.6V61.5H188.94C187.66 61.5 187.02 61.92 187.02 62.76C187.02 63.16 187.173 63.48 187.48 63.72C187.8 63.9467 188.233 64.06 188.78 64.06ZM206.47 55.24V66H203.69V62.92H201.39L199.35 66H196.03L198.49 62.48C197.743 62.1867 197.17 61.7667 196.77 61.22C196.383 60.66 196.19 59.9867 196.19 59.2C196.19 57.9333 196.643 56.96 197.55 56.28C198.47 55.5867 199.73 55.24 201.33 55.24H206.47ZM201.39 57.78C200.723 57.78 200.217 57.9 199.87 58.14C199.537 58.38 199.37 58.7667 199.37 59.3C199.37 59.8333 199.53 60.2267 199.85 60.48C200.183 60.72 200.683 60.84 201.35 60.84H203.69V57.78H201.39ZM61.62 91.16C60.4733 91.16 59.44 90.9267 58.52 90.46C57.6133 89.98 56.9 89.32 56.38 88.48C55.8733 87.64 55.62 86.6867 55.62 85.62C55.62 84.5533 55.8733 83.6 56.38 82.76C56.9 81.92 57.6133 81.2667 58.52 80.8C59.44 80.32 60.4733 80.08 61.62 80.08C62.7533 80.08 63.74 80.32 64.58 80.8C65.4333 81.2667 66.0533 81.94 66.44 82.82L64.02 84.12C63.46 83.1333 62.6533 82.64 61.6 82.64C60.7867 82.64 60.1133 82.9067 59.58 83.44C59.0467 83.9733 58.78 84.7 58.78 85.62C58.78 86.54 59.0467 87.2667 59.58 87.8C60.1133 88.3333 60.7867 88.6 61.6 88.6C62.6667 88.6 63.4733 88.1067 64.02 87.12L66.44 88.44C66.0533 89.2933 65.4333 89.96 64.58 90.44C63.74 90.92 62.7533 91.16 61.62 91.16ZM73.0759 86.92H71.4559V91H68.3359V80.24H71.4559V84.42H73.1359L76.0559 80.24H79.3759L75.6159 85.4L79.6359 91H75.9559L73.0759 86.92ZM89.388 85.38C90.6546 85.8067 91.288 86.66 91.288 87.94C91.288 88.9133 90.9213 89.6667 90.188 90.2C89.4546 90.7333 88.3613 91 86.908 91H81.168V80.24H86.668C88.0146 80.24 89.068 80.4867 89.828 80.98C90.588 81.46 90.968 82.14 90.968 83.02C90.968 83.5533 90.828 84.0267 90.548 84.44C90.2813 84.84 89.8946 85.1533 89.388 85.38ZM84.028 84.66H86.388C87.4813 84.66 88.028 84.2733 88.028 83.5C88.028 82.74 87.4813 82.36 86.388 82.36H84.028V84.66ZM86.648 88.88C87.7946 88.88 88.368 88.4867 88.368 87.7C88.368 87.2867 88.2346 86.9867 87.968 86.8C87.7013 86.6 87.2813 86.5 86.708 86.5H84.028V88.88H86.648ZM97.7894 80.08C99.456 80.08 100.736 80.48 101.629 81.28C102.523 82.0667 102.969 83.26 102.969 84.86V91H100.049V89.66C99.4627 90.66 98.3694 91.16 96.7694 91.16C95.9427 91.16 95.2227 91.02 94.6094 90.74C94.0094 90.46 93.5494 90.0733 93.2294 89.58C92.9094 89.0867 92.7494 88.5267 92.7494 87.9C92.7494 86.9 93.1227 86.1133 93.8694 85.54C94.6294 84.9667 95.796 84.68 97.3694 84.68H99.8494C99.8494 84 99.6427 83.48 99.2294 83.12C98.816 82.7467 98.196 82.56 97.3694 82.56C96.796 82.56 96.2294 82.6533 95.6694 82.84C95.1227 83.0133 94.656 83.2533 94.2694 83.56L93.1494 81.38C93.736 80.9667 94.436 80.6467 95.2494 80.42C96.076 80.1933 96.9227 80.08 97.7894 80.08ZM97.5494 89.06C98.0827 89.06 98.556 88.94 98.9694 88.7C99.3827 88.4467 99.676 88.08 99.8494 87.6V86.5H97.7094C96.4294 86.5 95.7894 86.92 95.7894 87.76C95.7894 88.16 95.9427 88.48 96.2494 88.72C96.5694 88.9467 97.0027 89.06 97.5494 89.06ZM116.34 86.92H114.84V91H111.76V86.92H110.26L107.98 91H104.3L107.68 85.44L104.54 80.24H107.84L110.22 84.42H111.76V80.24H114.84V84.42H116.36L118.76 80.24H122.06L118.92 85.44L122.32 91H118.62L116.34 86.92ZM123.941 80.24H127.041V86.64L132.281 80.24H135.141V91H132.041V84.6L126.821 91H123.941V80.24ZM138.141 80.24H141.241V84.44H145.921V80.24H149.041V91H145.921V86.98H141.241V91H138.141V80.24ZM156.207 80.08C157.874 80.08 159.154 80.48 160.047 81.28C160.941 82.0667 161.387 83.26 161.387 84.86V91H158.467V89.66C157.881 90.66 156.787 91.16 155.187 91.16C154.361 91.16 153.641 91.02 153.027 90.74C152.427 90.46 151.967 90.0733 151.647 89.58C151.327 89.0867 151.167 88.5267 151.167 87.9C151.167 86.9 151.541 86.1133 152.287 85.54C153.047 84.9667 154.214 84.68 155.787 84.68H158.267C158.267 84 158.061 83.48 157.647 83.12C157.234 82.7467 156.614 82.56 155.787 82.56C155.214 82.56 154.647 82.6533 154.087 82.84C153.541 83.0133 153.074 83.2533 152.687 83.56L151.567 81.38C152.154 80.9667 152.854 80.6467 153.667 80.42C154.494 80.1933 155.341 80.08 156.207 80.08ZM155.967 89.06C156.501 89.06 156.974 88.94 157.387 88.7C157.801 88.4467 158.094 88.08 158.267 87.6V86.5H156.127C154.847 86.5 154.207 86.92 154.207 87.76C154.207 88.16 154.361 88.48 154.667 88.72C154.987 88.9467 155.421 89.06 155.967 89.06Z" fill="#141415"/>
<path d="M40.3023 34.88C42.3903 35.312 43.9863 36.176 45.0903 37.472C46.2183 38.744 46.7823 40.292 46.7823 42.116C46.7823 43.604 46.3743 44.984 45.5583 46.256C44.7663 47.528 43.5423 48.56 41.8863 49.352C40.2543 50.12 38.2263 50.504 35.8023 50.504C34.0263 50.504 32.2623 50.288 30.5103 49.856C28.7823 49.424 27.2823 48.812 26.0103 48.02L28.6023 42.656C29.5863 43.328 30.6903 43.844 31.9143 44.204C33.1623 44.564 34.3863 44.744 35.5863 44.744C36.8103 44.744 37.7823 44.516 38.5023 44.06C39.2223 43.604 39.5823 42.956 39.5823 42.116C39.5823 40.484 38.2983 39.668 35.7303 39.668H32.7423V35.168L37.2423 30.308H27.3063V24.8H45.5223V29.264L40.3023 34.88Z" fill="#61AE56"/>
</svg>
