<svg width="189" height="96" viewBox="0 0 189 96" fill="none" xmlns="http://www.w3.org/2000/svg">
<rect x="1" y="1" width="72" height="72" stroke="#61AE56" stroke-width="2"/>
<path d="M63.7 58.7C64.5133 58.98 65.1467 59.42 65.6 60.02C66.0667 60.6067 66.3 61.2933 66.3 62.08C66.3 62.9333 66.02 63.6733 65.46 64.3C64.9 64.9267 64.14 65.4067 63.18 65.74C62.2333 66.0733 61.1933 66.24 60.06 66.24C59.1 66.24 58.14 66.12 57.18 65.88C56.2333 65.64 55.3333 65.2733 54.48 64.78L55.48 62.46C56.0933 62.8333 56.7667 63.12 57.5 63.32C58.2467 63.5067 58.9733 63.6 59.68 63.6C60.64 63.6 61.4333 63.4267 62.06 63.08C62.7 62.7333 63.02 62.2467 63.02 61.62C63.02 61.1 62.8 60.7067 62.36 60.44C61.9333 60.1733 61.3467 60.04 60.6 60.04H57.18V57.6H60.36C61.0133 57.6 61.52 57.4667 61.88 57.2C62.2533 56.9333 62.44 56.5667 62.44 56.1C62.44 55.5533 62.1733 55.1267 61.64 54.82C61.12 54.5133 60.4467 54.36 59.62 54.36C59.0067 54.36 58.3733 54.4467 57.72 54.62C57.0667 54.78 56.4467 55.0267 55.86 55.36L54.88 52.84C56.36 52.08 57.96 51.7 59.68 51.7C60.7733 51.7 61.78 51.86 62.7 52.18C63.62 52.5 64.3533 52.9667 64.9 53.58C65.4467 54.1933 65.72 54.9067 65.72 55.72C65.72 56.3867 65.54 56.98 65.18 57.5C64.82 58.02 64.3267 58.42 63.7 58.7ZM72.805 55.08C74.4717 55.08 75.7517 55.48 76.645 56.28C77.5383 57.0667 77.985 58.26 77.985 59.86V66H75.065V64.66C74.4783 65.66 73.385 66.16 71.785 66.16C70.9583 66.16 70.2383 66.02 69.625 65.74C69.025 65.46 68.565 65.0733 68.245 64.58C67.925 64.0867 67.765 63.5267 67.765 62.9C67.765 61.9 68.1383 61.1133 68.885 60.54C69.645 59.9667 70.8117 59.68 72.385 59.68H74.865C74.865 59 74.6583 58.48 74.245 58.12C73.8317 57.7467 73.2117 57.56 72.385 57.56C71.8117 57.56 71.245 57.6533 70.685 57.84C70.1383 58.0133 69.6717 58.2533 69.285 58.56L68.165 56.38C68.7517 55.9667 69.4517 55.6467 70.265 55.42C71.0917 55.1933 71.9383 55.08 72.805 55.08ZM72.565 64.06C73.0983 64.06 73.5717 63.94 73.985 63.7C74.3983 63.4467 74.6917 63.08 74.865 62.6V61.5H72.725C71.445 61.5 70.805 61.92 70.805 62.76C70.805 63.16 70.9583 63.48 71.265 63.72C71.585 63.9467 72.0183 64.06 72.565 64.06ZM85.4353 61.92H83.8153V66H80.6953V55.24H83.8153V59.42H85.4953L88.4153 55.24H91.7353L87.9753 60.4L91.9953 66H88.3153L85.4353 61.92ZM103.847 55.24V66H100.727V57.8H97.3273L97.2273 59.7C97.174 61.1133 97.0407 62.2867 96.8273 63.22C96.614 64.1533 96.2673 64.8867 95.7873 65.42C95.3073 65.9533 94.6407 66.22 93.7873 66.22C93.334 66.22 92.794 66.14 92.1673 65.98L92.3273 63.42C92.5407 63.4467 92.694 63.46 92.7873 63.46C93.254 63.46 93.6007 63.2933 93.8273 62.96C94.0673 62.6133 94.2273 62.18 94.3073 61.66C94.3873 61.1267 94.4473 60.4267 94.4873 59.56L94.6473 55.24H103.847ZM111.028 55.08C112.694 55.08 113.974 55.48 114.868 56.28C115.761 57.0667 116.208 58.26 116.208 59.86V66H113.288V64.66C112.701 65.66 111.608 66.16 110.008 66.16C109.181 66.16 108.461 66.02 107.848 65.74C107.248 65.46 106.788 65.0733 106.468 64.58C106.148 64.0867 105.988 63.5267 105.988 62.9C105.988 61.9 106.361 61.1133 107.108 60.54C107.868 59.9667 109.034 59.68 110.608 59.68H113.088C113.088 59 112.881 58.48 112.468 58.12C112.054 57.7467 111.434 57.56 110.608 57.56C110.034 57.56 109.468 57.6533 108.908 57.84C108.361 58.0133 107.894 58.2533 107.508 58.56L106.388 56.38C106.974 55.9667 107.674 55.6467 108.488 55.42C109.314 55.1933 110.161 55.08 111.028 55.08ZM110.788 64.06C111.321 64.06 111.794 63.94 112.208 63.7C112.621 63.4467 112.914 63.08 113.088 62.6V61.5H110.948C109.668 61.5 109.028 61.92 109.028 62.76C109.028 63.16 109.181 63.48 109.488 63.72C109.808 63.9467 110.241 64.06 110.788 64.06ZM130.978 63.44V68.32H128.078V66H120.518V68.32H117.618V63.44H118.058C118.725 63.4267 119.185 63.0333 119.438 62.26C119.691 61.4867 119.851 60.3867 119.918 58.96L120.058 55.24H129.438V63.44H130.978ZM122.738 59.18C122.698 60.2733 122.611 61.1667 122.478 61.86C122.358 62.5533 122.125 63.08 121.778 63.44H126.318V57.8H122.798L122.738 59.18ZM137.681 61.92H136.061V66H132.941V55.24H136.061V59.42H137.741L140.661 55.24H143.981L140.221 60.4L144.241 66H140.561L137.681 61.92ZM149.758 55.08C151.425 55.08 152.705 55.48 153.598 56.28C154.491 57.0667 154.938 58.26 154.938 59.86V66H152.018V64.66C151.431 65.66 150.338 66.16 148.738 66.16C147.911 66.16 147.191 66.02 146.578 65.74C145.978 65.46 145.518 65.0733 145.198 64.58C144.878 64.0867 144.718 63.5267 144.718 62.9C144.718 61.9 145.091 61.1133 145.838 60.54C146.598 59.9667 147.765 59.68 149.338 59.68H151.818C151.818 59 151.611 58.48 151.198 58.12C150.785 57.7467 150.165 57.56 149.338 57.56C148.765 57.56 148.198 57.6533 147.638 57.84C147.091 58.0133 146.625 58.2533 146.238 58.56L145.118 56.38C145.705 55.9667 146.405 55.6467 147.218 55.42C148.045 55.1933 148.891 55.08 149.758 55.08ZM149.518 64.06C150.051 64.06 150.525 63.94 150.938 63.7C151.351 63.4467 151.645 63.08 151.818 62.6V61.5H149.678C148.398 61.5 147.758 61.92 147.758 62.76C147.758 63.16 147.911 63.48 148.218 63.72C148.538 63.9467 148.971 64.06 149.518 64.06ZM70.36 85.58C70.36 87.2467 69.8 88.5667 68.68 89.54C67.5733 90.5 65.9867 91.0533 63.92 91.2V94.88H61.06V91.2C58.9933 91.0533 57.4 90.5067 56.28 89.56C55.1733 88.6 54.62 87.2733 54.62 85.58C54.62 83.9133 55.1667 82.62 56.26 81.7C57.3667 80.78 58.9667 80.2467 61.06 80.1V76.16H63.92V80.1C65.9867 80.2467 67.5733 80.7867 68.68 81.72C69.8 82.6533 70.36 83.94 70.36 85.58ZM57.64 85.58C57.64 86.54 57.9133 87.28 58.46 87.8C59.0067 88.32 59.8733 88.6467 61.06 88.78V82.52C59.8733 82.64 59.0067 82.9533 58.46 83.46C57.9133 83.9533 57.64 84.66 57.64 85.58ZM63.92 88.78C65.1067 88.6467 65.9733 88.32 66.52 87.8C67.08 87.28 67.36 86.54 67.36 85.58C67.36 84.66 67.08 83.9533 66.52 83.46C65.9733 82.9533 65.1067 82.64 63.92 82.52V88.78ZM82.9597 80.24L78.0997 91.66C77.6064 92.9 76.993 93.7733 76.2597 94.28C75.5397 94.7867 74.6664 95.04 73.6397 95.04C73.0797 95.04 72.5264 94.9533 71.9797 94.78C71.433 94.6067 70.9864 94.3667 70.6397 94.06L71.7797 91.84C72.0197 92.0533 72.293 92.22 72.5997 92.34C72.9197 92.46 73.233 92.52 73.5397 92.52C73.9664 92.52 74.313 92.4133 74.5797 92.2C74.8464 92 75.0864 91.66 75.2997 91.18L75.3397 91.08L70.6797 80.24H73.8997L76.9197 87.54L79.9597 80.24H82.9597ZM84.4648 80.24H87.5648V84.44H92.2448V80.24H95.3648V91H92.2448V86.98H87.5648V91H84.4648V80.24ZM110.412 88.44V93.32H107.512V91H99.9516V93.32H97.0516V88.44H97.4916C98.1582 88.4267 98.6182 88.0333 98.8716 87.26C99.1249 86.4867 99.2849 85.3867 99.3516 83.96L99.4916 80.24H108.872V88.44H110.412ZM102.172 84.18C102.132 85.2733 102.045 86.1667 101.912 86.86C101.792 87.5533 101.558 88.08 101.212 88.44H105.752V82.8H102.232L102.172 84.18ZM116.555 80.08C118.222 80.08 119.502 80.48 120.395 81.28C121.288 82.0667 121.735 83.26 121.735 84.86V91H118.815V89.66C118.228 90.66 117.135 91.16 115.535 91.16C114.708 91.16 113.988 91.02 113.375 90.74C112.775 90.46 112.315 90.0733 111.995 89.58C111.675 89.0867 111.515 88.5267 111.515 87.9C111.515 86.9 111.888 86.1133 112.635 85.54C113.395 84.9667 114.562 84.68 116.135 84.68H118.615C118.615 84 118.408 83.48 117.995 83.12C117.582 82.7467 116.962 82.56 116.135 82.56C115.562 82.56 114.995 82.6533 114.435 82.84C113.888 83.0133 113.422 83.2533 113.035 83.56L111.915 81.38C112.502 80.9667 113.202 80.6467 114.015 80.42C114.842 80.1933 115.688 80.08 116.555 80.08ZM116.315 89.06C116.848 89.06 117.322 88.94 117.735 88.7C118.148 88.4467 118.442 88.08 118.615 87.6V86.5H116.475C115.195 86.5 114.555 86.92 114.555 87.76C114.555 88.16 114.708 88.48 115.015 88.72C115.335 88.9467 115.768 89.06 116.315 89.06ZM134.945 91V84.56L131.725 89.96H130.405L127.265 84.54V91H124.445V80.24H127.705L131.145 86.46L134.805 80.24H137.725L137.765 91H134.945ZM151.214 85.66C151.214 85.7 151.194 85.98 151.154 86.5H143.014C143.161 87.1667 143.507 87.6933 144.054 88.08C144.601 88.4667 145.281 88.66 146.094 88.66C146.654 88.66 147.147 88.58 147.574 88.42C148.014 88.2467 148.421 87.98 148.794 87.62L150.454 89.42C149.441 90.58 147.961 91.16 146.014 91.16C144.801 91.16 143.727 90.9267 142.794 90.46C141.861 89.98 141.141 89.32 140.634 88.48C140.127 87.64 139.874 86.6867 139.874 85.62C139.874 84.5667 140.121 83.62 140.614 82.78C141.121 81.9267 141.807 81.2667 142.674 80.8C143.554 80.32 144.534 80.08 145.614 80.08C146.667 80.08 147.621 80.3067 148.474 80.76C149.327 81.2133 149.994 81.8667 150.474 82.72C150.967 83.56 151.214 84.54 151.214 85.66ZM145.634 82.44C144.927 82.44 144.334 82.64 143.854 83.04C143.374 83.44 143.081 83.9867 142.974 84.68H148.274C148.167 84 147.874 83.46 147.394 83.06C146.914 82.6467 146.327 82.44 145.634 82.44ZM153.605 80.24H156.705V84.44H161.385V80.24H164.505V91H161.385V86.98H156.705V91H153.605V80.24ZM176.532 82.8H172.892V91H169.792V82.8H166.152V80.24H176.532V82.8ZM182.375 80.08C184.042 80.08 185.322 80.48 186.215 81.28C187.109 82.0667 187.555 83.26 187.555 84.86V91H184.635V89.66C184.049 90.66 182.955 91.16 181.355 91.16C180.529 91.16 179.809 91.02 179.195 90.74C178.595 90.46 178.135 90.0733 177.815 89.58C177.495 89.0867 177.335 88.5267 177.335 87.9C177.335 86.9 177.709 86.1133 178.455 85.54C179.215 84.9667 180.382 84.68 181.955 84.68H184.435C184.435 84 184.229 83.48 183.815 83.12C183.402 82.7467 182.782 82.56 181.955 82.56C181.382 82.56 180.815 82.6533 180.255 82.84C179.709 83.0133 179.242 83.2533 178.855 83.56L177.735 81.38C178.322 80.9667 179.022 80.6467 179.835 80.42C180.662 80.1933 181.509 80.08 182.375 80.08ZM182.135 89.06C182.669 89.06 183.142 88.94 183.555 88.7C183.969 88.4467 184.262 88.08 184.435 87.6V86.5H182.295C181.015 86.5 180.375 86.92 180.375 87.76C180.375 88.16 180.529 88.48 180.835 88.72C181.155 88.9467 181.589 89.06 182.135 89.06Z" fill="#141415"/>
<path d="M49.3805 45.176H45.6365V50H38.6885V45.176H25.3685V40.532L36.6725 24.8H44.0525L33.7925 39.524H38.9045V35.24H45.6365V39.524H49.3805V45.176Z" fill="#61AE56"/>
</svg>
