<svg width="188" height="98" viewBox="0 0 188 98" fill="none" xmlns="http://www.w3.org/2000/svg">
<rect x="1" y="1" width="72" height="72" stroke="#61AE56" stroke-width="2"/>
<path d="M35.7224 33.98C39.2504 33.98 41.8544 34.7 43.5344 36.14C45.2384 37.58 46.0904 39.5 46.0904 41.9C46.0904 43.46 45.6824 44.9 44.8664 46.22C44.0744 47.516 42.8504 48.56 41.1944 49.352C39.5624 50.12 37.5344 50.504 35.1104 50.504C33.3344 50.504 31.5704 50.288 29.8184 49.856C28.0904 49.424 26.6024 48.812 25.3544 48.02L27.9104 42.656C28.9184 43.328 30.0224 43.844 31.2224 44.204C32.4464 44.564 33.6704 44.744 34.8944 44.744C36.1184 44.744 37.0904 44.516 37.8104 44.06C38.5544 43.58 38.9264 42.92 38.9264 42.08C38.9264 41.24 38.5664 40.604 37.8464 40.172C37.1264 39.74 35.8544 39.524 34.0304 39.524H27.1904L28.4504 24.8H44.5064V30.308H34.3544L34.0304 33.98H35.7224Z" fill="#61AE56"/>
<path d="M66.44 60.7C67.2933 60.9533 67.9467 61.3667 68.4 61.94C68.8533 62.5133 69.08 63.22 69.08 64.06C69.08 65.3 68.6067 66.2667 67.66 66.96C66.7267 67.6533 65.3867 68 63.64 68H56.74V54H63.26C64.8867 54 66.1533 54.3133 67.06 54.94C67.9667 55.5667 68.42 56.46 68.42 57.62C68.42 58.3133 68.2467 58.9267 67.9 59.46C67.5533 59.98 67.0667 60.3933 66.44 60.7ZM59.96 59.8H62.98C63.6867 59.8 64.22 59.66 64.58 59.38C64.94 59.0867 65.12 58.66 65.12 58.1C65.12 57.5533 64.9333 57.1333 64.56 56.84C64.2 56.5467 63.6733 56.4 62.98 56.4H59.96V59.8ZM63.52 65.6C65.04 65.6 65.8 65 65.8 63.8C65.8 62.64 65.04 62.06 63.52 62.06H59.96V65.6H63.52ZM76.4423 68.16C75.309 68.16 74.289 67.9267 73.3823 67.46C72.489 66.98 71.789 66.32 71.2823 65.48C70.7757 64.64 70.5223 63.6867 70.5223 62.62C70.5223 61.5533 70.7757 60.6 71.2823 59.76C71.789 58.92 72.489 58.2667 73.3823 57.8C74.289 57.32 75.309 57.08 76.4423 57.08C77.5757 57.08 78.589 57.32 79.4823 57.8C80.3757 58.2667 81.0757 58.92 81.5823 59.76C82.089 60.6 82.3423 61.5533 82.3423 62.62C82.3423 63.6867 82.089 64.64 81.5823 65.48C81.0757 66.32 80.3757 66.98 79.4823 67.46C78.589 67.9267 77.5757 68.16 76.4423 68.16ZM76.4423 65.6C77.2423 65.6 77.8957 65.3333 78.4023 64.8C78.9223 64.2533 79.1823 63.5267 79.1823 62.62C79.1823 61.7133 78.9223 60.9933 78.4023 60.46C77.8957 59.9133 77.2423 59.64 76.4423 59.64C75.6423 59.64 74.9823 59.9133 74.4623 60.46C73.9423 60.9933 73.6823 61.7133 73.6823 62.62C73.6823 63.5267 73.9423 64.2533 74.4623 64.8C74.9823 65.3333 75.6423 65.6 76.4423 65.6ZM91.273 62.4C91.913 62.6 92.4063 62.9067 92.753 63.32C93.113 63.7333 93.293 64.2267 93.293 64.8C93.293 65.48 93.0596 66.08 92.593 66.6C92.1263 67.1067 91.4863 67.5 90.673 67.78C89.8596 68.06 88.9396 68.2 87.913 68.2C87.073 68.2 86.2463 68.1133 85.433 67.94C84.6196 67.7667 83.8663 67.5067 83.173 67.16L84.013 64.98C85.1463 65.5267 86.3996 65.8 87.773 65.8C88.5063 65.8 89.0796 65.6933 89.493 65.48C89.9196 65.2533 90.133 64.94 90.133 64.54C90.133 64.1933 89.9863 63.9333 89.693 63.76C89.3996 63.5733 88.973 63.48 88.413 63.48H86.213V61.54H88.133C88.6796 61.54 89.0996 61.4533 89.393 61.28C89.6863 61.1067 89.833 60.8533 89.833 60.52C89.833 60.1733 89.6463 59.9067 89.273 59.72C88.913 59.5333 88.393 59.44 87.713 59.44C86.673 59.44 85.5396 59.6867 84.313 60.18L83.553 58.02C85.0463 57.3667 86.4996 57.04 87.913 57.04C88.8863 57.04 89.753 57.16 90.513 57.4C91.2863 57.64 91.893 57.9933 92.333 58.46C92.773 58.9133 92.993 59.4467 92.993 60.06C92.993 60.5667 92.8396 61.0267 92.533 61.44C92.2263 61.84 91.8063 62.16 91.273 62.4ZM103.783 62.38C105.049 62.8067 105.683 63.66 105.683 64.94C105.683 65.9133 105.316 66.6667 104.583 67.2C103.849 67.7333 102.756 68 101.303 68H95.5625V57.24H101.063C102.409 57.24 103.463 57.4867 104.223 57.98C104.983 58.46 105.362 59.14 105.362 60.02C105.362 60.5533 105.223 61.0267 104.943 61.44C104.676 61.84 104.289 62.1533 103.783 62.38ZM98.4225 61.66H100.783C101.876 61.66 102.423 61.2733 102.423 60.5C102.423 59.74 101.876 59.36 100.783 59.36H98.4225V61.66ZM101.043 65.88C102.189 65.88 102.763 65.4867 102.763 64.7C102.763 64.2867 102.629 63.9867 102.363 63.8C102.096 63.6 101.676 63.5 101.103 63.5H98.4225V65.88H101.043ZM118.464 62.66C118.464 62.7 118.444 62.98 118.404 63.5H110.264C110.411 64.1667 110.757 64.6933 111.304 65.08C111.851 65.4667 112.531 65.66 113.344 65.66C113.904 65.66 114.397 65.58 114.824 65.42C115.264 65.2467 115.671 64.98 116.044 64.62L117.704 66.42C116.691 67.58 115.211 68.16 113.264 68.16C112.051 68.16 110.977 67.9267 110.044 67.46C109.111 66.98 108.391 66.32 107.884 65.48C107.377 64.64 107.124 63.6867 107.124 62.62C107.124 61.5667 107.371 60.62 107.864 59.78C108.371 58.9267 109.057 58.2667 109.924 57.8C110.804 57.32 111.784 57.08 112.864 57.08C113.917 57.08 114.871 57.3067 115.724 57.76C116.577 58.2133 117.244 58.8667 117.724 59.72C118.217 60.56 118.464 61.54 118.464 62.66ZM112.884 59.44C112.177 59.44 111.584 59.64 111.104 60.04C110.624 60.44 110.331 60.9867 110.224 61.68H115.524C115.417 61 115.124 60.46 114.644 60.06C114.164 59.6467 113.577 59.44 112.884 59.44ZM132.818 65.44V70.32H129.918V68H122.358V70.32H119.458V65.44H119.898C120.564 65.4267 121.024 65.0333 121.278 64.26C121.531 63.4867 121.691 62.3867 121.758 60.96L121.898 57.24H131.278V65.44H132.818ZM124.578 61.18C124.538 62.2733 124.451 63.1667 124.318 63.86C124.198 64.5533 123.964 65.08 123.618 65.44H128.158V59.8H124.638L124.578 61.18ZM145.241 62.66C145.241 62.7 145.221 62.98 145.181 63.5H137.041C137.188 64.1667 137.535 64.6933 138.081 65.08C138.628 65.4667 139.308 65.66 140.121 65.66C140.681 65.66 141.175 65.58 141.601 65.42C142.041 65.2467 142.448 64.98 142.821 64.62L144.481 66.42C143.468 67.58 141.988 68.16 140.041 68.16C138.828 68.16 137.755 67.9267 136.821 67.46C135.888 66.98 135.168 66.32 134.661 65.48C134.155 64.64 133.901 63.6867 133.901 62.62C133.901 61.5667 134.148 60.62 134.641 59.78C135.148 58.9267 135.835 58.2667 136.701 57.8C137.581 57.32 138.561 57.08 139.641 57.08C140.695 57.08 141.648 57.3067 142.501 57.76C143.355 58.2133 144.021 58.8667 144.501 59.72C144.995 60.56 145.241 61.54 145.241 62.66ZM139.661 59.44C138.955 59.44 138.361 59.64 137.881 60.04C137.401 60.44 137.108 60.9867 137.001 61.68H142.301C142.195 61 141.901 60.46 141.421 60.06C140.941 59.6467 140.355 59.44 139.661 59.44ZM147.633 57.24H150.733V61.44H155.413V57.24H158.533V68H155.413V63.98H150.733V68H147.633V57.24ZM161.52 57.24H164.62V63.64L169.86 57.24H172.72V68H169.62V61.6L164.4 68H161.52V57.24ZM186.179 62.66C186.179 62.7 186.159 62.98 186.119 63.5H177.979C178.125 64.1667 178.472 64.6933 179.019 65.08C179.565 65.4667 180.245 65.66 181.059 65.66C181.619 65.66 182.112 65.58 182.539 65.42C182.979 65.2467 183.385 64.98 183.759 64.62L185.419 66.42C184.405 67.58 182.925 68.16 180.979 68.16C179.765 68.16 178.692 67.9267 177.759 67.46C176.825 66.98 176.105 66.32 175.599 65.48C175.092 64.64 174.839 63.6867 174.839 62.62C174.839 61.5667 175.085 60.62 175.579 59.78C176.085 58.9267 176.772 58.2667 177.639 57.8C178.519 57.32 179.499 57.08 180.579 57.08C181.632 57.08 182.585 57.3067 183.439 57.76C184.292 58.2133 184.959 58.8667 185.439 59.72C185.932 60.56 186.179 61.54 186.179 62.66ZM180.599 59.44C179.892 59.44 179.299 59.64 178.819 60.04C178.339 60.44 178.045 60.9867 177.939 61.68H183.239C183.132 61 182.839 60.46 182.359 60.06C181.879 59.6467 181.292 59.44 180.599 59.44ZM61.62 93.16C60.4733 93.16 59.44 92.9267 58.52 92.46C57.6133 91.98 56.9 91.32 56.38 90.48C55.8733 89.64 55.62 88.6867 55.62 87.62C55.62 86.5533 55.8733 85.6 56.38 84.76C56.9 83.92 57.6133 83.2667 58.52 82.8C59.44 82.32 60.4733 82.08 61.62 82.08C62.7533 82.08 63.74 82.32 64.58 82.8C65.4333 83.2667 66.0533 83.94 66.44 84.82L64.02 86.12C63.46 85.1333 62.6533 84.64 61.6 84.64C60.7867 84.64 60.1133 84.9067 59.58 85.44C59.0467 85.9733 58.78 86.7 58.78 87.62C58.78 88.54 59.0467 89.2667 59.58 89.8C60.1133 90.3333 60.7867 90.6 61.6 90.6C62.6667 90.6 63.4733 90.1067 64.02 89.12L66.44 90.44C66.0533 91.2933 65.4333 91.96 64.58 92.44C63.74 92.92 62.7533 93.16 61.62 93.16ZM77.3369 84.8H73.6969V93H70.5969V84.8H66.9569V82.24H77.3369V84.8ZM89.0108 87.66C89.0108 87.7 88.9908 87.98 88.9508 88.5H80.8108C80.9574 89.1667 81.3041 89.6933 81.8508 90.08C82.3974 90.4667 83.0774 90.66 83.8908 90.66C84.4508 90.66 84.9441 90.58 85.3708 90.42C85.8108 90.2467 86.2174 89.98 86.5908 89.62L88.2508 91.42C87.2374 92.58 85.7574 93.16 83.8108 93.16C82.5974 93.16 81.5241 92.9267 80.5908 92.46C79.6574 91.98 78.9374 91.32 78.4308 90.48C77.9241 89.64 77.6708 88.6867 77.6708 87.62C77.6708 86.5667 77.9174 85.62 78.4108 84.78C78.9174 83.9267 79.6041 83.2667 80.4708 82.8C81.3508 82.32 82.3308 82.08 83.4108 82.08C84.4641 82.08 85.4174 82.3067 86.2708 82.76C87.1241 83.2133 87.7908 83.8667 88.2708 84.72C88.7641 85.56 89.0108 86.54 89.0108 87.66ZM83.4308 84.44C82.7241 84.44 82.1308 84.64 81.6508 85.04C81.1708 85.44 80.8774 85.9867 80.7708 86.68H86.0708C85.9641 86 85.6708 85.46 85.1908 85.06C84.7108 84.6467 84.1241 84.44 83.4308 84.44ZM91.4023 82.24H94.5023V86.44H99.1823V82.24H102.302V93H99.1823V88.98H94.5023V93H91.4023V82.24Z" fill="#141415"/>
</svg>
