<svg width="192" height="98" viewBox="0 0 192 98" fill="none" xmlns="http://www.w3.org/2000/svg">
<rect x="1" y="1" width="72" height="72" stroke="#61AE56" stroke-width="2"/>
<path d="M39.4225 33.944C41.0065 33.944 42.4585 34.28 43.7785 34.952C45.0985 35.6 46.1425 36.536 46.9105 37.76C47.7025 38.96 48.0985 40.34 48.0985 41.9C48.0985 43.604 47.6545 45.116 46.7665 46.436C45.9025 47.732 44.7145 48.74 43.2025 49.46C41.7145 50.156 40.0465 50.504 38.1985 50.504C34.5985 50.504 31.7545 49.436 29.6665 47.3C27.5785 45.164 26.5345 42.092 26.5345 38.084C26.5345 35.204 27.0865 32.732 28.1905 30.668C29.3185 28.58 30.8905 26.996 32.9065 25.916C34.9225 24.836 37.2625 24.296 39.9265 24.296C41.3665 24.296 42.7345 24.452 44.0305 24.764C45.3265 25.076 46.4305 25.532 47.3425 26.132L44.7505 31.244C43.5265 30.38 41.9785 29.948 40.1065 29.948C38.2825 29.948 36.8065 30.452 35.6785 31.46C34.5505 32.468 33.9025 33.92 33.7345 35.816C35.1745 34.568 37.0705 33.944 39.4225 33.944ZM37.7665 45.428C38.7745 45.428 39.5905 45.14 40.2145 44.564C40.8625 43.988 41.1865 43.208 41.1865 42.224C41.1865 41.264 40.8625 40.496 40.2145 39.92C39.5905 39.344 38.7625 39.056 37.7305 39.056C36.6985 39.056 35.8585 39.356 35.2105 39.956C34.5625 40.532 34.2385 41.3 34.2385 42.26C34.2385 43.196 34.5505 43.964 35.1745 44.564C35.8225 45.14 36.6865 45.428 37.7665 45.428Z" fill="#61AE56"/>
<path d="M68.5 54V68H65.28V56.64H58.96V68H55.74V54H68.5ZM82.1905 62.66C82.1905 62.7 82.1705 62.98 82.1305 63.5H73.9905C74.1371 64.1667 74.4838 64.6933 75.0305 65.08C75.5771 65.4667 76.2571 65.66 77.0705 65.66C77.6305 65.66 78.1238 65.58 78.5505 65.42C78.9905 65.2467 79.3971 64.98 79.7705 64.62L81.4305 66.42C80.4171 67.58 78.9371 68.16 76.9905 68.16C75.7771 68.16 74.7038 67.9267 73.7705 67.46C72.8371 66.98 72.1171 66.32 71.6105 65.48C71.1038 64.64 70.8505 63.6867 70.8505 62.62C70.8505 61.5667 71.0971 60.62 71.5905 59.78C72.0971 58.9267 72.7838 58.2667 73.6505 57.8C74.5305 57.32 75.5105 57.08 76.5905 57.08C77.6438 57.08 78.5971 57.3067 79.4505 57.76C80.3038 58.2133 80.9705 58.8667 81.4505 59.72C81.9438 60.56 82.1905 61.54 82.1905 62.66ZM76.6105 59.44C75.9038 59.44 75.3105 59.64 74.8305 60.04C74.3505 60.44 74.0571 60.9867 73.9505 61.68H79.2505C79.1438 61 78.8505 60.46 78.3705 60.06C77.8905 59.6467 77.3038 59.44 76.6105 59.44ZM90.922 57.08C91.922 57.08 92.8287 57.3133 93.642 57.78C94.4687 58.2333 95.1154 58.88 95.582 59.72C96.0487 60.5467 96.282 61.5133 96.282 62.62C96.282 63.7267 96.0487 64.7 95.582 65.54C95.1154 66.3667 94.4687 67.0133 93.642 67.48C92.8287 67.9333 91.922 68.16 90.922 68.16C89.5487 68.16 88.4687 67.7267 87.682 66.86V71.88H84.562V57.24H87.542V58.48C88.3154 57.5467 89.442 57.08 90.922 57.08ZM90.382 65.6C91.182 65.6 91.8354 65.3333 92.342 64.8C92.862 64.2533 93.122 63.5267 93.122 62.62C93.122 61.7133 92.862 60.9933 92.342 60.46C91.8354 59.9133 91.182 59.64 90.382 59.64C89.582 59.64 88.922 59.9133 88.402 60.46C87.8954 60.9933 87.642 61.7133 87.642 62.62C87.642 63.5267 87.8954 64.2533 88.402 64.8C88.922 65.3333 89.582 65.6 90.382 65.6ZM108.929 62.66C108.929 62.7 108.909 62.98 108.869 63.5H100.729C100.875 64.1667 101.222 64.6933 101.769 65.08C102.315 65.4667 102.995 65.66 103.809 65.66C104.369 65.66 104.862 65.58 105.289 65.42C105.729 65.2467 106.135 64.98 106.509 64.62L108.169 66.42C107.155 67.58 105.675 68.16 103.729 68.16C102.515 68.16 101.442 67.9267 100.509 67.46C99.5754 66.98 98.8554 66.32 98.3488 65.48C97.8421 64.64 97.5888 63.6867 97.5888 62.62C97.5888 61.5667 97.8354 60.62 98.3288 59.78C98.8354 58.9267 99.5221 58.2667 100.389 57.8C101.269 57.32 102.249 57.08 103.329 57.08C104.382 57.08 105.335 57.3067 106.189 57.76C107.042 58.2133 107.709 58.8667 108.189 59.72C108.682 60.56 108.929 61.54 108.929 62.66ZM103.349 59.44C102.642 59.44 102.049 59.64 101.569 60.04C101.089 60.44 100.795 60.9867 100.689 61.68H105.989C105.882 61 105.589 60.46 105.109 60.06C104.629 59.6467 104.042 59.44 103.349 59.44ZM116.06 63.92H114.44V68H111.32V57.24H114.44V61.42H116.12L119.04 57.24H122.36L118.6 62.4L122.62 68H118.94L116.06 63.92ZM130.492 57.08C131.492 57.08 132.399 57.3133 133.212 57.78C134.039 58.2333 134.686 58.88 135.152 59.72C135.619 60.5467 135.852 61.5133 135.852 62.62C135.852 63.7267 135.619 64.7 135.152 65.54C134.686 66.3667 134.039 67.0133 133.212 67.48C132.399 67.9333 131.492 68.16 130.492 68.16C129.119 68.16 128.039 67.7267 127.252 66.86V71.88H124.132V57.24H127.112V58.48C127.886 57.5467 129.012 57.08 130.492 57.08ZM129.952 65.6C130.752 65.6 131.406 65.3333 131.912 64.8C132.432 64.2533 132.692 63.5267 132.692 62.62C132.692 61.7133 132.432 60.9933 131.912 60.46C131.406 59.9133 130.752 59.64 129.952 59.64C129.152 59.64 128.492 59.9133 127.972 60.46C127.466 60.9933 127.212 61.7133 127.212 62.62C127.212 63.5267 127.466 64.2533 127.972 64.8C128.492 65.3333 129.152 65.6 129.952 65.6ZM143.699 60.68C145.099 60.6933 146.159 61.0067 146.879 61.62C147.599 62.2333 147.959 63.1133 147.959 64.26C147.959 65.46 147.552 66.3867 146.739 67.04C145.926 67.6933 144.772 68.02 143.279 68.02L138.039 68V57.24H141.139V60.68H143.699ZM149.119 57.24H152.219V68H149.119V57.24ZM142.999 65.8C143.599 65.8133 144.059 65.6867 144.379 65.42C144.699 65.1533 144.859 64.7533 144.859 64.22C144.859 63.7 144.699 63.32 144.379 63.08C144.072 62.84 143.612 62.7133 142.999 62.7L141.139 62.68V65.8H142.999ZM164.267 59.8H160.627V68H157.527V59.8H153.887V57.24H164.267V59.8ZM165.93 57.24H169.03V63.64L174.27 57.24H177.13V68H174.03V61.6L168.81 68H165.93V57.24ZM190.589 62.66C190.589 62.7 190.569 62.98 190.529 63.5H182.389C182.536 64.1667 182.882 64.6933 183.429 65.08C183.976 65.4667 184.656 65.66 185.469 65.66C186.029 65.66 186.522 65.58 186.949 65.42C187.389 65.2467 187.796 64.98 188.169 64.62L189.829 66.42C188.816 67.58 187.336 68.16 185.389 68.16C184.176 68.16 183.102 67.9267 182.169 67.46C181.236 66.98 180.516 66.32 180.009 65.48C179.502 64.64 179.249 63.6867 179.249 62.62C179.249 61.5667 179.496 60.62 179.989 59.78C180.496 58.9267 181.182 58.2667 182.049 57.8C182.929 57.32 183.909 57.08 184.989 57.08C186.042 57.08 186.996 57.3067 187.849 57.76C188.702 58.2133 189.369 58.8667 189.849 59.72C190.342 60.56 190.589 61.54 190.589 62.66ZM185.009 59.44C184.302 59.44 183.709 59.64 183.229 60.04C182.749 60.44 182.456 60.9867 182.349 61.68H187.649C187.542 61 187.249 60.46 186.769 60.06C186.289 59.6467 185.702 59.44 185.009 59.44ZM63.72 87.38C64.9867 87.8067 65.62 88.66 65.62 89.94C65.62 90.9133 65.2533 91.6667 64.52 92.2C63.7867 92.7333 62.6933 93 61.24 93H55.5V82.24H61C62.3467 82.24 63.4 82.4867 64.16 82.98C64.92 83.46 65.3 84.14 65.3 85.02C65.3 85.5533 65.16 86.0267 64.88 86.44C64.6133 86.84 64.2267 87.1533 63.72 87.38ZM58.36 86.66H60.72C61.8133 86.66 62.36 86.2733 62.36 85.5C62.36 84.74 61.8133 84.36 60.72 84.36H58.36V86.66ZM60.98 90.88C62.1267 90.88 62.7 90.4867 62.7 89.7C62.7 89.2867 62.5667 88.9867 62.3 88.8C62.0333 88.6 61.6133 88.5 61.04 88.5H58.36V90.88H60.98ZM85.6655 90.44V95.32H82.7655V93H75.2055V95.32H72.3055V90.44H72.7455C73.4121 90.4267 73.8721 90.0333 74.1255 89.26C74.3788 88.4867 74.5388 87.3867 74.6055 85.96L74.7455 82.24H84.1255V90.44H85.6655ZM77.4255 86.18C77.3855 87.2733 77.2988 88.1667 77.1655 88.86C77.0455 89.5533 76.8121 90.08 76.4655 90.44H81.0055V84.8H77.4855L77.4255 86.18ZM92.6689 93.16C91.5356 93.16 90.5156 92.9267 89.6089 92.46C88.7156 91.98 88.0156 91.32 87.5089 90.48C87.0022 89.64 86.7489 88.6867 86.7489 87.62C86.7489 86.5533 87.0022 85.6 87.5089 84.76C88.0156 83.92 88.7156 83.2667 89.6089 82.8C90.5156 82.32 91.5356 82.08 92.6689 82.08C93.8022 82.08 94.8156 82.32 95.7089 82.8C96.6022 83.2667 97.3022 83.92 97.8089 84.76C98.3156 85.6 98.5689 86.5533 98.5689 87.62C98.5689 88.6867 98.3156 89.64 97.8089 90.48C97.3022 91.32 96.6022 91.98 95.7089 92.46C94.8156 92.9267 93.8022 93.16 92.6689 93.16ZM92.6689 90.6C93.4689 90.6 94.1222 90.3333 94.6289 89.8C95.1489 89.2533 95.4089 88.5267 95.4089 87.62C95.4089 86.7133 95.1489 85.9933 94.6289 85.46C94.1222 84.9133 93.4689 84.64 92.6689 84.64C91.8689 84.64 91.2089 84.9133 90.6889 85.46C90.1689 85.9933 89.9089 86.7133 89.9089 87.62C89.9089 88.5267 90.1689 89.2533 90.6889 89.8C91.2089 90.3333 91.8689 90.6 92.6689 90.6ZM111.215 93V86.56L107.995 91.96H106.675L103.535 86.54V93H100.715V82.24H103.975L107.415 88.46L111.075 82.24H113.995L114.035 93H111.215ZM127.483 87.66C127.483 87.7 127.463 87.98 127.423 88.5H119.283C119.43 89.1667 119.777 89.6933 120.323 90.08C120.87 90.4667 121.55 90.66 122.363 90.66C122.923 90.66 123.417 90.58 123.843 90.42C124.283 90.2467 124.69 89.98 125.063 89.62L126.723 91.42C125.71 92.58 124.23 93.16 122.283 93.16C121.07 93.16 119.997 92.9267 119.063 92.46C118.13 91.98 117.41 91.32 116.903 90.48C116.397 89.64 116.143 88.6867 116.143 87.62C116.143 86.5667 116.39 85.62 116.883 84.78C117.39 83.9267 118.077 83.2667 118.943 82.8C119.823 82.32 120.803 82.08 121.883 82.08C122.937 82.08 123.89 82.3067 124.743 82.76C125.597 83.2133 126.263 83.8667 126.743 84.72C127.237 85.56 127.483 86.54 127.483 87.66ZM121.903 84.44C121.197 84.44 120.603 84.64 120.123 85.04C119.643 85.44 119.35 85.9867 119.243 86.68H124.543C124.437 86 124.143 85.46 123.663 85.06C123.183 84.6467 122.597 84.44 121.903 84.44Z" fill="#141415"/>
</svg>
