<svg width="189" height="98" viewBox="0 0 189 98" fill="none" xmlns="http://www.w3.org/2000/svg">
<rect x="1" y="1" width="72" height="72" stroke="#61AE56" stroke-width="2"/>
<path d="M47.835 24.8V29.264L38.943 50H31.167L39.663 30.452H33.039V34.34H26.955V24.8H47.835Z" fill="#61AE56"/>
<path d="M67.44 60.7C68.2933 60.9533 68.9467 61.3667 69.4 61.94C69.8533 62.5133 70.08 63.22 70.08 64.06C70.08 65.3 69.6067 66.2667 68.66 66.96C67.7267 67.6533 66.3867 68 64.64 68H57.74V54H64.26C65.8867 54 67.1533 54.3133 68.06 54.94C68.9667 55.5667 69.42 56.46 69.42 57.62C69.42 58.3133 69.2467 58.9267 68.9 59.46C68.5533 59.98 68.0667 60.3933 67.44 60.7ZM60.96 59.8H63.98C64.6867 59.8 65.22 59.66 65.58 59.38C65.94 59.0867 66.12 58.66 66.12 58.1C66.12 57.5533 65.9333 57.1333 65.56 56.84C65.2 56.5467 64.6733 56.4 63.98 56.4H60.96V59.8ZM64.52 65.6C66.04 65.6 66.8 65 66.8 63.8C66.8 62.64 66.04 62.06 64.52 62.06H60.96V65.6H64.52ZM77.4423 68.16C76.309 68.16 75.289 67.9267 74.3823 67.46C73.489 66.98 72.789 66.32 72.2823 65.48C71.7757 64.64 71.5223 63.6867 71.5223 62.62C71.5223 61.5533 71.7757 60.6 72.2823 59.76C72.789 58.92 73.489 58.2667 74.3823 57.8C75.289 57.32 76.309 57.08 77.4423 57.08C78.5757 57.08 79.589 57.32 80.4823 57.8C81.3757 58.2667 82.0757 58.92 82.5823 59.76C83.089 60.6 83.3423 61.5533 83.3423 62.62C83.3423 63.6867 83.089 64.64 82.5823 65.48C82.0757 66.32 81.3757 66.98 80.4823 67.46C79.589 67.9267 78.5757 68.16 77.4423 68.16ZM77.4423 65.6C78.2423 65.6 78.8957 65.3333 79.4023 64.8C79.9223 64.2533 80.1823 63.5267 80.1823 62.62C80.1823 61.7133 79.9223 60.9933 79.4023 60.46C78.8957 59.9133 78.2423 59.64 77.4423 59.64C76.6423 59.64 75.9823 59.9133 75.4623 60.46C74.9423 60.9933 74.6823 61.7133 74.6823 62.62C74.6823 63.5267 74.9423 64.2533 75.4623 64.8C75.9823 65.3333 76.6423 65.6 77.4423 65.6ZM92.273 62.4C92.913 62.6 93.4063 62.9067 93.753 63.32C94.113 63.7333 94.293 64.2267 94.293 64.8C94.293 65.48 94.0596 66.08 93.593 66.6C93.1263 67.1067 92.4863 67.5 91.673 67.78C90.8596 68.06 89.9396 68.2 88.913 68.2C88.073 68.2 87.2463 68.1133 86.433 67.94C85.6196 67.7667 84.8663 67.5067 84.173 67.16L85.013 64.98C86.1463 65.5267 87.3996 65.8 88.773 65.8C89.5063 65.8 90.0796 65.6933 90.493 65.48C90.9196 65.2533 91.133 64.94 91.133 64.54C91.133 64.1933 90.9863 63.9333 90.693 63.76C90.3996 63.5733 89.973 63.48 89.413 63.48H87.213V61.54H89.133C89.6796 61.54 90.0996 61.4533 90.393 61.28C90.6863 61.1067 90.833 60.8533 90.833 60.52C90.833 60.1733 90.6463 59.9067 90.273 59.72C89.913 59.5333 89.393 59.44 88.713 59.44C87.673 59.44 86.5396 59.6867 85.313 60.18L84.553 58.02C86.0463 57.3667 87.4996 57.04 88.913 57.04C89.8863 57.04 90.753 57.16 91.513 57.4C92.2863 57.64 92.893 57.9933 93.333 58.46C93.773 58.9133 93.993 59.4467 93.993 60.06C93.993 60.5667 93.8396 61.0267 93.533 61.44C93.2263 61.84 92.8063 62.16 92.273 62.4ZM104.783 62.38C106.049 62.8067 106.683 63.66 106.683 64.94C106.683 65.9133 106.316 66.6667 105.583 67.2C104.849 67.7333 103.756 68 102.303 68H96.5625V57.24H102.063C103.409 57.24 104.463 57.4867 105.223 57.98C105.983 58.46 106.362 59.14 106.362 60.02C106.362 60.5533 106.223 61.0267 105.943 61.44C105.676 61.84 105.289 62.1533 104.783 62.38ZM99.4225 61.66H101.783C102.876 61.66 103.423 61.2733 103.423 60.5C103.423 59.74 102.876 59.36 101.783 59.36H99.4225V61.66ZM102.043 65.88C103.189 65.88 103.763 65.4867 103.763 64.7C103.763 64.2867 103.629 63.9867 103.363 63.8C103.096 63.6 102.676 63.5 102.103 63.5H99.4225V65.88H102.043ZM119.464 62.66C119.464 62.7 119.444 62.98 119.404 63.5H111.264C111.411 64.1667 111.757 64.6933 112.304 65.08C112.851 65.4667 113.531 65.66 114.344 65.66C114.904 65.66 115.397 65.58 115.824 65.42C116.264 65.2467 116.671 64.98 117.044 64.62L118.704 66.42C117.691 67.58 116.211 68.16 114.264 68.16C113.051 68.16 111.977 67.9267 111.044 67.46C110.111 66.98 109.391 66.32 108.884 65.48C108.377 64.64 108.124 63.6867 108.124 62.62C108.124 61.5667 108.371 60.62 108.864 59.78C109.371 58.9267 110.057 58.2667 110.924 57.8C111.804 57.32 112.784 57.08 113.864 57.08C114.917 57.08 115.871 57.3067 116.724 57.76C117.577 58.2133 118.244 58.8667 118.724 59.72C119.217 60.56 119.464 61.54 119.464 62.66ZM113.884 59.44C113.177 59.44 112.584 59.64 112.104 60.04C111.624 60.44 111.331 60.9867 111.224 61.68H116.524C116.417 61 116.124 60.46 115.644 60.06C115.164 59.6467 114.577 59.44 113.884 59.44ZM133.818 65.44V70.32H130.918V68H123.358V70.32H120.458V65.44H120.898C121.564 65.4267 122.024 65.0333 122.278 64.26C122.531 63.4867 122.691 62.3867 122.758 60.96L122.898 57.24H132.278V65.44H133.818ZM125.578 61.18C125.538 62.2733 125.451 63.1667 125.318 63.86C125.198 64.5533 124.964 65.08 124.618 65.44H129.158V59.8H125.638L125.578 61.18ZM146.241 62.66C146.241 62.7 146.221 62.98 146.181 63.5H138.041C138.188 64.1667 138.535 64.6933 139.081 65.08C139.628 65.4667 140.308 65.66 141.121 65.66C141.681 65.66 142.175 65.58 142.601 65.42C143.041 65.2467 143.448 64.98 143.821 64.62L145.481 66.42C144.468 67.58 142.988 68.16 141.041 68.16C139.828 68.16 138.755 67.9267 137.821 67.46C136.888 66.98 136.168 66.32 135.661 65.48C135.155 64.64 134.901 63.6867 134.901 62.62C134.901 61.5667 135.148 60.62 135.641 59.78C136.148 58.9267 136.835 58.2667 137.701 57.8C138.581 57.32 139.561 57.08 140.641 57.08C141.695 57.08 142.648 57.3067 143.501 57.76C144.355 58.2133 145.021 58.8667 145.501 59.72C145.995 60.56 146.241 61.54 146.241 62.66ZM140.661 59.44C139.955 59.44 139.361 59.64 138.881 60.04C138.401 60.44 138.108 60.9867 138.001 61.68H143.301C143.195 61 142.901 60.46 142.421 60.06C141.941 59.6467 141.355 59.44 140.661 59.44ZM148.633 57.24H151.733V61.44H156.413V57.24H159.533V68H156.413V63.98H151.733V68H148.633V57.24ZM162.52 57.24H165.62V63.64L170.86 57.24H173.72V68H170.62V61.6L165.4 68H162.52V57.24ZM187.179 62.66C187.179 62.7 187.159 62.98 187.119 63.5H178.979C179.125 64.1667 179.472 64.6933 180.019 65.08C180.565 65.4667 181.245 65.66 182.059 65.66C182.619 65.66 183.112 65.58 183.539 65.42C183.979 65.2467 184.385 64.98 184.759 64.62L186.419 66.42C185.405 67.58 183.925 68.16 181.979 68.16C180.765 68.16 179.692 67.9267 178.759 67.46C177.825 66.98 177.105 66.32 176.599 65.48C176.092 64.64 175.839 63.6867 175.839 62.62C175.839 61.5667 176.085 60.62 176.579 59.78C177.085 58.9267 177.772 58.2667 178.639 57.8C179.519 57.32 180.499 57.08 181.579 57.08C182.632 57.08 183.585 57.3067 184.439 57.76C185.292 58.2133 185.959 58.8667 186.439 59.72C186.932 60.56 187.179 61.54 187.179 62.66ZM181.599 59.44C180.892 59.44 180.299 59.64 179.819 60.04C179.339 60.44 179.045 60.9867 178.939 61.68H184.239C184.132 61 183.839 60.46 183.359 60.06C182.879 59.6467 182.292 59.44 181.599 59.44ZM62.24 88.92H60.62V93H57.5V82.24H60.62V86.42H62.3L65.22 82.24H68.54L64.78 87.4L68.8 93H65.12L62.24 88.92ZM76.672 82.08C77.672 82.08 78.5787 82.3133 79.392 82.78C80.2187 83.2333 80.8654 83.88 81.332 84.72C81.7987 85.5467 82.032 86.5133 82.032 87.62C82.032 88.7267 81.7987 89.7 81.332 90.54C80.8654 91.3667 80.2187 92.0133 79.392 92.48C78.5787 92.9333 77.672 93.16 76.672 93.16C75.2987 93.16 74.2187 92.7267 73.432 91.86V96.88H70.312V82.24H73.292V83.48C74.0654 82.5467 75.192 82.08 76.672 82.08ZM76.132 90.6C76.932 90.6 77.5854 90.3333 78.092 89.8C78.612 89.2533 78.872 88.5267 78.872 87.62C78.872 86.7133 78.612 85.9933 78.092 85.46C77.5854 84.9133 76.932 84.64 76.132 84.64C75.332 84.64 74.672 84.9133 74.152 85.46C73.6454 85.9933 73.392 86.7133 73.392 87.62C73.392 88.5267 73.6454 89.2533 74.152 89.8C74.672 90.3333 75.332 90.6 76.132 90.6ZM89.2588 93.16C88.1254 93.16 87.1054 92.9267 86.1988 92.46C85.3054 91.98 84.6054 91.32 84.0988 90.48C83.5921 89.64 83.3388 88.6867 83.3388 87.62C83.3388 86.5533 83.5921 85.6 84.0988 84.76C84.6054 83.92 85.3054 83.2667 86.1988 82.8C87.1054 82.32 88.1254 82.08 89.2588 82.08C90.3921 82.08 91.4054 82.32 92.2988 82.8C93.1921 83.2667 93.8921 83.92 94.3988 84.76C94.9054 85.6 95.1588 86.5533 95.1588 87.62C95.1588 88.6867 94.9054 89.64 94.3988 90.48C93.8921 91.32 93.1921 91.98 92.2988 92.46C91.4054 92.9267 90.3921 93.16 89.2588 93.16ZM89.2588 90.6C90.0588 90.6 90.7121 90.3333 91.2188 89.8C91.7388 89.2533 91.9988 88.5267 91.9988 87.62C91.9988 86.7133 91.7388 85.9933 91.2188 85.46C90.7121 84.9133 90.0588 84.64 89.2588 84.64C88.4588 84.64 87.7988 84.9133 87.2788 85.46C86.7588 85.9933 86.4988 86.7133 86.4988 87.62C86.4988 88.5267 86.7588 89.2533 87.2788 89.8C87.7988 90.3333 88.4588 90.6 89.2588 90.6ZM105.525 87.38C106.791 87.8067 107.425 88.66 107.425 89.94C107.425 90.9133 107.058 91.6667 106.325 92.2C105.591 92.7333 104.498 93 103.045 93H97.3047V82.24H102.805C104.151 82.24 105.205 82.4867 105.965 82.98C106.725 83.46 107.105 84.14 107.105 85.02C107.105 85.5533 106.965 86.0267 106.685 86.44C106.418 86.84 106.031 87.1533 105.525 87.38ZM100.165 86.66H102.525C103.618 86.66 104.165 86.2733 104.165 85.5C104.165 84.74 103.618 84.36 102.525 84.36H100.165V86.66ZM102.785 90.88C103.931 90.88 104.505 90.4867 104.505 89.7C104.505 89.2867 104.371 88.9867 104.105 88.8C103.838 88.6 103.418 88.5 102.845 88.5H100.165V90.88H102.785ZM120.066 82.24V93H116.946V84.8H113.546L113.446 86.7C113.393 88.1133 113.259 89.2867 113.046 90.22C112.833 91.1533 112.486 91.8867 112.006 92.42C111.526 92.9533 110.859 93.22 110.006 93.22C109.553 93.22 109.013 93.14 108.386 92.98L108.546 90.42C108.759 90.4467 108.913 90.46 109.006 90.46C109.473 90.46 109.819 90.2933 110.046 89.96C110.286 89.6133 110.446 89.18 110.526 88.66C110.606 88.1267 110.666 87.4267 110.706 86.56L110.866 82.24H120.066ZM123.066 82.24H126.166V88.64L131.406 82.24H134.266V93H131.166V86.6L125.946 93H123.066V82.24Z" fill="#141415"/>
</svg>
