<svg width="198" height="98" viewBox="0 0 198 98" fill="none" xmlns="http://www.w3.org/2000/svg">
<rect x="1" y="1" width="72" height="72" stroke="#61AE56" stroke-width="2"/>
<path d="M44.827 36.716C45.979 37.388 46.867 38.216 47.491 39.2C48.115 40.184 48.427 41.312 48.427 42.584C48.427 44.168 47.971 45.56 47.059 46.76C46.147 47.96 44.863 48.884 43.207 49.532C41.551 50.18 39.643 50.504 37.483 50.504C35.323 50.504 33.415 50.18 31.759 49.532C30.103 48.884 28.819 47.96 27.907 46.76C26.995 45.56 26.539 44.168 26.539 42.584C26.539 41.312 26.851 40.184 27.475 39.2C28.099 38.216 28.987 37.388 30.139 36.716C29.275 36.116 28.603 35.384 28.123 34.52C27.667 33.656 27.439 32.696 27.439 31.64C27.439 30.176 27.859 28.892 28.699 27.788C29.539 26.66 30.715 25.796 32.227 25.196C33.763 24.596 35.515 24.296 37.483 24.296C39.451 24.296 41.191 24.596 42.703 25.196C44.239 25.796 45.427 26.66 46.267 27.788C47.107 28.892 47.527 30.176 47.527 31.64C47.527 32.696 47.287 33.656 46.807 34.52C46.351 35.384 45.691 36.116 44.827 36.716ZM37.483 29.3C36.595 29.3 35.875 29.54 35.323 30.02C34.771 30.476 34.495 31.124 34.495 31.964C34.495 32.78 34.759 33.428 35.287 33.908C35.839 34.364 36.571 34.592 37.483 34.592C38.395 34.592 39.127 34.364 39.679 33.908C40.231 33.428 40.507 32.78 40.507 31.964C40.507 31.124 40.231 30.476 39.679 30.02C39.127 29.54 38.395 29.3 37.483 29.3ZM37.483 45.5C38.635 45.5 39.547 45.224 40.219 44.672C40.915 44.096 41.263 43.328 41.263 42.368C41.263 41.408 40.915 40.652 40.219 40.1C39.547 39.524 38.635 39.236 37.483 39.236C36.331 39.236 35.407 39.524 34.711 40.1C34.039 40.652 33.703 41.408 33.703 42.368C33.703 43.328 34.039 44.096 34.711 44.672C35.407 45.224 36.331 45.5 37.483 45.5Z" fill="#61AE56"/>
<path d="M70.18 65.36V70.9H67.18V68H57.3V70.9H54.3L54.32 65.36H54.88C55.72 65.3333 56.3133 64.72 56.66 63.52C57.0067 62.32 57.22 60.6067 57.3 58.38L57.46 54H68.22V65.36H70.18ZM60.16 58.68C60.0933 60.3467 59.9533 61.7467 59.74 62.88C59.5267 64 59.2 64.8267 58.76 65.36H65.02V56.64H60.22L60.16 58.68ZM80.3411 62.38C81.6078 62.8067 82.2411 63.66 82.2411 64.94C82.2411 65.9133 81.8744 66.6667 81.1411 67.2C80.4078 67.7333 79.3144 68 77.8611 68H72.1211V57.24H77.6211C78.9678 57.24 80.0211 57.4867 80.7811 57.98C81.5411 58.46 81.9211 59.14 81.9211 60.02C81.9211 60.5533 81.7811 61.0267 81.5011 61.44C81.2344 61.84 80.8478 62.1533 80.3411 62.38ZM74.9811 61.66H77.3411C78.4344 61.66 78.9811 61.2733 78.9811 60.5C78.9811 59.74 78.4344 59.36 77.3411 59.36H74.9811V61.66ZM77.6011 65.88C78.7478 65.88 79.3211 65.4867 79.3211 64.7C79.3211 64.2867 79.1878 63.9867 78.9211 63.8C78.6544 63.6 78.2344 63.5 77.6611 63.5H74.9811V65.88H77.6011ZM95.0225 62.66C95.0225 62.7 95.0025 62.98 94.9625 63.5H86.8225C86.9692 64.1667 87.3158 64.6933 87.8625 65.08C88.4092 65.4667 89.0892 65.66 89.9025 65.66C90.4625 65.66 90.9558 65.58 91.3825 65.42C91.8225 65.2467 92.2292 64.98 92.6025 64.62L94.2625 66.42C93.2492 67.58 91.7692 68.16 89.8225 68.16C88.6092 68.16 87.5358 67.9267 86.6025 67.46C85.6692 66.98 84.9492 66.32 84.4425 65.48C83.9358 64.64 83.6825 63.6867 83.6825 62.62C83.6825 61.5667 83.9292 60.62 84.4225 59.78C84.9292 58.9267 85.6158 58.2667 86.4825 57.8C87.3625 57.32 88.3425 57.08 89.4225 57.08C90.4758 57.08 91.4292 57.3067 92.2825 57.76C93.1358 58.2133 93.8025 58.8667 94.2825 59.72C94.7758 60.56 95.0225 61.54 95.0225 62.66ZM89.4425 59.44C88.7358 59.44 88.1425 59.64 87.6625 60.04C87.1825 60.44 86.8892 60.9867 86.7825 61.68H92.0825C91.9758 61 91.6825 60.46 91.2025 60.06C90.7225 59.6467 90.1358 59.44 89.4425 59.44ZM103.754 57.08C104.754 57.08 105.661 57.3133 106.474 57.78C107.301 58.2333 107.947 58.88 108.414 59.72C108.881 60.5467 109.114 61.5133 109.114 62.62C109.114 63.7267 108.881 64.7 108.414 65.54C107.947 66.3667 107.301 67.0133 106.474 67.48C105.661 67.9333 104.754 68.16 103.754 68.16C102.381 68.16 101.301 67.7267 100.514 66.86V71.88H97.3941V57.24H100.374V58.48C101.147 57.5467 102.274 57.08 103.754 57.08ZM103.214 65.6C104.014 65.6 104.667 65.3333 105.174 64.8C105.694 64.2533 105.954 63.5267 105.954 62.62C105.954 61.7133 105.694 60.9933 105.174 60.46C104.667 59.9133 104.014 59.64 103.214 59.64C102.414 59.64 101.754 59.9133 101.234 60.46C100.727 60.9933 100.474 61.7133 100.474 62.62C100.474 63.5267 100.727 64.2533 101.234 64.8C101.754 65.3333 102.414 65.6 103.214 65.6ZM111.301 57.24H114.401V63.64L119.641 57.24H122.501V68H119.401V61.6L114.181 68H111.301V57.24ZM126.64 64.28C127.2 64.28 127.66 64.46 128.02 64.82C128.38 65.1667 128.56 65.6267 128.56 66.2C128.56 66.4667 128.527 66.7333 128.46 67C128.393 67.2667 128.247 67.6667 128.02 68.2L126.88 71.08H124.9L125.78 67.9C125.447 67.7667 125.18 67.5533 124.98 67.26C124.793 66.9533 124.7 66.6 124.7 66.2C124.7 65.6267 124.88 65.1667 125.24 64.82C125.613 64.46 126.08 64.28 126.64 64.28ZM141.438 68.16C140.305 68.16 139.285 67.9267 138.378 67.46C137.485 66.98 136.785 66.32 136.278 65.48C135.772 64.64 135.518 63.6867 135.518 62.62C135.518 61.5533 135.772 60.6 136.278 59.76C136.785 58.92 137.485 58.2667 138.378 57.8C139.285 57.32 140.305 57.08 141.438 57.08C142.572 57.08 143.585 57.32 144.478 57.8C145.372 58.2667 146.072 58.92 146.578 59.76C147.085 60.6 147.338 61.5533 147.338 62.62C147.338 63.6867 147.085 64.64 146.578 65.48C146.072 66.32 145.372 66.98 144.478 67.46C143.585 67.9267 142.572 68.16 141.438 68.16ZM141.438 65.6C142.238 65.6 142.892 65.3333 143.398 64.8C143.918 64.2533 144.178 63.5267 144.178 62.62C144.178 61.7133 143.918 60.9933 143.398 60.46C142.892 59.9133 142.238 59.64 141.438 59.64C140.638 59.64 139.978 59.9133 139.458 60.46C138.938 60.9933 138.678 61.7133 138.678 62.62C138.678 63.5267 138.938 64.2533 139.458 64.8C139.978 65.3333 140.638 65.6 141.438 65.6ZM154.224 63.92H152.604V68H149.484V57.24H152.604V61.42H154.284L157.204 57.24H160.524L156.764 62.4L160.784 68H157.104L154.224 63.92ZM162.316 57.24H165.416V61.44H170.096V57.24H173.216V68H170.096V63.98H165.416V68H162.316V57.24ZM180.383 57.08C182.05 57.08 183.33 57.48 184.223 58.28C185.116 59.0667 185.563 60.26 185.563 61.86V68H182.643V66.66C182.056 67.66 180.963 68.16 179.363 68.16C178.536 68.16 177.816 68.02 177.203 67.74C176.603 67.46 176.143 67.0733 175.823 66.58C175.503 66.0867 175.343 65.5267 175.343 64.9C175.343 63.9 175.716 63.1133 176.463 62.54C177.223 61.9667 178.39 61.68 179.963 61.68H182.443C182.443 61 182.236 60.48 181.823 60.12C181.41 59.7467 180.79 59.56 179.963 59.56C179.39 59.56 178.823 59.6533 178.263 59.84C177.716 60.0133 177.25 60.2533 176.863 60.56L175.743 58.38C176.33 57.9667 177.03 57.6467 177.843 57.42C178.67 57.1933 179.516 57.08 180.383 57.08ZM180.143 66.06C180.676 66.06 181.15 65.94 181.563 65.7C181.976 65.4467 182.27 65.08 182.443 64.6V63.5H180.303C179.023 63.5 178.383 63.92 178.383 64.76C178.383 65.16 178.536 65.48 178.843 65.72C179.163 65.9467 179.596 66.06 180.143 66.06ZM189.413 64.28C189.973 64.28 190.433 64.46 190.793 64.82C191.153 65.1667 191.333 65.6267 191.333 66.2C191.333 66.4667 191.3 66.7333 191.233 67C191.167 67.2667 191.02 67.6667 190.793 68.2L189.653 71.08H187.673L188.553 67.9C188.22 67.7667 187.953 67.5533 187.753 67.26C187.567 66.9533 187.473 66.6 187.473 66.2C187.473 65.6267 187.653 65.1667 188.013 64.82C188.387 64.46 188.853 64.28 189.413 64.28ZM61.72 82.98C62.7467 82.98 63.6467 83.1933 64.42 83.62C65.1933 84.0333 65.7867 84.62 66.2 85.38C66.6267 86.14 66.84 87.02 66.84 88.02C66.84 89.0467 66.5867 89.96 66.08 90.76C65.5867 91.5467 64.8933 92.16 64 92.6C63.1067 93.0267 62.0933 93.24 60.96 93.24C59.08 93.24 57.6 92.64 56.52 91.44C55.4533 90.2267 54.92 88.4533 54.92 86.12C54.92 83.96 55.3867 82.24 56.32 80.96C57.2667 79.6667 58.7133 78.82 60.66 78.42L65.78 77.4L66.2 80.08L61.68 80.98C60.4533 81.22 59.54 81.62 58.94 82.18C58.3533 82.74 58.0067 83.5333 57.9 84.56C58.3667 84.0533 58.9267 83.6667 59.58 83.4C60.2333 83.12 60.9467 82.98 61.72 82.98ZM60.98 90.82C61.78 90.82 62.42 90.56 62.9 90.04C63.3933 89.52 63.64 88.86 63.64 88.06C63.64 87.2467 63.3933 86.6 62.9 86.12C62.42 85.64 61.78 85.4 60.98 85.4C60.1667 85.4 59.5133 85.64 59.02 86.12C58.5267 86.6 58.28 87.2467 58.28 88.06C58.28 88.8733 58.5333 89.54 59.04 90.06C59.5467 90.5667 60.1933 90.82 60.98 90.82ZM72.9613 82.08C74.6279 82.08 75.9079 82.48 76.8013 83.28C77.6946 84.0667 78.1413 85.26 78.1413 86.86V93H75.2213V91.66C74.6346 92.66 73.5413 93.16 71.9413 93.16C71.1146 93.16 70.3946 93.02 69.7812 92.74C69.1813 92.46 68.7213 92.0733 68.4013 91.58C68.0813 91.0867 67.9213 90.5267 67.9213 89.9C67.9213 88.9 68.2946 88.1133 69.0413 87.54C69.8013 86.9667 70.9679 86.68 72.5413 86.68H75.0213C75.0213 86 74.8146 85.48 74.4013 85.12C73.9879 84.7467 73.3679 84.56 72.5413 84.56C71.9679 84.56 71.4013 84.6533 70.8413 84.84C70.2946 85.0133 69.8279 85.2533 69.4413 85.56L68.3213 83.38C68.9079 82.9667 69.6079 82.6467 70.4213 82.42C71.2479 82.1933 72.0946 82.08 72.9613 82.08ZM72.7213 91.06C73.2546 91.06 73.7279 90.94 74.1413 90.7C74.5546 90.4467 74.8479 90.08 75.0213 89.6V88.5H72.8813C71.6013 88.5 70.9613 88.92 70.9613 89.76C70.9613 90.16 71.1146 90.48 71.4213 90.72C71.7413 90.9467 72.1746 91.06 72.7213 91.06ZM91.1716 82.24V93H88.0516V84.8H84.6516L84.5516 86.7C84.4982 88.1133 84.3649 89.2867 84.1516 90.22C83.9382 91.1533 83.5916 91.8867 83.1116 92.42C82.6316 92.9533 81.9649 93.22 81.1116 93.22C80.6582 93.22 80.1182 93.14 79.4916 92.98L79.6516 90.42C79.8649 90.4467 80.0182 90.46 80.1116 90.46C80.5782 90.46 80.9249 90.2933 81.1516 89.96C81.3916 89.6133 81.5516 89.18 81.6316 88.66C81.7116 88.1267 81.7716 87.4267 81.8116 86.56L81.9716 82.24H91.1716ZM98.9119 88.92H97.2919V93H94.1719V82.24H97.2919V86.42H98.9719L101.892 82.24H105.212L101.452 87.4L105.472 93H101.792L98.9119 88.92ZM111.712 93.16C110.579 93.16 109.559 92.9267 108.652 92.46C107.759 91.98 107.059 91.32 106.552 90.48C106.045 89.64 105.792 88.6867 105.792 87.62C105.792 86.5533 106.045 85.6 106.552 84.76C107.059 83.92 107.759 83.2667 108.652 82.8C109.559 82.32 110.579 82.08 111.712 82.08C112.845 82.08 113.859 82.32 114.752 82.8C115.645 83.2667 116.345 83.92 116.852 84.76C117.359 85.6 117.612 86.5533 117.612 87.62C117.612 88.6867 117.359 89.64 116.852 90.48C116.345 91.32 115.645 91.98 114.752 92.46C113.859 92.9267 112.845 93.16 111.712 93.16ZM111.712 90.6C112.512 90.6 113.165 90.3333 113.672 89.8C114.192 89.2533 114.452 88.5267 114.452 87.62C114.452 86.7133 114.192 85.9933 113.672 85.46C113.165 84.9133 112.512 84.64 111.712 84.64C110.912 84.64 110.252 84.9133 109.732 85.46C109.212 85.9933 108.952 86.7133 108.952 87.62C108.952 88.5267 109.212 89.2533 109.732 89.8C110.252 90.3333 110.912 90.6 111.712 90.6ZM119.758 82.24H122.858V86.44H127.538V82.24H130.658V93H127.538V88.98H122.858V93H119.758V82.24Z" fill="#141415"/>
</svg>
