<svg width="188" height="98" viewBox="0 0 188 98" fill="none" xmlns="http://www.w3.org/2000/svg">
<rect x="1" y="1" width="72" height="72" stroke="#61AE56" stroke-width="2"/>
<path d="M34.7505 24.296C38.3745 24.296 41.2305 25.364 43.3185 27.5C45.4065 29.636 46.4505 32.708 46.4505 36.716C46.4505 39.596 45.8865 42.08 44.7585 44.168C43.6545 46.232 42.0825 47.804 40.0425 48.884C38.0265 49.964 35.6865 50.504 33.0225 50.504C31.6065 50.504 30.2505 50.336 28.9545 50C27.6585 49.688 26.5545 49.244 25.6425 48.668L28.2345 43.556C29.4585 44.42 31.0065 44.852 32.8785 44.852C34.6785 44.852 36.1305 44.36 37.2345 43.376C38.3625 42.368 39.0225 40.916 39.2145 39.02C37.7745 40.244 35.8905 40.856 33.5625 40.856C31.9785 40.856 30.5265 40.532 29.2065 39.884C27.8865 39.212 26.8305 38.276 26.0385 37.076C25.2705 35.852 24.8865 34.46 24.8865 32.9C24.8865 31.196 25.3185 29.696 26.1825 28.4C27.0705 27.08 28.2585 26.072 29.7465 25.376C31.2585 24.656 32.9265 24.296 34.7505 24.296ZM35.2545 35.744C36.2865 35.744 37.1265 35.456 37.7745 34.88C38.4225 34.28 38.7465 33.5 38.7465 32.54C38.7465 31.604 38.4225 30.848 37.7745 30.272C37.1505 29.672 36.2985 29.372 35.2185 29.372C34.2105 29.372 33.3825 29.66 32.7345 30.236C32.1105 30.812 31.7985 31.592 31.7985 32.576C31.7985 33.536 32.1105 34.304 32.7345 34.88C33.3825 35.456 34.2225 35.744 35.2545 35.744Z" fill="#61AE56"/>
<path d="M63.36 68.24C61.9333 68.24 60.64 67.9333 59.48 67.32C58.3333 66.6933 57.4267 65.8333 56.76 64.74C56.1067 63.6333 55.78 62.3867 55.78 61C55.78 59.6133 56.1067 58.3733 56.76 57.28C57.4267 56.1733 58.3333 55.3133 59.48 54.7C60.64 54.0733 61.94 53.76 63.38 53.76C64.5933 53.76 65.6867 53.9733 66.66 54.4C67.6467 54.8267 68.4733 55.44 69.14 56.24L67.06 58.16C66.1133 57.0667 64.94 56.52 63.54 56.52C62.6733 56.52 61.9 56.7133 61.22 57.1C60.54 57.4733 60.0067 58 59.62 58.68C59.2467 59.36 59.06 60.1333 59.06 61C59.06 61.8667 59.2467 62.64 59.62 63.32C60.0067 64 60.54 64.5333 61.22 64.92C61.9 65.2933 62.6733 65.48 63.54 65.48C64.94 65.48 66.1133 64.9267 67.06 63.82L69.14 65.74C68.4733 66.5533 67.6467 67.1733 66.66 67.6C65.6733 68.0267 64.5733 68.24 63.36 68.24ZM71.0117 57.24H74.1117V63.64L79.3517 57.24H82.2117V68H79.1117V61.6L73.8917 68H71.0117V57.24ZM90.3309 68.16C89.1843 68.16 88.1509 67.9267 87.2309 67.46C86.3243 66.98 85.6109 66.32 85.0909 65.48C84.5843 64.64 84.3309 63.6867 84.3309 62.62C84.3309 61.5533 84.5843 60.6 85.0909 59.76C85.6109 58.92 86.3243 58.2667 87.2309 57.8C88.1509 57.32 89.1843 57.08 90.3309 57.08C91.4643 57.08 92.4509 57.32 93.2909 57.8C94.1443 58.2667 94.7643 58.94 95.1509 59.82L92.7309 61.12C92.1709 60.1333 91.3643 59.64 90.3109 59.64C89.4976 59.64 88.8243 59.9067 88.2909 60.44C87.7576 60.9733 87.4909 61.7 87.4909 62.62C87.4909 63.54 87.7576 64.2667 88.2909 64.8C88.8243 65.3333 89.4976 65.6 90.3109 65.6C91.3776 65.6 92.1843 65.1067 92.7309 64.12L95.1509 65.44C94.7643 66.2933 94.1443 66.96 93.2909 67.44C92.4509 67.92 91.4643 68.16 90.3309 68.16ZM106.048 59.8H102.408V68H99.3078V59.8H95.6678V57.24H106.048V59.8ZM117.722 62.66C117.722 62.7 117.702 62.98 117.662 63.5H109.522C109.668 64.1667 110.015 64.6933 110.562 65.08C111.108 65.4667 111.788 65.66 112.602 65.66C113.162 65.66 113.655 65.58 114.082 65.42C114.522 65.2467 114.928 64.98 115.302 64.62L116.962 66.42C115.948 67.58 114.468 68.16 112.522 68.16C111.308 68.16 110.235 67.9267 109.302 67.46C108.368 66.98 107.648 66.32 107.142 65.48C106.635 64.64 106.382 63.6867 106.382 62.62C106.382 61.5667 106.628 60.62 107.122 59.78C107.628 58.9267 108.315 58.2667 109.182 57.8C110.062 57.32 111.042 57.08 112.122 57.08C113.175 57.08 114.128 57.3067 114.982 57.76C115.835 58.2133 116.502 58.8667 116.982 59.72C117.475 60.56 117.722 61.54 117.722 62.66ZM112.142 59.44C111.435 59.44 110.842 59.64 110.362 60.04C109.882 60.44 109.588 60.9867 109.482 61.68H114.782C114.675 61 114.382 60.46 113.902 60.06C113.422 59.6467 112.835 59.44 112.142 59.44ZM130.613 68V61.56L127.393 66.96H126.073L122.933 61.54V68H120.113V57.24H123.373L126.813 63.46L130.473 57.24H133.393L133.433 68H130.613ZM140.602 57.08C142.269 57.08 143.549 57.48 144.442 58.28C145.335 59.0667 145.782 60.26 145.782 61.86V68H142.862V66.66C142.275 67.66 141.182 68.16 139.582 68.16C138.755 68.16 138.035 68.02 137.422 67.74C136.822 67.46 136.362 67.0733 136.042 66.58C135.722 66.0867 135.562 65.5267 135.562 64.9C135.562 63.9 135.935 63.1133 136.682 62.54C137.442 61.9667 138.609 61.68 140.182 61.68H142.662C142.662 61 142.455 60.48 142.042 60.12C141.629 59.7467 141.009 59.56 140.182 59.56C139.609 59.56 139.042 59.6533 138.482 59.84C137.935 60.0133 137.469 60.2533 137.082 60.56L135.962 58.38C136.549 57.9667 137.249 57.6467 138.062 57.42C138.889 57.1933 139.735 57.08 140.602 57.08ZM140.362 66.06C140.895 66.06 141.369 65.94 141.782 65.7C142.195 65.4467 142.489 65.08 142.662 64.6V63.5H140.522C139.242 63.5 138.602 63.92 138.602 64.76C138.602 65.16 138.755 65.48 139.062 65.72C139.382 65.9467 139.815 66.06 140.362 66.06ZM64.72 87.38C65.9867 87.8067 66.62 88.66 66.62 89.94C66.62 90.9133 66.2533 91.6667 65.52 92.2C64.7867 92.7333 63.6933 93 62.24 93H56.5V82.24H62C63.3467 82.24 64.4 82.4867 65.16 82.98C65.92 83.46 66.3 84.14 66.3 85.02C66.3 85.5533 66.16 86.0267 65.88 86.44C65.6133 86.84 65.2267 87.1533 64.72 87.38ZM59.36 86.66H61.72C62.8133 86.66 63.36 86.2733 63.36 85.5C63.36 84.74 62.8133 84.36 61.72 84.36H59.36V86.66ZM61.98 90.88C63.1267 90.88 63.7 90.4867 63.7 89.7C63.7 89.2867 63.5667 88.9867 63.3 88.8C63.0333 88.6 62.6133 88.5 62.04 88.5H59.36V90.88H61.98ZM79.4014 87.66C79.4014 87.7 79.3814 87.98 79.3414 88.5H71.2014C71.3481 89.1667 71.6947 89.6933 72.2414 90.08C72.7881 90.4667 73.4681 90.66 74.2814 90.66C74.8414 90.66 75.3347 90.58 75.7614 90.42C76.2014 90.2467 76.6081 89.98 76.9814 89.62L78.6414 91.42C77.6281 92.58 76.1481 93.16 74.2014 93.16C72.9881 93.16 71.9147 92.9267 70.9814 92.46C70.0481 91.98 69.3281 91.32 68.8214 90.48C68.3147 89.64 68.0614 88.6867 68.0614 87.62C68.0614 86.5667 68.3081 85.62 68.8014 84.78C69.3081 83.9267 69.9947 83.2667 70.8614 82.8C71.7414 82.32 72.7214 82.08 73.8014 82.08C74.8547 82.08 75.8081 82.3067 76.6614 82.76C77.5147 83.2133 78.1814 83.8667 78.6614 84.72C79.1547 85.56 79.4014 86.54 79.4014 87.66ZM73.8214 84.44C73.1147 84.44 72.5214 84.64 72.0414 85.04C71.5614 85.44 71.2681 85.9867 71.1614 86.68H76.4614C76.3547 86 76.0614 85.46 75.5814 85.06C75.1014 84.6467 74.5147 84.44 73.8214 84.44ZM81.793 82.24H84.893V86.44H89.573V82.24H92.693V93H89.573V88.98H84.893V93H81.793V82.24ZM104.72 84.8H101.08V93H97.9797V84.8H94.3397V82.24H104.72V84.8ZM106.383 82.24H109.483V88.64L114.723 82.24H117.583V93H114.483V86.6L109.263 93H106.383V82.24ZM130.902 82.24V93H127.782V84.8H124.382L124.282 86.7C124.229 88.1133 124.095 89.2867 123.882 90.22C123.669 91.1533 123.322 91.8867 122.842 92.42C122.362 92.9533 121.695 93.22 120.842 93.22C120.389 93.22 119.849 93.14 119.222 92.98L119.382 90.42C119.595 90.4467 119.749 90.46 119.842 90.46C120.309 90.46 120.655 90.2933 120.882 89.96C121.122 89.6133 121.282 89.18 121.362 88.66C121.442 88.1267 121.502 87.4267 121.542 86.56L121.702 82.24H130.902ZM143.462 82.24V93H140.682V89.92H138.382L136.342 93H133.022L135.482 89.48C134.736 89.1867 134.162 88.7667 133.762 88.22C133.376 87.66 133.182 86.9867 133.182 86.2C133.182 84.9333 133.636 83.96 134.542 83.28C135.462 82.5867 136.722 82.24 138.322 82.24H143.462ZM138.382 84.78C137.716 84.78 137.209 84.9 136.862 85.14C136.529 85.38 136.362 85.7667 136.362 86.3C136.362 86.8333 136.522 87.2267 136.842 87.48C137.176 87.72 137.676 87.84 138.342 87.84H140.682V84.78H138.382ZM158.581 90.44V95.36H155.681V93H146.461V82.24H149.561V90.44H153.901V82.24H157.021V90.44H158.581ZM160.543 82.24H163.643V88.64L168.883 82.24H171.743V93H168.643V86.6L163.423 93H160.543V82.24ZM174.742 82.24H177.842V88.64L183.082 82.24H185.942V93H182.842V86.6L177.622 93H174.742V82.24Z" fill="#141415"/>
</svg>
