<svg width="16" height="53" viewBox="0 0 16 53" fill="none" xmlns="http://www.w3.org/2000/svg">
<path d="M14.3097 32.3232C14.3097 32.2792 14.2665 32.2351 14.2665 32.2351L14.2232 32.191C13.4008 30.9123 12.3187 30.0305 11.1067 29.6336C11.1067 29.4132 11.15 29.1927 11.15 28.9723C11.3231 25.1363 11.7992 21.3443 12.5351 17.5524C12.9679 15.3919 12.8814 12.4819 12.0589 9.43952C10.2843 2.958 5.91256 -1.01027 3.79162 0.224302C1.6274 1.45888 1.15128 6.17671 2.57967 11.6C3.3155 14.2014 5.13344 16.847 6.12899 18.5666C7.90365 21.653 8.8559 25.4008 8.68276 29.1486C8.68276 29.2809 8.68276 29.3691 8.68276 29.5014C7.34095 29.7218 6.12899 30.4273 5.04688 31.4414C3.05579 33.2492 1.49756 35.9829 0.631868 39.1575C-0.753233 44.5367 0.069165 50.3128 3.79162 52.4292C7.4708 54.5456 13.4873 50.6214 15.4351 43.214C16.5605 38.8929 15.9113 34.8365 14.3097 32.3232ZM13.2276 43.8312C13.0978 44.4926 12.8814 45.1099 12.6216 45.7272C12.3619 46.3445 12.0157 46.9177 11.6261 47.4468C11.2365 47.9759 10.7604 48.4609 10.2843 48.9018C9.28874 49.7396 8.12007 50.3568 6.90811 50.6655C7.94693 49.96 8.94247 49.2105 9.76487 48.3286C10.5873 47.4468 11.2798 46.4327 11.756 45.3304C12.2321 44.2281 12.5351 43.0376 12.7082 41.8471C12.8381 40.6125 12.8813 39.378 12.7948 38.0993C13.2709 39.2898 13.4873 40.6125 13.444 41.8912C13.444 42.5526 13.3575 43.214 13.2276 43.8312Z" fill="#FFD244"/>
</svg>
