<svg width="184" height="83" viewBox="0 0 184 83" fill="none" xmlns="http://www.w3.org/2000/svg">
<path d="M84.319 46.0542H81.4088L80.6862 41.9917C80.1002 41.4969 79.319 41.0868 78.3424 40.7613C77.3658 40.4357 76.233 40.273 74.944 40.273C72.8997 40.273 71.3307 40.7092 70.2369 41.5816C69.1432 42.4409 68.5963 43.5673 68.5963 44.9605C68.5963 46.1975 69.1497 47.2326 70.2565 48.0659C71.3763 48.8863 73.1796 49.6089 75.6666 50.2339C78.6614 50.9761 80.9336 52.0699 82.483 53.5152C84.0455 54.9605 84.8268 56.7508 84.8268 58.8863C84.8268 61.1779 83.8893 63.0204 82.0143 64.4136C80.1523 65.8068 77.7109 66.5034 74.6901 66.5034C72.5026 66.5034 70.5559 66.1454 68.8502 65.4292C67.1575 64.7131 65.7773 63.7756 64.7096 62.6167V57.3238H67.6002L68.3424 61.4058C69.0846 62.0178 69.97 62.5191 70.9987 62.9097C72.0273 63.3003 73.2578 63.4956 74.6901 63.4956C76.6302 63.4956 78.1601 63.0855 79.2799 62.2652C80.4127 61.4449 80.9791 60.3316 80.9791 58.9253C80.9791 57.6232 80.4908 56.536 79.5143 55.6636C78.5377 54.7782 76.8125 54.036 74.3385 53.437C71.3307 52.7209 68.9804 51.6662 67.2877 50.273C65.595 48.8798 64.7487 47.1284 64.7487 45.0191C64.7487 42.7925 65.6927 40.9436 67.5807 39.4722C69.4687 37.9878 71.9231 37.2456 74.944 37.2456C76.9362 37.2456 78.7461 37.5907 80.3737 38.2808C82.0143 38.9579 83.3294 39.7847 84.319 40.7613V46.0542Z" fill="black"/>
<path d="M98.108 37.6558V40.1363L94.9244 40.6831V56.9331C94.9244 59.0816 95.5364 60.7157 96.7604 61.8355C97.9843 62.9423 99.5989 63.4956 101.604 63.4956C103.714 63.4956 105.413 62.9423 106.702 61.8355C107.991 60.7287 108.635 59.0946 108.635 56.9331V40.6831L105.452 40.1363V37.6558H112.483H115.667V40.1363L112.483 40.6831V56.9331C112.483 60.0191 111.474 62.3889 109.456 64.0425C107.45 65.6831 104.833 66.5034 101.604 66.5034C98.4661 66.5034 95.927 65.6831 93.9869 64.0425C92.0468 62.3889 91.0768 60.0191 91.0768 56.9331V40.6831L87.8932 40.1363V37.6558H91.0768H98.108Z" fill="black"/>
<path d="M138.811 46.0542H135.901L135.178 41.9917C134.592 41.4969 133.811 41.0868 132.835 40.7613C131.858 40.4357 130.725 40.273 129.436 40.273C127.392 40.273 125.823 40.7092 124.729 41.5816C123.635 42.4409 123.089 43.5673 123.089 44.9605C123.089 46.1975 123.642 47.2326 124.749 48.0659C125.868 48.8863 127.672 49.6089 130.159 50.2339C133.154 50.9761 135.426 52.0699 136.975 53.5152C138.538 54.9605 139.319 56.7508 139.319 58.8863C139.319 61.1779 138.381 63.0204 136.506 64.4136C134.644 65.8068 132.203 66.5034 129.182 66.5034C126.995 66.5034 125.048 66.1454 123.342 65.4292C121.65 64.7131 120.269 63.7756 119.202 62.6167V57.3238H122.092L122.835 61.4058C123.577 62.0178 124.462 62.5191 125.491 62.9097C126.519 63.3003 127.75 63.4956 129.182 63.4956C131.122 63.4956 132.652 63.0855 133.772 62.2652C134.905 61.4449 135.471 60.3316 135.471 58.9253C135.471 57.6232 134.983 56.536 134.006 55.6636C133.03 54.7782 131.305 54.036 128.831 53.437C125.823 52.7209 123.473 51.6662 121.78 50.273C120.087 48.8798 119.241 47.1284 119.241 45.0191C119.241 42.7925 120.185 40.9436 122.073 39.4722C123.961 37.9878 126.415 37.2456 129.436 37.2456C131.428 37.2456 133.238 37.5907 134.866 38.2808C136.506 38.9579 137.822 39.7847 138.811 40.7613V46.0542Z" fill="black"/>
<path d="M142.6 40.1363V37.6558H152.815V40.1363L149.631 40.6831V50.5074H163.421V40.6831L160.237 40.1363V37.6558H163.421H167.268H170.452V40.1363L167.268 40.6831V63.0855L170.452 63.6324V66.0933H160.237V63.6324L163.421 63.0855V53.5347H149.631V63.0855L152.815 63.6324V66.0933H142.6V63.6324L145.784 63.0855V40.6831L142.6 40.1363Z" fill="black"/>
<path d="M173.323 40.1363V37.6558H183.538V40.1363L180.354 40.6831V63.0855L183.538 63.6324V66.0933H173.323V63.6324L176.506 63.0855V40.6831L173.323 40.1363Z" fill="black"/>
<path d="M69.2631 71.6602H70.3471V78H69.2631V73.377L66.3393 78H65.2553V71.6602H66.3393V76.2891L69.2631 71.6602Z" fill="#EB5757"/>
<path d="M78.467 78H77.383V75.293H74.4709V78H73.3811V71.6602H74.4709V74.4082H77.383V71.6602H78.467V78Z" fill="#EB5757"/>
<path d="M86.1241 72.5391H83.9971V78H82.9131V72.5391H80.8272V71.6602H86.1241V72.5391Z" fill="#EB5757"/>
<path d="M90.5409 78.1172C89.6815 78.1172 88.9823 77.8359 88.4432 77.2734C87.9041 76.707 87.6346 75.9512 87.6346 75.0059V74.8066C87.6346 74.1777 87.7537 73.6172 87.992 73.125C88.2342 72.6289 88.5702 72.2422 88.9998 71.9648C89.4334 71.6836 89.9022 71.543 90.4061 71.543C91.2303 71.543 91.8709 71.8145 92.328 72.3574C92.785 72.9004 93.0135 73.6777 93.0135 74.6895V75.1406H88.7186C88.7342 75.7656 88.9159 76.2715 89.2635 76.6582C89.6151 77.041 90.0604 77.2324 90.5995 77.2324C90.9823 77.2324 91.3065 77.1543 91.5721 76.998C91.8377 76.8418 92.0702 76.6348 92.2694 76.377L92.9315 76.8926C92.4002 77.709 91.6034 78.1172 90.5409 78.1172ZM90.4061 72.4336C89.9686 72.4336 89.6014 72.5938 89.3045 72.9141C89.0077 73.2305 88.8241 73.6758 88.7537 74.25H91.9295V74.168C91.8983 73.6172 91.7498 73.1914 91.4842 72.8906C91.2186 72.5859 90.8592 72.4336 90.4061 72.4336Z" fill="#EB5757"/>
<path d="M100.829 74.9004C100.829 75.8652 100.608 76.6426 100.167 77.2324C99.7252 77.8223 99.1276 78.1172 98.3737 78.1172C97.6041 78.1172 96.9987 77.873 96.5573 77.3848V80.4375H95.4733V71.6602H96.4635L96.5162 72.3633C96.9577 71.8164 97.5709 71.543 98.3561 71.543C99.1178 71.543 99.7194 71.8301 100.161 72.4043C100.606 72.9785 100.829 73.7773 100.829 74.8008V74.9004ZM99.7448 74.7773C99.7448 74.0625 99.5924 73.498 99.2877 73.084C98.983 72.6699 98.5651 72.4629 98.0338 72.4629C97.3776 72.4629 96.8854 72.7539 96.5573 73.3359V76.3652C96.8815 76.9434 97.3776 77.2324 98.0455 77.2324C98.5651 77.2324 98.9772 77.0273 99.2819 76.6172C99.5905 76.2031 99.7448 75.5898 99.7448 74.7773Z" fill="#EB5757"/>
<path d="M108.591 78H107.507V75.293H104.595V78H103.505V71.6602H104.595V74.4082H107.507V71.6602H108.591V78Z" fill="#EB5757"/>
<path d="M114.168 78.1172C113.309 78.1172 112.61 77.8359 112.071 77.2734C111.531 76.707 111.262 75.9512 111.262 75.0059V74.8066C111.262 74.1777 111.381 73.6172 111.619 73.125C111.862 72.6289 112.197 72.2422 112.627 71.9648C113.061 71.6836 113.53 71.543 114.033 71.543C114.858 71.543 115.498 71.8145 115.955 72.3574C116.412 72.9004 116.641 73.6777 116.641 74.6895V75.1406H112.346C112.362 75.7656 112.543 76.2715 112.891 76.6582C113.242 77.041 113.688 77.2324 114.227 77.2324C114.61 77.2324 114.934 77.1543 115.199 76.998C115.465 76.8418 115.697 76.6348 115.897 76.377L116.559 76.8926C116.028 77.709 115.231 78.1172 114.168 78.1172ZM114.033 72.4336C113.596 72.4336 113.229 72.5938 112.932 72.9141C112.635 73.2305 112.451 73.6758 112.381 74.25H115.557V74.168C115.526 73.6172 115.377 73.1914 115.112 72.8906C114.846 72.5859 114.487 72.4336 114.033 72.4336Z" fill="#EB5757"/>
<path d="M123.741 72.5391H121.614V78H120.53V72.5391H118.444V71.6602H123.741V72.5391Z" fill="#EB5757"/>
<path d="M128.252 74.8184H125.392V73.9336H128.252V74.8184Z" fill="#EB5757"/>
<path d="M134.163 76.5645L136.319 71.6602H137.673V78H136.589V73.3887L134.538 78H133.788L131.696 73.2891V78H130.612V71.6602H132.018L134.163 76.5645Z" fill="#EB5757"/>
<path d="M144.533 78C144.47 77.875 144.419 77.6523 144.38 77.332C143.876 77.8555 143.275 78.1172 142.576 78.1172C141.951 78.1172 141.437 77.9414 141.035 77.5898C140.636 77.2344 140.437 76.7852 140.437 76.2422C140.437 75.582 140.687 75.0703 141.187 74.707C141.691 74.3398 142.398 74.1562 143.308 74.1562H144.363V73.6582C144.363 73.2793 144.249 72.9785 144.023 72.7559C143.796 72.5293 143.462 72.416 143.021 72.416C142.634 72.416 142.31 72.5137 142.048 72.709C141.787 72.9043 141.656 73.1406 141.656 73.418H140.566C140.566 73.1016 140.677 72.7969 140.9 72.5039C141.126 72.207 141.431 71.9727 141.814 71.8008C142.201 71.6289 142.624 71.543 143.085 71.543C143.816 71.543 144.388 71.7266 144.802 72.0938C145.216 72.457 145.431 72.959 145.447 73.5996V76.5176C145.447 77.0996 145.521 77.5625 145.669 77.9062V78H144.533ZM142.734 77.1738C143.074 77.1738 143.396 77.0859 143.701 76.9102C144.005 76.7344 144.226 76.5059 144.363 76.2246V74.9238H143.513C142.185 74.9238 141.521 75.3125 141.521 76.0898C141.521 76.4297 141.634 76.6953 141.861 76.8867C142.087 77.0781 142.378 77.1738 142.734 77.1738Z" fill="#EB5757"/>
<path d="M152.442 72.5566H149.518V78H148.428V71.6602H152.442V72.5566Z" fill="#EB5757"/>
<path d="M158.499 78C158.437 77.875 158.386 77.6523 158.347 77.332C157.843 77.8555 157.241 78.1172 156.542 78.1172C155.917 78.1172 155.403 77.9414 155.001 77.5898C154.603 77.2344 154.403 76.7852 154.403 76.2422C154.403 75.582 154.653 75.0703 155.153 74.707C155.657 74.3398 156.364 74.1562 157.274 74.1562H158.329V73.6582C158.329 73.2793 158.216 72.9785 157.989 72.7559C157.763 72.5293 157.429 72.416 156.987 72.416C156.601 72.416 156.276 72.5137 156.015 72.709C155.753 72.9043 155.622 73.1406 155.622 73.418H154.532C154.532 73.1016 154.644 72.7969 154.866 72.5039C155.093 72.207 155.397 71.9727 155.78 71.8008C156.167 71.6289 156.591 71.543 157.052 71.543C157.782 71.543 158.355 71.7266 158.769 72.0938C159.183 72.457 159.397 72.959 159.413 73.5996V76.5176C159.413 77.0996 159.487 77.5625 159.636 77.9062V78H158.499ZM156.7 77.1738C157.04 77.1738 157.362 77.0859 157.667 76.9102C157.972 76.7344 158.192 76.5059 158.329 76.2246V74.9238H157.48C156.151 74.9238 155.487 75.3125 155.487 76.0898C155.487 76.4297 155.601 76.6953 155.827 76.8867C156.054 77.0781 156.345 77.1738 156.7 77.1738Z" fill="#EB5757"/>
<path d="M165.799 73.3945C165.799 73.0977 165.685 72.8633 165.459 72.6914C165.232 72.5156 164.922 72.4277 164.527 72.4277C164.144 72.4277 163.824 72.5273 163.566 72.7266C163.312 72.9258 163.185 73.1602 163.185 73.4297H162.107C162.107 72.8789 162.338 72.4277 162.799 72.0762C163.26 71.7246 163.836 71.5488 164.527 71.5488C165.269 71.5488 165.847 71.709 166.262 72.0293C166.676 72.3457 166.883 72.7988 166.883 73.3887C166.883 73.6738 166.797 73.9355 166.625 74.1738C166.453 74.4121 166.209 74.6016 165.892 74.7422C166.631 74.9922 167 75.4844 167 76.2188C167 76.8008 166.775 77.2617 166.326 77.6016C165.877 77.9414 165.277 78.1113 164.527 78.1113C163.797 78.1113 163.193 77.9336 162.717 77.5781C162.244 77.2188 162.008 76.7344 162.008 76.125H163.086C163.086 76.4336 163.222 76.6992 163.496 76.9219C163.773 77.1406 164.117 77.25 164.527 77.25C164.941 77.25 165.275 77.1543 165.529 76.9629C165.783 76.7715 165.91 76.5234 165.91 76.2188C165.91 75.8633 165.803 75.6094 165.588 75.457C165.377 75.3008 165.047 75.2227 164.597 75.2227H163.514V74.3086H164.691C165.43 74.2891 165.799 73.9844 165.799 73.3945Z" fill="#EB5757"/>
<path d="M173.708 71.6602H174.792V78H173.708V73.377L170.784 78H169.7V71.6602H170.784V76.2891L173.708 71.6602Z" fill="#EB5757"/>
<path d="M182.912 78H181.828V75.293H178.915V78H177.826V71.6602H178.915V74.4082H181.828V71.6602H182.912V78Z" fill="#EB5757"/>
<ellipse rx="16.4603" ry="16.5245" transform="matrix(0.98293 -0.183978 0.183401 0.983038 19.2099 63.7274)" fill="white"/>
<ellipse rx="7.31569" ry="7.34424" transform="matrix(0.982846 -0.184432 0.182949 0.983123 19.2011 63.7214)" fill="#EB5757"/>
<path d="M34.4064 60.8831C35.9795 69.3152 30.4463 77.4184 22.0572 78.9886C13.668 80.5589 5.58669 75.0039 4.01354 66.5718C2.4404 58.1396 7.9736 50.0364 16.3627 48.4662C24.7519 46.896 32.8332 52.4509 34.4064 60.8831Z" stroke="black" stroke-width="2"/>
<path d="M95.6076 21.174L10.0997 47.6653L9.80219 46.11L94.2208 16.4422L95.6076 21.174Z" fill="#EB5757"/>
<path d="M81.515 3.81452L32.6436 79.0892L31.4245 78.0845L77.4356 1.06716L81.515 3.81452Z" fill="#EB5757"/>
</svg>
