<svg width="81" height="81" viewBox="0 0 81 81" fill="none" xmlns="http://www.w3.org/2000/svg">
<path d="M58 62.3089C54.0281 65.6991 49.018 67.974 43.692 68.7324C41.029 69.0892 38.3659 69.0892 35.7029 68.7324C34.394 68.5539 33.0399 68.2863 31.7761 67.8848C31.4602 67.7956 31.1442 67.7064 30.8283 67.5726C30.5123 67.4834 30.1964 67.3495 29.8804 67.2603L28.9326 66.9035L27.9847 66.502C23.0649 64.3162 18.8222 60.7031 15.7981 56.2423C14.3086 54.012 13.1351 51.5586 12.3226 49.016C11.9164 47.7223 11.6004 46.4287 11.3748 45.0905C11.1491 43.7523 11.0137 42.4141 11.0137 41.0759C10.9234 38.3994 11.2845 35.723 11.9615 33.1358C12.3226 31.8422 12.7288 30.5932 13.2705 29.3442C13.4059 29.0319 13.5413 28.7196 13.6767 28.4074L13.9024 27.9613L14.128 27.5153C14.2635 27.203 14.444 26.9354 14.5794 26.6231L15.0759 25.7756C17.8743 21.181 21.9817 17.3894 26.7661 15.0252C29.1583 13.8208 31.731 12.9733 34.394 12.4826C37.057 12.0365 39.72 11.8581 42.383 12.1258C45.046 12.3934 47.6639 13.0179 50.1012 13.9993C51.3199 14.4899 52.5386 15.0698 53.667 15.7389C54.7954 16.408 55.9238 17.1218 56.9167 17.9247C55.8335 17.211 54.7051 16.5419 53.5316 15.962C52.358 15.3821 51.1394 14.8914 49.9207 14.4453C47.4382 13.5978 44.8655 13.1071 42.2928 12.9733C39.72 12.8395 37.1021 13.0625 34.5745 13.5978C33.3107 13.91 32.0921 14.2223 30.8734 14.6684C29.6547 15.1144 28.4812 15.6051 27.3528 16.2296L26.9466 16.4527L26.5404 16.6757C26.2696 16.8541 25.9987 16.9879 25.7279 17.1664C25.1863 17.5232 24.6447 17.8355 24.1482 18.2369C23.6066 18.5938 23.1552 18.9953 22.6136 19.3967C22.1171 19.7982 21.6206 20.1997 21.1692 20.6903C20.2214 21.5379 19.4089 22.5192 18.5965 23.5006C17.784 24.482 17.107 25.5525 16.43 26.6231C15.7981 27.6937 15.2113 28.8535 14.7148 30.0133C14.2183 31.173 13.8121 32.3774 13.4961 33.5818C12.8642 36.0352 12.5483 38.5332 12.6386 41.0759C12.6386 42.3249 12.774 43.5739 12.9545 44.8229C13.1351 46.0719 13.451 47.2763 13.8121 48.5253C14.2183 49.7297 14.6245 50.8895 15.2113 52.0492C15.7529 53.1644 16.3848 54.2796 17.0619 55.3502C17.7389 56.4208 18.5062 57.4467 19.3638 58.3835C19.5895 58.6065 19.77 58.8742 19.9957 59.0972C20.2214 59.3202 20.4471 59.5433 20.6727 59.7663C21.1241 60.2124 21.5754 60.6584 22.0719 61.0599C22.5233 61.506 23.0649 61.8628 23.5614 62.2643C23.8322 62.4427 24.0579 62.6212 24.3287 62.8442C24.5995 63.0226 24.8704 63.2011 25.1412 63.3795C26.1793 64.0932 27.3077 64.7177 28.4812 65.253L29.3388 65.6545L30.2415 66.0113C30.5575 66.1451 30.8283 66.2344 31.1442 66.3682C31.4602 66.4574 31.731 66.5912 32.0469 66.6804C33.2656 67.0819 34.5294 67.3495 35.7932 67.5726C38.3208 68.0186 40.9387 68.1079 43.5114 67.8402C48.7472 67.4387 53.7572 65.4314 58 62.3089Z" fill="#FFD244"/>
<path d="M11.3968 12.2009C12.7823 10.7363 14.3019 9.40485 15.9109 8.16218C16.7154 7.54085 17.5646 6.96389 18.4138 6.43132L19.0395 6.03189L19.7099 5.63246C20.1569 5.36617 20.6038 5.09988 21.0508 4.87798C24.6263 2.92521 28.5147 1.5494 32.5372 0.750536C40.5822 -0.847184 49.1636 0.1292 56.7169 3.45778C64.2703 6.74199 70.751 12.4672 75.0863 19.4794C76.159 21.2546 77.0976 23.0742 77.9021 24.9826C78.6619 26.891 79.3323 28.8438 79.8239 30.8409C80.3156 32.8381 80.6284 34.8796 80.8519 36.9211C81.0307 38.9627 81.0307 41.0486 80.9413 43.0901C80.8072 45.1316 80.4943 47.1732 80.0921 49.2147C79.8686 50.2355 79.6005 51.2119 79.3323 52.1882L78.8407 53.6528C78.7066 54.141 78.4831 54.6292 78.3043 55.1174C77.5445 57.0258 76.6953 58.8898 75.6227 60.7094C75.3992 61.1532 75.0863 61.597 74.8182 62.0409C74.55 62.4847 74.2818 62.9285 73.969 63.3279L73.0751 64.5706L72.1365 65.7689C70.8404 67.3666 69.4548 68.8755 67.8905 70.2957C66.3709 71.6716 64.7619 73.003 63.0188 74.1125C59.6221 76.4203 55.823 78.1956 51.8452 79.3495C49.8787 79.9264 47.8227 80.3703 45.8115 80.6365C43.7555 80.9028 41.6996 81.036 39.6436 80.9916C35.5318 80.9028 31.4199 80.2371 27.5315 78.9501C19.7546 76.3759 12.827 71.4053 8 64.8812C9.29614 66.4346 10.6817 67.9435 12.1566 69.275C12.8717 69.9851 13.6762 70.6064 14.436 71.2277C14.8382 71.5384 15.2405 71.8491 15.6427 72.1154C15.8662 72.2485 16.045 72.426 16.2685 72.5592L16.8942 72.9586C17.6987 73.5356 18.5926 74.0238 19.4418 74.5563C20.3357 75.0445 21.1849 75.5327 22.1234 75.9321C23.0173 76.376 23.9559 76.731 24.8945 77.1304L26.3247 77.6186C26.8163 77.7961 27.2633 77.9293 27.7549 78.0624C35.4424 80.3702 43.8002 80.3703 51.3983 77.9737C53.3201 77.3967 55.1526 76.6422 56.9404 75.7546C58.7282 74.9114 60.4712 73.8906 62.0802 72.7367C63.7339 71.6272 65.2536 70.3401 66.7285 69.0087C68.2034 67.6773 69.4995 66.1683 70.751 64.615C72.0024 63.0616 73.0751 61.4195 74.0584 59.6887C75.0416 58.0022 75.8908 56.1825 76.6059 54.3185C76.7847 53.8747 76.9635 53.3865 77.0976 52.9427L77.5445 51.5225C77.8127 50.5905 78.0808 49.6141 78.2596 48.6378C78.6619 46.7294 78.9747 44.7322 79.0641 42.7794C79.1982 40.8267 79.1982 38.8295 79.0194 36.8768C78.8407 34.924 78.5278 32.9712 78.0808 31.0185C77.5892 29.1101 77.0082 27.2017 76.2484 25.3821C75.4886 23.5624 74.5947 21.7872 73.5667 20.1007C69.6336 13.5323 63.4211 7.98466 56.1806 4.65607C52.5603 2.96959 48.6719 1.90444 44.6941 1.37187C42.7276 1.10558 40.7163 0.972441 38.7051 1.01682C36.6938 1.0612 34.6826 1.23873 32.716 1.59378C28.7829 2.21511 24.8945 3.45778 21.2742 5.27741C17.6987 7.09703 14.3466 9.40485 11.3968 12.2009Z" fill="#FFD244"/>
<path fill-rule="evenodd" clip-rule="evenodd" d="M46.3866 30.299C46.7107 30.295 47.037 30.3729 47.2686 30.5321C47.5852 30.7543 47.7209 31.0653 47.7209 31.4208C47.6757 31.6874 47.5852 31.8209 47.3138 31.8654C46.9972 31.9098 46.6806 31.9098 46.3187 31.9098C46.0021 31.9542 45.6855 31.9542 45.3689 31.8654C45.1892 31.8358 45.0888 31.7675 45.0546 31.6471C45.0219 31.5863 45.007 31.5109 45.007 31.4208C45.007 31.0653 45.188 30.7543 45.5046 30.5321C45.7361 30.3729 46.0625 30.295 46.3866 30.299ZM40.7101 46.8861C40.9362 46.8861 41.0267 46.975 41.0267 47.1971V49.108C41.0267 49.7303 41.0267 50.3524 41.1172 50.9745C41.1172 51.2411 41.0267 51.2855 40.8005 51.2855H39.2627C39.2427 51.2855 39.2228 51.2865 39.2034 51.2875C39.091 51.2928 38.998 51.2972 39.0365 51.1078C39.2088 50.4591 39.2535 49.7924 39.2979 49.1305C39.3234 48.7496 39.3488 48.3702 39.3984 47.9969C39.4888 47.2416 39.9412 46.8861 40.7101 46.8861ZM51.7186 48.8612C52.1204 48.8602 52.4787 48.9427 52.7415 49.3302C53.1034 49.9081 53.1486 50.5746 52.7868 51.1967C52.5154 51.7301 51.5203 51.9523 50.9775 51.6857C50.8418 51.6412 50.8418 51.5079 50.8418 51.4191V50.2635H50.7966C50.7966 49.9081 50.7966 49.5968 50.7514 49.2413C50.7514 49.0192 50.7966 48.9303 51.0228 48.9303C51.068 48.9303 51.1019 48.9193 51.1358 48.9081C51.1698 48.8969 51.2037 48.8859 51.2489 48.8859C51.4043 48.8732 51.5632 48.8605 51.7186 48.8612ZM60.7474 22.3551C65.1348 22.6661 68.7081 26.1769 68.9795 30.4877C69.1152 32.4874 68.5724 34.3094 67.5321 35.8649C66.4013 37.5536 66.0847 39.5978 66.5822 41.5531C66.9441 42.8864 67.0798 44.3085 66.9893 45.775C66.5822 53.0189 60.5665 58.8405 53.1938 59.1515C51.9274 59.1959 50.7061 59.1071 49.5301 58.8405C46.9972 58.2628 44.3286 58.9738 42.3384 60.6625C39.8055 62.7958 36.4584 64.0844 32.8399 63.9955C25.422 63.8622 19.3158 57.9073 19.0897 50.619C19.0444 49.4191 19.1801 48.2638 19.4063 47.1527C19.7681 45.4196 19.4063 43.5531 18.366 42.0865C16.7376 39.7311 15.8783 36.8871 16.014 33.8207C16.3306 26.8434 22.1201 21.244 29.2214 20.9774C30.6236 20.933 31.9805 21.0663 33.247 21.4218C35.3728 21.955 37.6344 21.4662 39.3984 20.1774C41.2076 18.7997 43.4692 17.9999 45.9569 17.9999C48.6255 17.9999 51.068 18.9332 52.9677 20.4886C54.6865 21.955 56.9028 22.6661 59.1643 22.3995C59.6619 22.3107 60.2046 22.3107 60.7474 22.3551ZM39.6698 28.799C37.9962 28.4432 36.4584 28.8878 35.1467 29.9098C33.654 31.1097 33.1565 32.754 33.1565 34.5316C33.1565 35.2872 33.247 35.9982 33.4731 36.7094C34.242 39.2423 37.2273 40.7089 39.7602 39.8644C40.5292 39.5978 40.9815 39.0646 41.0719 38.2645C41.1624 37.5092 40.8005 37.0204 40.0769 36.8427C39.8055 36.7538 39.4888 36.7538 39.2175 36.7538C37.6796 36.6647 36.5036 35.9537 36.6845 34.0428C36.8202 32.9318 37.4987 32.1764 38.6295 31.9987C38.7256 31.9799 38.8237 31.963 38.9226 31.9459C39.2891 31.8827 39.6658 31.818 39.9864 31.6429C40.6649 31.2875 40.9362 30.7543 40.8458 29.9987C40.7553 29.3766 40.3935 28.9323 39.6698 28.799ZM22.5724 39.7755C22.9795 39.9088 23.3866 39.9979 23.8389 40.0424C25.1054 40.1757 26.4171 40.0868 27.6836 39.9979C29.3119 39.9088 30.6236 39.2423 31.3925 37.7758C32.1162 36.4869 32.1162 35.1539 31.5734 33.7762C31.302 33.1095 30.8045 32.6207 30.126 32.3097C30.0657 32.2802 29.9853 32.2653 29.9049 32.2504C29.7441 32.2208 29.5833 32.1913 29.5833 32.0431C29.5833 31.9318 29.6899 31.8903 29.814 31.8417C29.8879 31.8129 29.968 31.7816 30.0356 31.7318C30.9402 31.1097 31.302 30.2211 31.4377 29.1544C31.7091 27.288 30.8045 25.8214 28.9953 25.288C27.0956 24.7103 25.1506 24.7992 23.2057 25.1102C22.3463 25.2435 21.8488 25.7325 21.6226 26.5323L21.5923 26.6354C21.513 26.9037 21.4417 27.1451 21.4417 27.4213L21.1703 32.6207C21.14 33.6027 21.1908 34.5646 21.2413 35.5199C21.2662 35.9916 21.291 36.4615 21.306 36.9315C21.3512 37.4647 21.3964 37.9535 21.5321 38.4869C21.6678 39.0646 21.9392 39.5533 22.5724 39.7755ZM30.0808 51.0634C29.3119 50.9745 28.7691 50.5302 28.6334 49.8636C28.5429 49.3746 28.7239 49.1525 29.2214 49.1969C29.4763 49.1969 29.7312 49.2111 29.9537 49.2235C30.126 49.233 30.279 49.2413 30.3974 49.2413C30.6411 49.2413 30.8614 49.2469 31.0647 49.2523C31.4274 49.2618 31.7359 49.2699 32.0257 49.2413C33.066 49.1525 33.9707 48.8859 34.3777 47.8192C35.011 46.1749 34.3777 44.2196 32.9303 43.2421C30.8497 41.8644 26.9146 42.442 25.6934 45.6417C25.1958 46.9305 25.1054 48.3082 25.2863 49.6857C25.6482 52.2189 27.5479 54.3075 30.6688 53.8632C31.3473 53.7743 31.9805 53.5521 32.3423 52.9298C32.6137 52.441 32.659 51.8634 32.3876 51.3746C32.1162 50.9301 31.6186 50.9745 31.1663 51.0189C31.0216 51.0189 30.8769 51.0331 30.7321 51.0472C30.515 51.0687 30.2979 51.09 30.0808 51.0634ZM45.007 56.8851C45.776 56.7518 46.0926 56.4852 46.183 55.7296C46.2735 54.6188 46.3187 53.5521 46.2283 52.441C46.1378 51.7745 45.7307 51.4191 45.0523 51.33C44.8261 51.2855 44.7356 51.2411 44.7356 51.0189V48.3527C44.7175 47.9066 44.7285 47.4677 44.7394 47.0331C44.7556 46.3851 44.7716 45.7467 44.6904 45.1085C44.5547 43.8641 43.7406 43.2421 42.5193 43.5975C41.7956 43.8197 41.1172 43.8641 40.3935 43.8197H39.5793C37.9962 43.9086 36.6845 44.8864 36.2774 46.3527C36.0887 46.9464 36.0575 47.5709 36.026 48.2003C36.0198 48.3251 36.0135 48.4498 36.0061 48.5748C35.9978 48.7133 35.9925 48.8531 35.9872 48.9938C35.9637 49.6207 35.9397 50.2606 35.6442 50.8412C35.5085 51.1078 35.3728 51.2855 35.011 51.33C34.423 51.4191 34.0611 51.7301 34.0159 52.3077C33.8802 53.4633 33.9254 54.6188 34.0159 55.774C34.1064 56.4408 34.5134 56.9296 35.1467 57.0184C35.5085 57.0629 35.9156 57.0629 36.3227 57.0184C37.1368 56.9296 37.5891 56.5297 37.5891 55.6852V54.3964C37.5891 54.2186 37.6344 54.1742 37.8153 54.1742H42.3384C42.5646 54.1742 42.6098 54.2631 42.6098 54.4408V55.5963C42.5646 56.0406 42.7907 56.3519 43.1073 56.6185C43.6888 57.058 44.3145 56.976 44.9844 56.8881L45.007 56.8851ZM41.4338 33.7318C41.4338 34.7538 41.6147 35.776 42.1122 36.7094C43.1073 38.4869 45.007 39.3756 47.0424 38.9757C47.6304 38.8868 48.128 38.6647 48.4446 38.1757C48.7612 37.6869 48.8064 37.1093 48.535 36.5758C48.3226 36.1166 47.8307 36.1674 47.3969 36.2118L47.3138 36.2203L47.2535 36.2277C46.9164 36.2694 46.6151 36.3068 46.2735 36.2648C45.5046 36.1759 44.9618 35.7316 44.8261 35.0204C44.7809 34.576 44.9166 34.3539 45.4141 34.3539C45.669 34.3539 45.9382 34.368 46.1733 34.3805C46.3553 34.39 46.5169 34.3983 46.6353 34.3983C46.8813 34.3983 47.0976 34.4042 47.2949 34.4095C47.6418 34.4188 47.9301 34.4266 48.2184 34.3983C49.2587 34.3094 50.1634 34.0428 50.5704 32.9762C51.1584 31.5096 50.6609 29.6876 49.4397 28.6656C47.359 26.9769 43.831 27.599 42.3836 29.9098C41.6599 31.0653 41.4338 32.3541 41.4338 33.7318ZM52.244 54.3964C54.1437 54.3964 56.2243 53.1967 56.4505 50.8412C56.6766 48.7081 55.9077 47.1083 53.5557 46.4415C52.6963 46.1749 51.8369 46.2194 50.9775 46.3971C50.7061 46.4415 50.6157 46.3971 50.6157 46.1305C50.6157 45.6417 50.6157 45.153 50.5704 44.6639C50.5252 43.9974 50.2086 43.7308 49.5754 43.5975C49.2135 43.5531 48.8064 43.5531 48.3994 43.5975C47.4495 43.7308 47.0424 44.1307 47.0424 45.1085V48.7526H47.0877V50.5746C47.1027 50.8561 47.1078 51.1376 47.1128 51.4191C47.1228 51.9821 47.1329 52.5448 47.2234 53.1078C47.359 54.0853 47.947 54.5297 48.9421 54.3519C49.1683 54.3519 49.3944 54.3075 49.5754 54.2186C49.9372 54.0409 50.3443 54.0409 50.7061 54.1742C51.2037 54.3519 51.7012 54.3964 52.244 54.3964ZM59.7976 54.5297C60.7474 54.3519 61.1093 53.952 61.1545 52.9745C61.1997 51.6412 61.1997 50.308 61.1545 49.2858V44.9308C61.1545 44.4418 60.9736 44.0419 60.5213 43.8197C59.7071 43.4198 58.893 43.4642 58.124 43.8641C57.4908 44.1752 57.4003 44.7528 57.4003 45.3307C57.3551 47.1527 57.3551 49.0192 57.3551 50.8412C57.3551 51.0094 57.3522 51.1747 57.3494 51.3385C57.3409 51.8243 57.3327 52.298 57.4003 52.7965C57.5813 54.1742 58.3954 54.7965 59.7976 54.5297ZM60.7022 39.2867C61.9687 40.0868 63.5517 39.3756 63.6422 37.9091C63.7779 35.5094 63.8231 33.0651 63.5065 30.7098C63.4613 29.7765 62.9637 29.0656 62.1948 28.9323C60.657 28.6212 59.888 28.8434 59.1191 30.0431C58.6668 30.7543 58.2597 31.5096 57.8526 32.2653C57.7622 32.443 57.6265 32.6652 57.4908 32.8873C57.3551 32.6652 57.2646 32.4874 57.1742 32.3097C56.7219 31.4208 56.2243 30.5765 55.5459 29.8209C55.184 29.421 54.7317 29.1544 54.1889 29.11C52.832 28.9767 51.9274 29.4655 51.6108 30.7543C51.4751 31.243 51.3846 31.7318 51.3846 32.2653V36.6202C51.3846 36.7635 51.3828 36.9052 51.3809 37.0455C51.3737 37.6019 51.3667 38.1412 51.4751 38.7091C51.6108 39.3756 52.0178 39.8644 52.7415 39.9535C54.2342 40.1312 54.7769 39.6866 54.8674 38.309V38.1757L54.8714 38.0468C54.9152 36.6259 54.9579 35.2455 54.9579 33.8651C54.9758 33.8121 54.9795 33.7662 54.9831 33.7218C54.9886 33.6544 54.9937 33.59 55.0483 33.5096C55.1388 33.6874 55.2405 33.8763 55.3423 34.0651C55.4441 34.2538 55.5459 34.4427 55.6363 34.6205C55.9982 35.3761 56.36 36.087 56.8123 36.7538C57.1742 37.1981 57.7622 37.2426 58.124 36.7982C58.2024 36.7211 58.2656 36.6146 58.3312 36.504C58.3793 36.423 58.4285 36.34 58.4859 36.2648C58.6751 35.955 58.8478 35.6344 59.0212 35.3124C59.3454 34.7108 59.6722 34.1041 60.1142 33.5541V33.9984C60.1142 34.6429 60.1029 35.2872 60.0916 35.9315C60.0803 36.5758 60.069 37.2201 60.069 37.8646C60.069 38.3981 60.2046 38.9313 60.7022 39.2867ZM62.5114 32.9318H62.3757C62.421 32.8873 62.4662 32.8873 62.5114 32.9318ZM30.0808 46.7972C29.8094 46.7972 29.4928 46.7972 29.1762 46.7528C28.8596 46.6639 28.7691 46.5306 28.8143 46.2194C28.9048 45.464 29.6737 45.0197 30.5331 45.1974C31.1211 45.3751 31.4377 45.6862 31.4377 46.2194C31.4377 46.5306 31.302 46.7084 30.9854 46.7528C30.6688 46.7972 30.3974 46.7972 30.0808 46.7972ZM26 29.5389C26.0412 29.1149 26.0412 28.6906 26 28.3136C26 28.1251 26.0824 28.078 26.2059 28.0309C26.5765 27.9838 26.947 27.9838 27.2765 28.078C28.0588 28.3607 28.2647 29.7274 27.6059 30.4344C27.1941 30.8585 26.6588 30.9528 26.1647 30.9999C26 30.9999 26 30.9056 26 30.7643C26.0273 30.5145 26.0184 30.244 26.0093 29.9667C26.0047 29.8253 26 29.682 26 29.5389ZM27.4331 36.6681C27.0332 36.9584 26.5999 36.9999 26.1333 36.9999C26 36.9999 26 36.9169 26 36.7926C26 36.5853 26.0083 36.3778 26.0167 36.1703C26.025 35.963 26.0333 35.7557 26.0333 35.5482V34.3038C26.0333 34.1378 26.0667 34.0135 26.2333 34.0135C26.6666 33.972 27.0998 34.0135 27.4665 34.3038C28.1997 34.8846 28.1664 36.1703 27.4331 36.6681Z" fill="#FFD244"/>
</svg>
