<svg width="16" height="53" viewBox="0 0 16 53" fill="none" xmlns="http://www.w3.org/2000/svg">
<path d="M15.5483 5.15304C15.3741 4.48615 14.5468 4.48615 14.2856 5.15304C13.2842 7.55385 12.4569 9.99912 11.7603 12.4888C11.4555 13.6003 10.6717 14.4895 9.67032 14.7118H9.62678C9.01722 14.8452 8.49473 14.2228 8.6689 13.5114C9.5397 9.6879 10.8459 5.90885 12.5004 2.26318C12.8923 1.46291 12.6746 0.484797 11.978 0.129122C11.3249 -0.226554 10.4105 0.173581 10.0186 1.06277C8.27703 4.88628 6.88374 8.84317 5.9694 12.8445C5.79524 13.6003 5.09859 13.956 4.61965 13.5559C4.61965 13.5559 4.57611 13.5114 4.53257 13.5114C3.74884 12.8445 3.44406 11.5107 3.79238 10.2659C4.35841 7.99845 5.70816 4.04155 6.70958 1.77412C7.01436 1.01831 6.49188 0.351419 5.88232 0.751554C4.27133 1.77412 2.74742 3.50804 1.65891 5.68655C1.22351 6.57574 0.831645 7.50939 0.570403 8.53196C-1.12767 14.6674 1.17997 20.1803 4.66319 21.3363C4.66319 21.5586 4.61965 21.8253 4.61965 22.0476C4.31487 26.1379 3.7053 30.1392 2.8345 34.1851C2.35556 36.4969 2.3991 39.6091 3.2699 42.8546C5.09859 49.8348 9.80094 54.0584 12.0215 52.7691C14.3291 51.4798 14.8081 46.7226 13.3277 40.9874C12.5875 38.2309 10.7153 35.1187 9.71386 33.2514C7.88517 29.917 6.97083 25.9601 7.27561 21.9143C7.27561 21.7809 7.27561 21.692 7.31915 21.5586C11.0201 20.9361 14.1114 17.2905 15.4176 12.7556C15.6353 11.9998 15.766 11.244 15.8966 10.4882C16.1143 8.66534 15.9837 6.79804 15.5483 5.15304ZM4.53257 19.2911C4.09717 19.0688 3.7053 18.8021 3.35698 18.4909C3.00866 18.1797 2.70388 17.7795 2.3991 17.3794C1.87661 16.5791 1.57183 15.6455 1.44121 14.7118C1.31059 13.7782 1.35413 12.8001 1.65891 11.9553C1.78953 12.889 1.92015 13.7337 2.18139 14.5784C2.44264 15.4232 2.74742 16.179 3.22636 16.8903C3.66176 17.5572 4.27133 18.1797 4.92443 18.6687C5.62108 19.1578 6.36126 19.5579 7.18853 19.9136C6.31772 19.9136 5.40337 19.6913 4.53257 19.2911Z" fill="#FFD244"/>
</svg>
