<svg width="120" height="120" viewBox="0 0 120 120" fill="none" xmlns="http://www.w3.org/2000/svg">
<path fill-rule="evenodd" clip-rule="evenodd" d="M120 60C120 93.1371 93.1371 120 60 120C26.8629 120 0 93.1371 0 60C0 26.8629 26.8629 0 60 0C93.1371 0 120 26.8629 120 60Z" fill="#EB5757" fill-opacity="0.15"/>
<path fill-rule="evenodd" clip-rule="evenodd" d="M110.588 59.9999C110.588 87.9389 87.9389 110.588 59.9999 110.588C32.0608 110.588 9.41162 87.9389 9.41162 59.9999C9.41162 32.0608 32.0608 9.41162 59.9999 9.41162C87.9389 9.41162 110.588 32.0608 110.588 59.9999Z" fill="#EB5757" fill-opacity="0.25"/>
<path fill-rule="evenodd" clip-rule="evenodd" d="M101.176 59.9997C101.176 82.7408 82.7408 101.176 59.9997 101.176C37.2586 101.176 18.8232 82.7408 18.8232 59.9997C18.8232 37.2586 37.2586 18.8232 59.9997 18.8232C82.7408 18.8232 101.176 37.2586 101.176 59.9997Z" fill="#E42313"/>
<path fill-rule="evenodd" clip-rule="evenodd" d="M52.1206 42.0586V77.9412L72.3046 59.9999L52.1206 42.0586Z" fill="white"/>
</svg>
