<svg width="24" height="24" viewBox="0 0 24 24" fill="none" xmlns="http://www.w3.org/2000/svg">
<path fill-rule="evenodd" clip-rule="evenodd" d="M15.502 14H14.708L14.432 13.726C15.407 12.589 16 11.115 16 9.49997C16 5.90997 13.09 2.99997 9.5 2.99997C5.91 2.99997 3 5.90997 3 9.49997C3 13.09 5.91 16 9.5 16C11.115 16 12.588 15.408 13.725 14.434L14.001 14.708V15.5L18.999 20.491L20.49 19L15.502 14ZM9.49997 13.9998C7.01397 13.9998 4.99997 11.9858 4.99997 9.49985C4.99997 7.01485 7.01397 4.99985 9.49997 4.99985C11.985 4.99985 14 7.01485 14 9.49985C14 11.9858 11.985 13.9998 9.49997 13.9998Z" fill="black"/>
</svg>
