<svg width="49" height="48" viewBox="0 0 49 48" fill="none" xmlns="http://www.w3.org/2000/svg">
<path d="M36.2571 30.034L29.5539 28.7771V26.6934C31.0808 25.4308 32.154 23.6439 32.5131 21.6132C34.3439 21.3073 35.7475 19.7227 35.7475 17.8064V11.6129C35.7475 5.20955 30.5379 0 24.1346 0C17.7312 0 12.5217 5.20955 12.5217 11.6129V17.8064C12.5217 19.7227 13.9253 21.3073 15.7564 21.6132C16.1155 23.6431 17.188 25.4301 18.7152 26.6934V28.7771L12.0117 30.034C8.71837 30.6521 6.32812 33.5319 6.32812 36.8827V48H41.941V36.8827C41.941 33.5319 39.5512 30.6521 36.2571 30.034ZM31.7869 41.1324L29.7917 46.4516H28.8875L29.7312 39.9825L30.7867 39.6309L31.7869 41.1324ZM19.2736 30.248L22.8689 33.2438L19.5321 35.6276L18.8407 30.3293L19.2736 30.248ZM28.996 30.248L29.4296 30.3293L28.7382 35.6276L25.4013 33.2438L28.996 30.248ZM20.7097 36.6876L21.778 38.8253L20.7127 44.6843L19.7582 37.3666L20.7097 36.6876ZM23.0648 37.9355L21.9855 35.7762L24.1346 34.2418L26.284 35.7773L25.2048 37.9355H23.0648ZM27.5599 36.6876L28.5113 37.3673L27.5568 44.6851L26.4912 38.8261L27.5599 36.6876ZM18.316 38.2772L15.5054 37.3401L14.143 31.2101L17.3165 30.6158L18.316 38.2772ZM17.4836 39.6309L18.5387 39.9825L19.3821 46.4516H18.4778L16.4826 41.1324L17.4836 39.6309ZM23.2326 39.4839H25.0373L26.3041 46.4516H21.9655L23.2326 39.4839ZM29.9535 38.2772L30.953 30.6147L34.1265 31.2093L32.7637 37.3393L29.9535 38.2772ZM32.6507 19.9869V15.6271C33.5496 15.9477 34.1991 16.7994 34.1991 17.8072C34.1991 18.8154 33.5496 19.6663 32.6507 19.9869ZM24.1346 1.54839C29.684 1.54839 34.1991 6.06351 34.1991 11.6129V14.7301C33.747 14.3876 33.2261 14.1313 32.6507 14.0145V12.6838L28.7242 10.7204L27.9602 11.23C25.6864 12.7451 22.5824 12.7451 20.3086 11.23L19.5446 10.7204L15.6184 12.6831V14.0137C15.0435 14.1313 14.5222 14.3868 14.0701 14.7293V11.6129C14.0701 6.06351 18.5852 1.54839 24.1346 1.54839ZM14.0701 17.8064C14.0701 16.7986 14.7199 15.9469 15.6184 15.6264V19.9858C14.7199 19.6663 14.0701 18.8146 14.0701 17.8064ZM17.1668 20.129V13.6399L19.4338 12.5065L19.4501 12.5171C22.2342 14.3729 26.0353 14.3729 28.8194 12.5171L28.8357 12.5065L31.1023 13.6399V20.129C31.1023 23.9709 27.9764 27.0968 24.1346 27.0968C20.2931 27.0968 17.1668 23.9709 17.1668 20.129ZM24.1346 28.6452C25.5291 28.6452 26.8427 28.3015 28.0055 27.7054V29.0572L24.1346 32.2833L20.2636 29.0572V27.7054C21.4264 28.3015 22.7404 28.6452 24.1346 28.6452ZM7.87651 36.8827C7.87651 34.277 9.73563 32.0364 12.2971 31.5556L12.62 31.4951L14.1831 38.5316L15.9602 39.124L14.7539 40.9332L16.824 46.4516H7.87651V36.8827ZM40.3926 46.4516H31.4456L33.5149 40.9325L32.3086 39.1232L34.0853 38.5309L35.6484 31.4943L35.9713 31.5548C38.5339 32.0364 40.3926 34.2758 40.3926 36.8827V46.4516Z" fill="#F05023"/>
<path d="M24.1346 24.774C25.8425 24.774 27.2314 23.3852 27.2314 21.6772H25.683C25.683 22.5312 24.9886 23.2256 24.1346 23.2256C23.2807 23.2256 22.5862 22.5312 22.5862 21.6772H21.0378C21.0378 23.3852 22.4267 24.774 24.1346 24.774Z" fill="#F05023"/>
<path d="M28.7798 16.2581C28.7798 16.6856 28.4332 17.0323 28.0056 17.0323C27.5781 17.0323 27.2314 16.6856 27.2314 16.2581C27.2314 15.8305 27.5781 15.4839 28.0056 15.4839C28.4332 15.4839 28.7798 15.8305 28.7798 16.2581Z" fill="#F05023"/>
<path d="M21.0379 16.2581C21.0379 16.6856 20.6912 17.0323 20.2637 17.0323C19.8362 17.0323 19.4895 16.6856 19.4895 16.2581C19.4895 15.8305 19.8362 15.4839 20.2637 15.4839C20.6912 15.4839 21.0379 15.8305 21.0379 16.2581Z" fill="#F05023"/>
<path d="M38.8442 27.8711H40.3926V29.4195H38.8442V27.8711Z" fill="#F05023"/>
<path d="M41.9409 0.358887L35.6128 7.74208H38.8441V26.3227H40.3925V6.19369H38.9791L41.9409 2.73855L44.9031 6.19369H43.4893V44.9034H45.0377V7.74208H48.2694L41.9409 0.358887Z" fill="#F05023"/>
<path d="M43.4895 46.4517H45.0379V48H43.4895V46.4517Z" fill="#F05023"/>
<path d="M7.87646 27.8711H9.42485V29.4195H7.87646V27.8711Z" fill="#F05023"/>
<path d="M6.32812 2.73855L9.29032 6.19369H7.87651V26.3227H9.4249V7.74208H12.6566L6.32812 0.358887L0 7.74208H3.23135V44.9034H4.77974V6.19369H3.36631L6.32812 2.73855Z" fill="#F05023"/>
<path d="M3.23145 46.4517H4.77983V48H3.23145V46.4517Z" fill="#F05023"/>
</svg>
