<svg width="48" height="48" viewBox="0 0 48 48" fill="none" xmlns="http://www.w3.org/2000/svg">
<path d="M48 12.2476V7.88143L46.046 7.49017C45.8997 7.02747 45.713 6.57913 45.4907 6.14932L46.5964 4.49093L43.5098 1.40436L41.8514 2.51008C41.4216 2.28705 40.9733 2.10106 40.5106 1.95476L40.1186 0H35.7524L35.3611 1.95401C34.8984 2.1003 34.4501 2.28705 34.0203 2.50932L32.3619 1.4036L29.2753 4.49017L29.8938 5.41935H1.54839C0.69443 5.41935 0 6.11379 0 6.96774V10.0645C0 10.9185 0.69443 11.6129 1.54839 11.6129V32.5161H6.96774V34.6561L0.295615 48H5.12374L11.3173 35.6129H14.7097V48H19.3548V35.6129H22.7472L28.9408 48H33.7689L27.0968 34.6561V32.5161H32.5161V18.6226L34.0203 17.6197C34.4501 17.8427 34.8984 18.0287 35.3611 18.175L35.7524 20.129H40.1186L40.5098 18.175C40.9725 18.0287 41.4209 17.842 41.8507 17.6197L43.5091 18.7254L46.5956 15.6389L45.4899 13.9805C45.713 13.5507 45.8989 13.1023 46.0452 12.6396L48 12.2476ZM1.54839 6.96774H30.0163C29.949 7.1405 29.8817 7.31363 29.8257 7.49017L27.871 7.88143V10.0645H1.54839V6.96774ZM4.16658 46.4516H2.80116L8.22051 35.6129H9.58594L4.16658 46.4516ZM17.8065 46.4516H16.2581V35.6129H17.8065V46.4516ZM29.8979 46.4516L24.4786 35.6129H25.844L31.2634 46.4516H29.8979ZM25.5484 34.0645H8.51613V32.5161H25.5484V34.0645ZM3.09677 30.9677V11.6129H27.871V12.2476L29.825 12.6389C29.9713 13.1016 30.158 13.5499 30.3803 13.9797L29.2746 15.6381L30.9677 17.3301V30.9677H3.09677ZM44.8012 11.3086L44.6809 11.7807C44.5161 12.4298 44.2598 13.0483 43.92 13.6195L43.6701 14.0391L44.6042 15.4404L43.3121 16.7325L41.9108 15.798L41.4912 16.0483C40.92 16.3881 40.3015 16.6452 39.6525 16.8092L39.1803 16.9294L38.8492 18.5806H37.0218L36.6914 16.9302L36.2193 16.81C35.5702 16.6452 34.9517 16.3889 34.3805 16.049L33.9609 15.7991L32.5596 16.7332L31.2675 15.4412L32.202 14.0398L31.9517 13.6202C31.6119 13.049 31.3548 12.4306 31.1908 11.7815L31.0706 11.3093L29.4194 10.9782V9.15083L31.0698 8.82044L31.19 8.34829C31.3548 7.69922 31.6111 7.08077 31.951 6.50958L32.2009 6.08997L31.2668 4.68863L32.5588 3.39655L33.9602 4.33102L34.3798 4.08077C34.951 3.74093 35.5694 3.48387 36.2185 3.31981L36.6907 3.1996L37.0218 1.54839H38.8492L39.1796 3.19884L39.6517 3.31905C40.3008 3.48387 40.9192 3.74017 41.4904 4.08002L41.91 4.32989L43.3114 3.39579L44.6035 4.68788L43.669 6.08921L43.9192 6.50882C44.2591 7.08002 44.5161 7.69846 44.6802 8.34753L44.8004 8.81968L46.4516 9.15083V10.9782L44.8012 11.3086Z" fill="#F05023"/>
<path d="M37.9355 4.64502C34.9472 4.64502 32.5161 7.07609 32.5161 10.0644C32.5161 13.0527 34.9472 15.4837 37.9355 15.4837C40.9237 15.4837 43.3548 13.0527 43.3548 10.0644C43.3548 7.07609 40.9237 4.64502 37.9355 4.64502ZM37.9355 13.9353C35.8011 13.9353 34.0645 12.1987 34.0645 10.0644C34.0645 7.93005 35.8011 6.19341 37.9355 6.19341C40.0698 6.19341 41.8064 7.93005 41.8064 10.0644C41.8064 12.1987 40.0698 13.9353 37.9355 13.9353Z" fill="#F05023"/>
<path d="M24.7921 17.6694C25.0306 17.7522 25.282 17.8063 25.5485 17.8063C26.8289 17.8063 27.8711 16.7641 27.8711 15.4837C27.8711 14.2033 26.8289 13.1611 25.5485 13.1611C24.2681 13.1611 23.2259 14.2033 23.2259 15.4837C23.2259 15.9328 23.3597 16.3486 23.5813 16.704L20.1121 21.0399C19.8728 20.9571 19.6214 20.9031 19.3549 20.9031C19.0884 20.9031 18.837 20.9571 18.5985 21.0399L15.1294 16.704C15.3502 16.3486 15.484 15.9328 15.484 15.4837C15.484 14.2033 14.4418 13.1611 13.1614 13.1611C11.881 13.1611 10.8388 14.2033 10.8388 15.4837C10.8388 15.9328 10.9726 16.3486 11.1942 16.704L7.72503 21.0399C7.48574 20.9571 7.23435 20.9031 6.96784 20.9031C5.68748 20.9031 4.64526 21.9453 4.64526 23.2256C4.64526 24.506 5.68748 25.5482 6.96784 25.5482C8.24821 25.5482 9.29043 24.506 9.29043 23.2256C9.29043 22.7766 9.1566 22.3607 8.93508 22.0054L12.4042 17.6694C12.6435 17.7522 12.8949 17.8063 13.1614 17.8063C13.4279 17.8063 13.6793 17.7522 13.9178 17.6694L17.3869 22.0054C17.1662 22.3607 17.0324 22.7766 17.0324 23.2256C17.0324 24.506 18.0746 25.5482 19.3549 25.5482C20.6353 25.5482 21.6775 24.506 21.6775 23.2256C21.6775 22.7766 21.5437 22.3607 21.3222 22.0054L24.7921 17.6694ZM25.5485 14.7095C25.9749 14.7095 26.3227 15.0573 26.3227 15.4837C26.3227 15.9101 25.9749 16.2579 25.5485 16.2579C25.1221 16.2579 24.7743 15.9101 24.7743 15.4837C24.7743 15.0573 25.1221 14.7095 25.5485 14.7095ZM6.96784 23.9998C6.54143 23.9998 6.19365 23.6521 6.19365 23.2256C6.19365 22.7992 6.54143 22.4515 6.96784 22.4515C7.39426 22.4515 7.74204 22.7992 7.74204 23.2256C7.74204 23.6521 7.39426 23.9998 6.96784 23.9998ZM12.3872 15.4837C12.3872 15.0573 12.735 14.7095 13.1614 14.7095C13.5878 14.7095 13.9356 15.0573 13.9356 15.4837C13.9356 15.9101 13.5878 16.2579 13.1614 16.2579C12.735 16.2579 12.3872 15.9101 12.3872 15.4837ZM19.3549 23.9998C18.9285 23.9998 18.5807 23.6521 18.5807 23.2256C18.5807 22.7992 18.9285 22.4515 19.3549 22.4515C19.7814 22.4515 20.1291 22.7992 20.1291 23.2256C20.1291 23.6521 19.7814 23.9998 19.3549 23.9998Z" fill="#F05023"/>
<path d="M23.2258 24.7744H29.4194V26.3228H23.2258V24.7744Z" fill="#F05023"/>
<path d="M23.2258 27.8711H29.4194V29.4195H23.2258V27.8711Z" fill="#F05023"/>
</svg>
