<svg width="48" height="48" viewBox="0 0 48 48" fill="none" xmlns="http://www.w3.org/2000/svg">
<path d="M44.129 35.6129V34.0645H46.4516V27.871H48V23.2258H44.9032V17.1933C44.9032 15.3655 43.6576 13.8107 41.8722 13.4146L37.9355 12.5406V11.4084C39.3376 10.4278 40.2581 8.80418 40.2581 6.96774V5.41935C40.2581 2.43107 37.8262 0 34.8387 0H0V26.3226H21.6774V27.871H23.2258V29.4889C21.0325 29.859 19.3548 31.7669 19.3548 34.0645V35.6129C19.3548 36.984 19.9555 38.2141 20.9032 39.0658V40.4486L17.7297 41.3551C17.143 41.5222 16.6421 41.8632 16.2581 42.3036C15.874 41.8632 15.3731 41.5222 14.7864 41.3551L11.6129 40.4486V39.0658C12.5606 38.2148 13.1613 36.9848 13.1613 35.6129V34.0645C13.1613 31.5026 11.078 29.4194 8.51613 29.4194C5.95426 29.4194 3.87097 31.5026 3.87097 34.0645V35.6129C3.87097 36.984 4.47165 38.2141 5.41935 39.0658V40.4486L2.24584 41.3551C0.923513 41.732 0 42.9568 0 44.3328V48H48V44.3328C48 42.9568 47.0765 41.7327 45.7542 41.3551L42.5806 40.4486V39.0658C43.5284 38.2141 44.129 36.984 44.129 35.6129ZM42.5806 35.6129C42.5806 37.3208 41.1918 38.7097 39.4839 38.7097C37.776 38.7097 36.3871 37.3208 36.3871 35.6129V34.0645C36.3871 32.3566 37.776 30.9677 39.4839 30.9677C41.1918 30.9677 42.5806 32.3566 42.5806 34.0645V35.6129ZM31.7419 42.3036C31.3579 41.8632 30.857 41.5222 30.2703 41.3551L27.0968 40.4486V39.0658C28.0445 38.2148 28.6452 36.9848 28.6452 35.6129V34.0645H34.8387V35.6129C34.8387 36.984 35.4394 38.2141 36.3871 39.0658V40.4486L33.2136 41.3551C32.6269 41.5222 32.126 41.8632 31.7419 42.3036ZM46.4516 26.3226H23.2258V24.7742H46.4516V26.3226ZM41.5362 14.9263C42.6071 15.1641 43.3548 16.097 43.3548 17.1933V23.2258H26.3226V17.1933C26.3226 16.0963 27.0703 15.1641 28.1413 14.9255L32.1615 14.0323C32.6042 14.619 33.4846 15.4839 34.8387 15.4839C36.1928 15.4839 37.0732 14.619 37.5159 14.033L41.5362 14.9263ZM36.3871 12.9477C36.1951 13.2441 35.6617 13.9355 34.8387 13.9355C34.0158 13.9355 33.4824 13.2441 33.2903 12.9477V12.1588C33.781 12.3058 34.3008 12.3871 34.8387 12.3871C35.3766 12.3871 35.8964 12.3058 36.3871 12.1588V12.9477ZM38.7097 5.41935V6.96774C38.7097 9.10207 36.973 10.8387 34.8387 10.8387C32.7044 10.8387 30.9677 9.10207 30.9677 6.96774V5.41935C30.9677 3.28503 32.7044 1.54839 34.8387 1.54839C36.973 1.54839 38.7097 3.28503 38.7097 5.41935ZM1.54839 24.7742V1.54839H31.0536C30.0465 2.53314 29.4194 3.90348 29.4194 5.41935V6.96774C29.4194 8.80418 30.3398 10.4286 31.7419 11.4084V12.5406L27.8052 13.4153C26.0198 13.8115 24.7742 15.3655 24.7742 17.1933V23.2258H21.6774V24.7742H1.54839ZM44.9032 27.871V32.5161H43.858C43.2188 30.7145 41.5021 29.4194 39.4839 29.4194C37.4656 29.4194 35.749 30.7145 35.1098 32.5161H28.3741C27.8184 30.9507 26.4488 29.7724 24.7742 29.4889V27.871H44.9032ZM20.9032 34.0645C20.9032 32.3566 22.2921 30.9677 24 30.9677C25.7079 30.9677 27.0968 32.3566 27.0968 34.0645V35.6129C27.0968 37.3208 25.7079 38.7097 24 38.7097C22.2921 38.7097 20.9032 37.3208 20.9032 35.6129V34.0645ZM24 40.2581C24.5436 40.2581 25.063 40.159 25.5484 39.987V40.8187C25.3563 41.115 24.823 41.8064 24 41.8064C23.177 41.8064 22.6436 41.115 22.4516 40.8187V39.987C22.937 40.159 23.4564 40.2581 24 40.2581ZM18.155 42.8438L21.3444 41.9327C21.7942 42.5179 22.6675 43.3548 24 43.3548C25.3325 43.3548 26.2058 42.5179 26.6549 41.9327L29.8443 42.8438C30.5054 43.0328 30.967 43.6452 30.967 44.3328V46.4516H17.0323V44.3328C17.0323 43.6452 17.4946 43.0328 18.155 42.8438ZM5.41935 34.0645C5.41935 32.3566 6.80822 30.9677 8.51613 30.9677C10.224 30.9677 11.6129 32.3566 11.6129 34.0645V35.6129C11.6129 37.3208 10.224 38.7097 8.51613 38.7097C6.80822 38.7097 5.41935 37.3208 5.41935 35.6129V34.0645ZM8.51613 40.2581C9.05973 40.2581 9.57913 40.159 10.0645 39.987V40.8187C9.87248 41.115 9.33909 41.8064 8.51613 41.8064C7.69317 41.8064 7.15978 41.115 6.96774 40.8187V39.987C7.45312 40.159 7.97253 40.2581 8.51613 40.2581ZM1.54839 44.3328C1.54839 43.6452 2.01071 43.0328 2.67112 42.8438L5.86051 41.9327C6.31036 42.5179 7.18359 43.3548 8.51613 43.3548C9.84866 43.3548 10.7219 42.5179 11.171 41.9327L14.3604 42.8438C15.0215 43.0328 15.4831 43.6452 15.4831 44.3328V46.4516H1.54839V44.3328ZM45.3289 42.8438C45.99 43.0328 46.4516 43.6452 46.4516 44.3328V46.4516H32.5161V44.3328C32.5161 43.6452 32.9785 43.0328 33.6389 42.8438L36.8283 41.9327C37.2781 42.5179 38.1513 43.3548 39.4839 43.3548C40.8164 43.3548 41.6896 42.5179 42.1387 41.9327L45.3289 42.8438ZM41.0323 40.8187C40.8402 41.115 40.3068 41.8064 39.4839 41.8064C38.6609 41.8064 38.1275 41.115 37.9355 40.8187V39.987C38.4209 40.1598 38.9403 40.2581 39.4839 40.2581C40.0275 40.2581 40.5469 40.159 41.0323 39.987V40.8187Z" fill="#F05023"/>
<path d="M3.0968 3.09668H4.64519V4.64507H3.0968V3.09668Z" fill="#F05023"/>
<path d="M6.1936 3.09668H12.3872V4.64507H6.1936V3.09668Z" fill="#F05023"/>
<path d="M3.0968 6.19336H4.64519V7.74175H3.0968V6.19336Z" fill="#F05023"/>
<path d="M6.1936 6.19336H12.3872V7.74175H6.1936V6.19336Z" fill="#F05023"/>
<path d="M18.5807 8.87305L15.4763 10.2528C12.2896 11.6697 8.90552 12.3872 5.41938 12.3872H4.64519V21.6775H3.0968V23.2259H20.1291V21.6775H18.5807V8.87305ZM17.0323 11.2561V21.6775H15.4839V11.9263C15.6914 11.8405 15.8997 11.7593 16.1057 11.6678L17.0323 11.2561ZM12.3871 12.9965C12.9073 12.8533 13.4229 12.6915 13.9355 12.5157V21.6775H12.3871V12.9965ZM10.8387 21.6775H9.29035V13.6445C9.80976 13.5677 10.3254 13.4755 10.8387 13.3681V21.6775ZM6.19358 13.9246C6.71223 13.9098 7.22785 13.8743 7.74196 13.8293V21.6775H6.19358V13.9246Z" fill="#F05023"/>
</svg>
