<svg width="58" height="48" viewBox="0 0 58 48" fill="none" xmlns="http://www.w3.org/2000/svg">
<path d="M37.8583 14.7169L29.6273 12.2474C29.0093 12.063 28.3742 11.9981 27.745 12.0211V11.9999H17.7408L0 6.10449L0.0536358 31.033L5.14633 33.5786L8.16166 26.2071L12.5666 27.9694L13.7087 25.115L15.3628 26.7692L13.8196 28.3129C13.2832 28.8492 12.9758 29.5911 12.9758 30.3501C12.9758 31.9033 14.2144 33.1662 15.755 33.2208C15.8086 34.7262 17.0188 35.9364 18.5242 35.99C18.5778 37.4954 19.788 38.7056 21.2934 38.7592C21.3489 40.2998 22.6109 41.5384 24.1645 41.5384C24.9231 41.5384 25.6654 41.231 26.2013 40.6946L27.745 39.1514L28.3652 39.7716C28.9016 40.3079 29.6435 40.6153 30.4025 40.6153C31.9561 40.6153 33.2186 39.3767 33.2731 37.8362C34.7785 37.7825 35.9887 36.5723 36.0424 35.0669C37.5478 35.0133 38.758 33.8031 38.8116 32.2977C40.3522 32.2423 41.5912 30.9802 41.5912 29.4271C41.5912 29.2959 41.57 29.1665 41.5524 29.0363L42.8771 27.7116L43.9476 29.8534L49.7456 26.9539L53.2495 33.6435L57.2835 30.9554V7.09743L37.8583 14.7169ZM4.1899 31.0366L1.89799 29.8904L1.85156 8.66504L11.9666 12.027L4.1899 31.0366ZM11.5385 25.5693L8.85982 24.4984L13.7227 12.6102L16.3688 13.49L11.5385 25.5693ZM14.822 30.3501C14.822 30.0774 14.9315 29.8111 15.1244 29.6177L16.7474 27.9951C16.9404 27.8022 17.2072 27.6922 17.4794 27.6922C18.05 27.6922 18.5143 28.1569 18.5143 28.7271C18.5143 28.9993 18.4043 29.2661 18.2114 29.4591L16.5888 31.0821C16.3959 31.275 16.1291 31.3845 15.8568 31.3845C15.2862 31.3845 14.822 30.9203 14.822 30.3501ZM17.5912 33.1194C17.5912 32.8467 17.7007 32.5803 17.8936 32.3869L19.5167 30.7643C19.7096 30.5714 19.9764 30.4615 20.2486 30.4615C20.8193 30.4615 21.2835 30.9262 21.2835 31.4963C21.2835 31.7686 21.1735 32.0354 20.9806 32.2283L19.358 33.8513C19.1651 34.0442 18.8983 34.1538 18.626 34.1538C18.0554 34.1538 17.5912 33.6895 17.5912 33.1194ZM20.3604 35.8886C20.3604 35.6159 20.4699 35.3495 20.6629 35.1562L22.2859 33.5336C22.4788 33.3407 22.7456 33.2307 23.0179 33.2307C23.5885 33.2307 24.0527 33.6954 24.0527 34.2655C24.0527 34.5378 23.9428 34.8046 23.7498 34.9975L22.1273 36.6206C21.9343 36.8135 21.6675 36.923 21.3953 36.923C20.8247 36.923 20.3604 36.4588 20.3604 35.8886ZM26.5191 37.7667L24.8965 39.3898C24.7036 39.5827 24.4367 39.6922 24.1645 39.6922C23.5939 39.6922 23.1297 39.228 23.1297 38.6578C23.1297 38.3851 23.2392 38.1188 23.4321 37.9254L25.0551 36.3028C25.248 36.1099 25.5149 35.9999 25.7871 35.9999C26.3577 35.9999 26.822 36.4646 26.822 37.0348C26.822 37.307 26.712 37.5738 26.5191 37.7667ZM38.7102 30.4615C38.4379 30.4615 38.1711 30.3519 37.9782 30.159L30.2438 22.4242L28.9385 23.7295L36.6729 31.4639C36.8658 31.6572 36.9758 31.9236 36.9758 32.1963C36.9758 32.7664 36.5116 33.2307 35.941 33.2307C35.6687 33.2307 35.4019 33.1212 35.209 32.9283L27.4746 25.1934L26.1693 26.4987L33.9037 34.2331C34.0966 34.4265 34.2066 34.6928 34.2066 34.9655C34.2066 35.5357 33.7423 35.9999 33.1717 35.9999C32.8995 35.9999 32.6327 35.8904 32.4398 35.6975L24.7054 27.9627L23.4001 29.268L31.1345 37.0023C31.3274 37.1957 31.4373 37.4621 31.4373 37.7347C31.4373 38.3049 30.9731 38.7691 30.4025 38.7691C30.1303 38.7691 29.8634 38.6596 29.6705 38.4667L28.6294 37.4251C28.6478 37.2962 28.6681 37.1668 28.6681 37.0348C28.6681 35.4811 27.4291 34.2187 25.8885 34.1641C25.8349 32.6587 24.6247 31.4485 23.1193 31.3949C23.0657 29.8895 21.8555 28.6793 20.3501 28.6257C20.2946 27.0851 19.0331 25.8461 17.4794 25.8461C17.3483 25.8461 17.2189 25.8673 17.0891 25.8848L14.4537 23.2495L18.2159 13.8461H23.6705L20.2811 17.236C19.7362 17.7795 19.4373 18.5034 19.4373 19.2732C19.4373 20.8616 20.7296 22.1538 22.3184 22.1538C23.0769 22.1538 23.8193 21.8464 24.3552 21.31L26.8008 18.864C27.3011 18.3655 28.1822 18.3461 28.7033 18.8234L30.8613 20.8016C31.5784 21.4588 32.3753 22.0055 33.2281 22.4337L39.4422 28.6946C39.6351 28.888 39.745 29.1544 39.745 29.4271C39.745 29.9972 39.2808 30.4615 38.7102 30.4615ZM40.6681 27.31L36.8739 23.487C37.2129 23.519 37.5545 23.5384 37.8989 23.5384V21.6922C35.7498 21.6922 33.6932 20.8922 32.1094 19.44L29.9509 17.4627C28.7326 16.344 26.666 16.3886 25.4964 17.5596L23.0512 20.0052C22.8574 20.1972 22.5906 20.3076 22.3184 20.3076C21.7477 20.3076 21.2835 19.8434 21.2835 19.2732C21.2835 18.996 21.3903 18.7369 21.5859 18.5408L25.1047 15.0225C26.1387 13.9885 27.6914 13.595 29.0963 14.016L37.2507 16.4621L42.0054 25.9727L40.6681 27.31ZM44.7728 27.3767L39.1762 16.1826L43.2638 14.5789L48.8888 25.3183L44.7728 27.3767ZM55.4373 29.9679L53.9324 30.9712L44.9928 13.9015L55.4373 9.80491V29.9679Z" fill="#F05023"/>
<path d="M11.0444 40.3184L12.3497 39.0127L13.655 40.3184L12.3497 41.6237L11.0444 40.3184Z" fill="#F05023"/>
<path d="M14.5659 43.4414L15.5922 41.9067L17.126 42.9321L16.1002 44.4668L14.5659 43.4414Z" fill="#F05023"/>
<path d="M18.6292 45.8193L19.3359 44.1138L21.0414 44.8205L20.3347 46.526L18.6292 45.8193Z" fill="#F05023"/>
<path d="M23.0801 47.3609L23.4407 45.5513L25.2498 45.9118L24.8893 47.7215L23.0801 47.3609Z" fill="#F05023"/>
<path d="M40.2085 5.06644L41.2348 3.53174L42.7686 4.55713L41.7423 6.09183L40.2085 5.06644Z" fill="#F05023"/>
<path d="M36.2925 3.18014L36.9992 1.47461L38.7047 2.18134L37.998 3.88687L36.2925 3.18014Z" fill="#F05023"/>
<path d="M32.0859 2.09274L32.4456 0.281738L34.2553 0.641414L33.8956 2.45196L32.0859 2.09274Z" fill="#F05023"/>
<path d="M46.2067 2.76904H44.3605V7.38443H39.7451V9.23058H46.2067V2.76904Z" fill="#F05023"/>
<path d="M12.9757 35.0771H7.43726V40.6156H9.28341V36.9233H12.9757V35.0771Z" fill="#F05023"/>
<path d="M28.6682 1.84615H29.5913V0H28.6682C22.5934 0 16.7971 2.27479 12.3472 6.4043L13.6033 7.75781C17.7112 3.94561 23.0604 1.84615 28.6682 1.84615Z" fill="#F05023"/>
<path d="M28.6682 46.1539H27.7451V48H28.6682C37.1061 48 44.7702 43.6938 49.1706 36.481L47.5949 35.52C43.5325 42.1785 36.4571 46.1539 28.6682 46.1539Z" fill="#F05023"/>
</svg>
