<svg width="48" height="48" viewBox="0 0 48 48" fill="none" xmlns="http://www.w3.org/2000/svg">
<path d="M17.0322 24.0001C18.7401 24.0001 20.129 22.6112 20.129 20.9033H18.5806C18.5806 21.7573 17.8862 22.4517 17.0322 22.4517C16.1782 22.4517 15.4838 21.7573 15.4838 20.9033H13.9354C13.9354 22.6112 15.3243 24.0001 17.0322 24.0001Z" fill="#F05023"/>
<path d="M13.9355 16.2581C13.9355 16.6856 13.5888 17.0323 13.1613 17.0323C12.7337 17.0323 12.3871 16.6856 12.3871 16.2581C12.3871 15.8305 12.7337 15.4839 13.1613 15.4839C13.5888 15.4839 13.9355 15.8305 13.9355 16.2581Z" fill="#F05023"/>
<path d="M21.6774 16.2581C21.6774 16.6856 21.3308 17.0323 20.9032 17.0323C20.4757 17.0323 20.129 16.6856 20.129 16.2581C20.129 15.8305 20.4757 15.4839 20.9032 15.4839C21.3308 15.4839 21.6774 15.8305 21.6774 16.2581Z" fill="#F05023"/>
<path d="M26.3226 23.2258V29.3774L22.4516 28.0868V25.9185C23.7762 24.823 24.7572 23.332 25.2301 21.6309C27.1478 21.4026 28.6452 19.7847 28.6452 17.8065V11.6129C28.6452 5.20955 23.4356 0 17.0323 0C10.6289 0 5.41935 5.20955 5.41935 11.6129V17.8065C5.41935 19.7847 6.91671 21.4026 8.83442 21.6309C9.30733 23.332 10.2883 24.823 11.6129 25.9185V28.0868L3.70539 30.7239C1.48942 31.4618 0 33.5281 0 35.8639V43.3548H26.3226V48H48V28.3246L42.9012 23.2258H26.3226ZM43.3548 25.8689L45.3569 27.871H43.3548V25.8689ZM23.1067 29.9372L21.9265 35.8352L18.2261 33.1913L21.8865 29.5309L23.1067 29.9372ZM25.5159 19.9967C25.5321 19.7839 25.5484 19.5714 25.5484 19.3548V15.6264C26.4473 15.9469 27.0968 16.7986 27.0968 17.8065C27.0968 18.826 26.4318 19.6852 25.5159 19.9967ZM6.96774 17.8065C6.96774 16.7986 7.61719 15.9469 8.51613 15.6264V19.3548C8.51613 19.5714 8.53238 19.7839 8.54864 19.9967C7.63269 19.6852 6.96774 18.826 6.96774 17.8065ZM8.66469 13.999C8.03301 14.1026 7.45766 14.3589 6.96774 14.7297V11.6129C6.96774 6.06351 11.4829 1.54839 17.0323 1.54839C22.5817 1.54839 27.0968 6.06351 27.0968 11.6129V14.7297C26.6069 14.3589 26.0315 14.1026 25.3998 13.999C24.9137 12.1826 23.2576 10.8387 21.2903 10.8387C20.3744 10.8387 19.4679 11.1415 18.7356 11.6912L17.0323 12.9677L15.3296 11.6912C14.5966 11.1415 13.6901 10.8387 12.7742 10.8387C10.807 10.8387 9.15083 12.1826 8.66469 13.999ZM10.0645 19.3548V15.0968C10.0645 13.6024 11.2799 12.3871 12.7742 12.3871C13.3571 12.3871 13.934 12.5799 14.4008 12.9292L17.0323 14.9032L19.6644 12.9292C20.1305 12.5799 20.7074 12.3871 21.2903 12.3871C22.7847 12.3871 24 13.6024 24 15.0968V19.3548C24 23.1971 20.8745 26.3226 17.0323 26.3226C13.19 26.3226 10.0645 23.1971 10.0645 19.3548ZM17.0323 27.871C18.4264 27.871 19.7404 27.5273 20.9032 26.9312V28.3246L17.0323 32.1956L13.1613 28.3246V26.9312C14.3241 27.5273 15.6381 27.871 17.0323 27.871ZM12.178 29.5309L15.8385 33.1913L12.138 35.8352L10.9578 29.9372L12.178 29.5309ZM7.74194 41.8064V37.1613H6.19355V41.8064H1.54839V35.8639C1.54839 34.1953 2.61215 32.7191 4.19531 32.1918L9.47782 30.4313L11.089 38.4874L17.0323 34.2418L22.9767 38.4874L24.5874 30.4313L26.3226 31.0089V41.8064H7.74194ZM27.871 46.4516V24.7742H41.8064V29.4194H46.4516V46.4516H27.871Z" fill="#F05023"/>
<path d="M37.1613 44.9031H44.9032V37.1611H37.1613V44.9031ZM38.7096 38.7095H43.3548V43.3547H38.7096V38.7095Z" fill="#F05023"/>
<path d="M29.4193 43.355H35.6129V44.9034H29.4193V43.355Z" fill="#F05023"/>
<path d="M29.4193 40.2583H35.6129V41.8067H29.4193V40.2583Z" fill="#F05023"/>
<path d="M29.4193 37.1611H35.6129V38.7095H29.4193V37.1611Z" fill="#F05023"/>
<path d="M29.4193 26.3228H30.9677V27.8711H29.4193V26.3228Z" fill="#F05023"/>
<path d="M32.5161 26.3228H40.258V27.8711H32.5161V26.3228Z" fill="#F05023"/>
<path d="M29.4193 29.4194H40.258V30.9678H29.4193V29.4194Z" fill="#F05023"/>
<path d="M43.3549 32.5161H44.9032V34.0645H43.3549V32.5161Z" fill="#F05023"/>
<path d="M29.4193 32.5161H41.8064V34.0645H29.4193V32.5161Z" fill="#F05023"/>
<path d="M39.4839 21.6773C44.1793 21.6773 48 17.8566 48 13.1611C48 11.3217 47.4077 9.62057 46.4123 8.22718L47.7963 6.71659L46.6546 5.67022L45.3947 7.04434C43.8618 5.56248 41.7793 4.64502 39.4839 4.64502C34.7885 4.64502 30.9678 8.46571 30.9678 13.1611C30.9678 17.8566 34.7885 21.6773 39.4839 21.6773ZM39.4839 6.19341C41.3767 6.19341 43.094 6.95437 44.3506 8.1837L38.6277 14.4268L35.3219 11.7825L34.3541 12.9914L38.7902 16.5407L45.3376 9.39792C46.0396 10.4847 46.4516 11.7746 46.4516 13.1611C46.4516 17.0034 43.3261 20.1289 39.4839 20.1289C35.6417 20.1289 32.5162 17.0034 32.5162 13.1611C32.5162 9.31891 35.6417 6.19341 39.4839 6.19341Z" fill="#F05023"/>
</svg>
