<svg width="48" height="48" viewBox="0 0 48 48" fill="none" xmlns="http://www.w3.org/2000/svg">
<path d="M47.7066 36.9847L44.0156 31.1726C43.7461 30.7482 43.3264 30.4537 42.8338 30.3439C42.3417 30.234 41.8367 30.3219 41.4122 30.5914L40.3121 31.2898C39.6606 31.7036 39.3497 32.4536 39.4603 33.1721L38.77 33.5438C38.6052 33.6324 38.4518 33.7167 38.306 33.798V20.4375C38.306 19.0935 37.2125 18 35.8685 18H20.2504C19.7325 18 19.3129 18.4197 19.3129 18.9375V25.3125C19.3129 25.6373 19.4809 25.9391 19.7574 26.1097C20.0339 26.2808 20.3789 26.2961 20.6697 26.1508L22.1254 25.4231L23.581 26.1508C23.7129 26.217 23.8564 26.25 24.0004 26.25C24.1439 26.25 24.2875 26.217 24.4193 26.1508L25.875 25.4231L27.331 26.1508C27.6214 26.2961 27.9664 26.2808 28.2429 26.1097C28.5194 25.9391 28.6875 25.6373 28.6875 25.3125V19.875H35.8685C36.1736 19.875 36.431 20.1324 36.431 20.4375V35.1328C36.0176 35.566 35.6872 36.0809 35.2672 36.8412C35.0819 37.1766 34.9376 37.4539 34.8219 37.6769C34.3535 38.577 34.3535 38.577 33.0696 39.2684L31.2279 40.2598C30.6976 40.5454 30.3098 41.0215 30.1362 41.6008C30.0714 41.8165 30.0395 42.0363 30.0395 42.2549H25.4227C24.9056 42.2549 24.4105 42.4186 24.0014 42.7178C23.6052 42.4274 23.1119 42.2549 22.5776 42.2549H17.9612C17.9608 42.0363 17.9289 41.8165 17.8641 41.6008C17.6905 41.0215 17.3027 40.5454 16.7724 40.2598L14.9308 39.2684C13.6468 38.577 13.6468 38.577 13.1785 37.6769C13.0627 37.4539 12.9184 37.1766 12.7331 36.8412C12.3131 36.0809 11.9828 35.5657 11.5693 35.1328V20.4375C11.5693 20.1324 11.8268 19.875 12.1318 19.875H13.7849C14.3027 19.875 14.7224 19.4553 14.7224 18.9375C14.7224 18.4197 14.3027 18 13.7849 18H12.1318C10.7878 18 9.69432 19.0935 9.69432 20.4375V33.798C9.54857 33.7167 9.39476 33.6324 9.23033 33.5438L8.54002 33.1721C8.57518 32.9421 8.56932 32.7056 8.51695 32.4716C8.40709 31.979 8.11266 31.5593 7.68822 31.2898L6.58849 30.5914C6.16405 30.3219 5.65904 30.234 5.16649 30.3439C4.67394 30.4537 4.25426 30.7482 3.98473 31.1726L0.293686 36.9847C0.024155 37.4092 -0.0637356 37.9142 0.0461278 38.4067C0.155991 38.8993 0.450425 39.3186 0.874863 39.5881L1.97496 40.2869C2.2877 40.4857 2.63707 40.5802 2.98277 40.5802C3.24754 40.5802 3.51012 40.5242 3.75182 40.4169L7.11143 45.3193C7.13377 45.3519 7.15831 45.3831 7.18431 45.4124C9.06554 47.528 9.88365 47.9985 12.5592 47.9982C12.8694 47.9982 13.2048 47.9919 13.5696 47.981C13.5974 47.9802 13.6252 47.978 13.6527 47.9751L22.7706 46.8864C23.2379 46.8307 23.6572 46.6582 24 46.4015C24.3428 46.6582 24.7621 46.8307 25.2294 46.8864L34.3473 47.9751C34.3747 47.978 34.4026 47.9802 34.4304 47.981C34.7955 47.9919 35.1306 47.9982 35.4408 47.9982C38.116 47.9982 38.9344 47.5276 40.8157 45.4124C40.8417 45.3831 40.8662 45.3519 40.8885 45.3193L44.2478 40.4176C44.3609 40.4674 44.48 40.5066 44.6034 40.5344C44.7418 40.5652 44.881 40.5806 45.0194 40.5806C45.3732 40.5806 45.7203 40.4806 46.0254 40.2869L47.1251 39.5881C48.0036 39.0308 48.2644 37.8629 47.7066 36.9847ZM26.8125 23.7957L26.2943 23.5364C26.0306 23.4045 25.7197 23.4045 25.456 23.5364L24.0004 24.2644L22.5443 23.5364C22.2806 23.4045 21.9697 23.4045 21.706 23.5364L21.1879 23.7957V19.875H26.8125V23.7957ZM1.88011 38.0054C1.87645 38.0035 1.87425 37.9933 1.87645 37.99L5.56749 32.1775C5.56969 32.1746 5.57372 32.1727 5.57774 32.1727C5.57994 32.1727 5.58177 32.1731 5.58324 32.1742L6.68297 32.8726C6.68773 32.8755 6.68956 32.8839 6.68663 32.8883L3.12999 38.4888C3.12816 38.4917 3.12633 38.4946 3.12413 38.4976L2.99559 38.7004C2.99339 38.7041 2.98314 38.7059 2.97984 38.7041L1.88011 38.0054ZM22.5483 45.0249L13.4725 46.1082C10.5018 46.1946 10.2374 46.0217 8.62498 44.2105L5.03978 38.9791L7.6721 34.8344L8.34154 35.1947C9.15672 35.6338 9.64378 35.9213 10.0027 36.2296C10.0173 36.2428 10.0316 36.2556 10.0466 36.2681C10.4538 36.6306 10.6966 37.032 11.0921 37.7479C11.2657 38.0629 11.3983 38.3174 11.5155 38.5422C12.1575 39.7767 12.3607 40.014 14.042 40.9193L15.8837 41.911C16.0041 41.9758 16.051 42.082 16.0686 42.1399C16.0858 42.1974 16.1052 42.312 16.04 42.4325C16.0056 42.4973 15.9708 42.5519 15.9364 42.5999C15.9287 42.6094 15.9217 42.6196 15.914 42.6295C15.6577 42.9635 15.42 42.8731 15.2838 42.8203C14.3785 42.4713 13.6589 42.2457 12.9628 42.0271C12.2395 41.8004 11.5561 41.5858 10.6999 41.2449C10.2191 41.0533 9.67381 41.2877 9.48228 41.7686C9.29039 42.2498 9.52513 42.795 10.006 42.9866C10.9277 43.3539 11.677 43.589 12.4017 43.816C13.0693 44.0255 13.76 44.2423 14.6092 44.5697C14.9143 44.6873 15.2186 44.7444 15.5145 44.7444C16.0862 44.7444 16.6238 44.5302 17.0665 44.1299H22.5776C22.812 44.1299 23.0625 44.2918 23.0629 44.5327V44.5331V44.5338C23.0625 44.8304 22.8043 44.9941 22.5483 45.0249ZM39.3754 44.2108C37.7629 46.0221 37.4985 46.1946 34.5278 46.1085L25.452 45.0249C25.196 44.9941 24.9379 44.8304 24.9379 44.5335V44.5331C24.9379 44.5327 24.9379 44.5327 24.9379 44.5324C24.9379 44.4075 25.0052 44.3192 25.0616 44.2672C25.1561 44.1801 25.2879 44.1299 25.4227 44.1299H30.9338C31.3766 44.5302 31.9145 44.7444 32.4858 44.7444C32.7817 44.7444 33.0864 44.6873 33.3911 44.5697C34.2403 44.2423 34.931 44.0255 35.599 43.816C36.3237 43.5886 37.073 43.3535 37.9944 42.9866C38.4756 42.795 38.7099 42.2498 38.5184 41.7686C38.3269 41.2877 37.7816 41.053 37.3004 41.2449C36.4446 41.5858 35.7612 41.8001 35.0379 42.0271C34.3418 42.2454 33.6218 42.4713 32.7165 42.8203C32.5803 42.8727 32.3426 42.9635 32.0856 42.6284C32.0786 42.6193 32.072 42.6097 32.0647 42.6006C32.0303 42.5526 31.9951 42.4973 31.9603 42.4325C31.8955 42.312 31.9145 42.1974 31.9321 42.1399C31.9493 42.082 31.9962 41.9758 32.1167 41.911L33.9584 40.9193C35.64 40.014 35.8429 39.7767 36.4852 38.5422C36.602 38.3174 36.7346 38.0629 36.9086 37.7479C37.3041 37.032 37.5469 36.6306 37.9541 36.2677C37.9687 36.256 37.9827 36.2432 37.9966 36.2307C38.3555 35.9216 38.8429 35.6342 39.6592 35.1947L40.3282 34.8344L42.9606 38.9791L39.3754 44.2108ZM46.1202 38.0054L45.0205 38.7041C45.0157 38.707 45.0077 38.7052 45.0047 38.7004L41.3137 32.8883C41.3115 32.885 41.3137 32.8748 41.3174 32.8726L42.4171 32.1742C42.4186 32.1731 42.4204 32.1727 42.4226 32.1727C42.4266 32.1727 42.4306 32.1746 42.4328 32.1775L46.1239 37.99C46.1268 37.9944 46.1246 38.0028 46.1202 38.0054Z" fill="#F05023"/>
<path d="M16.4783 19.875H16.5035C17.021 19.875 17.441 19.4553 17.441 18.9375C17.441 18.4197 17.021 18 16.5035 18H16.4783C15.9604 18 15.5408 18.4197 15.5408 18.9375C15.5408 19.4553 15.9604 19.875 16.4783 19.875Z" fill="#F05023"/>
<path d="M23.4346 36.2363C22.9167 36.2363 22.4971 36.656 22.4971 37.1738C22.4971 37.6917 22.9167 38.1113 23.4346 38.1113H27.2816C27.7994 38.1113 28.2191 37.6917 28.2191 37.1738C28.2191 36.656 27.7994 36.2363 27.2816 36.2363H23.4346Z" fill="#F05023"/>
<path d="M20.7188 36.2363C20.2013 36.2363 19.7812 36.656 19.7812 37.1738C19.7812 37.6917 20.2013 38.1113 20.7188 38.1113H20.7411C21.2589 38.1113 21.6786 37.6917 21.6786 37.1738C21.6786 36.656 21.2589 36.2363 20.7411 36.2363H20.7188Z" fill="#F05023"/>
<path d="M29.3677 34.3613C29.3677 33.8435 28.9476 33.4238 28.4302 33.4238H19.5708C19.053 33.4238 18.6333 33.8435 18.6333 34.3613C18.6333 34.8788 19.053 35.2988 19.5708 35.2988H28.4302C28.9476 35.2988 29.3677 34.8788 29.3677 34.3613Z" fill="#F05023"/>
<path d="M20.2413 12.8958C21.6025 14.2126 23.2216 14.9996 24.0005 14.9996C24.7791 14.9996 26.3981 14.2126 27.7593 12.8958C29.0381 11.6583 30.5626 9.49915 30.5626 6.23804V3.29297C30.5626 2.77551 30.1429 2.35583 29.6251 2.35583C28.8799 2.35583 27.6318 1.7124 27.3729 0.704224C27.2667 0.290039 26.8932 0 26.4651 0H21.5355C21.1078 0 20.7339 0.289673 20.6277 0.704224C20.3688 1.7124 19.1207 2.35583 18.3755 2.35583C17.8577 2.35583 17.438 2.77551 17.438 3.29297V6.23804C17.438 9.49915 18.9625 11.6583 20.2413 12.8958ZM19.313 4.10559C20.4453 3.81372 21.6029 3.02344 22.1793 1.875H25.8217C26.3977 3.02344 27.5553 3.81372 28.688 4.10559V6.23804C28.688 8.76965 27.5359 10.4619 26.5695 11.436C25.4723 12.5416 24.322 13.0397 24.0005 13.118C23.679 13.0397 22.5287 12.5416 21.4315 11.436C20.4651 10.4619 19.313 8.76965 19.313 6.23804V4.10559Z" fill="#F05023"/>
<path d="M23.2504 9.93759C23.4902 9.93759 23.7301 9.84604 23.9132 9.66293L26.9132 6.66293C27.2791 6.29672 27.2791 5.70309 26.9132 5.33688C26.547 4.97104 25.9534 4.97104 25.5872 5.33688L23.25 7.67404L22.4128 6.83688C22.047 6.47104 21.4534 6.47104 21.0872 6.83688C20.7209 7.20309 20.7209 7.79672 21.0872 8.16293L22.5872 9.66293C22.7703 9.84604 23.0101 9.93759 23.2504 9.93759Z" fill="#F05023"/>
</svg>
