<svg width="42" height="48" viewBox="0 0 42 48" fill="none" xmlns="http://www.w3.org/2000/svg">
<path d="M5.56134 42.7554C5.39078 42.5815 5.15418 42.4814 4.913 42.4814C4.67182 42.4814 4.43523 42.5814 4.26466 42.7554C4.09409 42.9293 3.99597 43.1706 3.99597 43.4165C3.99597 43.6624 4.09409 43.9036 4.26466 44.0774C4.43523 44.2515 4.67182 44.3515 4.913 44.3515C5.15418 44.3515 5.39078 44.2515 5.56134 44.0774C5.73191 43.9036 5.83003 43.6624 5.83003 43.4165C5.83003 43.1706 5.73191 42.9293 5.56134 42.7554Z" fill="#F05023"/>
<path d="M38.3894 10.8452C38.389 10.8449 38.3886 10.8445 38.3882 10.8443L32.2747 6.63364C31.1026 5.82634 29.7063 5.52751 28.3695 5.72854C28.4292 5.43484 28.4605 5.13302 28.4605 4.82614C28.4605 3.64997 28.0112 2.54421 27.1956 1.71241L26.781 1.28968C25.9654 0.457976 24.8808 0 23.7272 0C22.5737 0 21.4891 0.457976 20.6734 1.28978C19.8577 2.12158 19.4085 3.22734 19.4085 4.4036C19.4085 5.57977 19.8577 6.68554 20.6734 7.51724L21.0879 7.94006C21.6074 8.46966 22.2362 8.84704 22.922 9.05181L16.7519 13.7918C16.3593 14.0935 16.0742 14.4896 15.9066 14.9274C15.4626 14.836 14.992 14.8616 14.5419 15.0255L8.56479 17.2004C8.78314 16.6742 8.90391 16.0962 8.90391 15.4899V14.8921C8.90391 12.464 6.9665 10.4886 4.58515 10.4886C2.20381 10.4886 0.266397 12.464 0.266397 14.8921V15.4899C0.266397 17.1794 1.20489 18.6489 2.57777 19.3871C1.02662 20.0555 0 21.6176 0 23.3497V34.5025C0 35.0188 0.410555 35.4375 0.917031 35.4375C1.42351 35.4375 1.83406 35.0188 1.83406 34.5025V32.7914H5.45111C5.64203 32.7914 5.81929 32.7317 5.96611 32.6299L10.1128 29.7599C10.5204 29.4778 10.9963 29.3287 11.4888 29.3287C12.8397 29.3287 13.9388 30.4492 13.9388 31.8266V37.6214L11.3711 38.6691V33.9882C11.3711 33.6515 11.1936 33.3409 10.9064 33.1749C10.6193 33.0089 10.2667 33.013 9.98335 33.1858L5.33712 36.0199C4.76012 36.3718 4.40175 37.0163 4.40175 37.7019V46.0033H1.83406V42.0781C1.83406 41.5618 1.42351 41.1431 0.917031 41.1431C0.410555 41.1431 0 41.5618 0 42.0781V46.9384C0 47.4547 0.410555 47.8734 0.917031 47.8734H5.31878C5.82525 47.8734 6.23581 47.4547 6.23581 46.9384V37.7019C6.23581 37.6704 6.25231 37.6407 6.27873 37.6246L9.53712 35.6372V46.9384C9.53712 47.4547 9.94767 47.8734 10.4541 47.8734H41.083C41.5894 47.8734 42 47.4547 42 46.9384V17.646C42 14.8915 40.6505 12.3507 38.3894 10.8452ZM22.3849 6.61784L21.9703 6.19493C21.501 5.71647 21.2426 5.08028 21.2426 4.4036C21.2426 3.72683 21.501 3.09064 21.9703 2.61219C22.4396 2.13354 23.0635 1.87005 23.7272 1.87005C24.391 1.87005 25.0149 2.13354 25.4842 2.61219L25.8988 3.03491C26.8675 4.02258 26.8675 5.62998 25.8988 6.61775C24.9299 7.60551 23.3536 7.60551 22.3849 6.61784ZM17.8557 15.2854L26.9534 8.29621C28.2141 7.32781 29.94 7.28246 31.2481 8.18326L36.3318 11.6847L31.8452 15.3646L28.3265 12.9411C28.0725 12.7661 27.7495 12.7321 27.4657 12.8506L18.5696 16.5651C18.2393 16.7028 17.8535 16.5718 17.6702 16.2601C17.6693 16.2586 17.6684 16.2572 17.6676 16.2557C17.4784 15.9302 17.5592 15.513 17.8557 15.2854ZM2.10046 15.4899V14.8921C2.10046 13.4952 3.21511 12.3586 4.58515 12.3586C5.9552 12.3586 7.06985 13.4951 7.06985 14.8921V15.4899C7.06985 16.8869 5.9552 18.0235 4.58515 18.0235C3.21511 18.0235 2.10046 16.887 2.10046 15.4899ZM7.33624 24.5288V29.4216L5.16939 30.9213H1.83406V28.3937V23.3497C1.83406 22.324 2.47057 21.4033 3.41796 21.0586L15.1582 16.7866C15.4852 16.6678 15.8512 16.8023 16.0282 17.1069C16.2227 17.4414 16.1288 17.876 15.8146 18.0962L7.73387 23.7583C7.48499 23.9327 7.33624 24.2208 7.33624 24.5288ZM11.4889 27.4587C10.6625 27.4587 9.8634 27.6993 9.17031 28.1545V25.0208L16.8534 19.6373C17.2905 19.331 17.606 18.9068 17.7863 18.4333C17.9563 18.4688 18.13 18.4878 18.3048 18.4878C18.6273 18.4878 18.953 18.4257 19.2647 18.2956L27.7067 14.7708L31.3506 17.2805C32.1621 17.9148 32.6464 18.9139 32.6464 19.957V27.3028H30.8429C30.6399 27.3028 30.4428 27.3714 30.2821 27.4979L21.1666 34.6801L15.7729 36.877V31.8266C15.7729 29.4181 13.8511 27.4587 11.4889 27.4587ZM40.1659 46.0033H11.3712V40.6836L21.966 36.3682C22.045 36.336 22.1192 36.2928 22.1865 36.2398L31.1558 29.1728H40.1659V46.0033ZM40.1659 27.3028H38.3319V19.9285C38.3319 19.4122 37.9213 18.9935 37.4148 18.9935C36.9084 18.9935 36.4978 19.4122 36.4978 19.9285V27.3028H34.4804V19.957C34.4804 18.7216 34.0428 17.5261 33.2767 16.5905L37.9034 12.7957C39.3305 13.9765 40.1659 15.745 40.1659 17.646V27.3028Z" fill="#F05023"/>
<path d="M40.6772 37.9307H38.5375C38.031 37.9307 37.6205 38.3494 37.6205 38.8657C37.6205 39.382 38.031 39.8007 38.5375 39.8007H39.7602V43.4162C39.7602 43.9325 40.1707 44.3512 40.6772 44.3512C41.1837 44.3512 41.5943 43.9325 41.5943 43.4162V38.8657C41.5943 38.3494 41.1837 37.9307 40.6772 37.9307Z" fill="#F05023"/>
<path d="M41.3255 46.4039C41.1549 46.2299 40.9183 46.1299 40.6772 46.1299C40.436 46.1299 40.1994 46.2299 40.0288 46.4039C39.8583 46.5778 39.7601 46.819 39.7601 47.0649C39.7601 47.3108 39.8583 47.5521 40.0288 47.726C40.1994 47.8999 40.436 47.9999 40.6772 47.9999C40.9183 47.9999 41.1549 47.9 41.3255 47.726C41.4961 47.552 41.5942 47.3108 41.5942 47.0649C41.5942 46.819 41.4961 46.5778 41.3255 46.4039Z" fill="#F05023"/>
</svg>
