<svg width="48" height="47" viewBox="0 0 48 47" fill="none" xmlns="http://www.w3.org/2000/svg">
<path d="M33.7727 0C31.5517 0 29.7449 1.79469 29.7449 4.00059C29.7449 6.20659 31.5518 8.00128 33.7727 8.00128C35.9935 8.00128 37.8004 6.20659 37.8004 4.00059C37.8004 1.79469 35.9936 0 33.7727 0ZM33.7727 6.1388C32.5856 6.1388 31.6199 5.17957 31.6199 4.0005C31.6199 2.82142 32.5856 1.86229 33.7727 1.86229C34.9597 1.86229 35.9254 2.82151 35.9254 4.0005C35.9254 5.17948 34.9597 6.1388 33.7727 6.1388Z" fill="#F05023"/>
<path d="M47.0625 45.1371H42.2578L42.2149 25.1899C42.2137 24.6762 41.7943 24.2606 41.2774 24.2606C41.2767 24.2606 41.276 24.2606 41.2754 24.2606C40.7577 24.2618 40.3388 24.6796 40.3399 25.1938L40.3827 45.137H34.5625L34.5196 23.3439C34.5195 23.288 34.5136 23.2335 34.5039 23.1804V22.1268C34.5039 21.2037 34.3635 20.2993 34.0868 19.4283C35.0798 18.8836 36.196 18.5964 37.3546 18.5939C37.3597 18.5939 37.3645 18.5939 37.3697 18.5939C39.1418 18.5939 40.8075 19.2555 42.0609 20.4577C43.3102 21.656 44.0003 23.249 44.0039 24.9447L44.0189 29.1035C44.0208 29.6167 44.4401 30.0313 44.9563 30.0313C44.9575 30.0313 44.9586 30.0313 44.9598 30.0313C45.4775 30.0295 45.8957 29.6111 45.8939 29.0968L45.8789 24.9394C45.8742 22.7367 44.9809 20.6693 43.3634 19.118C42.4859 18.2764 41.4516 17.6435 40.3253 17.241C41.1372 16.4072 41.5831 15.3128 41.5806 14.1504C41.5752 11.7083 39.5735 9.72537 37.1161 9.72537C37.1129 9.72537 37.1096 9.72537 37.1064 9.72537C34.6447 9.73068 32.6463 11.7242 32.6514 14.1693C32.654 15.3539 33.1208 16.4665 33.9658 17.3023C33.9936 17.3298 34.0224 17.3557 34.0508 17.3823C33.8092 17.4815 33.5721 17.5918 33.3398 17.713C32.1958 15.6817 30.3281 14.1716 28.1186 13.4315C29.0643 12.5376 29.6556 11.2769 29.6556 9.88088C29.6556 7.1766 27.4406 4.97656 24.7181 4.97656C21.9956 4.97656 19.7807 7.1766 19.7807 9.88088C19.7807 11.3484 20.4338 12.6664 21.4656 13.566C19.4285 14.3428 17.7099 15.7858 16.6297 17.6889C16.3015 17.5202 15.9635 17.3731 15.6173 17.2482C16.3997 16.449 16.8829 15.3595 16.8829 14.1593C16.8829 11.7141 14.8801 9.72481 12.4183 9.72481C9.95653 9.72481 7.95375 11.7141 7.95375 14.1593C7.95375 15.4242 8.49047 16.5661 9.34856 17.3747C6.28931 18.6226 4.13663 21.5516 4.13663 24.9574V29.1163C4.13663 29.6305 4.55644 30.0474 5.07413 30.0474C5.59181 30.0474 6.01163 29.6305 6.01163 29.1163V24.9574C6.01163 21.4485 8.98837 18.5939 12.6473 18.5939C13.79 18.5939 14.8934 18.8713 15.8779 19.4002C15.5952 20.2799 15.4517 21.1938 15.4517 22.1268V29.4003V30.0385V45.137H9.79819V25.2001C9.79819 24.6858 9.37838 24.2689 8.86069 24.2689C8.343 24.2689 7.92319 24.6858 7.92319 25.2001V45.1371H0.9375C0.419813 45.1371 0 45.554 0 46.0683C0 46.5826 0.419813 46.9995 0.9375 46.9995H8.86078H47.0625C47.5802 46.9995 48 46.5826 48 46.0683C48 45.554 47.5802 45.1371 47.0625 45.1371ZM37.1105 11.5878C37.1124 11.5878 37.1141 11.5878 37.116 11.5878C38.5413 11.5878 39.7025 12.7381 39.7056 14.1544C39.7071 14.8414 39.439 15.4879 38.9511 15.9748C38.463 16.4616 37.8132 16.7305 37.1215 16.732C37.1196 16.732 37.1178 16.732 37.1158 16.732C36.4263 16.732 35.7776 16.466 35.2888 15.9826C34.7986 15.4978 34.5279 14.8525 34.5264 14.1655C34.5234 12.7472 35.6826 11.5908 37.1105 11.5878ZM12.4183 16.7316C10.9905 16.7316 9.82875 15.5777 9.82875 14.1594C9.82875 12.7411 10.9904 11.5873 12.4183 11.5873C13.8461 11.5873 15.0079 12.7411 15.0079 14.1594C15.0079 15.5777 13.8461 16.7316 12.4183 16.7316ZM24.7181 6.83904C26.4067 6.83904 27.7806 8.20361 27.7806 9.88097C27.7806 11.5583 26.4067 12.9229 24.7181 12.9229C23.0295 12.9229 21.6557 11.5583 21.6557 9.88097C21.6557 8.20361 23.0295 6.83904 24.7181 6.83904ZM19.7461 45.137H17.3267V33.6705C18.0122 34.1704 18.8433 34.4914 19.7461 34.5644V45.137ZM29.4109 21.4709C28.8932 21.4709 28.4734 21.8878 28.4734 22.4021V45.1371H25.7769V33.8935C25.7769 33.3792 25.3571 32.9624 24.8394 32.9624C24.3218 32.9624 23.9019 33.3792 23.9019 33.8935V45.137H21.6212V22.402C21.6212 21.8877 21.2014 21.4708 20.6837 21.4708C20.166 21.4708 19.7462 21.8877 19.7462 22.402V32.6925C18.3809 32.5097 17.3268 31.3896 17.3268 30.0386V29.4004V22.1269C17.3268 21.1738 17.5148 20.246 17.8854 19.3692C17.8862 19.3674 17.8868 19.3656 17.8876 19.3638C19.0664 16.5823 21.8492 14.7852 24.9779 14.7852C28.1219 14.7852 30.9101 16.5945 32.0813 19.3945C32.4448 20.2636 32.6291 21.1829 32.6291 22.1268V30.0385C32.6291 31.3434 31.6457 32.4329 30.3484 32.6705V22.4021C30.3484 21.8879 29.9286 21.4709 29.4109 21.4709ZM30.3483 45.137V34.5515C31.2134 34.4565 32.0076 34.1323 32.6649 33.6432L32.6876 45.137H30.3483Z" fill="#F05023"/>
<path d="M44.9568 33.6934C45.4746 33.6934 45.8943 33.2765 45.8943 32.7622C45.8943 32.248 45.4746 31.8311 44.9568 31.8311C44.439 31.8311 44.0193 32.248 44.0193 32.7622C44.0193 33.2765 44.439 33.6934 44.9568 33.6934Z" fill="#F05023"/>
<path d="M5.07373 33.6934C5.5915 33.6934 6.01123 33.2765 6.01123 32.7622C6.01123 32.248 5.5915 31.8311 5.07373 31.8311C4.55596 31.8311 4.13623 32.248 4.13623 32.7622C4.13623 33.2765 4.55596 33.6934 5.07373 33.6934Z" fill="#F05023"/>
<path d="M15.5085 0C13.2876 0 11.4807 1.79469 11.4807 4.00059C11.4807 6.20659 13.2876 8.00128 15.5085 8.00128C17.7293 8.00128 19.5363 6.20659 19.5363 4.00059C19.5363 1.79469 17.7294 0 15.5085 0ZM15.5085 6.1388C14.3214 6.1388 13.3557 5.17957 13.3557 4.0005C13.3557 2.82142 14.3214 1.86229 15.5085 1.86229C16.6956 1.86229 17.6613 2.82151 17.6613 4.0005C17.6613 5.17948 16.6956 6.1388 15.5085 6.1388Z" fill="#F05023"/>
</svg>
