<svg width="48" height="45" viewBox="0 0 48 45" fill="none" xmlns="http://www.w3.org/2000/svg">
<path d="M3.19731 22.9907C3.18513 22.9312 3.16731 22.8726 3.14388 22.8167C3.12044 22.7609 3.09138 22.707 3.05763 22.6567C3.02388 22.6055 2.9845 22.5581 2.94138 22.5153C2.89825 22.4715 2.8495 22.4334 2.79888 22.399C2.74731 22.3655 2.69294 22.3366 2.63669 22.3134C2.58044 22.2901 2.52138 22.2724 2.46138 22.2603C2.34044 22.2361 2.21575 22.2361 2.09481 22.2603C2.03481 22.2724 1.97575 22.2901 1.9195 22.3134C1.86325 22.3366 1.80888 22.3655 1.75731 22.399C1.70669 22.4334 1.65888 22.4715 1.61481 22.5153C1.57169 22.5581 1.53325 22.6055 1.49856 22.6567C1.46481 22.707 1.43575 22.7609 1.41231 22.8167C1.38888 22.8735 1.37106 22.9312 1.35888 22.9907C1.34669 23.0512 1.34106 23.1126 1.34106 23.1731C1.34106 23.2336 1.3466 23.295 1.35888 23.3546C1.37106 23.4141 1.38888 23.4727 1.41231 23.5286C1.43575 23.5844 1.46481 23.6393 1.49856 23.6895C1.53325 23.7407 1.57169 23.7882 1.61481 23.831C1.65888 23.8738 1.70669 23.9128 1.75731 23.9463C1.80878 23.9798 1.86316 24.0087 1.91941 24.0319C1.97566 24.0552 2.03472 24.0729 2.09472 24.085C2.15566 24.0971 2.2166 24.1036 2.27856 24.1036C2.3395 24.1036 2.40044 24.0971 2.46138 24.085C2.52138 24.0729 2.58044 24.0552 2.63669 24.0319C2.69294 24.0087 2.74731 23.9798 2.79888 23.9463C2.8495 23.9128 2.89825 23.8738 2.94138 23.831C2.9845 23.7882 3.02388 23.7407 3.05763 23.6895C3.09138 23.6393 3.12044 23.5844 3.14388 23.5286C3.16731 23.4727 3.18513 23.4141 3.19731 23.3546C3.2095 23.295 3.21606 23.2336 3.21606 23.1731C3.21606 23.1126 3.2095 23.0512 3.19731 22.9907Z" fill="#F05023"/>
<path d="M33.3709 9.80818C33.3587 9.74956 33.3409 9.69094 33.3174 9.63418C33.294 9.57835 33.2649 9.52438 33.2312 9.47414C33.1965 9.42296 33.158 9.37551 33.114 9.33271C33.0709 9.28991 33.023 9.25083 32.9715 9.21733C32.9209 9.18383 32.8665 9.15499 32.8102 9.13173C32.754 9.10847 32.6949 9.08986 32.6349 9.07869C32.514 9.0545 32.3893 9.0545 32.2684 9.07869C32.2084 9.08986 32.1493 9.10847 32.093 9.13173C32.0359 9.15499 31.9815 9.18383 31.9309 9.21733C31.8793 9.25083 31.8315 9.28991 31.7884 9.33271C31.7452 9.37551 31.7059 9.42296 31.6721 9.47414C31.6384 9.52438 31.6093 9.57835 31.5859 9.63418C31.5624 9.69094 31.5446 9.74956 31.5324 9.80818C31.5202 9.86866 31.5137 9.93007 31.5137 9.99064C31.5137 10.0511 31.5202 10.1125 31.5324 10.1721C31.5446 10.2316 31.5624 10.2902 31.5859 10.3461C31.6093 10.4028 31.6384 10.4568 31.6721 10.507C31.7059 10.5582 31.7452 10.6057 31.7884 10.6485C31.8315 10.6913 31.8793 10.7304 31.9309 10.7639C31.9815 10.7974 32.0359 10.8262 32.093 10.8495C32.1493 10.8727 32.2084 10.8904 32.2684 10.9025C32.3284 10.9146 32.3902 10.9211 32.4512 10.9211C32.513 10.9211 32.574 10.9146 32.6349 10.9025C32.6949 10.8904 32.754 10.8727 32.8102 10.8495C32.8665 10.8262 32.9209 10.7974 32.9715 10.7639C33.023 10.7304 33.0709 10.6913 33.114 10.6485C33.158 10.6057 33.1965 10.5582 33.2312 10.507C33.2649 10.4568 33.294 10.4028 33.3174 10.3461C33.3409 10.2902 33.3587 10.2316 33.3709 10.1721C33.383 10.1125 33.3887 10.0511 33.3887 9.99064C33.3887 9.93016 33.383 9.86875 33.3709 9.80818Z" fill="#F05023"/>
<path d="M24.0003 13.0068C18.7261 13.0068 14.4353 17.2656 14.4353 22.5001C14.4353 27.7347 18.7262 31.9934 24.0003 31.9934C29.2744 31.9934 33.5654 27.7347 33.5654 22.5001C33.5654 17.2655 29.2745 13.0068 24.0003 13.0068ZM24.0003 30.1323C19.76 30.1323 16.3104 26.7086 16.3104 22.5001C16.3104 18.2916 19.76 14.8679 24.0003 14.8679C28.2406 14.8679 31.6903 18.2916 31.6903 22.5001C31.6903 26.7086 28.2406 30.1323 24.0003 30.1323Z" fill="#F05023"/>
<path d="M24.0002 16.7559C20.8093 16.7559 18.2134 19.3323 18.2134 22.4992C18.2134 25.6661 20.8093 28.2425 24.0002 28.2425C27.1911 28.2425 29.787 25.6661 29.787 22.4992C29.7869 19.3323 27.1911 16.7559 24.0002 16.7559ZM24.0002 26.3815C21.8433 26.3815 20.0885 24.6399 20.0885 22.4991C20.0885 20.3583 21.8433 18.6168 24.0002 18.6168C26.1571 18.6168 27.9119 20.3584 27.9119 22.4991C27.9119 24.6399 26.1571 26.3815 24.0002 26.3815Z" fill="#F05023"/>
<path d="M35.8297 11.6452C35.4781 11.268 34.885 11.2451 34.5049 11.5941C34.1248 11.9431 34.1018 12.5318 34.4534 12.9089C36.8971 15.5303 38.2429 18.9365 38.2429 22.5C38.2429 28.8304 33.9265 34.4129 27.8547 36.1098C27.3428 34.4803 25.8086 33.294 24.0004 33.294C22.1922 33.294 20.658 34.4803 20.1462 36.1098C14.0737 34.413 9.75781 28.8319 9.75781 22.5C9.75781 16.1784 14.0774 10.5873 20.1461 8.89024C20.6579 10.5198 22.1922 11.7059 24.0003 11.7059C26.2258 11.7059 28.0364 9.90891 28.0364 7.70008C28.0364 5.49125 26.2258 3.69434 24.0003 3.69434C22.0169 3.69434 20.3633 5.12158 20.0268 6.99544C16.7073 7.83556 13.7024 9.73687 11.516 12.3924C9.17309 15.2381 7.88281 18.8276 7.88281 22.4999C7.88281 26.186 9.18181 29.7863 11.5407 32.6372C13.726 35.2784 16.7197 37.1672 20.0267 38.0043C20.3631 39.8784 22.0169 41.3055 24.0002 41.3055C25.9836 41.3055 27.6373 39.8783 27.9738 38.0043C31.2826 37.1668 34.278 35.2762 36.4635 32.633C38.82 29.7828 40.1178 26.1841 40.1178 22.5C40.1178 18.4666 38.5949 14.6116 35.8297 11.6452ZM24.0003 5.55536C25.1919 5.55536 26.1613 6.51746 26.1613 7.70018C26.1613 8.88289 25.1919 9.84499 24.0003 9.84499C22.8087 9.84499 21.8393 8.88289 21.8393 7.70018C21.8393 6.51755 22.8087 5.55536 24.0003 5.55536ZM24.0003 39.4447C22.8087 39.4447 21.8393 38.4826 21.8393 37.2999C21.8393 36.1172 22.8087 35.155 24.0003 35.155C25.1919 35.155 26.1613 36.1171 26.1613 37.2999C26.1613 38.4825 25.192 39.4447 24.0003 39.4447Z" fill="#F05023"/>
<path d="M46.0799 27.6115C46.4718 25.9427 46.6702 24.2267 46.6702 22.5C46.6702 10.0935 36.5004 0 24 0C16.3718 0 9.30863 3.77704 5.08528 10.1088C3.18 9.59831 1.13044 10.5436 0.328409 12.3943C-0.550966 14.4233 0.396846 16.7842 2.44125 17.6569C2.9595 17.8781 3.49903 17.9828 4.0305 17.9828C5.5951 17.9828 7.08722 17.0746 7.74375 15.5599C8.44369 13.9448 7.98591 12.1196 6.73904 11.0018C10.6243 5.27323 17.0574 1.86093 24.0001 1.86093C35.4665 1.86093 44.7952 11.1195 44.7952 22.5C44.7952 24.0296 44.6256 25.5496 44.2906 27.0299C42.6124 26.8961 40.9578 27.822 40.2564 29.4401C39.5564 31.0553 40.0143 32.8807 41.2614 33.9985C37.3773 39.7376 30.9846 43.1389 24 43.1389C14.083 43.1389 5.50069 36.133 3.59297 26.4807C3.49332 25.9765 3.00103 25.6477 2.49253 25.7467C1.9845 25.8456 1.65338 26.3346 1.75303 26.8389C3.83288 37.3622 13.1889 45 23.9999 45C27.9316 45 31.8078 43.9807 35.2097 42.0522C38.2989 40.3009 40.9501 37.8344 42.9145 34.8913C43.2605 34.984 43.611 35.0287 43.9583 35.0287C45.5229 35.0287 47.015 34.1203 47.6714 32.6057C48.4725 30.758 47.7579 28.6353 46.0799 27.6115ZM6.02128 14.8246C5.55028 15.911 4.2766 16.4145 3.18216 15.9473C2.08763 15.4801 1.58007 14.2159 2.05097 13.1295C2.40244 12.3185 3.20128 11.8323 4.03913 11.8323C4.32357 11.8323 4.6126 11.8884 4.89 12.0068C5.98463 12.4742 6.4921 13.7382 6.02128 14.8246ZM45.9492 31.8705C45.4783 32.9568 44.2048 33.4606 43.1102 32.9932H43.1103C42.0157 32.5259 41.5081 31.2618 41.979 30.1754C42.4499 29.089 43.7236 28.5852 44.818 29.0527C45.9125 29.52 46.42 30.7841 45.9492 31.8705Z" fill="#F05023"/>
</svg>
