<svg width="48" height="47" viewBox="0 0 48 47" fill="none" xmlns="http://www.w3.org/2000/svg">
<path d="M42.3262 24.6955C41.1016 22.8048 39.3762 21.2919 37.3367 20.3205C36.8699 20.0981 36.3097 20.2928 36.0855 20.7552C35.8611 21.2176 36.0575 21.7725 36.5242 21.9947C40.0784 23.6875 42.3748 27.3043 42.3748 31.2091C42.3748 32.8799 41.9591 34.5369 41.1728 36.0011C40.9296 36.4539 41.103 37.0164 41.5601 37.2574C41.7003 37.3313 41.8511 37.3664 41.9996 37.3664C42.335 37.3664 42.6595 37.1875 42.8281 36.8737C43.7581 35.1419 44.2498 33.1831 44.2498 31.2091C44.2498 28.8906 43.5846 26.6383 42.3262 24.6955Z" fill="#F05023"/>
<path d="M33.5318 19.1349L33.4687 19.1348C32.9511 19.1348 32.5312 19.5506 32.5312 20.0636C32.5312 20.5766 32.9511 20.9925 33.4687 20.9925L33.523 20.9926C33.5245 20.9926 33.5259 20.9926 33.5275 20.9926C34.0433 20.9926 34.4625 20.5796 34.4649 20.0681C34.4673 19.5551 34.0495 19.1373 33.5318 19.1349Z" fill="#F05023"/>
<path d="M30.6564 41.4269L30.6021 41.4268C30.082 41.4258 29.6628 41.8381 29.6604 42.3512C29.658 42.8643 30.0759 43.2821 30.5936 43.2845L30.6564 43.2847C31.1741 43.2847 31.5939 42.8687 31.5939 42.3558C31.5939 41.8429 31.1741 41.4269 30.6564 41.4269Z" fill="#F05023"/>
<path d="M27.6007 40.4234C24.0466 38.7306 21.7502 35.1137 21.7502 31.2091C21.7502 29.5383 22.1659 27.8813 22.9522 26.4171C23.1954 25.9642 23.0221 25.4017 22.5649 25.1608C22.108 24.9198 21.5401 25.0916 21.297 25.5445C20.3669 27.2763 19.8752 29.2351 19.8752 31.2091C19.8752 33.5275 20.5404 35.7798 21.7988 37.7227C23.0235 39.6133 24.7488 41.1263 26.7884 42.0977C26.9193 42.1602 27.0577 42.1896 27.1939 42.1896C27.543 42.1896 27.8781 41.9956 28.0395 41.663C28.2637 41.2007 28.0674 40.6457 27.6007 40.4234Z" fill="#F05023"/>
<path d="M36.3195 15.9919C36.2054 15.7225 36.0657 15.4686 35.903 15.2332H38.3437C40.7215 15.2332 42.6562 13.3164 42.6562 10.9605C42.6562 8.60451 40.7215 6.68773 38.3437 6.68773H30.8362C31.3135 6.0002 31.5937 5.16841 31.5937 4.27272C31.5937 1.91678 29.6591 0 27.2812 0H4.31249C1.93462 0 0 1.91678 0 4.27272C0 6.62866 1.93462 8.54544 4.31249 8.54544H11.82C11.3427 9.23297 11.0625 10.0648 11.0625 10.9605C11.0625 11.8561 11.3426 12.6879 11.82 13.3755H9.37498C6.99711 13.3755 5.06249 15.2922 5.06249 17.6482C5.06249 19.0012 5.7013 20.2087 6.69514 20.9921C5.7013 21.7754 5.06249 22.9829 5.06249 24.3359C5.06249 25.689 5.7013 26.8964 6.69514 27.6798C5.7013 28.4632 5.06249 29.6706 5.06249 31.0237C5.06249 32.3767 5.7013 33.5841 6.69514 34.3675C5.7013 35.1509 5.06249 36.3583 5.06249 37.7114C5.06249 40.0673 6.99711 41.9841 9.37498 41.9841H20.4234C23.334 45.0685 27.4745 47 32.0625 47C40.8505 47 48 39.9164 48 31.2095C48 23.9629 43.0472 17.8417 36.3195 15.9919ZM38.3437 8.54544C39.6878 8.54544 40.7812 9.62885 40.7812 10.9605C40.7812 12.2921 39.6878 13.3755 38.3437 13.3755H32.3437H15.375C14.0309 13.3755 12.9375 12.2921 12.9375 10.9605C12.9375 9.62885 14.0309 8.54544 15.375 8.54544H38.3437ZM4.31249 6.68773C2.9684 6.68773 1.875 5.60432 1.875 4.27272C1.875 2.94112 2.9684 1.8577 4.31249 1.8577H27.2812C28.6253 1.8577 29.7187 2.94112 29.7187 4.27272C29.7187 5.60432 28.6253 6.68773 27.2812 6.68773H4.31249ZM9.37498 15.2332H32.3437C32.7213 15.2332 33.0829 15.3201 33.4073 15.4758C32.9638 15.4389 32.5155 15.419 32.0625 15.419C27.6614 15.419 23.6715 17.1958 20.7845 20.0632H9.37498C8.03098 20.0632 6.93749 18.9798 6.93749 17.6482C6.93749 16.3166 8.03098 15.2332 9.37498 15.2332ZM9.37498 21.9209H19.1826C18.1184 23.3655 17.2955 24.9949 16.773 26.7509H9.37498C8.03089 26.7509 6.93749 25.6676 6.93749 24.3359C6.93749 23.0043 8.03089 21.9209 9.37498 21.9209ZM9.37498 28.6086H16.3425C16.2003 29.4551 16.1251 30.3237 16.1251 31.2095C16.1251 31.9662 16.1803 32.7102 16.2846 33.4387H9.37498C8.03089 33.4387 6.93749 32.3553 6.93749 31.0237C6.93749 29.692 8.03089 28.6086 9.37498 28.6086ZM9.37498 40.1264C8.03089 40.1264 6.93749 39.0431 6.93749 37.7114C6.93749 36.3797 8.03089 35.2964 9.37498 35.2964H16.6674C17.1405 37.0438 17.9089 38.6724 18.9167 40.1264H9.37498ZM32.0625 45.1423C24.3085 45.1423 18.0001 38.8921 18.0001 31.2095C18.0001 23.527 24.3085 17.2767 32.0625 17.2767C39.8166 17.2767 46.125 23.527 46.125 31.2095C46.125 38.8921 39.8166 45.1423 32.0625 45.1423Z" fill="#F05023"/>
<path d="M32.0581 30.2209C30.9208 30.2209 29.9956 29.4274 29.9956 28.4522C29.9956 27.4769 30.9208 26.6835 32.0581 26.6835C33.1954 26.6835 34.1206 27.4769 34.1206 28.4522C34.1206 28.9652 34.5404 29.3811 35.0581 29.3811C35.5758 29.3811 35.9956 28.9652 35.9956 28.4522C35.9956 26.7501 34.7155 25.3189 32.9956 24.9305V24.4474C32.9956 23.9345 32.5758 23.5186 32.0581 23.5186C31.5404 23.5186 31.1206 23.9345 31.1206 24.4474V24.9305C29.4007 25.3189 28.1206 26.7501 28.1206 28.4522C28.1206 30.4518 29.8869 32.0786 32.0581 32.0786C33.1954 32.0786 34.1206 32.872 34.1206 33.8473C34.1206 34.8226 33.1954 35.616 32.0581 35.616C30.9208 35.616 29.9956 34.8226 29.9956 33.8473C29.9956 33.3344 29.5758 32.9184 29.0581 32.9184C28.5404 32.9184 28.1206 33.3344 28.1206 33.8473C28.1206 35.5494 29.4007 36.9806 31.1206 37.369V37.7703C31.1206 38.2832 31.5404 38.6992 32.0581 38.6992C32.5758 38.6992 32.9956 38.2832 32.9956 37.7703V37.369C34.7155 36.9806 35.9956 35.5494 35.9956 33.8473C35.9956 31.8477 34.2292 30.2209 32.0581 30.2209Z" fill="#F05023"/>
</svg>
