<svg width="46" height="46" viewBox="0 0 46 46" fill="none" xmlns="http://www.w3.org/2000/svg">
<path d="M43.9252 7.54688H34.5C34.1276 7.54688 33.8262 7.84834 33.8262 8.2207C33.8262 8.59306 34.1276 8.89453 34.5 8.89453H43.9252C44.3263 8.89453 44.6523 9.22057 44.6523 9.6217V35.5697C44.6523 35.9708 44.3263 36.2969 43.9252 36.2969H2.07483C1.67369 36.2969 1.34766 35.9708 1.34766 35.5697V9.6217C1.34766 9.22057 1.67369 8.89453 2.07483 8.89453H16.8794V10.2422H3.36914C2.99678 10.2422 2.69531 10.5437 2.69531 10.916V28.7202C2.69531 29.0922 2.99678 29.394 3.36914 29.394C3.7415 29.394 4.04297 29.0922 4.04297 28.7202V11.5898H16.8794V15.2047L13.9946 16.5828C13.7643 16.693 13.6113 16.931 13.6113 17.191V28.1801C13.6113 28.4398 13.7605 28.6763 13.9946 28.7883L22.7094 32.952C22.8982 33.0407 23.1113 33.0362 23.2906 32.952L28.1899 30.6111C28.5257 30.4507 28.6679 30.0482 28.5075 29.7127C28.3471 29.3768 27.9442 29.2347 27.6087 29.3951L23.6738 31.2751V21.7794L31.041 18.2597V27.7554L30.0401 28.2334C29.7042 28.3938 29.5621 28.7963 29.7225 29.1318C29.8829 29.4677 30.2854 29.6098 30.6209 29.4494L32.0054 28.7883C32.2395 28.6763 32.3887 28.4398 32.3887 28.1801V17.191C32.3887 16.9341 32.2392 16.6948 32.0054 16.5828L29.1206 15.2047V11.5898H41.957V33.6016H4.04297V31.5952C4.04297 31.2228 3.7415 30.9213 3.36914 30.9213C2.99678 30.9213 2.69531 31.2228 2.69531 31.5952V34.2754C2.69531 34.6478 2.99678 34.9492 3.36914 34.9492H42.6309C43.0032 34.9492 43.3047 34.6478 43.3047 34.2754V10.916C43.3047 10.5437 43.0032 10.2422 42.6309 10.2422H29.1206V8.89453H31.625C31.9974 8.89453 32.2988 8.59306 32.2988 8.2207C32.2988 7.84834 31.9974 7.54688 31.625 7.54688H29.1206V6.19922H35.1626C35.535 6.19922 35.8364 5.89775 35.8364 5.52539V3.92715C36.6208 3.64885 37.1841 2.89992 37.1841 2.02148C37.1841 0.90686 36.2772 0 35.1626 0C34.048 0 33.1411 0.90686 33.1411 2.02148C33.1411 2.89992 33.7044 3.64885 34.4888 3.92715V4.85156H28.4468C28.0744 4.85156 27.7729 5.15303 27.7729 5.52539V7.54688H23.6738V3.92715C24.4582 3.64885 25.0215 2.89992 25.0215 2.02148C25.0215 0.90686 24.1146 0 23 0C21.8854 0 20.9785 0.90686 20.9785 2.02148C20.9785 2.89992 21.5418 3.64885 22.3262 3.92715V7.54688H18.2271V5.52539C18.2271 5.15303 17.9256 4.85156 17.5532 4.85156H11.5112V3.92715C12.2956 3.64885 12.8589 2.89992 12.8589 2.02148C12.8589 0.90686 11.952 0 10.8374 0C9.72278 0 8.81592 0.90686 8.81592 2.02148C8.81592 2.89992 9.3792 3.64885 10.1636 3.92715V5.52539C10.1636 5.89775 10.465 6.19922 10.8374 6.19922H16.8794V7.54688H2.07483C0.930725 7.54688 0 8.4776 0 9.6217V35.5697C0 36.7138 0.930725 37.6445 2.07483 37.6445H16.6836C16.4228 40.1163 14.7884 41.5598 14.2732 41.957H11.4102C10.2955 41.957 9.38867 42.8639 9.38867 43.9785C9.38867 45.0931 10.2955 46 11.4102 46H34.5898C35.7045 46 36.6113 45.0931 36.6113 43.9785C36.6113 42.8639 35.7045 41.957 34.5898 41.957H31.7285C31.22 41.5612 29.58 40.1047 29.3171 37.6445H43.9252C45.0693 37.6445 46 36.7138 46 35.5697V9.6217C46 8.4776 45.0693 7.54688 43.9252 7.54688ZM35.1626 1.34766C35.5343 1.34766 35.8364 1.64983 35.8364 2.02148C35.8364 2.39314 35.5343 2.69531 35.1626 2.69531C34.7909 2.69531 34.4888 2.39314 34.4888 2.02148C34.4888 1.64983 34.7909 1.34766 35.1626 1.34766ZM23 1.34766C23.3717 1.34766 23.6738 1.64983 23.6738 2.02148C23.6738 2.39314 23.3717 2.69531 23 2.69531C22.6283 2.69531 22.3262 2.39314 22.3262 2.02148C22.3262 1.64983 22.6283 1.34766 23 1.34766ZM10.8374 1.34766C11.2091 1.34766 11.5112 1.64983 11.5112 2.02148C11.5112 2.39314 11.2091 2.69531 10.8374 2.69531C10.4657 2.69531 10.1636 2.39314 10.1636 2.02148C10.1636 1.64983 10.4657 1.34766 10.8374 1.34766ZM18.2271 11.5898H22.3262V12.6023L18.2271 14.561V11.5898ZM30.1517 17.191L23 20.6076L15.8483 17.191L23 13.7742L30.1517 17.191ZM14.959 18.2597L22.3262 21.7794V31.2751L14.959 27.7554V18.2597ZM27.7729 14.561L23.6738 12.6023V11.5898H27.7729V14.561ZM27.7729 8.89453V10.2422H23.6738V8.89453H27.7729ZM22.3262 8.89453V10.2422H18.2271V8.89453H22.3262ZM35.2637 43.9785C35.2637 44.3502 34.9615 44.6523 34.5898 44.6523H11.4102C11.0385 44.6523 10.7363 44.3502 10.7363 43.9785C10.7363 43.6069 11.0385 43.3047 11.4102 43.3047H34.5898C34.9615 43.3047 35.2637 43.6069 35.2637 43.9785ZM29.7958 41.957H16.2042C16.9942 41.0344 17.8705 39.5965 18.0386 37.6445H27.9614C28.1295 39.5965 29.0058 41.0344 29.7958 41.957Z" fill="#F05023"/>
</svg>
