<svg width="199" height="83" viewBox="0 0 199 83" fill="none" xmlns="http://www.w3.org/2000/svg">
<path d="M84.4781 46.0151H81.568L80.8453 41.9526C80.2594 41.4578 79.4781 41.0476 78.5016 40.7221C77.525 40.3966 76.3922 40.2338 75.1031 40.2338C73.0589 40.2338 71.4899 40.67 70.3961 41.5424C69.3024 42.4018 68.7555 43.5281 68.7555 44.9213C68.7555 46.1583 69.3089 47.1935 70.4156 48.0268C71.5354 48.8471 73.3388 49.5698 75.8258 50.1948C78.8206 50.937 81.0927 52.0307 82.6422 53.476C84.2047 54.9213 84.986 56.7117 84.986 58.8471C84.986 61.1388 84.0485 62.9812 82.1735 64.3745C80.3115 65.7677 77.8701 66.4643 74.8492 66.4643C72.6617 66.4643 70.7151 66.1062 69.0094 65.3901C67.3167 64.6739 65.9365 63.7364 64.8688 62.5776V57.2846H67.7594L68.5016 61.3666C69.2438 61.9786 70.1292 62.4799 71.1578 62.8705C72.1865 63.2612 73.417 63.4565 74.8492 63.4565C76.7893 63.4565 78.3193 63.0463 79.4391 62.226C80.5719 61.4057 81.1383 60.2924 81.1383 58.8862C81.1383 57.5841 80.65 56.4968 79.6735 55.6245C78.6969 54.739 76.9716 53.9968 74.4977 53.3979C71.4899 52.6817 69.1396 51.6271 67.4469 50.2338C65.7542 48.8406 64.9078 47.0893 64.9078 44.9799C64.9078 42.7534 65.8518 40.9044 67.7399 39.433C69.6279 37.9487 72.0823 37.2065 75.1031 37.2065C77.0953 37.2065 78.9052 37.5515 80.5328 38.2416C82.1735 38.9187 83.4886 39.7455 84.4781 40.7221V46.0151ZM98.2672 37.6166V40.0971L95.0836 40.644V56.894C95.0836 59.0424 95.6956 60.6765 96.9196 61.7963C98.1435 62.9031 99.7581 63.4565 101.763 63.4565C103.873 63.4565 105.572 62.9031 106.861 61.7963C108.15 60.6896 108.795 59.0554 108.795 56.894V40.644L105.611 40.0971V37.6166H112.642H115.826V40.0971L112.642 40.644V56.894C112.642 59.9799 111.633 62.3497 109.615 64.0034C107.61 65.644 104.992 66.4643 101.763 66.4643C98.6253 66.4643 96.0862 65.644 94.1461 64.0034C92.206 62.3497 91.236 59.9799 91.236 56.894V40.644L88.0524 40.0971V37.6166H91.236H98.2672ZM138.97 46.0151H136.06L135.338 41.9526C134.752 41.4578 133.97 41.0476 132.994 40.7221C132.017 40.3966 130.884 40.2338 129.595 40.2338C127.551 40.2338 125.982 40.67 124.888 41.5424C123.795 42.4018 123.248 43.5281 123.248 44.9213C123.248 46.1583 123.801 47.1935 124.908 48.0268C126.028 48.8471 127.831 49.5698 130.318 50.1948C133.313 50.937 135.585 52.0307 137.134 53.476C138.697 54.9213 139.478 56.7117 139.478 58.8471C139.478 61.1388 138.541 62.9812 136.666 64.3745C134.804 65.7677 132.362 66.4643 129.341 66.4643C127.154 66.4643 125.207 66.1062 123.502 65.3901C121.809 64.6739 120.429 63.7364 119.361 62.5776V57.2846H122.252L122.994 61.3666C123.736 61.9786 124.621 62.4799 125.65 62.8705C126.679 63.2612 127.909 63.4565 129.341 63.4565C131.282 63.4565 132.811 63.0463 133.931 62.226C135.064 61.4057 135.63 60.2924 135.63 58.8862C135.63 57.5841 135.142 56.4968 134.166 55.6245C133.189 54.739 131.464 53.9968 128.99 53.3979C125.982 52.6817 123.632 51.6271 121.939 50.2338C120.246 48.8406 119.4 47.0893 119.4 44.9799C119.4 42.7534 120.344 40.9044 122.232 39.433C124.12 37.9487 126.575 37.2065 129.595 37.2065C131.588 37.2065 133.397 37.5515 135.025 38.2416C136.666 38.9187 137.981 39.7455 138.97 40.7221V46.0151ZM142.759 40.0971V37.6166H152.974V40.0971L149.791 40.644V50.4682H163.58V40.644L160.396 40.0971V37.6166H163.58H167.427H170.611V40.0971L167.427 40.644V63.0463L170.611 63.5932V66.0541H160.396V63.5932L163.58 63.0463V53.4955H149.791V63.0463L152.974 63.5932V66.0541H142.759V63.5932L145.943 63.0463V40.644L142.759 40.0971ZM173.482 40.0971V37.6166H183.697V40.0971L180.513 40.644V63.0463L183.697 63.5932V66.0541H173.482V63.5932L176.666 63.0463V40.644L173.482 40.0971Z" fill="black"/>
<path d="M68.1324 70.7143V71.4584L67.1774 71.6225V75.2026L67.2125 75.2143L70.0074 70.7143H71.1617H72.1168V71.4584L71.1617 71.6225V76.1518L72.1168 76.3159V77.0541H69.0524V76.3159L70.0074 76.1518V72.5659L69.9723 72.5541L67.1774 77.0541H65.0739V76.3159L66.0289 76.1518V71.6225L65.0739 71.4584V70.7143H67.1774H68.1324ZM73.6135 71.4584V70.7143H76.678V71.4584L75.7229 71.6225V73.4565H78.5413V71.6225L77.5862 71.4584V70.7143H78.5413H79.7014H80.6565V71.4584L79.7014 71.6225V76.1518L80.6565 76.3159V77.0541H77.5862V76.3159L78.5413 76.1518V74.3588H75.7229V76.1518L76.678 76.3159V77.0541H73.6135V76.3159L74.5686 76.1518V71.6225L73.6135 71.4584ZM88.0419 70.7143V72.601H87.0517L86.9638 71.6108H85.6044V76.1518L86.5595 76.3159V77.0541H83.495V76.3159L84.4501 76.1518V71.6108H83.1142L83.0263 72.601H82.0419V70.7143H88.0419ZM91.8414 77.1772C90.9585 77.1772 90.2554 76.8842 89.732 76.2983C89.2124 75.7084 88.9527 74.9448 88.9527 74.0073V73.7495C88.9527 72.8471 89.2203 72.0971 89.7554 71.4995C90.2945 70.8979 90.9312 70.5971 91.6656 70.5971C92.5171 70.5971 93.1617 70.8549 93.5992 71.3705C94.0406 71.8862 94.2613 72.5737 94.2613 73.433V74.1537H90.148L90.1304 74.183C90.1421 74.7924 90.2964 75.2944 90.5933 75.6889C90.8902 76.0795 91.3062 76.2748 91.8414 76.2748C92.232 76.2748 92.5738 76.2202 92.8667 76.1108C93.1636 75.9975 93.4195 75.8432 93.6343 75.6479L94.0855 76.3979C93.8589 76.6166 93.5581 76.8022 93.1831 76.9545C92.8121 77.103 92.3648 77.1772 91.8414 77.1772ZM91.6656 71.5053C91.2789 71.5053 90.9488 71.6694 90.6753 71.9975C90.4019 72.3217 90.2339 72.7299 90.1714 73.2221L90.1831 73.2514H93.107V73.0991C93.107 72.6459 92.9859 72.267 92.7437 71.9623C92.5015 71.6577 92.1421 71.5053 91.6656 71.5053ZM95.6232 78.7475L96.5783 78.5834V71.6225L95.6232 71.4584V70.7143H97.5685L97.674 71.4877C97.8849 71.1987 98.1408 70.978 98.4416 70.8256C98.7463 70.6733 99.0978 70.5971 99.4963 70.5971C100.281 70.5971 100.891 70.9096 101.324 71.5346C101.762 72.1557 101.981 72.978 101.981 74.0014V74.1245C101.981 75.0385 101.762 75.7768 101.324 76.3393C100.887 76.8979 100.283 77.1772 99.5139 77.1772C99.1232 77.1772 98.7795 77.1127 98.4826 76.9838C98.1896 76.851 97.9396 76.6557 97.7326 76.3979V78.5834L98.6877 78.7475V79.4916H95.6232V78.7475ZM100.82 74.0014C100.82 73.2787 100.68 72.687 100.399 72.226C100.117 71.7651 99.6994 71.5346 99.1447 71.5346C98.8166 71.5346 98.5353 71.6088 98.301 71.7573C98.0666 71.9057 97.8771 72.1088 97.7326 72.3666V75.4545C97.8771 75.7162 98.0646 75.9194 98.2951 76.0639C98.5295 76.2045 98.8166 76.2748 99.1564 76.2748C99.7033 76.2748 100.117 76.0756 100.399 75.6772C100.68 75.2787 100.82 74.7612 100.82 74.1245V74.0014ZM103.436 71.4584V70.7143H106.501V71.4584L105.546 71.6225V73.4565H108.364V71.6225L107.409 71.4584V70.7143H108.364H109.524H110.479V71.4584L109.524 71.6225V76.1518L110.479 76.3159V77.0541H107.409V76.3159L108.364 76.1518V74.3588H105.546V76.1518L106.501 76.3159V77.0541H103.436V76.3159L104.391 76.1518V71.6225L103.436 71.4584ZM114.824 77.1772C113.941 77.1772 113.238 76.8842 112.714 76.2983C112.195 75.7084 111.935 74.9448 111.935 74.0073V73.7495C111.935 72.8471 112.203 72.0971 112.738 71.4995C113.277 70.8979 113.914 70.5971 114.648 70.5971C115.499 70.5971 116.144 70.8549 116.582 71.3705C117.023 71.8862 117.244 72.5737 117.244 73.433V74.1537H113.13L113.113 74.183C113.124 74.7924 113.279 75.2944 113.576 75.6889C113.873 76.0795 114.289 76.2748 114.824 76.2748C115.214 76.2748 115.556 76.2202 115.849 76.1108C116.146 75.9975 116.402 75.8432 116.617 75.6479L117.068 76.3979C116.841 76.6166 116.54 76.8022 116.165 76.9545C115.794 77.103 115.347 77.1772 114.824 77.1772ZM114.648 71.5053C114.261 71.5053 113.931 71.6694 113.658 71.9975C113.384 72.3217 113.216 72.7299 113.154 73.2221L113.165 73.2514H116.089V73.0991C116.089 72.6459 115.968 72.267 115.726 71.9623C115.484 71.6577 115.124 71.5053 114.648 71.5053ZM124.611 70.7143V72.601H123.621L123.533 71.6108H122.174V76.1518L123.129 76.3159V77.0541H120.065V76.3159L121.02 76.1518V71.6108H119.684L119.596 72.601H118.611V70.7143H124.611ZM129.231 73.9018H126.366V72.9995H129.231V73.9018ZM135.574 75.5424H135.609L137.677 70.7143H139.124H140.079V71.4584L139.124 71.6225V76.1518L140.079 76.3159V77.0541H137.015V76.3159L137.97 76.1518V72.6537L137.935 72.642L135.99 77.0541H135.193L133.212 72.5483L133.177 72.56V76.1518L134.132 76.3159V77.0541H131.068V76.3159L132.023 76.1518V71.6225L131.068 71.4584V70.7143H132.023H133.511L135.574 75.5424ZM145.619 77.0541C145.584 76.8823 145.557 76.728 145.537 76.5912C145.518 76.4545 145.504 76.3178 145.496 76.1811C145.273 76.4662 144.994 76.7045 144.658 76.8959C144.326 77.0834 143.971 77.1772 143.592 77.1772C142.932 77.1772 142.43 77.017 142.086 76.6967C141.742 76.3725 141.57 75.9174 141.57 75.3315C141.57 74.7299 141.813 74.267 142.297 73.9428C142.785 73.6147 143.453 73.4506 144.301 73.4506H145.49V72.7123C145.49 72.3412 145.373 72.0483 145.139 71.8334C144.904 71.6147 144.578 71.5053 144.16 71.5053C143.871 71.5053 143.615 71.5424 143.393 71.6166C143.174 71.6909 142.996 71.7924 142.859 71.9213L142.736 72.5893H141.846V71.3588C142.135 71.1284 142.484 70.9448 142.895 70.808C143.305 70.6674 143.75 70.5971 144.23 70.5971C144.949 70.5971 145.531 70.7807 145.977 71.1479C146.422 71.5151 146.645 72.0405 146.645 72.7241V75.7768C146.645 75.8588 146.645 75.9389 146.645 76.017C146.648 76.0952 146.654 76.1733 146.662 76.2514L147.131 76.3159V77.0541H145.619ZM143.762 76.2104C144.145 76.2104 144.494 76.1186 144.811 75.935C145.127 75.7514 145.354 75.5307 145.49 75.2729V74.2299H144.26C143.787 74.2299 143.412 74.3393 143.135 74.558C142.861 74.7768 142.725 75.0424 142.725 75.3549C142.725 75.6323 142.811 75.8452 142.982 75.9936C143.154 76.1381 143.414 76.2104 143.762 76.2104ZM149.307 71.6225L148.352 71.4584V70.7143H153.339V70.726H153.526V72.3491H152.776L152.694 71.6284H150.462V76.1518L151.417 76.3159V77.0541H148.352V76.3159L149.307 76.1518V71.6225ZM159.253 77.0541C159.218 76.8823 159.191 76.728 159.171 76.5912C159.152 76.4545 159.138 76.3178 159.13 76.1811C158.908 76.4662 158.628 76.7045 158.292 76.8959C157.96 77.0834 157.605 77.1772 157.226 77.1772C156.566 77.1772 156.064 77.017 155.72 76.6967C155.376 76.3725 155.204 75.9174 155.204 75.3315C155.204 74.7299 155.447 74.267 155.931 73.9428C156.419 73.6147 157.087 73.4506 157.935 73.4506H159.124V72.7123C159.124 72.3412 159.007 72.0483 158.773 71.8334C158.538 71.6147 158.212 71.5053 157.794 71.5053C157.505 71.5053 157.249 71.5424 157.027 71.6166C156.808 71.6909 156.63 71.7924 156.493 71.9213L156.37 72.5893H155.48V71.3588C155.769 71.1284 156.118 70.9448 156.529 70.808C156.939 70.6674 157.384 70.5971 157.865 70.5971C158.583 70.5971 159.165 70.7807 159.611 71.1479C160.056 71.5151 160.279 72.0405 160.279 72.7241V75.7768C160.279 75.8588 160.279 75.9389 160.279 76.017C160.283 76.0952 160.288 76.1733 160.296 76.2514L160.765 76.3159V77.0541H159.253ZM157.396 76.2104C157.779 76.2104 158.128 76.1186 158.445 75.935C158.761 75.7514 158.988 75.5307 159.124 75.2729V74.2299H157.894C157.421 74.2299 157.046 74.3393 156.769 74.558C156.495 74.7768 156.359 75.0424 156.359 75.3549C156.359 75.6323 156.445 75.8452 156.617 75.9936C156.788 76.1381 157.048 76.2104 157.396 76.2104ZM164.652 73.351C165.059 73.351 165.348 73.2748 165.519 73.1225C165.695 72.9662 165.783 72.7416 165.783 72.4487C165.783 72.183 165.684 71.9584 165.484 71.7748C165.285 71.5912 164.982 71.4995 164.576 71.4995C164.213 71.4995 163.908 71.5952 163.662 71.7866C163.416 71.978 163.293 72.2104 163.293 72.4838H162.197L162.185 72.4487C162.162 71.9057 162.383 71.4643 162.848 71.1245C163.312 70.7807 163.889 70.6088 164.576 70.6088C165.318 70.6088 165.898 70.769 166.316 71.0893C166.734 71.4057 166.943 71.8588 166.943 72.4487C166.943 72.7338 166.857 72.9955 166.685 73.2338C166.514 73.4721 166.273 73.6596 165.965 73.7963C166.32 73.9213 166.592 74.1088 166.779 74.3588C166.967 74.6049 167.06 74.9077 167.06 75.267C167.06 75.8608 166.832 76.3256 166.375 76.6616C165.922 76.9975 165.322 77.1655 164.576 77.1655C163.885 77.1655 163.291 76.9995 162.795 76.6674C162.303 76.3315 162.066 75.8471 162.086 75.2143L162.098 75.1791H163.193C163.193 75.476 163.322 75.7338 163.58 75.9526C163.838 76.1713 164.17 76.2807 164.576 76.2807C164.994 76.2807 165.318 76.185 165.549 75.9936C165.779 75.7983 165.894 75.5561 165.894 75.267C165.894 74.9272 165.793 74.6791 165.59 74.5229C165.391 74.3666 165.078 74.2885 164.652 74.2885H163.551V73.351H164.652ZM171.692 70.7143V71.4584L170.737 71.6225V75.2026L170.772 75.2143L173.567 70.7143H174.721H175.676V71.4584L174.721 71.6225V76.1518L175.676 76.3159V77.0541H172.612V76.3159L173.567 76.1518V72.5659L173.532 72.5541L170.737 77.0541H168.633V76.3159L169.588 76.1518V71.6225L168.633 71.4584V70.7143H170.737H171.692ZM177.173 71.4584V70.7143H180.238V71.4584L179.282 71.6225V73.4565H182.101V71.6225L181.146 71.4584V70.7143H182.101H183.261H184.216V71.4584L183.261 71.6225V76.1518L184.216 76.3159V77.0541H181.146V76.3159L182.101 76.1518V74.3588H179.282V76.1518L180.238 76.3159V77.0541H177.173V76.3159L178.128 76.1518V71.6225L177.173 71.4584Z" fill="#EB5757"/>
<circle cx="19.2501" cy="63.6178" r="16.5" transform="rotate(-10.5847 19.2501 63.6178)" fill="white"/>
<circle cx="19.2501" cy="63.6178" r="7.33333" transform="rotate(-10.5847 19.2501 63.6178)" fill="#EB5757"/>
<circle cx="19.2501" cy="63.6178" r="15.5" transform="rotate(-10.5847 19.2501 63.6178)" stroke="black" stroke-width="2"/>
<path d="M95.8517 21.1396L10.1254 47.5878L9.8272 46.0351L94.4613 16.4155L95.8517 21.1396Z" fill="black"/>
<path d="M81.723 3.80833L32.7269 78.9607L31.5047 77.9576L77.6332 1.06544L81.723 3.80833Z" fill="black"/>
</svg>
