<svg width="74" height="75" viewBox="0 0 74 75" fill="none" xmlns="http://www.w3.org/2000/svg">
<path d="M72 21.1587V33.119M72 21.1587L38.6936 54.4048L25.7097 41.4444L12.7258 54.4048M72 21.1587H60.8629M24.5806 21.1587H4C2.89543 21.1587 2 22.0542 2 23.1587V67C2 70.3137 4.68629 73 8 73H66C69.3137 73 72 70.3137 72 67V45.0794M49.9839 21.1587H53.7944M24.5806 26.7937V14.7016C24.5806 7.68671 30.2674 2 37.2823 2V2C44.2972 2 49.9839 7.6867 49.9839 14.7016V26.7937" stroke="white" stroke-width="3" stroke-linecap="round" stroke-linejoin="round"/>
</svg>
