<svg width="84" height="72" viewBox="0 0 84 72" fill="none" xmlns="http://www.w3.org/2000/svg">
<path d="M82.9947 23.0741L21.1654 0.0953223C20.3746 -0.197836 19.4959 0.207828 19.2043 1.0018C19.2037 1.00244 19.2037 1.00308 19.2031 1.00373L12.3586 19.6932C12.0676 20.4872 12.4733 21.3679 13.2647 21.6598H13.266L20.4329 24.2995L18.8538 28.6152C18.5635 29.4092 18.9691 30.2887 19.7606 30.5805L34.0969 35.8606L33.0433 38.7375C32.0858 41.3142 32.9792 44.2149 35.2197 45.7997V53.6172H14.6721C13.6775 51.3362 11.6421 49.6801 9.21124 49.1748V45.9578C9.21124 45.1118 8.52807 44.4258 7.68404 44.4258H1.5272C0.683809 44.4258 0 45.1118 0 45.9578V70.468C0 71.3147 0.683809 72 1.5272 72H7.68404C8.52807 72 9.21124 71.3147 9.21124 70.468V67.2516C11.6421 66.7457 13.6775 65.0902 14.6721 62.8086H35.2197V64.3406C35.2197 66.8787 37.2705 68.9366 39.8007 68.9366C42.3308 68.9366 44.3822 66.8787 44.3822 64.3406V47.3702C45.7704 46.6798 46.8425 45.4821 47.377 44.0227L48.4306 41.1458L61.3326 45.8948C61.5012 45.9572 61.6787 45.9887 61.8582 45.9887C62.4984 45.9887 63.0713 45.5882 63.2924 44.9851L63.8647 43.421C68.834 44.3589 73.6201 41.0783 74.5545 36.0939C74.8999 34.2521 74.6756 32.3485 73.9117 30.6384L83.169 25.8701C83.9195 25.4843 84.2162 24.5611 83.8317 23.8083C83.6574 23.4663 83.3613 23.2027 83.0024 23.0696L82.9947 23.0741ZM38.2735 47.1954L39.5379 47.655C40.1134 47.862 40.7171 47.981 41.3279 48.0073V53.6172H38.2735V47.1954ZM6.15749 68.9366H3.05439V47.4898H6.15749V68.9366ZM12.2656 59.7452C12.2631 61.6919 11.0403 63.4271 9.21124 64.0789V52.3475C11.0403 52.9987 12.2631 54.7339 12.2656 56.6812V59.7452ZM15.3674 56.6812H41.3279V59.7452H15.3674V56.6812ZM39.8007 65.8726C38.9573 65.8726 38.2735 65.1867 38.2735 64.3406V62.8086H41.3279V64.3406C41.3279 65.1867 40.644 65.8726 39.8007 65.8726ZM45.564 40.0908L44.5104 42.9677C43.9285 44.5544 42.1744 45.3683 40.5915 44.7858L37.7191 43.7302C36.1362 43.1471 35.3235 41.3869 35.9048 39.7983C35.9048 39.7983 35.9048 39.7983 35.9048 39.7976L36.959 36.9226L44.6995 39.7732L45.564 40.0908ZM60.9526 42.4958L22.2466 28.2378L23.3008 25.3609L46.2363 33.8098C46.7791 34.0078 47.3879 33.8837 47.8103 33.4877L52.0958 29.4407L64.1108 33.8676L60.9526 42.4958ZM71.2777 36.5086C70.31 39.1258 67.7074 40.7613 64.9382 40.492L67.2979 34.0438L71.1521 32.0527C71.7551 33.4684 71.8 35.0615 71.2777 36.5086ZM66.1232 31.2118C66.0424 31.2189 65.9623 31.2331 65.8835 31.2543L52.2682 26.2391C51.7253 26.0391 51.1165 26.1632 50.6948 26.5605L46.4042 30.6082L15.752 19.3164L21.5416 3.50264L78.6791 24.7379L66.1232 31.2118Z" fill="#F05023"/>
<path d="M28.2727 20.6639L29.325 17.7876L32.1922 18.8439L31.1393 21.7202L28.2727 20.6639Z" fill="#F05023"/>
<path d="M34.0065 22.7757L35.0588 19.8994L37.9261 20.9557L36.8731 23.8313L34.0065 22.7757Z" fill="#F05023"/>
<path d="M39.7404 24.889L40.7934 22.0127L43.66 23.069L42.607 25.9453L39.7404 24.889Z" fill="#F05023"/>
</svg>
