<svg width="74" height="73" viewBox="0 0 74 73" fill="none" xmlns="http://www.w3.org/2000/svg">
<path d="M26.7049 46.8408C26.9768 46.8408 27.2373 46.7349 27.4293 46.5451L28.3211 45.6651L30.9062 48.1934C31.3056 48.5838 31.9494 48.5838 32.3482 48.1934L36.0376 44.5829C36.2307 44.3937 36.3393 44.1362 36.3398 43.8681C36.3404 43.5999 36.2324 43.3419 36.0405 43.152L33.4548 40.6029L38.9124 35.2218C41.4513 36.984 44.9362 36.5384 46.9346 34.1954C48.9335 31.8525 48.7827 28.3913 46.5872 26.2264C44.3917 24.0614 40.8811 23.9121 38.5051 25.8833C36.129 27.8544 35.6771 31.2903 37.4647 33.7938L25.9811 45.1181C25.6886 45.4065 25.6012 45.8409 25.76 46.2178C25.9182 46.5946 26.2913 46.8403 26.7049 46.8408ZM33.8661 43.863L31.6272 46.0538L29.7699 44.237L32.0077 42.0304L33.8661 43.863ZM42.3488 26.5345C44.5174 26.5345 46.2747 28.2679 46.2747 30.4058C46.2747 32.5443 44.5174 34.2777 42.3488 34.2777C40.1807 34.2777 38.4228 32.5443 38.4228 30.4058C38.4257 28.2696 40.1813 26.5379 42.3476 26.5351L42.3488 26.5345Z" fill="#F05023"/>
<path d="M53.3817 21.5015C53.3817 20.9443 52.923 20.4919 52.3579 20.4919H21.7912C21.2256 20.4919 20.7674 20.9443 20.7674 21.5015V51.6427C20.7674 52.2004 21.2256 52.6522 21.7912 52.6522H52.3579C52.923 52.6522 53.3817 52.2004 53.3817 51.6427V21.5015ZM51.3342 50.4889H22.815V22.511H51.3342V50.4889Z" fill="#F05023"/>
<path d="M66.3839 37.5095C66.561 38.1512 66.9055 38.7354 67.3831 39.2041C68.6228 40.4259 70.5389 40.6749 72.058 39.813C73.5765 38.9506 74.3192 37.1907 73.8702 35.5203C73.4206 33.85 71.8912 32.6845 70.1385 32.6777C68.3863 32.6709 66.8466 33.8241 66.3839 35.4905H60.5481V30.2987H63.2646C63.8502 30.2852 64.3249 29.8261 64.3506 29.2492V23.3763H65.7452C65.9314 24.0168 66.2736 24.6027 66.7415 25.0833C68.2554 26.5727 70.7069 26.5716 72.2185 25.0799C73.7302 23.5881 73.7302 21.1703 72.2185 19.6785C70.7069 18.1868 68.2554 18.1857 66.7415 19.6751C66.2742 20.1467 65.932 20.7247 65.7452 21.3573H63.2646C62.699 21.3573 62.3031 21.8333 62.3031 22.3916V28.2797H60.5481V18.7096C60.5481 15.7678 58.1 13.4254 55.1162 13.4254H45.0453V11.5506H51.309C51.8746 11.5506 52.3579 11.1602 52.3579 10.6025V8.15644C52.9995 7.97222 53.5856 7.63478 54.0638 7.17396C55.1813 6.07882 55.5189 4.42709 54.9179 2.99056C54.3175 1.55404 52.8972 0.61663 51.3216 0.61663C49.746 0.61663 48.3257 1.55404 47.7247 2.99056C47.1243 4.42709 47.4613 6.07882 48.5794 7.17396C49.0667 7.63591 49.6608 7.97279 50.3104 8.15644V9.53156H44.0324C43.4668 9.53156 42.9978 10.0448 42.9978 10.6025V13.4254H38.0252V7.5238C38.6748 7.35029 39.2678 7.01172 39.7431 6.54189C40.9874 5.31887 41.2439 3.4249 40.3692 1.92303C39.4946 0.420586 37.7064 -0.315142 36.0079 0.127647C34.31 0.570436 33.1246 2.08245 33.1177 3.81417C33.1103 5.54646 34.2832 7.06749 35.9777 7.5238V13.4254H30.7126V10.6025C30.6983 10.0251 30.2327 9.55748 29.6477 9.53156H23.6925V8.15644C24.342 7.97279 24.9356 7.63591 25.4229 7.17396C26.926 5.68279 26.9209 3.27336 25.4121 1.78839C23.9027 0.302847 21.4593 0.302847 19.9499 1.78839C18.4405 3.27336 18.4354 5.68279 19.9385 7.17396C20.4166 7.63478 21.0028 7.97222 21.6449 8.15644V10.6025C21.6449 11.1602 22.1277 11.5506 22.6933 11.5506H28.665V13.4254H19.0329C16.0491 13.4254 13.601 15.7672 13.601 18.7096V28.5681H11.6998V22.3916C11.6998 21.8339 11.3033 21.3573 10.7377 21.3573H8.25712C8.0703 20.7247 7.7281 20.1467 7.26077 19.6751C6.15017 18.5738 4.47569 18.2414 3.01945 18.8341C1.56322 19.4261 0.613146 20.8261 0.613146 22.3792C0.613146 23.9323 1.56322 25.3323 3.01945 25.9249C4.47569 26.517 6.15017 26.1852 7.26077 25.0833C7.72924 24.6027 8.07088 24.0168 8.25712 23.3763H9.65223V29.5675C9.65223 30.1246 10.1727 30.5871 10.7377 30.5871H13.601V35.4905H7.61898C7.25392 34.1768 6.2073 33.1532 4.87218 32.8045C3.53648 32.4552 2.11338 32.8332 1.13588 33.7959C-0.378628 35.2894 -0.378628 37.7112 1.13588 39.2041C2.6504 40.6975 5.10584 40.6975 6.62035 39.2041C7.09795 38.7354 7.44188 38.1512 7.61898 37.5095H13.601V42.7013H10.7377C10.1521 42.7154 9.67794 43.1745 9.65223 43.7514V49.6237H8.25712C8.07088 48.9837 7.72924 48.3978 7.26077 47.9173C5.74912 46.4368 3.30739 46.443 1.80259 47.9303C0.297789 49.4175 0.297789 51.8252 1.80259 53.3125C3.30739 54.7997 5.74912 54.8059 7.26077 53.3254C7.7281 52.8539 8.0703 52.2759 8.25712 51.6427H10.7377C11.3033 51.6427 11.6998 51.1672 11.6998 50.609V44.7203H13.601V54.291C13.601 57.2328 16.0491 59.5746 19.0329 59.5746H28.9575V61.4494H22.6933C22.1282 61.4494 21.6449 61.8404 21.6449 62.3981V64.8441C21.0028 65.0283 20.4172 65.3658 19.939 65.8266C18.821 66.9217 18.4839 68.5735 19.0844 70.01C19.6854 71.4465 21.1056 72.3839 22.6813 72.3839C24.2569 72.3839 25.6772 71.4465 26.2776 70.01C26.8786 68.5735 26.541 66.9217 25.4235 65.8266C24.9362 65.3647 24.342 65.0278 23.6925 64.8441V63.4684H29.9705C30.5355 63.4684 31.0051 62.9558 31.0051 62.3981V59.5746H35.9777V65.4768C35.3275 65.6503 34.7351 65.9888 34.2592 66.4587C33.0155 67.6817 32.759 69.5757 33.6336 71.0775C34.5089 72.5794 36.2964 73.3151 37.9943 72.8724C39.6922 72.429 40.8777 70.9175 40.8845 69.1858C40.892 67.4541 39.7191 65.9331 38.0252 65.4768V59.5746H43.2903V62.3981C43.3046 62.9755 43.7696 63.4431 44.3546 63.4684H50.3104V64.8441C49.6608 65.0278 49.0667 65.3652 48.5794 65.8266C47.0768 67.3178 47.082 69.7272 48.5908 71.2116C50.1002 72.6966 52.543 72.6966 54.0524 71.2116C55.5612 69.7272 55.5663 67.3178 54.0638 65.8266C53.5856 65.3658 52.9995 65.0283 52.3579 64.8441V62.3981C52.3579 61.8404 51.8752 61.4494 51.309 61.4494H45.3378V59.5746H55.1162C58.0995 59.5746 60.5481 57.2333 60.5481 54.291V44.4319H62.3031V50.609C62.3031 51.1667 62.699 51.6427 63.2646 51.6427H65.7452C65.932 52.2759 66.2742 52.8539 66.7415 53.3254C67.8521 54.4273 69.5272 54.7603 70.984 54.1676C72.4408 53.5755 73.3914 52.1751 73.3914 50.6214C73.3914 49.0677 72.4408 47.6672 70.984 47.0745C69.5272 46.4825 67.8521 46.8148 66.7415 47.9173C66.2736 48.3978 65.9314 48.9837 65.7452 49.6237H64.3506V43.4331C64.3506 42.8759 63.8302 42.4129 63.2646 42.4129H60.5481V37.5095H66.3839ZM68.8307 35.224C69.4483 34.615 70.4161 34.521 71.1416 34.9998C71.8678 35.4781 72.15 36.3952 71.8158 37.1912C71.4816 37.9867 70.6241 38.4385 69.7677 38.2706C68.9113 38.1027 68.2949 37.3614 68.2949 36.5C68.2949 36.0217 68.4874 35.5626 68.8307 35.224ZM68.1892 21.1151C68.6508 20.6548 69.3272 20.4734 69.9613 20.6396C70.5961 20.8063 71.0914 21.2948 71.2605 21.9206C71.429 22.5459 71.2451 23.2129 70.7783 23.6681C70.0619 24.3661 68.909 24.3627 68.1972 23.6608C67.4848 22.9583 67.4819 21.8215 68.1892 21.1151ZM49.4786 4.46991C49.4786 3.60855 50.0956 2.86776 50.952 2.69932C51.8083 2.53144 52.6659 2.98324 53.0001 3.77925C53.3343 4.57469 53.0521 5.49238 52.3259 5.97066C51.5998 6.44894 50.632 6.35486 50.015 5.74588C49.6705 5.40844 49.4774 4.94875 49.4786 4.46991ZM35.7069 2.5613C36.4216 1.85655 37.5807 1.85655 38.2954 2.5613C39.0101 3.26604 39.0101 4.40907 38.2954 5.11381C37.5807 5.81856 36.4216 5.81856 35.7069 5.11381C35.3624 4.77637 35.1687 4.31668 35.1687 3.83784C35.1687 3.35843 35.3624 2.8993 35.7069 2.5613ZM20.8628 4.46991C20.8634 3.74038 21.3096 3.08239 21.9934 2.80353C22.6773 2.52412 23.4639 2.67791 23.9878 3.19393C24.5734 3.77136 24.6928 4.66482 24.278 5.37239C23.8638 6.07938 23.0195 6.42471 22.2197 6.2129C21.4193 6.00164 20.8628 5.28676 20.8628 4.46991ZM5.8131 23.6681C5.09841 24.3717 3.94039 24.3717 3.22626 23.667C2.51157 22.9628 2.51157 21.8204 3.22626 21.1162C3.94039 20.4114 5.09841 20.4114 5.8131 21.1151C6.15931 21.4525 6.35412 21.9122 6.35412 22.3916C6.35412 22.8716 6.15931 23.3313 5.8131 23.6681ZM5.17154 37.7765C4.45684 38.4807 3.29882 38.4802 2.5847 37.776C1.87057 37.0712 1.87057 35.9293 2.5847 35.2246C3.29882 34.5204 4.45684 34.5198 5.17154 35.224C5.8868 35.9288 5.8868 37.0718 5.17154 37.7765ZM5.8131 51.8855C5.3515 52.3458 4.67508 52.5272 4.04094 52.361C3.40622 52.1942 2.91091 51.7058 2.74238 51.0799C2.57327 50.4546 2.7578 49.7876 3.22455 49.3324C3.94039 48.6344 5.09384 48.6378 5.80568 49.3398C6.51752 50.0422 6.52094 51.1791 5.8131 51.8855ZM23.9878 67.2541C24.6065 67.8631 24.7031 68.8185 24.2181 69.5362C23.7325 70.2534 22.8012 70.5328 21.9928 70.2032C21.185 69.8737 20.7257 69.027 20.896 68.1814C21.0662 67.3358 21.8192 66.7263 22.6933 66.7263C23.1789 66.7251 23.645 66.915 23.9878 67.2541ZM38.2954 70.4393C37.5807 71.144 36.4216 71.144 35.7069 70.4393C34.9922 69.7345 34.9922 68.5915 35.7069 67.8867C36.4216 67.182 37.5807 67.182 38.2954 67.8867C39.0107 68.5915 39.0107 69.7345 38.2954 70.4393ZM53.14 68.5307C53.14 69.3909 52.5236 70.1311 51.6678 70.299C50.812 70.4669 49.955 70.0151 49.6214 69.2202C49.2878 68.4253 49.5694 67.5088 50.295 67.0305C51.0199 66.5527 51.9872 66.6463 52.6042 67.2541C52.9481 67.5921 53.1412 68.0518 53.1395 68.5307H53.14ZM58.5005 54.3828C58.5005 56.2148 56.9946 57.6998 55.1367 57.6998H19.0124C17.1545 57.6998 15.6486 56.2148 15.6486 54.3828V18.7614C15.6486 16.93 17.1545 15.4444 19.0124 15.4444H55.1367C56.9946 15.4444 58.5005 16.93 58.5005 18.7614V54.3828ZM68.1892 49.3324C68.9044 48.6277 70.063 48.6277 70.7783 49.3324C71.493 50.0377 71.493 51.1802 70.7783 51.8855C70.063 52.5903 68.9044 52.5903 68.1892 51.8855C67.843 51.5481 67.6482 51.0884 67.6482 50.609C67.6482 50.129 67.843 49.6693 68.1892 49.3324Z" fill="#F05023"/>
</svg>
