<svg width="72" height="72" viewBox="0 0 72 72" fill="none" xmlns="http://www.w3.org/2000/svg">
<path d="M21.9376 52.0315C21.1613 52.0315 20.5313 52.6615 20.5313 53.4378C20.5313 54.214 21.1613 54.844 21.9376 54.844C22.7138 54.844 23.3438 54.214 23.3438 53.4378C23.3438 52.6615 22.7138 52.0315 21.9376 52.0315Z" fill="#F05023"/>
<path d="M63.3019 26.7188L71.5888 18.4319C71.9374 18.0832 72.0779 17.5776 71.9594 17.0991C71.8408 16.6206 71.4803 16.2392 71.0092 16.0938L50.8293 9.86548C49.0102 4.01811 43.6034 0 37.4064 0C31.6458 0 26.4939 3.51073 24.3616 8.80671L0.98754 16.0951C0.517708 16.2416 0.15855 16.6233 0.0408456 17.1012C-0.0768584 17.5791 0.0637677 18.0839 0.411817 18.432L8.91674 26.9369L3.5527 35.8772C3.33318 36.243 3.2917 36.6886 3.43964 37.0887C3.58757 37.4888 3.90919 37.8 4.31391 37.9349L12.0938 40.528V62.1566C12.0938 62.7427 12.4574 63.2674 13.0063 63.4732C17.7632 65.2569 35.4378 71.8858 35.5327 71.9194C35.8117 72.0177 36.126 72.031 36.4325 71.9319C36.4366 71.9305 36.4408 71.9296 36.4448 71.9282L61.7575 63.4907C62.3317 63.2993 62.7191 62.7618 62.7191 62.1566V39.9489L71.0158 37.3417C71.4849 37.1943 71.8429 36.8127 71.9601 36.3351C72.0771 35.8575 71.9363 35.3535 71.5887 35.0058L63.3019 26.7188ZM51.469 14.0626C51.469 13.7053 51.454 13.3488 51.4271 12.9934L67.9499 18.0932L60.933 25.1099L49.4681 21.2887C50.7663 19.1187 51.469 16.6147 51.469 14.0626ZM26.7649 10.4024C28.3259 5.8627 32.6025 2.81252 37.4064 2.81252C42.5816 2.81252 47.0701 6.31298 48.3216 11.3249C48.5439 12.2155 48.6565 13.1366 48.6565 14.0626C48.6565 16.6746 47.7897 19.1227 46.1494 21.1434C44.0011 23.7931 40.8144 25.3127 37.4064 25.3127C33.7226 25.3127 30.2673 23.5045 28.1627 20.4746C26.8502 18.5894 26.1564 16.372 26.1564 14.0626C26.1564 12.8067 26.361 11.5752 26.7649 10.4024ZM4.04503 18.0877L23.4936 12.0234C23.396 12.6953 23.3438 13.3759 23.3438 14.0625C23.3438 16.3267 23.8802 18.5197 24.9025 20.4985L11.0673 25.1099L4.04503 18.0877ZM6.86641 35.821L11.313 28.4097L33.8923 35.9361L29.4459 43.3474C27.0349 42.5437 9.44071 36.6789 6.86641 35.821ZM34.5939 68.565L14.9063 61.1822V41.4655C30.3962 46.6015 29.6398 46.4447 30.0711 46.4447C30.5546 46.4447 31.0175 46.1945 31.2773 45.7618L34.5939 40.2337V68.565ZM36.0002 33.6742L15.1347 26.7191L26.4964 22.932C29.1556 26.2012 33.1588 28.1252 37.4064 28.1252C41.3358 28.1252 45.0288 26.5081 47.6851 23.6591L56.8657 26.7189L36.0002 33.6742ZM59.9066 61.1431L37.4064 68.6431V39.165L42.3918 45.3962C42.7545 45.8494 43.3582 46.0331 43.9115 45.8593L59.9066 40.8329V61.1431ZM43.9866 42.8877L38.3582 35.8527L60.933 28.3278L67.9593 35.3541L43.9866 42.8877Z" fill="#F05023"/>
<path d="M30.869 55.1531L27.7415 53.9802C27.0143 53.7077 26.2038 54.076 25.9309 54.8032C25.6583 55.5305 26.0267 56.3411 26.7539 56.6137L29.8814 57.7866C30.6101 58.0596 31.4197 57.6895 31.692 56.9636C31.9646 56.2364 31.5962 55.4257 30.869 55.1531Z" fill="#F05023"/>
<path d="M30.8689 61.1605L22.4313 57.9964C21.7041 57.7237 20.8936 58.0922 20.6208 58.8193C20.348 59.5465 20.7165 60.3572 21.4437 60.6299L29.8813 63.794C30.044 63.855 30.2108 63.884 30.3749 63.884C30.9443 63.884 31.48 63.5357 31.6918 62.971C31.9646 62.2437 31.5962 61.4332 30.8689 61.1605Z" fill="#F05023"/>
<path d="M45.4322 8.84941C44.8831 8.30013 43.9927 8.30027 43.4434 8.84941L36.0002 16.2927L34.182 14.4746C33.6329 13.9254 32.7424 13.9254 32.1931 14.4746C31.6439 15.0237 31.644 15.9142 32.1931 16.4635L35.0058 19.2758C35.5549 19.825 36.4454 19.825 36.9947 19.2758L45.4322 10.8383C45.9814 10.2891 45.9814 9.3987 45.4322 8.84941Z" fill="#F05023"/>
</svg>
