<svg width="77" height="72" viewBox="0 0 77 72" fill="none" xmlns="http://www.w3.org/2000/svg">
<path d="M66.6547 10.5464C59.9848 3.74697 51.1129 0 41.6864 0C32.0856 0 23.1028 3.86003 16.4013 10.8694C15.6725 11.6285 15.6883 12.856 16.433 13.6151C17.1776 14.358 18.3816 14.3419 19.1262 13.5828C25.1148 7.33244 33.1154 3.89233 41.6864 3.89233C59.0659 3.87618 73.1977 18.2826 73.1977 36C73.1977 53.7174 59.0659 68.1238 41.6864 68.1238C24.3068 68.1238 10.175 53.7174 10.175 36V35.5962L13.3119 38.7941C13.6763 39.1655 14.1674 39.3594 14.6586 39.3594C15.1497 39.3594 15.625 39.1655 16.0052 38.7941C16.7498 38.035 16.7498 36.8075 16.0052 36.0485L9.63639 29.5397C8.89178 28.7806 7.68772 28.7806 6.94311 29.5397L0.558459 36.0485C-0.186153 36.8075 -0.186153 38.035 0.558459 38.7941C1.30307 39.5532 2.50712 39.5532 3.25174 38.7941L6.38861 35.5962V36C6.38861 45.6097 10.0641 54.6541 16.734 61.4536C23.4038 68.253 32.2758 72 41.7022 72C51.1287 72 60.0007 68.253 66.6705 61.4536C73.3403 54.6541 77 45.6097 77 36C77 26.3903 73.3245 17.3459 66.6547 10.5464Z" fill="#F05023"/>
<path d="M51.7941 22.9017L28.4418 46.6917C27.6972 47.4508 27.6972 48.6783 28.4418 49.4373C28.8062 49.8088 29.2973 50.0026 29.7884 50.0026C30.2796 50.0026 30.7548 49.8088 31.1351 49.4373L54.4874 25.6311C55.232 24.8721 55.232 23.6446 54.4874 22.8855C53.7427 22.1426 52.5387 22.1426 51.7941 22.9017Z" fill="#F05023"/>
<path d="M45.6788 38.9232C43.033 41.6204 43.033 46.0295 45.6788 48.7267C46.962 50.0349 48.6731 50.7617 50.495 50.7617C52.3169 50.7617 54.0279 50.0349 55.3112 48.7267C57.9569 46.0295 57.9569 41.6204 55.3112 38.9232C54.0279 37.615 52.3169 36.8882 50.495 36.8882C48.6731 36.8882 46.9779 37.615 45.6788 38.9232ZM52.6179 45.9972C52.0476 46.5786 51.303 46.8855 50.495 46.8855C49.687 46.8855 48.9424 46.5625 48.372 45.9972C47.1997 44.802 47.1997 42.864 48.372 41.6688C48.9424 41.0874 49.687 40.7805 50.495 40.7805C51.303 40.7805 52.0476 41.1035 52.6179 41.6688C53.7903 42.864 53.7903 44.802 52.6179 45.9972Z" fill="#F05023"/>
<path d="M32.9412 21.1736C31.1192 21.1736 29.4082 21.9004 28.1249 23.2086C26.8417 24.5168 26.1288 26.2611 26.1288 28.1184C26.1288 29.9757 26.8417 31.72 28.1249 33.0282C29.4082 34.3364 31.1192 35.0632 32.9412 35.0632C34.7631 35.0632 36.4741 34.3364 37.7574 33.0282C39.0406 31.72 39.7536 29.9757 39.7536 28.1184C39.7536 26.2611 39.0406 24.5168 37.7574 23.2086C36.4583 21.9004 34.7631 21.1736 32.9412 21.1736ZM35.0641 30.2826C34.4938 30.864 33.7491 31.1709 32.9412 31.1709C32.1332 31.1709 31.3886 30.8479 30.8182 30.2826C30.2479 29.7012 29.9469 28.9421 29.9469 28.1184C29.9469 27.2947 30.2637 26.5356 30.8182 25.9542C31.3886 25.3728 32.1332 25.0659 32.9412 25.0659C33.7491 25.0659 34.4938 25.3889 35.0641 25.9542C35.6344 26.5356 35.9355 27.2947 35.9355 28.1184C35.9355 28.9259 35.6344 29.7012 35.0641 30.2826Z" fill="#F05023"/>
</svg>
