<svg width="58" height="72" viewBox="0 0 58 72" fill="none" xmlns="http://www.w3.org/2000/svg">
<path d="M58 39.1624V32.8376L55.0955 31.8788C54.7777 30.7566 54.3297 29.677 53.7604 28.6557L55.1374 25.9187L50.6701 21.4464L47.9361 22.8249C46.916 22.255 45.8376 21.8065 44.7166 21.4884L43.7588 18.5806H41.76V5.80645C41.76 2.60496 39.1579 0 35.96 0H5.8C2.60207 0 0 2.60496 0 5.80645V66.1936C0 69.395 2.60207 72 5.8 72H35.96C39.1579 72 41.76 69.395 41.76 66.1936V53.4194H43.7588L44.7166 50.5116C45.8376 50.1946 46.9149 49.7461 47.9361 49.1751L50.6701 50.5536L55.1374 46.0825L53.7604 43.3454C54.3297 42.3242 54.7777 41.2445 55.0955 40.1235L58 39.1624ZM5.8 2.32258H35.96C37.8784 2.32258 39.44 3.8859 39.44 5.80645V6.96774H2.32V5.80645C2.32 3.8859 3.88158 2.32258 5.8 2.32258ZM35.96 69.6774H5.8C3.88158 69.6774 2.32 68.1141 2.32 66.1936V62.7097H39.44V66.1936C39.44 68.1141 37.8784 69.6774 35.96 69.6774ZM39.44 60.3871H2.32V9.29032H39.44V18.5806H37.4412L37.12 19.5548V11.6129H4.64V58.0645H37.12V52.4452L37.4412 53.4194H39.44V60.3871ZM27.4396 28.6557C26.8703 29.677 26.4223 30.7566 26.1045 31.8788L23.2 32.8376V34.8387H9.28V53.4194H32.48V49.5697L33.2639 49.1751C33.7629 49.4535 34.2755 49.7019 34.8 49.9213V55.7419H6.96V13.9355H34.8V22.0798C34.2755 22.2993 33.7629 22.5465 33.2639 22.8249L30.5299 21.4464L26.0626 25.9187L27.4396 28.6557ZM30.16 50.1816V51.0968H11.6V37.1613H23.2V39.1624L26.1045 40.1224C26.4223 41.2445 26.8703 42.3242 27.4396 43.3443L26.0626 46.0813L30.16 50.1816ZM53.1521 38.318L53.0026 38.9497C52.6905 40.2715 52.1688 41.5303 51.4529 42.6916L51.1131 43.2439L52.3116 45.6271L50.2164 47.7257L47.8358 46.5259L47.2842 46.8672C46.1242 47.584 44.8667 48.1062 43.5464 48.4198L42.9155 48.5689L42.0812 51.0968H39.1188L38.2845 48.5661L37.6536 48.4175C36.335 48.104 35.077 47.5817 33.9158 46.865L33.3642 46.5236L30.9836 47.7235L28.8884 45.6249L30.0869 43.2416L29.7471 42.6888C29.03 41.5275 28.5095 40.2686 28.1974 38.9475L28.0479 38.3158L25.52 37.4828V34.5172L28.0479 33.682L28.1974 33.0503C28.5106 31.7285 29.0312 30.4697 29.7471 29.3084L30.0869 28.7561L28.8884 26.3729L30.9836 24.2754L33.3642 25.4752L33.9158 25.135C35.0758 24.4171 36.3333 23.896 37.6536 23.5836L38.2845 23.4339L39.1188 20.9032H42.0812L42.9155 23.4339L43.5464 23.5836C44.8667 23.8972 46.1242 24.4183 47.2842 25.135L47.8358 25.4752L50.2164 24.2754L52.3116 26.3729L51.1131 28.7561L51.4529 29.3084C52.17 30.4697 52.6905 31.7285 53.0026 33.0503L53.1521 33.682L55.68 34.5172V37.4828L53.1521 38.318Z" fill="#F05023"/>
<path d="M40.6 25.5483C34.8442 25.5483 30.16 30.2377 30.16 36C30.16 41.7633 34.8442 46.4516 40.6 46.4516C46.3558 46.4516 51.04 41.7633 51.04 36C51.04 30.2377 46.3558 25.5483 40.6 25.5483ZM40.6 44.129C36.1226 44.129 32.48 40.4812 32.48 36C32.48 31.5175 36.1226 27.8709 40.6 27.8709C45.0774 27.8709 48.72 31.5175 48.72 36C48.72 40.4812 45.0774 44.129 40.6 44.129Z" fill="#F05023"/>
<path d="M17.4 65.0322H24.36V67.3548H17.4V65.0322Z" fill="#F05023"/>
<path d="M9.28 16.2578H32.48V18.5804H9.28V16.2578Z" fill="#F05023"/>
<path d="M9.28 20.9033H24.36V23.2259H9.28V20.9033Z" fill="#F05023"/>
<path d="M9.28 25.5483H24.36V27.8709H9.28V25.5483Z" fill="#F05023"/>
</svg>
