<svg width="72" height="72" viewBox="0 0 72 72" fill="none" xmlns="http://www.w3.org/2000/svg">
<path d="M68.7524 11.8125H54C53.4172 11.8125 52.9453 12.2844 52.9453 12.8672C52.9453 13.45 53.4172 13.9219 54 13.9219H68.7524C69.3803 13.9219 69.8906 14.4322 69.8906 15.0601V55.6743C69.8906 56.3022 69.3803 56.8125 68.7524 56.8125H3.24756C2.61969 56.8125 2.10938 56.3022 2.10938 55.6743V15.0601C2.10938 14.4322 2.61969 13.9219 3.24756 13.9219H26.4199V16.0312H5.27344C4.69061 16.0312 4.21875 16.5031 4.21875 17.0859V44.9533C4.21875 45.5356 4.69061 46.008 5.27344 46.008C5.85626 46.008 6.32812 45.5356 6.32812 44.9533V18.1406H26.4199V23.7986L21.9045 25.9557C21.5442 26.1282 21.3047 26.5007 21.3047 26.9077V44.1079C21.3047 44.5144 21.5381 44.8846 21.9045 45.0599L35.5452 51.577C35.8407 51.7159 36.1741 51.7088 36.4548 51.577L44.1233 47.913C44.649 47.662 44.8715 47.0319 44.6204 46.5068C44.3694 45.9811 43.7388 45.7586 43.2136 46.0096L37.0547 48.9523V34.0895L48.5859 28.5804V43.4432L47.0193 44.1914C46.4936 44.4424 46.2711 45.0725 46.5222 45.5977C46.7732 46.1234 47.4033 46.3458 47.9284 46.0948L50.0955 45.0599C50.4619 44.8846 50.6953 44.5144 50.6953 44.1079V26.9077C50.6953 26.5056 50.4613 26.131 50.0955 25.9557L45.5801 23.7986V18.1406H65.6719V52.5938H6.32812V49.4533C6.32812 48.8705 5.85626 48.3986 5.27344 48.3986C4.69061 48.3986 4.21875 48.8705 4.21875 49.4533V53.6484C4.21875 54.2313 4.69061 54.7031 5.27344 54.7031H66.7266C67.3094 54.7031 67.7812 54.2313 67.7812 53.6484V17.0859C67.7812 16.5031 67.3094 16.0312 66.7266 16.0312H45.5801V13.9219H49.5C50.0828 13.9219 50.5547 13.45 50.5547 12.8672C50.5547 12.2844 50.0828 11.8125 49.5 11.8125H45.5801V9.70312H55.0371C55.6199 9.70312 56.0918 9.23126 56.0918 8.64844V6.14685C57.3195 5.71124 58.2012 4.539 58.2012 3.16406C58.2012 1.41943 56.7817 0 55.0371 0C53.2925 0 51.873 1.41943 51.873 3.16406C51.873 4.539 52.7547 5.71124 53.9824 6.14685V7.59375H44.5254C43.9426 7.59375 43.4707 8.06561 43.4707 8.64844V11.8125H37.0547V6.14685C38.2824 5.71124 39.1641 4.539 39.1641 3.16406C39.1641 1.41943 37.7446 0 36 0C34.2554 0 32.8359 1.41943 32.8359 3.16406C32.8359 4.539 33.7176 5.71124 34.9453 6.14685V11.8125H28.5293V8.64844C28.5293 8.06561 28.0574 7.59375 27.4746 7.59375H18.0176V6.14685C19.2453 5.71124 20.127 4.539 20.127 3.16406C20.127 1.41943 18.7075 0 16.9629 0C15.2183 0 13.7988 1.41943 13.7988 3.16406C13.7988 4.539 14.6805 5.71124 15.9082 6.14685V8.64844C15.9082 9.23126 16.3801 9.70312 16.9629 9.70312H26.4199V11.8125H3.24756C1.45679 11.8125 0 13.2693 0 15.0601V55.6743C0 57.4651 1.45679 58.9219 3.24756 58.9219H26.1134C25.7053 62.7907 23.1471 65.05 22.3407 65.6719H17.8594C16.1147 65.6719 14.6953 67.0913 14.6953 68.8359C14.6953 70.5806 16.1147 72 17.8594 72H54.1406C55.8853 72 57.3047 70.5806 57.3047 68.8359C57.3047 67.0913 55.8853 65.6719 54.1406 65.6719H49.662C48.8661 65.0522 46.2991 62.7726 45.8877 58.9219H68.7524C70.5432 58.9219 72 57.4651 72 55.6743V15.0601C72 13.2693 70.5432 11.8125 68.7524 11.8125ZM55.0371 2.10938C55.6188 2.10938 56.0918 2.58234 56.0918 3.16406C56.0918 3.74579 55.6188 4.21875 55.0371 4.21875C54.4554 4.21875 53.9824 3.74579 53.9824 3.16406C53.9824 2.58234 54.4554 2.10938 55.0371 2.10938ZM36 2.10938C36.5817 2.10938 37.0547 2.58234 37.0547 3.16406C37.0547 3.74579 36.5817 4.21875 36 4.21875C35.4183 4.21875 34.9453 3.74579 34.9453 3.16406C34.9453 2.58234 35.4183 2.10938 36 2.10938ZM16.9629 2.10938C17.5446 2.10938 18.0176 2.58234 18.0176 3.16406C18.0176 3.74579 17.5446 4.21875 16.9629 4.21875C16.3812 4.21875 15.9082 3.74579 15.9082 3.16406C15.9082 2.58234 16.3812 2.10938 16.9629 2.10938ZM28.5293 18.1406H34.9453V19.7254L28.5293 22.7911V18.1406ZM47.194 26.9077L36 32.2553L24.806 26.9077L36 21.5596L47.194 26.9077ZM23.4141 28.5804L34.9453 34.0895V48.9523L23.4141 43.4432V28.5804ZM43.4707 22.7911L37.0547 19.7254V18.1406H43.4707V22.7911ZM43.4707 13.9219V16.0312H37.0547V13.9219H43.4707ZM34.9453 13.9219V16.0312H28.5293V13.9219H34.9453ZM55.1953 68.8359C55.1953 69.4177 54.7224 69.8906 54.1406 69.8906H17.8594C17.2776 69.8906 16.8047 69.4177 16.8047 68.8359C16.8047 68.2542 17.2776 67.7812 17.8594 67.7812H54.1406C54.7224 67.7812 55.1953 68.2542 55.1953 68.8359ZM46.637 65.6719H25.363C26.5995 64.2277 27.9712 61.9772 28.2343 58.9219H43.7657C44.0288 61.9772 45.4005 64.2277 46.637 65.6719Z" fill="#F05023"/>
</svg>
