<svg width="72" height="72" viewBox="0 0 72 72" fill="none" xmlns="http://www.w3.org/2000/svg">
<path d="M18.0695 47.366C17.4369 46.8314 16.4906 46.9108 15.9555 47.5435C15.7491 47.7879 15.5448 48.0385 15.3485 48.2887C14.8369 48.9403 14.9503 49.8832 15.602 50.3947C15.8766 50.6105 16.2032 50.7149 16.5272 50.7149C16.972 50.7149 17.412 50.5178 17.708 50.1411C17.8821 49.9192 18.0635 49.6969 18.2467 49.48C18.7815 48.8472 18.7022 47.9008 18.0695 47.366Z" fill="#F05023"/>
<path d="M45.7447 17.9701C46.0292 18.2188 46.3809 18.3407 46.7313 18.3407C47.1491 18.3407 47.565 18.1672 47.8613 17.8279C48.0678 17.5916 48.2565 17.3551 48.4223 17.1246C48.9064 16.4524 48.7541 15.515 48.0819 15.0307C47.4094 14.5466 46.472 14.6991 45.988 15.3712C45.8769 15.5256 45.747 15.6877 45.6024 15.8534C45.0572 16.4775 45.121 17.425 45.7447 17.9701Z" fill="#F05023"/>
<path d="M70.4995 62.9991H68.2138C67.959 57.4802 66.3013 52.1333 63.3794 47.4505C60.5362 42.8937 56.6054 39.1245 51.9581 36.4736C52.151 35.9671 52.3318 35.4035 52.5052 34.7705H55.5976C58.411 34.7705 60.6998 32.4816 60.6998 29.6681V24.9413C60.6998 22.128 58.411 19.839 55.5976 19.839H55.0653C55.1955 17.8016 55.1238 15.839 54.6526 14.262C53.3518 9.90685 50.8835 6.27283 47.5142 3.7527C44.2322 1.29782 40.2504 0.000140624 35.9997 0C31.7492 0 27.7674 1.29768 24.485 3.75299C21.116 6.27312 18.6474 9.90685 17.3463 14.2621C16.8752 15.8391 16.8036 17.8018 16.9339 19.8393H16.402C13.5885 19.8393 11.2997 22.1281 11.2997 24.9416V29.6684C11.2997 32.4819 13.5885 34.7708 16.402 34.7708H19.4941C19.6675 35.4039 19.8484 35.9674 20.0411 36.4739C15.394 39.1247 11.4631 42.8938 8.61986 47.4509C5.69796 52.134 4.04056 57.4805 3.78547 62.9993H1.50004C0.671622 62.9993 0 63.6711 0 64.4994C0 65.3277 0.671622 65.9994 1.50004 65.9994H5.25007H15.0838L16.5632 70.9307C16.7536 71.565 17.3374 71.9996 17.9999 71.9996H47.5207C47.523 71.9996 47.5252 72 47.5274 72C47.5309 72 47.5344 71.9996 47.538 71.9996H53.9995C54.6618 71.9996 55.246 71.565 55.4363 70.9307L56.9156 65.9994H66.7495H70.4995C71.328 65.9994 71.9996 65.3277 71.9996 64.4994C71.9996 63.6708 71.3281 62.9991 70.4995 62.9991ZM53.545 29.7173C53.6238 29.2386 53.7426 28.6196 53.88 27.9027C54.1636 26.4245 54.5014 24.6626 54.7534 22.8392H55.5977V22.8391C56.7569 22.8391 57.6999 23.7821 57.6999 24.9413V29.6681C57.6999 30.8274 56.7569 31.7706 55.5977 31.7706H53.1825C53.3034 31.1369 53.4235 30.4552 53.545 29.7173ZM16.402 31.7704V31.7706C15.2428 31.7706 14.2998 30.8276 14.2998 29.6681V24.9413C14.2998 23.7821 15.2428 22.8391 16.402 22.8391H17.246C17.498 24.6615 17.8357 26.4229 18.119 27.9005C18.2566 28.6181 18.3755 29.2378 18.4543 29.717C18.5758 30.455 18.696 31.1368 18.8168 31.7704H16.402ZM19.9289 19.654C19.8154 17.9313 19.8628 16.3195 20.221 15.1208C22.4545 7.64449 28.5004 2.99994 35.9996 2.99994C43.4994 3.00022 49.5454 7.64477 51.7781 15.1209C52.2272 16.6239 52.1885 18.7753 51.9558 20.9814C51.9275 21.0963 51.9111 21.2157 51.9111 21.3392C51.9111 21.35 51.9126 21.3607 51.9128 21.3713C51.6647 23.5242 51.2486 25.6956 50.9338 27.3374C50.7923 28.075 50.6701 28.712 50.5849 29.2298C50.3758 30.4999 50.1796 31.5719 49.9823 32.4883C47.7698 34.4991 44.0043 35.8755 40.1813 36.2017C40.0729 35.4797 39.4519 34.9256 38.6997 34.9256H35.9996C35.1713 34.9256 34.4995 35.5974 34.4995 36.4257V37.6256C34.4995 37.6418 34.5015 37.6575 34.5021 37.6734C34.5029 37.7034 34.5039 37.7335 34.5064 37.7631C34.5084 37.784 34.5115 37.8042 34.5144 37.8249C34.5182 37.8534 34.522 37.8818 34.5274 37.9098C34.5317 37.9322 34.5372 37.9543 34.5427 37.9763C34.5489 38.0014 34.5547 38.0264 34.5621 38.0511C34.5691 38.0752 34.5774 38.0984 34.5859 38.1219C34.5935 38.1438 34.6011 38.166 34.6099 38.1876C34.6195 38.2119 34.6307 38.2354 34.6418 38.2593C34.6513 38.2792 34.6603 38.2994 34.6704 38.3186C34.6825 38.3418 34.696 38.3646 34.7093 38.3871C34.7206 38.4059 34.7316 38.4251 34.7435 38.4435C34.7576 38.4647 34.7725 38.4854 34.7875 38.5059C34.801 38.5245 34.8145 38.543 34.8287 38.5612C34.8438 38.5799 34.8595 38.5978 34.8754 38.6156C34.8916 38.634 34.9079 38.6525 34.9251 38.6702C34.9405 38.6862 34.9568 38.7014 34.973 38.7167C34.992 38.7347 35.0111 38.7526 35.0311 38.7695C35.0473 38.7832 35.0644 38.7962 35.081 38.8094C35.1025 38.8258 35.1236 38.8424 35.1458 38.8578C35.1634 38.8699 35.1816 38.8811 35.1997 38.8925C35.2222 38.9068 35.2448 38.9212 35.2682 38.934C35.288 38.9451 35.3084 38.9552 35.3288 38.9653C35.3513 38.9767 35.3739 38.9881 35.3973 38.9985C35.4203 39.0085 35.4443 39.0175 35.4683 39.0268C35.4898 39.035 35.511 39.0433 35.5333 39.0506C35.5601 39.0594 35.5874 39.0665 35.6148 39.0738C35.6354 39.0791 35.6555 39.0849 35.6763 39.0895C35.705 39.0958 35.7344 39.1003 35.7636 39.1051C35.7798 39.1077 35.7952 39.1116 35.8114 39.1137C35.8208 39.1148 35.8304 39.1157 35.84 39.1167C35.8438 39.1171 35.8473 39.1175 35.8511 39.1181C36.7055 39.2244 37.577 39.2764 38.4546 39.2764C41.8391 39.2764 45.3072 38.5104 48.167 37.1796C47.4523 38.0714 46.5233 38.6629 45.1866 39.5131C44.6283 39.8682 43.9969 40.2696 43.2942 40.7452C40.8715 42.1353 38.4173 42.8398 35.999 42.8398C33.5811 42.8398 31.1274 42.1354 28.7054 40.7461C28.0027 40.2706 27.3714 39.869 26.8131 39.5138C24.15 37.8197 23.1036 37.154 22.1519 33.0896C22.1392 32.9851 22.1159 32.884 22.0827 32.7869C21.8632 31.8073 21.6467 30.6402 21.4146 29.2298C21.3294 28.7116 21.207 28.0737 21.0654 27.3353C20.8128 26.0174 20.4946 24.3577 20.2506 22.6405C23.0046 22.2561 28.9093 21.259 32.8876 19.3505L33.8726 21.714C33.9733 21.9557 34.0567 22.1683 34.1294 22.3537C34.4609 23.1974 34.7739 23.9943 35.7117 24.3105C35.9364 24.3862 36.1524 24.4199 36.3734 24.4197C36.8979 24.4197 37.4512 24.2307 38.2182 23.9689C38.429 23.8967 38.6667 23.8156 38.935 23.7271C39.9752 23.3842 42.0629 22.3489 44.0403 21.0343C44.7302 20.5756 44.9176 19.6445 44.4588 18.9548C44 18.2647 43.0689 18.0777 42.3793 18.5363C40.5344 19.7628 38.7052 20.6442 37.9948 20.8784C37.715 20.9708 37.4678 21.0553 37.2485 21.1301C37.1391 21.1675 37.0254 21.2063 36.916 21.243C36.838 21.0446 36.749 20.8179 36.6417 20.5606L35.0124 16.6512C34.841 16.2399 34.4955 15.926 34.0696 15.7947C33.6434 15.6635 33.1815 15.7284 32.8084 15.9718C29.5638 18.088 22.9088 19.2307 19.9289 19.654ZM54.3682 64.0511C54.3678 64.0529 54.3674 64.0546 54.3667 64.0563L52.8837 68.9992H49.4811L50.1056 66.6682C50.3201 65.8679 49.8452 65.0456 49.045 64.8311C48.2443 64.6165 47.4222 65.0917 47.2079 65.8917L46.3754 68.9991H19.1161L17.6361 64.0663C17.6339 64.0588 17.6319 64.0513 17.6295 64.044L15.5158 56.9992H18.8222L19.6547 60.1064C19.8342 60.7766 20.4402 61.2186 21.1027 61.2186C21.2311 61.2186 21.3618 61.202 21.4918 61.167C22.2921 60.9527 22.767 60.1302 22.5524 59.3299L21.9279 56.999H56.4838L54.3682 64.0511ZM57.8161 62.9991L59.9368 55.9304C60.0731 55.4762 59.9866 54.9842 59.7035 54.6038C59.4203 54.2234 58.9742 53.9992 58.5 53.9992H13.4999C13.0258 53.9992 12.5796 54.2234 12.2965 54.6038C12.0134 54.9842 11.9271 55.4761 12.0632 55.9304L14.1839 62.9991H6.7878C7.2911 53.0146 12.8022 44.0578 21.4989 39.0947C22.1485 39.8919 22.9284 40.5266 23.9063 41.1964C22.4444 41.9564 21.0497 42.855 19.76 43.8706C19.1092 44.3833 18.9971 45.3264 19.5097 45.9772C19.8058 46.3529 20.2451 46.5491 20.6891 46.5491C21.0138 46.5491 21.3412 46.444 21.6162 46.2275C22.7944 45.2996 24.0708 44.4809 25.4113 43.7938L26.8003 43.0813C26.8894 43.1408 26.9764 43.1983 27.0674 43.2599L27.1594 43.3177C30.0583 44.9911 33.0321 45.8398 35.9989 45.8398C35.999 45.8398 35.999 45.8398 35.9992 45.8398C38.9659 45.8398 41.9404 44.991 44.8398 43.317L44.9316 43.2593C45.6163 42.795 46.2432 42.3962 46.7964 42.0445C48.4143 41.0157 49.5866 40.2161 50.5001 39.0946C59.1971 44.0578 64.7083 53.0146 65.2116 62.9989H57.8161V62.9991Z" fill="#F05023"/>
<path d="M21.9376 62.8322C21.1373 63.0468 20.6627 63.8695 20.8772 64.6696L21.0525 65.3228C21.2322 65.9929 21.8381 66.4347 22.5005 66.4347C22.629 66.4347 22.7598 66.4181 22.8899 66.3831C23.6902 66.1685 24.1648 65.3459 23.9502 64.5457L23.775 63.8925C23.5604 63.0926 22.7387 62.6179 21.9376 62.8322Z" fill="#F05023"/>
<path d="M49.4904 63.1657C49.6205 63.2007 49.7512 63.2175 49.8799 63.2175C50.542 63.2175 51.1481 62.7758 51.3278 62.1057L51.503 61.4526C51.7179 60.6526 51.2433 59.83 50.443 59.6152C49.6431 59.4001 48.8204 59.8753 48.6056 60.6753L48.4304 61.3283C48.2155 62.1285 48.6901 62.9511 49.4904 63.1657Z" fill="#F05023"/>
</svg>
