<svg width="86" height="44" viewBox="0 0 86 44" fill="none" xmlns="http://www.w3.org/2000/svg">
<path d="M11.231 15.4124H16.1185V21.9812H14.8186V16.5745H12.5828V21.9812H11.283V15.4124H11.231Z" fill="white"/>
<path d="M20.8499 15.26C21.7858 15.26 22.6177 15.6137 23.2936 16.2706C23.9696 16.9275 24.3335 17.7865 24.3335 18.7465C24.3335 19.7066 23.9696 20.5151 23.2936 21.172C22.6177 21.8288 21.7858 22.1825 20.7979 22.1825C19.758 22.1825 18.9261 21.8288 18.2501 21.172C17.5742 20.5151 17.2622 19.6561 17.2622 18.7465C17.2622 18.1402 17.4182 17.5338 17.7302 17.0285C18.0421 16.5232 18.4581 16.0685 19.03 15.7653C19.602 15.4621 20.2259 15.26 20.8499 15.26ZM20.8499 16.4727C20.2259 16.4727 19.706 16.6748 19.29 17.1296C18.8741 17.5338 18.6661 18.0897 18.6661 18.7465C18.6661 19.4539 18.9261 20.0603 19.446 20.4645C19.862 20.8182 20.3299 20.9698 20.9019 20.9698C21.5258 20.9698 22.0458 20.7677 22.4617 20.313C22.8777 19.9087 23.0857 19.3529 23.0857 18.7465C23.0857 18.1402 22.8777 17.5844 22.4617 17.1801C21.9938 16.6748 21.4738 16.4727 20.8499 16.4727Z" fill="white"/>
<path d="M29.9493 21.9812L28.0775 17.1304L26.1536 21.9812H24.8018L27.4015 15.4124H28.7014L31.3012 21.9812H29.9493Z" fill="white"/>
<path d="M37.0206 15.4124V21.9812H35.7207V17.8883L33.1729 21.9812H32.0291V15.4124H33.3289V19.6568L35.8767 15.4124H37.0206Z" fill="white"/>
<path d="M37.9044 15.4124H41.6481V16.6251H40.4002V21.9812H39.1003V16.6251H37.9044V15.4124Z" fill="white"/>
<path d="M42.532 15.4124H46.2236V16.6251H43.8319V17.8378H46.2236V19.0505H43.8319V20.7685H46.2236V21.9812H42.532V15.4124Z" fill="white"/>
<path d="M47.0035 15.4124H48.4594L49.8633 17.5346L51.2671 15.4124H52.723L50.5912 18.5957L52.879 21.9812H51.4231L49.8633 19.6568L48.3034 21.9812H46.8475L49.1353 18.5957L47.0035 15.4124Z" fill="white"/>
<path d="M53.8149 15.4124H55.1148V17.8883H57.3506V15.4124H58.6505V21.9812H57.3506V19.101H55.1148V21.9812H53.8149V15.4124Z" fill="white"/>
<path d="M65.1499 15.4124V21.9812H63.85V17.8883L61.3022 21.9812H60.1583V15.4124H61.4582V19.6568L64.006 15.4124H65.1499Z" fill="white"/>
<path d="M66.7097 15.4124H68.0096V17.6862L69.8294 15.4124H71.3893L69.0495 18.3431L71.6493 21.9812H70.1414L68.0616 19.0505V21.9812H66.7617V15.4124H66.7097Z" fill="white"/>
<path d="M74.6131 15.4124H75.9129L78.5127 21.9812H77.1608L76.6409 20.6169H73.8851L73.3132 21.9812H71.9613L74.6131 15.4124ZM75.289 17.1304L74.4051 19.4042H76.2249L75.289 17.1304Z" fill="white"/>
<path d="M24.6978 23.9526H24.9057V24.7611H25.9453V23.9526H26.1532V25.9233H25.9453V24.9632H24.9057V25.9233H24.6978V23.9526Z" fill="white"/>
<path d="M27.4007 23.9526L28.3364 25.9233H28.1284L27.8166 25.2664H26.9329L26.621 25.9233H26.4131L27.4007 23.9526ZM27.4007 24.3569L27.0368 25.1148H27.7126L27.4007 24.3569Z" fill="white"/>
<path d="M28.5454 23.9517H28.7533L29.3771 25.2654L29.9489 23.9011H30.1568L29.3771 25.6697C29.3251 25.8212 29.1692 25.9223 29.0132 25.9223C28.9613 25.9223 28.8573 25.9223 28.8053 25.8718C28.7533 25.8212 28.6494 25.7707 28.5454 25.6697L28.7014 25.5686C28.8053 25.6697 28.8573 25.7202 28.9093 25.7202C28.9613 25.7202 28.9613 25.7202 29.0132 25.7202C29.0652 25.7202 29.1172 25.7202 29.1692 25.6697C29.2212 25.6191 29.2731 25.5686 29.2731 25.4675L28.5454 23.9517Z" fill="white"/>
<path d="M31.3009 24.8116V23.9526H31.5088V25.9233H31.3009V25.0138H31.1969C30.989 25.0138 30.833 25.0138 30.7811 25.0138C30.6771 25.0138 30.6251 24.9632 30.5212 24.9127C30.4172 24.8622 30.4172 24.8116 30.3652 24.7106C30.3132 24.6095 30.3132 24.5085 30.3132 24.4074V24.0032H30.5212V24.4074C30.5212 24.559 30.5731 24.7106 30.6251 24.7611C30.6771 24.8116 30.7811 24.8622 30.989 24.8622H31.1449H31.1969H31.3009V24.8116Z" fill="white"/>
<path d="M32.0291 23.9526H32.237V24.7611H33.2766V23.9526H33.4845V25.9233H33.2766V24.9632H32.237V25.9233H32.0291V23.9526Z" fill="white"/>
<path d="M34.8888 23.9011C35.2008 23.9011 35.4607 24.0022 35.6687 24.2043C35.8767 24.4064 35.9807 24.6591 35.9807 24.9117C35.9807 25.2149 35.8767 25.4675 35.6687 25.6191C35.4607 25.8212 35.2007 25.9223 34.9408 25.9223C34.6288 25.9223 34.3688 25.8212 34.1608 25.6191C33.9529 25.417 33.8489 25.1644 33.8489 24.9117C33.8489 24.7096 33.9009 24.558 34.0049 24.4064C34.1089 24.2548 34.2128 24.1032 34.3688 24.0527C34.5248 23.9517 34.6808 23.9011 34.8888 23.9011ZM34.8888 24.1032C34.7328 24.1032 34.5768 24.1538 34.4728 24.2043C34.3168 24.2548 34.2128 24.4064 34.1608 24.5075C34.1089 24.6591 34.0569 24.7601 34.0569 24.9117C34.0569 25.1644 34.1608 25.3665 34.3168 25.5181C34.4728 25.6697 34.6808 25.7707 34.9408 25.7707C35.0968 25.7707 35.2527 25.7202 35.3567 25.6697C35.5127 25.6191 35.6167 25.5181 35.6687 25.3665C35.7207 25.2149 35.7727 25.1138 35.7727 24.9622C35.7727 24.8107 35.7207 24.6591 35.6687 24.558C35.6167 24.4569 35.5127 24.3559 35.3567 24.2548C35.2008 24.1538 35.0448 24.1032 34.8888 24.1032Z" fill="white"/>
<path d="M36.2407 25.1135H37.0204V25.2658H36.2407V25.1135Z" fill="white"/>
<path d="M37.3325 23.9526H38.788V25.9233H38.58V24.1548H37.5404V25.9233H37.3325V23.9526Z" fill="white"/>
<path d="M39.2043 23.9526H39.6202C39.8281 23.9526 39.984 23.9526 40.088 24.0032C40.1919 24.0537 40.2959 24.1042 40.3479 24.1548C40.3999 24.2558 40.4518 24.3569 40.4518 24.4579C40.4518 24.6095 40.3999 24.7106 40.3479 24.7611C40.2959 24.8622 40.1919 24.9127 40.036 24.9127C39.932 24.9127 39.7761 24.9632 39.5162 24.9632H39.3603V25.8728H39.1523V23.9526H39.2043ZM39.4122 24.1548V24.8116H39.7761C39.932 24.8116 40.036 24.8116 40.088 24.7611C40.14 24.7106 40.1919 24.7106 40.2439 24.66C40.2959 24.6095 40.2959 24.559 40.2959 24.4579C40.2959 24.4074 40.2959 24.3569 40.2439 24.2558C40.1919 24.2053 40.14 24.1548 40.088 24.1548C40.036 24.1548 39.932 24.1042 39.7761 24.1042H39.4122V24.1548Z" fill="white"/>
<path d="M41.8561 23.9011C42.168 23.9011 42.428 24.0022 42.636 24.2043C42.844 24.4064 42.948 24.6591 42.948 24.9117C42.948 25.2149 42.844 25.4675 42.636 25.6191C42.428 25.8212 42.168 25.9223 41.9081 25.9223C41.5961 25.9223 41.3361 25.8212 41.1281 25.6191C40.9202 25.417 40.8162 25.1644 40.8162 24.9117C40.8162 24.7096 40.8682 24.558 40.9721 24.4064C41.0761 24.2548 41.1801 24.1032 41.3361 24.0527C41.4921 23.9517 41.6481 23.9011 41.8561 23.9011ZM41.8561 24.1032C41.7001 24.1032 41.5441 24.1538 41.4401 24.2043C41.2841 24.2548 41.1801 24.4064 41.1281 24.5075C41.0761 24.6591 41.0241 24.7601 41.0241 24.9117C41.0241 25.1644 41.1281 25.3665 41.2841 25.5181C41.4401 25.6697 41.6481 25.7707 41.9081 25.7707C42.064 25.7707 42.22 25.7202 42.324 25.6697C42.48 25.6191 42.584 25.5181 42.636 25.3665C42.688 25.2149 42.74 25.1138 42.74 24.9622C42.74 24.8107 42.688 24.6591 42.636 24.558C42.584 24.4569 42.48 24.3559 42.324 24.2548C42.168 24.1538 42.0121 24.1032 41.8561 24.1032Z" fill="white"/>
<path d="M44.9234 25.9233H44.7155V24.4074L43.364 25.9233H43.312V23.9526H43.5199V25.4685L44.8714 23.9526H44.9234V25.9233Z" fill="white"/>
<path d="M45.4438 24.1538C45.5997 24.0022 45.7557 23.9011 45.9636 23.9011C46.1195 23.9011 46.2755 23.9517 46.3794 24.0527C46.4834 24.1538 46.5354 24.2548 46.5354 24.4064C46.5354 24.6085 46.4314 24.7601 46.2235 24.8612C46.4834 24.9622 46.6393 25.1138 46.6393 25.3665C46.6393 25.5686 46.5874 25.6697 46.4834 25.8212C46.3794 25.9223 46.2235 25.9728 46.0156 25.9728C45.8596 25.9728 45.7557 25.9223 45.6517 25.8718C45.5478 25.8212 45.4438 25.7202 45.3398 25.5686L45.4958 25.4675C45.5997 25.6191 45.6517 25.6697 45.7557 25.7202C45.8596 25.7707 45.9116 25.7707 46.0156 25.7707C46.1195 25.7707 46.2755 25.7202 46.3275 25.6697C46.3794 25.6191 46.4834 25.4675 46.4834 25.3665C46.4834 25.3159 46.4834 25.2149 46.4314 25.1644C46.3794 25.1138 46.3794 25.0633 46.3275 25.0128C46.2755 24.9622 46.2235 24.9622 46.1715 24.9622C46.1195 24.9622 46.0156 24.9622 45.9116 24.9622H45.8596V24.8107H45.9116C46.2235 24.8107 46.3794 24.7096 46.3794 24.4569C46.3794 24.3559 46.3275 24.2548 46.2755 24.2043C46.2235 24.1538 46.1195 24.1032 46.0156 24.1032C45.8596 24.1032 45.7557 24.1538 45.6517 24.3054L45.4438 24.1538Z" fill="white"/>
<path d="M47.0557 23.9526H47.4715C47.6274 23.9526 47.7314 23.9526 47.8354 24.0032C47.9393 24.0537 47.9913 24.1042 48.0433 24.1548C48.0953 24.2558 48.0953 24.3063 48.0953 24.4074C48.0953 24.5085 48.0953 24.559 48.0433 24.66C47.9913 24.7106 47.9393 24.8116 47.8354 24.8116C47.9393 24.8622 48.0433 24.8622 48.0953 24.9127C48.1472 24.9632 48.1992 25.0138 48.2512 25.0643C48.3032 25.1148 48.3032 25.2159 48.3032 25.2664C48.3032 25.418 48.2512 25.5696 48.1472 25.6706C48.0433 25.7717 47.8873 25.8222 47.6794 25.8222H47.1076V23.9526H47.0557ZM47.2636 24.1548V24.7611H47.3675C47.5235 24.7611 47.6274 24.7611 47.6794 24.7106C47.7314 24.66 47.7834 24.66 47.8354 24.6095C47.8873 24.559 47.8873 24.5085 47.8873 24.4074C47.8873 24.3063 47.8354 24.2558 47.7834 24.2053C47.7314 24.1548 47.6274 24.1042 47.4715 24.1042H47.2636V24.1548ZM47.2636 24.9632V25.7212H47.5235C47.6794 25.7212 47.7834 25.7212 47.8354 25.6706C47.8873 25.6201 47.9393 25.6201 47.9913 25.519C48.0433 25.4685 48.0433 25.418 48.0433 25.3169C48.0433 25.2159 47.9913 25.1653 47.9393 25.0643C47.8873 25.0138 47.7834 24.9632 47.6794 24.9127C47.6274 24.9127 47.4715 24.9127 47.3156 24.9127H47.2636V24.9632Z" fill="white"/>
<path d="M49.6034 23.9011C49.9154 23.9011 50.1753 24.0022 50.3833 24.2043C50.5913 24.4064 50.6953 24.6591 50.6953 24.9117C50.6953 25.2149 50.5913 25.4675 50.3833 25.6191C50.1753 25.8212 49.9154 25.9223 49.6554 25.9223C49.3434 25.9223 49.0834 25.8212 48.8754 25.6191C48.6675 25.417 48.5635 25.1644 48.5635 24.9117C48.5635 24.7096 48.6155 24.558 48.7195 24.4064C48.8235 24.2548 48.9274 24.1032 49.0834 24.0527C49.2394 23.9517 49.4474 23.9011 49.6034 23.9011ZM49.6554 24.1032C49.4994 24.1032 49.3434 24.1538 49.2394 24.2043C49.0834 24.2548 48.9794 24.4064 48.9274 24.5075C48.8754 24.6591 48.8235 24.7601 48.8235 24.9117C48.8235 25.1644 48.9274 25.3665 49.0834 25.5181C49.2394 25.6697 49.4474 25.7707 49.7074 25.7707C49.8634 25.7707 50.0193 25.7202 50.1233 25.6697C50.2793 25.6191 50.3833 25.5181 50.4353 25.3665C50.4873 25.2149 50.5393 25.1138 50.5393 24.9622C50.5393 24.8107 50.4873 24.6591 50.4353 24.558C50.3833 24.4569 50.2793 24.3559 50.1233 24.2548C49.9154 24.1538 49.8114 24.1032 49.6554 24.1032Z" fill="white"/>
<path d="M51.1113 26.2257H50.9033V25.771H51.0593L51.8392 24.0024H51.8912L52.7232 25.771H52.8791V26.2257H52.6712V25.9226H51.0593V26.2257H51.1113ZM51.3193 25.7204H52.5672L51.9432 24.3561L51.3193 25.7204Z" fill="white"/>
<path d="M55.115 24.3049L54.959 24.4059C54.855 24.3049 54.751 24.2038 54.647 24.1533C54.543 24.1027 54.387 24.0522 54.2311 24.0522C54.0751 24.0522 53.9191 24.1027 53.7631 24.1533C53.6071 24.2038 53.5031 24.3049 53.4511 24.4565C53.3991 24.608 53.3471 24.7091 53.3471 24.8607C53.3471 25.1133 53.4511 25.3155 53.6071 25.467C53.7631 25.6186 53.9711 25.7197 54.2311 25.7197C54.491 25.7197 54.751 25.6186 54.959 25.4165L55.115 25.5176C55.011 25.6186 54.907 25.7197 54.751 25.8207C54.595 25.8713 54.439 25.9218 54.2311 25.9218C53.8671 25.9218 53.6071 25.8207 53.3991 25.5681C53.2431 25.366 53.1392 25.1639 53.1392 24.8607C53.1392 24.5575 53.2432 24.3554 53.4511 24.1533C53.6591 23.9512 53.9191 23.8501 54.2311 23.8501C54.439 23.8501 54.595 23.9006 54.751 23.9512C54.855 24.1027 55.011 24.2038 55.115 24.3049Z" fill="white"/>
<path d="M55.3229 24.1548V23.9526H56.4145V24.1548H55.9466V25.9233H55.7387V24.1548H55.3229Z" fill="white"/>
<path d="M56.7268 23.9526H57.1426C57.2986 23.9526 57.4025 23.9526 57.5065 24.0032C57.6105 24.0537 57.6624 24.1042 57.7144 24.1548C57.7664 24.2558 57.7664 24.3063 57.7664 24.4074C57.7664 24.5085 57.7664 24.559 57.7144 24.66C57.6624 24.7106 57.6105 24.8116 57.5065 24.8116C57.6105 24.8622 57.7144 24.8622 57.7664 24.9127C57.8184 24.9632 57.8704 25.0138 57.9224 25.0643C57.9743 25.1148 57.9743 25.2159 57.9743 25.2664C57.9743 25.418 57.9223 25.5696 57.8184 25.6706C57.7144 25.7717 57.5585 25.8222 57.3506 25.8222H56.7788V23.9526H56.7268ZM56.8827 24.1548V24.7611H56.9867C57.1426 24.7611 57.2466 24.7611 57.2986 24.7106C57.3506 24.66 57.4025 24.66 57.4545 24.6095C57.5065 24.559 57.5065 24.5085 57.5065 24.4074C57.5065 24.3063 57.4545 24.2558 57.4025 24.2053C57.3506 24.1548 57.2466 24.1042 57.0907 24.1042H56.8827V24.1548ZM56.8827 24.9632V25.7212H57.1426C57.2986 25.7212 57.4025 25.7212 57.4545 25.6706C57.5065 25.6201 57.5585 25.6201 57.6105 25.519C57.6625 25.4685 57.6625 25.418 57.6625 25.3169C57.6625 25.2159 57.6105 25.1653 57.5585 25.0643C57.5065 25.0138 57.4025 24.9632 57.2986 24.9127C57.2466 24.9127 57.0907 24.9127 56.9347 24.9127H56.8827V24.9632Z" fill="white"/>
<path d="M58.3386 23.9526H59.4822V24.1548H58.5465V24.7611H59.4822V24.9632H58.5465V25.7212H59.4822V25.9233H58.3386V23.9526Z" fill="white"/>
<path d="M59.7944 23.9526H60.0024V24.7611H61.042V23.9526H61.2499V25.9233H61.042V24.9632H60.0024V25.9233H59.7944V23.9526Z" fill="white"/>
<path d="M61.7183 23.9526H61.9262V24.7611H62.9658V23.9526H63.1737V25.9233H62.9658V24.9632H61.9262V25.9233H61.7183V23.9526Z" fill="white"/>
<path d="M64.4737 23.9526L65.4094 25.9233H65.2014L64.8895 25.2664H64.0059L63.694 25.9233H63.4861L64.4737 23.9526ZM64.4737 24.3569L64.1098 25.0643H64.7856L64.4737 24.3569Z" fill="white"/>
<path d="M66.8654 25.9233H66.6575V25.0138H66.5535L65.8258 25.9233H65.5659L66.2936 25.0138C66.1377 25.0138 65.9818 25.0138 65.8778 24.9632C65.7738 24.9127 65.7219 24.8622 65.6699 24.7611C65.6179 24.66 65.6179 24.6095 65.6179 24.4579C65.6179 24.3063 65.6699 24.2053 65.7219 24.1548C65.7738 24.0537 65.8778 24.0032 66.0337 24.0032C66.1377 24.0032 66.2417 23.9526 66.5016 23.9526H66.9174V25.9233H66.8654ZM66.3456 24.1548C66.1897 24.1548 66.0857 24.1548 66.0337 24.2053C65.9818 24.2053 65.9298 24.2558 65.8778 24.3063C65.8258 24.3569 65.8258 24.4074 65.8258 24.5085C65.8258 24.559 65.8258 24.66 65.8778 24.7106C65.9298 24.7611 65.9818 24.8116 66.0337 24.8116C66.0857 24.8116 66.1897 24.8622 66.3456 24.8622H66.7095V24.2053H66.3456V24.1548Z" fill="white"/>
<path d="M69.0496 23.9526H69.2575V24.2053H69.4135C69.7255 24.2053 69.9335 24.2558 70.0375 24.3569C70.1415 24.4579 70.1935 24.6095 70.1935 24.7611C70.1935 24.9127 70.1415 25.0138 70.0375 25.1653C69.9335 25.2664 69.7255 25.3169 69.4655 25.3169H69.2575V25.8728H69.0496V25.3169H68.8416C68.6856 25.3169 68.5816 25.3169 68.4776 25.2664C68.3736 25.2159 68.2696 25.1653 68.2176 25.0643C68.1656 24.9632 68.1136 24.8622 68.1136 24.7106C68.1136 24.559 68.1656 24.4074 68.2696 24.3063C68.3736 24.2053 68.5816 24.1548 68.8936 24.1548H69.0496V23.9526ZM69.0496 24.4074H68.8416C68.6856 24.4074 68.5296 24.4579 68.4256 24.5085C68.3216 24.559 68.2696 24.66 68.2696 24.8116C68.2696 24.9127 68.3216 25.0138 68.3736 25.0643C68.4256 25.1148 68.5816 25.1653 68.6856 25.1653H68.7896H68.9976V24.4074H69.0496ZM69.2575 24.4074V25.1653H69.4655H69.5695C69.7255 25.1653 69.8295 25.1148 69.8815 25.0643C69.9335 25.0138 69.9855 24.9127 69.9855 24.8116C69.9855 24.7106 69.9335 24.6095 69.8295 24.5085C69.7255 24.4074 69.6215 24.4074 69.4135 24.4074H69.2575Z" fill="white"/>
<path d="M72.2208 25.9233H72.0128V24.4074L70.6614 25.9233H70.6094V23.9526H70.8173V25.4685L72.1688 23.9526H72.2208V25.9233Z" fill="white"/>
<path d="M72.6893 23.9526H73.1052C73.3131 23.9526 73.469 23.9526 73.573 24.0032C73.6769 24.0537 73.7809 24.1042 73.8329 24.1548C73.8849 24.2558 73.9368 24.3569 73.9368 24.4579C73.9368 24.6095 73.8849 24.7106 73.8329 24.7611C73.7809 24.8622 73.6769 24.9127 73.521 24.9127C73.417 24.9127 73.2611 24.9632 73.0012 24.9632H72.8453V25.8728H72.6373V23.9526H72.6893ZM72.8972 24.1548V24.8116H73.2611C73.417 24.8116 73.521 24.8116 73.573 24.7611C73.625 24.7106 73.6769 24.7106 73.7289 24.66C73.7809 24.6095 73.7809 24.559 73.7809 24.4579C73.7809 24.4074 73.7809 24.3569 73.7289 24.2558C73.6769 24.2053 73.625 24.1548 73.573 24.1548C73.521 24.1548 73.417 24.1042 73.2611 24.1042H72.8972V24.1548Z" fill="white"/>
<path d="M74.2491 25.9233L74.5611 23.9526H74.6131L75.445 25.5696L76.277 23.9526H76.329L76.6409 25.9233H76.4329L76.225 24.5085L75.497 25.9233H75.393L74.6651 24.5085L74.4571 25.9233H74.2491Z" fill="white"/>
<path d="M77.7845 23.9526L78.7201 25.9233H78.5122L78.2003 25.2664H77.3167L77.0048 25.9233H76.7969L77.7845 23.9526ZM77.7325 24.3569L77.3687 25.0643H78.0444L77.7325 24.3569Z" fill="white"/>
<path d="M23.1378 25.9216V26.8312L6.08343 29.964C6.08343 29.964 2.54776 30.5703 2.70375 31.3788C2.80774 31.783 2.54776 32.4905 1.87183 32.2883C1.14389 32.0357 0 30.8735 0 30.065C0 28.4481 7.12334 27.9428 7.12334 27.9428L23.1378 25.9216Z" fill="white"/>
<path d="M7.2793 31.8335L28.4933 40.2719C28.4933 40.2719 30.1572 41.0298 33.5369 40.2719C36.9165 39.514 57.9746 33.3494 57.9746 33.3494L33.3809 38.7055C33.3809 38.7055 31.717 39.3118 29.1173 38.5539C26.5175 37.796 7.2793 31.8335 7.2793 31.8335Z" fill="white"/>
<path d="M3.79563 32.5916L30.9371 43.2027L72.1173 31.4799L58.9625 27.8418H61.4063L73.5211 31.2273C73.5211 31.2273 74.5611 33.1474 72.6372 33.6527C70.7134 34.158 32.6529 43.708 32.6529 43.708C32.6529 43.708 31.717 44.3649 30.0532 43.708C28.3893 43.0511 3.58765 33.0463 3.58765 33.0463L3.79563 32.5916Z" fill="white"/>
<path d="M81.7885 36.1285C81.6325 36.3812 81.2166 36.1285 81.3725 35.8759C82.7764 33.0968 83.5043 30.065 83.5043 26.8816C83.5043 13.744 70.6095 3.08229 54.647 3.08229C46.6398 3.08229 39.3604 5.81088 34.1089 10.1564C33.9009 10.3585 33.537 10.0553 33.745 9.8027C39.0485 3.84023 47.5237 0 57.1428 0C73.0533 0 86.0001 10.6617 86.0001 23.7993C85.9481 28.2965 84.4403 32.4904 81.7885 36.1285Z" fill="white"/>
</svg>
