<svg width="41" height="40" viewBox="0 0 41 40" fill="none" xmlns="http://www.w3.org/2000/svg">
<g clip-path="url(#clip0)">
<path d="M39.3562 24.5161C39.7122 24.5161 40.0014 24.2269 40.0014 23.871V14.8387C40.0014 13.0601 38.5542 11.6129 36.7756 11.6129H21.2917C20.9358 11.6129 20.6466 11.9021 20.6466 12.2581V14.8387C20.6466 15.1947 20.9358 15.4839 21.2917 15.4839H30.324V20.6452H26.453C25.386 20.6452 24.5175 21.5137 24.5175 22.5806V32.2581H15.4853V30.3226C15.4853 29.9666 15.1961 29.6774 14.8401 29.6774H7.74334V14.1935H18.7111C19.0671 14.1935 19.3562 13.9044 19.3562 13.5484V9.67742H25.1627C25.4131 9.67742 25.6409 9.5322 25.7471 9.3057C25.8535 9.07857 25.8189 8.81111 25.6582 8.61927L22.7767 5.16129L25.6582 1.70331C25.8189 1.51084 25.8529 1.24307 25.7471 1.01689C25.6409 0.790386 25.4131 0.645161 25.1627 0.645161H13.5498C13.1938 0.645161 12.9046 0.93435 12.9046 1.29032V5.16129H7.74334V4.26978C8.14026 3.81552 8.3885 3.22896 8.3885 2.58065C8.3885 1.15738 7.23112 0 5.80786 0C4.38459 0 3.22721 1.15738 3.22721 2.58065C3.22721 3.22896 3.47545 3.81552 3.87237 4.26978V29.6774H0.646565C0.290592 29.6774 0.00140381 29.9666 0.00140381 30.3226V39.3548C0.00140381 39.7108 0.290592 40 0.646565 40H39.3562C39.7122 40 40.0014 39.7108 40.0014 39.3548V35.4839C40.0014 35.1279 39.7122 34.8387 39.3562 34.8387H37.4208V24.5161H39.3562ZM21.4414 4.7483C21.242 4.98771 21.242 5.3355 21.4414 5.57428L23.7854 8.3871H19.3562V5.80645C19.3562 5.61303 19.2665 5.44449 19.1316 5.32636L19.1364 5.32132L15.2667 1.93548H23.7845L21.4414 4.7483ZM14.195 2.71232L16.9942 5.16129H14.195V2.71232ZM18.0659 6.45161V12.9032H7.74334V11.6129H11.6143V10.3226H7.74334V9.03226H11.6143V7.74194H7.74334V6.45161H18.0659ZM5.80786 1.29032C6.51949 1.29032 7.09818 1.86901 7.09818 2.58065C7.09818 3.29228 6.51949 3.87097 5.80786 3.87097C5.09622 3.87097 4.51753 3.29228 4.51753 2.58065C4.51753 1.86901 5.09622 1.29032 5.80786 1.29032ZM5.16269 5.06962C5.37029 5.1238 5.58388 5.16129 5.80786 5.16129C6.03183 5.16129 6.24542 5.1238 6.45302 5.06962V29.6774H5.16269V5.06962ZM38.7111 38.7097H1.29173V30.9677H14.195V32.9032C14.195 33.2592 14.4841 33.5484 14.8401 33.5484H28.3885V35.4839C28.3885 35.8398 28.6777 36.129 29.0337 36.129H38.7111V38.7097ZM33.5498 34.8387H29.6788V32.9032C29.6788 32.5473 29.3896 32.2581 29.0337 32.2581H28.3885V24.5161H33.5498V34.8387ZM34.8401 34.8387V23.871C34.8401 23.515 34.5509 23.2258 34.195 23.2258H27.7433C27.3874 23.2258 27.0982 23.515 27.0982 23.871V32.2581H25.8079V22.5806C25.8079 22.2253 26.0977 21.9355 26.453 21.9355H30.9691C31.3251 21.9355 31.6143 21.6463 31.6143 21.2903V14.8387C31.6143 14.4827 31.3251 14.1935 30.9691 14.1935H21.9369V12.9032H36.7756C37.8426 12.9032 38.7111 13.7717 38.7111 14.8387V23.2258H37.4208V16.7742H36.1304V34.8387H34.8401Z" fill="#F7142E"/>
<path d="M33.5498 10.3225C35.3284 10.3225 36.7756 8.8753 36.7756 7.0967V5.80637C36.7756 4.02777 35.3284 2.58057 33.5498 2.58057C31.7712 2.58057 30.324 4.02777 30.324 5.80637V7.0967C30.324 8.8753 31.7712 10.3225 33.5498 10.3225ZM31.6143 5.80637C31.6143 4.7394 32.4828 3.87089 33.5498 3.87089C34.6168 3.87089 35.4853 4.7394 35.4853 5.80637V7.0967C35.4853 8.16367 34.6168 9.03218 33.5498 9.03218C32.4828 9.03218 31.6143 8.16367 31.6143 7.0967V5.80637Z" fill="#F7142E"/>
</g>
<defs>
<clipPath id="clip0">
<rect width="40" height="40" fill="white" transform="translate(0.00140381)"/>
</clipPath>
</defs>
</svg>
