<svg width="41" height="40" viewBox="0 0 41 40" fill="none" xmlns="http://www.w3.org/2000/svg">
<g clip-path="url(#clip0)">
<path d="M28.3348 17.5H27.5014V25.8334H20.0014V27.5H28.3348C28.795 27.5 29.1681 27.1269 29.1681 26.6666V18.3334C29.168 17.8731 28.795 17.5 28.3348 17.5Z" fill="#F7142E"/>
<path d="M20.0014 10V11.6666C22.3026 11.6666 24.168 13.5321 24.168 15.8333C24.168 18.1345 22.3026 20 20.0014 20V21.6666C23.223 21.6666 25.8348 19.055 25.8348 15.8333C25.8348 12.6116 23.223 10 20.0014 10Z" fill="#F7142E"/>
<path d="M38.3348 30H33.3348C31.0347 30.0027 29.1709 31.8666 29.1681 34.1666V39.1666C29.1681 39.6269 29.5412 40 30.0015 40C30.2225 39.9999 30.4344 39.9121 30.5906 39.7559L38.924 31.4225C39.0802 31.2663 39.1679 31.0545 39.168 30.8335C39.168 30.3733 38.795 30.0001 38.3348 30ZM30.8348 37.155V34.1666C30.8348 32.7859 31.9541 31.6666 33.3348 31.6666H36.3231L30.8348 37.155Z" fill="#F7142E"/>
<path d="M35.0014 3.33325H19.168V4.99989H35.0014C36.3821 4.99989 37.5014 6.11919 37.5014 7.49989V30.4883L29.6564 38.3333H20.0014V39.9999H30.0014C30.2224 39.9998 30.4343 39.912 30.5905 39.7558L38.9239 31.4224C39.0802 31.2661 39.168 31.0542 39.168 30.8333V7.49989C39.1653 5.19981 37.3015 3.33599 35.0014 3.33325Z" fill="#F7142E"/>
<path d="M5.00139 24.1667H1.66803V25.8334H5.00139V24.1667Z" fill="#F7142E"/>
<path d="M5.00139 34.1667H1.66803V35.8334H5.00139V34.1667Z" fill="#F7142E"/>
<path d="M5.00139 4.16675H1.66803V5.83339H5.00139V4.16675Z" fill="#F7142E"/>
<path d="M5.00139 14.1665H1.66803V15.8331H5.00139V14.1665Z" fill="#F7142E"/>
<path d="M9.16806 1.66664V0H2.50142C1.58095 0 0.834778 0.746172 0.834778 1.66664V38.3333C0.834778 39.2538 1.58095 40 2.50142 40H6.66806V38.3334H2.50142V1.66664H9.16806Z" fill="#F7142E"/>
<path d="M6.66803 19.1665H1.66803V20.8331H6.66803V19.1665Z" fill="#F7142E"/>
<path d="M6.66803 29.1667H1.66803V30.8334H6.66803V29.1667Z" fill="#F7142E"/>
<path d="M6.66803 9.16675H1.66803V10.8334H6.66803V9.16675Z" fill="#F7142E"/>
<path d="M14.168 8.33325H12.5014V34.1666H14.168V8.33325Z" fill="#F7142E"/>
<path d="M17.4139 7.12755L14.0806 0.460903C14.0067 0.337075 13.9032 0.233559 13.7794 0.159731C13.3674 -0.0858161 12.8345 0.0489497 12.5888 0.460903L9.25547 7.12755C9.19781 7.24325 9.16781 7.37075 9.16797 7.50005V39.1667C9.16797 39.6269 9.54109 40.0001 10.0013 40.0001H16.668C17.1282 40.0001 17.5013 39.6269 17.5013 39.1667V7.50005C17.5015 7.37075 17.4716 7.24325 17.4139 7.12755ZM15.8348 38.3334H10.8348V7.69669L13.3348 2.69669L15.8348 7.69669V38.3334Z" fill="#F7142E"/>
<path d="M14.4123 6.91075C14.0014 7.31903 13.8039 7.49989 13.3348 7.49989C12.8656 7.49989 12.6656 7.31903 12.2573 6.91075C11.7005 6.23716 10.8753 5.84302 10.0014 5.83325V7.49989C10.4698 7.49989 10.668 7.68075 11.0789 8.08903C11.6357 8.76263 12.4609 9.15677 13.3348 9.16653C14.2086 9.15677 15.0338 8.76263 15.5906 8.08903C16.0014 7.68075 16.1989 7.49989 16.668 7.49989V5.83325C15.7942 5.84302 14.9691 6.23716 14.4123 6.91075Z" fill="#F7142E"/>
<path d="M15.0014 2.5H11.668V4.16664H15.0014V2.5Z" fill="#F7142E"/>
<path d="M16.668 33.3333H10.0014V34.9999H16.668V33.3333Z" fill="#F7142E"/>
</g>
<defs>
<clipPath id="clip0">
<rect width="40" height="40" fill="white" transform="translate(0.00140381)"/>
</clipPath>
</defs>
</svg>
