<svg width="33" height="40" viewBox="0 0 33 40" fill="none" xmlns="http://www.w3.org/2000/svg">
<path d="M25.4862 25.7652L20.4814 24.6439V23.0497C22.4155 21.6426 23.6814 19.3568 23.6814 16.7742V13.3348C23.8139 13.2026 23.9387 13.0613 24.0456 12.9032H24.9614H25.6014H26.8814V11.6129H25.6014V10.3226C25.6014 5.70645 22.2945 1.72 17.8376 0.844516C17.6571 0.352903 17.1912 0 16.6414 0H15.3614C14.8116 0 14.3457 0.352903 14.1652 0.844516C9.70828 1.72 6.4014 5.70645 6.4014 10.3226V11.6129H5.1214V12.9032H6.4014H7.0414H7.95724C8.06476 13.0613 8.18892 13.2032 8.3214 13.3355V16.7742C8.3214 19.3568 9.58732 21.6426 11.5214 23.0497V24.6439L6.5166 25.7652C2.68044 26.6245 0.00140381 29.991 0.00140381 33.9523V40H32.0014V33.9523C32.0014 29.991 29.3224 26.6245 25.4862 25.7652ZM6.4014 38.7097H1.2814V33.9523C1.2814 30.7381 3.36844 27.9923 6.4014 27.1303V38.7097ZM20.7912 26.0348L18.4008 29.2484L16.6555 27.489L19.9246 25.8413L20.7912 26.0348ZM16.0014 26.3755L12.8014 24.7626V23.8032C13.7768 24.2561 14.8584 24.5161 16.0014 24.5161C17.1444 24.5161 18.226 24.2561 19.2014 23.8032V24.7626L16.0014 26.3755ZM8.89356 11.9697L8.71692 11.6129H7.6814V10.3226C7.6814 6.43548 10.3854 3.05613 14.0814 2.17226V5.16129H15.3614V1.29032H16.6414V5.16129H17.9214V2.17226C21.6174 3.05613 24.3214 6.43548 24.3214 10.3226V11.6129H23.2859L23.1092 11.9697C22.8232 12.5452 22.2491 12.9032 21.6104 12.9032H10.3924C9.75308 12.9032 9.179 12.5458 8.89356 11.9697ZM9.6014 14.0826C9.85484 14.1535 10.1198 14.1935 10.3924 14.1935H21.6097C21.8824 14.1935 22.1473 14.1529 22.4008 14.0826V16.3755L21.5457 16.8064C20.7508 17.2071 19.86 17.4194 18.971 17.4194H17.9214C17.8145 17.4194 17.7204 17.3503 17.6865 17.2484L17.451 16.5361C17.2417 15.9071 16.6593 15.4839 16.0014 15.4839C15.3435 15.4839 14.7611 15.9071 14.5512 16.5374L14.3169 17.2477C14.2824 17.3503 14.1883 17.4194 14.0814 17.4194H13.0318C12.1422 17.4194 11.252 17.2071 10.4564 16.8064L9.6014 16.3755V14.0826ZM9.7006 17.8684L9.88364 17.9606C10.8564 18.451 11.9451 18.7097 13.0318 18.7097H14.0814C14.7393 18.7097 15.3217 18.2865 15.5316 17.6561L15.7659 16.9458C15.8344 16.7406 16.1691 16.7413 16.2363 16.9452L16.4718 17.6574C16.6811 18.2865 17.2635 18.7097 17.9214 18.7097H18.971C20.0577 18.7097 21.1464 18.451 22.1192 17.9606L22.3022 17.8684C21.7844 20.9052 19.1598 23.2258 16.0014 23.2258C12.843 23.2258 10.2184 20.9052 9.7006 17.8684ZM12.0782 25.8406L15.3473 27.4884L13.602 29.2477L11.2116 26.0342L12.0782 25.8406ZM15.3614 38.7097H7.6814V37.4194H15.3614V38.7097ZM15.3614 36.129H7.6814V26.8258L9.84012 26.3426L15.3614 33.7632V36.129ZM14.3777 30.2903L16.0014 28.6542L17.6251 30.291L16.0014 32.4729L14.3777 30.2903ZM24.3214 38.7097H16.6414V37.4194H24.3214V38.7097ZM24.3214 36.129H16.6414V33.7632L22.1627 26.3419L24.3214 26.8258V36.129ZM30.7214 38.7097H25.6014V27.1303C28.6344 27.9923 30.7214 30.7387 30.7214 33.9523V38.7097Z" fill="#F7142E"/>
<path d="M22.4014 10.3227H18.5448C18.9512 9.78202 19.2014 9.11622 19.2014 8.38718C19.2014 6.60847 17.7659 5.16138 16.0014 5.16138C14.2369 5.16138 12.8014 6.60847 12.8014 8.38718C12.8014 9.11622 13.0516 9.78202 13.458 10.3227H9.60139V11.613H22.4014V10.3227ZM16.0014 10.3227C14.9428 10.3227 14.0814 9.45428 14.0814 8.38718C14.0814 7.32009 14.9428 6.4517 16.0014 6.4517C17.06 6.4517 17.9214 7.32009 17.9214 8.38718C17.9214 9.45428 17.06 10.3227 16.0014 10.3227Z" fill="#F7142E"/>
<path d="M23.0414 33.5483H17.9214V34.8387H23.0414V33.5483Z" fill="#F7142E"/>
</svg>
