<svg width="41" height="40" viewBox="0 0 41 40" fill="none" xmlns="http://www.w3.org/2000/svg">
<g clip-path="url(#clip0)">
<path d="M39.3347 4C39.7029 4 40.0014 3.7015 40.0014 3.33333V0.666667C40.0014 0.298503 39.7029 0 39.3347 0H0.66807C0.299906 0 0.00140381 0.298503 0.00140381 0.666667V3.33333C0.00140381 3.7015 0.299906 4 0.66807 4H2.0014V26.6667H0.66807C0.299906 26.6667 0.00140381 26.9652 0.00140381 27.3333V30C0.00140381 30.3682 0.299906 30.6667 0.66807 30.6667H17.2195L10.1622 38.9001C9.99294 39.0977 9.9542 39.3757 10.0629 39.612C10.1717 39.8483 10.408 39.9997 10.6681 40H13.3347C13.5294 40 13.714 39.915 13.8406 39.7673L18.0014 34.9154V39.3333C18.0014 39.7015 18.2999 40 18.6681 40H21.3347C21.7029 40 22.0014 39.7015 22.0014 39.3333V34.9154L26.1622 39.7673C26.2888 39.915 26.4734 40 26.6681 40H29.3347C29.5948 39.9997 29.8312 39.8483 29.9399 39.612C30.0486 39.3757 30.0099 39.0977 29.8406 38.9001L22.7833 30.6667H39.3347C39.7029 30.6667 40.0014 30.3682 40.0014 30V27.3333C40.0014 26.9652 39.7029 26.6667 39.3347 26.6667H38.0014V4H39.3347ZM1.33474 1.33333H38.6681V2.66667H1.33474V1.33333ZM13.0281 38.6667H12.1173L18.0014 31.8001V32.8665L13.0281 38.6667ZM20.6681 38.6667H19.3347V30.6667H20.6681V38.6667ZM26.9747 38.6667L22.0014 32.8665V31.8001L27.8855 38.6667H26.9747ZM38.6681 29.3333H1.33474V28H38.6681V29.3333ZM36.6681 26.6667H3.33474V4H36.6681V26.6667Z" fill="#F7142E"/>
<path d="M10.0014 21.3333C9.99621 22.7204 11.0551 23.8799 12.437 24C13.8188 24.1201 15.0623 23.1608 15.2963 21.7936C15.5307 20.4264 14.6779 19.1081 13.3348 18.7614V18.6667C13.337 16.8265 14.8279 15.3356 16.6681 15.3333H23.3348C25.9106 15.3301 27.9982 13.2425 28.0014 10.6667V10.5719C29.3016 10.2363 30.1495 8.98601 29.9803 7.65397C29.811 6.32194 28.6775 5.32324 27.3348 5.32324C25.992 5.32324 24.8585 6.32194 24.6892 7.65397C24.52 8.98601 25.368 10.2363 26.6681 10.5719V10.6667C26.6658 12.5068 25.1749 13.9977 23.3348 14H16.6681C14.0922 14.0033 12.0047 16.0908 12.0014 18.6667V18.7614C10.8276 19.0645 10.006 20.1211 10.0014 21.3333ZM26.0014 8C26.0014 7.26367 26.5984 6.66667 27.3348 6.66667C28.0711 6.66667 28.6681 7.26367 28.6681 8C28.6681 8.73633 28.0711 9.33334 27.3348 9.33334C26.5984 9.33334 26.0014 8.73633 26.0014 8ZM12.6681 20C13.4044 20 14.0014 20.597 14.0014 21.3333C14.0014 22.0697 13.4044 22.6667 12.6681 22.6667C11.9318 22.6667 11.3348 22.0697 11.3348 21.3333C11.3348 20.597 11.9318 20 12.6681 20Z" fill="#F7142E"/>
<path d="M23.6108 18.1145L22.6681 19.0572L21.7254 18.1145L20.7827 19.0572L21.7254 19.9999L20.7827 20.9426L21.7254 21.8853L22.6681 20.9426L23.6108 21.8853L24.5535 20.9426L23.6108 19.9999L24.5535 19.0572L23.6108 18.1145Z" fill="#F7142E"/>
<path d="M29.4493 14.3907L30.392 15.3334L29.4493 16.2761L30.392 17.2188L31.3348 16.2761L32.2775 17.2188L33.2202 16.2761L32.2775 15.3334L33.2202 14.3907L32.2775 13.448L31.3348 14.3907L30.392 13.448L29.4493 14.3907Z" fill="#F7142E"/>
<path d="M9.61078 11.448L8.66807 12.3907L7.72536 11.448L6.78265 12.3907L7.72536 13.3334L6.78265 14.2761L7.72536 15.2188L8.66807 14.2761L9.61078 15.2188L10.5535 14.2761L9.61078 13.3334L10.5535 12.3907L9.61078 11.448Z" fill="#F7142E"/>
<path d="M15.7254 11.2188L16.6681 10.2761L17.6108 11.2188L18.5535 10.2761L17.6108 9.33341L18.5535 8.39071L17.6108 7.448L16.6681 8.39071L15.7254 7.448L14.7827 8.39071L15.7254 9.33341L14.7827 10.2761L15.7254 11.2188Z" fill="#F7142E"/>
<path d="M28.6681 21.3333H30.0014V22.6666H28.6681V21.3333Z" fill="#F7142E"/>
<path d="M31.3347 21.3333H34.0014V22.6666H31.3347V21.3333Z" fill="#F7142E"/>
<path d="M28.6681 23.3333H34.0014V24.6666H28.6681V23.3333Z" fill="#F7142E"/>
<path d="M6.0014 5.33325H10.0014V6.66659H6.0014V5.33325Z" fill="#F7142E"/>
<path d="M6.0014 7.33325H10.0014V8.66659H6.0014V7.33325Z" fill="#F7142E"/>
</g>
<defs>
<clipPath id="clip0">
<rect width="40" height="40" fill="white" transform="translate(0.00140381)"/>
</clipPath>
</defs>
</svg>
