<svg width="41" height="40" viewBox="0 0 41 40" fill="none" xmlns="http://www.w3.org/2000/svg">
<g clip-path="url(#clip0)">
<path d="M40.0014 16.7742H38.5517L36.391 17.9111C36.1478 17.7769 35.8948 17.6632 35.622 17.5948L32.904 16.9147V16.6057C34.1064 15.7664 34.8401 14.38 34.8401 12.9032V11.7755C34.8401 9.26915 32.8763 7.17175 30.4626 7.09866C30.34 7.09551 30.2194 7.09992 30.0981 7.10591L30.8028 5.45615L27.3864 2.0407L25.3725 3.3515C24.6073 2.92055 23.798 2.58506 22.9576 2.34974L22.4601 0H17.5433L17.0459 2.35037C16.2054 2.58569 15.3955 2.92118 14.6309 3.35213L12.617 2.04133L9.20346 5.45489L9.89619 7.10591C9.86973 7.10465 9.84452 7.09992 9.81806 7.09929C8.58255 7.06338 7.41887 7.51418 6.53492 8.37229C5.64971 9.22978 5.16269 10.3805 5.16269 11.6129V12.9032C5.16269 14.38 5.89575 15.7658 7.09818 16.605V16.9147L5.32524 17.3579L2.11172 15.4839H0.00140381V28.8524L6.34843 30.9677H7.58457L7.73893 30.4272L9.68449 31.5949C9.71631 32.6528 10.5647 33.504 11.6216 33.5411C11.6587 34.5936 12.5046 35.4395 13.557 35.4766C13.5942 36.5291 14.44 37.3749 15.4925 37.4121C15.531 38.4892 16.413 39.3548 17.4989 39.3548C17.9021 39.3548 18.2975 39.2291 18.6298 39.0052L19.2013 39.5098C19.5594 39.8252 20.0206 40 20.4995 40H20.6188C21.6924 40 22.566 39.1321 22.5795 38.062C23.6415 38.0485 24.5015 37.1884 24.515 36.1265C25.5776 36.113 26.4382 35.2517 26.4505 34.1891C27.5228 34.1639 28.3885 33.2879 28.3885 32.2095C28.3885 32.1447 28.3853 32.0807 28.3787 32.0161L40.0014 26.2053V16.7742ZM33.5498 11.7755V12.9032C33.5498 14.0483 32.9311 15.1181 31.935 15.6949L31.6124 15.8814L31.6149 17.9231L34.8382 18.7283L27.7433 22.4625V20.7245C27.7433 19.8573 27.393 19.0631 26.8194 18.4762L29.0337 17.9231V15.8799L28.7117 15.6937C27.7162 15.1181 27.0982 14.0483 27.0982 12.9032V11.6129C27.0982 10.7331 27.446 9.91022 28.0782 9.2975C28.7098 8.68511 29.5478 8.35496 30.4238 8.38899C32.1473 8.44065 33.5498 9.95999 33.5498 11.7755ZM20.9742 21.9553L18.0536 21.0219C16.7227 20.5954 15.2821 20.5318 13.9196 20.8335L13.5498 20.9154V20.7245C13.5498 19.8349 14.1531 19.0625 15.0156 18.8464L18.7111 17.9231V15.8799L18.3891 15.6937C17.3937 15.1181 16.7756 14.0483 16.7756 12.9032V11.6129C16.7756 10.7331 17.1234 9.91022 17.7556 9.2975C18.3872 8.68511 19.2305 8.35496 20.1013 8.38899C21.8247 8.44065 23.2272 9.95999 23.2272 11.7755V12.9032C23.2272 14.0483 22.6085 15.1181 21.6124 15.6949L21.2898 15.8814L21.2924 17.9231L24.9872 18.8464C25.8498 19.0625 26.453 19.8349 26.453 20.7245V23.142L26.2936 23.2258H25.8983L21.9318 22.0924C21.6193 22.0038 21.2974 21.9676 20.9742 21.9553ZM13.6944 9.656C14.906 7.30847 17.3445 5.80645 20.0014 5.80645C22.6331 5.80645 25.0613 7.28831 26.282 9.60402C25.9748 10.2199 25.8079 10.9019 25.8079 11.6129V12.9032C25.8079 14.38 26.5409 15.7658 27.7433 16.605V16.9147L25.1627 17.5608L22.5814 16.9147V16.6057C23.7838 15.7664 24.5175 14.38 24.5175 12.9032V11.7755C24.5175 9.26915 22.5537 7.17175 20.14 7.09866C18.9051 7.06244 17.7408 7.51355 16.8569 8.37166C15.9723 9.22978 15.4853 10.3805 15.4853 11.6129V12.9032C15.4853 14.38 16.2183 15.7658 17.4208 16.605V16.9147L14.8401 17.5608L12.2588 16.9147V16.6057C13.4613 15.7664 14.195 14.38 14.195 12.9032V11.7755C14.195 11.0163 14.0122 10.2955 13.6944 9.656ZM10.7272 5.75416L12.7884 3.69298L14.6026 4.87368L14.9497 4.66072C15.8195 4.12771 16.7595 3.7374 17.7433 3.50208L18.1403 3.40694L18.5892 1.29032H21.4143L21.8619 3.40631L22.2588 3.50113C23.2426 3.73677 24.1827 4.12708 25.0524 4.66009L25.3996 4.87305L27.2138 3.69235L29.2724 5.75164L28.5407 7.46503C28.0426 7.67925 27.5808 7.98072 27.1788 8.3704C27.1524 8.39623 27.1297 8.42395 27.1038 8.45042C25.5839 6.03421 22.8968 4.51613 20.0014 4.51613C17.0853 4.51613 14.3906 6.04839 12.8744 8.48916C12.4686 8.06452 11.986 7.72051 11.4511 7.48015L10.7272 5.75416ZM8.3885 17.9231V15.8799L8.06655 15.6937C7.07109 15.1181 6.45302 14.0483 6.45302 12.9032V11.6129C6.45302 10.7331 6.8008 9.91022 7.43304 9.2975C8.06466 8.68511 8.9045 8.35496 9.77868 8.38899C11.5022 8.44065 12.9046 9.95999 12.9046 11.7755V12.9032C12.9046 14.0483 12.2859 15.1181 11.2898 15.6949L10.9673 15.8814L10.9698 17.9231L13.1834 18.4762C12.6098 19.0631 12.2595 19.8573 12.2595 20.7245V21.2024L10.2471 21.6498L10.2994 21.467L10.324 20.2747L6.92145 18.2898L8.3885 17.9231ZM1.29173 16.7742H1.76205L6.40198 19.4805L4.06075 28.8451L1.29173 27.9218V16.7742ZM6.5576 29.6774L5.28776 29.2543L7.5622 20.1575L9.03366 21.0156V21.1999L6.61179 29.6774H6.5576ZM10.9691 31.5348C10.9691 31.3445 11.046 31.158 11.1808 31.0232L12.3149 29.8891C12.4497 29.7543 12.6362 29.6774 12.8265 29.6774C13.2253 29.6774 13.5498 30.0019 13.5498 30.4007C13.5498 30.591 13.4729 30.7775 13.3381 30.9123L12.204 32.0464C12.0692 32.1812 11.8827 32.2581 11.6924 32.2581C11.2936 32.2581 10.9691 31.9336 10.9691 31.5348ZM12.9046 33.4703C12.9046 33.28 12.9815 33.0935 13.1163 32.9587L14.2504 31.8246C14.3852 31.6898 14.5717 31.6129 14.762 31.6129C15.1608 31.6129 15.4853 31.9374 15.4853 32.3362C15.4853 32.5265 15.4084 32.713 15.2736 32.8478L14.1395 33.9819C14.0047 34.1167 13.8182 34.1935 13.6279 34.1935C13.2291 34.1935 12.9046 33.8691 12.9046 33.4703ZM14.8401 35.4057C14.8401 35.2155 14.917 35.029 15.0518 34.8942L16.1859 33.7601C16.3207 33.6253 16.5072 33.5484 16.6975 33.5484C17.0963 33.5484 17.4208 33.8729 17.4208 34.2717C17.4208 34.4619 17.3439 34.6484 17.2091 34.7833L16.075 35.9173C15.9402 36.0522 15.7537 36.129 15.5634 36.129C15.1646 36.129 14.8401 35.8046 14.8401 35.4057ZM17.4989 38.0645C17.1001 38.0645 16.7756 37.74 16.7756 37.3412C16.7756 37.151 16.8525 36.9645 16.9873 36.8296L18.1214 35.6956C18.2562 35.5607 18.4427 35.4839 18.633 35.4839C19.0318 35.4839 19.3562 35.8083 19.3562 36.2072C19.3562 36.3974 19.2794 36.5839 19.1445 36.7188L18.0105 37.8528C17.8756 37.9877 17.6892 38.0645 17.4989 38.0645ZM20.6188 38.7097H20.4995C20.335 38.7097 20.1775 38.6498 20.055 38.5411L19.5723 38.1155L20.0568 37.631C20.2298 37.4581 20.364 37.2524 20.4632 37.0316L21.0498 37.5198C21.2032 37.6477 21.2917 37.8361 21.2917 38.0368C21.2917 38.4079 20.9899 38.7097 20.6188 38.7097ZM26.4045 32.9032H26.293C26.1311 32.9032 25.9729 32.8459 25.8491 32.7419L22.3505 29.8264L21.5239 30.8181L24.9214 33.6489C25.0742 33.7768 25.1627 33.9652 25.1627 34.1658C25.1627 34.5369 24.8609 34.8387 24.4898 34.8387H24.349C24.1924 34.8387 24.0393 34.7833 23.9187 34.6825L20.4144 31.7625L19.5878 32.7542L22.9853 35.5853C23.1387 35.7123 23.2272 35.9006 23.2272 36.1013C23.2272 36.4724 22.9254 36.7742 22.5543 36.7742C22.3067 36.7742 22.0654 36.6863 21.8755 36.5285L20.4355 35.3283C20.1183 34.6799 19.4665 34.2279 18.7032 34.2008C18.666 33.1483 17.8202 32.3025 16.7677 32.2653C16.7305 31.2128 15.8847 30.367 14.8322 30.3298C14.7944 29.2528 13.9124 28.3871 12.8265 28.3871C12.2963 28.3871 11.7775 28.6019 11.4026 28.9768L10.2685 30.1109C10.2008 30.1786 10.1447 30.2555 10.0877 30.3317L8.10593 29.1425L9.84326 23.062L14.1987 22.0936C15.3413 21.8381 16.5459 21.8936 17.6602 22.2502L18.6106 22.5542L15.3886 24.1652C14.6524 24.5341 14.195 25.2747 14.195 26.0982V26.2257C14.195 27.4175 15.1646 28.3871 16.3563 28.3871C16.7479 28.3871 17.1331 28.2806 17.468 28.0787L19.8704 26.6381C20.353 26.3489 21.0006 26.4122 21.4174 26.7871L26.8685 31.6929C27.0144 31.8252 27.0982 32.013 27.0982 32.2095C27.0982 32.5923 26.7873 32.9032 26.4045 32.9032ZM38.7111 25.4076L27.8419 30.8427C27.8067 30.8052 27.7698 30.7696 27.7311 30.7349L22.2809 25.8291C21.8033 25.3982 21.1859 25.1613 20.5426 25.1613C20.0723 25.1613 19.6105 25.2892 19.206 25.5318L16.8027 26.973C16.6679 27.0542 16.5138 27.0968 16.3563 27.0968C15.8756 27.0968 15.4853 26.7065 15.4853 26.2257V26.0982C15.4853 25.7658 15.6699 25.4678 15.9666 25.3194L19.5654 23.52C20.1813 23.2116 20.9124 23.1426 21.5762 23.3335L25.6305 24.4916L26.6124 24.5161L38.7111 18.1483V25.4076Z" fill="#F7142E"/>
</g>
<defs>
<clipPath id="clip0">
<rect width="40" height="40" fill="white" transform="translate(0.00140381)"/>
</clipPath>
</defs>
</svg>
