<svg width="63" height="40" viewBox="0 0 63 40" fill="none" xmlns="http://www.w3.org/2000/svg">
<path d="M41.6836 22.534L36.4061 20.1691C36.0333 20.0021 35.7925 19.6284 35.7925 19.2172V17.7561C37.5654 16.3319 38.7049 14.1388 38.7049 11.6812V9.62436C39.2889 9.29899 39.6755 8.67024 39.6755 7.96603V7.76642C39.6755 3.48404 36.2199 0 31.9724 0H30.031C25.7835 0 22.3279 3.48404 22.3279 7.76642V9.5776C22.3279 10.1966 22.5921 10.7573 23.0526 11.1162C23.1307 11.177 23.2129 11.2304 23.2985 11.2767V11.6811C23.2985 14.1387 24.4379 16.3318 26.2106 17.7558V19.2171C26.2106 19.6283 25.9698 20.002 25.597 20.169L20.3195 22.5339C18.5911 23.3083 17.4743 25.041 17.4743 26.9479V39.084C17.4743 39.5896 17.8809 39.9996 18.3825 39.9996C18.8841 39.9996 19.2907 39.5896 19.2907 39.084V26.948C19.2907 26.8419 19.2982 26.737 19.3091 26.633L21.7409 29.0848C22.1193 29.4664 22.3279 29.9737 22.3279 30.5135V39.0841C22.3279 39.5898 22.7345 39.9997 23.2361 39.9997C23.7376 39.9997 24.1443 39.5898 24.1443 39.0841V30.5135C24.1443 29.4846 23.747 28.5174 23.0254 27.7899L20.1262 24.8669C20.3874 24.5936 20.7008 24.3672 21.0573 24.2073L26.2459 21.8824L30.0936 25.7618V39.084C30.0936 39.5896 30.5003 39.9996 31.0018 39.9996C31.5034 39.9996 31.91 39.5896 31.91 39.084V25.7619L35.7578 21.8825L40.9462 24.2073C41.3027 24.3672 41.6161 24.5936 41.8773 24.867L38.9782 27.7899C38.2566 28.5174 37.8593 29.4846 37.8593 30.5135V39.0841C37.8593 39.5898 38.2659 39.9997 38.7675 39.9997C39.269 39.9997 39.6757 39.5898 39.6757 39.0841V30.5135C39.6757 29.9738 39.8841 29.4664 40.2626 29.0848L42.6943 26.6331C42.7052 26.7371 42.7127 26.8418 42.7127 26.9479V39.084C42.7127 39.5896 43.1193 39.9996 43.6209 39.9996C44.1225 39.9996 44.5291 39.5896 44.5291 39.084V26.948C44.5288 25.0411 43.412 23.3084 41.6836 22.534ZM31.0015 24.0877L27.6252 20.6836C27.882 20.2481 28.0269 19.7443 28.0269 19.2172V18.8446C28.9427 19.2326 29.9477 19.4476 31.0016 19.4476C32.0555 19.4476 33.0603 19.2327 33.976 18.8447V19.2172C33.976 19.7444 34.121 20.2481 34.3778 20.6837L31.0015 24.0877ZM31.0016 17.6161C27.7557 17.6163 25.1148 14.9538 25.1148 11.6812V11.2694C25.6816 11.0429 26.2347 10.6825 26.7643 10.1899C27.1327 9.84693 27.1559 9.26762 26.8156 8.89598C26.4754 8.52446 25.901 8.50114 25.5322 8.84409C25.078 9.26688 24.6242 9.54 24.1836 9.65598C24.173 9.65879 24.1651 9.66001 24.1595 9.6605C24.153 9.64768 24.1441 9.62082 24.1441 9.57772V7.76654C24.1441 4.49396 26.785 1.83145 30.0309 1.83145H31.9723C35.2183 1.83145 37.859 4.49396 37.859 7.76654V7.96615C37.859 7.99582 37.8413 8.02158 37.8181 8.02622C32.3796 9.10915 29.6519 7.06819 28.7316 6.14032C28.3769 5.78272 27.8018 5.78272 27.4472 6.14032C27.0925 6.49792 27.0925 7.07771 27.4472 7.43519C30.2675 10.2786 34.3829 10.3299 36.8883 10.0264V11.6811C36.8883 14.9536 34.2475 17.6161 31.0016 17.6161Z" fill="#F7142E"/>
<path d="M16.3784 17.5536V15.596C16.3784 13.2072 15.1471 11.1043 13.2918 9.89418C13.4064 9.52364 13.4662 9.13552 13.4662 8.7452C13.4662 6.62135 11.7525 4.89355 9.64594 4.89355C7.53938 4.89355 5.82566 6.62147 5.82566 8.7452C5.82566 9.1404 5.885 9.52474 5.9998 9.89442C4.14464 11.1044 2.91347 13.2073 2.91347 15.596V17.5533C2.91347 19.8665 4.06786 21.912 5.82554 23.138V25.1516C5.82554 25.5487 5.60672 25.9057 5.25446 26.0834L2.11316 27.6668C0.810554 28.3237 0.00140381 29.6437 0.00140381 31.1121V39.0843C0.00140381 39.59 0.408037 40 0.909609 40C1.41118 40 1.81781 39.59 1.81781 39.0843V31.5081L3.29734 32.9998C3.67576 33.3814 3.88428 33.8887 3.88428 34.4285V39.0843C3.88428 39.59 4.29092 40 4.79249 40C5.29406 40 5.70069 39.59 5.70069 39.0843V34.4285C5.70069 33.3996 5.30326 32.4324 4.58178 31.7049L2.52258 29.6288C2.51265 29.6188 2.502 29.6101 2.49182 29.6007C2.62103 29.4857 2.76598 29.3856 2.92558 29.305L6.06688 27.7215C6.22782 27.6404 6.37761 27.5445 6.51723 27.4381L8.73773 29.6769V39.0844C8.73773 39.5901 9.14436 40.0001 9.64594 40.0001C10.1475 40.0001 10.5541 39.5901 10.5541 39.0844V29.6768L12.7748 27.4379C12.9145 27.5445 13.0642 27.6404 13.2251 27.7214L14.0913 28.1581C14.2217 28.2239 14.3602 28.2551 14.4968 28.2551C14.83 28.2551 15.1507 28.0695 15.3099 27.7488C15.5343 27.2964 15.3524 26.7464 14.9037 26.5203L14.0375 26.0836C13.6851 25.906 13.4663 25.549 13.4663 25.1519V23.1383C15.224 21.9123 16.3784 19.8667 16.3784 17.5536ZM9.64594 6.72488C10.7509 6.72488 11.6498 7.63127 11.6498 8.7452C11.6498 8.8679 11.6389 8.98816 11.6181 9.10598C10.994 8.91283 10.3319 8.8082 9.64594 8.8082C8.96091 8.8082 8.29973 8.91246 7.67658 9.10512C7.65564 8.9873 7.64207 8.86766 7.64207 8.7452C7.64207 7.63115 8.54095 6.72488 9.64594 6.72488ZM9.64594 10.6397C12.3566 10.6397 14.562 12.8631 14.562 15.5961V15.9279C10.7808 17.0951 8.52739 14.1951 8.43112 14.068C8.27309 13.8557 8.03151 13.7229 7.76898 13.7041C7.50645 13.6855 7.24852 13.7823 7.0624 13.97C6.19548 14.844 5.34637 15.2656 4.73315 15.4691C4.80036 12.7946 6.97751 10.6397 9.64594 10.6397ZM9.64594 28.0025L7.54726 25.8866C7.60853 25.6504 7.64207 25.4043 7.64207 25.1517V24.034C8.27527 24.2335 8.94843 24.341 9.64594 24.341C10.3434 24.341 11.0166 24.2335 11.6498 24.034V25.1517C11.6498 25.4043 11.6833 25.6506 11.7446 25.8866L9.64594 28.0025ZM9.64594 22.5097C6.93525 22.5097 4.72988 20.2862 4.72988 17.5533V17.3636C5.45415 17.1958 6.52801 16.806 7.64825 15.8976C8.04459 16.2746 8.61107 16.7371 9.33242 17.1338C10.1857 17.603 11.364 18.037 12.8033 18.037C13.3503 18.037 13.9356 17.9729 14.5542 17.8257C14.4134 20.4325 12.2659 22.5097 9.64594 22.5097Z" fill="#F7142E"/>
<path d="M59.8898 25.7092L54.8071 23.147C54.4548 22.9693 54.236 22.6123 54.236 22.2153V20.9176C55.4258 19.8526 56.1774 18.3007 56.1774 16.5743V15.5321C56.1983 15.5321 56.2189 15.5327 56.2399 15.5327C56.7414 15.5327 57.1481 15.1227 57.1481 14.617V12.6597C57.1481 9.45656 54.5633 6.85059 51.3863 6.85059H49.4449C46.2679 6.85059 43.6832 9.45656 43.6832 12.6597V14.617C43.6832 15.1227 44.0898 15.5327 44.5914 15.5327C44.5989 15.5327 44.6207 15.5324 44.6538 15.5311V16.5743C44.6538 18.3008 45.4056 19.8528 46.5953 20.9177V22.2154C46.5953 22.6126 46.3765 22.9696 46.0241 23.1471C45.5755 23.3732 45.3936 23.9232 45.618 24.3755C45.7771 24.6964 46.0979 24.882 46.431 24.882C46.5675 24.882 46.706 24.8508 46.8364 24.7851C46.9974 24.704 47.1472 24.6081 47.2868 24.5016L49.5074 26.7405V39.084C49.5074 39.5897 49.914 39.9997 50.4156 39.9997C50.9172 39.9997 51.3238 39.5897 51.3238 39.084V26.7403L53.5443 24.5014C53.6841 24.608 53.8337 24.7038 53.9947 24.7849L58.9129 27.2643L57.4211 28.7683C56.6997 29.4958 56.3022 30.463 56.3022 31.4918V39.0838C56.3022 39.5895 56.7089 39.9994 57.2104 39.9994C57.712 39.9994 58.1186 39.5895 58.1186 39.0838V31.4918C58.1186 30.9522 58.3271 30.4448 58.7056 30.0631L60.1186 28.6385C60.1615 28.8042 60.185 28.9769 60.185 29.1542V39.0838C60.185 39.5895 60.5916 39.9994 61.0932 39.9994C61.5948 39.9994 62.0014 39.5895 62.0014 39.0838V29.1542C62.0015 27.686 61.1924 26.3659 59.8898 25.7092ZM45.4994 13.513V12.6596H45.4996C45.4996 10.4662 47.2695 8.68179 49.4449 8.68179H51.3863C53.5618 8.68179 55.3317 10.4662 55.3317 12.6596V13.6767C51.3836 13.4619 49.0011 11.913 48.978 11.8977C48.8243 11.7944 48.649 11.7439 48.4745 11.7439C48.24 11.7439 48.0075 11.8352 47.832 12.0121C46.963 12.8882 46.1116 13.3099 45.4994 13.513ZM50.4156 25.0661L48.3169 22.9501C48.3782 22.714 48.4118 22.4679 48.4118 22.2153V22.0203C49.0361 22.2546 49.7112 22.3833 50.4156 22.3833C51.12 22.3833 51.7951 22.2546 52.4195 22.0203V22.2153C52.4195 22.4679 52.4529 22.714 52.5143 22.9501L50.4156 25.0661ZM50.4156 20.5521C48.2402 20.5521 46.4703 18.7678 46.4703 16.5743V15.0982C47.1064 14.8419 47.8475 14.4345 48.6016 13.7867C49.5554 14.287 51.5507 15.1517 54.361 15.4374V16.5743C54.361 18.7676 52.5911 20.5521 50.4156 20.5521Z" fill="#F7142E"/>
</svg>
