<svg width="54" height="33" viewBox="0 0 54 33" fill="none" xmlns="http://www.w3.org/2000/svg">
<path d="M33.1508 16.4999C33.1508 25.6145 25.7312 32.9998 16.5754 32.9998C7.41965 32.9998 0 25.6129 0 16.4999C0 7.38692 7.42147 0 16.5754 0C25.7294 0 33.1508 7.38692 33.1508 16.4999Z" fill="#E2574C"/>
<path d="M36.4819 0C32.7646 0 29.3423 1.23257 26.5768 3.29017L26.59 3.2918C27.1339 3.8148 27.734 4.18289 28.1967 4.78497L24.7479 4.83944C24.2074 5.38234 23.715 5.97302 23.2507 6.58686H29.3323C29.7949 7.13954 30.2227 7.61982 30.6107 8.23023H22.1482C21.8381 8.76155 21.5513 9.30771 21.3009 9.87523H31.5742C31.8428 10.4411 32.0832 10.8686 32.2872 11.4676H20.6925C20.5084 12.0369 20.3509 12.6192 20.2315 13.2132H32.7729C32.8957 13.7841 32.99 14.312 33.0548 14.85H19.9827C19.928 15.3929 19.8998 15.944 19.8998 16.5001H33.1492C33.1492 17.0843 33.1077 17.6253 33.0481 18.1502H19.9827C20.0391 18.7095 20.122 19.2589 20.2315 19.8002H32.7529C32.6236 20.3348 32.4743 20.8726 32.287 21.4304H20.6543C20.8299 21.9946 21.044 22.5424 21.2777 23.077H31.5742C31.289 23.6776 30.9657 24.1577 30.6093 24.7204H22.1185C22.4535 25.2978 22.8232 25.8489 23.2244 26.3769L29.3325 26.4676C28.8119 27.0896 28.1438 27.4642 27.5351 28.0087C27.5682 28.0352 26.5618 28.0055 24.5804 27.9742C27.5948 31.0696 31.8078 33 36.4817 33C45.6391 33 53.0621 25.6129 53.0621 16.5001C53.0621 7.38728 45.6408 0 36.4819 0Z" fill="#F4B459"/>
</svg>
