<svg width="86" height="25" viewBox="0 0 86 25" fill="none" xmlns="http://www.w3.org/2000/svg">
<path d="M22.9582 0.5V0.510485C22.9476 0.510485 19.6293 0.5 18.7444 3.6555C17.9332 6.54892 15.6472 14.5338 15.584 14.7539H14.952C14.952 14.7539 12.6133 6.59086 11.7916 3.64502C10.9067 0.489516 7.57781 0.5 7.57781 0.5H0V24.5H7.58133V10.246H8.21339L12.6379 24.4999H17.9016L22.3261 10.2564H22.9582V24.4999H30.5395V0.5H22.9582ZM50.6534 0.5C50.6534 0.5 48.4306 0.699184 47.3877 3.01612L42.0186 14.7539H41.3865V0.5H33.8052V24.5H40.9651C40.9651 24.5 43.2933 24.2903 44.3363 21.984L49.6 10.2461H50.2321V24.5H57.8134V0.5H50.6534ZM61.1843 11.3992V24.5H68.7657V16.8506H76.9792C80.5609 16.8506 83.5913 14.5757 84.7185 11.4027H61.1843V11.3992Z" fill="#4DB45E"/>
<path d="M76.9827 0.5H60.1205C60.9632 5.07076 64.4079 8.73646 68.8605 9.93157C69.8942 10.2102 70.9604 10.3512 72.0314 10.351H85.0274C85.1433 9.80587 85.196 9.25025 85.196 8.67367C85.1961 4.15871 81.5196 0.5 76.9827 0.5Z" fill="url(#paint0_linear)"/>
<defs>
<linearGradient id="paint0_linear" x1="60.1204" y1="5.42548" x2="85.196" y2="5.42548" gradientUnits="userSpaceOnUse">
<stop offset="0.3" stop-color="#00B4E6"/>
<stop offset="1" stop-color="#088CCB"/>
</linearGradient>
</defs>
</svg>
