<svg width="78" height="25" viewBox="0 0 78 25" fill="none" xmlns="http://www.w3.org/2000/svg">
<path d="M31.5007 0.5L27.6329 24.4519H33.815L37.6804 0.5H31.5007ZM50.1482 10.2567C47.9878 9.19499 46.6634 8.47845 46.6634 7.39259C46.6898 6.40531 47.7834 5.39384 50.2253 5.39384C52.2338 5.34363 53.7101 5.81336 54.83 6.28071L55.391 6.5299L56.2315 1.51856C55.0104 1.04884 53.0743 0.531279 50.6828 0.531279C44.5778 0.531279 40.279 3.69001 40.2523 8.2077C40.2019 11.5415 43.33 13.3915 45.6711 14.5012C48.0626 15.6397 48.8766 16.3778 48.8766 17.3892C48.8502 18.9422 46.9429 19.6587 45.1631 19.6587C42.6972 19.6587 41.3725 19.2897 39.3616 18.4244L38.5476 18.0553L37.6831 23.2633C39.1353 23.9057 41.806 24.4711 44.5781 24.5C51.0661 24.5 55.2878 21.3891 55.3408 16.5744C55.362 13.9332 53.7124 11.9103 50.1482 10.2567ZM72.0805 0.574125H67.2975C65.8236 0.574125 64.7037 0.996008 64.0655 2.50112L54.8826 24.4519H61.3705L63.1574 19.6995H70.4162L71.3433 24.4711H77.0655L72.0805 0.574125ZM64.9567 14.9034C65.0819 14.9155 67.447 7.14551 67.447 7.14551L69.3303 14.9034C69.3303 14.9034 66.1778 14.9034 64.9567 14.9034ZM22.4672 0.5L16.4103 16.7731L15.7505 13.5639C14.6306 9.86106 11.1194 5.83728 7.20093 3.83852L12.7473 24.428H19.2883L29.0083 0.502627H22.4672V0.5Z" fill="#2394BC"/>
<path d="M13.7129 3.5902C13.2409 1.76388 11.7356 0.532145 9.69116 0.505859H0.098787L0 0.949033C7.48272 2.78481 13.7634 8.43357 15.8009 13.7469L13.7129 3.5902Z" fill="#EFC75E"/>
</svg>
