<svg width="240" height="237" viewBox="0 0 240 237" fill="none" xmlns="http://www.w3.org/2000/svg">
<path d="M240 118.5C240 183.946 186.274 237 120 237C53.7258 237 0 183.946 0 118.5C0 53.0543 53.7258 0 120 0C186.274 0 240 53.0543 240 118.5ZM39.6 118.5C39.6 162.349 75.5963 197.895 120 197.895C164.404 197.895 200.4 162.349 200.4 118.5C200.4 74.6514 164.404 39.105 120 39.105C75.5963 39.105 39.6 74.6514 39.6 118.5Z" fill="#E5E5E5"/>
<path d="M240 118.5C240 139.091 234.567 159.326 224.236 177.212C213.905 195.098 199.033 210.016 181.085 220.498C163.137 230.979 142.734 236.662 121.885 236.985C101.036 237.309 80.4618 232.262 62.1896 222.342L81.267 188.074C93.5094 194.721 107.294 198.102 121.263 197.885C135.232 197.669 148.902 193.861 160.927 186.839C172.952 179.816 182.916 169.82 189.838 157.837C196.76 145.853 200.4 132.296 200.4 118.5H240Z" fill="#D52B1E"/>
</svg>
