<svg width="240" height="237" viewBox="0 0 240 237" fill="none" xmlns="http://www.w3.org/2000/svg">
<path d="M240 118.5C240 183.946 186.274 237 120 237C53.7258 237 0 183.946 0 118.5C0 53.0543 53.7258 0 120 0C186.274 0 240 53.0543 240 118.5ZM39.6 118.5C39.6 162.349 75.5963 197.895 120 197.895C164.404 197.895 200.4 162.349 200.4 118.5C200.4 74.6514 164.404 39.105 120 39.105C75.5963 39.105 39.6 74.6514 39.6 118.5Z" fill="#E5E5E5"/>
<path d="M240 118.5C240 135.504 236.294 152.309 229.134 167.773C221.975 183.237 211.529 196.999 198.506 208.123C185.483 219.247 170.188 227.473 153.66 232.243C137.132 237.012 119.758 238.214 102.719 235.765L108.422 197.067C119.838 198.708 131.478 197.903 142.552 194.708C153.626 191.512 163.873 186 172.599 178.547C181.324 171.094 188.323 161.874 193.12 151.513C197.917 141.152 200.4 129.893 200.4 118.5H240Z" fill="#D52B1E"/>
</svg>
