<svg width="266" height="263" viewBox="0 0 266 263" fill="none" xmlns="http://www.w3.org/2000/svg">
<path d="M266 131.5C266 204.125 206.454 263 133 263C59.5461 263 0 204.125 0 131.5C0 58.8746 59.5461 0 133 0C206.454 0 266 58.8746 266 131.5ZM43.89 131.5C43.89 180.159 83.7859 219.605 133 219.605C182.214 219.605 222.11 180.159 222.11 131.5C222.11 82.841 182.214 43.395 133 43.395C83.7859 43.395 43.89 82.841 43.89 131.5Z" fill="#E5E5E5"/>
<path d="M266 131.5C266 161.392 255.7 190.391 236.797 213.719C217.895 237.048 191.517 253.312 162.013 259.833C132.509 266.354 101.638 262.741 74.4881 249.591C47.3385 236.44 25.5304 214.537 12.658 187.49L52.3709 169.013C60.9954 187.135 75.6068 201.81 93.797 210.621C111.987 219.432 132.671 221.852 152.439 217.483C172.207 213.114 189.879 202.217 202.544 186.587C215.209 170.957 222.11 151.527 222.11 131.5H266Z" fill="#D52B1E"/>
</svg>
