<svg width="240" height="237" viewBox="0 0 240 237" fill="none" xmlns="http://www.w3.org/2000/svg">
<path d="M240 118.5C240 183.946 186.274 237 120 237C53.7258 237 0 183.946 0 118.5C0 53.0543 53.7258 0 120 0C186.274 0 240 53.0543 240 118.5ZM39.6 118.5C39.6 162.349 75.5963 197.895 120 197.895C164.404 197.895 200.4 162.349 200.4 118.5C200.4 74.6514 164.404 39.105 120 39.105C75.5963 39.105 39.6 74.6514 39.6 118.5Z" fill="#E5E5E5"/>
<path d="M240 118.5C240 134.062 236.896 149.471 230.866 163.848C224.835 178.225 215.996 191.288 204.853 202.292C193.71 213.296 180.481 222.025 165.922 227.98C151.363 233.935 135.759 237 120 237C104.241 237 88.6371 233.935 74.078 227.98C59.5189 222.025 46.2902 213.296 35.1472 202.292C24.0042 191.288 15.165 178.225 9.13445 163.848C3.10389 149.471 -1.37766e-06 134.062 0 118.5H39.6C39.6 128.926 41.6796 139.251 45.7201 148.883C49.7606 158.516 55.6828 167.268 63.1486 174.641C70.6144 182.013 79.4777 187.861 89.2322 191.851C98.9868 195.841 109.442 197.895 120 197.895C130.558 197.895 141.013 195.841 150.768 191.851C160.522 187.861 169.386 182.013 176.851 174.641C184.317 167.268 190.239 158.516 194.28 148.883C198.32 139.251 200.4 128.926 200.4 118.5H240Z" fill="#112ED0"/>
</svg>
