<svg width="229" height="47" viewBox="0 0 229 47" fill="none" xmlns="http://www.w3.org/2000/svg">
<path d="M19.1973 36.2441C19.1973 39.4199 18.3828 41.8984 16.7539 43.6797C15.125 45.4609 12.8574 46.3516 9.95117 46.3516C8.13477 46.3516 6.5293 45.9414 5.13477 45.1211C3.74023 44.3008 2.66797 43.123 1.91797 41.5879C1.16797 40.0527 0.792969 38.2715 0.792969 36.2441C0.792969 33.0918 1.60156 30.6309 3.21875 28.8613C4.83594 27.0918 7.11523 26.207 10.0566 26.207C12.8691 26.207 15.0957 27.1152 16.7363 28.9316C18.377 30.7363 19.1973 33.1738 19.1973 36.2441ZM5.04688 36.2441C5.04688 40.7324 6.70508 42.9766 10.0215 42.9766C13.3027 42.9766 14.9434 40.7324 14.9434 36.2441C14.9434 31.8027 13.291 29.582 9.98633 29.582C8.25195 29.582 6.99219 30.1562 6.20703 31.3047C5.43359 32.4531 5.04688 34.0996 5.04688 36.2441Z" fill="white"/>
<path d="M38.5684 26.5586V29.793H32.2402V46H28.0918V29.793H21.7637V26.5586H38.5684Z" fill="white"/>
<path d="M72.3758 1.19999V46H59.7038V10.992H51.3838V1.19999H72.3758Z" fill="white"/>
<path d="M95.4973 0.303986C101.94 0.303986 107.017 2.20265 110.729 5.99999C114.441 9.79732 116.297 15.2587 116.297 22.384C116.297 27.504 115.295 31.92 113.289 35.632C111.327 39.3013 108.532 42.096 104.905 44.016C101.321 45.936 97.1613 46.896 92.4253 46.896C89.908 46.896 87.4973 46.5973 85.1933 46C82.8893 45.4453 80.9266 44.656 79.3053 43.632L83.9133 34.544C86.0893 36.08 88.8413 36.848 92.1693 36.848C95.3693 36.848 97.9506 35.9733 99.9133 34.224C101.919 32.432 103.092 29.8507 103.433 26.48C100.873 28.656 97.524 29.744 93.3853 29.744C90.5693 29.744 87.988 29.168 85.6413 28.016C83.2946 26.8213 81.4173 25.1573 80.0093 23.024C78.644 20.848 77.9613 18.3733 77.9613 15.6C77.9613 12.5707 78.7293 9.90399 80.2653 7.59999C81.844 5.25332 83.956 3.46132 86.6013 2.22399C89.2893 0.943986 92.2546 0.303986 95.4973 0.303986ZM96.3933 20.656C98.228 20.656 99.7213 20.144 100.873 19.12C102.025 18.0533 102.601 16.6667 102.601 14.96C102.601 13.296 102.025 11.952 100.873 10.928C99.764 9.86132 98.2493 9.32799 96.3293 9.32799C94.5373 9.32799 93.0653 9.83999 91.9133 10.864C90.804 11.888 90.2493 13.2747 90.2493 15.024C90.2493 16.7307 90.804 18.096 91.9133 19.12C93.0653 20.144 94.5586 20.656 96.3933 20.656Z" fill="white"/>
<path d="M152.932 22.384C154.98 23.5787 156.558 25.0507 157.668 26.8C158.777 28.5493 159.332 30.5547 159.332 32.816C159.332 35.632 158.521 38.1067 156.9 40.24C155.278 42.3733 152.996 44.016 150.052 45.168C147.108 46.32 143.716 46.896 139.876 46.896C136.036 46.896 132.644 46.32 129.7 45.168C126.756 44.016 124.473 42.3733 122.852 40.24C121.23 38.1067 120.42 35.632 120.42 32.816C120.42 30.5547 120.974 28.5493 122.084 26.8C123.193 25.0507 124.772 23.5787 126.82 22.384C125.284 21.3173 124.089 20.016 123.236 18.48C122.425 16.944 122.02 15.2373 122.02 13.36C122.02 10.7573 122.766 8.47465 124.26 6.51199C125.753 4.50665 127.844 2.97065 130.532 1.90399C133.262 0.83732 136.377 0.303986 139.876 0.303986C143.374 0.303986 146.468 0.83732 149.156 1.90399C151.886 2.97065 153.998 4.50665 155.492 6.51199C156.985 8.47465 157.732 10.7573 157.732 13.36C157.732 15.2373 157.305 16.944 156.452 18.48C155.641 20.016 154.468 21.3173 152.932 22.384ZM139.876 9.19999C138.297 9.19999 137.017 9.62665 136.036 10.48C135.054 11.2907 134.564 12.4427 134.564 13.936C134.564 15.3867 135.033 16.5387 135.972 17.392C136.953 18.2027 138.254 18.608 139.876 18.608C141.497 18.608 142.798 18.2027 143.78 17.392C144.761 16.5387 145.252 15.3867 145.252 13.936C145.252 12.4427 144.761 11.2907 143.78 10.48C142.798 9.62665 141.497 9.19999 139.876 9.19999ZM139.876 38C141.924 38 143.545 37.5093 144.74 36.528C145.977 35.504 146.596 34.1387 146.596 32.432C146.596 30.7253 145.977 29.3813 144.74 28.4C143.545 27.376 141.924 26.864 139.876 26.864C137.828 26.864 136.185 27.376 134.948 28.4C133.753 29.3813 133.156 30.7253 133.156 32.432C133.156 34.1387 133.753 35.504 134.948 36.528C136.185 37.5093 137.828 38 139.876 38Z" fill="white"/>
<path d="M200.545 31.536V34.928H214.177V41.136H200.545V46H187.809V41.136H181.857V34.928H187.809V1.19999H208.289C214.561 1.19999 219.447 2.47999 222.945 5.03999C226.444 7.59999 228.193 11.376 228.193 16.368C228.193 21.36 226.444 25.136 222.945 27.696C219.447 30.256 214.561 31.536 208.289 31.536H200.545ZM215.393 16.496C215.393 14.7893 214.753 13.488 213.473 12.592C212.236 11.6533 210.465 11.184 208.161 11.184H200.545V21.872H208.161C210.465 21.872 212.236 21.4027 213.473 20.464C214.753 19.5253 215.393 18.2027 215.393 16.496Z" fill="white"/>
</svg>
