<svg width="130" height="72" viewBox="0 0 130 72" fill="none" xmlns="http://www.w3.org/2000/svg">
<path d="M10.4219 24L5.75 7.54688H5.60938C5.82812 10.349 5.9375 12.526 5.9375 14.0781V24H0.46875V1.15625H8.6875L13.4531 17.375H13.5781L18.25 1.15625H26.4844V24H20.8125V13.9844C20.8125 13.4635 20.8177 12.8854 20.8281 12.25C20.849 11.6146 20.9219 10.0573 21.0469 7.57812H20.9062L16.2969 24H10.4219Z" fill="white"/>
<path d="M35.3037 24.3125C33.8454 24.3125 32.5121 24.1562 31.3037 23.8438V18.9375C32.2829 19.3229 33.5225 19.5156 35.0225 19.5156C35.6683 19.5156 36.21 19.3698 36.6475 19.0781C37.0954 18.776 37.46 18.25 37.7412 17.5L30.2881 1.15625H36.9444L39.7569 8.125C39.861 8.39583 39.986 8.71875 40.1319 9.09375C40.2881 9.46875 40.4392 9.85938 40.585 10.2656C40.7308 10.6615 40.8662 11.0573 40.9912 11.4531C41.1162 11.849 41.2152 12.1927 41.2881 12.4844H41.5069C41.861 11.0677 42.3871 9.41146 43.085 7.51562L45.4131 1.15625H52.0694L45.1319 17.1875C44.2673 19.1875 43.4183 20.6615 42.585 21.6094C41.7517 22.5469 40.7517 23.2344 39.585 23.6719C38.4287 24.099 37.0017 24.3125 35.3037 24.3125Z" fill="white"/>
<path d="M63.9981 0.828125H69.9512V3.64062H70.4044C72.3627 3.64062 74.071 4 75.5294 4.71875C76.9981 5.4375 78.1231 6.44792 78.9044 7.75C79.696 9.05208 80.0919 10.5312 80.0919 12.1875C80.0919 13.9167 79.7065 15.4323 78.9356 16.7344C78.1648 18.026 77.0346 19.026 75.545 19.7344C74.0554 20.4427 72.2533 20.7969 70.1387 20.7969H69.9512V24.3125H63.9981V20.7969H63.6856C61.5815 20.7969 59.7898 20.4531 58.3106 19.7656C56.8419 19.0677 55.7325 18.0781 54.9825 16.7969C54.2325 15.5052 53.8575 13.9583 53.8575 12.1562C53.8575 10.4583 54.2533 8.95312 55.045 7.64062C55.8471 6.31771 56.9617 5.32292 58.3887 4.65625C59.8262 3.97917 61.5033 3.64062 63.42 3.64062H63.9981V0.828125ZM69.9512 16.125H70.1387C71.4512 16.125 72.4356 15.8021 73.0919 15.1562C73.7481 14.5104 74.0762 13.5104 74.0762 12.1562C74.0762 10.9688 73.7377 10.0417 73.0606 9.375C72.3835 8.69792 71.4304 8.35938 70.2012 8.35938H69.9512V16.125ZM63.9981 8.35938H63.6387C62.42 8.35938 61.4877 8.68229 60.8419 9.32812C60.196 9.97396 59.8731 10.9167 59.8731 12.1562C59.8731 13.5625 60.1856 14.5781 60.8106 15.2031C61.446 15.8177 62.4044 16.125 63.6856 16.125H63.9981V8.35938Z" fill="white"/>
<path d="M94.8019 24H88.63V6.20312H83.0519V1.15625H100.364V6.20312H94.8019V24Z" fill="white"/>
<path d="M120.902 16.4219C120.902 18.8594 120.069 20.7344 118.402 22.0469C116.746 23.349 114.392 24 111.34 24H104.59V1.15625H110.793V9.28125H111.106C114.293 9.28125 116.72 9.88542 118.387 11.0938C120.064 12.2917 120.902 14.0677 120.902 16.4219ZM110.793 19.2344H111.043C113.46 19.2344 114.668 18.3385 114.668 16.5469C114.668 14.8177 113.449 13.9531 111.012 13.9531H110.793V19.2344ZM129.199 24H122.981V1.15625H129.199V24Z" fill="white"/>
<path d="M28.3145 72H19.7852V59.1953H9.92383V72H1.39453V40.5898H9.92383V52.2344H19.7852V40.5898H28.3145V72Z" fill="white"/>
<path d="M63.902 72H54.2985L44.9743 56.0801V72H36.445V40.5898H44.9743V55.8008L53.9548 40.5898H63.279L53.5895 55.5859L63.902 72Z" fill="white"/>
<path d="M82.3021 72H73.8158V47.5293H66.1459V40.5898H89.9505V47.5293H82.3021V72Z" fill="white"/>
</svg>
