<svg width="78" height="32" viewBox="0 0 78 32" fill="none" xmlns="http://www.w3.org/2000/svg">
<path d="M22.6744 3.69231C13.4427 6.63968 6.8995 12.5344 3.14202 21.5061C2.39701 19.8219 2.0083 17.9433 2.0083 16C2.0083 8.25911 8.25996 2.0081 16.0017 2.0081C18.4311 2.0081 20.6985 2.62348 22.6744 3.69231Z" fill="white"/>
<path d="M22.545 28.3725C20.6014 29.4089 18.3664 29.9919 16.0018 29.9919C11.2725 29.9919 7.09396 27.6599 4.56738 24.0648C7.87137 22.5101 10.8514 20.6964 13.54 18.5911L22.545 28.3725Z" fill="white"/>
<path d="M29.9948 16C29.9948 19.1093 28.9907 21.9919 27.2415 24.3239L18.1069 14.4453C20.7307 11.6923 22.9657 8.583 24.8121 5.11741C27.9865 7.7085 29.9948 11.6275 29.9948 16Z" fill="white"/>
<path d="M16.0017 0C7.15864 0 0 7.1579 0 16C0 24.8421 7.15864 32 16.0017 32C24.8447 32 32.0033 24.8421 32.0033 16C32.0033 7.1579 24.8447 0 16.0017 0ZM16.0017 31.0283C7.7093 31.0283 1.00415 24.2915 1.00415 16C1.00415 7.7085 7.7417 0.97166 16.0341 0.97166C24.3264 0.97166 31.064 7.7085 31.064 16C31.0316 24.2915 24.294 31.0283 16.0017 31.0283Z" fill="white"/>
<path d="M22.6744 3.69231C13.4427 6.63968 6.8995 12.5344 3.14202 21.5061C2.39701 19.8219 2.0083 17.9433 2.0083 16C2.0083 8.25911 8.25996 2.0081 16.0017 2.0081C18.4311 2.0081 20.6985 2.62348 22.6744 3.69231Z" fill="white"/>
<path d="M22.545 28.3725C20.6014 29.4089 18.3664 29.9919 16.0018 29.9919C11.2725 29.9919 7.09396 27.6599 4.56738 24.0648C7.87137 22.5101 10.8514 20.6964 13.54 18.5911L22.545 28.3725Z" fill="white"/>
<path d="M29.9948 16C29.9948 19.1093 28.9907 21.9919 27.2415 24.3239L18.1069 14.4453C20.7307 11.6923 22.9657 8.583 24.8121 5.11741C27.9865 7.7085 29.9948 11.6275 29.9948 16Z" fill="white"/>
<path d="M22.6744 3.69231C13.4427 6.63968 6.8995 12.5344 3.14202 21.5061C2.39701 19.8219 2.0083 17.9433 2.0083 16C2.0083 8.25911 8.25996 2.0081 16.0017 2.0081C18.4311 2.0081 20.6985 2.62348 22.6744 3.69231Z" fill="white"/>
<path d="M22.545 28.3725C20.6014 29.4089 18.3664 29.9919 16.0018 29.9919C11.2725 29.9919 7.09396 27.6599 4.56738 24.0648C7.87137 22.5101 10.8514 20.6964 13.54 18.5911L22.545 28.3725Z" fill="white"/>
<path d="M29.9948 16C29.9948 19.1093 28.9907 21.9919 27.2415 24.3239L18.1069 14.4453C20.7307 11.6923 22.9657 8.583 24.8121 5.11741C27.9865 7.7085 29.9948 11.6275 29.9948 16Z" fill="white"/>
<path d="M34.4653 6.76923H47.6489V9.39271H42.4338V22.6721H39.5185V9.39271H34.4653V6.76923Z" fill="white"/>
<path d="M51.1469 22.6721H48.1992L51.3736 6.76923H53.1552L56.524 17.5223L59.8604 6.76923H61.2532L64.5896 22.6721H61.7391L60.0547 14.3158L57.2042 22.6721H55.7142L52.6369 14.3158L51.1469 22.6721Z" fill="white"/>
<path d="M77.9999 21.1822C76.7042 22.3158 75.0522 22.9959 73.2707 22.9959C69.0597 22.9959 65.6909 19.2712 65.6909 14.7044C65.6909 10.1053 69.0921 6.41294 73.2707 6.41294C74.7607 6.41294 76.1535 6.89877 77.3197 7.70849L76.1212 10.1376C75.279 9.52225 74.2748 9.19837 73.2707 9.19837C70.5821 9.19837 68.8329 11.6599 68.8329 14.7368C68.8329 17.7814 70.5821 20.2753 73.2707 20.2753C74.4044 20.2753 75.5381 19.8218 76.4775 19.0769L77.9999 21.1822Z" fill="white"/>
<path d="M39.4858 25.0364H41.3646V25.6194H40.1013V28.9555H39.4858V25.0364V25.0364Z" fill="white"/>
<path d="M47.6489 25.0364H48.6531C49.3657 25.0364 49.9488 25.4251 49.9488 26.2672C49.9488 27.0445 49.4953 27.498 48.6207 27.498H48.2968V28.9231H47.6813V25.0364H47.6489ZM48.6531 25.587H48.2968V26.9797H48.6531C49.2037 26.9797 49.3333 26.6559 49.3333 26.2996C49.3009 25.8785 49.139 25.587 48.6531 25.587Z" fill="white"/>
<path d="M56.168 25.0364H56.8482L57.496 26.4939C57.5608 26.6559 57.6256 26.8502 57.658 27.0121H57.6904C57.7228 26.8502 57.7876 26.6882 57.8524 26.4939L58.3706 25.0364H59.0185L57.82 28.081C57.5932 28.6963 57.3665 28.9878 56.913 28.9878C56.7834 28.9878 56.6862 28.9555 56.6215 28.9231V28.3725C56.6539 28.4048 56.751 28.4048 56.8158 28.4048C56.9778 28.4048 57.0749 28.3401 57.2045 28.0486L57.3989 27.5951L56.168 25.0364Z" fill="white"/>
<path d="M67.4082 25.6196H66.0154V28.9557H65.3999V25.069H68.0561V28.9557H67.4406V25.6196H67.4082Z" fill="white"/>
<path d="M76.6719 25.6196H75.279V28.9557H74.6636V25.069H77.3197V28.9557H76.7043V25.6196H76.6719Z" fill="white"/>
</svg>
