<svg width="121" height="120" viewBox="0 0 121 120" fill="none" xmlns="http://www.w3.org/2000/svg">
<path d="M42.582 11.6129C38.3066 11.6129 34.8401 15.0794 34.8401 19.3549C34.8401 23.6303 38.3066 27.0968 42.582 27.0968C46.8575 27.0968 50.324 23.6303 50.324 19.3549C50.324 15.0794 46.8575 11.6129 42.582 11.6129ZM42.582 23.2258C40.4447 23.2258 38.7111 21.4922 38.7111 19.3549C38.7111 17.2167 40.4447 15.4839 42.582 15.4839C44.7201 15.4839 46.453 17.2167 46.453 19.3549C46.453 21.4922 44.7201 23.2258 42.582 23.2258Z" fill="#F7142E"/>
<path d="M118.066 38.7097H77.4207C76.3517 38.7097 75.4852 39.5761 75.4852 40.6452V84.3599C74.4222 83.8291 73.3078 83.4095 72.1579 83.1094C71.7579 82.9914 54.1949 79.6837 54.1949 79.6837V73.6217C60.1223 70.7041 63.8753 64.6709 63.8723 58.0645V40.6452H69.6788C70.7478 40.6452 71.6143 39.778 71.6143 38.7097V30.9677C71.6143 29.8987 70.7478 29.0323 69.6788 29.0323H67.4258C65.8486 18.5617 58.4711 9.89138 48.3884 6.65927V1.93548C48.3884 0.866431 47.522 0 46.453 0H38.711C37.642 0 36.7755 0.866431 36.7755 1.93548V6.65927C26.6929 9.89138 19.3154 18.5617 17.7382 29.0323H15.4852C14.4162 29.0323 13.5497 29.8987 13.5497 30.9677V38.7097C13.5497 39.778 14.4162 40.6452 15.4852 40.6452H21.2917V58.0645C21.2886 64.6701 25.0424 70.7026 30.9691 73.6202V79.6837C30.9691 79.6837 13.4061 82.9914 13.0681 83.092L13.0213 83.1071H13.0061C5.34132 85.1031 -0.00545517 92.0277 0.00134926 99.9481V118.065C0.00134926 119.133 0.867781 120 1.93683 120H83.2272C84.2962 120 85.1626 119.133 85.1626 118.065V99.9481C85.1589 98.8836 85.0591 97.8213 84.8633 96.7742H118.066C119.135 96.7742 120.001 95.907 120.001 94.8387V40.6452C120.001 39.5761 119.135 38.7097 118.066 38.7097ZM38.711 75.4839H46.453C47.6672 75.4808 48.8791 75.3516 50.0669 75.096C50.1538 75.0832 50.2393 75.0718 50.3239 75.0514V79.3548H34.8401V75.0476C34.9232 75.068 35.0087 75.0794 35.0933 75.0922C36.2826 75.3485 37.4945 75.4801 38.711 75.4839ZM48.4988 83.2258L42.582 91.5068L36.6652 83.2258H48.4988ZM40.6465 5.80645V3.87097H44.5175V5.80645H40.6465ZM42.582 9.67742C53.4305 9.67742 61.7577 19.3269 63.5238 29.0323H21.6402C23.4071 19.3269 31.7433 9.67742 42.582 9.67742ZM17.4207 32.9032H67.7433V36.7742H17.4207V32.9032ZM25.1626 58.0645V40.6452H60.0014V58.0645C60.015 63.5874 56.6657 68.5622 51.5434 70.6278C49.924 71.2765 48.1964 71.6106 46.453 71.6129H38.711C36.9714 71.6114 35.2476 71.2787 33.6327 70.6338C28.5051 68.5698 25.1505 63.592 25.1626 58.0645ZM3.87232 99.9481C3.87988 94.7291 6.89349 89.9818 11.6143 87.7545V116.129H3.87232V99.9481ZM15.4852 86.5335L23.2272 85.0759V116.129H15.4852V86.5335ZM27.0981 84.3485L32.0472 83.4193L41.0064 95.963C41.3693 96.4725 41.9567 96.7742 42.582 96.7742C43.208 96.7742 43.7947 96.4725 44.1576 95.963L53.1168 83.4193L58.0659 84.3485V116.129H27.0981V84.3485ZM61.9368 116.129V85.0759L69.6788 86.5335V116.129H61.9368ZM81.2917 99.9481V116.129H73.5497V87.7356C74.2234 88.0494 74.8713 88.4183 75.4852 88.838V94.8387C75.4852 95.907 76.3517 96.7742 77.4207 96.7742H80.9182C81.1654 97.8145 81.2902 98.8798 81.2917 99.9481ZM116.13 92.9032H79.3562V42.5806H116.13V92.9032Z" fill="#F7142E"/>
<path d="M77.0336 32.8639L86.711 34.7994C86.8381 34.8259 86.9681 34.8395 87.0981 34.8387H114.195C117.401 34.8387 120.001 32.2387 120.001 29.0323C120.001 25.8251 117.401 23.2258 114.195 23.2258H87.0981C87.0293 23.2349 86.9605 23.2485 86.8932 23.2659C86.8328 23.2659 86.7768 23.2508 86.7194 23.2659L77.0419 25.2014C76.1377 25.3821 75.4875 26.1752 75.4852 27.0968V30.9678C75.4852 31.8871 76.1324 32.6802 77.0336 32.8639ZM116.13 29.0323C116.13 30.1006 115.264 30.9678 114.195 30.9678H110.324V27.0968H114.195C115.264 27.0968 116.13 27.9632 116.13 29.0323ZM106.453 30.9678H89.0336V27.0968H106.453V30.9678ZM79.3562 28.683L85.1626 27.5225V30.5414L79.3562 29.3808V28.683Z" fill="#F7142E"/>
<path d="M83.2272 60H94.8401C95.9091 60 96.7756 59.1328 96.7756 58.0645V46.4516C96.7756 45.3825 95.9091 44.5161 94.8401 44.5161H83.2272C82.1581 44.5161 81.2917 45.3825 81.2917 46.4516V58.0645C81.2917 59.1328 82.1581 60 83.2272 60ZM85.1627 48.3871H92.9046V56.129H85.1627V48.3871Z" fill="#F7142E"/>
<path d="M83.2272 67.7419H112.259C113.328 67.7419 114.195 66.8748 114.195 65.8065C114.195 64.7374 113.328 63.871 112.259 63.871H83.2272C82.1581 63.871 81.2917 64.7374 81.2917 65.8065C81.2917 66.8748 82.1581 67.7419 83.2272 67.7419Z" fill="#F7142E"/>
<path d="M83.2272 75.4839H108.388C109.458 75.4839 110.324 74.6167 110.324 73.5484C110.324 72.4793 109.458 71.6129 108.388 71.6129H83.2272C82.1581 71.6129 81.2917 72.4793 81.2917 73.5484C81.2917 74.6167 82.1581 75.4839 83.2272 75.4839Z" fill="#F7142E"/>
<path d="M83.2272 90.9678H106.453C107.522 90.9678 108.388 90.1006 108.388 89.0323C108.388 87.9632 107.522 87.0968 106.453 87.0968H83.2272C82.1581 87.0968 81.2917 87.9632 81.2917 89.0323C81.2917 90.1006 82.1581 90.9678 83.2272 90.9678Z" fill="#F7142E"/>
<path d="M112.259 79.3549H108.388C107.319 79.3549 106.453 80.2213 106.453 81.2903C106.453 82.3586 107.319 83.2258 108.388 83.2258H112.259C113.328 83.2258 114.195 82.3586 114.195 81.2903C114.195 80.2213 113.328 79.3549 112.259 79.3549Z" fill="#F7142E"/>
<path d="M83.2272 83.2258H100.647C101.716 83.2258 102.582 82.3586 102.582 81.2903C102.582 80.2213 101.716 79.3549 100.647 79.3549H83.2272C82.1581 79.3549 81.2917 80.2213 81.2917 81.2903C81.2917 82.3586 82.1581 83.2258 83.2272 83.2258Z" fill="#F7142E"/>
<path d="M102.582 60H112.259C113.328 60 114.195 59.1328 114.195 58.0645C114.195 56.9955 113.328 56.129 112.259 56.129H102.582C101.513 56.129 100.646 56.9955 100.646 58.0645C100.646 59.1328 101.513 60 102.582 60Z" fill="#F7142E"/>
<path d="M102.582 52.2581H112.259C113.328 52.2581 114.195 51.3909 114.195 50.3226C114.195 49.2535 113.328 48.3871 112.259 48.3871H102.582C101.513 48.3871 100.646 49.2535 100.646 50.3226C100.646 51.3909 101.513 52.2581 102.582 52.2581Z" fill="#F7142E"/>
</svg>
