<svg width="121" height="114" viewBox="0 0 121 114" fill="none" xmlns="http://www.w3.org/2000/svg">
<path d="M16.1558 58.3596H1.78387C0.799683 58.3596 0.00134277 59.157 0.00134277 60.1412V111.753C0.00134277 112.737 0.799683 113.536 1.78387 113.536H16.1558C17.14 113.536 17.9384 112.737 17.9384 111.753V95.4659C17.9384 94.4818 17.14 93.6843 16.1558 93.6843C15.1716 93.6843 14.3742 94.4818 14.3742 95.4659V109.972H3.56549V61.9238H14.3742V89.5251C14.3742 90.5102 15.1716 91.3076 16.1558 91.3076C17.14 91.3076 17.9384 90.5102 17.9384 89.5251V60.1412C17.9384 59.157 17.14 58.3596 16.1558 58.3596Z" fill="#F7142E"/>
<path d="M41.6716 74.9443H27.2996C26.3154 74.9443 25.5171 75.7418 25.5171 76.726V111.753C25.5171 112.737 26.3154 113.536 27.2996 113.536H41.6716C42.6567 113.536 43.4541 112.737 43.4541 111.753V76.726C43.4541 75.7418 42.6567 74.9443 41.6716 74.9443ZM39.89 109.971H29.0812V78.5085H39.89V109.971Z" fill="#F7142E"/>
<path d="M67.1882 47.3027H52.8154C51.8312 47.3027 51.0328 48.1002 51.0328 49.0844V111.753C51.0328 112.737 51.8312 113.536 52.8154 113.536H67.1882C68.1724 113.536 68.9698 112.737 68.9698 111.753V49.0844C68.9698 48.1002 68.1724 47.3027 67.1882 47.3027ZM65.4057 109.971H54.597V50.8669H65.4057V109.971Z" fill="#F7142E"/>
<path d="M92.704 55.5956H78.3311C77.3469 55.5956 76.5486 56.393 76.5486 57.3772V111.753C76.5486 112.737 77.3469 113.536 78.3311 113.536H92.704C93.6882 113.536 94.4856 112.737 94.4856 111.753V57.3772C94.4856 56.393 93.6882 55.5956 92.704 55.5956ZM90.9214 109.971H80.1127V59.1597H90.9214V109.971Z" fill="#F7142E"/>
<path d="M118.219 30.718H103.847C102.863 30.718 102.064 31.5154 102.064 32.4996V56.0204C102.064 57.0046 102.863 57.803 103.847 57.803C104.831 57.803 105.628 57.0046 105.628 56.0204V34.2822H116.437V109.972H105.628V61.9622C105.628 60.978 104.831 60.1797 103.847 60.1797C102.863 60.1797 102.064 60.978 102.064 61.9622V111.753C102.064 112.737 102.863 113.536 103.847 113.536H118.219C119.203 113.536 120.001 112.737 120.001 111.753V32.4996C120.001 31.5154 119.203 30.718 118.219 30.718Z" fill="#F7142E"/>
<path d="M105.985 16.8926C107.424 17.8759 109.162 18.4526 111.033 18.4526C115.979 18.4526 120.001 14.4289 120.001 9.48413C120.001 4.53845 115.979 0.515625 111.033 0.515625C106.087 0.515625 102.064 4.53845 102.064 9.48413C102.064 11.2722 102.593 12.9384 103.498 14.3392L90.5644 26.9524C89.1261 25.9691 87.3875 25.3932 85.5171 25.3932C82.1745 25.3932 79.2558 27.2325 77.7131 29.9507L68.9094 27.0916C68.9479 26.7556 68.9698 26.415 68.9698 26.0689C68.9698 21.1241 64.9461 17.1004 60.0013 17.1004C55.0557 17.1004 51.0328 21.1241 51.0328 26.0689C51.0328 28.0263 51.6655 29.8391 52.7339 31.3149L39.1365 46.0448C37.7797 45.219 36.1866 44.742 34.4856 44.742C31.9844 44.742 29.7203 45.772 28.0925 47.4291L17.3085 40.4207C17.7131 39.3999 17.9384 38.2885 17.9384 37.1257C17.9384 32.1801 13.9146 28.1572 8.96893 28.1572C4.02417 28.1572 0.00134277 32.1801 0.00134277 37.1257C0.00134277 42.0705 4.02417 46.0942 8.96985 46.0942C11.4711 46.0942 13.7352 45.0634 15.3639 43.4062L26.147 50.4146C25.7423 51.4354 25.5171 52.5469 25.5171 53.7105C25.5171 58.6562 29.5408 62.679 34.4856 62.679C39.4313 62.679 43.455 58.6562 43.455 53.7105C43.455 51.7531 42.8224 49.9413 41.754 48.4645L55.3514 33.7346C56.7082 34.5613 58.3003 35.0374 60.0023 35.0374C63.3439 35.0374 66.2635 33.1981 67.8062 30.4799L76.609 33.3391C76.5706 33.6751 76.5495 34.0157 76.5495 34.3618C76.5495 39.3074 80.5723 43.3303 85.518 43.3303C90.4637 43.3303 94.4865 39.3074 94.4865 34.3618C94.4865 32.5728 93.9583 30.9066 93.0528 29.5067L105.985 16.8926ZM8.96985 42.5301C5.98981 42.5301 3.56549 40.1058 3.56549 37.1257C3.56549 34.1457 5.98981 31.7214 8.96985 31.7214C11.9499 31.7214 14.3742 34.1457 14.3742 37.1257C14.3742 40.1058 11.9499 42.5301 8.96985 42.5301ZM34.4856 59.1149C31.5056 59.1149 29.0812 56.6906 29.0812 53.7105C29.0812 50.7305 31.5056 48.3062 34.4856 48.3062C37.4656 48.3062 39.89 50.7305 39.89 53.7105C39.89 56.6906 37.4656 59.1149 34.4856 59.1149ZM60.0013 31.4733C57.0213 31.4733 54.597 29.049 54.597 26.0689C54.597 23.0889 57.0213 20.6646 60.0013 20.6646C62.9814 20.6646 65.4057 23.0889 65.4057 26.0689C65.4057 29.049 62.9814 31.4733 60.0013 31.4733ZM111.033 4.07977C114.013 4.07977 116.437 6.50409 116.437 9.48413C116.437 12.4642 114.013 14.8885 111.033 14.8885C108.053 14.8885 105.628 12.4642 105.628 9.48413C105.628 6.50409 108.053 4.07977 111.033 4.07977ZM85.5171 39.7652C82.537 39.7652 80.1127 37.3418 80.1127 34.3618C80.1127 31.3817 82.537 28.9574 85.5171 28.9574C88.4971 28.9574 90.9214 31.3817 90.9214 34.3618C90.9214 37.3418 88.4971 39.7652 85.5171 39.7652Z" fill="#F7142E"/>
</svg>
