<svg width="121" height="120" viewBox="0 0 121 120" fill="none" xmlns="http://www.w3.org/2000/svg">
<path d="M60.0177 0.0164795C26.9434 0.0164795 0.0340014 26.9259 0.0340014 60.0002C0.0340014 69.3944 2.27662 78.7112 6.48708 87.0392C-0.145949 99.8893 -2.4679 111.102 3.22281 116.795C5.34159 118.914 8.35432 119.972 12.1604 119.972C16.3186 119.972 21.425 118.711 27.3517 116.186L25.8367 112.625C16.2006 116.729 9.14378 117.24 5.96078 114.059C-1.06505 107.033 10.0784 82.6721 31.8834 57.3957L28.9519 54.8667C21.1444 63.9165 14.0063 73.6822 8.76646 82.8539C5.58152 75.7062 3.90392 67.8793 3.90392 60.0002C3.90392 29.0583 29.0758 3.88639 60.0177 3.88639C90.9596 3.88639 116.131 29.0583 116.131 60.0002C116.131 79.2607 106.373 96.2825 91.5459 106.393C89.3284 101.768 84.6458 98.6993 79.3672 98.6993C71.8983 98.6993 65.8225 104.777 65.8225 112.244C65.8225 113.442 65.9967 114.61 66.3063 115.752C64.2417 115.984 62.1442 116.114 60.0177 116.114C41.415 116.114 24.0565 106.917 13.5806 91.5109L10.3802 93.6878C21.5759 110.154 40.1321 119.984 60.0177 119.984C93.0919 119.984 120.001 93.0763 120.001 60.0002C120.001 26.9259 93.0919 0.0164795 60.0177 0.0164795ZM70.1665 115.177C69.8608 114.227 69.6925 113.246 69.6925 112.244C69.6925 106.909 74.0326 102.569 79.3672 102.569C83.2875 102.569 86.753 104.938 88.2468 108.465C82.7437 111.683 76.6486 113.987 70.1665 115.177Z" fill="#F7142E"/>
<path d="M68.8914 9.69128L65.0214 13.5612H59.2166L43.7369 29.0409H24.3874L16.6475 36.7807L23.8204 43.9536L26.5564 41.2175L22.1196 36.7807L25.9895 32.9108H39.867L26.3223 46.4555L40.6681 60.8012L54.2128 47.2565V61.1341L50.3429 65.004L45.906 60.5671L43.17 63.3031L50.3429 70.476L58.0827 62.7362V43.3866L73.5624 27.907V22.1021L77.4323 18.2322V9.69128H68.8914ZM40.6681 55.3292L31.7944 46.4555L52.2778 25.972L61.1515 34.8457L40.6681 55.3292ZM69.6924 26.3048L63.8876 32.1097L55.0139 23.236L60.8187 17.4311H65.0214L69.6924 22.1021V26.3048ZM73.5624 16.63L71.6274 18.565L68.5585 15.4962L70.4935 13.5612H73.5624V16.63Z" fill="#F7142E"/>
<path d="M98.7168 40.6505C92.314 40.6505 87.1071 45.8575 87.1071 52.2603C87.1071 58.663 92.314 63.87 98.7168 63.87C105.12 63.87 110.327 58.663 110.327 52.2603C110.327 45.8575 105.12 40.6505 98.7168 40.6505ZM98.7168 60.0001C94.4483 60.0001 90.977 56.5288 90.977 52.2603C90.977 47.9917 94.4483 44.5204 98.7168 44.5204C102.985 44.5204 106.457 47.9917 106.457 52.2603C106.457 56.5288 102.985 60.0001 98.7168 60.0001Z" fill="#F7142E"/>
<path d="M32.9283 77.4148C29.7279 77.4148 27.1234 80.0192 27.1234 83.2197C27.1234 86.4201 29.7279 89.0245 32.9283 89.0245C36.1287 89.0245 38.7332 86.4201 38.7332 83.2197C38.7332 80.0192 36.1287 77.4148 32.9283 77.4148ZM32.9283 85.1546C31.8621 85.1546 30.9933 84.2878 30.9933 83.2197C30.9933 82.1516 31.8621 81.2847 32.9283 81.2847C33.9944 81.2847 34.8632 82.1516 34.8632 83.2197C34.8632 84.2878 33.9944 85.1546 32.9283 85.1546Z" fill="#F7142E"/>
<path d="M69.6924 56.1302C66.492 56.1302 63.8876 58.7347 63.8876 61.9351C63.8876 65.1355 66.492 67.74 69.6924 67.74C72.8929 67.74 75.4973 65.1355 75.4973 61.9351C75.4973 58.7347 72.8929 56.1302 69.6924 56.1302ZM69.6924 63.8701C68.6263 63.8701 67.7575 63.0032 67.7575 61.9351C67.7575 60.869 68.6263 60.0002 69.6924 60.0002C70.7586 60.0002 71.6274 60.869 71.6274 61.9351C71.6274 63.0032 70.7586 63.8701 69.6924 63.8701Z" fill="#F7142E"/>
<path d="M52.2766 85.155H48.4067V89.0249H52.2766V85.155Z" fill="#F7142E"/>
<path d="M90.9757 77.4153H87.1058V81.2852H90.9757V77.4153Z" fill="#F7142E"/>
<path d="M60.0165 106.44H56.1465V110.309H60.0165V106.44Z" fill="#F7142E"/>
<path d="M87.1059 27.1063H83.236V30.9762H87.1059V27.1063Z" fill="#F7142E"/>
<path d="M73.5611 75.4802H69.6912V79.3501H73.5611V75.4802Z" fill="#F7142E"/>
<path d="M38.7319 13.5616H34.862V17.4316H38.7319V13.5616Z" fill="#F7142E"/>
</svg>
