<svg width="18" height="18" viewBox="0 0 18 18" fill="none" xmlns="http://www.w3.org/2000/svg">
<path fill-rule="evenodd" clip-rule="evenodd" d="M9 15.9231C12.8235 15.9231 15.9231 12.8235 15.9231 9C15.9231 5.17649 12.8235 2.07692 9 2.07692C5.17649 2.07692 2.07692 5.17649 2.07692 9C2.07692 12.8235 5.17649 15.9231 9 15.9231ZM9 18C13.9706 18 18 13.9706 18 9C18 4.02944 13.9706 0 9 0C4.02944 0 0 4.02944 0 9C0 13.9706 4.02944 18 9 18Z" fill="white"/>
<path d="M10.125 6.37995C10.125 7.24812 10.0904 8.04306 10.0212 8.76479C9.95193 9.48651 9.86539 10.2135 9.76154 10.9457H8.27308C8.15769 10.2135 8.06539 9.48651 7.99616 8.76479C7.92693 8.0326 7.89231 7.23766 7.89231 6.37995V3.46167H10.125V6.37995ZM10.3846 13.2991C10.3846 13.6652 10.2519 13.9633 9.98654 14.1934C9.72116 14.4235 9.39231 14.5386 9 14.5386C8.61923 14.5386 8.29039 14.4235 8.01346 14.1934C7.74808 13.9633 7.61539 13.6652 7.61539 13.2991C7.61539 12.933 7.74808 12.6349 8.01346 12.4048C8.29039 12.1642 8.61923 12.0439 9 12.0439C9.39231 12.0439 9.72116 12.1642 9.98654 12.4048C10.2519 12.6349 10.3846 12.933 10.3846 13.2991Z" fill="white"/>
</svg>
