<svg width="18" height="16" viewBox="0 0 18 16" fill="none" xmlns="http://www.w3.org/2000/svg">
<path fill-rule="evenodd" clip-rule="evenodd" d="M1 0C0.447 0 0 0.397333 0 0.888889C0 9.23378 7.612 16 17 16C17.553 16 18 15.6027 18 15.1111V12C18 11.5093 17.553 11.112 17 11.112C15.752 11.112 14.552 10.9333 13.428 10.6062C13.328 10.5778 13.223 10.5636 13.119 10.5636C12.864 10.5636 12.608 10.6507 12.413 10.824L10.212 12.7822C7.38 11.5022 5.065 9.44444 3.623 6.928L5.823 4.96622C6.098 4.72267 6.179 4.37156 6.068 4.064C5.7 3.064 5.499 1.99733 5.499 0.888889C5.499 0.397333 5.052 0 4.5 0H1Z" fill="white"/>
</svg>
