<svg width="200" height="200" viewBox="0 0 200 200" fill="none" xmlns="http://www.w3.org/2000/svg">
<path fill-rule="evenodd" clip-rule="evenodd" d="M192.661 100C192.661 151.175 151.175 192.661 100 192.661C48.825 192.661 7.33945 151.175 7.33945 100C7.33945 48.825 48.825 7.33945 100 7.33945C151.175 7.33945 192.661 48.825 192.661 100ZM200 100C200 155.228 155.228 200 100 200C44.7715 200 0 155.228 0 100C0 44.7715 44.7715 0 100 0C155.228 0 200 44.7715 200 100ZM166.817 63.1439C168.249 61.7099 168.248 59.3864 166.814 57.9541C165.38 56.5218 163.056 56.5231 161.624 57.9571L85.4113 134.257L46.6331 95.4341C45.2008 94.0002 42.8772 93.9989 41.4433 95.4312C40.0094 96.8634 40.008 99.187 41.4403 100.621L82.815 142.043C83.5033 142.732 84.4373 143.119 85.4113 143.119C86.3853 143.119 87.3194 142.732 88.0077 142.043L166.817 63.1439Z" fill="#27AE60"/>
</svg>
