<svg width="165" height="57" viewBox="0 0 165 57" fill="none" xmlns="http://www.w3.org/2000/svg">
<path d="M11.7535 35.4089H8.42511V24.0089H3.32844V35.4089H0V20.8999H11.7535V35.4089Z" fill="#5C5F63"/>
<path d="M25.3818 35.4089H16.5406V20.8999H25.1738V24.0089H19.8691V26.5584H24.5497V29.6675H19.8691V32.2999H25.3818V35.4089Z" fill="#5C5F63"/>
<path d="M32.8748 30.4759V35.4089H29.5464V20.8999C30.1843 20.8999 30.8847 20.8929 31.6475 20.8791C32.4241 20.8653 33.2077 20.8584 33.9982 20.8584C36.0507 20.8584 37.5485 21.3144 38.4916 22.2264C39.4208 23.1108 39.8854 24.2577 39.8854 25.6671C39.8854 27.0213 39.393 28.1751 38.4084 29.1286C37.4237 30.0682 36.1201 30.538 34.4974 30.538C33.7763 30.538 33.2354 30.5173 32.8748 30.4759ZM34.331 23.9675C34.3172 23.9675 34.2547 23.9744 34.1438 23.9882C34.0329 23.9882 33.8595 23.9951 33.6237 24.0089C33.388 24.0089 33.1383 24.0089 32.8748 24.0089V27.3253C33.4573 27.3944 33.9635 27.4289 34.3934 27.4289C34.962 27.4289 35.4266 27.2839 35.7872 26.9937C36.1617 26.6897 36.3489 26.2406 36.3489 25.6464C36.3489 24.5271 35.6763 23.9675 34.331 23.9675Z" fill="#5C5F63"/>
<path d="M43.6289 35.3675V20.9413C45.2515 20.8584 46.7215 20.8169 48.0391 20.8169C49.6478 20.8169 50.8613 21.1417 51.6795 21.7911C52.5116 22.4268 52.9277 23.3042 52.9277 24.4235C52.9277 25.8468 52.373 26.9246 51.2635 27.6569V27.6984C51.8876 27.9333 52.3868 28.334 52.7613 28.9006C53.1496 29.4671 53.3438 30.1719 53.3438 31.0148C53.3438 32.4657 52.8306 33.578 51.8044 34.3519C50.792 35.1119 49.4606 35.4919 47.8102 35.4919C45.8825 35.4919 44.4887 35.4504 43.6289 35.3675ZM48.2471 29.5431H46.9573V32.2584C47.2624 32.3413 47.6369 32.3828 48.0807 32.3828C49.3704 32.3828 50.0153 31.8715 50.0153 30.8489C50.0153 29.9784 49.4259 29.5431 48.2471 29.5431ZM47.9975 23.926C47.7478 23.926 47.4011 23.9537 46.9573 24.0089V26.6413H48.0599C49.0861 26.6413 49.5993 26.1715 49.5993 25.2319C49.5993 24.8311 49.4467 24.5133 49.1416 24.2784C48.8365 24.0435 48.4551 23.926 47.9975 23.926Z" fill="#5C5F63"/>
<path d="M72.1741 35.4089H68.8457V20.8999H72.1741V35.4089ZM61.8352 28.4653C61.6826 28.4653 61.3498 28.4999 60.8366 28.5689V32.2584C61.2804 32.3137 61.6063 32.3413 61.8144 32.3413C63.2012 32.3413 63.8946 31.6711 63.8946 30.3308C63.8946 29.7228 63.7144 29.2599 63.3538 28.942C62.9932 28.6242 62.487 28.4653 61.8352 28.4653ZM57.5082 20.8999H60.8366V25.4391C61.2388 25.3839 61.6688 25.3562 62.1264 25.3562C63.8461 25.3562 65.1567 25.7846 66.0581 26.6413C66.9734 27.498 67.4311 28.7002 67.4311 30.2479C67.4311 31.8231 66.9041 33.0875 65.8501 34.0409C64.7822 34.9806 63.3052 35.4504 61.4191 35.4504C60.5593 35.4504 59.8242 35.4435 59.214 35.4297C58.6177 35.4159 58.0491 35.4089 57.5082 35.4089V20.8999Z" fill="#5C5F63"/>
<path d="M86.3151 26.3926L79.8663 35.4089H76.9539V20.8999H80.2823V29.9162L86.7312 20.8999H89.6436V35.4089H86.3151V26.3926ZM79.2422 17.1689H82.3626C82.3626 17.5559 82.4597 17.8253 82.6538 17.9773C82.848 18.1293 83.1808 18.2053 83.6524 18.2053C84.0962 18.2053 84.4082 18.1362 84.5885 17.998C84.7688 17.846 84.8589 17.5697 84.8589 17.1689H87.9793C88.0071 18.1639 87.6118 18.9653 86.7936 19.5733C85.9892 20.1813 84.9421 20.4853 83.6524 20.4853C82.2794 20.4853 81.1976 20.1882 80.4071 19.594C79.6305 18.986 79.2422 18.1777 79.2422 17.1689Z" fill="#5C5F63"/>
<path d="M102.962 35.4089H99.6338V20.8999H102.983L107.476 27.0144L111.72 20.8999H114.861V35.4089H111.533V26.1646L107.476 31.8231H106.998L102.962 26.2268V35.4089Z" fill="#5C5F63"/>
<path d="M128.198 35.5748H124.87V33.6264C122.9 33.6126 121.326 33.1082 120.148 32.1133C118.983 31.1184 118.4 29.7297 118.4 27.9471C118.4 26.1784 118.99 24.8104 120.168 23.8431C121.347 22.862 122.914 22.3369 124.87 22.2679V20.734H128.198V22.2679C130.154 22.3093 131.721 22.8344 132.9 23.8431C134.106 24.8657 134.709 26.2337 134.709 27.9471C134.709 29.7159 134.113 31.0977 132.92 32.0926C131.728 33.1013 130.154 33.6126 128.198 33.6264V35.5748ZM131.173 27.9471C131.173 27.1595 130.923 26.5308 130.424 26.0609C129.939 25.5911 129.197 25.3424 128.198 25.3148V30.5795C129.252 30.5657 130.008 30.3446 130.466 29.9162C130.937 29.4879 131.173 28.8315 131.173 27.9471ZM121.937 27.9471C121.937 29.6606 122.914 30.538 124.87 30.5795V25.3148C123.899 25.3424 123.164 25.5911 122.665 26.0609C122.179 26.5308 121.937 27.1595 121.937 27.9471Z" fill="#5C5F63"/>
<path d="M148.746 35.4089H138.241V20.8999H141.569V32.2999H146.562V20.8999H149.89V32.2999H151.867V37.8962H148.746V35.4089Z" fill="#5C5F63"/>
<path fill-rule="evenodd" clip-rule="evenodd" d="M99.1246 0H165V57H99.1246V42.75H104.325V51.8182H159.799V5.18182H104.325V13.8182H99.1246V0Z" fill="#5C5F63"/>
</svg>
