<svg width="217" height="24" viewBox="0 0 217 24" fill="none" xmlns="http://www.w3.org/2000/svg">
<path d="M5.74575 23H0.753749V0.823999H15.8897V5.048H5.74575V23ZM26.3645 11.896C26.3645 12.984 26.4925 13.9653 26.7485 14.84C27.0258 15.7147 27.4098 16.472 27.9005 17.112C28.4125 17.7307 29.0312 18.2107 29.7565 18.552C30.4818 18.8933 31.3138 19.064 32.2525 19.064C33.1698 19.064 33.9912 18.8933 34.7165 18.552C35.4632 18.2107 36.0818 17.7307 36.5725 17.112C37.0845 16.472 37.4685 15.7147 37.7245 14.84C38.0018 13.9653 38.1405 12.984 38.1405 11.896C38.1405 10.808 38.0018 9.82667 37.7245 8.952C37.4685 8.056 37.0845 7.29867 36.5725 6.68C36.0818 6.04 35.4632 5.54933 34.7165 5.208C33.9912 4.86667 33.1698 4.696 32.2525 4.696C31.3138 4.696 30.4818 4.87733 29.7565 5.24C29.0312 5.58133 28.4125 6.072 27.9005 6.712C27.4098 7.33067 27.0258 8.088 26.7485 8.984C26.4925 9.85867 26.3645 10.8293 26.3645 11.896ZM43.2925 11.896C43.2925 13.7947 43.0045 15.4693 42.4285 16.92C41.8738 18.3493 41.1058 19.5547 40.1245 20.536C39.1432 21.496 37.9698 22.2213 36.6045 22.712C35.2605 23.2027 33.8098 23.448 32.2525 23.448C30.7378 23.448 29.3085 23.2027 27.9645 22.712C26.6205 22.2213 25.4472 21.496 24.4445 20.536C23.4418 19.5547 22.6525 18.3493 22.0765 16.92C21.5005 15.4693 21.2125 13.7947 21.2125 11.896C21.2125 9.99733 21.5112 8.33333 22.1085 6.904C22.7058 5.45333 23.5058 4.23733 24.5085 3.256C25.5325 2.27467 26.7058 1.53867 28.0285 1.048C29.3725 0.557332 30.7805 0.311998 32.2525 0.311998C33.7672 0.311998 35.1965 0.557332 36.5405 1.048C37.8845 1.53867 39.0578 2.27467 40.0605 3.256C41.0632 4.23733 41.8525 5.45333 42.4285 6.904C43.0045 8.33333 43.2925 9.99733 43.2925 11.896ZM60.7658 23.448C57.1604 23.448 54.4084 22.4453 52.5098 20.44C50.6324 18.4347 49.6938 15.5867 49.6938 11.896C49.6938 10.0613 49.9818 8.42933 50.5578 7C51.1338 5.54933 51.9231 4.33333 52.9258 3.352C53.9284 2.34933 55.1231 1.592 56.5098 1.08C57.8964 0.567998 59.4004 0.311998 61.0218 0.311998C61.9604 0.311998 62.8138 0.386665 63.5818 0.535999C64.3498 0.663999 65.0218 0.823999 65.5978 1.016C66.1738 1.18667 66.6538 1.368 67.0378 1.56C67.4218 1.752 67.6991 1.90133 67.8698 2.008L66.4298 6.04C65.7471 5.67733 64.9471 5.368 64.0298 5.112C63.1338 4.856 62.1098 4.728 60.9578 4.728C60.1898 4.728 59.4324 4.856 58.6858 5.112C57.9604 5.368 57.3098 5.784 56.7338 6.36C56.1791 6.91467 55.7311 7.64 55.3898 8.536C55.0484 9.432 54.8778 10.52 54.8778 11.8C54.8778 12.824 54.9844 13.784 55.1978 14.68C55.4324 15.5547 55.7951 16.312 56.2858 16.952C56.7978 17.592 57.4591 18.104 58.2698 18.488C59.0804 18.8507 60.0618 19.032 61.2138 19.032C61.9391 19.032 62.5898 18.9893 63.1658 18.904C63.7418 18.8187 64.2538 18.7227 64.7018 18.616C65.1498 18.488 65.5444 18.3493 65.8858 18.2C66.2271 18.0507 66.5364 17.912 66.8138 17.784L68.1898 21.784C67.4858 22.2107 66.4938 22.5947 65.2138 22.936C63.9338 23.2773 62.4511 23.448 60.7658 23.448Z" fill="#149ADB"/>
<path d="M86.4118 16.504C85.7931 17.912 85.1424 19.0747 84.4598 19.992C83.7771 20.888 83.0731 21.592 82.3478 22.104C81.6224 22.616 80.8864 22.968 80.1398 23.16C79.3931 23.352 78.6358 23.448 77.8678 23.448C77.1424 23.448 76.3851 23.3733 75.5958 23.224C74.8278 23.096 74.1024 22.904 73.4198 22.648L74.3158 18.648C75.3611 19.032 76.3958 19.224 77.4198 19.224C78.0811 19.224 78.7104 19.0747 79.3078 18.776C79.9264 18.4773 80.5131 17.8373 81.0678 16.856C80.1931 15.4907 79.3504 14.0933 78.5398 12.664C77.7504 11.2133 76.9931 9.79467 76.2678 8.408C75.5638 7 74.9024 5.656 74.2838 4.376C73.6864 3.07467 73.1531 1.89067 72.6838 0.823999H78.2198C78.5611 1.656 78.9344 2.552 79.3398 3.512C79.7664 4.45067 80.2144 5.432 80.6838 6.456C81.1531 7.45867 81.6224 8.472 82.0918 9.496C82.5824 10.4987 83.0518 11.48 83.4998 12.44C84.1824 10.5627 84.8331 8.64267 85.4518 6.68C86.0704 4.71733 86.6678 2.76533 87.2438 0.823999H92.5878C92.0331 2.46667 91.4891 4.00267 90.9558 5.432C90.4224 6.86133 89.8998 8.216 89.3878 9.496C88.8758 10.776 88.3638 11.992 87.8518 13.144C87.3611 14.296 86.8811 15.416 86.4118 16.504ZM108.103 23.448C104.498 23.448 101.746 22.4453 99.8472 20.44C97.9699 18.4347 97.0312 15.5867 97.0312 11.896C97.0312 10.0613 97.3192 8.42933 97.8952 7C98.4712 5.54933 99.2606 4.33333 100.263 3.352C101.266 2.34933 102.461 1.592 103.847 1.08C105.234 0.567998 106.738 0.311998 108.359 0.311998C109.298 0.311998 110.151 0.386665 110.919 0.535999C111.687 0.663999 112.359 0.823999 112.935 1.016C113.511 1.18667 113.991 1.368 114.375 1.56C114.759 1.752 115.037 1.90133 115.207 2.008L113.767 6.04C113.085 5.67733 112.285 5.368 111.367 5.112C110.471 4.856 109.447 4.728 108.295 4.728C107.527 4.728 106.77 4.856 106.023 5.112C105.298 5.368 104.647 5.784 104.071 6.36C103.517 6.91467 103.069 7.64 102.727 8.536C102.386 9.432 102.215 10.52 102.215 11.8C102.215 12.824 102.322 13.784 102.535 14.68C102.77 15.5547 103.133 16.312 103.623 16.952C104.135 17.592 104.797 18.104 105.607 18.488C106.418 18.8507 107.399 19.032 108.551 19.032C109.277 19.032 109.927 18.9893 110.503 18.904C111.079 18.8187 111.591 18.7227 112.039 18.616C112.487 18.488 112.882 18.3493 113.223 18.2C113.565 18.0507 113.874 17.912 114.151 17.784L115.527 21.784C114.823 22.2107 113.831 22.5947 112.551 22.936C111.271 23.2773 109.789 23.448 108.103 23.448ZM131.981 5.048C131.917 6.47733 131.832 7.91733 131.725 9.368C131.64 10.7973 131.469 12.184 131.213 13.528C130.978 14.872 130.626 16.1307 130.157 17.304C129.709 18.4773 129.08 19.512 128.269 20.408C127.48 21.304 126.488 22.0187 125.293 22.552C124.098 23.0853 122.637 23.384 120.909 23.448L120.365 19.096C121.901 18.9253 123.085 18.5413 123.917 17.944C124.749 17.3253 125.378 16.3867 125.805 15.128C126.338 13.5707 126.712 11.5653 126.925 9.112C127.16 6.63733 127.277 3.87467 127.277 0.823999H142.413V23H137.421V5.048H131.981ZM162.543 16.504C161.924 17.912 161.274 19.0747 160.591 19.992C159.908 20.888 159.204 21.592 158.479 22.104C157.754 22.616 157.018 22.968 156.271 23.16C155.524 23.352 154.767 23.448 153.999 23.448C153.274 23.448 152.516 23.3733 151.727 23.224C150.959 23.096 150.234 22.904 149.551 22.648L150.447 18.648C151.492 19.032 152.527 19.224 153.551 19.224C154.212 19.224 154.842 19.0747 155.439 18.776C156.058 18.4773 156.644 17.8373 157.199 16.856C156.324 15.4907 155.482 14.0933 154.671 12.664C153.882 11.2133 153.124 9.79467 152.399 8.408C151.695 7 151.034 5.656 150.415 4.376C149.818 3.07467 149.284 1.89067 148.815 0.823999H154.351C154.692 1.656 155.066 2.552 155.471 3.512C155.898 4.45067 156.346 5.432 156.815 6.456C157.284 7.45867 157.754 8.472 158.223 9.496C158.714 10.4987 159.183 11.48 159.631 12.44C160.314 10.5627 160.964 8.64267 161.583 6.68C162.202 4.71733 162.799 2.76533 163.375 0.823999H168.719C168.164 2.46667 167.62 4.00267 167.087 5.432C166.554 6.86133 166.031 8.216 165.519 9.496C165.007 10.776 164.495 11.992 163.983 13.144C163.492 14.296 163.012 15.416 162.543 16.504ZM179.802 23H174.81V0.823999H189.946V5.048H179.802V23ZM196.979 23V0.823999H201.939V13.912C202.707 12.76 203.528 11.5653 204.403 10.328C205.277 9.06933 206.152 7.864 207.027 6.712C207.923 5.53867 208.797 4.44 209.651 3.416C210.504 2.392 211.283 1.528 211.987 0.823999H216.051V23H211.123V8.472C209.245 10.6693 207.475 13.0053 205.811 15.48C204.147 17.9547 202.6 20.4613 201.171 23H196.979Z" fill="#D52B1E"/>
</svg>
