<svg width="24" height="24" viewBox="0 0 24 24" fill="none" xmlns="http://www.w3.org/2000/svg">
<path d="M12 0C5.37305 0 0 5.37306 0 12C0 18.6268 5.37305 24 12 24C18.6269 24 23.9999 18.6268 23.9999 12C23.9999 5.37306 18.6269 0 12 0ZM18.3368 17.5093L17.3759 18.4703C17.2044 18.6416 16.7021 18.7485 16.686 18.7485C13.6464 18.775 10.7197 17.5811 8.56938 15.4305C6.41315 13.2731 5.21783 10.336 5.24993 7.28613C5.24993 7.28475 5.35994 6.79685 5.53133 6.62709L6.49209 5.66617C6.84367 5.31296 7.51904 5.15334 7.99215 5.31162L8.19426 5.37904C8.66598 5.53718 9.16125 6.05876 9.29159 6.53929L9.77489 8.31313C9.90522 8.79505 9.72943 9.48066 9.37795 9.83224L8.73642 10.4739C9.36628 12.8057 11.1959 14.6356 13.528 15.267L14.1693 14.6252C14.5225 14.272 15.2079 14.0963 15.6888 14.2265L17.4624 14.7115C17.943 14.8436 18.4645 15.3357 18.6226 15.8073L18.69 16.0123C18.8467 16.4841 18.6883 17.1593 18.3368 17.5093Z" fill="white"/>
</svg>
