<svg width="26" height="26" viewBox="0 0 26 26" fill="none" xmlns="http://www.w3.org/2000/svg">
<path fill-rule="evenodd" clip-rule="evenodd" d="M13 23C18.5228 23 23 18.5228 23 13C23 7.47715 18.5228 3 13 3C7.47715 3 3 7.47715 3 13C3 18.5228 7.47715 23 13 23ZM13 26C20.1797 26 26 20.1797 26 13C26 5.8203 20.1797 0 13 0C5.8203 0 0 5.8203 0 13C0 20.1797 5.8203 26 13 26Z" fill="white"/>
<path d="M14.625 9.2153C14.625 10.4693 14.575 11.6176 14.475 12.6601C14.375 13.7025 14.25 14.7526 14.1 15.8102H11.95C11.7833 14.7526 11.65 13.7025 11.55 12.6601C11.45 11.6025 11.4 10.4542 11.4 9.2153V5H14.625V9.2153ZM15 19.2096C15 19.7384 14.8083 20.169 14.425 20.5014C14.0417 20.8338 13.5667 21 13 21C12.45 21 11.975 20.8338 11.575 20.5014C11.1917 20.169 11 19.7384 11 19.2096C11 18.6808 11.1917 18.2502 11.575 17.9178C11.975 17.5703 12.45 17.3966 13 17.3966C13.5667 17.3966 14.0417 17.5703 14.425 17.9178C14.8083 18.2502 15 18.6808 15 19.2096Z" fill="white"/>
</svg>
