<svg width="28" height="26" viewBox="0 0 28 26" fill="none" xmlns="http://www.w3.org/2000/svg">
<path fill-rule="evenodd" clip-rule="evenodd" d="M13 1H15V11H13V1ZM12 1C12 0.447693 12.4477 0 13 0H15C15.5523 0 16 0.447693 16 1V8.5H26C26.8284 8.5 27.5 9.17157 27.5 10V14C27.5 14.6752 27.054 15.2462 26.4404 15.4343L25.2499 23.3708C25.0664 24.5947 24.0151 25.5 22.7776 25.5H5.22235C3.98486 25.5 2.93359 24.5947 2.75006 23.3708L1.55957 15.4343C0.946045 15.2462 0.5 14.6752 0.5 14V10C0.5 9.17157 1.17157 8.5 2 8.5H12V1ZM12 9.5H2C1.72388 9.5 1.5 9.72388 1.5 10V14C1.5 14.2761 1.72388 14.5 2 14.5H26C26.2761 14.5 26.5 14.2761 26.5 14V10C26.5 9.72388 26.2761 9.5 26 9.5H16V11C16 11.5523 15.5523 12 15 12H13C12.4477 12 12 11.5523 12 11V9.5ZM3.73895 23.2225L2.58057 15.5H25.4194L24.261 23.2225C24.1509 23.9568 23.5201 24.5 22.7776 24.5H5.22235C4.47986 24.5 3.84912 23.9568 3.73895 23.2225ZM5.5 17V23H6.5V17H5.5ZM9.5 23V17H10.5V23H9.5ZM13.5 17V23H14.5V17H13.5ZM17.5 23V17H18.5V23H17.5ZM21.5 17V23H22.5V17H21.5Z" fill="#71C45C"/>
</svg>
