<svg width="54" height="54" viewBox="0 0 54 54" fill="none" xmlns="http://www.w3.org/2000/svg">
<g clip-path="url(#clip0)">
<path d="M27 33.0968C24.5989 33.0968 22.6451 35.0505 22.6451 37.4516C22.6451 39.8527 24.5989 41.8064 27 41.8064C29.4011 41.8064 31.3548 39.8527 31.3548 37.4516C31.3548 35.0505 29.4011 33.0968 27 33.0968ZM27 40.0645C25.5596 40.0645 24.3871 38.892 24.3871 37.4516C24.3871 36.0112 25.5596 34.8387 27 34.8387C28.4404 34.8387 29.6129 36.0112 29.6129 37.4516C29.6129 38.892 28.4404 40.0645 27 40.0645Z" fill="#F05023"/>
<path d="M26.129 3.48389H33.0968V5.22582H26.129V3.48389Z" fill="#F05023"/>
<path d="M26.129 6.96774H33.0968V8.70968H26.129V6.96774Z" fill="#F05023"/>
<path d="M20.9033 10.4516H33.0968V12.1936H20.9033V10.4516Z" fill="#F05023"/>
<path d="M20.9033 13.9355H33.0968V15.6774H20.9033V13.9355Z" fill="#F05023"/>
<path d="M20.9033 17.4193H33.0968V19.1613H20.9033V17.4193Z" fill="#F05023"/>
<path d="M54 27.871V20.9032H41.8064V27.871H47.0323V36.5806H36.5806V35.0815L34.4424 34.3684L35.4503 32.353L32.0986 29.0014L30.0824 30.0101L29.3701 27.871H27.871V22.6452H36.5806V12.1935H47.0323V17.0587L45.0352 15.0616L43.8036 16.2932L47.9032 20.3929L52.0029 16.2932L50.7713 15.0616L48.7742 17.0587V10.4516H36.5806V0H23.1555L17.4194 5.73614V10.4516H5.22581V17.0587L3.2287 15.0616L1.9971 16.2932L6.09677 20.3929L10.1964 16.2932L8.96484 15.0616L6.96774 17.0587V12.1935H17.4194V22.6452H26.129V27.871H24.6299L23.9176 30.0101L21.9014 29.0014L18.5497 32.353L19.5576 34.3684L17.4194 35.0815V36.5806H6.96774V27.871H12.1935V20.9032H0V27.871H5.22581V41.9302C3.7267 42.3193 2.6129 43.6721 2.6129 45.2903C2.6129 47.2117 4.17537 48.7742 6.09677 48.7742C8.01818 48.7742 9.58065 47.2117 9.58065 45.2903C9.58065 43.6721 8.46684 42.3193 6.96774 41.9302V38.3226H12.1935V48.9345C11.1822 49.2952 10.4516 50.2533 10.4516 51.3871C10.4516 52.8275 11.6241 54 13.0645 54C14.5049 54 15.6774 52.8275 15.6774 51.3871C15.6774 50.2533 14.9468 49.2952 13.9355 48.9345V38.3226H17.4194V39.8217L19.5576 40.5349L18.5497 42.5503L21.9014 45.9019L23.9176 44.8931L24.6299 47.0323H29.3692L30.0816 44.8931L32.0978 45.9019L35.4494 42.5503L34.4415 40.5349L36.5806 39.8217V38.3226H40.0645V48.9345C39.0532 49.2952 38.3226 50.2533 38.3226 51.3871C38.3226 52.8275 39.4951 54 40.9355 54C42.3759 54 43.5484 52.8275 43.5484 51.3871C43.5484 50.2533 42.8178 49.2952 41.8064 48.9345V38.3226H47.0323V41.9302C45.5332 42.3193 44.4194 43.6721 44.4194 45.2903C44.4194 47.2117 45.9818 48.7742 47.9032 48.7742C49.8246 48.7742 51.3871 47.2117 51.3871 45.2903C51.3871 43.6721 50.2733 42.3193 48.7742 41.9302V27.871H54ZM22.6452 2.97354V5.22581H20.3929L22.6452 2.97354ZM19.1613 6.96774H24.3871V1.74194H34.8387V20.9032H19.1613V6.96774ZM1.74194 22.6452H10.4516V26.129H1.74194V22.6452ZM7.83871 45.2903C7.83871 46.251 7.05748 47.0323 6.09677 47.0323C5.13607 47.0323 4.35484 46.251 4.35484 45.2903C4.35484 44.3296 5.13607 43.5484 6.09677 43.5484C7.05748 43.5484 7.83871 44.3296 7.83871 45.2903ZM13.0645 52.2581C12.584 52.2581 12.1935 51.8668 12.1935 51.3871C12.1935 50.9074 12.584 50.5161 13.0645 50.5161C13.5451 50.5161 13.9355 50.9074 13.9355 51.3871C13.9355 51.8668 13.5451 52.2581 13.0645 52.2581ZM34.8387 38.5654L32.8408 39.2318L32.6936 39.6158C32.6498 39.7273 32.6064 39.8383 32.5584 39.9459L32.3895 40.3231L33.3311 42.2062L31.7554 43.7819L29.8723 42.8403L29.4955 43.0091C29.3884 43.0572 29.2795 43.1006 29.1689 43.1427L28.7811 43.289L28.1138 45.2903H25.8853L25.2181 43.289L24.8302 43.1427C24.7197 43.1006 24.6108 43.0572 24.5036 43.0091L24.1268 42.8403L22.2437 43.7819L20.668 42.2062L21.6096 40.3231L21.4408 39.9459C21.3919 39.837 21.3493 39.7273 21.3055 39.6158L21.1584 39.2318L19.1613 38.5654V36.337L21.1592 35.6706L21.3064 35.2865C21.3502 35.1751 21.3936 35.0641 21.4416 34.9561L21.6105 34.5793L20.6689 32.6962L22.2446 31.1205L24.1277 32.0621L24.5045 31.8932C24.6116 31.8452 24.7205 31.8018 24.8311 31.7597L25.2189 31.6134L25.8862 29.6129H28.1147L28.7819 31.6143L29.1698 31.7606C29.2803 31.8027 29.3892 31.846 29.4964 31.8941L29.8732 32.0629L31.7563 31.1214L33.332 32.697L32.3904 34.5801L32.5592 34.9574C32.6081 35.0662 32.6507 35.176 32.6945 35.2874L32.8416 35.6714L34.8387 36.3378V38.5654ZM40.9355 52.2581C40.4549 52.2581 40.0645 51.8668 40.0645 51.3871C40.0645 50.9074 40.4549 50.5161 40.9355 50.5161C41.416 50.5161 41.8064 50.9074 41.8064 51.3871C41.8064 51.8668 41.416 52.2581 40.9355 52.2581ZM49.6452 45.2903C49.6452 46.251 48.8639 47.0323 47.9032 47.0323C46.9425 47.0323 46.1613 46.251 46.1613 45.2903C46.1613 44.3296 46.9425 43.5484 47.9032 43.5484C48.8639 43.5484 49.6452 44.3296 49.6452 45.2903ZM43.5484 22.6452H52.2581V26.129H43.5484V22.6452Z" fill="#F05023"/>
</g>
<defs>
<clipPath id="clip0">
<rect width="54" height="54" fill="white"/>
</clipPath>
</defs>
</svg>
