<svg width="54" height="54" viewBox="0 0 54 54" fill="none" xmlns="http://www.w3.org/2000/svg">
<path d="M53.9901 18.9C53.901 17.3601 52.0695 16.1568 48.4065 15.2388C48.5298 14.9688 48.5991 14.688 48.6 14.3964V8.10001H48.5847C48.2625 2.85481 26.7687 2.70001 24.3 2.70001C21.8313 2.70001 0.3375 2.85481 0.0153 8.10001H0V8.21701V14.3991C0.0045 16.1091 2.2113 17.4474 5.4945 18.4437C5.4495 18.5931 5.4225 18.7452 5.4135 18.9H5.4V19.017V25.1883C1.863 26.0991 0.0963 27.2853 0.009 28.8H0V28.917V35.0991C0.0027 36.2898 1.0764 37.2996 2.8332 38.1411C2.7666 38.3238 2.7252 38.5101 2.7135 38.7009H2.7V38.8179V45C2.7072 47.9934 9.4473 49.8519 16.9362 50.7195C16.9911 50.7303 17.0415 50.7528 17.1 50.7528C17.1171 50.7528 17.1315 50.7438 17.1486 50.7429C18.5922 50.9058 20.0592 51.0327 21.5109 51.1236C21.5415 51.1272 21.5685 51.1416 21.6 51.1416C21.6171 51.1416 21.6306 51.1326 21.6468 51.1317C23.49 51.2433 25.3035 51.3 27 51.3C28.6965 51.3 30.51 51.2433 32.3532 51.1308C32.3694 51.1317 32.3838 51.1407 32.4 51.1407C32.4315 51.1407 32.4585 51.1254 32.4891 51.1227C33.9408 51.0318 35.4078 50.9058 36.8514 50.742C36.8685 50.742 36.8829 50.751 36.9 50.751C36.9585 50.751 37.0089 50.7285 37.0638 50.7177C44.5527 49.8501 51.2919 47.9907 51.3 44.9964V38.7H51.2856C51.2226 37.5966 50.2821 36.6759 48.4245 35.9064C48.5379 35.6463 48.6 35.3763 48.6 35.0964V29.214C51.831 28.2204 53.9955 26.8911 54 25.1964V18.9H53.9901ZM46.7028 35.3889L46.3959 35.658C45.9234 36.0747 45.1359 36.495 44.1 36.9V32.6088C45.1701 32.2362 46.0809 31.8231 46.8 31.3704V35.0946C46.8 35.1873 46.7658 35.2863 46.7028 35.3889ZM26.5734 39.5712C26.442 39.5748 26.3097 39.5766 26.1774 39.5793C25.8561 39.5856 25.5267 39.5874 25.2009 39.5901V35.0946C25.4484 35.0919 25.6959 35.0883 25.9434 35.0838C25.9911 35.0829 26.0388 35.082 26.0865 35.0811C26.9928 35.064 27.8991 35.0361 28.8009 34.9947V39.4884C28.6083 39.4983 28.4148 39.5073 28.2195 39.5154C27.6777 39.5397 27.1305 39.5577 26.5734 39.5712ZM22.6431 39.5838C22.2309 39.5766 21.8205 39.5667 21.4128 39.5541C21.3624 39.5523 21.312 39.5505 21.2616 39.5487C20.7711 39.5325 20.2842 39.5118 19.8009 39.4884V34.9956C20.7027 35.0379 21.609 35.0658 22.5153 35.082C22.563 35.0829 22.6107 35.0838 22.6575 35.0847C22.905 35.0892 23.1525 35.0928 23.4 35.0955V39.5937C23.2254 39.5919 23.0508 39.5919 22.8771 39.5892C22.7979 39.5874 22.7214 39.5847 22.6431 39.5838ZM6.3873 37.5318C6.3576 37.5228 6.3297 37.5147 6.3 37.5066V33.1587C7.1406 33.3855 8.0442 33.5925 9 33.7806V38.1735C8.1738 37.998 7.4115 37.8135 6.7176 37.6245C6.6078 37.593 6.4944 37.5633 6.3873 37.5318ZM25.3575 44.9847C25.605 44.9892 25.8525 44.9928 26.1 44.9955V49.4946C24.8562 49.4829 23.6556 49.4469 22.5 49.3902V44.8965C23.4018 44.9388 24.3081 44.9667 25.2144 44.9829C25.2621 44.9829 25.3098 44.9838 25.3575 44.9847ZM28.7856 44.982C29.6919 44.9649 30.5982 44.937 31.5 44.8956V49.3893C30.3444 49.446 29.1438 49.482 27.9 49.4937V44.9946C28.1475 44.9919 28.395 44.9883 28.6425 44.9838C28.6902 44.9838 28.7379 44.9829 28.7856 44.982ZM36 44.5752V49.0446C35.1351 49.1355 34.2351 49.2156 33.3 49.2813V44.793C34.2126 44.7336 35.1144 44.6607 36 44.5752ZM37.8 44.3808C38.7279 44.2692 39.6288 44.1423 40.5 44.001V48.42C39.6522 48.5694 38.7513 48.7071 37.8 48.8322V44.3808ZM42.3 43.6797C43.2558 43.4916 44.1594 43.2846 45 43.0578V47.4057C44.1981 47.637 43.2954 47.8611 42.3 48.0726V43.6797ZM11.7 43.6797V48.0726C10.7046 47.8611 9.8019 47.637 9 47.4057V43.0578C9.8406 43.2846 10.7442 43.4925 11.7 43.6797ZM13.5 44.0019C14.3712 44.1432 15.2721 44.2701 16.2 44.3817V48.8331C15.2487 48.708 14.3478 48.5703 13.5 48.4209V44.0019ZM18 44.5752C18.8856 44.6607 19.7874 44.7336 20.7 44.7939V49.2822C19.7649 49.2165 18.8649 49.1364 18 49.0455V44.5752ZM15.7671 39.1932C15.6753 39.1842 15.5844 39.1743 15.4935 39.1653C15.4287 39.159 15.3648 39.1509 15.3 39.1446V34.6761C16.1856 34.7616 17.0874 34.8345 18 34.8948V39.3795C17.244 39.3255 16.497 39.2643 15.7671 39.1932ZM13.5 34.4808V38.9322C12.5487 38.8071 11.6478 38.6694 10.8 38.52V34.101C11.6712 34.2423 12.5721 34.3701 13.5 34.4808ZM31.1994 39.3372C31.0014 39.3525 30.8016 39.3678 30.6 39.3822V34.8939C31.5126 34.8336 32.4144 34.7616 33.3 34.6752V39.1446C32.7438 39.2031 32.175 39.258 31.5909 39.3057C31.4604 39.3174 31.3299 39.3273 31.1994 39.3372ZM35.1 38.9322V34.4808C36.0279 34.3692 36.9288 34.2423 37.8 34.101V38.52C36.9522 38.6694 36.0513 38.808 35.1 38.9322ZM39.6 33.7797C40.5558 33.5916 41.4594 33.3846 42.3 33.1578V37.5057C41.4981 37.737 40.5954 37.9611 39.6 38.1726V33.7797ZM27.2925 29.6685C26.6157 29.6514 25.9542 29.6253 25.3044 29.5938C25.2693 29.592 25.2342 29.5902 25.2 29.5893V25.0956C26.1018 25.1379 27.0081 25.1658 27.9144 25.182C27.9621 25.1829 28.0098 25.1838 28.0566 25.1847C28.3041 25.1892 28.5516 25.1928 28.7991 25.1955V29.6892C28.3608 29.6847 27.9189 29.6829 27.4914 29.673C27.4257 29.6712 27.3582 29.6703 27.2925 29.6685ZM6.3 16.8066V12.4587C7.1406 12.6855 8.0442 12.8925 9 13.0806V17.4735C8.8893 17.4501 8.775 17.4267 8.667 17.4033C8.1882 17.298 7.7211 17.1882 7.2747 17.0721C6.9345 16.9848 6.6114 16.8957 6.3 16.8066ZM22.6575 14.3847C22.905 14.3892 23.1525 14.3928 23.4 14.3955V18.8892C22.1886 18.8775 20.9844 18.846 19.8 18.7866V14.2965C20.7018 14.3388 21.6081 14.3667 22.5144 14.3829C22.5621 14.3829 22.6098 14.3838 22.6575 14.3847ZM26.0856 14.382C26.9919 14.3649 27.8982 14.337 28.8 14.2956V18.7857C28.647 18.7929 28.5003 18.8037 28.3464 18.8109C28.3338 18.8118 28.3212 18.8118 28.3077 18.8127C27.7038 18.8397 27.0882 18.8595 26.4645 18.8739C26.3673 18.8766 26.2701 18.8775 26.1729 18.8802C25.8525 18.8865 25.5249 18.8874 25.2 18.891V14.3955C25.4475 14.3928 25.695 14.3892 25.9425 14.3847C25.9902 14.3838 26.0379 14.3829 26.0856 14.382ZM46.5939 14.8338L46.5687 14.8284L46.2411 15.0831C45.7659 15.453 45.036 15.8274 44.1 16.1892V11.9079C45.1701 11.5353 46.0809 11.1222 46.8 10.6695V14.3937C46.8 14.5305 46.728 14.6781 46.5939 14.8338ZM35.1 18.2268V13.7808C36.0279 13.6692 36.9288 13.5423 37.8 13.401V17.8128C36.9468 17.964 36.0486 18.1026 35.1 18.2268ZM39.6 17.4663V13.0806C40.5558 12.8925 41.4594 12.6855 42.3 12.4587V16.7967C41.4936 17.0316 40.5855 17.2557 39.6 17.4663ZM33.3 13.9752V18.4392C32.4306 18.531 31.5306 18.6111 30.6 18.6777V14.1939C31.5126 14.1336 32.4144 14.0607 33.3 13.9752ZM15.3 18.441V13.9752C16.1856 14.0607 17.0874 14.1336 18 14.1939V18.6741C17.0838 18.6084 16.1802 18.5337 15.3 18.441ZM13.5 13.7808V18.2277C13.3218 18.2043 13.1364 18.1854 12.96 18.1611C12.8448 18.1449 12.735 18.1278 12.6216 18.1116C12.1014 18.0369 11.5929 17.9568 11.0943 17.8731C10.9944 17.856 10.8981 17.838 10.8 17.8209V13.4019C11.6712 13.5423 12.5721 13.6701 13.5 13.7808ZM23.1768 29.4651C23.0553 29.4561 22.9329 29.4471 22.8123 29.4381C22.2363 29.3931 21.6738 29.3436 21.1248 29.2887C21.0069 29.277 20.889 29.2644 20.772 29.2527C20.7477 29.25 20.7243 29.2464 20.7 29.2446V24.7752C21.5856 24.8607 22.4874 24.9336 23.4 24.9939V29.4795C23.3271 29.4741 23.2497 29.4705 23.1768 29.4651ZM17.2305 28.7928C16.8741 28.7361 16.5393 28.6749 16.2 28.6155V24.2019C17.0712 24.3432 17.9721 24.4701 18.9 24.5817V29.0331C18.3492 28.9602 17.8101 28.8846 17.2926 28.8036C17.2719 28.7991 17.2512 28.7955 17.2305 28.7928ZM14.4 23.8797V28.2654C13.4055 28.0521 12.5037 27.8253 11.7 27.5895V23.2578C12.5406 23.4846 13.4442 23.6925 14.4 23.8797ZM9.9 22.7079V26.9838C8.4852 26.4375 7.5726 25.8795 7.2756 25.3827L7.2153 25.2819C7.2099 25.254 7.2009 25.2243 7.2 25.1964V21.4695C7.9191 21.9222 8.8299 22.3353 9.9 22.7079ZM31.4856 25.182C32.3919 25.1649 33.2982 25.137 34.2 25.0956V29.5848C33.0174 29.6433 31.815 29.6757 30.6 29.6883V25.1955C30.8475 25.1928 31.095 25.1892 31.3425 25.1847C31.3902 25.1838 31.4379 25.1829 31.4856 25.182ZM43.1163 28.6353C42.7212 28.7037 42.3225 28.7712 41.913 28.8333C41.6781 28.8693 41.4378 28.9035 41.1966 28.9377C40.9689 28.9701 40.7322 28.998 40.5009 29.0277V24.5808C41.4288 24.4692 42.3297 24.3423 43.2009 24.201V28.62C43.1721 28.6254 43.1442 28.6308 43.1163 28.6353ZM37.0224 29.4039C36.6867 29.4318 36.3402 29.4498 36 29.4741V24.9939C36.9126 24.9336 37.8144 24.8616 38.7 24.7752V29.2401C38.1771 29.295 37.6551 29.3499 37.1178 29.3949C37.0854 29.3976 37.0548 29.4012 37.0224 29.4039ZM47.3076 27.7164C46.8594 27.8415 46.3851 27.9585 45.9009 28.0728C45.6768 28.125 45.4482 28.1772 45.2142 28.2276C45.1449 28.2429 45.0711 28.2564 45.0009 28.2717V23.8806C45.9567 23.6925 46.8603 23.4855 47.7009 23.2587V27.6066C47.5713 27.6426 47.4408 27.6795 47.3076 27.7164ZM52.1901 18.9585C52.1073 19.5696 50.7222 20.3823 48.2499 21.1464C45.0657 22.1301 40.0833 23.031 33.7689 23.31C33.4458 23.3235 33.1236 23.337 32.7942 23.3478C32.5251 23.3568 32.2551 23.3649 31.9806 23.3721C31.2354 23.3883 30.4794 23.4 29.7 23.4C28.9206 23.4 28.1646 23.3883 27.4194 23.3712C27.1458 23.3649 26.8758 23.3559 26.6058 23.3469C26.2755 23.337 25.9533 23.3226 25.6311 23.3091C19.3167 23.0301 14.3334 22.1292 11.1501 21.1455C8.6976 20.3877 7.3152 19.5813 7.2126 18.9729C7.2171 18.9558 7.2171 18.9414 7.2279 18.9198C7.2891 18.9351 7.3575 18.9477 7.4196 18.963C7.7715 19.0467 8.1324 19.1277 8.4996 19.2051C10.2879 19.5903 12.2697 19.9062 14.3811 20.1474C14.3883 20.1474 14.3937 20.151 14.4 20.151C14.4018 20.151 14.4036 20.1501 14.4045 20.1501C15.8427 20.3139 17.3349 20.4426 18.8667 20.5335C18.8784 20.5335 18.8883 20.5398 18.9 20.5398C18.9063 20.5398 18.9108 20.5362 18.9171 20.5362C20.0196 20.601 21.1365 20.6487 22.2669 20.6739C22.959 20.691 23.6385 20.7 24.3 20.7C24.7725 20.7 25.2567 20.6946 25.7454 20.6856C32.2848 20.5848 38.3454 19.8072 42.5628 18.6021C42.7572 18.5472 42.9471 18.4905 43.1343 18.4338C43.2486 18.3987 43.3656 18.3645 43.4763 18.3294C43.8021 18.225 44.1144 18.1179 44.4159 18.0063C44.4681 17.9865 44.5176 17.9667 44.5698 17.9469C44.8245 17.8506 45.0693 17.7507 45.3033 17.649C45.3708 17.6193 45.4401 17.5905 45.5058 17.5608C45.7551 17.4483 45.9963 17.3331 46.2195 17.2134C46.3203 17.1603 46.4076 17.1054 46.5021 17.0514C46.6101 16.9893 46.7181 16.9263 46.818 16.8624C46.8747 16.8264 46.9422 16.7922 46.9962 16.7562C51.0255 17.6301 52.0875 18.5859 52.1901 18.9585ZM24.3 4.50001C39.1401 4.50001 46.6461 6.83641 46.7865 8.17741C46.6776 8.78581 45.2961 9.58951 42.8499 10.3455C39.6657 11.3292 34.6833 12.2301 28.3689 12.5091C28.0458 12.5226 27.7236 12.5361 27.3942 12.5469C27.1251 12.5559 26.8551 12.564 26.5806 12.5712C25.8354 12.5883 25.0794 12.6 24.3 12.6C23.5206 12.6 22.7646 12.5883 22.0194 12.5712C21.7458 12.5649 21.4758 12.5559 21.2058 12.5469C20.8755 12.537 20.5533 12.5226 20.2311 12.5091C13.9167 12.2301 8.9334 11.3292 5.7501 10.3455C3.303 9.58951 1.9224 8.78581 1.8135 8.17741C1.9539 6.83641 9.4599 4.50001 24.3 4.50001ZM1.8 14.3964V10.6695C2.5191 11.1222 3.4299 11.5353 4.5 11.9079V16.2171C2.7495 15.561 1.8018 14.9031 1.8 14.3964ZM6.1596 26.8515C6.1731 26.8659 6.1938 26.8785 6.2073 26.8929C7.4394 28.1367 9.9909 29.1141 13.167 29.8431C13.2399 29.8602 13.3173 29.8764 13.3911 29.8935C13.6242 29.9457 13.8609 29.997 14.1003 30.0465C17.0172 30.6675 20.4993 31.1166 24.2928 31.3389C24.2955 31.3389 24.2973 31.3398 24.2991 31.3398C24.3009 31.3398 24.3018 31.3389 24.3027 31.3389C25.5213 31.41 26.7678 31.4595 28.0404 31.4811C28.6038 31.4928 29.1582 31.5 29.7 31.5C30.321 31.5 30.9582 31.4928 31.6062 31.4775C32.7834 31.4532 33.9435 31.4046 35.0874 31.338C35.0919 31.338 35.0955 31.3407 35.1 31.3407C35.1081 31.3407 35.1144 31.3362 35.1225 31.3362C38.9259 31.1121 42.4944 30.6585 45.5121 30.006C44.8587 30.348 43.9641 30.7017 42.8499 31.0464C39.4884 32.085 34.1199 33.0309 27.297 33.2505C27.0945 33.2568 26.8947 33.264 26.6895 33.2694C26.469 33.2748 26.2449 33.2784 26.0208 33.2829C25.4547 33.2919 24.885 33.3 24.3 33.3C23.5206 33.3 22.7646 33.2883 22.0194 33.2712C21.7458 33.2649 21.4758 33.2559 21.2058 33.2469C20.8755 33.237 20.5533 33.2226 20.2311 33.2091C13.9167 32.9301 8.9334 32.0292 5.7501 31.0455C3.2751 30.2805 1.89 29.4669 1.8099 28.8558C1.9098 28.5174 2.8197 27.6705 6.1596 26.8515ZM1.8 35.0964V31.3695C2.5191 31.8222 3.4299 32.2353 4.5 32.6079V36.9L3.9861 36.7002L3.9753 36.711C2.5623 36.1251 1.8018 35.55 1.8 35.0964ZM4.5 44.9964V41.2695C5.2191 41.7222 6.1299 42.1353 7.2 42.5079V46.8171C5.4495 46.161 4.5018 45.5031 4.5 44.9964ZM46.8 46.8171V42.5088C47.8701 42.1362 48.7809 41.7231 49.5 41.2704V44.9946C49.4991 45.5013 48.5505 46.1601 46.8 46.8171ZM49.4883 38.7693C49.3902 39.3786 48.0078 40.1868 45.5499 40.9464C42.3657 41.9301 37.3833 42.831 31.0689 43.11C30.7458 43.1235 30.4236 43.137 30.0942 43.1478C29.8251 43.1568 29.5551 43.1649 29.2806 43.1721C28.5354 43.1883 27.7794 43.2 27 43.2C26.2206 43.2 25.4637 43.1883 24.7176 43.1712C24.4467 43.1649 24.1794 43.1559 23.9121 43.1469C23.58 43.1361 23.256 43.1226 22.9311 43.1091C16.6167 42.8301 11.6343 41.9292 8.4501 40.9455C6.0696 40.2102 4.6944 39.429 4.5216 38.826C4.7898 38.9196 5.0679 39.0105 5.3532 39.0996C5.382 39.1086 5.4108 39.1176 5.4396 39.1257C5.6826 39.2004 5.931 39.2724 6.1857 39.3426C6.282 39.3696 6.3792 39.3966 6.4773 39.4227C6.6213 39.4614 6.7689 39.4983 6.9165 39.5361C10.1943 40.3758 14.3784 40.9707 18.8955 41.238C18.8973 41.238 18.8982 41.2389 18.9 41.2389C18.9009 41.2389 18.9018 41.238 18.9027 41.238C20.2977 41.3208 21.7224 41.3721 23.1624 41.3892C23.5458 41.3964 23.9265 41.4 24.3 41.4C24.7959 41.4 25.3035 41.3937 25.8174 41.3847C27.1305 41.3631 28.4265 41.3145 29.6937 41.2389C29.6964 41.2389 29.6982 41.2407 29.7009 41.2407C29.7054 41.2407 29.7081 41.238 29.7126 41.238C31.2561 41.1453 32.7501 41.013 34.1856 40.8483C34.191 40.8483 34.1955 40.851 34.2009 40.851C34.2207 40.851 34.2369 40.8411 34.2567 40.8393C35.8551 40.6548 37.3707 40.428 38.7774 40.1643C39.0672 40.1112 39.3525 40.0563 39.6351 39.9996C39.6981 39.987 39.7611 39.9744 39.8241 39.9609C42.4818 39.4155 44.7822 38.709 46.3608 37.8333C46.4472 37.7865 46.5282 37.7379 46.6101 37.6902C46.71 37.6308 46.8054 37.5705 46.8981 37.5093C46.9845 37.4535 47.0844 37.3995 47.1636 37.3428C48.9402 37.9764 49.4298 38.5434 49.4883 38.7693ZM49.5 27.0171V22.7088C50.5701 22.3362 51.4809 21.9231 52.2 21.4704V25.1946C52.1991 25.7013 51.2505 26.3601 49.5 27.0171Z" fill="#F05023"/>
</svg>
