<svg width="54" height="54" viewBox="0 0 54 54" fill="none" xmlns="http://www.w3.org/2000/svg">
<path d="M37.5634 43.2H29.4634V36C29.4634 33.5147 27.4487 31.5 24.9634 31.5H19.5634V26.559L31.7854 17.829C31.9834 17.6888 32.1165 17.4746 32.1544 17.235C32.1903 16.9961 32.1287 16.7529 31.9834 16.56L29.2834 12.96C28.9925 12.5732 28.4478 12.4857 28.0504 12.762L18.8254 19.143C20.4567 16.0697 19.2876 12.2558 16.2143 10.6247C13.141 8.99346 9.32715 10.1626 7.69601 13.2358C6.38438 15.7069 6.85947 18.7469 8.86242 20.7H7.86342C7.6095 20.7005 7.36751 20.8084 7.19741 20.997L1.38341 27.459C-0.212848 29.2424 -0.13376 31.9632 1.56341 33.651L6.32441 38.439C6.5115 38.6263 6.7716 38.7218 7.03541 38.7C7.3026 38.6794 7.54673 38.5409 7.70142 38.322L8.76342 36.819V53.1C8.76342 53.597 9.16639 54 9.66341 54H15.0634C15.5604 54 15.9634 53.597 15.9634 53.1V38.7H22.2634V43.2H19.5634C19.0664 43.2 18.6634 43.6029 18.6634 44.1V53.1C18.6634 53.597 19.0664 54 19.5634 54H37.5634C38.0604 54 38.4634 53.597 38.4634 53.1V44.1C38.4634 43.6029 38.0606 43.2 37.5634 43.2ZM8.76342 16.2C8.76342 13.7147 10.7782 11.7 13.2634 11.7C15.7487 11.7 17.7634 13.7147 17.7634 16.2C17.7634 18.6852 15.7487 20.7 13.2634 20.7C10.7782 20.7 8.76342 18.6852 8.76342 16.2ZM15.4054 22.5L14.1634 24.984L12.9214 22.5H15.4054ZM8.76342 32.139L7.32341 30.6L8.76342 29.16V32.139ZM15.0634 36.9C14.5664 36.9 14.1634 37.3029 14.1634 37.8V52.2H10.5634V27C10.5616 26.6366 10.3415 26.31 10.0054 26.172C9.67028 26.031 9.28328 26.1056 9.02442 26.361L5.42441 29.961C5.0814 30.311 5.0814 30.871 5.42441 31.221L8.36741 34.29L6.84641 36.414L2.81441 32.4C1.78628 31.3825 1.74263 29.7355 2.71541 28.665L8.26842 22.5H10.9054L13.3624 27.405C13.5891 27.8473 14.1314 28.0223 14.5738 27.7956C14.7418 27.7095 14.8785 27.5729 14.9644 27.405L17.5654 22.212L28.3654 14.733L29.9944 16.902L18.1414 25.371C17.9054 25.5389 17.7648 25.8103 17.7634 26.1V32.4C17.7634 32.897 18.1664 33.3 18.6634 33.3H24.9634C26.4546 33.3 27.6634 34.5088 27.6634 36V43.2H24.0634V37.8C24.0634 37.3029 23.6604 36.9 23.1634 36.9H15.0634ZM36.6634 52.2H20.4634V45H36.6634V52.2Z" fill="#F05023"/>
<path d="M52.8634 7.2C49.384 7.2 46.5634 4.3794 46.5634 0.9C46.5634 0.402975 46.1604 0 45.6634 0C45.1664 0 44.7634 0.402975 44.7634 0.9C44.7634 4.3794 41.9428 7.2 38.4634 7.2C37.9664 7.2 37.5634 7.60298 37.5634 8.1C37.5634 8.59702 37.9664 9 38.4634 9C41.9428 9 44.7634 11.8206 44.7634 15.3C44.7634 15.797 45.1664 16.2 45.6634 16.2C46.1604 16.2 46.5634 15.797 46.5634 15.3C46.5634 11.8206 49.384 9 52.8634 9C53.3604 9 53.7634 8.59702 53.7634 8.1C53.7634 7.60298 53.3606 7.2 52.8634 7.2ZM45.6634 11.592C44.8875 10.0958 43.6678 8.87603 42.1714 8.1C43.6677 7.32398 44.8874 6.10425 45.6634 4.608C46.4394 6.10425 47.6592 7.32398 49.1554 8.1C47.6592 8.87603 46.4394 10.0958 45.6634 11.592Z" fill="#F05023"/>
<path d="M30.4836 22.6723L28.0305 24.4711L29.0948 25.9226L31.5479 24.1239L30.4836 22.6723Z" fill="#F05023"/>
<path d="M41.5337 14.573L32.5365 21.1752L33.6014 22.6264L42.5986 16.0241L41.5337 14.573Z" fill="#F05023"/>
<path d="M37.9593 10.0491L32.5605 13.6486L33.5589 15.1462L38.9578 11.5467L37.9593 10.0491Z" fill="#F05023"/>
</svg>
