<svg width="190" height="66" viewBox="0 0 190 66" fill="none" xmlns="http://www.w3.org/2000/svg">
<path d="M13.5344 41H9.70164V27.8H3.83275V41H0V24.2H13.5344V41Z" fill="#25292F"/>
<path d="M29.2275 41H19.0468V24.2H28.988V27.8H22.8795V30.752H28.2693V34.352H22.8795V37.4H29.2275V41Z" fill="#25292F"/>
<path d="M37.8559 35.288V41H34.0231V24.2C34.7577 24.2 35.5642 24.192 36.4425 24.176C37.3368 24.16 38.2391 24.152 39.1494 24.152C41.513 24.152 43.2377 24.68 44.3236 25.736C45.3936 26.76 45.9286 28.088 45.9286 29.72C45.9286 31.288 45.3617 32.624 44.2278 33.728C43.094 34.816 41.5928 35.36 39.7243 35.36C38.8939 35.36 38.2711 35.336 37.8559 35.288ZM39.5327 27.752C39.5167 27.752 39.4449 27.76 39.3171 27.776C39.1893 27.776 38.9897 27.784 38.7182 27.8C38.4468 27.8 38.1593 27.8 37.8559 27.8V31.64C38.5266 31.72 39.1095 31.76 39.6046 31.76C40.2593 31.76 40.7943 31.592 41.2095 31.256C41.6407 30.904 41.8563 30.384 41.8563 29.696C41.8563 28.4 41.0818 27.752 39.5327 27.752Z" fill="#25292F"/>
<path d="M50.2393 40.952V24.248C52.1078 24.152 53.8006 24.104 55.3177 24.104C57.1702 24.104 58.5676 24.48 59.5098 25.232C60.468 25.968 60.947 26.984 60.947 28.28C60.947 29.928 60.3083 31.176 59.0307 32.024V32.072C59.7493 32.344 60.3242 32.808 60.7554 33.464C61.2026 34.12 61.4261 34.936 61.4261 35.912C61.4261 37.592 60.8353 38.88 59.6535 39.776C58.4877 40.656 56.9546 41.096 55.0542 41.096C52.8344 41.096 51.2294 41.048 50.2393 40.952ZM55.5572 34.208H54.0721V37.352C54.4234 37.448 54.8546 37.496 55.3656 37.496C56.8508 37.496 57.5934 36.904 57.5934 35.72C57.5934 34.712 56.9147 34.208 55.5572 34.208ZM55.2698 27.704C54.9823 27.704 54.5831 27.736 54.0721 27.8V30.848H55.3417C56.5234 30.848 57.1143 30.304 57.1143 29.216C57.1143 28.752 56.9386 28.384 56.5873 28.112C56.236 27.84 55.7968 27.704 55.2698 27.704Z" fill="#25292F"/>
<path d="M83.1096 41H79.2769V24.2H83.1096V41ZM71.2041 32.96C71.0285 32.96 70.6452 33 70.0543 33.08V37.352C70.5653 37.416 70.9406 37.448 71.1802 37.448C72.7772 37.448 73.5757 36.672 73.5757 35.12C73.5757 34.416 73.368 33.88 72.9528 33.512C72.5376 33.144 71.9547 32.96 71.2041 32.96ZM66.2216 24.2H70.0543V29.456C70.5174 29.392 71.0125 29.36 71.5395 29.36C73.5198 29.36 75.0289 29.856 76.0669 30.848C77.1209 31.84 77.6479 33.232 77.6479 35.024C77.6479 36.848 77.0411 38.312 75.8274 39.416C74.5977 40.504 72.8969 41.048 70.725 41.048C69.7349 41.048 68.8885 41.04 68.1858 41.024C67.4991 41.008 66.8444 41 66.2216 41V24.2Z" fill="#25292F"/>
<path d="M99.3932 30.56L91.9672 41H88.6136V24.2H92.4463V34.64L99.8723 24.2H103.226V41H99.3932V30.56ZM91.2486 19.88H94.8418C94.8418 20.328 94.9536 20.64 95.1771 20.816C95.4007 20.992 95.784 21.08 96.327 21.08C96.838 21.08 97.1973 21 97.4049 20.84C97.6125 20.664 97.7163 20.344 97.7163 19.88H101.31C101.341 21.032 100.886 21.96 99.9441 22.664C99.0179 23.368 97.8122 23.72 96.327 23.72C94.746 23.72 93.5003 23.376 92.59 22.688C91.6957 21.984 91.2486 21.048 91.2486 19.88Z" fill="#25292F"/>
<path d="M118.563 41H114.73V24.2H118.586L123.761 31.28L128.647 24.2H132.265V41H128.432V30.296L123.761 36.848H123.21L118.563 30.368V41Z" fill="#25292F"/>
<path d="M147.622 41.192H143.789V38.936C141.522 38.92 139.709 38.336 138.352 37.184C137.01 36.032 136.34 34.424 136.34 32.36C136.34 30.312 137.018 28.728 138.376 27.608C139.733 26.472 141.538 25.864 143.789 25.784V24.008H147.622V25.784C149.874 25.832 151.678 26.44 153.036 27.608C154.425 28.792 155.12 30.376 155.12 32.36C155.12 34.408 154.433 36.008 153.06 37.16C151.686 38.328 149.874 38.92 147.622 38.936V41.192ZM151.048 32.36C151.048 31.448 150.76 30.72 150.185 30.176C149.626 29.632 148.772 29.344 147.622 29.312V35.408C148.836 35.392 149.706 35.136 150.233 34.64C150.776 34.144 151.048 33.384 151.048 32.36ZM140.412 32.36C140.412 34.344 141.538 35.36 143.789 35.408V29.312C142.672 29.344 141.825 29.632 141.25 30.176C140.691 30.72 140.412 31.448 140.412 32.36Z" fill="#25292F"/>
<path d="M171.283 41H159.186V24.2H163.019V37.4H168.768V24.2H172.601V37.4H174.877V43.88H171.283V41Z" fill="#25292F"/>
<path fill-rule="evenodd" clip-rule="evenodd" d="M114.144 0H190V66H114.144V49.5H120.132V60H184.011V6H120.132V16H114.144V0Z" fill="#F05023"/>
</svg>
