<svg width="54" height="54" viewBox="0 0 54 54" fill="none" xmlns="http://www.w3.org/2000/svg">
<g clip-path="url(#clip0)">
<path d="M50.4 10.8C48.4146 10.8 46.8 12.4146 46.8 14.4C46.8 16.3853 48.4147 17.9999 50.4 17.9999C52.3854 17.9999 54 16.3854 54 14.4C54 12.4146 52.3854 10.8 50.4 10.8ZM50.4 16.2C49.4073 16.2 48.6 15.3927 48.6 14.4C48.6 13.4073 49.4072 12.5999 50.4 12.5999C51.3928 12.5999 52.2 13.4072 52.2 14.4C52.1999 15.3927 51.3927 16.2 50.4 16.2Z" fill="#F05023"/>
<path d="M3.59996 40.5C1.61462 40.5 0 42.1146 0 44.1C0 46.0853 1.61462 47.6999 3.59996 47.6999C5.58541 47.6999 7.19993 46.0853 7.19993 44.1C7.19993 42.1146 5.58541 40.5 3.59996 40.5ZM3.59996 45.9C2.60729 45.9 1.79993 45.0927 1.79993 44.1C1.79993 43.1072 2.60719 42.2999 3.59996 42.2999C4.59264 42.2999 5.4 43.1072 5.4 44.1C5.4 45.0927 4.59274 45.9 3.59996 45.9Z" fill="#F05023"/>
<path d="M48.6549 11.9376L40.8906 8.18912C40.4424 7.97217 39.9051 8.16117 39.6891 8.60857C39.4731 9.05586 39.6612 9.59407 40.1086 9.81007L47.8729 13.5585C47.9989 13.6197 48.1321 13.6485 48.2634 13.6485C48.5982 13.6485 48.9195 13.4613 49.0743 13.1391C49.2903 12.6918 49.1022 12.1536 48.6549 11.9376Z" fill="#F05023"/>
<path d="M40.5 46.7999C38.5145 46.7999 36.9 48.4146 36.9 50.3999C36.9 52.3853 38.5145 54 40.5 54C42.4854 54 44.1 52.3854 44.1 50.4C44.1 48.4147 42.4854 46.7999 40.5 46.7999ZM40.5 52.1999C39.5073 52.1999 38.7 51.3927 38.7 50.3999C38.7 49.4071 39.5073 48.6 40.5 48.6C41.4927 48.6 42.3 49.4072 42.3 50.4C42.3 51.3928 41.4927 52.1999 40.5 52.1999Z" fill="#F05023"/>
<path d="M38.7549 47.9377L30.9906 44.1892C30.5424 43.9723 30.0051 44.1604 29.7891 44.6087C29.5731 45.0559 29.7612 45.5942 30.2086 45.8102L37.9729 49.5586C38.0989 49.6198 38.2321 49.6486 38.3634 49.6486C38.6982 49.6486 39.0195 49.4614 39.1744 49.1392C39.3903 48.6918 39.2022 48.1537 38.7549 47.9377Z" fill="#F05023"/>
<path d="M27 24.3C25.0145 24.3 23.4 25.9146 23.4 27.9C23.4 29.8854 25.0146 31.4999 27 31.4999C28.9854 31.4999 30.6 29.8853 30.6 27.9C30.6 25.9146 28.9854 24.3 27 24.3ZM27 29.7C26.0073 29.7 25.2 28.8927 25.2 27.9C25.2 26.9073 26.0072 26.0999 27 26.0999C27.9927 26.0999 28.8 26.9072 28.8 27.9C28.8 28.8927 27.9927 29.7 27 29.7Z" fill="#F05023"/>
<path d="M25.4177 25.5384L19.4535 20.8899C19.061 20.5866 18.4959 20.6541 18.1899 21.0465C17.8847 21.439 17.954 22.0041 18.3465 22.3102L24.3107 26.9587C24.4755 27.0865 24.6699 27.1486 24.8634 27.1486C25.1316 27.1486 25.3962 27.0299 25.5744 26.8022C25.8795 26.4096 25.8102 25.8444 25.4177 25.5384Z" fill="#F05023"/>
<path d="M43.2 23.4C37.7415 23.4 33.3 27.8415 33.3 33.3001C33.3 38.7586 37.7415 43.2001 43.2 43.2001C48.6586 43.2001 53.1001 38.7586 53.1001 33.3001C53.1001 27.8415 48.6586 23.4 43.2 23.4ZM43.2 41.4C38.7333 41.4 35.1 37.7667 35.1 33.3C35.1 28.8332 38.7333 25.2 43.2 25.2C47.6667 25.2 51.3 28.8332 51.3 33.3C51.3 37.7667 47.6667 41.4 43.2 41.4Z" fill="#F05023"/>
<path d="M43.2 27C41.2146 27 39.6 28.6146 39.6 30.6C39.6 32.5854 41.2147 34.1999 43.2 34.1999C45.1855 34.1999 46.8 32.5853 46.8 30.6C46.8 28.6146 45.1855 27 43.2 27ZM43.2 32.4C42.2073 32.4 41.4 31.5927 41.4 30.6C41.4 29.6073 42.2072 28.7999 43.2 28.7999C44.1927 28.7999 45 29.6072 45 30.6C45 31.5927 44.1927 32.4 43.2 32.4Z" fill="#F05023"/>
<path d="M45.8109 35.9999H40.5891C39.0511 35.9999 37.8 37.2177 37.8 38.7134V41.0859C37.8 41.4071 37.971 41.7041 38.2491 41.8653C39.7575 42.7382 41.4692 43.2 43.2 43.2C44.9307 43.2 46.6425 42.7382 48.1509 41.8653C48.429 41.7051 48.6 41.4071 48.6 41.0868V38.7144C48.6 37.2177 47.349 35.9999 45.8109 35.9999ZM46.8 40.5494C44.5599 41.6654 41.8401 41.6654 39.5999 40.5494V38.7144C39.5999 38.2104 40.0436 37.8 40.589 37.8H45.8108C46.3561 37.8 46.7998 38.2104 46.7998 38.7144V40.5494H46.8Z" fill="#F05023"/>
<path d="M21.6 34.2001C16.1415 34.2001 11.7 38.6416 11.7 44.1001C11.7 49.5586 16.1415 54 21.6 54C27.0585 54 31.5 49.5585 31.5 44.1C31.5 38.6415 27.0585 34.2001 21.6 34.2001ZM21.6 52.2C17.1333 52.2 13.5 48.5667 13.5 44.1C13.5 39.6333 17.1333 36 21.6 36C26.0667 36 29.7 39.6333 29.7 44.1C29.7 48.5667 26.0667 52.2 21.6 52.2Z" fill="#F05023"/>
<path d="M21.6 37.8C19.6146 37.8 18.0001 39.4146 18.0001 41.4C18.0001 43.3854 19.6147 44.9999 21.6 44.9999C23.5854 44.9999 25.2 43.3853 25.2 41.4C25.2 39.4146 23.5855 37.8 21.6 37.8ZM21.6 43.2C20.6074 43.2 19.8 42.3927 19.8 41.4C19.8 40.4073 20.6072 39.5999 21.6 39.5999C22.5927 39.5999 23.4001 40.4072 23.4001 41.4C23.4001 42.3927 22.5927 43.2 21.6 43.2Z" fill="#F05023"/>
<path d="M24.2109 46.7999H18.9891C17.4511 46.7999 16.2 48.0177 16.2 49.5134V51.8859C16.2 52.2071 16.371 52.5041 16.6491 52.6653C18.1575 53.5382 19.8693 54 21.6 54C23.3308 54 25.0425 53.5382 26.5509 52.6653C26.829 52.5051 27 52.2072 27 51.8868V49.5144C27 48.0177 25.749 46.7999 24.2109 46.7999ZM25.2 51.3494C22.9598 52.4654 20.2401 52.4654 17.9999 51.3494V49.5144C17.9999 49.0103 18.4436 48.6 18.989 48.6H24.2108C24.7562 48.6 25.1999 49.0103 25.1999 49.5144V51.3494H25.2Z" fill="#F05023"/>
<path d="M9.90003 11.7C4.4415 11.7 0 16.1414 0 21.6C0 27.0585 4.4415 31.5 9.90003 31.5C15.3586 31.5 19.8001 27.0585 19.8001 21.6C19.8 16.1414 15.3585 11.7 9.90003 11.7ZM9.90003 29.7C5.43333 29.7 1.80004 26.0667 1.80004 21.6C1.80004 17.1333 5.43333 13.5 9.90003 13.5C14.3667 13.5 18 17.1333 18 21.6C18 26.0667 14.3667 29.7 9.90003 29.7Z" fill="#F05023"/>
<path d="M9.90001 15.3C7.91456 15.3 6.30005 16.9147 6.30005 18.9C6.30005 20.8854 7.91467 22.5 9.90001 22.5C11.8855 22.5 13.5 20.8854 13.5 18.9C13.5 16.9147 11.8854 15.3 9.90001 15.3ZM9.90001 20.7C8.90734 20.7 8.09998 19.8928 8.09998 18.9C8.09998 17.9072 8.90724 17.1 9.90001 17.1C10.8927 17.1 11.7 17.9072 11.7 18.9C11.7 19.8928 10.8927 20.7 9.90001 20.7Z" fill="#F05023"/>
<path d="M12.5109 24.3H7.28918C5.75113 24.3 4.50006 25.5177 4.50006 27.0135V29.3859C4.50006 29.7072 4.67103 30.0042 4.94915 30.1653C6.45756 31.0383 8.16932 31.5 9.90006 31.5C11.6308 31.5 13.3426 31.0383 14.851 30.1653C15.1291 30.0051 15.3001 29.7072 15.3001 29.3869V27.0144C15.3001 25.5177 14.049 24.3 12.5109 24.3ZM13.5 28.8495C11.26 29.9655 8.54015 29.9655 6.29999 28.8495V27.0144C6.29999 26.5104 6.7437 26.1 7.28908 26.1H12.5108C13.0562 26.1 13.4999 26.5104 13.4999 27.0144V28.8495H13.5Z" fill="#F05023"/>
<path d="M31.5 0C26.0415 0 21.6 4.4415 21.6 9.90003C21.6 15.3586 26.0415 19.8001 31.5 19.8001C36.9585 19.8001 41.4 15.3586 41.4 9.90003C41.3999 4.4415 36.9584 0 31.5 0ZM31.5 18C27.0333 18 23.4 14.3667 23.4 9.90003C23.4 5.43333 27.0333 1.80004 31.5 1.80004C35.9667 1.80004 39.6 5.43333 39.6 9.90003C39.6 14.3667 35.9667 18 31.5 18Z" fill="#F05023"/>
<path d="M31.5 3.59998C29.5146 3.59998 27.9001 5.2146 27.9001 7.19994C27.9001 9.18528 29.5147 10.7999 31.5 10.7999C33.4854 10.7999 35.1 9.18539 35.1 7.20005C35.1 5.2147 33.4854 3.59998 31.5 3.59998ZM31.5 8.99998C30.5074 8.99998 29.7 8.19272 29.7 7.19994C29.7 6.20727 30.5073 5.39991 31.5 5.39991C32.4928 5.39991 33.3001 6.20716 33.3001 7.19994C33.3 8.19272 32.4927 8.99998 31.5 8.99998Z" fill="#F05023"/>
<path d="M34.1109 12.6H28.8892C27.3511 12.6 26.1 13.8178 26.1 15.3135V17.6859C26.1 18.0072 26.271 18.3042 26.5491 18.4654C28.0575 19.3383 29.7693 19.8001 31.5 19.8001C33.2308 19.8001 34.9425 19.3383 36.451 18.4654C36.7291 18.3052 36.9 18.0072 36.9 17.6869V15.3145C36.9 13.8177 35.649 12.6 34.1109 12.6ZM35.1 17.1495C32.86 18.2655 30.1401 18.2655 27.9 17.1495V15.3145C27.9 14.8104 28.3437 14.4001 28.8891 14.4001H34.1108C34.6562 14.4001 35.0999 14.8104 35.0999 15.3145V17.1495H35.1Z" fill="#F05023"/>
<path d="M23.1848 9.31405C22.8618 8.93784 22.2938 8.8928 21.9159 9.21596L15.6789 14.553C15.3009 14.876 15.2568 15.444 15.5798 15.822C15.7581 16.0299 16.01 16.137 16.2638 16.137C16.4708 16.137 16.6787 16.066 16.8488 15.9201L23.0858 10.583C23.4639 10.26 23.508 9.69205 23.1848 9.31405Z" fill="#F05023"/>
<path d="M43.02 23.7609L37.62 16.5609C37.322 16.1622 36.7578 16.0839 36.36 16.3809C35.9621 16.6788 35.8821 17.2431 36.1799 17.6399L41.5799 24.84C41.7572 25.0758 42.0272 25.1999 42.3008 25.1999C42.488 25.1999 42.678 25.1414 42.84 25.0199C43.2378 24.7221 43.3179 24.1578 43.02 23.7609Z" fill="#F05023"/>
<path d="M35.6337 36.2763C35.3358 35.8785 34.7715 35.7984 34.3737 36.0962L29.3463 39.8663C28.9485 40.1643 28.8684 40.7285 29.1663 41.1254C29.3435 41.3613 29.6135 41.4854 29.8871 41.4854C30.0752 41.4854 30.2642 41.426 30.4263 41.3054L35.4537 37.5353C35.8515 37.2375 35.9317 36.6732 35.6337 36.2763Z" fill="#F05023"/>
<path d="M12.6001 43.2H6.29999C5.80323 43.2 5.40002 43.6023 5.40002 44.1C5.40002 44.5977 5.80323 44.9999 6.29999 44.9999H12.6C13.0967 44.9999 13.4999 44.5977 13.4999 44.1C13.4999 43.6023 13.0968 43.2 12.6001 43.2Z" fill="#F05023"/>
<path d="M9.90006 0C7.91461 0 6.29999 1.61462 6.29999 3.59996C6.29999 5.58541 7.91461 7.19993 9.89995 7.19993C11.8854 7.19993 13.4999 5.58531 13.4999 3.59996C13.5 1.61462 11.8854 0 9.90006 0ZM9.90006 5.4C8.90739 5.4 8.10002 4.59274 8.10002 3.59996C8.10002 2.60729 8.90728 1.79993 9.90006 1.79993C10.8927 1.79993 11.7001 2.60719 11.7001 3.59996C11.7 4.59274 10.8927 5.4 9.90006 5.4Z" fill="#F05023"/>
<path d="M9.90003 5.39996C9.40327 5.39996 9.00006 5.80222 9.00006 6.29993V12.5999C9.00006 13.0976 9.40327 13.4999 9.90003 13.4999C10.3968 13.4999 10.8 13.0976 10.8 12.5999V6.29993C10.8 5.80222 10.3968 5.39996 9.90003 5.39996Z" fill="#F05023"/>
</g>
<defs>
<clipPath id="clip0">
<rect width="54" height="54" fill="white"/>
</clipPath>
</defs>
</svg>
