<svg width="262" height="52" viewBox="0 0 262 52" fill="none" xmlns="http://www.w3.org/2000/svg">
<path d="M34.0117 5.53846C20.1641 9.95951 10.3493 18.8016 4.71309 32.2591C3.59557 29.7328 3.01251 26.915 3.01251 24C3.01251 12.3887 12.39 3.01215 24.0026 3.01215C27.6467 3.01215 31.0478 3.93522 34.0117 5.53846Z" fill="#1F327D"/>
<path d="M33.8172 42.5587C30.9019 44.1134 27.5493 44.9879 24.0024 44.9879C16.9086 44.9879 10.6407 41.4899 6.85083 36.0972C11.8068 33.7652 16.2769 31.0446 20.3097 27.8867L33.8172 42.5587Z" fill="#1F327D"/>
<path d="M44.9925 24C44.9925 28.664 43.4863 32.9879 40.8625 36.4858L27.1607 21.668C31.0963 17.5385 34.4489 12.8745 37.2184 7.67612C41.9801 11.5628 44.9925 17.4413 44.9925 24Z" fill="#1F327D"/>
<path d="M24.0025 0C10.738 0 0 10.7368 0 24C0 37.2632 10.738 48 24.0025 48C37.267 48 48.005 37.2632 48.005 24C48.005 10.7368 37.267 0 24.0025 0ZM24.0025 46.5425C11.564 46.5425 1.50623 36.4372 1.50623 24C1.50623 11.5628 11.6125 1.45749 24.0511 1.45749C36.4896 1.45749 46.5959 11.5628 46.5959 24C46.5473 36.4372 36.441 46.5425 24.0025 46.5425Z" fill="#1F327D"/>
<path d="M34.0117 5.53846C20.1641 9.95951 10.3493 18.8016 4.71309 32.2591C3.59557 29.7328 3.01251 26.915 3.01251 24C3.01251 12.3887 12.39 3.01215 24.0026 3.01215C27.6467 3.01215 31.0478 3.93522 34.0117 5.53846Z" fill="#1F327D"/>
<path d="M33.8172 42.5587C30.9019 44.1134 27.5493 44.9879 24.0024 44.9879C16.9086 44.9879 10.6407 41.4899 6.85083 36.0972C11.8068 33.7652 16.2769 31.0446 20.3097 27.8867L33.8172 42.5587Z" fill="#1F327D"/>
<path d="M44.9925 24C44.9925 28.664 43.4863 32.9879 40.8625 36.4858L27.1607 21.668C31.0963 17.5385 34.4489 12.8745 37.2184 7.67612C41.9801 11.5628 44.9925 17.4413 44.9925 24Z" fill="#1F327D"/>
<path d="M34.0117 5.53846C20.1641 9.95951 10.3493 18.8016 4.71309 32.2591C3.59557 29.7328 3.01251 26.915 3.01251 24C3.01251 12.3887 12.39 3.01215 24.0026 3.01215C27.6467 3.01215 31.0478 3.93522 34.0117 5.53846Z" fill="#1F327D"/>
<path d="M33.8172 42.5587C30.9019 44.1134 27.5493 44.9879 24.0024 44.9879C16.9086 44.9879 10.6407 41.4899 6.85083 36.0972C11.8068 33.7652 16.2769 31.0446 20.3097 27.8867L33.8172 42.5587Z" fill="#1F327D"/>
<path d="M44.9925 24C44.9925 28.664 43.4863 32.9879 40.8625 36.4858L27.1607 21.668C31.0963 17.5385 34.4489 12.8745 37.2184 7.67612C41.9801 11.5628 44.9925 17.4413 44.9925 24Z" fill="#1F327D"/>
<path d="M51.6977 10.1538H71.473V14.0891H63.6504V34.0081H59.2774V14.0891H51.6977V10.1538Z" fill="#1F327D"/>
<path d="M76.7205 34.0081H72.299L77.0606 10.1538H79.733L84.7861 26.2834L89.7907 10.1538H91.88L96.8846 34.0081H92.6088L90.0822 21.4737L85.8065 34.0081H83.5714L78.9556 21.4737L76.7205 34.0081Z" fill="#1F327D"/>
<path d="M117 31.7733C115.057 33.4737 112.579 34.4939 109.906 34.4939C103.59 34.4939 98.5366 28.9069 98.5366 22.0567C98.5366 15.1579 103.638 9.61942 109.906 9.61942C112.141 9.61942 114.231 10.3482 115.98 11.5627L114.182 15.2065C112.919 14.2834 111.412 13.7976 109.906 13.7976C105.873 13.7976 103.25 17.4899 103.25 22.1052C103.25 26.672 105.873 30.4129 109.906 30.4129C111.607 30.4129 113.307 29.7328 114.716 28.6154L117 31.7733Z" fill="#1F327D"/>
<path d="M59.2289 37.5547H62.047V38.4291H60.1521V43.4332H59.2289V37.5547Z" fill="#1F327D"/>
<path d="M71.473 37.5546H72.9792C74.0482 37.5546 74.9227 38.1376 74.9227 39.4008C74.9227 40.5668 74.2425 41.2469 72.9306 41.2469H72.4448V43.3846H71.5216V37.5546H71.473ZM72.9792 38.3806H72.4448V40.4696H72.9792C73.8052 40.4696 73.9996 39.9838 73.9996 39.4494C73.951 38.8178 73.708 38.3806 72.9792 38.3806Z" fill="#1F327D"/>
<path d="M84.2516 37.5546H85.272L86.2438 39.7409C86.3409 39.9838 86.4381 40.2753 86.4867 40.5182H86.5353C86.5839 40.2753 86.6811 40.0324 86.7782 39.7409L87.5556 37.5546H88.5274L86.7296 42.1214C86.3895 43.0445 86.0494 43.4818 85.3692 43.4818C85.1748 43.4818 85.0291 43.4332 84.9319 43.3846V42.5587C84.9805 42.6073 85.1262 42.6073 85.2234 42.6073C85.4663 42.6073 85.6121 42.5101 85.8065 42.0729L86.098 41.3927L84.2516 37.5546Z" fill="#1F327D"/>
<path d="M101.112 38.4294H99.0225V43.4335H98.0993V37.6035H102.083V43.4335H101.16V38.4294H101.112Z" fill="#1F327D"/>
<path d="M115.008 38.4294H112.919V43.4335H111.995V37.6035H115.98V43.4335H115.056V38.4294H115.008Z" fill="#1F327D"/>
<path d="M148.857 13.5586H150.135V17.4961H148.383V15H142.078V6.43359H143.895V13.4883H147.047V6.43359H148.857V13.5586ZM156.987 15H152.053V6.43359H156.987V7.92188H153.87V9.80273H156.77V11.291H153.87V13.5H156.987V15ZM166.399 15H164.589V11.3027H161.196V15H159.38V6.43359H161.196V9.79102H164.589V6.43359H166.399V15ZM172.472 15H170.655V7.94531H168.329V6.43359H174.798V7.94531H172.472V15ZM178.533 10.4648H179.13C179.689 10.4648 180.107 10.3555 180.384 10.1367C180.662 9.91406 180.8 9.5918 180.8 9.16992C180.8 8.74414 180.683 8.42969 180.449 8.22656C180.218 8.02344 179.855 7.92188 179.359 7.92188H178.533V10.4648ZM182.634 9.10547C182.634 10.0273 182.345 10.7324 181.767 11.2207C181.193 11.709 180.375 11.9531 179.312 11.9531H178.533V15H176.716V6.43359H179.453C180.492 6.43359 181.281 6.6582 181.82 7.10742C182.363 7.55273 182.634 8.21875 182.634 9.10547ZM149.854 26.7051C149.854 28.123 149.502 29.2129 148.799 29.9746C148.096 30.7363 147.088 31.1172 145.775 31.1172C144.463 31.1172 143.455 30.7363 142.752 29.9746C142.049 29.2129 141.697 28.1191 141.697 26.6934C141.697 25.2676 142.049 24.1797 142.752 23.4297C143.459 22.6758 144.471 22.2988 145.787 22.2988C147.104 22.2988 148.109 22.6777 148.805 23.4355C149.504 24.1934 149.854 25.2832 149.854 26.7051ZM143.602 26.7051C143.602 27.6621 143.783 28.3828 144.146 28.8672C144.51 29.3516 145.053 29.5938 145.775 29.5938C147.225 29.5938 147.949 28.6309 147.949 26.7051C147.949 24.7754 147.229 23.8105 145.787 23.8105C145.064 23.8105 144.52 24.0547 144.152 24.543C143.785 25.0273 143.602 25.748 143.602 26.7051ZM154.045 25.7207H154.76C155.877 25.7207 156.741 25.9473 157.35 26.4004C157.959 26.8535 158.264 27.4941 158.264 28.3223C158.264 30.1074 157.084 31 154.725 31H152.229V22.4336H157.643V23.9336H154.045V25.7207ZM154.045 29.5117H154.655C155.268 29.5117 155.717 29.4141 156.002 29.2188C156.288 29.0195 156.43 28.7207 156.43 28.3223C156.43 27.9277 156.286 27.6445 155.996 27.4727C155.707 27.2969 155.211 27.209 154.508 27.209H154.045V29.5117ZM165.427 31H160.493V22.4336H165.427V23.9219H162.309V25.8027H165.21V27.291H162.309V29.5H165.427V31ZM171.458 23.8223C170.775 23.8223 170.245 24.0801 169.87 24.5957C169.495 25.1074 169.308 25.8223 169.308 26.7402C169.308 28.6504 170.025 29.6055 171.458 29.6055C172.06 29.6055 172.788 29.4551 173.644 29.1543V30.6777C172.941 30.9707 172.155 31.1172 171.288 31.1172C170.042 31.1172 169.089 30.7402 168.429 29.9863C167.769 29.2285 167.439 28.1426 167.439 26.7285C167.439 25.8379 167.601 25.0586 167.925 24.3906C168.249 23.7188 168.714 23.2051 169.32 22.8496C169.929 22.4902 170.642 22.3105 171.458 22.3105C172.29 22.3105 173.126 22.5117 173.966 22.9141L173.38 24.3906C173.06 24.2383 172.738 24.1055 172.413 23.9922C172.089 23.8789 171.771 23.8223 171.458 23.8223ZM182.851 31H181.041V23.9453H177.888V31H176.072V22.4336H182.851V31ZM190.547 31H185.613V22.4336H190.547V23.9219H187.43V25.8027H190.33V27.291H187.43V29.5H190.547V31ZM199.52 31H197.704V27.6895C197.102 27.8926 196.6 28.0312 196.198 28.1055C195.799 28.1797 195.418 28.2168 195.055 28.2168C194.239 28.2168 193.608 28.0215 193.163 27.6309C192.721 27.2363 192.5 26.6836 192.5 25.9727V22.4336H194.311V25.457C194.311 25.8711 194.407 26.1836 194.598 26.3945C194.789 26.6016 195.114 26.7051 195.571 26.7051C195.891 26.7051 196.209 26.6738 196.526 26.6113C196.846 26.5449 197.239 26.4316 197.704 26.2715V22.4336H199.52V31ZM207.216 31H202.282V22.4336H207.216V23.9219H204.098V25.8027H206.999V27.291H204.098V29.5H207.216V31ZM216.628 31H214.818V27.3027H211.425V31H209.609V22.4336H211.425V25.791H214.818V22.4336H216.628V31ZM219.396 22.4336H221.031V26.5703L221.007 27.6777L220.949 28.9375H220.984L224.939 22.4336H227.113V31H225.496V26.8867C225.496 26.3359 225.531 25.5195 225.601 24.4375H225.554L221.582 31H219.396V22.4336ZM232.758 27.7129L230.754 31H228.738L231.176 27.2324C230.691 27.0371 230.32 26.7363 230.062 26.3301C229.805 25.9199 229.676 25.4375 229.676 24.8828C229.676 24.0977 229.953 23.4941 230.508 23.0723C231.066 22.6465 231.867 22.4336 232.91 22.4336H235.699V31H233.883V27.7129H232.758ZM233.883 23.9219H232.986C232.518 23.9219 232.154 24.0059 231.896 24.1738C231.639 24.3418 231.51 24.6211 231.51 25.0117C231.51 25.3906 231.635 25.6895 231.885 25.9082C232.135 26.127 232.518 26.2363 233.033 26.2363H233.883V23.9219ZM143.895 42.7207H144.609C145.727 42.7207 146.59 42.9473 147.199 43.4004C147.809 43.8535 148.113 44.4941 148.113 45.3223C148.113 47.1074 146.934 48 144.574 48H142.078V39.4336H147.492V40.9336H143.895V42.7207ZM143.895 46.5117H144.504C145.117 46.5117 145.566 46.4141 145.852 46.2188C146.137 46.0195 146.279 45.7207 146.279 45.3223C146.279 44.9277 146.135 44.6445 145.846 44.4727C145.557 44.2969 145.061 44.209 144.357 44.209H143.895V46.5117ZM150.342 39.4336H151.977V43.5703L151.954 44.6777L151.895 45.9375H151.93L155.885 39.4336H158.059V48H156.442V43.8867C156.442 43.3359 156.477 42.5195 156.547 41.4375H156.5L152.528 48H150.342V39.4336ZM166.739 41.4375C166.739 41.9883 166.544 42.4434 166.153 42.8027C165.763 43.1621 165.233 43.3906 164.565 43.4883V43.5234C165.35 43.6016 165.952 43.8184 166.37 44.1738C166.792 44.5293 167.003 44.9922 167.003 45.5625C167.003 46.3516 166.682 46.9746 166.042 47.4316C165.405 47.8887 164.522 48.1172 163.393 48.1172C162.136 48.1172 161.126 47.9629 160.364 47.6543V46.1309C160.731 46.3066 161.161 46.4453 161.653 46.5469C162.149 46.6445 162.612 46.6934 163.042 46.6934C164.483 46.6934 165.204 46.2734 165.204 45.4336C165.204 45.0547 164.971 44.7637 164.507 44.5605C164.046 44.3574 163.362 44.2559 162.456 44.2559H161.653V42.8379H162.374C163.28 42.8379 163.94 42.752 164.354 42.5801C164.768 42.4082 164.975 42.123 164.975 41.7246C164.975 41.4316 164.845 41.1992 164.583 41.0273C164.325 40.8516 163.936 40.7637 163.417 40.7637C162.612 40.7637 161.835 40.9961 161.085 41.4609L160.294 40.248C160.782 39.9238 161.3 39.6875 161.846 39.5391C162.393 39.3867 163.001 39.3105 163.669 39.3105C164.602 39.3105 165.346 39.5059 165.901 39.8965C166.46 40.2871 166.739 40.8008 166.739 41.4375ZM176.222 48H174.411V44.3027H171.019V48H169.202V39.4336H171.019V42.791H174.411V39.4336H176.222V48ZM183.923 48H178.99V39.4336H183.923V40.9219H180.806V42.8027H183.707V44.291H180.806V46.5H183.923V48ZM189.955 40.8223C189.271 40.8223 188.742 41.0801 188.367 41.5957C187.992 42.1074 187.805 42.8223 187.805 43.7402C187.805 45.6504 188.521 46.6055 189.955 46.6055C190.557 46.6055 191.285 46.4551 192.141 46.1543V47.6777C191.438 47.9707 190.652 48.1172 189.785 48.1172C188.539 48.1172 187.586 47.7402 186.926 46.9863C186.266 46.2285 185.936 45.1426 185.936 43.7285C185.936 42.8379 186.098 42.0586 186.422 41.3906C186.746 40.7188 187.211 40.2051 187.816 39.8496C188.426 39.4902 189.139 39.3105 189.955 39.3105C190.787 39.3105 191.623 39.5117 192.463 39.9141L191.877 41.3906C191.557 41.2383 191.234 41.1055 190.91 40.9922C190.586 40.8789 190.268 40.8223 189.955 40.8223ZM199.813 48L199.192 45.9609H196.069L195.448 48H193.491L196.514 39.3984H198.735L201.77 48H199.813ZM198.758 44.4375C198.184 42.5898 197.86 41.5449 197.786 41.3027C197.715 41.0605 197.664 40.8691 197.633 40.7285C197.504 41.2285 197.135 42.4648 196.526 44.4375H198.758Z" fill="#636771"/>
<path fill-rule="evenodd" clip-rule="evenodd" d="M129 48V5H131V48H129Z" fill="#636771"/>
</svg>
