<svg width="262" height="124" viewBox="0 0 262 124" fill="none" xmlns="http://www.w3.org/2000/svg">
<rect width="262" height="124" fill="#1F327D"/>
<path d="M102.68 26.4615C86.5247 31.6194 75.0742 41.9352 68.4986 57.6356C67.1948 54.6883 66.5146 51.4008 66.5146 48C66.5146 34.4534 77.455 23.5142 91.0029 23.5142C95.2544 23.5142 99.2224 24.5911 102.68 26.4615Z" fill="white"/>
<path d="M102.453 69.6518C99.0523 71.4656 95.1409 72.4858 91.0029 72.4858C82.7267 72.4858 75.4142 68.4049 70.9927 62.1134C76.7747 59.3927 81.9898 56.2186 86.6947 52.5344L102.453 69.6518Z" fill="white"/>
<path d="M115.491 48C115.491 53.4413 113.734 58.4858 110.673 62.5668L94.6875 45.2794C99.2791 40.4615 103.19 35.0203 106.422 28.9555C111.977 33.4899 115.491 40.3482 115.491 48Z" fill="white"/>
<path d="M91.0029 20C75.5276 20 63 32.5263 63 48C63 63.4737 75.5276 76 91.0029 76C106.478 76 119.006 63.4737 119.006 48C119.006 32.5263 106.478 20 91.0029 20ZM91.0029 74.2996C76.4913 74.2996 64.7573 62.5101 64.7573 48C64.7573 33.4899 76.548 21.7004 91.0596 21.7004C105.571 21.7004 117.362 33.4899 117.362 48C117.305 62.5101 105.515 74.2996 91.0029 74.2996Z" fill="white"/>
<path d="M102.68 26.4615C86.5247 31.6194 75.0742 41.9352 68.4986 57.6356C67.1948 54.6883 66.5146 51.4008 66.5146 48C66.5146 34.4534 77.455 23.5142 91.0029 23.5142C95.2544 23.5142 99.2224 24.5911 102.68 26.4615Z" fill="white"/>
<path d="M102.453 69.6518C99.0523 71.4656 95.1409 72.4858 91.0029 72.4858C82.7267 72.4858 75.4142 68.4049 70.9927 62.1134C76.7747 59.3927 81.9898 56.2186 86.6947 52.5344L102.453 69.6518Z" fill="white"/>
<path d="M115.491 48C115.491 53.4413 113.734 58.4858 110.673 62.5668L94.6875 45.2794C99.2791 40.4615 103.19 35.0203 106.422 28.9555C111.977 33.4899 115.491 40.3482 115.491 48Z" fill="white"/>
<path d="M102.68 26.4615C86.5247 31.6194 75.0742 41.9352 68.4986 57.6356C67.1948 54.6883 66.5146 51.4008 66.5146 48C66.5146 34.4534 77.455 23.5142 91.0029 23.5142C95.2544 23.5142 99.2224 24.5911 102.68 26.4615Z" fill="white"/>
<path d="M102.453 69.6518C99.0523 71.4656 95.1409 72.4858 91.0029 72.4858C82.7267 72.4858 75.4142 68.4049 70.9927 62.1134C76.7747 59.3927 81.9898 56.2186 86.6947 52.5344L102.453 69.6518Z" fill="white"/>
<path d="M115.491 48C115.491 53.4413 113.734 58.4858 110.673 62.5668L94.6875 45.2794C99.2791 40.4615 103.19 35.0203 106.422 28.9555C111.977 33.4899 115.491 40.3482 115.491 48Z" fill="white"/>
<path d="M123.314 31.8461H146.385V36.4372H137.259V59.6761H132.157V36.4372H123.314V31.8461Z" fill="white"/>
<path d="M152.507 59.6761H147.349L152.904 31.8461H156.022L161.917 50.6639L167.756 31.8461H170.193L176.032 59.6761H171.044L168.096 45.0526L163.108 59.6761H160.5L155.115 45.0526L152.507 59.6761Z" fill="white"/>
<path d="M199.5 57.0688C197.233 59.0526 194.342 60.2429 191.224 60.2429C183.855 60.2429 177.959 53.7247 177.959 45.7328C177.959 37.6842 183.911 31.2227 191.224 31.2227C193.831 31.2227 196.269 32.0729 198.31 33.4899L196.212 37.7409C194.738 36.664 192.981 36.0971 191.224 36.0971C186.519 36.0971 183.458 40.4048 183.458 45.7895C183.458 51.1174 186.519 55.4818 191.224 55.4818C193.208 55.4818 195.192 54.6882 196.836 53.3846L199.5 57.0688Z" fill="white"/>
<path d="M132.1 63.8138H135.388V64.834H133.177V70.6721H132.1V63.8138Z" fill="white"/>
<path d="M146.385 63.8137H148.142C149.39 63.8137 150.41 64.4939 150.41 65.9676C150.41 67.3279 149.616 68.1214 148.086 68.1214H147.519V70.6153H146.442V63.8137H146.385ZM148.142 64.7773H147.519V67.2145H148.142C149.106 67.2145 149.333 66.6477 149.333 66.0242C149.276 65.2874 148.993 64.7773 148.142 64.7773Z" fill="white"/>
<path d="M161.294 63.8137H162.484L163.618 66.3643C163.731 66.6477 163.844 66.9878 163.901 67.2712H163.958C164.015 66.9878 164.128 66.7044 164.241 66.3643L165.148 63.8137H166.282L164.185 69.1417C163.788 70.2186 163.391 70.7287 162.597 70.7287C162.371 70.7287 162.201 70.672 162.087 70.6153V69.6518C162.144 69.7085 162.314 69.7085 162.427 69.7085C162.711 69.7085 162.881 69.5951 163.108 69.085L163.448 68.2915L161.294 63.8137Z" fill="white"/>
<path d="M180.964 64.8343H178.526V70.6724H177.449V63.8708H182.097V70.6724H181.02V64.8343H180.964Z" fill="white"/>
<path d="M197.176 64.8343H194.738V70.6724H193.661V63.8708H198.31V70.6724H197.233V64.8343H197.176Z" fill="white"/>
<path d="M51.5859 98.2734C51.5859 100.133 51.1198 101.578 50.1875 102.609C49.2604 103.641 47.9453 104.156 46.2422 104.156C44.5182 104.156 43.1927 103.646 42.2656 102.625C41.3438 101.599 40.8828 100.143 40.8828 98.2578C40.8828 96.3724 41.3464 94.9245 42.2734 93.9141C43.2057 92.9036 44.5339 92.3984 46.2578 92.3984C47.9557 92.3984 49.2682 92.9115 50.1953 93.9375C51.1224 94.9635 51.5859 96.4089 51.5859 98.2734ZM42.8672 98.2734C42.8672 99.6797 43.151 100.747 43.7188 101.477C44.2865 102.201 45.1276 102.562 46.2422 102.562C47.3516 102.562 48.1875 102.203 48.75 101.484C49.3177 100.766 49.6016 99.6953 49.6016 98.2734C49.6016 96.8724 49.3203 95.8099 48.7578 95.0859C48.2005 94.362 47.3672 94 46.2578 94C45.138 94 44.2917 94.362 43.7188 95.0859C43.151 95.8099 42.8672 96.8724 42.8672 98.2734ZM60.0391 100.914H60.1953C61.1328 100.914 61.8646 100.664 62.3906 100.164C62.9219 99.6589 63.1875 98.9583 63.1875 98.0625C63.1875 97.2292 62.9401 96.5677 62.4453 96.0781C61.9557 95.5885 61.2812 95.3438 60.4219 95.3438H60.0391V100.914ZM58.2734 104.156V102.398H58.0156C57.0833 102.398 56.263 102.229 55.5547 101.891C54.8516 101.547 54.2995 101.034 53.8984 100.352C53.4974 99.6693 53.2969 98.9115 53.2969 98.0781C53.2969 97.2708 53.4792 96.5443 53.8438 95.8984C54.2083 95.2474 54.7318 94.7396 55.4141 94.375C56.0964 94.0052 56.8958 93.8203 57.8125 93.8203H58.2734V92.4141H60.0391V93.8203H60.5156C61.4375 93.8203 62.237 94.0026 62.9141 94.3672C63.5964 94.7318 64.1146 95.237 64.4688 95.8828C64.8281 96.5234 65.0078 97.2552 65.0078 98.0781C65.0078 98.9271 64.8073 99.6901 64.4062 100.367C64.0052 101.044 63.4531 101.552 62.75 101.891C62.0521 102.229 61.2318 102.398 60.2891 102.398H60.0391V104.156H58.2734ZM58.2734 95.3438H57.8906C57.026 95.3438 56.349 95.5911 55.8594 96.0859C55.3698 96.5755 55.125 97.2344 55.125 98.0625C55.125 98.9479 55.388 99.6458 55.9141 100.156C56.4401 100.661 57.1797 100.914 58.1328 100.914H58.2734V95.3438ZM67.3047 92.5781H69.0156V98.5156C69.0156 99.1354 69 99.763 68.9688 100.398C68.9375 101.029 68.9141 101.456 68.8984 101.68H68.9688L74.8047 92.5781H76.9844V104H75.2656V98.1094C75.2656 97.2083 75.3151 96.1146 75.4141 94.8281H75.3516L69.4922 104H67.3047V92.5781ZM88.7578 102.445H90.2734V107.148H88.4688V104H79.9766V92.5781H81.8438V102.398H86.8828V92.5781H88.7578V102.445ZM92.1172 92.5781H93.8281V98.5156C93.8281 99.1354 93.8125 99.763 93.7812 100.398C93.75 101.029 93.7266 101.456 93.7109 101.68H93.7812L99.6172 92.5781H101.797V104H100.078V98.1094C100.078 97.2083 100.128 96.1146 100.227 94.8281H100.164L94.3047 104H92.1172V92.5781ZM111.875 104L110.734 100.828H106.367L105.25 104H103.281L107.555 92.5312H109.586L113.859 104H111.875ZM110.242 99.2188L109.172 96.1094C109.094 95.901 108.984 95.5729 108.844 95.125C108.708 94.6771 108.615 94.349 108.562 94.1406C108.422 94.7812 108.216 95.4818 107.945 96.2422L106.914 99.2188H110.242ZM123.938 104H122.07V94.1797H118.82C118.409 97.513 118.078 99.7812 117.828 100.984C117.583 102.188 117.237 103.026 116.789 103.5C116.341 103.969 115.747 104.195 115.008 104.18C114.628 104.18 114.266 104.115 113.922 103.984V102.43C114.219 102.56 114.508 102.625 114.789 102.625C115.164 102.625 115.456 102.401 115.664 101.953C115.878 101.5 116.109 100.503 116.359 98.9609C116.615 97.4193 116.917 95.2917 117.266 92.5781H123.938V104ZM134.922 100.562C134.922 101.682 134.544 102.536 133.789 103.125C133.039 103.708 131.951 104 130.523 104H126.961V92.5781H128.828V97.2188H130.445C131.893 97.2188 133 97.5078 133.766 98.0859C134.536 98.6589 134.922 99.4844 134.922 100.562ZM128.828 102.43H130.398C131.237 102.43 131.88 102.284 132.328 101.992C132.781 101.695 133.008 101.219 133.008 100.562C133.008 99.9479 132.792 99.4974 132.359 99.2109C131.927 98.9245 131.203 98.7812 130.188 98.7812H128.828V102.43ZM146.219 104H144.344V98.8516H139.078V104H137.211V92.5781H139.078V97.25H144.344V92.5781H146.219V104ZM156.805 100.562C156.805 101.693 156.438 102.549 155.703 103.133C154.974 103.711 153.901 104 152.484 104H149.227V92.5781H151.094V97.2188H152.422C153.849 97.2188 154.935 97.5052 155.68 98.0781C156.43 98.651 156.805 99.4792 156.805 100.562ZM151.094 102.445H152.375C153.208 102.445 153.839 102.297 154.266 102C154.693 101.698 154.906 101.219 154.906 100.562C154.906 99.9427 154.701 99.4948 154.289 99.2188C153.883 98.9375 153.19 98.7969 152.211 98.7969H151.094V102.445ZM160.281 104H158.406V92.5781H160.281V104ZM163.289 92.5781H165V98.5156C165 99.1354 164.984 99.763 164.953 100.398C164.922 101.029 164.898 101.456 164.883 101.68H164.953L170.789 92.5781H172.969V104H171.25V98.1094C171.25 97.2083 171.299 96.1146 171.398 94.8281H171.336L165.477 104H163.289V92.5781ZM168.188 91.6641C167.083 91.6641 166.273 91.4661 165.758 91.0703C165.247 90.6693 164.964 90.0026 164.906 89.0703H166.57C166.602 89.4453 166.672 89.737 166.781 89.9453C166.896 90.1536 167.057 90.3047 167.266 90.3984C167.479 90.487 167.802 90.5312 168.234 90.5312C168.745 90.5312 169.133 90.4193 169.398 90.1953C169.664 89.9661 169.826 89.5911 169.883 89.0703H171.578C171.5 89.9661 171.185 90.6224 170.633 91.0391C170.081 91.4557 169.266 91.6641 168.188 91.6641ZM184.977 94.0156C183.904 94.0156 183.06 94.3958 182.445 95.1562C181.831 95.9167 181.523 96.9661 181.523 98.3047C181.523 99.7057 181.818 100.766 182.406 101.484C183 102.203 183.857 102.562 184.977 102.562C185.461 102.562 185.93 102.516 186.383 102.422C186.836 102.323 187.307 102.198 187.797 102.047V103.648C186.901 103.987 185.885 104.156 184.75 104.156C183.078 104.156 181.794 103.651 180.898 102.641C180.003 101.625 179.555 100.174 179.555 98.2891C179.555 97.1016 179.771 96.0625 180.203 95.1719C180.641 94.2812 181.271 93.599 182.094 93.125C182.917 92.651 183.883 92.4141 184.992 92.4141C186.159 92.4141 187.237 92.6589 188.227 93.1484L187.555 94.7031C187.169 94.5208 186.76 94.362 186.328 94.2266C185.901 94.0859 185.451 94.0156 184.977 94.0156ZM197.344 104L196.203 100.828H191.836L190.719 104H188.75L193.023 92.5312H195.055L199.328 104H197.344ZM195.711 99.2188L194.641 96.1094C194.562 95.901 194.453 95.5729 194.312 95.125C194.177 94.6771 194.083 94.349 194.031 94.1406C193.891 94.7812 193.685 95.4818 193.414 96.2422L192.383 99.2188H195.711ZM200.836 92.5781H202.547V98.5156C202.547 99.1354 202.531 99.763 202.5 100.398C202.469 101.029 202.445 101.456 202.43 101.68H202.5L208.336 92.5781H210.516V104H208.797V98.1094C208.797 97.2083 208.846 96.1146 208.945 94.8281H208.883L203.023 104H200.836V92.5781ZM205.734 91.6641C204.63 91.6641 203.82 91.4661 203.305 91.0703C202.794 90.6693 202.51 90.0026 202.453 89.0703H204.117C204.148 89.4453 204.219 89.737 204.328 89.9453C204.443 90.1536 204.604 90.3047 204.812 90.3984C205.026 90.487 205.349 90.5312 205.781 90.5312C206.292 90.5312 206.68 90.4193 206.945 90.1953C207.211 89.9661 207.372 89.5911 207.43 89.0703H209.125C209.047 89.9661 208.732 90.6224 208.18 91.0391C207.628 91.4557 206.812 91.6641 205.734 91.6641ZM217.453 104H215.586V94.1797H212.227V92.5781H220.812V94.1797H217.453V104Z" fill="white"/>
</svg>
