<svg width="137" height="56" viewBox="0 0 137 56" fill="none" xmlns="http://www.w3.org/2000/svg">
<path d="M39.6803 6.46153C23.5247 11.6194 12.0742 21.9352 5.49857 37.6356C4.19479 34.6883 3.51456 31.4008 3.51456 28C3.51456 14.4534 14.455 3.51416 28.0029 3.51416C32.2544 3.51416 36.2224 4.59108 39.6803 6.46153Z" fill="white"/>
<path d="M39.4534 49.6518C36.0523 51.4656 32.1409 52.4858 28.0029 52.4858C19.7267 52.4858 12.4142 48.4049 7.99268 42.1134C13.7747 39.3927 18.9898 36.2186 23.6947 32.5344L39.4534 49.6518Z" fill="white"/>
<path d="M52.4913 28C52.4913 33.4413 50.734 38.4858 47.673 42.5668L31.6875 25.2794C36.2791 20.4615 40.1904 15.0203 43.4215 8.95547C48.9767 13.4899 52.4913 20.3482 52.4913 28Z" fill="white"/>
<path d="M28.0029 0C12.5276 0 0 12.5263 0 28C0 43.4737 12.5276 56 28.0029 56C43.4782 56 56.0058 43.4737 56.0058 28C56.0058 12.5263 43.4782 0 28.0029 0ZM28.0029 54.2996C13.4913 54.2996 1.75727 42.5101 1.75727 28C1.75727 13.4899 13.548 1.7004 28.0596 1.7004C42.5712 1.7004 54.3619 13.4899 54.3619 28C54.3052 42.5101 42.5145 54.2996 28.0029 54.2996Z" fill="white"/>
<path d="M39.6803 6.46153C23.5247 11.6194 12.0742 21.9352 5.49857 37.6356C4.19479 34.6883 3.51456 31.4008 3.51456 28C3.51456 14.4534 14.455 3.51416 28.0029 3.51416C32.2544 3.51416 36.2224 4.59108 39.6803 6.46153Z" fill="white"/>
<path d="M39.4534 49.6518C36.0523 51.4656 32.1409 52.4858 28.0029 52.4858C19.7267 52.4858 12.4142 48.4049 7.99268 42.1134C13.7747 39.3927 18.9898 36.2186 23.6947 32.5344L39.4534 49.6518Z" fill="white"/>
<path d="M52.4913 28C52.4913 33.4413 50.734 38.4858 47.673 42.5668L31.6875 25.2794C36.2791 20.4615 40.1904 15.0203 43.4215 8.95547C48.9767 13.4899 52.4913 20.3482 52.4913 28Z" fill="white"/>
<path d="M39.6803 6.46153C23.5247 11.6194 12.0742 21.9352 5.49857 37.6356C4.19479 34.6883 3.51456 31.4008 3.51456 28C3.51456 14.4534 14.455 3.51416 28.0029 3.51416C32.2544 3.51416 36.2224 4.59108 39.6803 6.46153Z" fill="white"/>
<path d="M39.4534 49.6518C36.0523 51.4656 32.1409 52.4858 28.0029 52.4858C19.7267 52.4858 12.4142 48.4049 7.99268 42.1134C13.7747 39.3927 18.9898 36.2186 23.6947 32.5344L39.4534 49.6518Z" fill="white"/>
<path d="M52.4913 28C52.4913 33.4413 50.734 38.4858 47.673 42.5668L31.6875 25.2794C36.2791 20.4615 40.1904 15.0203 43.4215 8.95547C48.9767 13.4899 52.4913 20.3482 52.4913 28Z" fill="white"/>
<path d="M60.314 11.8461H83.3852V16.4372H74.2587V39.6761H69.157V16.4372H60.314V11.8461Z" fill="white"/>
<path d="M89.5073 39.6761H84.3488L89.9041 11.8461H93.0218L98.9172 30.6639L104.756 11.8461H107.193L113.032 39.6761H108.044L105.096 25.0526L100.108 39.6761H97.5L92.1148 25.0526L89.5073 39.6761Z" fill="white"/>
<path d="M136.5 37.0688C134.233 39.0526 131.342 40.2429 128.224 40.2429C120.855 40.2429 114.959 33.7247 114.959 25.7328C114.959 17.6842 120.911 11.2227 128.224 11.2227C130.831 11.2227 133.269 12.0729 135.31 13.4899L133.212 17.7409C131.738 16.664 129.981 16.0971 128.224 16.0971C123.519 16.0971 120.458 20.4048 120.458 25.7895C120.458 31.1174 123.519 35.4818 128.224 35.4818C130.208 35.4818 132.192 34.6882 133.836 33.3846L136.5 37.0688Z" fill="white"/>
<path d="M69.1004 43.8138H72.3882V44.834H70.1774V50.6721H69.1004V43.8138Z" fill="white"/>
<path d="M83.3852 43.8137H85.1424C86.3895 43.8137 87.4099 44.4939 87.4099 45.9676C87.4099 47.3279 86.6163 48.1214 85.0857 48.1214H84.5189V50.6153H83.4418V43.8137H83.3852ZM85.1424 44.7773H84.5189V47.2145H85.1424C86.1061 47.2145 86.3328 46.6477 86.3328 46.0242C86.2761 45.2874 85.9927 44.7773 85.1424 44.7773Z" fill="white"/>
<path d="M98.2936 43.8137H99.484L100.618 46.3643C100.731 46.6477 100.844 46.9878 100.901 47.2712H100.958C101.015 46.9878 101.128 46.7044 101.241 46.3643L102.148 43.8137H103.282L101.185 49.1417C100.788 50.2186 100.391 50.7287 99.5974 50.7287C99.3706 50.7287 99.2006 50.672 99.0872 50.6153V49.6518C99.1439 49.7085 99.3139 49.7085 99.4273 49.7085C99.7107 49.7085 99.8808 49.5951 100.108 49.085L100.448 48.2915L98.2936 43.8137Z" fill="white"/>
<path d="M117.964 44.8343H115.526V50.6724H114.449V43.8708H119.097V50.6724H118.02V44.8343H117.964Z" fill="white"/>
<path d="M134.176 44.8343H131.738V50.6724H130.661V43.8708H135.31V50.6724H134.233V44.8343H134.176Z" fill="white"/>
</svg>
