<svg width="132" height="54" viewBox="0 0 132 54" fill="none" xmlns="http://www.w3.org/2000/svg">
<path d="M38.3707 6.23078C22.7484 11.2045 11.6757 21.1518 5.31713 36.2915C4.05637 33.4494 3.39859 30.2794 3.39859 27C3.39859 13.9373 13.9779 3.38867 27.0788 3.38867C31.1899 3.38867 35.027 4.42713 38.3707 6.23078Z" fill="#636771"/>
<path d="M38.1514 47.8785C34.8624 49.6275 31.0802 50.6113 27.0787 50.6113C19.0756 50.6113 12.0045 46.6761 7.72888 40.6093C13.32 37.9858 18.363 34.9251 22.9127 31.3724L38.1514 47.8785Z" fill="#636771"/>
<path d="M50.7589 27C50.7589 32.247 49.0597 37.1113 46.0996 41.0466L30.6417 24.3765C35.0818 19.7308 38.864 14.4838 41.9885 8.63562C47.3604 13.0081 50.7589 19.6215 50.7589 27Z" fill="#636771"/>
<path d="M27.0787 0C12.1142 0 0 12.0789 0 27C0 41.9211 12.1142 54 27.0787 54C42.0433 54 54.1575 41.9211 54.1575 27C54.1575 12.0789 42.0433 0 27.0787 0ZM27.0787 52.3603C13.046 52.3603 1.69927 40.9919 1.69927 27C1.69927 13.0081 13.1009 1.63968 27.1336 1.63968C41.1663 1.63968 52.5679 13.0081 52.5679 27C52.513 40.9919 41.1115 52.3603 27.0787 52.3603Z" fill="#636771"/>
<path d="M38.3707 6.23078C22.7484 11.2045 11.6757 21.1518 5.31713 36.2915C4.05637 33.4494 3.39859 30.2794 3.39859 27C3.39859 13.9373 13.9779 3.38867 27.0788 3.38867C31.1899 3.38867 35.027 4.42713 38.3707 6.23078Z" fill="#636771"/>
<path d="M38.1514 47.8785C34.8624 49.6275 31.0802 50.6113 27.0787 50.6113C19.0756 50.6113 12.0045 46.6761 7.72888 40.6093C13.32 37.9858 18.363 34.9251 22.9127 31.3724L38.1514 47.8785Z" fill="#636771"/>
<path d="M50.7589 27C50.7589 32.247 49.0597 37.1113 46.0996 41.0466L30.6417 24.3765C35.0818 19.7308 38.864 14.4838 41.9885 8.63562C47.3604 13.0081 50.7589 19.6215 50.7589 27Z" fill="#636771"/>
<path d="M38.3707 6.23078C22.7484 11.2045 11.6757 21.1518 5.31713 36.2915C4.05637 33.4494 3.39859 30.2794 3.39859 27C3.39859 13.9373 13.9779 3.38867 27.0788 3.38867C31.1899 3.38867 35.027 4.42713 38.3707 6.23078Z" fill="#636771"/>
<path d="M38.1514 47.8785C34.8624 49.6275 31.0802 50.6113 27.0787 50.6113C19.0756 50.6113 12.0045 46.6761 7.72888 40.6093C13.32 37.9858 18.363 34.9251 22.9127 31.3724L38.1514 47.8785Z" fill="#636771"/>
<path d="M50.7589 27C50.7589 32.247 49.0597 37.1113 46.0996 41.0466L30.6417 24.3765C35.0818 19.7308 38.864 14.4838 41.9885 8.63562C47.3604 13.0081 50.7589 19.6215 50.7589 27Z" fill="#636771"/>
<path d="M58.3235 11.4231H80.6333V15.8502H71.808V38.2591H66.8747V15.8502H58.3235V11.4231Z" fill="#636771"/>
<path d="M86.5533 38.2591H81.5652L86.9371 11.4231H89.9519L95.6527 29.5688L101.299 11.4231H103.656L109.302 38.2591H104.478L101.628 24.1579L96.8038 38.2591H94.2823L89.0748 24.1579L86.5533 38.2591Z" fill="#636771"/>
<path d="M131.995 35.7449C129.803 37.6578 127.007 38.8056 123.992 38.8056C116.866 38.8056 111.165 32.5202 111.165 24.8137C111.165 17.0525 116.921 10.8218 123.992 10.8218C126.514 10.8218 128.871 11.6416 130.844 13.008L128.816 17.1072C127.391 16.0687 125.692 15.5222 123.992 15.5222C119.443 15.5222 116.483 19.676 116.483 24.8683C116.483 30.006 119.443 34.2145 123.992 34.2145C125.911 34.2145 127.829 33.4493 129.419 32.1922L131.995 35.7449Z" fill="#636771"/>
<path d="M66.8199 42.249H69.9992V43.2328H67.8614V48.8624H66.8199V42.249Z" fill="#636771"/>
<path d="M80.6332 42.249H82.3325C83.5384 42.249 84.5251 42.9049 84.5251 44.3259C84.5251 45.6377 83.7577 46.4029 82.2777 46.4029H81.7295V48.8077H80.6881V42.249H80.6332ZM82.3325 43.1782H81.7295V45.5284H82.3325C83.2644 45.5284 83.4836 44.9818 83.4836 44.3806C83.4288 43.6701 83.1547 43.1782 82.3325 43.1782Z" fill="#636771"/>
<path d="M95.0497 42.249H96.2008L97.2971 44.7085C97.4067 44.9818 97.5164 45.3098 97.5712 45.583H97.626C97.6808 45.3098 97.7905 45.0365 97.9001 44.7085L98.7771 42.249H99.8734L97.8453 47.3867C97.4616 48.4251 97.0778 48.917 96.3104 48.917C96.0912 48.917 95.9267 48.8624 95.8171 48.8077V47.8786C95.8719 47.9332 96.0364 47.9332 96.146 47.9332C96.4201 47.9332 96.5845 47.8239 96.8038 47.332L97.1327 46.5668L95.0497 42.249Z" fill="#636771"/>
<path d="M114.071 43.2332H111.714V48.8628H110.672V42.3041H115.167V48.8628H114.125V43.2332H114.071Z" fill="#636771"/>
<path d="M129.748 43.2332H127.391V48.8628H126.349V42.3041H130.844V48.8628H129.803V43.2332H129.748Z" fill="#636771"/>
</svg>
