<svg width="262" height="124" viewBox="0 0 262 124" fill="none" xmlns="http://www.w3.org/2000/svg">
<path d="M0 0H262V124H0V0Z" fill="#1F327D"/>
<path d="M102.68 26.4615C86.5247 31.6194 75.0742 41.9352 68.4986 57.6356C67.1948 54.6883 66.5146 51.4008 66.5146 48C66.5146 34.4534 77.455 23.5142 91.0029 23.5142C95.2544 23.5142 99.2224 24.5911 102.68 26.4615Z" fill="white"/>
<path d="M102.453 69.6518C99.0523 71.4656 95.1409 72.4858 91.0029 72.4858C82.7267 72.4858 75.4142 68.4049 70.9927 62.1134C76.7747 59.3927 81.9898 56.2186 86.6947 52.5344L102.453 69.6518Z" fill="white"/>
<path d="M115.491 48C115.491 53.4413 113.734 58.4858 110.673 62.5668L94.6875 45.2794C99.2791 40.4615 103.19 35.0203 106.422 28.9555C111.977 33.4899 115.491 40.3482 115.491 48Z" fill="white"/>
<path d="M91.0029 20C75.5276 20 63 32.5263 63 48C63 63.4737 75.5276 76 91.0029 76C106.478 76 119.006 63.4737 119.006 48C119.006 32.5263 106.478 20 91.0029 20ZM91.0029 74.2996C76.4913 74.2996 64.7573 62.5101 64.7573 48C64.7573 33.4899 76.548 21.7004 91.0596 21.7004C105.571 21.7004 117.362 33.4899 117.362 48C117.305 62.5101 105.515 74.2996 91.0029 74.2996Z" fill="white"/>
<path d="M102.68 26.4615C86.5247 31.6194 75.0742 41.9352 68.4986 57.6356C67.1948 54.6883 66.5146 51.4008 66.5146 48C66.5146 34.4534 77.455 23.5142 91.0029 23.5142C95.2544 23.5142 99.2224 24.5911 102.68 26.4615Z" fill="white"/>
<path d="M102.453 69.6518C99.0523 71.4656 95.1409 72.4858 91.0029 72.4858C82.7267 72.4858 75.4142 68.4049 70.9927 62.1134C76.7747 59.3927 81.9898 56.2186 86.6947 52.5344L102.453 69.6518Z" fill="white"/>
<path d="M115.491 48C115.491 53.4413 113.734 58.4858 110.673 62.5668L94.6875 45.2794C99.2791 40.4615 103.19 35.0203 106.422 28.9555C111.977 33.4899 115.491 40.3482 115.491 48Z" fill="white"/>
<path d="M102.68 26.4615C86.5247 31.6194 75.0742 41.9352 68.4986 57.6356C67.1948 54.6883 66.5146 51.4008 66.5146 48C66.5146 34.4534 77.455 23.5142 91.0029 23.5142C95.2544 23.5142 99.2224 24.5911 102.68 26.4615Z" fill="white"/>
<path d="M102.453 69.6518C99.0523 71.4656 95.1409 72.4858 91.0029 72.4858C82.7267 72.4858 75.4142 68.4049 70.9927 62.1134C76.7747 59.3927 81.9898 56.2186 86.6947 52.5344L102.453 69.6518Z" fill="white"/>
<path d="M115.491 48C115.491 53.4413 113.734 58.4858 110.673 62.5668L94.6875 45.2794C99.2791 40.4615 103.19 35.0203 106.422 28.9555C111.977 33.4899 115.491 40.3482 115.491 48Z" fill="white"/>
<path d="M123.314 31.8461H146.385V36.4372H137.259V59.6761H132.157V36.4372H123.314V31.8461Z" fill="white"/>
<path d="M152.507 59.6761H147.349L152.904 31.8461H156.022L161.917 50.6639L167.756 31.8461H170.193L176.032 59.6761H171.044L168.096 45.0526L163.108 59.6761H160.5L155.115 45.0526L152.507 59.6761Z" fill="white"/>
<path d="M199.5 57.0688C197.233 59.0526 194.342 60.2429 191.224 60.2429C183.855 60.2429 177.959 53.7247 177.959 45.7328C177.959 37.6842 183.911 31.2227 191.224 31.2227C193.831 31.2227 196.269 32.0729 198.31 33.4899L196.212 37.7409C194.738 36.664 192.981 36.0971 191.224 36.0971C186.519 36.0971 183.458 40.4048 183.458 45.7895C183.458 51.1174 186.519 55.4818 191.224 55.4818C193.208 55.4818 195.192 54.6882 196.836 53.3846L199.5 57.0688Z" fill="white"/>
<path d="M132.1 63.8138H135.388V64.834H133.177V70.6721H132.1V63.8138Z" fill="white"/>
<path d="M146.385 63.8137H148.142C149.39 63.8137 150.41 64.4939 150.41 65.9676C150.41 67.3279 149.616 68.1214 148.086 68.1214H147.519V70.6153H146.442V63.8137H146.385ZM148.142 64.7773H147.519V67.2145H148.142C149.106 67.2145 149.333 66.6477 149.333 66.0242C149.276 65.2874 148.993 64.7773 148.142 64.7773Z" fill="white"/>
<path d="M161.294 63.8137H162.484L163.618 66.3643C163.731 66.6477 163.844 66.9878 163.901 67.2712H163.958C164.015 66.9878 164.128 66.7044 164.241 66.3643L165.148 63.8137H166.282L164.185 69.1417C163.788 70.2186 163.391 70.7287 162.597 70.7287C162.371 70.7287 162.201 70.672 162.087 70.6153V69.6518C162.144 69.7085 162.314 69.7085 162.427 69.7085C162.711 69.7085 162.881 69.5951 163.108 69.085L163.448 68.2915L161.294 63.8137Z" fill="white"/>
<path d="M180.964 64.8343H178.526V70.6724H177.449V63.8708H182.097V70.6724H181.02V64.8343H180.964Z" fill="white"/>
<path d="M197.176 64.8343H194.738V70.6724H193.661V63.8708H198.31V70.6724H197.233V64.8343H197.176Z" fill="white"/>
<path d="M57.9219 98.2734C57.9219 100.133 57.4557 101.578 56.5234 102.609C55.5964 103.641 54.2812 104.156 52.5781 104.156C50.8542 104.156 49.5286 103.646 48.6016 102.625C47.6797 101.599 47.2188 100.143 47.2188 98.2578C47.2188 96.3724 47.6823 94.9245 48.6094 93.9141C49.5417 92.9036 50.8698 92.3984 52.5938 92.3984C54.2917 92.3984 55.6042 92.9115 56.5312 93.9375C57.4583 94.9635 57.9219 96.4089 57.9219 98.2734ZM49.2031 98.2734C49.2031 99.6797 49.487 100.747 50.0547 101.477C50.6224 102.201 51.4635 102.562 52.5781 102.562C53.6875 102.562 54.5234 102.203 55.0859 101.484C55.6536 100.766 55.9375 99.6953 55.9375 98.2734C55.9375 96.8724 55.6562 95.8099 55.0938 95.0859C54.5365 94.362 53.7031 94 52.5938 94C51.474 94 50.6276 94.362 50.0547 95.0859C49.487 95.8099 49.2031 96.8724 49.2031 98.2734ZM66.375 100.914H66.5312C67.4688 100.914 68.2005 100.664 68.7266 100.164C69.2578 99.6589 69.5234 98.9583 69.5234 98.0625C69.5234 97.2292 69.276 96.5677 68.7812 96.0781C68.2917 95.5885 67.6172 95.3438 66.7578 95.3438H66.375V100.914ZM64.6094 104.156V102.398H64.3516C63.4193 102.398 62.599 102.229 61.8906 101.891C61.1875 101.547 60.6354 101.034 60.2344 100.352C59.8333 99.6693 59.6328 98.9115 59.6328 98.0781C59.6328 97.2708 59.8151 96.5443 60.1797 95.8984C60.5443 95.2474 61.0677 94.7396 61.75 94.375C62.4323 94.0052 63.2318 93.8203 64.1484 93.8203H64.6094V92.4141H66.375V93.8203H66.8516C67.7734 93.8203 68.5729 94.0026 69.25 94.3672C69.9323 94.7318 70.4505 95.237 70.8047 95.8828C71.1641 96.5234 71.3438 97.2552 71.3438 98.0781C71.3438 98.9271 71.1432 99.6901 70.7422 100.367C70.3411 101.044 69.7891 101.552 69.0859 101.891C68.388 102.229 67.5677 102.398 66.625 102.398H66.375V104.156H64.6094ZM64.6094 95.3438H64.2266C63.362 95.3438 62.6849 95.5911 62.1953 96.0859C61.7057 96.5755 61.4609 97.2344 61.4609 98.0625C61.4609 98.9479 61.724 99.6458 62.25 100.156C62.776 100.661 63.5156 100.914 64.4688 100.914H64.6094V95.3438ZM73.6406 92.5781H75.3516V98.5156C75.3516 99.1354 75.3359 99.763 75.3047 100.398C75.2734 101.029 75.25 101.456 75.2344 101.68H75.3047L81.1406 92.5781H83.3203V104H81.6016V98.1094C81.6016 97.2083 81.651 96.1146 81.75 94.8281H81.6875L75.8281 104H73.6406V92.5781ZM95.0938 102.445H96.6094V107.148H94.8047V104H86.3125V92.5781H88.1797V102.398H93.2188V92.5781H95.0938V102.445ZM98.4531 92.5781H100.164V98.5156C100.164 99.1354 100.148 99.763 100.117 100.398C100.086 101.029 100.062 101.456 100.047 101.68H100.117L105.953 92.5781H108.133V104H106.414V98.1094C106.414 97.2083 106.464 96.1146 106.562 94.8281H106.5L100.641 104H98.4531V92.5781ZM118.211 104L117.07 100.828H112.703L111.586 104H109.617L113.891 92.5312H115.922L120.195 104H118.211ZM116.578 99.2188L115.508 96.1094C115.43 95.901 115.32 95.5729 115.18 95.125C115.044 94.6771 114.951 94.349 114.898 94.1406C114.758 94.7812 114.552 95.4818 114.281 96.2422L113.25 99.2188H116.578ZM130.273 104H128.406V94.1797H125.156C124.745 97.513 124.414 99.7812 124.164 100.984C123.919 102.188 123.573 103.026 123.125 103.5C122.677 103.969 122.083 104.195 121.344 104.18C120.964 104.18 120.602 104.115 120.258 103.984V102.43C120.555 102.56 120.844 102.625 121.125 102.625C121.5 102.625 121.792 102.401 122 101.953C122.214 101.5 122.445 100.503 122.695 98.9609C122.951 97.4193 123.253 95.2917 123.602 92.5781H130.273V104ZM141.258 100.562C141.258 101.682 140.88 102.536 140.125 103.125C139.375 103.708 138.286 104 136.859 104H133.297V92.5781H135.164V97.2188H136.781C138.229 97.2188 139.336 97.5078 140.102 98.0859C140.872 98.6589 141.258 99.4844 141.258 100.562ZM135.164 102.43H136.734C137.573 102.43 138.216 102.284 138.664 101.992C139.117 101.695 139.344 101.219 139.344 100.562C139.344 99.9479 139.128 99.4974 138.695 99.2109C138.263 98.9245 137.539 98.7812 136.523 98.7812H135.164V102.43ZM152.555 104H150.68V98.8516H145.414V104H143.547V92.5781H145.414V97.25H150.68V92.5781H152.555V104ZM163.141 100.562C163.141 101.693 162.773 102.549 162.039 103.133C161.31 103.711 160.237 104 158.82 104H155.562V92.5781H157.43V97.2188H158.758C160.185 97.2188 161.271 97.5052 162.016 98.0781C162.766 98.651 163.141 99.4792 163.141 100.562ZM157.43 102.445H158.711C159.544 102.445 160.174 102.297 160.602 102C161.029 101.698 161.242 101.219 161.242 100.562C161.242 99.9427 161.036 99.4948 160.625 99.2188C160.219 98.9375 159.526 98.7969 158.547 98.7969H157.43V102.445ZM166.617 104H164.742V92.5781H166.617V104ZM169.625 92.5781H171.336V98.5156C171.336 99.1354 171.32 99.763 171.289 100.398C171.258 101.029 171.234 101.456 171.219 101.68H171.289L177.125 92.5781H179.305V104H177.586V98.1094C177.586 97.2083 177.635 96.1146 177.734 94.8281H177.672L171.812 104H169.625V92.5781ZM174.523 91.6641C173.419 91.6641 172.609 91.4661 172.094 91.0703C171.583 90.6693 171.299 90.0026 171.242 89.0703H172.906C172.938 89.4453 173.008 89.737 173.117 89.9453C173.232 90.1536 173.393 90.3047 173.602 90.3984C173.815 90.487 174.138 90.5312 174.57 90.5312C175.081 90.5312 175.469 90.4193 175.734 90.1953C176 89.9661 176.161 89.5911 176.219 89.0703H177.914C177.836 89.9661 177.521 90.6224 176.969 91.0391C176.417 91.4557 175.602 91.6641 174.523 91.6641ZM191.312 94.0156C190.24 94.0156 189.396 94.3958 188.781 95.1562C188.167 95.9167 187.859 96.9661 187.859 98.3047C187.859 99.7057 188.154 100.766 188.742 101.484C189.336 102.203 190.193 102.562 191.312 102.562C191.797 102.562 192.266 102.516 192.719 102.422C193.172 102.323 193.643 102.198 194.133 102.047V103.648C193.237 103.987 192.221 104.156 191.086 104.156C189.414 104.156 188.13 103.651 187.234 102.641C186.339 101.625 185.891 100.174 185.891 98.2891C185.891 97.1016 186.107 96.0625 186.539 95.1719C186.977 94.2812 187.607 93.599 188.43 93.125C189.253 92.651 190.219 92.4141 191.328 92.4141C192.495 92.4141 193.573 92.6589 194.562 93.1484L193.891 94.7031C193.505 94.5208 193.096 94.362 192.664 94.2266C192.237 94.0859 191.786 94.0156 191.312 94.0156ZM203.68 104L202.539 100.828H198.172L197.055 104H195.086L199.359 92.5312H201.391L205.664 104H203.68ZM202.047 99.2188L200.977 96.1094C200.898 95.901 200.789 95.5729 200.648 95.125C200.513 94.6771 200.419 94.349 200.367 94.1406C200.227 94.7812 200.021 95.4818 199.75 96.2422L198.719 99.2188H202.047ZM211.117 104H209.25V94.1797H205.891V92.5781H214.477V94.1797H211.117V104Z" fill="white"/>
</svg>
