<svg width="16" height="12" viewBox="0 0 16 12" fill="none" xmlns="http://www.w3.org/2000/svg">
<path d="M1.53568 3.69888C1.73808 3.83521 2.34818 4.24012 3.36601 4.91339C4.38388 5.58666 5.16364 6.10506 5.70531 6.46862C5.76482 6.50848 5.89126 6.59511 6.08468 6.72863C6.27814 6.86225 6.43888 6.97022 6.56678 7.05258C6.69478 7.13491 6.84952 7.22727 7.03115 7.32951C7.21272 7.43167 7.38388 7.5085 7.54459 7.55937C7.70533 7.61066 7.85413 7.63606 7.99101 7.63606H7.99998H8.00899C8.14587 7.63606 8.29473 7.61063 8.45547 7.55937C8.61612 7.5085 8.78743 7.43158 8.96885 7.32951C9.15035 7.22715 9.30509 7.13488 9.43309 7.05258C9.56109 6.97022 9.72171 6.86225 9.91522 6.72863C10.1086 6.59499 10.2352 6.50848 10.2947 6.46862C10.8422 6.10506 12.2352 5.18172 14.4732 3.6987C14.9077 3.40905 15.2707 3.05955 15.5624 2.65043C15.8542 2.24149 16 1.8125 16 1.36368C16 0.988624 15.8585 0.66757 15.5758 0.400548C15.293 0.133466 14.9581 0 14.5714 0H1.42851C0.970207 0 0.617512 0.147706 0.370489 0.443117C0.123496 0.738587 0 1.10791 0 1.55106C0 1.90901 0.163744 2.2969 0.491076 2.71449C0.818377 3.13212 1.16669 3.46027 1.53568 3.69888Z" fill="#848895"/>
<path d="M15.107 4.61084C13.1548 5.8721 11.6725 6.8523 10.6607 7.55125C10.3215 7.78979 10.0462 7.976 9.83485 8.10944C9.62348 8.24297 9.34237 8.37933 8.99111 8.51847C8.63998 8.65781 8.31274 8.72728 8.00912 8.72728H8.00002H7.99104C7.68747 8.72728 7.36005 8.65781 7.00892 8.51847C6.65779 8.37933 6.37649 8.24297 6.16518 8.10944C5.95393 7.976 5.67861 7.78979 5.33936 7.55125C4.53574 6.98878 3.0566 6.00852 0.901876 4.61084C0.562504 4.39507 0.26191 4.14775 0 3.86938V10.6363C0 11.0115 0.139821 11.3324 0.419618 11.5994C0.699353 11.8666 1.03572 12.0001 1.4286 12.0001H14.5715C14.9643 12.0001 15.3006 11.8666 15.5804 11.5994C15.8602 11.3323 16 11.0116 16 10.6363V3.86938C15.744 4.14199 15.4465 4.38931 15.107 4.61084Z" fill="#848895"/>
</svg>
