<svg width="9" height="16" viewBox="0 0 9 16" fill="none" xmlns="http://www.w3.org/2000/svg">
<path d="M7.84344 0H1.15656C0.516602 0 0 0.522411 0 1.16551V14.8357C0 15.4782 0.516602 16 1.15656 16H7.84344C8.48224 16 9 15.4782 9 14.8357V1.16551C9 0.522411 8.48224 0 7.84344 0ZM2.85 0.70782H6.15116C6.23456 0.70782 6.30232 0.833175 6.30232 0.988266C6.30232 1.14336 6.23456 1.2693 6.15116 1.2693H2.85C2.76602 1.2693 2.69942 1.14336 2.69942 0.988266C2.69942 0.833175 2.76602 0.70782 2.85 0.70782ZM4.50058 14.8496C4.09344 14.8496 3.76216 14.5161 3.76216 14.1057C3.76216 13.6952 4.09344 13.3629 4.50058 13.3629C4.90656 13.3629 5.23784 13.6952 5.23784 14.1057C5.23784 14.5161 4.90656 14.8496 4.50058 14.8496ZM8.13359 12.3023H0.866988V1.96662H8.13359V12.3023Z" fill="#1F327D"/>
</svg>
