<svg width="18" height="18" viewBox="0 0 18 18" fill="none" xmlns="http://www.w3.org/2000/svg">
<path d="M17.6001 15.642L13.8897 11.9317C14.7839 10.641 15.2312 9.202 15.2312 7.61561C15.2312 6.58437 15.031 5.59809 14.6306 4.65702C14.2304 3.71579 13.6895 2.90453 13.008 2.22303C12.3265 1.54153 11.5154 1.0006 10.5743 0.600418C9.63298 0.200127 8.64678 0 7.61554 0C6.58436 0 5.59809 0.200127 4.65702 0.600418C3.71579 1.0006 2.90453 1.54153 2.22303 2.22303C1.54145 2.90453 1.0006 3.71595 0.60038 4.65702C0.200127 5.59821 0 6.58437 0 7.61561C0 8.64678 0.200127 9.63272 0.60038 10.5741C1.00056 11.5151 1.54145 12.3263 2.22303 13.0078C2.90453 13.6895 3.71595 14.2302 4.65702 14.6306C5.59821 15.0308 6.58436 15.2309 7.61554 15.2309C9.20227 15.2309 10.641 14.7836 11.9319 13.8895L15.6422 17.5889C15.9018 17.8629 16.2259 18 16.6157 18C16.9907 18 17.3154 17.863 17.5892 17.5889C17.8631 17.315 18.0002 16.9905 18.0002 16.6155C18.0003 16.2335 17.8669 15.9088 17.6001 15.642ZM11.0393 11.039C10.091 11.9874 8.94981 12.4617 7.61554 12.4617C6.28148 12.4617 5.14032 11.9873 4.19194 11.039C3.24355 10.0907 2.76938 8.94967 2.76938 7.61539C2.76938 6.28133 3.24367 5.13998 4.19194 4.19179C5.14013 3.24336 6.28148 2.76923 7.61554 2.76923C8.94966 2.76923 10.0908 3.24355 11.0393 4.19179C11.9877 5.13998 12.4619 6.28133 12.4619 7.61539C12.4619 8.94967 11.9876 10.0907 11.0393 11.039Z" fill="#F1F3FF"/>
</svg>
