<svg width="191" height="66" viewBox="0 0 191 66" fill="none" xmlns="http://www.w3.org/2000/svg">
<path d="M14.1749 40.9999H10.3421V27.7999H4.47325V40.9999H0.640503V24.1999H14.1749V40.9999Z" fill="#25292F"/>
<path d="M29.868 40.9999H19.6873V24.1999H29.6285V27.7999H23.52V30.7519H28.9098V34.3519H23.52V37.3999H29.868V40.9999Z" fill="#25292F"/>
<path d="M38.4964 35.2879V40.9999H34.6636V24.1999C35.3982 24.1999 36.2047 24.1919 37.083 24.1759C37.9774 24.1599 38.8796 24.1519 39.7899 24.1519C42.1535 24.1519 43.8782 24.6799 44.9641 25.7359C46.0341 26.7599 46.5691 28.0879 46.5691 29.7199C46.5691 31.2879 46.0022 32.6239 44.8683 33.7279C43.7345 34.8159 42.2333 35.3599 40.3648 35.3599C39.5344 35.3599 38.9116 35.3359 38.4964 35.2879ZM40.1732 27.7519C40.1572 27.7519 40.0854 27.7599 39.9576 27.7759C39.8298 27.7759 39.6302 27.7839 39.3587 27.7999C39.0873 27.7999 38.7998 27.7999 38.4964 27.7999V31.6399C39.1671 31.7199 39.75 31.7599 40.2451 31.7599C40.8998 31.7599 41.4348 31.5919 41.85 31.2559C42.2812 30.9039 42.4968 30.3839 42.4968 29.6959C42.4968 28.3999 41.7223 27.7519 40.1732 27.7519Z" fill="#25292F"/>
<path d="M50.8798 40.9519V24.2479C52.7483 24.1519 54.4411 24.1039 55.9582 24.1039C57.8107 24.1039 59.2081 24.4799 60.1503 25.2319C61.1085 25.9679 61.5876 26.9839 61.5876 28.2799C61.5876 29.9279 60.9488 31.1759 59.6712 32.0239V32.0719C60.3898 32.3439 60.9647 32.8079 61.3959 33.4639C61.8431 34.1199 62.0666 34.9359 62.0666 35.9119C62.0666 37.5919 61.4758 38.8799 60.294 39.7759C59.1282 40.6559 57.5951 41.0959 55.6947 41.0959C53.4749 41.0959 51.8699 41.0479 50.8798 40.9519ZM56.1978 34.2079H54.7126V37.3519C55.0639 37.4479 55.4951 37.4959 56.0061 37.4959C57.4913 37.4959 58.2339 36.9039 58.2339 35.7199C58.2339 34.7119 57.5552 34.2079 56.1978 34.2079ZM55.9103 27.7039C55.6228 27.7039 55.2236 27.7359 54.7126 27.7999V30.8479H55.9822C57.1639 30.8479 57.7548 30.3039 57.7548 29.2159C57.7548 28.7519 57.5791 28.3839 57.2278 28.1119C56.8765 27.8399 56.4373 27.7039 55.9103 27.7039Z" fill="#25292F"/>
<path d="M83.7501 40.9999H79.9174V24.1999H83.7501V40.9999ZM71.8446 32.9599C71.669 32.9599 71.2857 32.9999 70.6948 33.0799V37.3519C71.2058 37.4159 71.5811 37.4479 71.8207 37.4479C73.4177 37.4479 74.2162 36.6719 74.2162 35.1199C74.2162 34.4159 74.0085 33.8799 73.5933 33.5119C73.1781 33.1439 72.5952 32.9599 71.8446 32.9599ZM66.8621 24.1999H70.6948V29.4559C71.1579 29.3919 71.653 29.3599 72.18 29.3599C74.1603 29.3599 75.6694 29.8559 76.7074 30.8479C77.7614 31.8399 78.2885 33.2319 78.2885 35.0239C78.2885 36.8479 77.6816 38.3119 76.4679 39.4159C75.2382 40.5039 73.5374 41.0479 71.3655 41.0479C70.3754 41.0479 69.529 41.0399 68.8263 41.0239C68.1396 41.0079 67.4849 40.9999 66.8621 40.9999V24.1999Z" fill="#25292F"/>
<path d="M100.034 30.5599L92.6077 40.9999H89.2541V24.1999H93.0868V34.6399L100.513 24.1999H103.866V40.9999H100.034V30.5599ZM91.8891 19.8799H95.4823C95.4823 20.3279 95.5941 20.6399 95.8176 20.8159C96.0412 20.9919 96.4245 21.0799 96.9675 21.0799C97.4785 21.0799 97.8378 20.9999 98.0454 20.8399C98.253 20.6639 98.3568 20.3439 98.3568 19.8799H101.95C101.982 21.0319 101.527 21.9599 100.585 22.6639C99.6584 23.3679 98.4527 23.7199 96.9675 23.7199C95.3865 23.7199 94.1408 23.3759 93.2305 22.6879C92.3362 21.9839 91.8891 21.0479 91.8891 19.8799Z" fill="#25292F"/>
<path d="M119.203 40.9999H115.37V24.1999H119.227L124.401 31.2799L129.288 24.1999H132.905V40.9999H129.072V30.2959L124.401 36.8479H123.85L119.203 30.3679V40.9999Z" fill="#25292F"/>
<path d="M148.263 41.1919H144.43V38.9359C142.162 38.9199 140.35 38.3359 138.992 37.1839C137.651 36.0319 136.98 34.4239 136.98 32.3599C136.98 30.3119 137.659 28.7279 139.016 27.6079C140.374 26.4719 142.178 25.8639 144.43 25.7839V24.0079H148.263V25.7839C150.514 25.8319 152.319 26.4399 153.676 27.6079C155.066 28.7919 155.76 30.3759 155.76 32.3599C155.76 34.4079 155.074 36.0079 153.7 37.1599C152.327 38.3279 150.514 38.9199 148.263 38.9359V41.1919ZM151.688 32.3599C151.688 31.4479 151.401 30.7199 150.826 30.1759C150.267 29.6319 149.412 29.3439 148.263 29.3119V35.4079C149.476 35.3919 150.347 35.1359 150.874 34.6399C151.417 34.1439 151.688 33.3839 151.688 32.3599ZM141.052 32.3599C141.052 34.3439 142.178 35.3599 144.43 35.4079V29.3119C143.312 29.3439 142.466 29.6319 141.891 30.1759C141.332 30.7199 141.052 31.4479 141.052 32.3599Z" fill="#25292F"/>
<path d="M171.924 40.9999H159.827V24.1999H163.66V37.3999H169.409V24.1999H173.241V37.3999H175.517V43.8799H171.924V40.9999Z" fill="#25292F"/>
<path fill-rule="evenodd" clip-rule="evenodd" d="M114.784 0H190.641V66H114.784V49.5H120.773V60H184.652V6H120.773V16H114.784V0Z" fill="#F05023"/>
</svg>
