<svg width="72" height="72" viewBox="0 0 72 72" fill="none" xmlns="http://www.w3.org/2000/svg">
<path d="M45.8263 22.2254L45.7653 22.2154C44.9986 22.0915 44.277 22.6143 44.154 23.3812C44.0312 24.1479 44.5531 24.8693 45.3199 24.9924L45.3691 25.0004C45.4466 25.0132 45.5235 25.0194 45.5995 25.0194C46.2755 25.0194 46.8717 24.5304 46.9852 23.8416C47.1115 23.0754 46.5926 22.3517 45.8263 22.2254Z" fill="white"/>
<path d="M70.5653 40.0247C68.9278 38.3872 66.2636 38.3872 64.6262 40.0247C64.077 40.5738 64.077 41.4643 64.6262 42.0135C65.1753 42.5627 66.0658 42.5627 66.615 42.0135C67.1559 41.4726 68.0359 41.4727 68.5768 42.0135C69.39 42.8266 69.39 44.1496 68.5768 44.9629C68.0181 45.5217 67.2751 45.8294 66.4848 45.8294C65.6947 45.8294 64.9517 45.5217 64.393 44.9629C64.3922 44.962 64.3912 44.9612 64.3902 44.9603C64.3999 44.6901 64.4064 44.4193 64.4064 44.1475C64.4064 35.4407 59.2802 27.4926 51.3468 23.8988C50.6393 23.5784 49.806 23.892 49.4857 24.5994C49.1652 25.3069 49.4789 26.1402 50.1862 26.4606C57.1161 29.5997 61.5939 36.5422 61.5939 44.1474C61.5939 50.7783 58.2602 56.8829 52.6764 60.4773C52.2744 60.7362 52.0314 61.1816 52.0314 61.6598V68.3437C52.0314 68.8091 51.653 69.1875 51.1876 69.1875H44.4376C43.9723 69.1875 43.5939 68.8091 43.5939 68.3437V65.5737C43.5939 64.4598 42.6877 63.5536 41.574 63.5536H27.0513C25.9374 63.5536 25.0312 64.4598 25.0312 65.5737V68.3437C25.0312 68.8091 24.6528 69.1875 24.1875 69.1875H17.4375C16.9722 69.1875 16.5938 68.8091 16.5938 68.3437V61.6598C16.5938 61.1817 16.3507 60.7362 15.9487 60.4775C11.925 57.8873 9.0083 53.9319 7.73606 49.3401C7.54833 48.6623 6.88866 48.2271 6.19144 48.3221C6.12056 48.3317 6.05152 48.3466 5.98458 48.3661H4.63627C3.63066 48.3661 2.8125 47.548 2.8125 46.5424V41.7523C2.8125 40.7466 3.63066 39.9285 4.63627 39.9285H6.00244C6.06375 39.9456 6.12675 39.9586 6.1913 39.9674C6.88852 40.0629 7.54805 39.6276 7.73592 38.9497C9.92264 31.0635 16.8742 25.3735 25.0341 24.7909C25.8088 24.7356 26.3919 24.0628 26.3367 23.2881C26.2814 22.5134 25.6077 21.9316 24.8338 21.9854C23.4924 22.0812 22.1804 22.2999 20.908 22.627C20.0945 18.8356 16.7185 15.9841 12.6877 15.9841H12.153C11.3763 15.9841 10.7467 16.6137 10.7467 17.3904V28.4224C8.33977 30.8213 6.46763 33.7778 5.35584 37.1163H4.63627C2.07984 37.1163 0 39.1961 0 41.7525V46.5426C0 49.0991 2.07984 51.1789 4.63627 51.1789H5.35725C6.87248 55.7288 9.82167 59.6645 13.7812 62.4113V68.3437C13.7812 70.3597 15.4215 72 17.4375 72H24.1875C26.2035 72 27.8438 70.3597 27.8438 68.3437V66.3661H40.7812V68.3437C40.7812 70.3597 42.4215 72 44.4375 72H51.1875C53.2035 72 54.8438 70.3597 54.8438 68.3437V62.4112C59.7468 59.0124 63.019 53.8723 64.0536 48.1072C64.8055 48.4568 65.6307 48.6418 66.4847 48.6418C68.0262 48.6418 69.4754 48.0414 70.5655 46.9514C72.4752 45.0418 72.4752 41.9345 70.5653 40.0247ZM13.5592 18.8646C15.9438 19.2392 17.8321 21.1255 18.2122 23.5081C16.5583 24.1686 14.997 25.0225 13.5592 26.0463V18.8646Z" fill="white"/>
<path d="M16.9158 35.0241C16.6542 34.7611 16.2914 34.6121 15.9216 34.6121C15.5503 34.6121 15.1889 34.7611 14.9273 35.0241C14.6658 35.2857 14.5153 35.6471 14.5153 36.0183C14.5153 36.3882 14.6658 36.751 14.9273 37.0125C15.1889 37.2741 15.5517 37.4246 15.9216 37.4246C16.2914 37.4246 16.6542 37.2741 16.9158 37.0125C17.1773 36.7496 17.3278 36.3882 17.3278 36.0183C17.3278 35.6485 17.1773 35.2857 16.9158 35.0241Z" fill="white"/>
<path d="M42.7894 29.9531H26.82C26.0433 29.9531 25.4137 30.5827 25.4137 31.3594C25.4137 32.136 26.0433 32.7656 26.82 32.7656H42.7894C43.566 32.7656 44.1956 32.136 44.1956 31.3594C44.1956 30.5827 43.566 29.9531 42.7894 29.9531Z" fill="white"/>
<path d="M34.8047 12.1772C30.6951 12.1772 27.3516 15.5207 27.3516 19.6304C27.3516 23.74 30.6951 27.0835 34.8047 27.0835C38.9143 27.0835 42.2578 23.74 42.2578 19.6304C42.2578 15.5207 38.9143 12.1772 34.8047 12.1772ZM34.8047 24.271C32.2459 24.271 30.1641 22.1892 30.1641 19.6304C30.1641 17.0716 32.2459 14.9897 34.8047 14.9897C37.3635 14.9897 39.4453 17.0716 39.4453 19.6304C39.4453 22.1892 37.3635 24.271 34.8047 24.271Z" fill="white"/>
<path d="M34.8023 0C34.0256 0 33.396 0.629578 33.396 1.40625V7.47267C33.396 8.24934 34.0258 8.87892 34.8023 8.87892C35.579 8.87892 36.2085 8.24934 36.2085 7.47267V1.40625C36.2085 0.629578 35.579 0 34.8023 0Z" fill="white"/>
<path d="M47.4871 5.4392C46.938 4.89006 46.0475 4.89006 45.4982 5.4392L41.7949 9.14256C41.2457 9.6917 41.2457 10.5821 41.7949 11.1314C42.0695 11.4061 42.4295 11.5433 42.7894 11.5433C43.1492 11.5433 43.5092 11.4061 43.7837 11.1314L47.4871 7.42806C48.0362 6.87892 48.0362 5.98848 47.4871 5.4392Z" fill="white"/>
<path d="M27.8144 9.13548L24.111 5.43212C23.5619 4.88298 22.6714 4.88298 22.1221 5.43212C21.573 5.98126 21.573 6.8717 22.1221 7.42098L25.8256 11.1243C26.1003 11.399 26.4601 11.5362 26.82 11.5362C27.1799 11.5362 27.5399 11.399 27.8144 11.1243C28.3635 10.5752 28.3635 9.68476 27.8144 9.13548Z" fill="white"/>
</svg>
